<svg id="Layer_1" data-name="Layer 1" xmlns="http://www.w3.org/2000/svg" xmlns:xlink="http://www.w3.org/1999/xlink" width="1920" height="1080" viewBox="0 0 1920 1080"><defs><style>.cls-1{fill:#fff;}.cls-2{fill:url(#linear-gradient);}.cls-3{fill:#bfebff;}.cls-4{fill:#4c6b4c;}.cls-5{fill:#579157;}.cls-6{fill:#c1b272;}.cls-7{fill:#0a0a0a;}.cls-8{fill:#6a2300;}.cls-9{fill:#940000;}.cls-10{fill:#d40b00;}.cls-11{fill:#4e5360;}.cls-12{opacity:0.7;}.cls-13,.cls-14{fill:#53c2eb;}.cls-14{opacity:0.8;}.cls-15{fill:#eaf5f7;}.cls-16{fill:#ffd12d;}.cls-17{fill:#76b72a;}.cls-18{fill:#ee796c;}.cls-19{fill:#f7b884;}.cls-20{fill:#7cb829;}.cls-21{fill:#f8b133;}.cls-22{fill:#fcea0d;}.cls-23{fill:#b17f49;}.cls-24{fill:#e63738;}.cls-25{fill:#1d1d1b;}.cls-26{fill:#334733;}</style><linearGradient id="linear-gradient" x1="-1.77" y1="338.89" x2="5.51" y2="-70.53" gradientUnits="userSpaceOnUse"><stop offset="0" stop-color="#c7def3"/><stop offset="0.06" stop-color="#b7d6ef"/><stop offset="0.19" stop-color="#8fc0e4"/><stop offset="0.36" stop-color="#4d9dd2"/><stop offset="0.53" stop-color="#0075be"/></linearGradient></defs><rect class="cls-1" x="1522.79" y="3.06" width="396" height="424"/><path class="cls-2" d="M1,0H0V422.41l1-.2Z"/><path class="cls-3" d="M5.28,421.34c112-21.9,291.78-77.09,375,1.55,70.53-4.32,142.11-6.87,210.8-7.6,86.42-85.59,275.36-74.59,350.35-37.77.73-9.95,9.38-18.78,22.59-24.61a34.34,34.34,0,0,1-.28-4.21c0-19.33,16.88-35,37.7-35,.74,0,1.49,0,2.23.07,3.47-15.6,10.64-26.31,18.93-26.31,9,0,16.64,12.57,19.71,30.3,17.1-14.33,33.2-16.21,38.67-3,2.9,7,2.34,17-.92,28a73.23,73.23,0,0,1,18.75,4.87c62.19-1.95,68.31,11,51.52,29.79-.71.79-1.51,1.67-2.39,2.61,25.95,3.71,45.1,16.71,45.1,32.17,0,18.36-27,33.25-60.31,33.25a107,107,0,0,1-14.88-1,78.12,78.12,0,0,1-26.35-.44,126.4,126.4,0,0,1,17.4,9.21,92.32,92.32,0,0,1,15.33,12.47c28,8.83,49.79,18.69,65.84,29.57,60.73-3.91,117.26,3.44,155.33,36.54q41.45-11.58,77.4-20.08H1421l34.26-141.21-15-29.35h.27l17.67-25.81v-.14h44.4l15.33-29.82v-.46h41.24V246h.52l-.08-.27,15.37-5V160.37l-10.2-10.94h.19l44.93-69.85h-.21V63.46H1602V61.29h7.69V55h2.06v6.29h7.91v2.17h-7.91v16l45,70-7.56,8.11v84.93l13.06,4.27v38.59h41v.46l15.26,29.69h44.87v.14l17.38,25.8h-1.14l-14.84,29,23.49,96.83c29.94,8.42,57,28.15,79.26,63.64,25.19,40.19,35.18,82,34.17,123.46a127.93,127.93,0,0,1,18.24,4.32v-506c-2.4.18-4.86.28-7.38.28a87.21,87.21,0,0,1-23.34-3,118.47,118.47,0,0,1-27.32,3,132.18,132.18,0,0,1-14.23-.76c-2.92,5.06-8.16,8.76-17.4,8.76-8.17,0-15-3.36-20.44-8.18-2.24.12-4.53.18-6.85.18-27.4,0-49.62-8.11-49.62-18.11,0-6.62,9.74-12.41,24.27-15.57a7,7,0,0,1-.49-2.54c0-5.73,7.28-10.83,18.64-14.15a12.52,12.52,0,0,1-.23-2.29c0-10.53,13.89-19.07,31-19.07.62,0,1.23,0,1.84,0,2.86-8.5,8.76-14.34,15.58-14.34,7.38,0,13.69,6.85,16.22,16.51,14.06-7.8,27.31-8.83,31.82-1.63,2.37,3.8,1.92,9.26-.76,15.27,12,1,22.22,4.06,28.68,8.27V0H1310.22c2.44,5.09,1.82,12.18-1.23,20,24.37,2.32,42.76,12.73,42.76,25.24a12.55,12.55,0,0,1-.3,2.73c19.4,3.4,33.27,12.41,33.27,23,0,13.5-22.57,24.44-50.4,24.44a92.12,92.12,0,0,1-27.75-4,117.87,117.87,0,0,1-23.32,3.75c-7.18,7.93-15.49,13.18-25.86,11.69A72,72,0,0,1,1226,93.6c-19.15,4.57-32.35,10.85-32.36,1.36-27.62-2-48.59-12-48.59-24,0-8.93,11.58-16.75,28.86-21a10.61,10.61,0,0,1-.59-3.43c0-7.72,8.67-14.61,22.18-19.09a18.71,18.71,0,0,1-.27-3.1c0-11.23,10.32-20.77,24.7-24.28H1V422.21C2.42,421.91,3.85,421.62,5.28,421.34Zm1394-349.5a8,8,0,0,1-.42-2.5c0-5.64,6.19-10.66,15.85-13.92a13.21,13.21,0,0,1-.2-2.27c0-10.36,11.8-18.77,26.36-18.77.52,0,1,0,1.56,0,2.42-8.36,7.44-14.11,13.23-14.11,6.28,0,11.64,6.74,13.79,16.25,12-7.68,23.21-8.69,27-1.6,2,3.74,1.64,9.11-.64,15,17.42,1.69,30.56,9.29,30.56,18.41a9,9,0,0,1-.22,2c13.87,2.48,23.78,9,23.78,16.77,0,9.85-16.13,17.83-36,17.83a64.61,64.61,0,0,1-19.83-3,87.64,87.64,0,0,1-23.22,3,85.82,85.82,0,0,1-25-3.48,85.82,85.82,0,0,1-25,3.48c-23.29,0-42.17-8-42.17-17.83C1378.68,80.65,1387,75,1399.31,71.84ZM458.17,96.42a5,5,0,0,1-.58-2.25c0-5.06,8.46-9.56,21.64-12.5a8.12,8.12,0,0,1-.27-2c0-9.31,16.12-16.85,36-16.85.72,0,1.43,0,2.13,0,3.32-7.5,10.17-12.66,18.08-12.66,8.57,0,15.89,6,18.82,14.59,16.33-6.9,31.7-7.81,36.93-1.45,2.76,3.36,2.23,8.19-.89,13.5,23.79,1.52,41.74,8.34,41.74,16.52a5.56,5.56,0,0,1-.3,1.79c1.84.22,3.63.47,5.35.75,7.68-2.51,14-1.54,16.72,3.44a11,11,0,0,1,.56,1.26c6.17,2.68,9.84,6,9.84,9.6,0,1.91-1,3.75-2.93,5.45,13.23,2.93,22.45,9.5,22.45,17.13a9.57,9.57,0,0,1-.21,2C697.1,137.23,707,143.8,707,151.52c0,9.85-16.13,17.83-36,17.83a64.61,64.61,0,0,1-19.83-2.95,87.64,87.64,0,0,1-23.22,2.95,85.48,85.48,0,0,1-25-3.48,85.48,85.48,0,0,1-25,3.48c-23.29,0-42.17-8-42.17-17.83,0-6.52,8.28-12.22,20.63-15.33a7.9,7.9,0,0,1-.42-2.5c0-2.7,1.44-5.26,4-7.56-1.3,0-2.61,0-3.93,0A173.73,173.73,0,0,1,521.77,123a173.66,173.66,0,0,1-34.19,3.13c-31.8,0-57.58-7.16-57.58-16C430,104.32,441.3,99.21,458.17,96.42ZM146.48,243.34a12.81,12.81,0,0,1-.92-4.66c0-10.48,13.42-19.82,34.35-25.89a21.1,21.1,0,0,1-.43-4.21c0-19.27,25.57-34.9,57.11-34.9,1.14,0,2.26,0,3.38.06,5.26-15.55,16.13-26.24,28.68-26.24,13.6,0,25.22,12.54,29.88,30.23,25.9-14.29,50.3-16.17,58.59-3,4.38,7,3.54,17-1.4,28C393.47,205.85,422,220,422,236.94a15,15,0,0,1-.47,3.71c30,4.62,51.52,16.84,51.52,31.19C473,290.15,438.05,305,395,305a161.37,161.37,0,0,1-43-5.48A219.57,219.57,0,0,1,301.67,305c-20.32,0-39.08-2.41-54.26-6.48-15.17,4.07-33.94,6.48-54.25,6.48-50.47,0-91.38-14.85-91.38-33.16C101.78,259.72,119.72,249.12,146.48,243.34Z"/><path class="cls-1" d="M986,420.53c41.69,3.3,79.33,11.94,105.47,23.49a78.12,78.12,0,0,0,26.35.44,107,107,0,0,0,14.88,1c33.31,0,60.31-14.89,60.31-33.25,0-15.46-19.15-28.46-45.1-32.17.88-.94,1.68-1.82,2.39-2.61,16.79-18.76,10.67-31.74-51.52-29.79A73.23,73.23,0,0,0,1080,342.8c3.26-11,3.82-21.06.92-28-5.47-13.22-21.57-11.34-38.67,3-3.07-17.73-10.74-30.3-19.71-30.3-8.29,0-15.46,10.71-18.93,26.31-.74,0-1.49-.07-2.23-.07-20.82,0-37.7,15.67-37.7,35a34.34,34.34,0,0,0,.28,4.21c-13.21,5.83-21.86,14.66-22.59,24.61a117.72,117.72,0,0,1,11.79,6.59C967.06,393.09,978,405.5,986,420.53Z"/><path class="cls-4" d="M1,1080V422.21l-1,.2V1080Z"/><path class="cls-4" d="M1190,495.27c-16-10.88-37.82-20.74-65.84-29.57a92.32,92.32,0,0,0-15.33-12.47,126.4,126.4,0,0,0-17.4-9.21c-26.14-11.55-63.78-20.19-105.47-23.49-8-15-18.93-27.44-32.81-36.42a117.72,117.72,0,0,0-11.79-6.59C866.4,340.7,677.46,329.7,591,415.29c-68.69.73-140.27,3.28-210.8,7.6-83.18-78.64-262.95-23.45-375-1.55-1.43.28-2.86.57-4.28.87V1080H358.66c-14.44-70.74,44.87-167.59,147.91-232.2,96.7-60.63,244.69-176.64,350.55-133.08,140.15-64,288-121.94,405.48-158.43q43.92-13.63,82.76-24.48C1307.29,498.71,1250.76,491.36,1190,495.27Z"/><path class="cls-5" d="M1920,1075.11q-4.7,2.51-9.6,4.89h8.44l1.16-1.29Z"/><path class="cls-5" d="M1456.07,512v-.27h-33.31q-36,8.5-77.4,20.08-38.89,10.86-82.76,24.48c-117.5,36.49-265.33,94.47-405.48,158.43C751.26,671.16,603.27,787.17,506.57,847.8c-103,64.61-162.35,161.46-147.91,232.2h59.18q71.43-43.26,158.07-92.79c353.53-201.76,622.47-333.5,802.71-409l5.9-2.46c72.9-30.34,131-51.3,173.9-63.8Z"/><path class="cls-5" d="M1901.76,654.4c1-41.45-9-83.27-34.17-123.46-22.26-35.49-49.32-55.22-79.26-63.64l10.85,44.7H1648c-9.86,25.66-84.29,84.74-188.26,151.2-54,34.53-116,71.06-181.07,105.92-127.79,68.49-267.38,130.57-381.49,158.55-63.3,15.52-184,80.52-312.27,152.33H1910.4q4.9-2.38,9.6-4.89V658.72A127.93,127.93,0,0,0,1901.76,654.4Z"/><path class="cls-1" d="M193.16,305c20.31,0,39.08-2.41,54.25-6.48,15.18,4.07,33.94,6.48,54.26,6.48A219.57,219.57,0,0,0,352,299.52,161.37,161.37,0,0,0,395,305c43.1,0,78.05-14.85,78.05-33.16,0-14.35-21.47-26.57-51.52-31.19a15,15,0,0,0,.47-3.71c0-17-28.48-31.09-66.23-34.24,4.94-11,5.78-21,1.4-28-8.29-13.18-32.69-11.3-58.59,3-4.66-17.69-16.28-30.23-29.88-30.23-12.55,0-23.42,10.69-28.68,26.24-1.12,0-2.24-.06-3.38-.06-31.54,0-57.11,15.63-57.11,34.9a21.1,21.1,0,0,0,.43,4.21c-20.93,6.07-34.35,15.41-34.35,25.89a12.81,12.81,0,0,0,.92,4.66c-26.76,5.78-44.7,16.38-44.7,28.5C101.78,290.15,142.69,305,193.16,305Z"/><path class="cls-1" d="M1420.85,105a85.82,85.82,0,0,0,25-3.48,85.82,85.82,0,0,0,25,3.48,87.64,87.64,0,0,0,23.22-3,64.61,64.61,0,0,0,19.83,3c19.89,0,36-8,36-17.83,0-7.72-9.91-14.29-23.78-16.77a9,9,0,0,0,.22-2c0-9.12-13.14-16.72-30.56-18.41,2.28-5.92,2.66-11.29.64-15-3.83-7.09-15.09-6.08-27,1.6-2.15-9.51-7.51-16.25-13.79-16.25-5.79,0-10.81,5.75-13.23,14.11-.52,0-1,0-1.56,0-14.56,0-26.36,8.41-26.36,18.77a13.21,13.21,0,0,0,.2,2.27c-9.66,3.26-15.85,8.28-15.85,13.92a8,8,0,0,0,.42,2.5c-12.35,3.11-20.63,8.81-20.63,15.33C1378.68,97,1397.56,105,1420.85,105Z"/><path class="cls-1" d="M683.24,134.75a9.57,9.57,0,0,0,.21-2c0-7.63-9.22-14.2-22.45-17.13a22.8,22.8,0,0,1-5,3.26,22.8,22.8,0,0,0,5-3.26c1.89-1.7,2.93-3.54,2.93-5.45,0-3.6-3.67-6.92-9.84-9.6a11,11,0,0,0-.56-1.26c-2.68-5-9-6-16.72-3.44h0c-1.72-.28-3.51-.53-5.35-.75a5.56,5.56,0,0,0,.3-1.79c0-8.18-18-15-41.74-16.52,3.12-5.31,3.65-10.14.89-13.5-5.23-6.36-20.6-5.45-36.93,1.45-2.93-8.54-10.25-14.59-18.82-14.59-7.91,0-14.76,5.16-18.08,12.66-.7,0-1.41,0-2.13,0-19.87,0-36,7.54-36,16.85a8.26,8.26,0,0,0,.27,2c-13.18,2.93-21.64,7.43-21.64,12.49a5,5,0,0,0,.58,2.25C441.3,99.21,430,104.32,430,110.17c0,8.84,25.78,16,57.58,16A173.66,173.66,0,0,0,521.77,123,173.73,173.73,0,0,0,556,126.17c1.32,0,2.63,0,3.93,0a34.18,34.18,0,0,1,11.86-6.36h0a34.18,34.18,0,0,0-11.86,6.36h0c-2.55,2.3-4,4.86-4,7.56a7.9,7.9,0,0,0,.42,2.5C544,139.3,535.69,145,535.69,151.52c0,9.85,18.88,17.83,42.17,17.83a85.48,85.48,0,0,0,25-3.48,85.48,85.48,0,0,0,25,3.48,87.64,87.64,0,0,0,23.22-2.95A64.61,64.61,0,0,0,671,169.35c19.89,0,36-8,36-17.83C707,143.8,697.1,137.23,683.24,134.75Zm-48.91-38a48.36,48.36,0,0,0-7.84,4.12A48,48,0,0,1,634.33,96.79Zm-8.28,2.37c-2.38-8.57-7.46-14.5-13.35-14.5C618.59,84.66,623.67,90.59,626.05,99.16Zm-54.5,18.34a13.33,13.33,0,0,0,.19,2.2A13.33,13.33,0,0,1,571.55,117.5Zm16.11,6-1.48.25,1.48-.25A123.81,123.81,0,0,0,607.38,126,123.81,123.81,0,0,1,587.66,123.53Zm51.22.58c-1.18.22-2.4.42-3.64.61C636.48,124.53,637.7,124.33,638.88,124.11Zm11-2.73c1.36-.46,2.64-.93,3.83-1.43C652.48,120.45,651.2,120.92,649.84,121.38Zm-6.55,1.82c1.66-.38,3.24-.8,4.74-1.25C646.53,122.4,645,122.82,643.29,123.2Z"/><path class="cls-1" d="M1195.18,24.28a18.71,18.71,0,0,0,.27,3.1c-13.51,4.48-22.18,11.37-22.18,19.09a10.61,10.61,0,0,0,.59,3.43C1156.58,54.16,1145,62,1145,70.91c0,12,21,22,48.59,24,0,9.49,13.21,3.21,32.36-1.36a72,72,0,0,0,31.44,13.15c10.37,1.49,18.68-3.76,25.86-11.69a117.87,117.87,0,0,0,23.32-3.75,92.12,92.12,0,0,0,27.75,4c27.83,0,50.4-10.94,50.4-24.44,0-10.58-13.87-19.59-33.27-23a12.55,12.55,0,0,0,.3-2.73c0-12.51-18.39-22.92-42.76-25.24,3-7.77,3.67-14.86,1.23-19.95h-35.6c-.85.49-1.71,1-2.57,1.54-.12-.52-.26-1-.39-1.54h-51.78C1205.5,3.51,1195.18,13.05,1195.18,24.28Z"/><path class="cls-6" d="M1384.52,575.8l-5.9,2.46c.34.8.67,1.61,1,2.41C1381.25,579,1382.89,577.35,1384.52,575.8Z"/><path class="cls-6" d="M1645.09,512h-86.67c-42.94,12.5-101,33.46-173.9,63.8-1.63,1.55-3.27,3.18-4.9,4.87-.33-.8-.66-1.61-1-2.41-180.24,75.45-449.18,207.19-802.71,409q-86.53,49.39-158.07,92.79h167c128.23-71.81,249-136.81,312.27-152.33,114.11-28,253.7-90.06,381.49-158.55,65.06-34.86,127.05-71.39,181.07-105.92,104-66.46,178.4-125.54,188.26-151.2Z"/><polygon class="cls-7" points="1788.33 467.3 1764.84 370.47 1779.68 341.43 1780.82 341.43 1763.44 315.62 1763.44 315.48 1718.57 315.48 1703.31 285.8 1703.31 285.33 1703.07 285.33 1703.07 285.33 1703.07 285.33 1662.28 285.33 1662.28 246.74 1649.22 242.47 1649.22 157.54 1656.78 149.43 1611.75 79.43 1611.75 63.46 1619.66 63.46 1619.66 61.29 1611.75 61.29 1611.75 55 1609.69 55 1609.69 61.29 1602 61.29 1602 63.46 1609.69 63.46 1609.69 79.58 1609.9 79.58 1564.97 149.43 1564.79 149.43 1574.98 160.37 1574.98 240.72 1559.61 245.75 1559.69 246.02 1559.17 246.02 1559.17 284.94 1518.17 284.94 1517.93 284.94 1517.93 285.4 1502.6 315.22 1458.2 315.22 1458.2 315.36 1440.53 341.17 1440.26 341.17 1455.26 370.52 1421 511.73 1422.76 511.73 1432.45 511.73 1456.07 511.73 1456.07 512 1558.42 512 1578.42 512 1645.09 512 1647.95 512 1729.36 512 1764 512 1790.51 512 1799.18 512 1788.33 467.3"/><polygon class="cls-1" points="1436.43 521.41 1506.25 521.41 1471.34 377.51 1436.43 521.41"/><polygon class="cls-1" points="1814.61 521.68 1780.27 380.15 1795.24 350.85 1764.31 350.85 1779.17 379.94 1744.78 521.68 1814.61 521.68"/><polygon class="cls-1" points="1672.2 159.11 1580.21 159.11 1590.41 170.05 1590.41 259.3 1580.1 259.3 1580.1 357.33 1672.2 357.33 1672.2 259.3 1664.64 259.3 1664.64 167.22 1672.2 159.11"/><rect class="cls-1" x="1471.5" y="350.84" width="307.93" height="170.83"/><polygon class="cls-1" points="1455.69 350.85 1471.15 381.12 1486.62 350.85 1455.69 350.85"/><rect class="cls-1" x="1668.77" y="335.25" width="111.52" height="15.86" transform="translate(3449.05 686.35) rotate(-180)"/><polygon class="cls-1" points="1769.16 351.12 1778.87 325.3 1796.24 351.1 1769.16 351.12"/><rect class="cls-1" x="1668.77" y="325.15" width="110.1" height="15.86" transform="translate(3447.64 666.17) rotate(-180)"/><rect x="1593.85" y="450.81" width="66.67" height="70.87"/><ellipse cx="1627.18" cy="454.03" rx="33.34" ry="35.43"/><rect class="cls-8" x="1602.15" y="475.09" width="49.43" height="46.57"/><ellipse class="cls-8" cx="1626.87" cy="477.21" rx="24.72" ry="23.29"/><rect x="1494.24" y="391.25" width="24" height="22.29"/><ellipse cx="1506.24" cy="392.26" rx="12" ry="11.14"/><rect x="1551.31" y="391.24" width="24" height="22.29"/><ellipse cx="1563.31" cy="392.25" rx="12" ry="11.14"/><rect x="1673.66" y="391.24" width="24" height="22.29"/><ellipse cx="1685.66" cy="392.25" rx="12" ry="11.14"/><rect x="1729.33" y="391.24" width="24" height="22.29"/><ellipse cx="1741.34" cy="392.25" rx="12" ry="11.14"/><rect class="cls-9" x="1472.19" y="334.99" width="113.41" height="15.86"/><polygon class="cls-9" points="1483.5 350.86 1473.62 325.04 1455.95 350.85 1483.5 350.86"/><rect class="cls-9" x="1473.62" y="324.9" width="111.97" height="15.86"/><rect class="cls-9" x="1574.6" y="255.7" width="11" height="71.36"/><rect class="cls-9" x="1668.77" y="256.42" width="8.94" height="72.08"/><polygon class="cls-1" points="1625.83 244.13 1579.46 259.3 1672.2 259.3 1625.83 244.13"/><polygon class="cls-9" points="1623.38 245.25 1625.17 239.24 1677.7 256.42 1675.91 262.44 1623.38 245.25"/><polygon class="cls-9" points="1576.98 261.97 1575.04 255.43 1625.37 238.97 1627.32 245.51 1576.98 261.97"/><polygon class="cls-10" points="1549.17 324.89 1518.02 324.89 1533.6 294.62 1549.17 324.89"/><rect class="cls-10" x="1533.36" y="294.62" width="41.24" height="30.27"/><polygon class="cls-10" points="1702.92 325.29 1734.07 325.29 1718.49 295.01 1702.92 325.29"/><rect class="cls-10" x="1677.49" y="295.01" width="41.24" height="30.27" transform="translate(3396.22 620.3) rotate(-180)"/><rect x="1598.76" y="204.5" width="15.02" height="17.41"/><ellipse cx="1606.27" cy="205.3" rx="7.51" ry="8.71"/><rect x="1625.12" y="64.68" width="2.06" height="24.58"/><rect x="1625.17" y="63.22" width="2.17" height="17.66" transform="translate(1698.31 -1554.2) rotate(90)"/><rect x="1634.19" y="204.56" width="15.02" height="17.41"/><ellipse cx="1641.7" cy="205.36" rx="7.51" ry="8.71"/><rect class="cls-11" x="1623.4" y="274.44" width="4.12" height="49.02"/><rect class="cls-11" x="1623.52" y="271.48" width="4.32" height="35.31" transform="translate(1914.82 -1336.54) rotate(90)"/><polygon class="cls-10" points="1672.2 159.11 1580.4 159.11 1626.3 87.75 1672.2 159.11"/><g class="cls-12"><path class="cls-13" d="M23.35,941.83a.1.1,0,0,1-.07,0l-5.45-6a.09.09,0,0,1,0-.13.1.1,0,0,1,.14,0l5.44,6a.09.09,0,0,1,0,.13A.09.09,0,0,1,23.35,941.83Z"/></g><g class="cls-12"><path class="cls-13" d="M15.65,951.08h0L7,949.48a.09.09,0,0,1-.07-.11.09.09,0,0,1,.11-.08l8.63,1.61a.09.09,0,0,1,.08.11A.1.1,0,0,1,15.65,951.08Z"/></g><g class="cls-12"><path class="cls-13" d="M35.4,936.46h0a.1.1,0,0,1-.09-.1l.2-7.34a.1.1,0,0,1,.1-.09h0a.1.1,0,0,1,.09.1l-.2,7.34A.1.1,0,0,1,35.4,936.46Z"/></g><g class="cls-12"><path class="cls-13" d="M47.39,936.09h0a.09.09,0,0,1,0-.13l3-6.59a.1.1,0,0,1,.13-.05.09.09,0,0,1,.05.12l-3,6.6A.1.1,0,0,1,47.39,936.09Z"/></g><polyline class="cls-14" points="40.32 965.97 26.53 959.21 29.49 951.38 35.49 944.98 41.79 942.26 47.18 941.53 53.72 941.63 55.87 942.31 58.15 955.68"/><g class="cls-12"><line class="cls-1" x1="46.85" y1="946.15" x2="49.44" y2="956.26"/><path class="cls-15" d="M49.44,956.35a.09.09,0,0,1-.09-.07l-2.59-10.11a.09.09,0,1,1,.18,0l2.59,10.11a.09.09,0,0,1-.07.11Z"/></g><g class="cls-12"><line class="cls-1" x1="38.44" y1="947.56" x2="46.47" y2="958.49"/><path class="cls-15" d="M46.47,958.58a.09.09,0,0,1-.08,0l-8-10.93a.09.09,0,0,1,.15-.11l8,10.93a.09.09,0,0,1,0,.13S46.49,958.58,46.47,958.58Z"/></g><g class="cls-12"><line class="cls-1" x1="33.71" y1="955.34" x2="42.71" y2="961.42"/><path class="cls-15" d="M42.71,961.52l-.06,0-9-6.08a.09.09,0,0,1,.1-.16l9,6.08a.11.11,0,0,1,0,.14A.08.08,0,0,1,42.71,961.52Z"/></g><path class="cls-16" d="M79.28,950.59c-26.85,0-50.57,17.92-50.57,39.23S46.38,1034,73.26,1034s44.53-22.93,44.53-44.21S106.14,950.59,79.28,950.59Zm-6,77.48c-22.51,0-37.32-19.64-37.32-37.9s19.85-33.64,42.36-33.64,32.28,15.39,32.28,33.64S95.75,1028.07,73.26,1028.07Z"/><g class="cls-12"><path class="cls-13" d="M127.35,941.83a.1.1,0,0,1-.07,0l-5.45-6a.09.09,0,0,1,0-.13.1.1,0,0,1,.14,0l5.44,6a.09.09,0,0,1,0,.13A.09.09,0,0,1,127.35,941.83Z"/></g><g class="cls-12"><path class="cls-13" d="M119.65,951.08h0l-8.64-1.6a.09.09,0,0,1-.07-.11.09.09,0,0,1,.11-.08l8.63,1.61a.09.09,0,0,1,.08.11A.1.1,0,0,1,119.65,951.08Z"/></g><g class="cls-12"><path class="cls-13" d="M139.4,936.46h0a.1.1,0,0,1-.09-.1l.2-7.34a.1.1,0,0,1,.1-.09h0a.1.1,0,0,1,.09.1l-.2,7.34A.1.1,0,0,1,139.4,936.46Z"/></g><g class="cls-12"><path class="cls-13" d="M151.39,936.09h0a.09.09,0,0,1,0-.13l3-6.59a.1.1,0,0,1,.13-.05.09.09,0,0,1,.05.12l-3,6.6A.1.1,0,0,1,151.39,936.09Z"/></g><polyline class="cls-14" points="144.32 965.97 130.53 959.21 133.49 951.38 139.49 944.98 145.79 942.26 151.18 941.53 157.72 941.63 159.87 942.31 162.15 955.68"/><g class="cls-12"><line class="cls-1" x1="150.85" y1="946.15" x2="153.44" y2="956.26"/><path class="cls-15" d="M153.44,956.35a.09.09,0,0,1-.09-.07l-2.59-10.11a.09.09,0,1,1,.18,0l2.59,10.11a.09.09,0,0,1-.07.11Z"/></g><g class="cls-12"><line class="cls-1" x1="142.44" y1="947.56" x2="150.47" y2="958.49"/><path class="cls-15" d="M150.47,958.58a.09.09,0,0,1-.08,0l-8-10.93a.09.09,0,0,1,.15-.11l8,10.93a.09.09,0,0,1,0,.13S150.49,958.58,150.47,958.58Z"/></g><g class="cls-12"><line class="cls-1" x1="137.71" y1="955.34" x2="146.71" y2="961.42"/><path class="cls-15" d="M146.71,961.52l-.06,0-9-6.08a.09.09,0,1,1,.1-.16l9,6.08a.11.11,0,0,1,0,.14A.08.08,0,0,1,146.71,961.52Z"/></g><path class="cls-16" d="M183.28,950.59c-26.85,0-50.57,17.92-50.57,39.23S150.38,1034,177.26,1034s44.53-22.93,44.53-44.21S210.14,950.59,183.28,950.59Zm-6,77.48c-22.51,0-37.32-19.64-37.32-37.9s19.85-33.64,42.36-33.64,32.28,15.39,32.28,33.64S199.75,1028.07,177.26,1028.07Z"/><g class="cls-12"><path class="cls-13" d="M234.35,941.83a.1.1,0,0,1-.07,0l-5.45-6a.09.09,0,0,1,0-.13.1.1,0,0,1,.14,0l5.44,6a.09.09,0,0,1,0,.13A.09.09,0,0,1,234.35,941.83Z"/></g><g class="cls-12"><path class="cls-13" d="M226.65,951.08h0l-8.64-1.6a.09.09,0,0,1-.07-.11.09.09,0,0,1,.11-.08l8.63,1.61a.09.09,0,0,1,.08.11A.1.1,0,0,1,226.65,951.08Z"/></g><g class="cls-12"><path class="cls-13" d="M246.4,936.46h0a.1.1,0,0,1-.09-.1l.2-7.34a.1.1,0,0,1,.1-.09h0a.1.1,0,0,1,.09.1l-.2,7.34A.1.1,0,0,1,246.4,936.46Z"/></g><g class="cls-12"><path class="cls-13" d="M258.39,936.09h0a.09.09,0,0,1,0-.13l3-6.59a.1.1,0,0,1,.13-.05.09.09,0,0,1,.05.12l-3,6.6A.1.1,0,0,1,258.39,936.09Z"/></g><polyline class="cls-14" points="251.32 965.97 237.53 959.21 240.49 951.38 246.49 944.98 252.79 942.26 258.18 941.53 264.71 941.63 266.87 942.31 269.15 955.68"/><g class="cls-12"><line class="cls-1" x1="257.85" y1="946.15" x2="260.44" y2="956.26"/><path class="cls-15" d="M260.44,956.35a.09.09,0,0,1-.09-.07l-2.59-10.11a.09.09,0,0,1,.18,0l2.59,10.11a.09.09,0,0,1-.07.11Z"/></g><g class="cls-12"><line class="cls-1" x1="249.44" y1="947.56" x2="257.47" y2="958.49"/><path class="cls-15" d="M257.47,958.58a.09.09,0,0,1-.08,0l-8-10.93a.09.09,0,0,1,.15-.11l8,10.93a.09.09,0,0,1,0,.13S257.49,958.58,257.47,958.58Z"/></g><g class="cls-12"><line class="cls-1" x1="244.71" y1="955.34" x2="253.71" y2="961.42"/><path class="cls-15" d="M253.71,961.52l-.06,0-9-6.08a.09.09,0,1,1,.1-.16l9,6.08a.11.11,0,0,1,0,.14A.08.08,0,0,1,253.71,961.52Z"/></g><path class="cls-16" d="M290.28,950.59c-26.85,0-50.57,17.92-50.57,39.23S257.38,1034,284.26,1034s44.53-22.93,44.53-44.21S317.14,950.59,290.28,950.59Zm-6,77.48c-22.51,0-37.32-19.64-37.32-37.9s19.85-33.64,42.36-33.64,32.28,15.39,32.28,33.64S306.75,1028.07,284.26,1028.07Z"/><path class="cls-17" d="M128.25,768.23c-7.23-1.46-11,1-17.1,5s-9,13.55-7.33,18a6.76,6.76,0,0,1,.43,3.06c-3.37-10.68-9.64-23.78-13.18-30.91-4.41-8.91-8.93-13.54-14.47-17.09s-9.48-4-13.29-5.65-3.33-.31-6.43-1.21a20.9,20.9,0,0,1-2.6,4.15c7,.91,8.88,1.42,15.59,7.66s20.16,25.08,24.41,34a79.57,79.57,0,0,1,5.79,15.33c-.37-.47-.85-1-1.44-1.71C96,795.67,87.42,794.8,83.27,794s-8.67-1.23-12.47.64a80,80,0,0,0,8,11.78c5.5,6.15,15.15,3.17,19.18-.54a12.89,12.89,0,0,0,2.59-2.84,55.1,55.1,0,0,1,.8,5.5c.77,7.89.19,14.81.86,21.78s2,15.25,7,18.53,12.62,1.11,12.45-.14-6.38-2-9.85-9.65-3.74-26.15-5.71-37.35a55.31,55.31,0,0,0-1.62-6.49l1.43-1.73c1.12-1.36,7.06.86,11.56-2.2s4.56-6,8-11.6,12.74-11.17,12.74-11.17S135.48,769.69,128.25,768.23Z"/><path class="cls-18" d="M70.09,771.82c4.68-1.7,14-6.29,17.29-10.41s7-19.95,4-23.38-9-2.16-7.85-7.06,2.29-7.33-.19-8.56,1-3.7-3.87-1.27c-3.71,1.87-1.82,3-4.22.81s-7.84-.86-7.84-.86c-8.41,3.95-9.32,4.5-9.32,4.5-9.65,2.1-7.54,1.69-10.2,2.42s-7.51,6.27-7,12,1.62,6,.31,7.51a43.41,43.41,0,0,0-5.16,7.08c-1,2.07-2.93,2.75-2.89,5.08s-.9,5.51,2.73,8,3.93,3.22,4.75,3.35.82.12,4.16-1.52,6.16-3,9-1.19,5.74,4.85,8.85,4.84A31,31,0,0,0,70.09,771.82Z"/><path class="cls-19" d="M46.62,763.25a.6.6,0,0,1-.81-.86l6.84-10.1a.61.61,0,0,1,1,.68l-6.85,10.1A.47.47,0,0,1,46.62,763.25Z"/><path class="cls-19" d="M69.64,771.43l-.11.05a.62.62,0,0,1-.78-.36,19.93,19.93,0,0,1,2.33-16.69c5.34-8.32,8.06-12.5,9.94-14.94l.74-1a34.33,34.33,0,0,0-8,3.76,44.59,44.59,0,0,0-7.48,7c-1.6,1.76-2.09,2.27-2.56,2.34a21.71,21.71,0,0,1-6.61,0c-1.84-.24-2.39-.31-3.47,1.28a.61.61,0,1,1-1-.68c1.5-2.21,2.75-2,4.64-1.81a20.39,20.39,0,0,0,6.27,0c.15-.11,1-1.09,1.84-2a45.69,45.69,0,0,1,7.7-7.21,36.43,36.43,0,0,1,10.14-4.47.64.64,0,0,1,.66.26.62.62,0,0,1,0,.71L82,740.23c-1.85,2.4-4.56,6.57-9.87,14.85A19,19,0,0,0,69.9,770.7.62.62,0,0,1,69.64,771.43Z"/><path class="cls-19" d="M59.67,748.76a.61.61,0,0,1-.67-1l2.7-1.93a7.93,7.93,0,0,0,3-3.95.7.7,0,0,1,.11-.23c2.38-3,5-6.33,5.16-6.84.11-.35-.52-1.26-1-2l-.4-.6c-.36-.53-2.45-.48-4.23-.09-.49.32-2.68,1.76-4,2.41-1,.5-4.64,3.85-7.31,6.31-1,.95-2,1.84-2.76,2.52a21.22,21.22,0,0,0-4.25,5.39,34.5,34.5,0,0,0,.34,5.42c.25.21,1.59-.15,2.91-.88a.61.61,0,0,1,.83.23.62.62,0,0,1-.24.83c-.63.35-2.78,1.46-3.94,1a1.25,1.25,0,0,1-.73-.84,36.7,36.7,0,0,1-.38-5.88.6.6,0,0,1,.06-.27,21.82,21.82,0,0,1,4.59-5.87l2.75-2.52c3.78-3.48,6.53-6,7.59-6.5,1.37-.69,3.92-2.38,4-2.39A.52.52,0,0,1,64,731c1.07-.24,4.63-.92,5.62.58l.4.58c.78,1.15,1.46,2.13,1.17,3s-3.72,5.17-5.29,7.13a9.23,9.23,0,0,1-3.48,4.51l-2.69,1.93Z"/><path class="cls-19" d="M50.84,751.91a.6.6,0,0,1-.91-.6c0-.18.62-4.29,2.75-6.23a22.34,22.34,0,0,0,2.26-2.68c1.43-1.86,2.89-3.8,4.63-4.57a20.17,20.17,0,0,0,2.48-1.48c1.67-1.1,2.77-1.82,3.49-1.26.56.45.35,1.29.08,2-1.05,2.92-2.77,6.44-4.44,7.54-.35.23-.81.61-1.3,1-1.57,1.27-2.42,1.93-3.12,1.6a.9.9,0,0,1-.5-.87c0-.42,0-4.13,1.57-4.5a5,5,0,0,0,1-.78c.7-.63,1.3-1.18,1.92-1.06a.9.9,0,0,1,.64.5,3.4,3.4,0,0,1-.11,2.36,22.25,22.25,0,0,0,3.2-6.21,4.7,4.7,0,0,0,.15-.52,18.82,18.82,0,0,0-1.91,1.16,20.26,20.26,0,0,1-2.65,1.56c-1.45.67-2.89,2.55-4.16,4.21A21.28,21.28,0,0,1,53.5,746c-1.8,1.65-2.36,5.47-2.37,5.51A.63.63,0,0,1,50.84,751.91Zm7.27-8.81a5.76,5.76,0,0,0-.63,2.88,19,19,0,0,0,1.63-1.24l.84-.67a.59.59,0,0,1-.14-.71,5.5,5.5,0,0,0,.54-1.93c-.22.17-.51.43-.7.61A4.1,4.1,0,0,1,58.11,743.1Z"/><path class="cls-19" d="M75.28,725.34a.61.61,0,0,1-.71-.07s-1.1-.83-3.11.5c-1.45,1-4.23,1.31-7.14,1.7a30.94,30.94,0,0,0-6.1,1.19c-3.14,1.21-4.19,6-4.2,6a.62.62,0,0,1-.73.47.6.6,0,0,1-.46-.72c0-.22,1.19-5.45,5-6.89a31.59,31.59,0,0,1,6.37-1.26c2.61-.34,5.3-.7,6.58-1.47l.25-.16c2.73-1.64,4.31-.33,4.38-.28a.61.61,0,0,1,.06.86A.64.64,0,0,1,75.28,725.34Z"/><path class="cls-19" d="M42.87,747.1l-.22.12a.6.6,0,0,1-.82-.26.59.59,0,0,1,.27-.82c.15-.08,3.71-2,3.08-5.6-.08-.49-.17-.95-.25-1.38-.61-3.26-1-5.41,2.1-7a38.17,38.17,0,0,1,8-2.69.62.62,0,0,1,.73.47.61.61,0,0,1-.47.72,38,38,0,0,0-7.65,2.58c-2.33,1.21-2.08,2.53-1.48,5.73.09.44.17.91.26,1.41C47.06,744.28,43.76,746.56,42.87,747.1Z"/><path class="cls-20" d="M137.46,776.13c-2.34,1.69-3.25,3.57-6.16,4.81s-7.93,3.36-9.5,6.15l-.16.28a50.1,50.1,0,0,0-.43-17.82c-1.23-6-1.35-6.53-3.64-9.63s-3.91-3.48-6.46-5.12-3.46,1.44-5.6,2.05a53.06,53.06,0,0,0,4.23,5.15c3.77,3.56,5.67,2.51,6.56,9,.6,4.38,1.34,9,.65,13.72-.28-1.79-.4-3.91-1.36-5.23-1.19-1.65-3.18-2.29-4.83-3.77s-5-2-7.28-2.54-4.57-1.52-6.79-2.23c1.89,2.61,3,6.29,4.23,9.08a12,12,0,0,0,5.75,6.07,33.73,33.73,0,0,0,7.55,2.66,3.63,3.63,0,0,0,1.77-.09,21.92,21.92,0,0,1-1.23,2.92c-3.66,7.09-11.06,14.84-12.49,23.23s3.15,21.83,4.86,28.07,3,6.81,6.6,7.39,3.09,1,2-2.64-3.93-6.42-5.6-11.8-3.33-14.09-2.19-21.36c1.11-7,8.21-13.88,11.61-20.72.79.51.94.81,3,.44,2.51-.47,8.93-2.86,10.84-5.25a25,25,0,0,0,4.05-7.89C138.08,778.82,137.33,778.05,137.46,776.13Z"/><path class="cls-21" d="M110,756.7c.12-3.62.72-11.46,5-10.31s4.4,7.06,7.62,12.1-3.24,12.22-8.76,7.91S109.91,760.32,110,756.7Z"/><path class="cls-21" d="M110.13,716.08c.76,3.47,3.29,11.33-1.35,11.44s-7.73-5.9-10.88-11.12.21-13.63,6.15-11S109.36,712.6,110.13,716.08Z"/><path class="cls-21" d="M126.41,721.6c-1.79,2.52-6.43,10-9.45,6.36s-.5-9.38,1.72-15.29,8.91-6.64,11.49-1.33S128.19,719.08,126.41,721.6Z"/><path class="cls-21" d="M128.36,751.53c-2.49-2.65-10.17-5.93-7-9.3s9.2-.68,14.56.74,8.33,6.54,3.38,11S130.84,754.17,128.36,751.53Z"/><path class="cls-21" d="M133.64,736.7c-4,.07-11.52,1-10.91-3.62s7.31-6.63,13-8.32,14.54,4,8.36,7.93S137.67,736.63,133.64,736.7Z"/><path class="cls-21" d="M95.08,723.57c2.87,1.81,10.35,5.31,7.37,8.82s-10.08.66-14.74-1.34-9.63-9.59-4.13-11.45S92.22,721.77,95.08,723.57Z"/><path class="cls-21" d="M89.82,735.8c3.28,0,11.53-.81,11.39,2.68s-5.74,6.61-11.16,8.17-13.45-1.43-9.09-6.3S86.55,735.82,89.82,735.8Z"/><path class="cls-21" d="M94.49,749.07c3.1-2.21,9.13-6.57,11.28-2.77s-1.4,8.11-4.3,13S88.17,764.5,89,757.82,91.39,751.28,94.49,749.07Z"/><path class="cls-22" d="M121.83,756.87c-2-2.42-8.06-9.67-4.63-11.79s8.51,4,12.28,6.82,6.81,11,.92,12.17S123.8,759.29,121.83,756.87Z"/><path class="cls-22" d="M102.42,756.3c.84-3.17,2.85-12.07,6.62-10.75s2,9.51,1.77,13.74-5.65,12.25-8.89,7.4S101.58,759.46,102.42,756.3Z"/><path class="cls-22" d="M90.85,743c2.92-.93,11.76-4.05,12.65-.17s-7.12,6.83-10.64,8.9-13,1.89-11.64-3.33S87.92,743.87,90.85,743Z"/><path class="cls-22" d="M90.11,729.38c3.43,1.19,12.25,3.62,11.34,6.2S94,738.48,88,737.67s-13.78-6-8.15-8.11S86.67,728.19,90.11,729.38Z"/><path class="cls-22" d="M99.32,718.65c2.1,2.13,9.24,8.26,6.31,11s-9.44-3.08-12.43-5.33S85.43,714,90.13,712.74,97.22,716.53,99.32,718.65Z"/><path class="cls-22" d="M118.72,716.68c-1.29,3.39-4,12.13-6.55,11.14s-2.67-7.54-1.67-13.53,6.45-13.58,8.36-7.89S120,713.28,118.72,716.68Z"/><path class="cls-22" d="M132.49,726.15c-2.24,1.55-10.31,7.83-11.94,4s4.77-8.74,8.3-12.5,10.05-4.82,11.9.05S134.73,724.6,132.49,726.15Z"/><path class="cls-22" d="M135.42,743.35c-3.56-.77-12.6-2.15-12-4.82s7.06-3.76,13.13-3.66,14.39,4.35,9,7.08S139,744.12,135.42,743.35Z"/><path class="cls-23" d="M126.24,734.77c1.51,7.49-3.12,14.49-11.48,14.28s-14-3.46-15.9-10.08,2.62-12.37,11.41-14S124.73,727.29,126.24,734.77Z"/><path class="cls-20" d="M152.78,800.37c-.28-.88-2.67-1.74-4.49-1.75l-.63,0s0-.07,0-.11c-.27-.88-2.66-1.74-4.48-1.75a6,6,0,0,0-2.4.49,8.39,8.39,0,0,0-2.6-.47c-1.95,0-3.86,1-3.55,1.86v0c-.24-.06-.5-.12-.75-.16a.7.7,0,0,0,0-.45c-.38-.82-2.55-1.42-4.26-1.34a6.35,6.35,0,0,0-1.14-2.45,4.23,4.23,0,0,0-.34-.4c1.45-8.61,4.31-16.36,8.19-20.81,7.53-8.62,2.34-1.64,7.54-7.26-1.93.16-2.33-1.18-3.88-1.79-6.86,10.11-14,16.69-16.4,27.58a.7.7,0,0,0-.14,0,1,1,0,0,0-.41.44,7.22,7.22,0,0,0-.78-.49h0c1-.65.32-3.31-1.33-5a8.76,8.76,0,0,0-2.61-1.78,7,7,0,0,0-1.57-2.61c-1.53-1.57-4.3-2.78-5.31-2.11,0,0-.07.07-.1.11a5.84,5.84,0,0,0-.51-.59c-1.53-1.58-4.3-2.79-5.31-2.12s-.16,3.08,1.2,4.63a9.06,9.06,0,0,0,2,1.64c-.34,1,.41,2.85,1.54,4.14a9.18,9.18,0,0,0,3.29,2.3c.07.19.16.38.25.57,0,0-.12,0-.17.07-1,.65-.16,3.08,1.2,4.63a9.23,9.23,0,0,0,3.12,2.23,6,6,0,0,0,1.63,3.85,9.14,9.14,0,0,0,3.26,2.28c.82,15.82,4.67,29-7.67,39.88-13.08,11.54-16.34,21.17-3.8,10s19.81-19.58,16.76-35.29a64.59,64.59,0,0,1-1-14,8.48,8.48,0,0,0,3.83.81,4.74,4.74,0,0,0,3.11-1.11,8.76,8.76,0,0,0,3.17.53c1.69-.07,3.54-.87,3.27-1.74l-.08-.13.47-.16a8.81,8.81,0,0,0,3.31.58c1.41-.06,2.9-.62,3.22-1.31a8.3,8.3,0,0,0,2.13.22C151.2,802,153.05,801.24,152.78,800.37Z"/><path class="cls-24" d="M173.73,749c.86-7-6.57-10-13.2-9.26-1.78.19-4.28.31-7,.6a43.71,43.71,0,0,0-7.46-6.25c-5.81-3.56-12.78-2.72-15.58,1.85s-.37,11.17,5.44,14.72l.15.09c-.05.25-.1.49-.13.75-1.4,11.34,17.48,7.7,24.68,7S172.88,755.94,173.73,749Z"/><ellipse class="cls-25" cx="146.47" cy="755.56" rx="3.32" ry="3.27" transform="translate(-618.08 667.28) rotate(-72.44)"/><ellipse class="cls-25" cx="145.04" cy="749.91" rx="0.45" ry="0.49" transform="translate(-613.68 661.98) rotate(-72.44)"/><ellipse class="cls-25" cx="146.36" cy="749.93" rx="0.45" ry="0.49" transform="translate(-612.79 663.25) rotate(-72.44)"/><ellipse class="cls-25" cx="147.72" cy="750.29" rx="0.45" ry="0.49" transform="translate(-612.18 664.8) rotate(-72.44)"/><ellipse class="cls-25" cx="148.96" cy="750.8" rx="0.45" ry="0.49" transform="translate(-611.8 666.33) rotate(-72.44)"/><ellipse class="cls-25" cx="150.01" cy="751.41" rx="0.45" ry="0.49" transform="translate(-611.65 667.77) rotate(-72.44)"/><ellipse class="cls-25" cx="150.95" cy="752.25" rx="0.45" ry="0.49" transform="translate(-611.79 669.24) rotate(-72.44)"/><ellipse class="cls-25" cx="151.56" cy="753.31" rx="0.45" ry="0.49" transform="translate(-612.38 670.57) rotate(-72.44)"/><ellipse class="cls-25" cx="151.96" cy="754.59" rx="0.45" ry="0.49" transform="translate(-613.32 671.84) rotate(-72.44)"/><ellipse class="cls-25" cx="143.75" cy="750.15" rx="0.45" ry="0.49" transform="translate(-614.82 660.91) rotate(-72.44)"/><ellipse class="cls-25" cx="142.56" cy="750.55" rx="0.45" ry="0.49" transform="translate(-616.03 660.06) rotate(-72.44)"/><path class="cls-24" d="M120.12,739.42c4.51-3.8,11.89-2.45,16.48,3s12.37,22.09,7.86,25.89-19.58-6.68-24.18-12.14S115.61,743.21,120.12,739.42Z"/><path class="cls-24" d="M175.14,759.66c1.51,6.48-5.59,12.45-10.39,13.65s-24.9-.46-25.5-6.53,15.67-12.6,21.61-13.72S173.64,753.18,175.14,759.66Z"/><path class="cls-18" d="M171.18,753.15a9.18,9.18,0,0,0-5.54-1c-2.74.44-11.56,2.29-11.93,2.37l-8,3.55c-1.56-2.66-4.89-8.77-5-11.07-.12-3.31-9.33-8.74-10.38-9.35a.55.55,0,0,0-.75.2.54.54,0,0,0,.2.76c3.76,2.18,9.75,6.39,9.83,8.43.11,3.09,4.79,11,5.33,12,.13.55.88,4.24-1.49,6.47l-2.81,2.66a.54.54,0,0,0,0,.78.61.61,0,0,0,.24.15.53.53,0,0,0,.54-.13l2.82-2.65c2.51-2.36,2.12-5.91,1.88-7.17l7.89-3.51c.78-.17,9.22-1.93,11.83-2.34a8.05,8.05,0,0,1,4.79.9.55.55,0,0,0,.57-1Z"/><path class="cls-1" d="M170.64,797.35v-6.2h46.17v6.2Zm0,20.27v-6.2h46.17v6.2Z"/><path class="cls-1" d="M224.41,832.21v-5.59l6.18-6.93c14.85-16.34,21.56-25,21.65-35.16,0-6.83-2.86-13.14-11.54-13.14-5.28,0-9.66,3.11-12.35,5.69l-2.5-6.41a23.55,23.55,0,0,1,16.46-6.83c12.53,0,17.81,9.93,17.81,19.55,0,12.41-7.79,22.44-20.05,36.1l-4.65,5v.21h26.13v7.55Z"/><path class="cls-1" d="M266.2,836.34l25-75h6.08l-25.05,75Z"/><path class="cls-1" d="M301,832.21v-5.59l6.17-6.93c14.86-16.34,21.57-25,21.66-35.16,0-6.83-2.87-13.14-11.55-13.14-5.28,0-9.66,3.11-12.34,5.69l-2.51-6.41a23.57,23.57,0,0,1,16.46-6.83c12.53,0,17.81,9.93,17.81,19.55,0,12.41-7.78,22.44-20,36.1l-4.66,5v.21h26.13v7.55Z"/><path class="cls-1" d="M385.57,797.87c0,22.86-7.34,35.47-20.23,35.47-11.36,0-19-12.3-19.23-34.54,0-22.55,8.41-35,20.22-35C378.59,763.84,385.57,776.46,385.57,797.87Zm-31.59,1c0,17.48,4.65,27.41,11.81,27.41,8,0,11.9-10.86,11.9-28,0-16.54-3.67-27.4-11.81-27.4C359,770.88,354,780.6,354,798.9Z"/><path class="cls-26" d="M395.43,1081.06c60.65-27.76,121.65-82.64,121.65-145.82,0-38-22.05-73-52.81-100.85a99.49,99.49,0,0,0,1.14-14.87c0-91.2-127.11-165.13-196.78-165.13-1.8,0-3.65.06-5.51.16C219.75,610.8,154,582.06,110.54,582.06c-31.91,0-73.76,15.53-109.75,41.11v457.89Z"/></svg>