<svg id="Layer_1" data-name="Layer 1" xmlns="http://www.w3.org/2000/svg" xmlns:xlink="http://www.w3.org/1999/xlink" width="1920" height="1080" viewBox="0 0 1920 1080"><defs><style>.cls-1,.cls-22{fill:#fff;}.cls-2{fill:url(#linear-gradient);}.cls-3{fill:#bfebff;}.cls-4{fill:#4c6b4c;}.cls-5{fill:#579157;}.cls-6{fill:#c1b272;}.cls-7{opacity:0.7;}.cls-8,.cls-9{fill:#53c2eb;}.cls-22,.cls-9{isolation:isolate;}.cls-9{opacity:0.8;}.cls-10{fill:none;}.cls-11{fill:#eaf5f7;}.cls-12{fill:#ffd12d;}.cls-13{fill:#76b72a;}.cls-14{fill:#ee796c;}.cls-15{fill:#f7b884;}.cls-16{fill:#7cb829;}.cls-17{fill:#f8b133;}.cls-18{fill:#fcea0d;}.cls-19{fill:#b17f49;}.cls-20{fill:#e63738;}.cls-21{fill:#1d1d1b;}.cls-22{font-size:103.43px;font-family:ArialMT, Arial;}.cls-23{fill:#334733;}.cls-24{fill:#6a2300;}.cls-25{fill:#940000;}.cls-26{fill:#d40b00;}.cls-27{fill:#4e5360;}.cls-28{fill:#efefef;}.cls-29{fill:#212021;}.cls-30{fill:#231f20;}</style><linearGradient id="linear-gradient" x1="-1.77" y1="741.11" x2="5.51" y2="1150.53" gradientTransform="matrix(1, 0, 0, -1, 0, 1080)" gradientUnits="userSpaceOnUse"><stop offset="0" stop-color="#c7def3"/><stop offset="0.06" stop-color="#b7d6ef"/><stop offset="0.19" stop-color="#8fc0e4"/><stop offset="0.36" stop-color="#4d9dd2"/><stop offset="0.53" stop-color="#0075be"/></linearGradient></defs><rect class="cls-1" x="1522.79" y="3.06" width="396" height="424"/><path class="cls-2" d="M1,0H0V422.41l1-.2Z"/><path class="cls-3" d="M5.28,421.34c112-21.9,291.78-77.09,375,1.55,70.53-4.32,142.11-6.87,210.8-7.6,86.42-85.59,275.36-74.59,350.35-37.77.73-9.95,9.38-18.78,22.59-24.61a34.88,34.88,0,0,1-.28-4.21c0-19.33,16.88-35,37.7-35,.74,0,1.49,0,2.23.07,3.47-15.6,10.64-26.31,18.93-26.31,9,0,16.64,12.57,19.71,30.3,17.1-14.33,33.2-16.21,38.67-3,2.9,7,2.34,17-.92,28a73.27,73.27,0,0,1,18.75,4.87c62.19-1.95,68.31,11,51.52,29.79-.71.79-1.51,1.67-2.39,2.61,26,3.71,45.1,16.71,45.1,32.17,0,18.36-27,33.25-60.31,33.25a107.3,107.3,0,0,1-14.88-1,78,78,0,0,1-26.35-.44,125.77,125.77,0,0,1,17.4,9.21,92.77,92.77,0,0,1,15.33,12.47c28,8.83,49.79,18.69,65.84,29.57,60.73-3.91,117.26,3.44,155.33,36.54q41.44-11.58,77.4-20.08H1421l34.26-141.21-15-29.35h.27l17.67-25.81v-.14h44.4l15.33-29.82v-.46h41.24V246h.52l-.08-.27,15.37-5V160.37l-10.2-10.94h.19l44.93-69.85h-.21V63.46H1602V61.29h7.69V55h2.06v6.29h7.91v2.17h-7.91v16l45,70-7.56,8.11V242.5l13.06,4.27v38.59h41v.46l15.26,29.69h44.87v.14l17.38,25.8h-1.14l-14.84,29,23.49,96.83c29.94,8.42,57,28.15,79.26,63.64,25.19,40.19,35.18,82,34.17,123.46a128.25,128.25,0,0,1,18.24,4.32v-506c-2.4.18-4.86.28-7.38.28a87.17,87.17,0,0,1-23.34-3,118.48,118.48,0,0,1-27.32,3,132.73,132.73,0,0,1-14.23-.76c-2.92,5.06-8.16,8.76-17.4,8.76-8.17,0-15-3.36-20.44-8.18-2.24.12-4.53.18-6.85.18-27.4,0-49.62-8.11-49.62-18.11,0-6.62,9.74-12.41,24.27-15.57a6.91,6.91,0,0,1-.49-2.54c0-5.73,7.28-10.83,18.64-14.15a12.52,12.52,0,0,1-.23-2.29c0-10.53,13.89-19.07,31-19.07h1.84c2.86-8.5,8.76-14.34,15.58-14.34,7.38,0,13.69,6.85,16.22,16.51,14.06-7.8,27.31-8.83,31.82-1.63,2.37,3.8,1.92,9.26-.76,15.27,12,1,22.22,4.06,28.68,8.27V0H1310.22c2.44,5.09,1.82,12.18-1.23,20,24.37,2.32,42.76,12.73,42.76,25.24a12.55,12.55,0,0,1-.3,2.73c19.4,3.4,33.27,12.41,33.27,23,0,13.5-22.57,24.44-50.4,24.44a92.17,92.17,0,0,1-27.75-4,118,118,0,0,1-23.32,3.75c-7.18,7.93-15.49,13.18-25.86,11.69A72,72,0,0,1,1226,93.6c-19.15,4.57-32.35,10.85-32.36,1.36-27.62-2-48.59-12-48.59-24,0-8.93,11.58-16.75,28.86-21a10.79,10.79,0,0,1-.59-3.43c0-7.72,8.67-14.61,22.18-19.09a17.86,17.86,0,0,1-.27-3.1c0-11.23,10.32-20.77,24.7-24.28H1V422.21C2.42,421.91,3.85,421.62,5.28,421.34Zm1394-349.5a8.19,8.19,0,0,1-.42-2.5c0-5.64,6.19-10.66,15.85-13.92a13.3,13.3,0,0,1-.2-2.27c0-10.36,11.8-18.77,26.36-18.77h1.56c2.42-8.36,7.44-14.11,13.23-14.11,6.28,0,11.64,6.74,13.79,16.25,12-7.68,23.21-8.69,27-1.6,2,3.74,1.64,9.11-.64,15,17.42,1.69,30.56,9.29,30.56,18.41a9,9,0,0,1-.22,2c13.87,2.48,23.78,9,23.78,16.77,0,9.85-16.13,17.83-36,17.83a64.4,64.4,0,0,1-19.83-3,87.92,87.92,0,0,1-23.22,3,85.64,85.64,0,0,1-25-3.48,85.64,85.64,0,0,1-25,3.48c-23.29,0-42.17-8-42.17-17.83,0-6.45,8.29-12.1,20.6-15.26ZM458.17,96.42a4.89,4.89,0,0,1-.58-2.25c0-5.06,8.46-9.56,21.64-12.5a8.38,8.38,0,0,1-.27-2c0-9.31,16.12-16.85,36-16.85h2.13c3.32-7.5,10.17-12.66,18.08-12.66,8.57,0,15.89,6,18.82,14.59,16.33-6.9,31.7-7.81,36.93-1.45,2.76,3.36,2.23,8.19-.89,13.5,23.79,1.52,41.74,8.34,41.74,16.52a5.47,5.47,0,0,1-.3,1.79c1.84.22,3.63.47,5.35.75,7.68-2.51,14-1.54,16.72,3.44a11.79,11.79,0,0,1,.56,1.26c6.17,2.68,9.84,6,9.84,9.6,0,1.91-1,3.75-2.93,5.45,13.23,2.93,22.45,9.5,22.45,17.13a9.64,9.64,0,0,1-.21,2C697.1,137.23,707,143.8,707,151.52c0,9.85-16.13,17.83-36,17.83a64.75,64.75,0,0,1-19.83-2.95A87.46,87.46,0,0,1,628,169.35a85.64,85.64,0,0,1-25-3.48,85.64,85.64,0,0,1-25,3.48c-23.29,0-42.17-8-42.17-17.83,0-6.52,8.28-12.22,20.63-15.33a7.9,7.9,0,0,1-.42-2.5c0-2.7,1.44-5.26,4-7.56h-3.93A173.78,173.78,0,0,1,521.77,123a173.61,173.61,0,0,1-34.19,3.13c-31.8,0-57.58-7.16-57.58-16C430,104.32,441.3,99.21,458.17,96.42ZM146.48,243.34a12.81,12.81,0,0,1-.92-4.66c0-10.48,13.42-19.82,34.35-25.89a21.33,21.33,0,0,1-.43-4.21c0-19.27,25.57-34.9,57.11-34.9,1.14,0,2.26,0,3.38.06,5.26-15.55,16.13-26.24,28.68-26.24,13.6,0,25.22,12.54,29.88,30.23,25.9-14.29,50.3-16.17,58.59-3,4.38,7,3.54,17-1.4,28C393.47,205.85,422,220,422,236.94a15,15,0,0,1-.47,3.71c30,4.62,51.52,16.84,51.52,31.19C473,290.15,438.05,305,395,305a161.3,161.3,0,0,1-43-5.48A219.65,219.65,0,0,1,301.67,305c-20.32,0-39.08-2.41-54.26-6.48-15.17,4.07-33.94,6.48-54.25,6.48-50.47,0-91.38-14.85-91.38-33.16C101.78,259.72,119.72,249.12,146.48,243.34Z"/><path class="cls-1" d="M986,420.53c41.69,3.3,79.33,11.94,105.47,23.49a78,78,0,0,0,26.35.44,107.3,107.3,0,0,0,14.88,1c33.31,0,60.31-14.89,60.31-33.25,0-15.46-19.15-28.46-45.1-32.17.88-.94,1.68-1.82,2.39-2.61,16.79-18.76,10.67-31.74-51.52-29.79A73,73,0,0,0,1080,342.8c3.26-11,3.82-21.06.92-28-5.47-13.22-21.57-11.34-38.67,3-3.07-17.73-10.74-30.3-19.71-30.3-8.29,0-15.46,10.71-18.93,26.31-.74,0-1.49-.07-2.23-.07-20.82,0-37.7,15.67-37.7,35A34.88,34.88,0,0,0,964,353c-13.21,5.83-21.86,14.66-22.59,24.61a118.23,118.23,0,0,1,11.79,6.59C967.06,393.09,978,405.5,986,420.53Z"/><path class="cls-4" d="M1,1080V422.21l-1,.2V1080Z"/><path class="cls-4" d="M1190,495.27c-16-10.88-37.82-20.74-65.84-29.57a92.77,92.77,0,0,0-15.33-12.47,125.77,125.77,0,0,0-17.4-9.21c-26.14-11.55-63.78-20.19-105.47-23.49-8-15-18.93-27.44-32.81-36.42a118.23,118.23,0,0,0-11.79-6.59c-75-36.82-263.9-47.82-350.36,37.77-68.69.73-140.27,3.28-210.8,7.6-83.18-78.64-262.95-23.45-375-1.55-1.43.28-2.86.57-4.28.87V1080H358.66c-14.44-70.74,44.87-167.59,147.91-232.2,96.7-60.63,244.69-176.64,350.55-133.08,140.15-64,288-121.94,405.48-158.43q43.92-13.63,82.76-24.48C1307.29,498.71,1250.76,491.36,1190,495.27Z"/><path class="cls-5" d="M1920,1075.11q-4.7,2.51-9.6,4.89h8.44l1.16-1.29Z"/><path class="cls-1" d="M193.16,305c20.31,0,39.08-2.41,54.25-6.48,15.18,4.07,33.94,6.48,54.26,6.48A219.65,219.65,0,0,0,352,299.52,161.3,161.3,0,0,0,395,305c43.1,0,78.05-14.85,78.05-33.16,0-14.35-21.47-26.57-51.52-31.19a15,15,0,0,0,.47-3.71c0-17-28.48-31.09-66.23-34.24,4.94-11,5.78-21,1.4-28-8.29-13.18-32.69-11.3-58.59,3-4.66-17.69-16.28-30.23-29.88-30.23-12.55,0-23.42,10.69-28.68,26.24-1.12,0-2.24-.06-3.38-.06-31.54,0-57.11,15.63-57.11,34.9a21.33,21.33,0,0,0,.43,4.21c-20.93,6.07-34.35,15.41-34.35,25.89a12.81,12.81,0,0,0,.92,4.66c-26.76,5.78-44.7,16.38-44.7,28.5C101.78,290.15,142.69,305,193.16,305Z"/><path class="cls-1" d="M1420.85,105a85.64,85.64,0,0,0,25-3.48,85.64,85.64,0,0,0,25,3.48,87.92,87.92,0,0,0,23.22-3,64.4,64.4,0,0,0,19.83,3c19.89,0,36-8,36-17.83,0-7.72-9.91-14.29-23.78-16.77a9,9,0,0,0,.22-2c0-9.12-13.14-16.72-30.56-18.41,2.28-5.92,2.66-11.29.64-15-3.83-7.09-15.09-6.08-27,1.6-2.15-9.51-7.51-16.25-13.79-16.25-5.79,0-10.81,5.75-13.23,14.11h-1.56c-14.56,0-26.36,8.41-26.36,18.77a13.3,13.3,0,0,0,.2,2.27c-9.66,3.26-15.85,8.28-15.85,13.92a8.19,8.19,0,0,0,.42,2.5c-12.35,3.11-20.63,8.81-20.63,15.33C1378.68,97,1397.56,105,1420.85,105Z"/><path class="cls-1" d="M683.24,134.75a9.64,9.64,0,0,0,.21-2c0-7.63-9.22-14.2-22.45-17.13a22.87,22.87,0,0,1-5,3.26,22.87,22.87,0,0,0,5-3.26c1.89-1.7,2.93-3.54,2.93-5.45,0-3.6-3.67-6.92-9.84-9.6a11.79,11.79,0,0,0-.56-1.26c-2.68-5-9-6-16.72-3.44h0c-1.72-.28-3.51-.53-5.35-.75a5.47,5.47,0,0,0,.3-1.79c0-8.18-18-15-41.74-16.52,3.12-5.31,3.65-10.14.89-13.5-5.23-6.36-20.6-5.45-36.93,1.45-2.93-8.54-10.25-14.59-18.82-14.59-7.91,0-14.76,5.16-18.08,12.66H515c-19.87,0-36,7.54-36,16.85a8.38,8.38,0,0,0,.27,2c-13.18,2.93-21.64,7.43-21.64,12.49a4.89,4.89,0,0,0,.58,2.25C441.3,99.21,430,104.32,430,110.17c0,8.84,25.78,16,57.58,16A173.57,173.57,0,0,0,521.77,123,173.22,173.22,0,0,0,556,126.17h3.93a34,34,0,0,1,11.86-6.36h0a34,34,0,0,0-11.86,6.36h0c-2.55,2.3-4,4.86-4,7.56a7.9,7.9,0,0,0,.42,2.5C544,139.3,535.69,145,535.69,151.52c0,9.85,18.88,17.83,42.17,17.83a85.64,85.64,0,0,0,25-3.48,85.64,85.64,0,0,0,25,3.48,87.46,87.46,0,0,0,23.22-2.95A64.67,64.67,0,0,0,671,169.35c19.89,0,36-8,36-17.83C707,143.8,697.1,137.23,683.24,134.75Zm-48.91-38a48.41,48.41,0,0,0-7.84,4.12,48.21,48.21,0,0,1,7.84-4.08Zm-8.28,2.37c-2.38-8.57-7.46-14.5-13.35-14.5,5.89,0,11,6,13.35,14.54Zm-54.5,18.34a13.52,13.52,0,0,0,.19,2.2,13,13,0,0,1-.19-2.16Zm16.11,6-1.48.25,1.48-.25A124.6,124.6,0,0,0,607.38,126a123.48,123.48,0,0,1-19.72-2.47Zm51.22.58c-1.18.22-2.4.42-3.64.61,1.24-.12,2.46-.32,3.64-.54Zm11-2.73c1.36-.46,2.64-.93,3.83-1.43a38.42,38.42,0,0,1-3.87,1.5Zm-6.55,1.82c1.66-.38,3.24-.8,4.74-1.25a45.5,45.5,0,0,1-4.78,1.32Z"/><path class="cls-1" d="M1195.18,24.28a17.86,17.86,0,0,0,.27,3.1c-13.51,4.48-22.18,11.37-22.18,19.09a10.79,10.79,0,0,0,.59,3.43c-17.28,4.26-28.86,12.1-28.86,21,0,12,21,22,48.59,24,0,9.49,13.21,3.21,32.36-1.36a71.93,71.93,0,0,0,31.44,13.15c10.37,1.49,18.68-3.76,25.86-11.69a118,118,0,0,0,23.32-3.75,92.17,92.17,0,0,0,27.75,4c27.83,0,50.4-10.94,50.4-24.44,0-10.58-13.87-19.59-33.27-23a12.55,12.55,0,0,0,.3-2.73c0-12.51-18.39-22.92-42.76-25.24,3-7.77,3.67-14.86,1.23-20h-35.6c-.85.49-1.71,1-2.57,1.54-.12-.52-.26-1-.39-1.54h-51.78C1205.5,3.51,1195.18,13.05,1195.18,24.28Z"/><path class="cls-6" d="M1384.52,575.8l-5.9,2.46c.34.8.67,1.61,1,2.41C1381.25,579,1382.89,577.35,1384.52,575.8Z"/><polygon class="cls-3" points="1788.33 467.3 1764.84 370.47 1779.68 341.43 1780.82 341.43 1763.44 315.62 1763.44 315.48 1718.57 315.48 1703.31 285.8 1703.31 285.33 1703.07 285.33 1703.07 285.33 1703.07 285.33 1662.28 285.33 1662.28 246.74 1649.22 242.47 1649.22 157.54 1656.78 149.43 1611.75 79.43 1611.75 63.46 1619.66 63.46 1619.66 61.29 1611.75 61.29 1611.75 55 1609.69 55 1609.69 61.29 1602 61.29 1602 63.46 1609.69 63.46 1609.69 79.58 1609.9 79.58 1564.97 149.43 1564.79 149.43 1574.98 160.37 1574.98 240.72 1559.61 245.75 1559.69 246.02 1559.17 246.02 1559.17 284.94 1518.17 284.94 1517.93 284.94 1517.93 285.4 1502.6 315.22 1458.2 315.22 1458.2 315.36 1440.53 341.17 1440.26 341.17 1455.26 370.52 1421 511.73 1422.76 511.73 1432.45 511.73 1456.07 511.73 1456.07 512 1558.42 512 1578.42 512 1645.09 512 1647.95 512 1729.36 512 1764 512 1790.51 512 1799.18 512 1788.33 467.3"/><g class="cls-7"><path class="cls-8" d="M23.35,941.83h-.07l-5.45-6a.09.09,0,0,1,0-.13h0a.1.1,0,0,1,.14,0l5.44,6a.09.09,0,0,1,0,.13h-.06Z"/></g><g class="cls-7"><path class="cls-8" d="M15.65,951.08h0L7,949.48a.09.09,0,0,1-.07-.11h0a.08.08,0,0,1,.1-.08H7l8.63,1.61a.08.08,0,0,1,.08.1h0A.1.1,0,0,1,15.65,951.08Z"/></g><g class="cls-7"><path class="cls-8" d="M35.4,936.46h0a.11.11,0,0,1-.09-.1l.2-7.34a.11.11,0,0,1,.1-.09h0a.11.11,0,0,1,.09.1l-.2,7.34A.11.11,0,0,1,35.4,936.46Z"/></g><g class="cls-7"><path class="cls-8" d="M47.39,936.09h0a.09.09,0,0,1,0-.13h0l3-6.59a.1.1,0,0,1,.13,0,.09.09,0,0,1,0,.12h0l-3,6.6a.1.1,0,0,1-.18.05Z"/></g><polyline class="cls-9" points="40.32 965.97 26.53 959.21 29.49 951.38 35.49 944.98 41.79 942.26 47.18 941.53 53.72 941.63 55.87 942.31 58.15 955.68"/><g class="cls-7"><line class="cls-10" x1="46.85" y1="946.15" x2="49.44" y2="956.26"/><path class="cls-11" d="M49.44,956.35a.1.1,0,0,1-.09-.07l-2.59-10.11a.09.09,0,1,1,.18,0h0l2.59,10.11a.09.09,0,0,1-.07.11h0Z"/></g><g class="cls-7"><line class="cls-10" x1="38.44" y1="947.56" x2="46.47" y2="958.49"/><path class="cls-11" d="M46.47,958.58h-.08l-8-10.93a.09.09,0,1,1,.15-.11h0l8,10.93a.09.09,0,0,1,0,.13h0Z"/></g><g class="cls-7"><line class="cls-10" x1="33.71" y1="955.34" x2="42.71" y2="961.42"/><path class="cls-11" d="M42.71,961.52h-.06l-9-6.08a.09.09,0,1,1,.1-.16h0l9,6.08a.12.12,0,0,1,0,.14Z"/></g><path class="cls-12" d="M79.28,950.59c-26.85,0-50.57,17.92-50.57,39.23S46.38,1034,73.26,1034s44.53-22.93,44.53-44.21S106.14,950.59,79.28,950.59Zm-6,77.48c-22.51,0-37.32-19.64-37.32-37.9s19.85-33.64,42.36-33.64,32.28,15.39,32.28,33.64-14.85,37.9-37.34,37.9Z"/><g class="cls-7"><path class="cls-8" d="M127.35,941.83h-.07l-5.45-6a.09.09,0,0,1,0-.13h0a.1.1,0,0,1,.14,0l5.44,6a.09.09,0,0,1,0,.13h-.06Z"/></g><g class="cls-7"><path class="cls-8" d="M119.65,951.08h0l-8.64-1.6a.09.09,0,0,1-.07-.11h0a.08.08,0,0,1,.1-.08h0l8.63,1.61a.08.08,0,0,1,.08.1h0A.09.09,0,0,1,119.65,951.08Z"/></g><g class="cls-7"><path class="cls-8" d="M139.4,936.46h0a.11.11,0,0,1-.09-.1l.2-7.34a.11.11,0,0,1,.1-.09h0a.11.11,0,0,1,.09.1l-.2,7.34A.11.11,0,0,1,139.4,936.46Z"/></g><g class="cls-7"><path class="cls-8" d="M151.39,936.09h0a.09.09,0,0,1,0-.13h0l3-6.59a.1.1,0,0,1,.13,0,.09.09,0,0,1,0,.12h0l-3,6.6a.1.1,0,0,1-.18.05Z"/></g><polyline class="cls-9" points="144.32 965.97 130.53 959.21 133.49 951.38 139.49 944.98 145.79 942.26 151.18 941.53 157.72 941.63 159.87 942.31 162.15 955.68"/><g class="cls-7"><line class="cls-10" x1="150.85" y1="946.15" x2="153.44" y2="956.26"/><path class="cls-11" d="M153.44,956.35a.1.1,0,0,1-.09-.07l-2.59-10.11a.09.09,0,0,1,.18,0h0l2.59,10.11a.09.09,0,0,1-.07.11h0Z"/></g><g class="cls-7"><line class="cls-10" x1="142.44" y1="947.56" x2="150.47" y2="958.49"/><path class="cls-11" d="M150.47,958.58h-.08l-8-10.93a.09.09,0,1,1,.15-.11l8,10.93a.09.09,0,0,1,0,.13h0Z"/></g><g class="cls-7"><line class="cls-10" x1="137.71" y1="955.34" x2="146.71" y2="961.42"/><path class="cls-11" d="M146.71,961.52h-.06l-9-6.08a.09.09,0,1,1,.1-.16h0l9,6.08a.12.12,0,0,1,0,.14Z"/></g><path class="cls-12" d="M183.28,950.59c-26.85,0-50.57,17.92-50.57,39.23S150.38,1034,177.26,1034s44.53-22.93,44.53-44.21S210.14,950.59,183.28,950.59Zm-6,77.48c-22.51,0-37.32-19.64-37.32-37.9s19.85-33.64,42.36-33.64,32.28,15.39,32.28,33.64-14.85,37.9-37.34,37.9Z"/><g class="cls-7"><path class="cls-8" d="M234.35,941.83h-.07l-5.45-6a.09.09,0,0,1,0-.13h0a.1.1,0,0,1,.14,0l5.44,6a.09.09,0,0,1,0,.13h-.06Z"/></g><g class="cls-7"><path class="cls-8" d="M226.65,951.08h0l-8.64-1.6a.09.09,0,0,1-.07-.11h0a.08.08,0,0,1,.1-.08h0l8.63,1.61a.08.08,0,0,1,.08.1h0A.09.09,0,0,1,226.65,951.08Z"/></g><g class="cls-7"><path class="cls-8" d="M246.4,936.46h0a.11.11,0,0,1-.09-.1l.2-7.34a.11.11,0,0,1,.1-.09h0a.11.11,0,0,1,.09.1l-.2,7.34A.11.11,0,0,1,246.4,936.46Z"/></g><g class="cls-7"><path class="cls-8" d="M258.39,936.09h0a.09.09,0,0,1,0-.13h0l3-6.59a.1.1,0,0,1,.13,0,.09.09,0,0,1,.05.12h0l-3,6.6a.1.1,0,0,1-.18.05Z"/></g><polyline class="cls-9" points="251.32 965.97 237.53 959.21 240.49 951.38 246.49 944.98 252.79 942.26 258.18 941.53 264.71 941.63 266.87 942.31 269.15 955.68"/><g class="cls-7"><line class="cls-10" x1="257.85" y1="946.15" x2="260.44" y2="956.26"/><path class="cls-11" d="M260.44,956.35a.1.1,0,0,1-.09-.07l-2.59-10.11a.09.09,0,1,1,.18,0l2.59,10.11a.09.09,0,0,1-.07.11h0Z"/></g><g class="cls-7"><line class="cls-10" x1="249.44" y1="947.56" x2="257.47" y2="958.49"/><path class="cls-11" d="M257.47,958.58h-.08l-8-10.93a.09.09,0,1,1,.15-.11l8,10.93a.09.09,0,0,1,0,.13h0Z"/></g><g class="cls-7"><line class="cls-10" x1="244.71" y1="955.34" x2="253.71" y2="961.42"/><path class="cls-11" d="M253.71,961.52h-.06l-9-6.08a.09.09,0,1,1,.1-.16h0l9,6.08a.12.12,0,0,1,0,.14Z"/></g><path class="cls-12" d="M290.28,950.59c-26.85,0-50.57,17.92-50.57,39.23S257.38,1034,284.26,1034s44.53-22.93,44.53-44.21S317.14,950.59,290.28,950.59Zm-6,77.48c-22.51,0-37.32-19.64-37.32-37.9s19.85-33.64,42.36-33.64,32.28,15.39,32.28,33.64-14.85,37.9-37.34,37.9Z"/><path class="cls-13" d="M128.25,768.23c-7.23-1.46-11,1-17.1,5s-9,13.55-7.33,18a6.79,6.79,0,0,1,.43,3.06c-3.37-10.68-9.64-23.78-13.18-30.91-4.41-8.91-8.93-13.54-14.47-17.09s-9.48-4-13.29-5.65-3.33-.31-6.43-1.21a20.79,20.79,0,0,1-2.6,4.15c7,.91,8.88,1.42,15.59,7.66s20.16,25.08,24.41,34a79.87,79.87,0,0,1,5.79,15.33c-.37-.47-.85-1-1.44-1.71C96,795.67,87.42,794.8,83.27,794s-8.67-1.23-12.47.64a79.79,79.79,0,0,0,8,11.78c5.5,6.15,15.15,3.17,19.18-.54a13,13,0,0,0,2.59-2.84,53.57,53.57,0,0,1,.8,5.5c.77,7.89.19,14.81.86,21.78s2,15.25,7,18.53,12.62,1.11,12.45-.14-6.38-2-9.85-9.65-3.74-26.15-5.71-37.35a56,56,0,0,0-1.62-6.49l1.43-1.73c1.12-1.36,7.06.86,11.56-2.2s4.56-6,8-11.6,12.74-11.17,12.74-11.17S135.48,769.69,128.25,768.23Z"/><path class="cls-14" d="M70.09,771.82c4.68-1.7,14-6.29,17.29-10.41s7-19.95,4-23.38-9-2.16-7.85-7.06,2.29-7.33-.19-8.56,1-3.7-3.87-1.27c-3.71,1.87-1.82,3-4.22.81s-7.84-.86-7.84-.86c-8.41,3.95-9.32,4.5-9.32,4.5-9.65,2.1-7.54,1.69-10.2,2.42s-7.51,6.27-7,12,1.62,6,.31,7.51A43.77,43.77,0,0,0,36,754.6c-1,2.07-2.93,2.75-2.89,5.08s-.9,5.51,2.73,8,3.93,3.22,4.75,3.35.82.12,4.16-1.52,6.16-3,9-1.19,5.74,4.85,8.85,4.84A30.93,30.93,0,0,0,70.09,771.82Z"/><path class="cls-15" d="M46.62,763.25a.6.6,0,0,1-.81-.86l6.84-10.1a.61.61,0,0,1,1,.68l-6.85,10.1A.39.39,0,0,1,46.62,763.25Z"/><path class="cls-15" d="M69.64,771.43l-.11.05a.62.62,0,0,1-.78-.36,19.92,19.92,0,0,1,2.33-16.69c5.34-8.32,8.06-12.5,9.94-14.94l.74-1a34.2,34.2,0,0,0-8,3.76,45.09,45.09,0,0,0-7.48,7c-1.6,1.76-2.09,2.27-2.56,2.34a21.55,21.55,0,0,1-6.61,0c-1.84-.24-2.39-.31-3.47,1.28a.61.61,0,1,1-1.09-.55.51.51,0,0,1,.09-.13c1.5-2.21,2.75-2,4.64-1.81a20.6,20.6,0,0,0,6.27,0c.15-.11,1-1.09,1.84-2a45.75,45.75,0,0,1,7.7-7.21,36.21,36.21,0,0,1,10.14-4.47.65.65,0,0,1,.66.26.62.62,0,0,1,0,.71L82,740.23c-1.85,2.4-4.56,6.57-9.87,14.85A19,19,0,0,0,69.9,770.7.62.62,0,0,1,69.64,771.43Z"/><path class="cls-15" d="M59.67,748.76a.61.61,0,0,1-.67-1l2.7-1.93a7.91,7.91,0,0,0,3-4,.7.7,0,0,1,.11-.23A82.2,82.2,0,0,0,70,734.81c.11-.35-.52-1.26-1-2l-.4-.6c-.36-.53-2.45-.48-4.23-.09-.49.32-2.68,1.76-4,2.41-1,.5-4.64,3.85-7.31,6.31-1,.95-2,1.84-2.76,2.52A21,21,0,0,0,46,748.75a33.87,33.87,0,0,0,.34,5.42c.25.21,1.59-.15,2.91-.88a.61.61,0,0,1,.83.23.62.62,0,0,1-.24.83c-.63.35-2.78,1.46-3.94,1a1.25,1.25,0,0,1-.73-.84,37.31,37.31,0,0,1-.38-5.88.63.63,0,0,1,.06-.27,21.63,21.63,0,0,1,4.59-5.87L52.21,740c3.78-3.48,6.53-6,7.59-6.5,1.37-.69,3.92-2.38,4-2.39A.5.5,0,0,1,64,731c1.07-.24,4.63-.92,5.62.58l.4.58c.78,1.15,1.46,2.13,1.17,3s-3.72,5.17-5.29,7.13a9.25,9.25,0,0,1-3.48,4.51l-2.69,1.93Z"/><path class="cls-15" d="M50.84,751.91a.61.61,0,0,1-.83-.19.65.65,0,0,1-.08-.41c0-.18.62-4.29,2.75-6.23a22.25,22.25,0,0,0,2.26-2.68c1.43-1.86,2.89-3.8,4.63-4.57a20,20,0,0,0,2.48-1.48c1.67-1.1,2.77-1.82,3.49-1.26.56.45.35,1.29.08,2-1.05,2.92-2.77,6.44-4.44,7.54-.35.23-.81.61-1.3,1-1.57,1.27-2.42,1.93-3.12,1.6a.89.89,0,0,1-.5-.87c0-.42,0-4.13,1.57-4.5a5.07,5.07,0,0,0,1-.78c.7-.63,1.3-1.18,1.92-1.06a.91.91,0,0,1,.64.5,3.37,3.37,0,0,1-.11,2.36,22.05,22.05,0,0,0,3.2-6.21,4.44,4.44,0,0,0,.15-.52,19.42,19.42,0,0,0-1.91,1.16,19.58,19.58,0,0,1-2.65,1.56c-1.45.67-2.89,2.55-4.16,4.21A21,21,0,0,1,53.5,746c-1.8,1.65-2.36,5.47-2.37,5.51A.62.62,0,0,1,50.84,751.91Zm7.27-8.81a5.75,5.75,0,0,0-.63,2.88,17.93,17.93,0,0,0,1.63-1.24l.84-.67a.6.6,0,0,1-.14-.71,5.4,5.4,0,0,0,.54-1.93c-.22.17-.51.43-.7.61A4,4,0,0,1,58.11,743.1Z"/><path class="cls-15" d="M75.28,725.34a.62.62,0,0,1-.71-.07s-1.1-.83-3.11.5c-1.45,1-4.23,1.31-7.14,1.7a30.9,30.9,0,0,0-6.1,1.19c-3.14,1.21-4.19,6-4.2,6a.62.62,0,0,1-.73.47.6.6,0,0,1-.46-.71h0c0-.22,1.19-5.45,5-6.89a31.38,31.38,0,0,1,6.37-1.26c2.61-.34,5.3-.7,6.58-1.47l.25-.16c2.73-1.64,4.31-.33,4.38-.28a.61.61,0,0,1,.06.86A.64.64,0,0,1,75.28,725.34Z"/><path class="cls-15" d="M42.87,747.1l-.22.12a.59.59,0,0,1-.81-.25h0a.59.59,0,0,1,.23-.8l0,0c.15-.08,3.71-2,3.08-5.6-.08-.49-.17-.95-.25-1.38-.61-3.26-1-5.41,2.1-7a38.23,38.23,0,0,1,8-2.69.62.62,0,0,1,.73.47.61.61,0,0,1-.47.72,38.28,38.28,0,0,0-7.65,2.58c-2.33,1.21-2.08,2.53-1.48,5.73.09.44.17.91.26,1.41C47.06,744.28,43.76,746.56,42.87,747.1Z"/><path class="cls-16" d="M137.46,776.13c-2.34,1.69-3.25,3.57-6.16,4.81s-7.93,3.36-9.5,6.15l-.16.28a50.11,50.11,0,0,0-.43-17.82c-1.23-6-1.35-6.53-3.64-9.63s-3.91-3.48-6.46-5.12-3.46,1.44-5.6,2.05a53.33,53.33,0,0,0,4.23,5.15c3.77,3.56,5.67,2.51,6.56,9,.6,4.38,1.34,9,.65,13.72-.28-1.79-.4-3.91-1.36-5.23-1.19-1.65-3.18-2.29-4.83-3.77s-5-2-7.28-2.54-4.57-1.52-6.79-2.23c1.89,2.61,3,6.29,4.23,9.08a12,12,0,0,0,5.75,6.07,33.72,33.72,0,0,0,7.55,2.66,3.54,3.54,0,0,0,1.77-.09,22,22,0,0,1-1.23,2.92c-3.66,7.09-11.06,14.84-12.49,23.23s3.15,21.83,4.86,28.07,3,6.81,6.6,7.39,3.09,1,2-2.64-3.93-6.42-5.6-11.8-3.33-14.09-2.19-21.36c1.11-7,8.21-13.88,11.61-20.72.79.51.94.81,3,.44,2.51-.47,8.93-2.86,10.84-5.25a25,25,0,0,0,4.05-7.89C138.08,778.82,137.33,778.05,137.46,776.13Z"/><path class="cls-17" d="M110,756.7c.12-3.62.72-11.46,5-10.31s4.4,7.06,7.62,12.1-3.24,12.22-8.76,7.91S109.91,760.32,110,756.7Z"/><path class="cls-17" d="M110.13,716.08c.76,3.47,3.29,11.33-1.35,11.44s-7.73-5.9-10.88-11.12.21-13.63,6.15-11S109.36,712.6,110.13,716.08Z"/><path class="cls-17" d="M126.41,721.6c-1.79,2.52-6.43,10-9.45,6.36s-.5-9.38,1.72-15.29,8.91-6.64,11.49-1.33S128.19,719.08,126.41,721.6Z"/><path class="cls-17" d="M128.36,751.53c-2.49-2.65-10.17-5.93-7-9.3s9.2-.68,14.56.74,8.33,6.54,3.38,11S130.84,754.17,128.36,751.53Z"/><path class="cls-17" d="M133.64,736.7c-4,.07-11.52,1-10.91-3.62s7.31-6.63,13-8.32,14.54,4,8.36,7.93S137.67,736.63,133.64,736.7Z"/><path class="cls-17" d="M95.08,723.57c2.87,1.81,10.35,5.31,7.37,8.82s-10.08.66-14.74-1.34-9.63-9.59-4.13-11.45S92.22,721.77,95.08,723.57Z"/><path class="cls-17" d="M89.82,735.8c3.28,0,11.53-.81,11.39,2.68s-5.74,6.61-11.16,8.17-13.45-1.43-9.09-6.3S86.55,735.82,89.82,735.8Z"/><path class="cls-17" d="M94.49,749.07c3.1-2.21,9.13-6.57,11.28-2.77s-1.4,8.11-4.3,13-13.3,5.2-12.47-1.48S91.39,751.28,94.49,749.07Z"/><path class="cls-18" d="M121.83,756.87c-2-2.42-8.06-9.67-4.63-11.79s8.51,4,12.28,6.82,6.81,11,.92,12.17S123.8,759.29,121.83,756.87Z"/><path class="cls-18" d="M102.42,756.3c.84-3.17,2.85-12.07,6.62-10.75s2,9.51,1.77,13.74-5.65,12.25-8.89,7.4S101.58,759.46,102.42,756.3Z"/><path class="cls-18" d="M90.85,743c2.92-.93,11.76-4,12.65-.17s-7.12,6.83-10.64,8.9-13,1.89-11.64-3.33S87.92,743.87,90.85,743Z"/><path class="cls-18" d="M90.11,729.38c3.43,1.19,12.25,3.62,11.34,6.2S94,738.48,88,737.67s-13.78-6-8.15-8.11S86.67,728.19,90.11,729.38Z"/><path class="cls-18" d="M99.32,718.65c2.1,2.13,9.24,8.26,6.31,11s-9.44-3.08-12.43-5.33S85.43,714,90.13,712.74,97.22,716.53,99.32,718.65Z"/><path class="cls-18" d="M118.72,716.68c-1.29,3.39-4,12.13-6.55,11.14s-2.67-7.54-1.67-13.53,6.45-13.58,8.36-7.89S120,713.28,118.72,716.68Z"/><path class="cls-18" d="M132.49,726.15c-2.24,1.55-10.31,7.83-11.94,4s4.77-8.74,8.3-12.5,10.05-4.82,11.9.05S134.73,724.6,132.49,726.15Z"/><path class="cls-18" d="M135.42,743.35c-3.56-.77-12.6-2.15-12-4.82s7.06-3.76,13.13-3.66,14.39,4.35,9,7.08S139,744.12,135.42,743.35Z"/><path class="cls-19" d="M126.24,734.77c1.51,7.49-3.12,14.49-11.48,14.28s-14-3.46-15.9-10.08,2.62-12.37,11.41-14S124.73,727.29,126.24,734.77Z"/><path class="cls-16" d="M152.78,800.37c-.28-.88-2.67-1.74-4.49-1.75h-.63v-.11c-.27-.88-2.66-1.74-4.48-1.75a6,6,0,0,0-2.4.49,8.53,8.53,0,0,0-2.6-.47c-2,0-3.86,1-3.55,1.86h0c-.24-.06-.5-.12-.75-.16a.69.69,0,0,0,0-.45c-.38-.82-2.55-1.42-4.26-1.34a6.4,6.4,0,0,0-1.14-2.45,4.23,4.23,0,0,0-.34-.4c1.45-8.61,4.31-16.36,8.19-20.81,7.53-8.62,2.34-1.64,7.54-7.26-1.93.16-2.33-1.18-3.88-1.79-6.86,10.11-14,16.69-16.4,27.58h-.14a1,1,0,0,0-.41.44,7.85,7.85,0,0,0-.78-.49h0c1-.65.32-3.31-1.33-5a8.64,8.64,0,0,0-2.61-1.78,7,7,0,0,0-1.57-2.61c-1.53-1.57-4.3-2.78-5.31-2.11l-.1.11a7.19,7.19,0,0,0-.51-.59c-1.53-1.58-4.3-2.79-5.31-2.12s-.16,3.08,1.2,4.63a9,9,0,0,0,2,1.64c-.34,1,.41,2.85,1.54,4.14a9.12,9.12,0,0,0,3.29,2.3c.07.19.16.38.25.57a.23.23,0,0,0-.17.07c-1,.65-.16,3.08,1.2,4.63a9.35,9.35,0,0,0,3.12,2.23,6,6,0,0,0,1.63,3.85,9.17,9.17,0,0,0,3.26,2.28c.82,15.82,4.67,29-7.67,39.88-13.08,11.54-16.34,21.17-3.8,10s19.81-19.58,16.76-35.29a64.42,64.42,0,0,1-1-14,8.46,8.46,0,0,0,3.83.81,4.76,4.76,0,0,0,3.11-1.11,8.76,8.76,0,0,0,3.17.53c1.69-.07,3.54-.87,3.27-1.74l-.08-.13.47-.16a8.92,8.92,0,0,0,3.31.58c1.41-.06,2.9-.62,3.22-1.31a8,8,0,0,0,2.13.22C151.2,802,153.05,801.24,152.78,800.37Z"/><path class="cls-20" d="M173.73,749c.86-7-6.57-10-13.2-9.26-1.78.19-4.28.31-7,.6a44.17,44.17,0,0,0-7.46-6.25c-5.81-3.56-12.78-2.72-15.58,1.85s-.37,11.17,5.44,14.72l.15.09c-.05.25-.1.49-.13.75-1.4,11.34,17.48,7.7,24.68,7S172.88,755.94,173.73,749Z"/><ellipse class="cls-21" cx="146.46" cy="755.59" rx="3.32" ry="3.27" transform="translate(-618.11 667.26) rotate(-72.44)"/><ellipse class="cls-21" cx="145.04" cy="749.95" rx="0.45" ry="0.49" transform="translate(-613.72 661.97) rotate(-72.44)"/><ellipse class="cls-21" cx="146.35" cy="749.97" rx="0.45" ry="0.49" transform="translate(-612.82 663.23) rotate(-72.44)"/><ellipse class="cls-21" cx="147.72" cy="750.33" rx="0.45" ry="0.49" transform="translate(-612.22 664.78) rotate(-72.44)"/><ellipse class="cls-21" cx="148.96" cy="750.83" rx="0.45" ry="0.49" transform="translate(-611.83 666.32) rotate(-72.44)"/><ellipse class="cls-21" cx="150" cy="751.45" rx="0.45" ry="0.49" transform="translate(-611.69 667.75) rotate(-72.44)"/><ellipse class="cls-21" cx="148.13" cy="751.51" rx="0.45" ry="0.49" transform="translate(-613.1 666.47) rotate(-72.47)"/><ellipse class="cls-21" cx="151.55" cy="753.35" rx="0.45" ry="0.49" transform="translate(-612.42 670.55) rotate(-72.44)"/><ellipse class="cls-21" cx="151.95" cy="754.62" rx="0.45" ry="0.49" transform="translate(-613.35 671.82) rotate(-72.44)"/><ellipse class="cls-21" cx="143.74" cy="750.18" rx="0.45" ry="0.49" transform="translate(-614.85 660.89) rotate(-72.44)"/><ellipse class="cls-21" cx="142.56" cy="750.59" rx="0.45" ry="0.49" transform="translate(-616.06 660.05) rotate(-72.44)"/><path class="cls-20" d="M120.12,739.42c4.51-3.8,11.89-2.45,16.48,3s12.37,22.09,7.86,25.89-19.58-6.68-24.18-12.14S115.61,743.21,120.12,739.42Z"/><path class="cls-20" d="M175.14,759.66c1.51,6.48-5.59,12.45-10.39,13.65s-24.9-.46-25.5-6.53,15.67-12.6,21.61-13.72S173.64,753.18,175.14,759.66Z"/><path class="cls-14" d="M171.18,753.15a9.11,9.11,0,0,0-5.54-1c-2.74.44-11.56,2.29-11.93,2.37l-8,3.55c-1.56-2.66-4.89-8.77-5-11.07-.12-3.31-9.33-8.74-10.38-9.35a.55.55,0,0,0-.75.2.53.53,0,0,0,.17.74l0,0c3.76,2.18,9.75,6.39,9.83,8.43.11,3.09,4.79,11,5.33,12,.13.55.88,4.24-1.49,6.47l-2.81,2.66a.54.54,0,0,0,0,.76l0,0a.61.61,0,0,0,.24.15.54.54,0,0,0,.54-.13l2.82-2.65c2.51-2.36,2.12-5.91,1.88-7.17l7.89-3.51c.78-.17,9.22-1.93,11.83-2.34a8.06,8.06,0,0,1,4.79.9.58.58,0,0,0,.57-1Z"/><text class="cls-22" transform="translate(167.06 832.21) scale(0.87 1)">=2/20</text><path class="cls-23" d="M395.43,1081.06c60.65-27.76,121.65-82.64,121.65-145.82,0-38-22.05-73-52.81-100.85a100,100,0,0,0,1.14-14.87c0-91.2-127.11-165.13-196.78-165.13-1.8,0-3.65.06-5.51.16C219.75,610.8,154,582.06,110.54,582.06c-31.91,0-73.76,15.53-109.75,41.11v457.89Z"/><path class="cls-5" d="M1901.76,654.4c1-41.45-9-83.27-34.17-123.46-22.26-35.49-49.32-55.22-79.26-63.64l10.85,44.7H1456.07v-.27h-33.31q-36,8.5-77.4,20.08-38.89,10.86-82.76,24.48c-117.5,36.49-265.33,94.47-405.48,158.43C751.26,671.16,603.27,787.17,506.57,847.8c-103,64.61-162.35,161.46-147.91,232.2H1910.4q4.9-2.38,9.6-4.89V658.72A128.25,128.25,0,0,0,1901.76,654.4ZM1456.69,546.94l-4.09,1.56Zm97.71-33.76-1.39.42Zm-4.1,1.23-1.73.53Zm-4.19,1.28-1.92.6Zm-4.26,1.32-2.13.67Zm-4.35,1.37-2.26.73Zm-4.44,1.43-2.37.77Zm-4.51,1.46-2.51.83Zm-4.6,1.52-2.61.87Zm-4.69,1.57-2.68.9Zm-4.77,1.61-2.83,1Zm-4.83,1.66-3,1Zm-4.94,1.71-3.07,1.08Zm-5,1.76-3.18,1.13Zm-5.11,1.81-3.26,1.17Zm-5.17,1.86-3.39,1.23Zm-5.25,1.9-3.5,1.28Zm-5.34,2-3.61,1.33Zm-5.43,2L1469.7,542Zm-5.48,2-3.86,1.45Zm-5.59,2.1-4,1.51Zm-29,11.22-4.72,1.86Zm17.62-6.87-4.27,1.65Zm-5.78,2.23-4.43,1.73Zm-5.88,2.3-4.59,1.8Zm-12,4.74-4.86,1.94Zm-6,2.41-5.13,2.05Zm-6.1,2.45-5.39,2.18Zm-6.2,2.51L1403.4,568Zm-6.34,2.57-5.8,2.38Zm-6.26,2.57-6.17,2.55Zm-21,8.73-8.39,3.54Zm-26,11-8.66,3.73Zm17.46-7.44-8.48,3.6Zm-8.67,3.68-8.57,3.67,8.51-3.62Zm-94,41.51-9.09,4.16Zm76.25-33.9-8.73,3.79Zm-9.07,3.94-8.79,3.84Zm-9.2,4c-2.93,1.29-5.89,2.58-8.86,3.9,2.94-1.25,5.9-2.54,8.83-3.83Zm-9.32,4.1-8.91,4Zm-9.48,4.2-8.93,4Zm-9.62,4.29-9,4Zm-9.65,4.33-9.1,4.11Zm-9.87,4.46-9.1,4.13ZM861.82,829.13l-8.72,4.66Zm-14.57,7.79-8.44,4.52Zm-14.76,7.92-8.15,4.39Zm-14.58,7.86-8.15,4.41Zm-14.59,7.9L795,865.1Zm-14.7,8-8.44,4.59Zm-15.22,8.3-8.17,4.46Zm-15.15,8.29-8.12,4.45Zm-15.35,8.42-8,4.38Zm-15.54,8.57-7.77,4.29Zm-15.51,8.58L704.13,915Zm-15.72,8.73-7.59,4.22Zm-15.94,8.88-7.36,4.1Zm-16,8.91L657,941.33Zm-16.3,9.15L641,950.3Zm-17.32,9.76L625,959.36Zm-16.27,9.19-5.63,3.19ZM597.43,975l-5,2.87Zm605.63-318.18q4.62-2.19,9.2-4.33-4.59,2.12-9.2,4.29ZM867.3,826.2l8.58-4.56Zm14.12-7.51,8.6-4.55Zm13.93-7.38,8.61-4.54ZM909.21,804l8.64-4.54Zm13.68-7.19,8.79-4.6Zm13.57-7.1,8.83-4.61Zm13.45-7,8.84-4.59Zm13.34-6.92,8.74-4.52ZM976.47,769l8.8-4.54Zm13-6.72,8.87-4.55Zm13-6.64,8.87-4.53Zm12.82-6.55,8.91-4.52Zm12.69-6.44,9-4.58Zm12.53-6.35,9.06-4.56ZM1053,730l9-4.51Zm12.33-6.18,9.07-4.53Zm12.15-6.07,9.11-4.53Zm12.07-6,9.09-4.5Zm11.93-5.91,9.1-4.47Zm11.8-5.8,9.13-4.48Zm11.68-5.72q4.59-2.25,9.15-4.46-4.59,2.14-9.18,4.44Zm11.54-5.63,9.19-4.46Zm11.41-5.54,9.12-4.4Zm11.33-5.46,9.14-4.39q-4.59,2.16-9.17,4.37Zm11.14-5.35,9.18-4.39Zm11-5.27,9.25-4.39Zm10.89-5.18,9.26-4.37Zm61.81-28.82-9.16,4.21Zm-10.23,4.7-9.19,4.25Zm-10.42,4.82-9.16,4.26Zm-10.54,4.9-9.15,4.28Z"/><path class="cls-6" d="M1586.51,1263.3l22.88-36.8,6.86-11c7-28.54,13.82-68.71,19.93-120.7-.4-1.5-.86-3-1.35-4.59l1.84.38c14.85-128.7,25.07-328.18,20.68-601.46-.72-44.6-1.94-85.74-3.57-123.2l-57.31,92.19c.73,98.59-.21,190.41-12.26,231.36-21.73,73.82-31,174.92-32.13,272-.61,49.41.87,97.78,3.85,141,5.73,83.14,17,147.1,29.6,162.49Z"/><polygon class="cls-1" points="1436.43 521.41 1506.25 521.41 1471.34 377.51 1436.43 521.41"/><polygon class="cls-1" points="1814.61 521.68 1780.27 380.15 1795.24 350.85 1764.31 350.85 1779.17 379.94 1744.78 521.68 1814.61 521.68"/><polygon class="cls-1" points="1672.2 159.11 1580.21 159.11 1590.41 170.05 1590.41 259.3 1580.1 259.3 1580.1 357.33 1672.2 357.33 1672.2 259.3 1664.64 259.3 1664.64 167.22 1672.2 159.11"/><rect class="cls-1" x="1471.5" y="350.84" width="307.93" height="170.83"/><polygon class="cls-1" points="1455.69 350.85 1471.15 381.12 1486.62 350.85 1455.69 350.85"/><rect x="1593.85" y="450.81" width="66.67" height="70.87"/><ellipse cx="1627.18" cy="454.03" rx="33.34" ry="35.43"/><path class="cls-24" d="M1651.48,475.09c-1.14-11.87-11.72-21.17-24.61-21.17s-23.48,9.3-24.62,21.17h-.1v46.57h49.43V475.09Z"/><path d="M1518.18,391.25c-.55-5.68-5.68-10.13-11.94-10.13s-11.4,4.45-12,10.13h0v22.29h24V391.25Z"/><path d="M1575.26,391.24c-.55-5.68-5.69-10.13-12-10.13s-11.39,4.45-11.94,10.13h-.06v22.29h24Z"/><path d="M1697.61,391.24c-.56-5.68-5.69-10.13-11.95-10.13s-11.39,4.45-12,10.13h0v22.29h24V391.24Z"/><path d="M1753.28,391.24c-.55-5.68-5.69-10.13-12-10.13s-11.39,4.45-11.94,10.13h-.06v22.29h24Z"/><polygon class="cls-1" points="1625.83 244.13 1579.46 259.3 1672.2 259.3 1625.83 244.13"/><polygon class="cls-25" points="1796.24 351.1 1778.87 325.3 1778.87 325.15 1677.7 325.15 1677.7 256.42 1625.48 239.34 1625.37 238.97 1575.04 255.43 1575.12 255.7 1574.6 255.7 1574.6 324.89 1473.62 324.89 1473.62 325.04 1455.95 350.85 1483.5 350.86 1483.49 350.85 1585.6 350.85 1585.6 340.75 1585.6 334.99 1585.6 327.06 1585.6 324.89 1585.6 259.15 1625.74 246.03 1668.77 260.1 1668.77 325.15 1668.77 325.15 1668.77 335.25 1668.77 341.01 1668.77 351.1 1769.16 351.1 1769.16 351.12 1796.24 351.1"/><polygon class="cls-26" points="1549.17 324.89 1518.02 324.89 1533.6 294.62 1549.17 324.89"/><rect class="cls-26" x="1533.36" y="294.62" width="41.24" height="30.27"/><polygon class="cls-26" points="1702.92 325.29 1734.07 325.29 1718.49 295.01 1702.92 325.29"/><rect class="cls-26" x="1677.49" y="295.02" width="41.24" height="30.27"/><path d="M1613.74,204.5c-.34-4.43-3.55-7.91-7.47-7.91s-7.13,3.48-7.47,7.91h0v17.42h15V204.5Z"/><rect x="1625.12" y="64.68" width="2.06" height="24.58"/><rect x="1617.43" y="70.97" width="17.66" height="2.17"/><path d="M1649.17,204.56c-.35-4.43-3.56-7.91-7.47-7.91s-7.13,3.48-7.48,7.91h0V222h15V204.56Z"/><polygon class="cls-27" points="1643.33 286.98 1627.53 286.98 1627.53 274.44 1623.4 274.44 1623.4 286.98 1608.02 286.98 1608.02 291.3 1623.4 291.3 1623.4 323.45 1627.53 323.45 1627.53 291.3 1643.33 291.3 1643.33 286.98"/><polygon class="cls-26" points="1672.2 159.11 1580.4 159.11 1626.3 87.75 1672.2 159.11"/><path class="cls-28" d="M290.5,344.06A117.62,117.62,0,0,0,326,339a117.88,117.88,0,0,0,35.54,5.11,120.25,120.25,0,0,0,32.95-4.32,89.08,89.08,0,0,0,28.15,4.32c28.23,0,51.12-11.71,51.12-26.15,0-11.32-14.07-21-33.74-24.6a14.42,14.42,0,0,0,.3-2.93c0-13.38-18.65-24.52-43.38-27,3.24-8.67,3.79-16.56.92-22.05-5.43-10.4-21.41-8.91-38.38,2.36-3.05-14-10.66-23.84-19.56-23.84-8.23,0-15.34,8.43-18.79,20.7-.73,0-1.47-.06-2.21-.06-20.66,0-37.41,12.33-37.41,27.53a20.57,20.57,0,0,0,.28,3.32c-13.71,4.79-22.5,12.16-22.5,20.43a12.05,12.05,0,0,0,.6,3.67c-17.52,4.56-29.27,12.92-29.27,22.48C230.65,332.35,257.44,344.06,290.5,344.06Z"/><path class="cls-28" d="M580.44,171.26a86.93,86.93,0,0,0,27.4-4.12,87,87,0,0,0,27.41,4.12,89.16,89.16,0,0,0,25.41-3.48,65.94,65.94,0,0,0,21.71,3.48c21.77,0,39.42-9.44,39.42-21.09,0-9.13-10.85-16.91-26-19.84A13,13,0,0,0,696,128c0-10.79-14.38-19.78-33.45-21.78,2.5-7,2.92-13.36.71-17.79-4.19-8.38-16.51-7.19-29.6,1.9-2.35-11.25-8.22-19.23-15.09-19.23-6.34,0-11.83,6.8-14.48,16.7h-1.71c-15.93,0-28.85,9.94-28.85,22.2a17.2,17.2,0,0,0,.22,2.68c-10.57,3.86-17.35,9.81-17.35,16.47a10.15,10.15,0,0,0,.46,3c-13.51,3.68-22.57,10.43-22.57,18.14C534.29,161.82,555,171.26,580.44,171.26Z"/><path class="cls-28" d="M1863.51,156.3a151.77,151.77,0,0,0,29.09-2.59,151.73,151.73,0,0,0,29.08,2.59,156.55,156.55,0,0,0,27-2.19,114.55,114.55,0,0,0,23,2.19c23.11,0,41.84-5.94,41.84-13.26,0-5.74-11.51-10.63-27.62-12.48a4.42,4.42,0,0,0,.25-1.48c0-6.79-15.26-12.44-35.5-13.7,2.65-4.4,3.1-8.4.75-11.18-4.45-5.28-17.53-4.52-31.41,1.19-2.5-7.07-8.72-12.09-16-12.09-6.73,0-12.55,4.28-15.37,10.5h-1.81c-16.91,0-30.62,6.25-30.62,14a6.88,6.88,0,0,0,.23,1.69c-11.22,2.43-18.41,6.16-18.41,10.36a4,4,0,0,0,.49,1.86c-14.35,2.31-24,6.55-24,11.4C1814.53,150.36,1836.46,156.3,1863.51,156.3Z"/><path class="cls-28" d="M1321.26,125a60.72,60.72,0,0,0,21.15-3.55,60.72,60.72,0,0,0,21.15,3.55,62.09,62.09,0,0,0,19.6-3,46.08,46.08,0,0,0,16.75,3c16.8,0,30.42-8.14,30.42-18.17,0-7.86-8.37-14.56-20.08-17.09a11.2,11.2,0,0,0,.19-2c0-9.29-11.1-17-25.82-18.76,1.93-6,2.26-11.51.55-15.32-3.23-7.22-12.74-6.19-22.84,1.64-1.81-9.69-6.34-16.56-11.64-16.56-4.9,0-9.13,5.85-11.18,14.38h-1.32c-12.29,0-22.26,8.56-22.26,19.12a16.21,16.21,0,0,0,.17,2.31c-8.16,3.33-13.39,8.44-13.39,14.18a9.58,9.58,0,0,0,.36,2.55c-10.43,3.17-17.42,9-17.42,15.62C1285.65,116.82,1301.59,125,1321.26,125Z"/><path class="cls-29" d="M1571.75,396.78a8.59,8.59,0,0,0-16.94,0h0v15.8h17v-15.8Z"/><path class="cls-29" d="M1514.75,396.78a8.59,8.59,0,0,0-16.94,0h0v15.8h17v-15.8Z"/><path class="cls-29" d="M1693.75,395.78a8.59,8.59,0,0,0-16.94,0h0v15.8h17v-15.8Z"/><path class="cls-29" d="M1749.75,396.78a8.59,8.59,0,0,0-16.94,0h0v15.8h17v-15.8Z"/><path class="cls-29" d="M1647.76,208.08c-.25-3.28-2.62-5.84-5.51-5.84s-5.26,2.56-5.51,5.84h0v12.84h11.08V208.08Z"/><path class="cls-29" d="M1611.76,208.08c-.25-3.28-2.62-5.84-5.51-5.84s-5.26,2.56-5.51,5.84h0v12.84h11.08V208.08Z"/><path class="cls-30" d="M1849.49,228.66a9.52,9.52,0,0,1,18.55,0,9.28,9.28,0,0,0-18.55-.61Z"/><path class="cls-30" d="M1867.85,228.58a9.53,9.53,0,0,1,18.56.15,9.28,9.28,0,1,0-18.56-.15Z"/><path class="cls-30" d="M1806.49,255a8.85,8.85,0,0,1,17.23,0,8.62,8.62,0,0,0-17.23,0Z"/><path class="cls-30" d="M1823.54,255a8.85,8.85,0,0,1,17.23.13,8.62,8.62,0,1,0-17.22-.71C1823.54,254.57,1823.54,254.76,1823.54,255Z"/><path class="cls-30" d="M1259.4,175.54a13.35,13.35,0,0,1,26,0,13,13,0,1,0-26,0Z"/><path class="cls-30" d="M1285.14,175.43a13.36,13.36,0,0,1,26,.21,13,13,0,0,0-26-.21Z"/></svg>