<svg id="Layer_1" data-name="Layer 1" xmlns="http://www.w3.org/2000/svg" width="205" height="375" viewBox="0 0 205 375"><defs><style>.cls-1{fill:#e8c6a7;}.cls-2{fill:#593b0f;}.cls-3{fill:#604011;}.cls-4{fill:#fff;}.cls-5{opacity:0.7;}</style></defs><path class="cls-1" d="M121.56,82.83S124,90.26,119.7,94s-5.57,4.34-5.57,4.34,3.1,3.71,5.57,5,6.81,8.67,12.39,6.81a76.87,76.87,0,0,0,11.14-4.95,22.75,22.75,0,0,1-4.33-6.19c-1.24-3.1-3.1-13-2.48-14.86s0-5.58,0-5.58l-14.86-1.86Z"/><path class="cls-1" d="M161.45,171.33c5.15-7,9.73-13.88,14.58-21,1.57,5,1.79,6.77,1.48,12.86s1,19.92-1.11,24.86-7.7,9.55-11.39,5S162.85,177.34,161.45,171.33Z"/><path class="cls-2" d="M158.24,34.94a18.12,18.12,0,0,0-1.22-5,5.6,5.6,0,0,0-.83-1.29,14.48,14.48,0,0,0,1.49-6.37c-.32-3.3-4.53-5.59-9.4-5.12a11,11,0,0,0-6.38,2.63,12.45,12.45,0,0,0-3.53-.15c-4.88.47-8.57,3.52-8.25,6.82a10.41,10.41,0,0,0,1.13,3.38q-.42-.15-.84-.27a14.89,14.89,0,0,0-5.47-.48,11.58,11.58,0,0,0-4.22-2.62c1.6-2.77,2.46-6.11,2.29-7.91-.32-3.29-4.53-5.59-9.41-5.11s-8.57,3.52-8.25,6.82a11.77,11.77,0,0,0,1.56,4.19,19.43,19.43,0,0,0,.6,4.21c-5.58,4.18-7.36,11.55-3.93,17a22.54,22.54,0,0,0,2.91,3.52,18,18,0,0,0,2.71,6.65,15.82,15.82,0,0,0-1.67,3.1c-1.72,4.64,1.3,10.05,6.74,12.06a12,12,0,0,0,1.49.44c-.87,3.53-.88,7.94,1.56,9.86,3.17,2.49,9.46,0,12.48-2.41,2.87,2.06,6.7,3.73,8.77,2.3a2.51,2.51,0,0,0,.48-.44,6.06,6.06,0,0,0,3.18.89c6.66-.22,11.77-13.66,12.69-21.45,3.67-4.18,6.66-9.37,7.56-12.59A12.23,12.23,0,0,0,158.24,34.94Z"/><path class="cls-3" d="M158.71,17.56a7.43,7.43,0,0,0-6.63-7.48,6.71,6.71,0,0,0-5.53-.57c-.22,0-.43-.07-.66-.07s-.39.05-.58.06a6.88,6.88,0,0,0-7.66-2.24,7.3,7.3,0,0,0-6.89-5.16,7.09,7.09,0,0,0-4.47,1.62,7,7,0,0,0-6.39,1.69,7.24,7.24,0,0,0-1.56-.18A7.44,7.44,0,0,0,111,12.78a7.77,7.77,0,0,0,.44,2.47,7.61,7.61,0,0,0-1.31,4.3,7.47,7.47,0,0,0,6.1,7.43,7.24,7.24,0,0,0,6.17,3.53,6.51,6.51,0,0,0,1-.1,7.27,7.27,0,0,0,1,1.3,7.17,7.17,0,0,0,10.35,0,6.51,6.51,0,0,0,.47-.6,7.14,7.14,0,0,0,7-2,7,7,0,0,0,.6-.75,6.75,6.75,0,0,0,5.62-.7,7.22,7.22,0,0,0,1.87.27,7.37,7.37,0,0,0,7.17-6.19A7.67,7.67,0,0,0,158.71,17.56Z"/><path class="cls-4" d="M125.9,105.74s-7.44-8.67-13.63-11.15-9.29-7.43-16.1-5-16.1,9.29-16.1,22.91,9.29,60.68,9.91,65,3.72,26,0,31.58-25.39,46.44-27.25,48.92-13,22.91-14.86,34.67-16.72,44-17.33,48.3-4.34,19.82,3.71,18.58,31.58-.62,35.3,3.09,26,11.77,39.63,9.91,39-2.48,50.15-6.19,31.58,4.95,37.16,1.24,6.81-10.53,6.81-14.86S181.62,281.6,181,276s-7.44-32.2-14.25-39S147.57,216.58,150,202.34s11.15-37.78,18-42.11,14.24-16.1,13-20.43-6.2-22.3-9.29-24.77-14.86-13.63-19.82-14.25-8.05-.61-13,3.1S125.9,105.74,125.9,105.74Z"/><g class="cls-5"><path class="cls-4" d="M127.71,42C113.8,46.53,110,43.29,95.31,52.69s-28,28.87-31,49.31S50.38,143.82,36.6,159.56c-11.91,7.09-15.7,23.37-14.49,36.88s-2.87,28-10.45,34.19-14,7.06-6.89,11.14,18.12,1.91,28.5,1.08,18.18,6,26.26,4.61,18.53-3.09,27.69,1.1,20,10.09,31.51,7.25,27.36-5.51,39.93-5,24.19,0,16.46-12.05S169,165,167.75,148.26s.67-24.61-2-38.23-6.4-32.23-7.12-43.15-3.74-13.15-9.81-17.4S133.82,46,127.71,42Z"/></g></svg>