<svg id="Layer_1" data-name="Layer 1" xmlns="http://www.w3.org/2000/svg" width="1920" height="1080" viewBox="0 0 1920 1080"><defs><style>.cls-1{fill:#fff;}.cls-2{fill:#bfebff;}.cls-3{fill:#4c6b4c;}.cls-4{fill:#579157;}.cls-5{fill:#c1b272;}.cls-6{fill:#0a0a0a;}.cls-7{fill:#6a2300;}.cls-8{fill:#940000;}.cls-9{fill:#d40b00;}.cls-10{fill:#4e5360;}.cls-11{fill:#1e1d1d;}.cls-11,.cls-24{opacity:0.9;}.cls-12{font-size:145.21px;}.cls-12,.cls-16{fill:red;font-family:Krungthep;}.cls-13{fill:#7c3104;}.cls-14{fill:#7f5713;}.cls-15{fill:#925f36;}.cls-16{font-size:62.82px;}.cls-17{opacity:0.7;}.cls-18{fill:#754c24;}.cls-19{fill:#e8c6a7;}.cls-20,.cls-24{fill:#8babf2;}.cls-21{fill:#bf0a00;}.cls-22{fill:#ffbdee;}.cls-23{fill:none;stroke:#000;stroke-linecap:round;stroke-miterlimit:10;}.cls-25{fill:#f777f4;opacity:0.3;}</style></defs><rect class="cls-1" x="1746.5" y="12" width="172" height="257"/><path class="cls-2" d="M4.78,421.34c112-21.9,291.78-77.09,375,1.55,70.53-4.32,142.11-6.87,210.8-7.6C677,329.7,865.9,340.7,940.89,377.52c.73-9.95,9.38-18.78,22.59-24.61a34.34,34.34,0,0,1-.28-4.21c0-19.33,16.88-35,37.7-35,.75,0,1.49,0,2.23.07,3.47-15.6,10.64-26.31,18.93-26.31,9,0,16.64,12.57,19.71,30.3,17.1-14.33,33.2-16.21,38.67-3,2.9,7,2.34,17-.92,28a73.23,73.23,0,0,1,18.75,4.87c62.19-1.95,68.31,11,51.52,29.79-.71.79-1.51,1.67-2.39,2.61,25.95,3.71,45.1,16.71,45.1,32.17,0,18.36-27,33.25-60.31,33.25a107,107,0,0,1-14.88-1A78.12,78.12,0,0,1,1091,444a126.4,126.4,0,0,1,17.4,9.21,92.32,92.32,0,0,1,15.33,12.47c28,8.83,49.79,18.69,65.84,29.57,60.73-3.91,117.26,3.44,155.33,36.54q41.45-11.58,77.4-20.08h-1.76l34.26-141.21-15-29.35h.27l17.67-25.81v-.14h44.4l15.33-29.82v-.46h41.24V246h.52l-.08-.27,15.37-5V160.37l-10.2-10.94h.19l44.93-69.85h-.21V63.46h-7.69V61.29h7.69V55h2.06v6.29h7.91v2.17h-7.91v16l45,70-7.56,8.11v84.93l13.06,4.27v38.59h41v.46l15.26,29.69h44.87v.14l17.38,25.8h-1.14l-14.84,29,23.49,96.83c29.94,8.42,57,28.15,79.26,63.64,25.19,40.19,35.18,82,34.17,123.46a127.93,127.93,0,0,1,18.24,4.32v-506c-2.4.18-4.86.28-7.38.28a87.21,87.21,0,0,1-23.34-3,118.47,118.47,0,0,1-27.32,3,132.18,132.18,0,0,1-14.23-.76c-2.92,5.06-8.16,8.76-17.4,8.76-8.17,0-15-3.36-20.44-8.18-2.24.12-4.53.18-6.85.18-27.4,0-49.62-8.11-49.62-18.11,0-6.62,9.74-12.41,24.27-15.57a7,7,0,0,1-.49-2.54c0-5.73,7.28-10.83,18.64-14.15a12.52,12.52,0,0,1-.23-2.29c0-10.53,13.89-19.07,31-19.07.62,0,1.23,0,1.84,0,2.86-8.5,8.76-14.34,15.58-14.34,7.38,0,13.69,6.85,16.22,16.51,14.06-7.8,27.31-8.83,31.82-1.63,2.37,3.8,1.92,9.26-.76,15.27,12,1,22.22,4.06,28.68,8.27V0H1309.72c2.44,5.09,1.82,12.18-1.23,20,24.37,2.32,42.76,12.73,42.76,25.24a12.55,12.55,0,0,1-.3,2.73c19.4,3.4,33.27,12.41,33.27,23,0,13.5-22.57,24.44-50.4,24.44a92.12,92.12,0,0,1-27.75-4,117.87,117.87,0,0,1-23.32,3.75c-7.18,7.93-15.49,13.18-25.86,11.69a72,72,0,0,1-31.44-13.15c-19.15,4.57-32.35,10.85-32.36,1.36-27.62-2-48.59-12-48.59-24,0-8.93,11.58-16.75,28.86-21a10.61,10.61,0,0,1-.59-3.43c0-7.72,8.67-14.61,22.18-19.09a18.71,18.71,0,0,1-.27-3.1c0-11.23,10.32-20.77,24.7-24.28H.5V422.21C1.92,421.91,3.35,421.62,4.78,421.34Zm1394-349.5a8,8,0,0,1-.42-2.5c0-5.64,6.19-10.66,15.85-13.92a13.21,13.21,0,0,1-.2-2.27c0-10.36,11.8-18.77,26.36-18.77.52,0,1,0,1.56,0,2.42-8.36,7.44-14.11,13.23-14.11,6.28,0,11.64,6.74,13.79,16.25,12-7.68,23.21-8.69,27-1.6,2,3.74,1.64,9.11-.64,15,17.42,1.69,30.56,9.29,30.56,18.41a9,9,0,0,1-.22,2c13.87,2.48,23.78,9,23.78,16.77,0,9.85-16.13,17.83-36,17.83a64.61,64.61,0,0,1-19.83-3,87.64,87.64,0,0,1-23.22,3,85.82,85.82,0,0,1-25-3.48,85.82,85.82,0,0,1-25,3.48c-23.29,0-42.17-8-42.17-17.83C1378.18,80.65,1386.46,75,1398.81,71.84ZM457.67,96.42a5,5,0,0,1-.58-2.25c0-5.06,8.46-9.56,21.64-12.5a8.12,8.12,0,0,1-.27-2c0-9.31,16.12-16.85,36-16.85.72,0,1.43,0,2.13,0,3.32-7.5,10.17-12.66,18.08-12.66,8.57,0,15.89,6,18.82,14.59,16.33-6.9,31.7-7.81,36.93-1.45,2.76,3.36,2.23,8.19-.89,13.5,23.79,1.52,41.74,8.34,41.74,16.52a5.56,5.56,0,0,1-.3,1.79c1.84.22,3.63.47,5.35.75,7.68-2.51,14-1.54,16.72,3.44a11,11,0,0,1,.56,1.26c6.17,2.68,9.84,6,9.84,9.6,0,1.91-1,3.75-2.93,5.45,13.23,2.93,22.45,9.5,22.45,17.13a9.57,9.57,0,0,1-.21,2c13.86,2.48,23.77,9.05,23.77,16.77,0,9.85-16.13,17.83-36,17.83a64.61,64.61,0,0,1-19.83-2.95,87.64,87.64,0,0,1-23.22,2.95,85.48,85.48,0,0,1-25-3.48,85.48,85.48,0,0,1-25,3.48c-23.29,0-42.17-8-42.17-17.83,0-6.52,8.28-12.22,20.63-15.33a7.9,7.9,0,0,1-.42-2.5c0-2.7,1.44-5.26,4-7.56-1.3,0-2.61,0-3.93,0A173.73,173.73,0,0,1,521.27,123a173.66,173.66,0,0,1-34.19,3.13c-31.8,0-57.58-7.16-57.58-16C429.5,104.32,440.8,99.21,457.67,96.42ZM146,243.34a12.81,12.81,0,0,1-.92-4.66c0-10.48,13.42-19.82,34.35-25.89a21.1,21.1,0,0,1-.43-4.21c0-19.27,25.57-34.9,57.11-34.9,1.14,0,2.26,0,3.38.06,5.26-15.55,16.13-26.24,28.68-26.24,13.6,0,25.22,12.54,29.88,30.23,25.9-14.29,50.3-16.17,58.59-3,4.38,7,3.54,17-1.4,28,37.75,3.15,66.23,17.28,66.23,34.24a15,15,0,0,1-.47,3.71c30,4.62,51.52,16.84,51.52,31.19,0,18.31-34.95,33.16-78.05,33.16a161.37,161.37,0,0,1-43-5.48A219.57,219.57,0,0,1,301.17,305c-20.32,0-39.08-2.41-54.26-6.48C231.74,302.59,213,305,192.66,305c-50.47,0-91.38-14.85-91.38-33.16C101.28,259.72,119.22,249.12,146,243.34Z"/><path class="cls-1" d="M985.49,420.53c41.69,3.3,79.33,11.94,105.47,23.49a78.12,78.12,0,0,0,26.35.44,107,107,0,0,0,14.88,1c33.31,0,60.31-14.89,60.31-33.25,0-15.46-19.15-28.46-45.1-32.17.88-.94,1.68-1.82,2.39-2.61,16.79-18.76,10.67-31.74-51.52-29.79a73.23,73.23,0,0,0-18.75-4.87c3.26-11,3.82-21.06.92-28-5.47-13.22-21.57-11.34-38.67,3-3.07-17.73-10.74-30.3-19.71-30.3-8.29,0-15.46,10.71-18.93,26.31-.74,0-1.48-.07-2.23-.07-20.82,0-37.7,15.67-37.7,35a34.34,34.34,0,0,0,.28,4.21c-13.21,5.83-21.86,14.66-22.59,24.61a117.72,117.72,0,0,1,11.79,6.59C966.56,393.09,977.48,405.5,985.49,420.53Z"/><path class="cls-3" d="M1189.53,495.27c-16-10.88-37.82-20.74-65.84-29.57a92.32,92.32,0,0,0-15.33-12.47A126.4,126.4,0,0,0,1091,444c-26.14-11.55-63.78-20.19-105.47-23.49-8-15-18.93-27.44-32.81-36.42a117.72,117.72,0,0,0-11.79-6.59C865.9,340.7,677,329.7,590.54,415.29c-68.69.73-140.27,3.28-210.8,7.6-83.18-78.64-262.95-23.45-375-1.55-1.43.28-2.86.57-4.28.87V1080H358.16C343.72,1009.26,403,912.41,506.07,847.8c96.7-60.63,244.69-176.64,350.55-133.08,140.15-64,288-121.94,405.48-158.43q43.92-13.63,82.76-24.48C1306.79,498.71,1250.26,491.36,1189.53,495.27Z"/><path class="cls-4" d="M766.5,1057.11q-4.69,2.51-9.6,4.89h8.44l1.16-1.29Z"/><path class="cls-4" d="M1455.57,512v-.27h-33.31q-36,8.5-77.4,20.08-38.89,10.86-82.76,24.48c-117.5,36.49-265.33,94.47-405.48,158.43C750.76,671.16,602.77,787.17,506.07,847.8,403,912.41,343.72,1009.26,358.16,1080h59.18q71.43-43.26,158.07-92.79c353.53-201.76,622.47-333.5,802.71-409l5.9-2.46c72.9-30.34,131-51.3,173.9-63.8Z"/><path class="cls-4" d="M1901.26,654.4c1-41.45-9-83.27-34.17-123.46-22.26-35.49-49.32-55.22-79.26-63.64l10.85,44.7H1647.45c-9.86,25.66-84.29,84.74-188.26,151.2-54,34.53-116,71.06-181.07,105.92-127.79,68.49-267.38,130.57-381.49,158.55-63.3,15.52-184,80.52-312.27,152.33H1909.9q4.9-2.38,9.6-4.89V658.72A127.93,127.93,0,0,0,1901.26,654.4Z"/><path class="cls-1" d="M192.66,305c20.31,0,39.08-2.41,54.25-6.48,15.18,4.07,33.94,6.48,54.26,6.48a219.57,219.57,0,0,0,50.31-5.48,161.37,161.37,0,0,0,43,5.48c43.1,0,78.05-14.85,78.05-33.16,0-14.35-21.47-26.57-51.52-31.19a15,15,0,0,0,.47-3.71c0-17-28.48-31.09-66.23-34.24,4.94-11,5.78-21,1.4-28-8.29-13.18-32.69-11.3-58.59,3-4.66-17.69-16.28-30.23-29.88-30.23-12.55,0-23.42,10.69-28.68,26.24-1.12,0-2.24-.06-3.38-.06-31.54,0-57.11,15.63-57.11,34.9a21.1,21.1,0,0,0,.43,4.21c-20.93,6.07-34.35,15.41-34.35,25.89a12.81,12.81,0,0,0,.92,4.66c-26.76,5.78-44.7,16.38-44.7,28.5C101.28,290.15,142.19,305,192.66,305Z"/><path class="cls-1" d="M1420.35,105a85.82,85.82,0,0,0,25-3.48,85.82,85.82,0,0,0,25,3.48,87.64,87.64,0,0,0,23.22-3,64.61,64.61,0,0,0,19.83,3c19.89,0,36-8,36-17.83,0-7.72-9.91-14.29-23.78-16.77a9,9,0,0,0,.22-2c0-9.12-13.14-16.72-30.56-18.41,2.28-5.92,2.66-11.29.64-15-3.83-7.09-15.09-6.08-27,1.6-2.15-9.51-7.51-16.25-13.79-16.25-5.79,0-10.81,5.75-13.23,14.11-.52,0-1,0-1.56,0-14.56,0-26.36,8.41-26.36,18.77a13.21,13.21,0,0,0,.2,2.27c-9.66,3.26-15.85,8.28-15.85,13.92a8,8,0,0,0,.42,2.5c-12.35,3.11-20.63,8.81-20.63,15.33C1378.18,97,1397.06,105,1420.35,105Z"/><path class="cls-1" d="M682.74,134.75a9.57,9.57,0,0,0,.21-2c0-7.63-9.22-14.2-22.45-17.13a22.8,22.8,0,0,1-5,3.26,22.8,22.8,0,0,0,5-3.26c1.89-1.7,2.93-3.54,2.93-5.45,0-3.6-3.67-6.92-9.84-9.6a11,11,0,0,0-.56-1.26c-2.68-5-9-6-16.72-3.44h0c-1.72-.28-3.51-.53-5.35-.75a5.56,5.56,0,0,0,.3-1.79c0-8.18-18-15-41.74-16.52,3.12-5.31,3.65-10.14.89-13.5-5.23-6.36-20.6-5.45-36.93,1.45-2.93-8.54-10.25-14.59-18.82-14.59-7.91,0-14.76,5.16-18.08,12.66-.7,0-1.41,0-2.13,0-19.87,0-36,7.54-36,16.85a8.26,8.26,0,0,0,.27,2c-13.18,2.93-21.64,7.43-21.64,12.49a5,5,0,0,0,.58,2.25c-16.87,2.79-28.17,7.9-28.17,13.75,0,8.84,25.78,16,57.58,16A173.66,173.66,0,0,0,521.27,123a173.73,173.73,0,0,0,34.19,3.13c1.32,0,2.63,0,3.93,0a34.18,34.18,0,0,1,11.86-6.36h0a34.18,34.18,0,0,0-11.86,6.36h0c-2.55,2.3-4,4.86-4,7.56a7.9,7.9,0,0,0,.42,2.5c-12.35,3.11-20.63,8.81-20.63,15.33,0,9.85,18.88,17.83,42.17,17.83a85.48,85.48,0,0,0,25-3.48,85.48,85.48,0,0,0,25,3.48,87.64,87.64,0,0,0,23.22-2.95,64.61,64.61,0,0,0,19.83,2.95c19.89,0,36-8,36-17.83C706.51,143.8,696.6,137.23,682.74,134.75Zm-48.91-38a48.36,48.36,0,0,0-7.84,4.12A48,48,0,0,1,633.83,96.79Zm-8.28,2.37c-2.38-8.57-7.46-14.5-13.35-14.5C618.09,84.66,623.17,90.59,625.55,99.16Zm-54.5,18.34a13.33,13.33,0,0,0,.19,2.2A13.33,13.33,0,0,1,571.05,117.5Zm16.11,6-1.48.25,1.48-.25A123.81,123.81,0,0,0,606.88,126,123.81,123.81,0,0,1,587.16,123.53Zm51.22.58c-1.18.22-2.4.42-3.64.61C636,124.53,637.2,124.33,638.38,124.11Zm11-2.73c1.36-.46,2.64-.93,3.83-1.43C652,120.45,650.7,120.92,649.34,121.38Zm-6.55,1.82c1.66-.38,3.24-.8,4.74-1.25C646,122.4,644.45,122.82,642.79,123.2Z"/><path class="cls-1" d="M1194.68,24.28a18.71,18.71,0,0,0,.27,3.1c-13.51,4.48-22.18,11.37-22.18,19.09a10.61,10.61,0,0,0,.59,3.43c-17.28,4.26-28.86,12.08-28.86,21,0,12,21,22,48.59,24,0,9.49,13.21,3.21,32.36-1.36a72,72,0,0,0,31.44,13.15c10.37,1.49,18.68-3.76,25.86-11.69a117.87,117.87,0,0,0,23.32-3.75,92.12,92.12,0,0,0,27.75,4c27.83,0,50.4-10.94,50.4-24.44,0-10.58-13.87-19.59-33.27-23a12.55,12.55,0,0,0,.3-2.73c0-12.51-18.39-22.92-42.76-25.24,3-7.77,3.67-14.86,1.23-19.95h-35.6c-.85.49-1.71,1-2.57,1.54-.12-.52-.26-1-.39-1.54h-51.78C1205,3.51,1194.68,13.05,1194.68,24.28Z"/><path class="cls-5" d="M1644.59,512h-86.67c-42.94,12.5-101,33.46-173.9,63.8-1.63,1.55-3.27,3.18-4.9,4.87-.33-.8-.66-1.61-1-2.41-180.24,75.45-449.18,207.19-802.71,409q-86.53,49.39-158.07,92.79h167c128.23-71.81,249-136.81,312.27-152.33,114.11-28,253.7-90.06,381.49-158.55,65.06-34.86,127.05-71.39,181.07-105.92,104-66.46,178.4-125.54,188.26-151.2Z"/><polygon class="cls-6" points="1787.83 467.3 1764.34 370.47 1779.18 341.43 1780.32 341.43 1762.94 315.62 1762.94 315.48 1718.07 315.48 1702.81 285.8 1702.81 285.33 1702.57 285.33 1702.57 285.33 1702.57 285.33 1661.78 285.33 1661.78 246.74 1648.72 242.47 1648.72 157.54 1656.28 149.43 1611.25 79.43 1611.25 63.46 1619.16 63.46 1619.16 61.29 1611.25 61.29 1611.25 55 1609.19 55 1609.19 61.29 1601.5 61.29 1601.5 63.46 1609.19 63.46 1609.19 79.58 1609.4 79.58 1564.47 149.43 1564.29 149.43 1574.48 160.37 1574.48 240.72 1559.11 245.75 1559.19 246.02 1558.67 246.02 1558.67 284.94 1517.67 284.94 1517.43 284.94 1517.43 285.4 1502.1 315.22 1457.7 315.22 1457.7 315.36 1440.03 341.17 1439.76 341.17 1454.76 370.52 1420.5 511.73 1422.26 511.73 1431.95 511.73 1455.57 511.73 1455.57 512 1557.92 512 1577.92 512 1644.59 512 1647.45 512 1728.86 512 1763.5 512 1790.01 512 1798.68 512 1787.83 467.3"/><polygon class="cls-1" points="1435.93 521.41 1505.75 521.41 1470.84 377.51 1435.93 521.41"/><polygon class="cls-1" points="1814.11 521.68 1779.77 380.15 1794.74 350.85 1763.81 350.85 1778.67 379.94 1744.28 521.68 1814.11 521.68"/><polygon class="cls-1" points="1671.7 159.11 1579.71 159.11 1589.91 170.05 1589.91 259.3 1579.6 259.3 1579.6 357.33 1671.7 357.33 1671.7 259.3 1664.14 259.3 1664.14 167.22 1671.7 159.11"/><rect class="cls-1" x="1471" y="350.84" width="307.93" height="170.83"/><polygon class="cls-1" points="1455.19 350.85 1470.65 381.12 1486.12 350.85 1455.19 350.85"/><rect class="cls-1" x="1668.27" y="335.25" width="111.52" height="15.86" transform="translate(3448.05 686.35) rotate(-180)"/><polygon class="cls-1" points="1768.66 351.12 1778.37 325.3 1795.74 351.1 1768.66 351.12"/><rect class="cls-1" x="1668.27" y="325.15" width="110.1" height="15.86" transform="translate(3446.64 666.17) rotate(-180)"/><rect x="1593.35" y="450.81" width="66.67" height="70.87"/><ellipse cx="1626.68" cy="454.03" rx="33.34" ry="35.43"/><rect class="cls-7" x="1601.65" y="475.09" width="49.43" height="46.57"/><ellipse class="cls-7" cx="1626.37" cy="477.21" rx="24.72" ry="23.29"/><rect x="1493.74" y="391.25" width="24" height="22.29"/><ellipse cx="1505.74" cy="392.26" rx="12" ry="11.14"/><rect x="1550.81" y="391.24" width="24" height="22.29"/><ellipse cx="1562.81" cy="392.25" rx="12" ry="11.14"/><rect x="1673.16" y="391.24" width="24" height="22.29"/><ellipse cx="1685.16" cy="392.25" rx="12" ry="11.14"/><rect x="1728.83" y="391.24" width="24" height="22.29"/><ellipse cx="1740.84" cy="392.25" rx="12" ry="11.14"/><rect class="cls-8" x="1471.69" y="334.99" width="113.41" height="15.86"/><polygon class="cls-8" points="1483 350.86 1473.12 325.04 1455.45 350.85 1483 350.86"/><rect class="cls-8" x="1473.12" y="324.9" width="111.97" height="15.86"/><rect class="cls-8" x="1574.1" y="255.7" width="11" height="71.36"/><rect class="cls-8" x="1668.27" y="256.42" width="8.94" height="72.08"/><polygon class="cls-1" points="1625.33 244.13 1578.96 259.3 1671.7 259.3 1625.33 244.13"/><polygon class="cls-8" points="1622.88 245.25 1624.67 239.24 1677.2 256.42 1675.41 262.44 1622.88 245.25"/><polygon class="cls-8" points="1576.48 261.97 1574.54 255.43 1624.87 238.97 1626.82 245.51 1576.48 261.97"/><polygon class="cls-9" points="1548.67 324.89 1517.52 324.89 1533.1 294.62 1548.67 324.89"/><rect class="cls-9" x="1532.86" y="294.62" width="41.24" height="30.27"/><polygon class="cls-9" points="1702.42 325.29 1733.57 325.29 1718 295.01 1702.42 325.29"/><rect class="cls-9" x="1676.99" y="295.01" width="41.24" height="30.27" transform="translate(3395.22 620.3) rotate(-180)"/><rect x="1598.26" y="204.5" width="15.02" height="17.41"/><ellipse cx="1605.77" cy="205.3" rx="7.51" ry="8.71"/><rect x="1624.62" y="64.68" width="2.06" height="24.58"/><rect x="1624.67" y="63.22" width="2.17" height="17.66" transform="translate(1697.81 -1553.7) rotate(90)"/><rect x="1633.69" y="204.56" width="15.02" height="17.41"/><ellipse cx="1641.2" cy="205.36" rx="7.51" ry="8.71"/><rect class="cls-10" x="1622.9" y="274.44" width="4.12" height="49.02"/><rect class="cls-10" x="1623.02" y="271.48" width="4.32" height="35.31" transform="translate(1914.32 -1336.04) rotate(90)"/><polygon class="cls-9" points="1671.7 159.11 1579.9 159.11 1625.8 87.75 1671.7 159.11"/><rect class="cls-11" x="139.5" y="101" width="1639" height="869" rx="94.32"/><text class="cls-12" transform="translate(462.52 260.92)">GAME OVER<tspan x="0" y="348.5"> </tspan></text><path class="cls-13" d="M293.37,225.46a24.29,24.29,0,0,1,.61-4.33c1.24-4.47,3.66-10.47,8.83-10.33,1.29,0,1.35.88,2.18,1.45a5.78,5.78,0,0,0,3.66.75s0-.07,0-.09c1.24-3.28,3.86-5.7,7.54-4.78s4.85,4.27,4.39,7.73a6.09,6.09,0,0,1-.31.94c.38,1.08.78,2.16,1.16,3.24,2.6,2,5.21,4,7.8,6,.4,1.07.72,2.15,1.16,3.22,1.37,1.85,3.2,3.66,1.27,6.18s-9.09,4.84-10.14,7.79,2.26,3.81,1.13,6.2-2.42,3.17-4.12,5.15-3,2.64-5.93,1.79a67.05,67.05,0,0,0-11-1.85c-2.91-.2-4.73.83-7.08-.49s-4.74-3.91-5.2-6.68-1.81-5.82-1.66-8.6,1.79-7.56,1.57-9.68a14.11,14.11,0,0,1-.25-2.77C290.46,226.09,291.91,225.74,293.37,225.46Z"/><path class="cls-14" d="M345.27,225.58c-3.08-3.71-6.58-8-10.63-10.43s-7.31-4-10.94-7.11-8-6.33-11.13-10.18-4.66-10.64-6.88-14.26-3.7-4.36-6-7.28c-2.34-.49-4.76-1.17-7.13-1.74l-5.67,1.7-4.11,3.06c-.78,1.15-1.56,2.36-2.33,3.48-.42,1.7-.68,2.53-1.13,4.4s-.88,3-1.39,5.49.49,3.09-.52,7-3.78,10.45-5.33,16-3.57,14.29-5,20.07c-1.68,3-1.78-.58-2.54,4.53s-.16,9.64-1.3,19.05-6.57,39.43-9.07,48.36S249.94,318,251,323.46s4.05,8.62,6.76,1.92,5.68-19.42,7.43-27.58,4.93-19.54,5.62-26.87,0-13.87,3.45-18.73,4.72-6.56,3.71-11.58a46.35,46.35,0,0,1-.51-14.14c.43-4.72,2.92-6.71,4.4-11.14a65.59,65.59,0,0,0,3.23-15.4c.24-4.66-1-7.82,2.49-11.23s7.2-5.9,11.69-3.37,8.77,4.88,4.9,9.09-5.68,7.15-11.29,8.11-17,1.14-21.23,2.77-9.76,3.84-5,4.62,15.19,1.8,18.76.8,3.56-3.43,5.91-3.54-1,3.8-2.4,4.82-7.62,6-7.84,8.47-3.31,5.18-.08,5.48,6.11-8.71,8.11-10.19,3.92-2.61,4.76-3.63-2,2.83-2.77,4.41-3.6,7.54-3.17,9.91,4.56.85,5.38-1.15,1.81-8.56,3.6-10.06,2.13-3.26,4.27-3.08,5.84,5.41,5.63,6.92,1-3.78,4-5,4.77-2.79,6.74-.82.84,5,2.72,7a43.32,43.32,0,0,0,7.59,5.86c2,1.27,2.15,2.37,3.54,3.53a12.21,12.21,0,0,0,4,2.47c-.32-1.94-.21-3-1.3-5a35,35,0,0,0-5.85-6.77c-1.59-1.38-1.84-1.93-1.92-3.65,1.11.21,2.16.39,3.21.56a17.51,17.51,0,0,1,3.55,3.33,14,14,0,0,0,6.29,3.64C341.49,224.85,343.23,225.19,345.27,225.58Z"/><path class="cls-15" d="M309.58,254.19a.39.39,0,0,0,.15,0,.68.68,0,0,0,.7-.67c0-.37,0-.74,0-1.12,0-2.45,0-5,1.58-6.32a9.39,9.39,0,0,1,2.47-1.36c1.37-.58,2.78-1.17,3.39-2.89.15-.41.3-.79.44-1.15.74-1.84,1.43-3.58,0-5.86a7.57,7.57,0,0,0-1.51-1.77c-.56-.5-.66-.59-.26-2a19.66,19.66,0,0,0,.54-2.65,6.46,6.46,0,0,1,.94-2.89.69.69,0,0,0-1.19-.69,7.83,7.83,0,0,0-1.12,3.39,16.49,16.49,0,0,1-.5,2.47c-.57,2-.23,2.58.67,3.38a6.16,6.16,0,0,1,1.26,1.48c1,1.68.57,2.85-.13,4.61-.16.39-.32.79-.46,1.21-.41,1.15-1.39,1.56-2.63,2.08a10.43,10.43,0,0,0-2.82,1.58c-2.08,1.75-2.08,4.74-2.08,7.37,0,.37,0,.74,0,1.09A.69.69,0,0,0,309.58,254.19Z"/><path class="cls-15" d="M302.27,253.15a.69.69,0,0,1-.49-.84,10.1,10.1,0,0,1,.75-1.95,4.08,4.08,0,0,0,.35-3.43,28,28,0,0,0-1.55-4c-1.18-2.65-2.5-5.66-2.46-8.18.07-3.58.86-9.54,1.9-12.37,1.21-3.29,1.46-3.51,1.86-3.67a.7.7,0,0,1,.89.4.68.68,0,0,1-.25.81,20.88,20.88,0,0,0-1.21,2.94,46.77,46.77,0,0,0-1.81,11.91c0,2.22,1.22,5.08,2.33,7.6a27.61,27.61,0,0,1,1.64,4.25,5.43,5.43,0,0,1-.45,4.35,9.45,9.45,0,0,0-.66,1.7.69.69,0,0,1-.83.49Zm.86-33.16Zm.17-.11Z"/><path class="cls-15" d="M293.23,250.91a.68.68,0,0,0,.75-.32c1.82-3.07,1.84-5.53,1.22-9.27l-.11-.7c-.58-3.41-1.45-8.58.07-11.86a.69.69,0,0,0-1.25-.57c-1.69,3.66-.78,9.08-.18,12.66l.12.7c.57,3.48.56,5.62-1.05,8.34a.68.68,0,0,0,.24.94A.64.64,0,0,0,293.23,250.91Z"/><path class="cls-15" d="M305.89,228.84a8.05,8.05,0,0,0,4.39-.51c1.7-.6,1.51-3.34,1.35-5.54,0-.55-.07-1-.06-1.34.13-2.57.84-3.45,1.4-3.73a.69.69,0,1,0-.61-1.23c-1.32.65-2,2.25-2.16,4.89a12.63,12.63,0,0,0,.06,1.51c.08,1.16.27,3.89-.44,4.14-1.77.63-4,.94-4.57-.23a5.49,5.49,0,0,1,.44-5.32.7.7,0,0,0-.13-1,.71.71,0,0,0-1,.13,6.84,6.84,0,0,0-.59,6.73A2.64,2.64,0,0,0,305.89,228.84Z"/><path class="cls-14" d="M262.07,266.65c-1.22-3.66-5-10.56-8.13-12s-6.84-1.56-7.36,1.31,2.63,8.1,1.08,10.45-4.45,2.29-4.33,5.18.52,7.32-2,9.12-4.59,2.75-5.4,5.65-3.31-.06-3.12-2.27,2.13-5.11,1.48-7.92-2.54-3.85-1.06-7.27,3.16-8.63,5.19-12,4.22-8.22,8.31-8.12,5.23,1,8.64,3.24,5.09,3.84,8.21,6"/><path class="cls-14" d="M271.06,266c3.24-.57,5.58-2.58,9-.38s7.6,6.28,8,11-2.77,9.79-3.28,14.27-.46,9.74-2.81,12.91-4.54,6-5.27,8.5-.25,1.28-.76,3.15a18.45,18.45,0,0,1-3-6.33c-.83-3-1.8-9-.55-12.15a32.88,32.88,0,0,0,2.12-7.81c.63-3.44,3.26-8,4.47-11.25s2.95-5.82,0-7.69-5.27-.5-8,.27"/><text class="cls-16" transform="translate(433.5 389.05) scale(1.27 1)">Øv! Du nåede ikke at <tspan x="0" y="75.38">samle blomster nok!</tspan></text><g class="cls-17"><path class="cls-1" d="M1632.31,260.41c-39,10.56-48.57.17-90.81,25s-83.07,79.72-96.13,139.6-47.89,121-89.16,164.71c-34.14,18.57-48.31,66-48.22,106.22s-14.47,82.37-36.57,99.07-39.74,18-21.43,31.56,48.92,9.36,77.42,9,48.1,21.39,70.45,19,51.21-5.36,75.18,8.91,52,34,84.15,27.93,75.85-10.72,110-6.53,65.92,5,47.72-32.29.85-219.62,1.37-269.52,7.64-72.71,3.56-113.57-9.8-96.72-9.2-129.2-7.07-39.69-22.61-53.51S1648,273.55,1632.31,260.41Z"/></g><path class="cls-18" d="M1704.87,431.15c1.86-15.21-.09-37.32-8.15-52.14-7.15-33-10.9-102.9-56.84-109.48-52.14-7.46-107.7,30.38-125.87,81.23-12.4,10.19-21.77,30.07-25.76,42.79-6,19.08-13,50.2,2.35,63,5.26,4.38,9.48-4.17,13.08-5.17,2.15,6.2,3.82,19.1,12.41,20.17s13.75-11.41,17.14-17.28c-.12,5.84-3.23,22.14,4.44,24.8s14.33-12.45,17.42-17c.42,5.22-2.07,20.94,5.57,22.7,8.88,2.06,15.63-15.91,18.66-21.81,6.87,1,13.64,2.09,20.46,3.26,0,6.21-1.29,20.33,5.61,23.35,4.85,2.12,8.4-5.49,10.86-7.93.92,2.9,1,8.55,5,9.48,5.11,1.2,9.28-6.05,11.63-9.5,1.11,3.14.6,9.19,5.22,10,6.86,1.23,12.29-8.84,14.59-14,1.82,4.81,3.87,12.25,10,12.81,4.36.39,5.66-3.35,6.94-6.6,2.35,1.53,3,6.86,7.61,4.53C1695.29,479.35,1702.35,451.64,1704.87,431.15Z"/><path class="cls-19" d="M1615.83,509.25c-9.59-13.46-10.76-33.9-4.06-50.57a35.51,35.51,0,0,0,16.85-8.88c6.69-6.33,12.15-9.28,15-18a11.52,11.52,0,0,0,.34-1.35c6.57-30,9.68-59.82,10.54-90.46a59.55,59.55,0,0,0,.16-6.77c-1-10.9-5.29-16.21-17.1-17.06-19.08-1.38-41.32-1.22-60.19-.39-11.67.51-16,5.17-18,15.58-.88,4.56-.9,9.15-1.57,14.1-3,22.14-7.55,44.76-7.61,67.2,0,5.16-.08,8.59,1.39,13.93,3,10.81,12.84,19.58,22.37,25.68,3.59,7,2.65,19.9-1.65,24.33-10.62,10.93-18.67,9.93-30.3,16.58-4,10.77-7.67,21.79-9.74,33.21,34.53,10.68,65.77,18.22,102.34,14.18C1629.16,527.55,1624.74,521.76,1615.83,509.25Z"/><path class="cls-1" d="M1599.72,861.51c14.37-90.6,3.5-53.21,27.49-123.48,12.61-36.94,25.65-56.23,38.28-92.94,9,1.34,16,.69,25,4.17s25.09,20.58,34.09,9.21-4.45-21,1.48-38.62,16.16-47.84,12.8-68.51-16.14-29.59-28.24-44.5c-.28.3,0,.47-.47.56-7.61-6.82-20.28-13-28.68-16.93-30-14.18-38.1-.38-57.21,15.8s-25.45,18.15-47.55,21.45c-10.56-10.1-21.76-22.59-31.34-32.89s-13.48-14.45-28-14.92c-5.93-.19-15.54,3.17-22.23,2.95-16.18-7.51-30.1-23.29-49.14-18.93s-28.84,27.65-34.67,42.46-9.42,32.26-16.16,42.4-15.55,7.81-12.21,18.76,16.26,10.57,25.87,12.81,20.43.87,30.23,1.47c3,4.74,5.52,2.57,8.59,8,19.58,34.75,14.64,75.82-2,113.71s-49.23,43.46-74.83,83.24-54.1,29.64-64.1,106.09S1585.35,952.1,1599.72,861.51Z"/><path class="cls-19" d="M1692.17,598.55c-15.34,10.48-46.87-11.74-48.24-38.36s15.11-80,16.06-103.29-.14-16.21,5.16-32.77,23.61-36.69,28.37-51-12.85-6-17.74-1-13.25,16.79-19.28,22.41c-4.91,14.12-9.1,28.15-15.49,41.31-1.61,22.15-5.67,36.78-9.23,60.49s-45.1,80.79-32.51,100.11,35.7,31.2,57.43,43.09,33.11,2.14,55.85-7.35C1717.13,625.05,1707.51,588.07,1692.17,598.55Z"/><path class="cls-19" d="M1420,576.77c26.77-8.85,53.11-29.72,71.83-49.76s25.26-20,25.63-46.83,35.92-149.44,32.06-154c-34.26,45.44-46.71,133.49-74.13,165.09s-43.06,32.31-61.19,51S1393.27,585.62,1420,576.77Z"/><ellipse class="cls-20" cx="1569.46" cy="365.81" rx="3.29" ry="3.19"/><path class="cls-1" d="M1636.61,343.4c7.16,2,10,10.93,8.49,17.62s-8.92,14.38-16.66,12.16-10-12.28-7.64-19.1C1623,348,1629.45,341.41,1636.61,343.4Z"/><path d="M1633.23,355.33c3.82,1.07,5.33,5.91,4.51,9.53s-4.8,7.81-8.94,6.62-5.35-6.63-4-10.33C1625.91,357.84,1629.4,354.27,1633.23,355.33Z"/><path class="cls-1" d="M1576,336.93c7.6.11,13,9.12,13.39,16.06.41,7.46-6.82,16.35-14.91,15.65s-12-10.09-11.36-17.16C1563.68,345.16,1568.37,336.82,1576,336.93Z"/><path d="M1574.25,351c4-.4,7.24,3.53,7.87,7.19s-1.42,9-5.72,9.39-7.52-4.21-7.75-8.11C1568.45,356,1570.3,351.38,1574.25,351Z"/><path d="M1612.5,412c-4.9.86-19-2.17-23.24-2.26a34.1,34.1,0,0,1-6.1-.39c-4.08-.58-10.67,4.37-9.28,7.77,2.24,5.49,2.54,7.73,8.66,10.1s11.79,3.5,18.22,2.39,12.15-5.5,14.39-9.2S1617.2,411.15,1612.5,412Z"/><path class="cls-1" d="M1611.1,414c-4.49-1.56-15,2.68-18.67,1.48s-3.69-1.21-5.42-1.42a14.43,14.43,0,0,0-8.78,1.48c-2.93,1.5-5.42,1.37-4.69-.8a23,23,0,0,1,4.2-3.29,16.24,16.24,0,0,1,8.44-2.36,19.46,19.46,0,0,1,5.18.33c3.61.45,15.84-1.51,19.85.22,3.85,1.67,5.63,3.51,6.47,6.1C1617.84,417.28,1615.09,415.38,1611.1,414Z"/><path class="cls-21" d="M1622.3,401.69l.21-.38-.13.07C1622.35,401.48,1622.33,401.58,1622.3,401.69Z"/><path class="cls-21" d="M1569.78,393l-.06.34a4.36,4.36,0,0,0,.23.42C1569.89,393.46,1569.84,393.21,1569.78,393Z"/><path class="cls-21" d="M1611.32,412.74c-2.24-1-6.79-2.66-9.59-.65s-4.71,3.89-8.32,2.62-8.32-4.28-12-4-5.66,3.07-8.36,3.83-2.31-1.11-2.09-2.6a1.19,1.19,0,0,1,.26-.68,18.43,18.43,0,0,1,7.27-5.05,15,15,0,0,1,8.86-.85c1.75.31,2.22.93,5.63,1.84s13.43-1.56,17.67-.22c3.76,1.19,5.07,3,6.71,5.91.05.1.1.18,0,.3C1616.24,414.87,1613.56,413.75,1611.32,412.74Z"/><path class="cls-22" d="M1593.81,424.84a17.67,17.67,0,0,0,6.75.48c-.89-3.39-3.2-5.82-6.82-6-3.24-.16-4.68,1.53-5.73,4.11A52.1,52.1,0,0,0,1593.81,424.84Z"/><path class="cls-21" d="M1616.84,421c-3.4,1.4-7,2-10.55,3a24.84,24.84,0,0,1-.73,7.82C1611.23,429.7,1614.23,426.19,1616.84,421Z"/><path class="cls-21" d="M1595.46,424.46c-5-2.29-8.41-.25-10.52,4.75,3.1.58,6.14,1,9.28,1.66a53.37,53.37,0,0,0,9.67,1.18C1601.76,428.11,1599.85,426.49,1595.46,424.46Z"/><path class="cls-21" d="M1583.34,420.49c-3.38-1.57-7.12-2.46-10.3-4.36,1.54,7,4.32,10.37,11.19,12.94A53.81,53.81,0,0,1,1583.34,420.49Z"/><path class="cls-21" d="M1606.28,423.94c-4.29.64-8.21,0-12.37-.91a106.53,106.53,0,0,1-10.58-2.54,56.1,56.1,0,0,0,.89,8.58l.72.14c2.1-5,5.55-7,10.52-4.75,4.39,2,6.29,3.65,8.43,7.59.51-.11,1.12-.16,1.67-.29A24.52,24.52,0,0,0,1606.28,423.94Z"/><path class="cls-23" d="M1602.55,348.31c4,7.67,4.68,14.37.2,20.72s-6.16,4.81-10,11.68c-3.56,6.46,7.75,9.28,14.1,7.83.41-.1.8-.21,1.17-.34"/><path d="M1641.05,338.12c.06.13.27.38.24.51-2.21,7.83,8.29,12.84,11.71,14s3.6,2.4-.22,1.21-15.11-7.12-12.74-15.58c.07-.27.21-.59.55-.48S1641,338,1641.05,338.12Z"/><path d="M1573.73,332.4c-.1.1-.37.25-.37.38-.52,8-11.53,8.74-15,8.57s-4,.89-.19,1.18,15.81-1,16.39-9.64c0-.28,0-.62-.35-.64S1573.84,332.3,1573.73,332.4Z"/><path class="cls-24" d="M1579.55,363.37c-.15,0-.29,0-.44,0a47.64,47.64,0,0,1-5.86-3.68,3.41,3.41,0,0,0-1.88.41,3.26,3.26,0,1,0-3.42,4,3.32,3.32,0,0,0,1.88-.41,3.26,3.26,0,0,0,2.91,2.37c.15,0,.29,0,.43,0a3.27,3.27,0,0,0,2.72,1.84,3.05,3.05,0,0,0,.43,0,3.3,3.3,0,0,0,2.72,1.85,3.26,3.26,0,0,0,3.53-2.93A3.22,3.22,0,0,0,1579.55,363.37Z"/><path class="cls-24" d="M1637.1,364.46a3,3,0,0,0-.34.26,3.35,3.35,0,0,0-3.31.15,2.18,2.18,0,0,0-.34.26,3.37,3.37,0,0,0-3.32.14,3.25,3.25,0,0,0-1.23,1.43,3.36,3.36,0,0,0-3.79-.15,3.12,3.12,0,0,0-1,4.4,3.35,3.35,0,0,0,4.55.93,3.13,3.13,0,0,0,1.23-1.43,3.34,3.34,0,0,0,3.79.16,2.24,2.24,0,0,0,.34-.27,3.35,3.35,0,0,0,3.31-.14,3,3,0,0,0,.34-.26,3.37,3.37,0,0,0,3.31-.14,3.12,3.12,0,0,0,1-4.41A3.34,3.34,0,0,0,1637.1,364.46Z"/><path class="cls-19" d="M1583.49,372.45c-1.09,3.71-8.46,4.72-14.29,3.52s-13-5.6-11.75-9.61,9.61-4.66,15.62-3C1578.44,364.88,1584.58,368.74,1583.49,372.45Z"/><path class="cls-19" d="M1647.77,373c.13,3.86-6.56,7-12.49,7.59s-14.13-1.49-14.22-5.67,7.68-7.29,13.93-7.46C1640.58,367.25,1647.64,369.09,1647.77,373Z"/><ellipse class="cls-25" cx="1633.85" cy="385.03" rx="7.97" ry="9.86" transform="translate(1141.83 1989.91) rotate(-86.22)"/><ellipse class="cls-25" cx="1565.17" cy="378.27" rx="7.97" ry="9.86" transform="translate(1084.43 1915.06) rotate(-86.22)"/><ellipse class="cls-24" cx="1581.36" cy="381.88" rx="15.14" ry="1.64" transform="translate(1074.45 1927.71) rotate(-85.42)"/><ellipse class="cls-24" cx="1622.32" cy="384.96" rx="15.14" ry="1.64" transform="translate(1109.07 1971.37) rotate(-85.42)"/><path class="cls-18" d="M1582.45,291.26c6.63,3.3-4.56,27.84-19.62,46.05-16.17,19.56-42,38.09-48.43,34.36s6.63-29.81,23.2-48.77C1552.4,306,1575.86,288,1582.45,291.26Z"/><path class="cls-18" d="M1598.19,295.32c3.59,3-7.88,16.82-20.65,26.18-13.72,10.05-33.33,18.12-36.73,14.9s9.54-17.78,23.4-27.39C1576.59,300.42,1594.62,292.37,1598.19,295.32Z"/><path class="cls-18" d="M1631.16,297.94c4.3-2.3,15.93,4.42,22.28,12.06,6.84,8.2,9.77,20.1,5.26,22.29s-16.47-5.41-22.79-13.72C1630.27,311.15,1626.89,300.23,1631.16,297.94Z"/><path class="cls-19" d="M1550.15,344.77c1.61-8.3-6.31-5.16-15.42,9.07-14.39,22.47-14.74,37.62-11,40,4.55,2.91,17.92-11.27,15.41-24.8C1538.05,363.08,1548.83,351.61,1550.15,344.77Z"/></svg>