<svg id="Layer_1" data-name="Layer 1" xmlns="http://www.w3.org/2000/svg" width="560" height="635" viewBox="0 0 560 635"><defs><style>.cls-1{fill:#754c24;}.cls-2{fill:#e8c6a7;}.cls-3{fill:none;}.cls-4{fill:#001300;}.cls-5{fill:#e73635;}.cls-6{fill:#fff;}.cls-7{fill:#1d1d1b;}.cls-8{fill:#b29983;}.cls-9{fill:#0071bb;}.cls-10{fill:#75a9dc;}.cls-11{fill:#212121;}</style></defs><path class="cls-1" d="M375.3,75.18c-2.62-16-7.92-28.34-18-41.27-13.06-16.8-29.2-23.19-49.76-29.06C297.5,2,280.63-.55,271.87,3.8c-31.25,15.52-54.71,40.08-60.69,73.5-3.13,17.5-4.06,28.94.5,45.63,1.65,6,3,10.51,8.61,15.11,16.67,13.8,27.76,31,50.12,37.7C294,182.8,316,179,337.54,168.09c9.23-4.69,16-7.82,21.13-16.42,8.56-14.33,13.48-31.17,15.59-47.39C375.58,94.14,376.88,84.84,375.3,75.18Z"/><path class="cls-2" d="M308.43,208.38c-16.27,11.17-38.78-4.7-56.88-8.74-11.2-2.5-23.72-13-24.35-23.68-1.79-30.29,18.05-79.16,25.26-110.36,2.53-10.95,9.7-16,21.15-14.27,18.49,2.88,43.55,7.9,61.61,12.37,11.19,2.76,16.23,9.28,13.86,21-6.76,33.44-13.22,72-22.71,104.63C323,200.82,318.5,201.46,308.43,208.38Z"/><ellipse class="cls-1" cx="249.85" cy="68.9" rx="37.52" ry="11.64" transform="translate(143.08 305.06) rotate(-81.09)"/><ellipse class="cls-1" cx="288.71" cy="50.77" rx="17.47" ry="29.11" transform="translate(193.83 328.13) rotate(-81.09)"/><ellipse class="cls-1" cx="340.71" cy="61.54" rx="20.05" ry="23.93" transform="translate(227.14 388.6) rotate(-81.09)"/><path class="cls-2" d="M256,198.46c-2.66,21.34-.2,20.63-5.26,43.75,9,2.39,18.21,4.24,27.38,5.85,3.57-19,4.83-25.4,9.36-44.07C277.05,200.47,266.91,199.26,256,198.46Z"/><path class="cls-3" d="M306.9,161.31s0,0,0,0H307l-.26-.32A2.49,2.49,0,0,1,306.9,161.31Z"/><path class="cls-3" d="M277.71,151.53a26.67,26.67,0,0,1,5.8.22A26.67,26.67,0,0,0,277.71,151.53Z"/><path class="cls-3" d="M304.49,158.34c.46.56.92,1.11,1.35,1.59l.07.09a.31.31,0,0,0-.07-.09Q305.18,159.12,304.49,158.34Z"/><path class="cls-3" d="M301.23,160a124,124,0,0,1-11.58-5.83A124,124,0,0,0,301.23,160Z"/><path class="cls-3" d="M272.24,151.94c-.73.05-1.45.08-2.14.08C270.79,152,271.51,152,272.24,151.94Z"/><path class="cls-3" d="M268.92,152l-.81-.06Z"/><path class="cls-3" d="M277.63,151.54c-.52,0-1,.06-1.53.1C276.6,151.6,277.11,151.56,277.63,151.54Z"/><path class="cls-3" d="M306.75,161.35l-.26,0Z"/><path class="cls-3" d="M262,145.51a.39.39,0,0,0,0,.15,10,10,0,0,0,.61,2.48,10,10,0,0,1-.61-2.48A.39.39,0,0,1,262,145.51Z"/><path class="cls-3" d="M275.57,151.68c-1.1.09-2.18.18-3.22.25C273.39,151.86,274.47,151.77,275.57,151.68Z"/><path class="cls-3" d="M287.18,170.28A21.47,21.47,0,0,0,274,167.5,21.54,21.54,0,0,1,287.18,170.28Z"/><path class="cls-3" d="M293.12,179c0,.07,0,.15,0,.22S293.11,179.11,293.12,179Z"/><path class="cls-3" d="M293.14,178.59c0,.06,0,.12,0,.18S293.14,178.65,293.14,178.59Z"/><path class="cls-4" d="M307,161.31h-.05s0,0-.15,0l-.26,0h-.1a16.33,16.33,0,0,1-5.16-1.32,124,124,0,0,1-11.58-5.83,27.51,27.51,0,0,0-4.6-2.1,13.17,13.17,0,0,0-1.54-.33,26.67,26.67,0,0,0-5.8-.22h-.08c-.52,0-1,.06-1.53.1l-.53,0c-1.1.09-2.18.18-3.22.25h-.11c-.73.05-1.45.08-2.14.08-.4,0-.79,0-1.18,0l-.81-.06c-2.53-.28-4.52-1.25-5.54-3.79a10,10,0,0,1-.61-2.48.39.39,0,0,1,0-.15c0-.1.11-.2.16-.3a.34.34,0,0,0,.05-.24,48.17,48.17,0,0,0-11.94,9.29c-7.34,8.12-16.7,22-2,26.58,6.16,1.94,11.63-2.53,17.06-4.58-1.55-3.36.29-5.74,3-7.17a13.73,13.73,0,0,1,3.19-1.18,20.85,20.85,0,0,1,2.53-.41,21.47,21.47,0,0,1,13.15,2.78,13,13,0,0,1,5.32,5.85,6.76,6.76,0,0,1,.64,2.46c0,.06,0,.12,0,.18l0,.27c0,.07,0,.15,0,.22a3.67,3.67,0,0,1-1.4,2.07,19.52,19.52,0,0,0-2,1.79C317.06,195.35,323.55,186.38,307,161.31Z"/><path class="cls-5" d="M293.12,179l0-.27c0-.06,0-.12,0-.18a6.81,6.81,0,0,0-.64-2.46,13.12,13.12,0,0,0-5.32-5.85A21.54,21.54,0,0,0,274,167.5a20.85,20.85,0,0,0-2.53.41,14.19,14.19,0,0,0-3.19,1.18c-2.71,1.44-4.54,3.84-3,7.11,5.28-2.38,9.47-3.67,14.45,0a86.32,86.32,0,0,0,9.94,6.89,20.61,20.61,0,0,1,2-1.78,3.67,3.67,0,0,0,1.4-2.07C293.11,179.19,293.11,179.11,293.12,179Z"/><path class="cls-5" d="M293.1,179.26a3.67,3.67,0,0,1-1.4,2.07A3.67,3.67,0,0,0,293.1,179.26Z"/><path class="cls-5" d="M274,167.5a20.85,20.85,0,0,0-2.53.41,13.73,13.73,0,0,0-3.19,1.18,14.19,14.19,0,0,1,3.19-1.18A20.85,20.85,0,0,1,274,167.5Z"/><path class="cls-5" d="M292.5,176.13a6.81,6.81,0,0,1,.64,2.46,6.76,6.76,0,0,0-.64-2.46,13,13,0,0,0-5.32-5.85A13.12,13.12,0,0,1,292.5,176.13Z"/><path class="cls-5" d="M293.15,178.77l0,.27Z"/><polygon class="cls-6" points="306.95 161.31 306.95 161.31 306.95 161.31 306.95 161.31"/><path class="cls-6" d="M262,145.66a10,10,0,0,0,.61,2.48c1,2.54,3,3.51,5.54,3.79l.81.06c.39,0,.78,0,1.18,0,.69,0,1.41,0,2.14-.08h.11c1-.07,2.12-.16,3.22-.25l.53,0c.5,0,1-.08,1.53-.1h.08a26.67,26.67,0,0,1,5.8.22,13.17,13.17,0,0,1,1.54.33,27.15,27.15,0,0,1,4.6,2.1A124,124,0,0,0,301.23,160a16.37,16.37,0,0,0,5.18,1.32h.08l.26,0a.24.24,0,0,0,.15,0s0,0,0,0a2.49,2.49,0,0,0-.21-.32c-.26-.33-.52-.66-.78-1l-.07-.09c-.43-.48-.89-1-1.35-1.59-.83-1-1.69-1.94-2.56-2.88l-.33-.29c-2.84-2.29-5.64-4.26-8.16-6.65-4.52-4.28-10.95-5.54-16.8-6.8A32.71,32.71,0,0,0,262.2,145a.42.42,0,0,1-.06.25c-.05.1-.12.2-.16.3A.39.39,0,0,0,262,145.66Z"/><path class="cls-6" d="M276.1,151.64l-.53,0Z"/><path class="cls-6" d="M277.71,151.53h0Z"/><path class="cls-6" d="M306.9,161.32a.24.24,0,0,1-.15,0C306.85,161.36,306.91,161.35,306.9,161.32Z"/><path class="cls-6" d="M283.51,151.75a13.17,13.17,0,0,1,1.54.33,27.51,27.51,0,0,1,4.6,2.1,27.15,27.15,0,0,0-4.6-2.1A13.17,13.17,0,0,0,283.51,151.75Z"/><path class="cls-6" d="M301.23,160a16.33,16.33,0,0,0,5.16,1.32h0A16.37,16.37,0,0,1,301.23,160Z"/><path class="cls-6" d="M262,145.51c0-.1.11-.2.16-.3C262.09,145.31,262,145.41,262,145.51Z"/><path class="cls-6" d="M262.57,148.14c1,2.54,3,3.51,5.54,3.79C265.59,151.65,263.59,150.68,262.57,148.14Z"/><path class="cls-6" d="M270.1,152c-.4,0-.79,0-1.18,0C269.31,152,269.7,152,270.1,152Z"/><path class="cls-6" d="M272.35,151.93h0Z"/><path class="cls-6" d="M305.91,160c.26.31.52.64.78,1A10.67,10.67,0,0,0,305.91,160Z"/><path class="cls-6" d="M301.93,155.46c.87.94,1.73,1.9,2.56,2.88A27.58,27.58,0,0,0,301.93,155.46Z"/><path class="cls-6" d="M284.93,95.91c.27,7-3.69,16.28-11.76,16s-11.34-9.44-11.61-16.34,2.55-15.92,10.56-15.83S284.66,88.85,284.93,95.91Z"/><path class="cls-6" d="M323.27,105.61c-2,5.79-10.74,13.26-17.69,9.59s-6.74-11.45-4.92-17,8.12-11.58,15.93-9S325.29,99.82,323.27,105.61Z"/><path class="cls-7" d="M281.05,102.77c.14,3.22-1.74,7.43-5.58,7.3s-5.41-4.29-5.54-7.43,1.19-7.26,5-7.23S280.91,99.56,281.05,102.77Z"/><path class="cls-7" d="M313.1,109.47c-1.27,2.91-4.68,6.07-7.89,4.77s-2.76-5.5-1.52-8.34,4.15-6.1,7.38-4.89S314.37,106.56,313.1,109.47Z"/><path class="cls-2" d="M200,63.62c3.46,3.73,4.91,11.62,12.64,8.42s13-14.56,15.94-23.86,11.38-26.91,15.75-34S256.21,3.59,260.84,4.06s7.92,2.08,9.07,5.06,2.66,3.51,4.83,6.16,5.55,5.26,2.53,9.79-7.7,14.6-12.95,17.82-10.19,8.57-10.95,15-2.2,16.56-4.45,22.42-1.1,14.11-6.41,17.23-15.51,3.47-20.9,3.2-8.67-3-12.83-1.78a20.34,20.34,0,0,1-9.55,1C199.71,87.74,200.7,75.64,200,63.62Z"/><path class="cls-2" d="M394.71,137.44c-6.77-2.6-19,.62-21.17-9.23s5.79-22.08,5.46-32.35-1.74-21.92-6.11-30.51S359.78,50,353.16,46.28,343.71,41,338,42a27.55,27.55,0,0,0-14.11,6.91c-3.32,3.25-9.76,10.58-3.59,13.51s14.33.66,19.37,7.75,10.46,5.39,10.93,15.87-7.21,30.64-9.31,39.9-3,14.71,2.34,19.22,10.88,1.53,16.09,2.87,9.38.3,13.82,2.61,7.89,4.87,12.06,7.45l10.84,1.42c2-6.2,3.9-12.42,5.91-18.6C399.57,139.63,397.81,138.63,394.71,137.44Z"/><path d="M327.1,82.89a.67.67,0,0,1-.32-.15s-5.41-4.55-17.67-5.15a.65.65,0,1,1,.06-1.3c12.77.64,18.23,5.28,18.46,5.47a.65.65,0,0,1-.53,1.13Z"/><path d="M288.67,74.09a.61.61,0,0,1-.4-.23c-6.44-8-19.3-3-19.43-3a.66.66,0,0,1-.85-.36.65.65,0,0,1,.36-.84c.14-.06,13.88-5.43,20.93,3.36a.65.65,0,0,1-.1.91A.63.63,0,0,1,288.67,74.09Z"/><path d="M288.32,137.41a29.47,29.47,0,0,1-6.68-2.11c-4.27-1.79-5.12-4.88-6.1-8.45a.66.66,0,0,1,.46-.8.65.65,0,0,1,.79.46c1,3.51,1.66,6,5.35,7.59,4.07,1.71,8.72,3.34,12.39,1.06a9.65,9.65,0,0,0,4.05-6.06,7.53,7.53,0,0,0-.74-5.65,33.73,33.73,0,0,0-2.13-2.86,14.59,14.59,0,0,1-3.15-5.7c-1.5-4.69-.8-8.66,2.32-13.28a.64.64,0,1,1,1.07.72c-2.88,4.26-3.52,7.9-2.15,12.16a13.34,13.34,0,0,0,2.91,5.29,28.23,28.23,0,0,1,2.21,3,8.62,8.62,0,0,1,.92,6.63,11,11,0,0,1-4.63,6.88A9.75,9.75,0,0,1,288.32,137.41Z"/><path class="cls-8" d="M242.58,31.75l-.12,0a.65.65,0,0,1-.39-.83c1.55-4.29,1.58-4.37,2.45-5.25s2.25-2.27,6.82-9.55S255.88,8.84,256.6,9c.54.11.62.65.68,1s.14.81.41.93,1.3.24,4.29-1.65a.65.65,0,1,1,.69,1.09c-2.66,1.68-4.41,2.23-5.52,1.73a1.85,1.85,0,0,1-1-1.18c-.67,1-1.87,2.89-3.73,5.85-4.64,7.39-6.17,8.94-7,9.77-.67.67-.67.67-2.15,4.78A.67.67,0,0,1,242.58,31.75Z"/><path class="cls-8" d="M249.85,35.51a.69.69,0,0,1-.29-.13.65.65,0,0,1-.13-.9c.08-.1,7.45-9.89,9.8-15.64,2.56-6.23,7.65-6.17,7.86-6.16a.65.65,0,0,1,0,1.29c-.19,0-4.43,0-6.63,5.37-2.42,5.9-9.66,15.51-10,15.92A.68.68,0,0,1,249.85,35.51Z"/><path class="cls-8" d="M254.36,40.14a.5.5,0,0,1-.23-.09.63.63,0,0,1-.22-.88,49.45,49.45,0,0,1,5.07-6,39.74,39.74,0,0,0,4.3-6.21c2.22-3.66,4.52-7.44,8-9.52a.63.63,0,0,1,.88.22.64.64,0,0,1-.22.89c-3.18,1.91-5.39,5.56-7.53,9.08A40.87,40.87,0,0,1,259.93,34,52.91,52.91,0,0,0,255,39.84.64.64,0,0,1,254.36,40.14Z"/><path class="cls-9" d="M164,574.41c2.06-8.34,2.6-8.73,3.34-20.77,1.61-26.59,6.85-58.12,13.16-87.27-10.13-23.15-12.29-73.63-10.26-94h0c.1-1,.58-5.33.7-5.83.55-2.36,1.72-9.75,2.63-12.57,3.25-10.06,8.18-25,7.94-33.81-.29-11.25,9.4-4.92,11.47-13.75,1.36-5.82-1.77-8.83-5-13.42-1.67-2.37-3.55-4.22-4.51-7.53-2.85-9.69-3-18.23.57-28.36a77.41,77.41,0,0,1,15-24.88c-6.69-.19-10.5,1.24-13.08,7.6,2.59-6.36,6.39-7.79,13.08-7.6.86-1,1.89-1.87,2.78-2.78A1,1,0,0,0,202,229c-1.3-20.23-12.41-9.83-26.43-19.24-16.36-11-34-10.05-51.12-17.64S96,159,90.67,146,75.2,127.26,87.9,121s21.88-.73,38.78-3.54,44.11-.34,64.2.38,16-7.94,13.77-24.73-2.22-32.2-14-46.31c-37.59-.31-151-22.24-175.94,3.62s-3.84,29.65-2.63,59.85,11,66.35,25.79,93.76,37.82,54.63,60.55,74c18.72,16,61.76,78.82,61.76,78.82h0c-3.46,28.51-10.29,42.12-18.34,69.1-5.77,19.33-11.23,47.9-16.45,70.61-4.59,20-14,47.36-19.67,66.28s0,25.47,11.21,36.65c9.3,9.3,13.81,10,25,15.9,6.35,3.31,17.16,6.49,24.73,8.74C159.63,609.13,159.94,590.88,164,574.41Z"/><path class="cls-6" d="M287.19,466.54c1.1-43.71,13.82-101.91,22.13-140,4.56-20.93,7-32.76,9.31-44.5,0-1,0-2-.05-2.9-12.52-.24-30.71-11.26-34.52-24.14-3.76,3.92-9.59,5.38-15.84,4.36-5.61-.92-10.4-3.45-13.22-7.4-8.12,9.1-25.43,12.9-37.78,12,.24,2.51.43,5,.56,7.56,2.54,15.71,1.53,31.89-3.54,55.39-9.92,46-26.78,93.1-35.91,138.47-.07-.2-.14-.43-.22-.64-6.12,29.42-10.71,58.86-11.9,88.38-.53,13.37-1.07,14-3.07,20.11-4,12.11-2.19,44.09,3.36,50.25,1.29.32,2.6.62,3.91.91h.07c28.36,6.27,61.16,7,91.55,7.46a16.05,16.05,0,0,0,1.14-3.31C274.92,575.09,280.73,520.77,287.19,466.54Z"/><path class="cls-10" d="M348,296c1.77-3.78,1.74-7.52,1.49-11.59-7.3-6.11-11.79-12.66-12.68-22.25,0,0,0,0,0,0-2.74,11-4.93,18.17-16.79,21.1a2.88,2.88,0,0,1-2.27-.06c-.77,5,.32-3-.69,4.07-2.46,17-4.3,22.44-9.36,45.08-9.2,41.21-21.15,92.22-22.31,136.74,3.06-25.46,6.74-52.33,11-78.14-4.28,26-7.86,52.23-11,78.44-.09.71,0,1.44-.06,2.15,11.61-15,22.31-30.49,29.67-48.13s12.41-39.6,18.11-56.73-1.4-9.58-5.49-20.73-3.25-19.12.67-29S343.59,305.33,348,296Z"/><path class="cls-10" d="M220.17,277.62a61.43,61.43,0,0,0-1.89-7.95,33.33,33.33,0,0,1-6.76-1.44c-7.32-3.18-11.05-7.54-12.12-15.16-.79-5.63.37-10.57.62-16.08a27.84,27.84,0,0,1,1.74-7.13,14,14,0,0,0-1.79-.25c-7,7.16-13.47,15.55-17.11,24.65-4.18,10.45-3.82,19.51-1.37,29.83.84,3.51,3.15,5.64,4.74,8.13,3.08,4.83,6.72,8.49,5,14.16-2.59,8.6-11,4-11.81,15-.6,8.26-3.72,21.92-6.91,30.66-1.7,6.38-2.94,12.5-4.65,18.71-4.21,33.39-1.48,66.72,9.26,98.79,12.49-54.81,31-107.41,41.73-162.88C220.48,298.37,221.45,286.4,220.17,277.62Z"/><path class="cls-9" d="M545.66,177.13c-4.31-9.34-17.22-16.49-29.92-21.49-7.63-3.87-17.64-7.55-26.61-8.14-1.84-.42-2.9-.63-2.9-.63l-85.92-21.21-19.2,39.63a11.28,11.28,0,0,0-2.78,5.75,10.78,10.78,0,0,0,.05,3.54c-.24,1.94.84,4.24,3.58,7a26.78,26.78,0,0,0,11.79,7.25c20,7.7,51.31,5.16,66.17,11.81.41.18.78.38,1.16.58l.45.23c.14.07.29.14.42.22a14.11,14.11,0,0,1,4.15,3.45c1.93,2.46,3.74,4.8,5.47,7,.42,3.76-1.38,8-3.35,13.42-1.13,3.13-4.76,6.55-9.49,9.91-12.79,7-26.38,12.75-34.1,17.74l-1.41.58c-14.92-8.4-34.1-15.24-45.07-17-17-2.66-32.66,4.05-38.78,15.54-.37.7-.7,1.4-1,2.13a22,22,0,0,0-1.7,8.61l0,.07,0,0c0,8.39,4.67,16.41,12.24,22.23a21.21,21.21,0,0,1-1.67,11.3c-4.22,9.39-16.36,10.32-20.19,20.23s-4.71,17.82-.67,28.89,11.66,3.21,6,20.39-10.62,39.4-17.71,57-18.21,34.12-29.44,47.95c0-.7,0-1.42.05-2.14-6.35,53.59-12.05,107.26-23.71,160a15.11,15.11,0,0,1-1.13,3.27c14,.23,27.57.41,39.91,1,15.24.77,23-1.27,22.1-16.17-.87-14.16-3.23-25-4.73-39.68-3.2-31.31,7.08-61.09,9.39-90.85,1.69-21.71,9.32-61.47,10.7-75.58,1.78-18.22,8.22-45.6,12.86-70.63,3.66-1.51,6.68-5,12.73-5.21,27.1-1,62.23-11.15,82.61-20.79,17.14-8.1,34.07-13.2,43.21-19.66a22.87,22.87,0,0,0,4.09-2.63c6.72-2.58,23.11-19.92,32-31.93a212.82,212.82,0,0,0,13.4-21.08c4-4.91,7.69-9.63,10.77-13.71C564.56,205.46,555,197.44,545.66,177.13Z"/><path class="cls-4" d="M326.91,234.71c-13.27-4.64-31.18,2.7-42.11,12.36-4.31-5.49-8.86-8.8-15.68-9.84-5.48-.83-9.85.37-14.74,2.93-6.71-13.16-19.8-18.28-32-24.48-11.6-5.89-20.12,9.3-23.08,14.7h0c-3,5.41-2.44,8.78-2.25,11.77.42,6.74-.45,8,1.06,16,1,5,3.57,13.1,15.26,13,2.7,0,34.3-2.45,37.78-11.42,5.13,3.54,8.22,6.44,13.88,7.22,6.3.87,11-.7,16.31-4.24,8.93,13.77,36.07,24.3,36.36,23.61A8.18,8.18,0,0,0,320,286c9.52-2.11,18.46-15.8,18.6-24C338.83,249.59,339.14,239,326.91,234.71Zm-6.5,19.64h0c.19.33.39.64.6.94C320.8,255,320.6,254.68,320.41,254.35Z"/><path class="cls-11" d="M268,265.15a.65.65,0,0,0-.53-.75h0a.66.66,0,0,0-.74.54C249.53,367.5,224.23,488.84,224,490.12l-14.77,139a.67.67,0,0,0,.54.71h0a.65.65,0,0,0,.71-.57l14.76-139C225.49,489.11,250.81,367.74,268,265.15Z"/><path class="cls-8" d="M362.24,66.22a.59.59,0,0,1-.41-.24l-7.62-9.91c-4.11-5.34-11.62-5.39-11.69-5.39a.65.65,0,0,1,0-1.3c.34,0,8.23.06,12.73,5.9l7.61,9.91a.64.64,0,0,1-.12.91A.62.62,0,0,1,362.24,66.22Z"/><path class="cls-8" d="M355.35,68.42a.64.64,0,0,1-.54-.74c-.41-1.41-11.15-11.64-19.48-14.19a.65.65,0,0,1,.38-1.24c8.28,2.54,20.69,13.59,20.38,15.63A.66.66,0,0,1,355.35,68.42Z"/><path class="cls-8" d="M347.82,70.51a.59.59,0,0,1-.4-.23C339.25,60.45,330.8,58,330.71,58a.64.64,0,1,1,.35-1.24c.36.09,8.91,2.53,17.35,12.7a.64.64,0,0,1-.59,1.05Z"/></svg>