<svg id="Layer_1" data-name="Layer 1" xmlns="http://www.w3.org/2000/svg" width="895" height="405" viewBox="0 0 895 405"><defs><style>.cls-1{fill:#92278e;}.cls-2{fill:#ff0;}</style></defs><path class="cls-1" d="M3.24,141.09c-3.35,13-1.21,16.84,3,33.09s21.54,57.9,26.49,72.9S36.28,266.74,45,272.61s12.56,1.53,21.31-.52,5.41-24.49,1.59-31.71-10.6-23.77-11.26-30.9-3.23-8.51,3.77-7.59S70.82,210,72,219.64s4.22,34,14.83,40.14,42.72.57,39-13.5-14.1-39.64-16.24-57.09-9.38-42.53-17.08-55.66S76.32,122.44,67.09,120,54.34,117,48,121.07s-3.92,9.23-2,16.12,10.81,24.1,12.57,29.33,4,10.6-.44,9.13-3.54-6.22-7.46-12.43-5.8-23.2-14-30S6.59,128.09,3.24,141.09Z"/><path class="cls-2" d="M53.18,277.06c-2.65,0-5.53-.82-9-3.2-6.81-4.6-7.9-8.75-9.9-16.27-.75-2.83-1.6-6-2.92-10-1.91-5.79-5.76-15.79-9.84-26.38C14.87,204,7.39,184.59,4.79,174.56c-.58-2.25-1.12-4.25-1.62-6.08C.08,157-1.2,152.3,1.79,140.72c1.37-5.32,5.67-9.4,12.13-11.48,8.32-2.69,18.51-1.47,23.69,2.84,5.54,4.6,8.22,13.13,10.58,20.65,1.23,3.91,2.38,7.59,3.7,9.69a32.21,32.21,0,0,1,3.17,6.91c1,2.95,1.58,4.28,3.48,4.9a3.65,3.65,0,0,0,.65.16c.08-1.08-.95-4.07-1.58-5.91L57.1,167c-.71-2.1-2.72-6.44-4.85-11-3.1-6.68-6.61-14.25-7.74-18.38-.21-.76-.43-1.49-.63-2.2-1.7-5.83-3.31-11.33,3.29-15.58,6.78-4.38,10.74-3.87,20.31-1.3a59,59,0,0,0,6,1.18c6.92,1.12,14.08,2.27,20.42,13.08,8.2,14,15.22,39.57,17.28,56.24,1.39,11.37,6.31,26.17,10.66,39.22,2.19,6.6,4.26,12.83,5.54,17.66,1.12,4.26-.47,8.18-4.6,11.33-8.71,6.66-28.21,8.71-36.61,3.86-11.22-6.48-14.26-30.77-15.56-41.15v-.1c-1.28-10.18-4.77-15.72-10.37-16.45a15.79,15.79,0,0,0-3.07-.23c0,.41.18,1.1.29,1.68a38.58,38.58,0,0,1,.7,4.51c.61,6.58,7.05,22.69,11.09,30.34,3.35,6.33,5.93,21.77,2.5,29.32a7.44,7.44,0,0,1-5.07,4.55A54.07,54.07,0,0,0,61,275.29,23.42,23.42,0,0,1,53.18,277.06ZM23.25,130.82a27.65,27.65,0,0,0-8.41,1.27c-3.15,1-8.66,3.59-10.15,9.37-2.78,10.82-1.65,15,1.38,26.24.5,1.83,1,3.85,1.63,6.11,2.55,9.86,10,29.21,16.57,46.28,4.09,10.63,8,20.66,9.89,26.52,1.35,4.09,2.25,7.49,3,10.21,2,7.49,2.81,10.58,8.68,14.55s9,2.89,14.15,1.09a57.55,57.55,0,0,1,6-1.83,4.55,4.55,0,0,0,3-2.88c2.93-6.44.6-21-2.42-26.67-3.5-6.63-10.71-23.74-11.42-31.46a38.33,38.33,0,0,0-.66-4.2c-.39-1.93-.67-3.32.33-4.38s2.58-1.06,5.78-.64c8.88,1.17,11.95,11,12.95,19.06l0,.1c1.13,9.08,4.15,33.19,14.08,38.92,6.8,3.93,24.83,2.82,33.29-3.64,3.13-2.39,4.32-5.15,3.52-8.18-1.25-4.74-3.31-10.93-5.49-17.48-4.39-13.19-9.36-28.14-10.79-39.8-2-16.37-8.88-41.45-16.89-55.1-5.62-9.58-11.5-10.53-18.31-11.63a61,61,0,0,1-6.25-1.24c-9.43-2.54-12.21-2.76-17.91.92-4.51,2.91-3.84,6-2,12.22.21.72.43,1.47.64,2.24,1.07,3.9,4.53,11.35,7.57,17.92,2.26,4.87,4.21,9.07,5,11.34.17.48.34,1,.5,1.45,1.44,4.16,2.57,7.45.92,9.12-.84.85-2.1,1-3.75.46-3.39-1.11-4.31-3.72-5.38-6.75A29.29,29.29,0,0,0,49.35,164c-1.52-2.43-2.68-6.12-4-10.39-2.24-7.13-4.78-15.2-9.63-19.24C32.91,132.07,28.19,130.82,23.25,130.82Zm36.16,43.57Z"/><path class="cls-1" d="M190.67,97.72c-10.06-5.87-29.32-7-39.78-5.17s-13.79-.4-8.44,12.22,20.5,39,24.93,53.16,16.1,35.6,13.74,46.13-12,6.21-14.1.75,1.42-18.5-6-22.87-25.05-10.26-31.91-3.23-3.43,12.23-.66,22.12,4.18,33.75,19.45,36.58,41,7.77,54.88.29,18.86-8.63,18.66-27.11-9.82-58.81-15.22-75.75S201,107.64,190.67,97.72Z"/><path class="cls-2" d="M182.42,243.13c-11.92,0-24.85-2.4-34-4.11l-.71-.13c-13.41-2.49-16.86-19.63-19.14-31-.53-2.62-1-4.88-1.49-6.68-.45-1.61-.91-3.08-1.36-4.51-2.3-7.29-4-12.55,2.4-19.07,3.37-3.45,9.29-4.52,17.1-3.08a54.76,54.76,0,0,1,16.65,6.07c5.57,3.29,5.73,10.61,5.86,16.49.06,2.83.12,5.5.74,7.13,1,2.7,4.23,4.92,6.82,4.72s3.9-3,4.42-5.26c1.52-6.8-3.58-19.38-8.09-30.48-2.18-5.35-4.23-10.41-5.62-14.88-2.7-8.64-9.52-22-15.54-33.84-3.74-7.35-7.28-14.29-9.35-19.17-2.36-5.57-3.33-8.79-2.1-10.93,1.13-2,3.52-2.26,7.14-2.71,1.33-.16,2.84-.35,4.53-.64,10.22-1.78,30.08-.91,40.79,5.34l.29.22c7.87,7.58,9.94,15.54,12.56,25.63.93,3.59,2,7.66,3.41,12.12,5.22,16.36,15.07,57,15.29,76.18.2,18.06-4.71,20.66-16.57,26.93L203.52,239C197.86,242.06,190.36,243.13,182.42,243.13ZM138.84,177c-3.57,0-6.68.78-8.63,2.78-5.1,5.23-3.88,9.08-1.68,16.07.46,1.45.93,2.94,1.39,4.6.54,1.91,1,4.22,1.54,6.9,2.25,11.18,5.33,26.49,16.75,28.61l.71.13c14.94,2.78,39.94,7.42,53.18.31l2.9-1.54c11.64-6.15,15.15-8,15-24.24-.21-18.65-10.12-59.53-15.15-75.3-1.45-4.54-2.52-8.65-3.46-12.28-2.58-9.94-4.45-17.14-11.6-24.1-10-5.73-29.15-6.54-38.61-4.89-1.77.31-3.32.5-4.68.67-2.43.3-4.52.56-4.91,1.23-.71,1.23,1.45,6.34,2.27,8.26,2,4.78,5.54,11.68,9.26,19,6.07,11.91,12.95,25.42,15.72,34.31,1.36,4.35,3.39,9.35,5.54,14.64,4.9,12.07,10,24.55,8.24,32.26-1.41,6.26-5.07,7.45-7.13,7.6-3.89.29-8.32-2.69-9.84-6.63-.81-2.12-.87-5-.94-8.14-.12-5.41-.25-11.53-4.39-14C155.19,180.22,146.08,177,138.84,177Z"/><path class="cls-1" d="M399.67,159.81c12.31,23.26,58.79,5.59,73.42-1.91s9.25-10.75,7.69-19.9-.12-12.56-9.83-18.17-45.33,22.46-48.66,2.12-2.51-44.64-8-65.93-46.09-38.93-47.89-11S387.35,136.55,399.67,159.81Z"/><path class="cls-2" d="M424.05,173c-11.1,0-20.83-3.24-25.71-12.45h0c-6.57-12.41-15.42-34.89-22-55.91-4.72-15.06-12.48-42.84-11.39-59.7.6-9.36,5.46-14.94,13.69-15.71,13.06-1.23,33.17,11,37.14,26.46,3.28,12.77,4.31,26.58,5.32,39.92.69,9.23,1.34,17.94,2.68,26.14.43,2.63,1.45,4.37,3.1,5.32,4.78,2.73,14.66-1.1,23.37-4.49,9.11-3.53,17-6.59,21.46-4,8.68,5,9.16,8.77,10,15,.16,1.24.34,2.65.6,4.19a41.33,41.33,0,0,0,1.21,4.85c1.92,6.48,2.42,10.44-9.69,16.64C463.49,164.51,442,173,424.05,173ZM401,159.11c11.57,21.85,56.57,5.06,71.42-2.54,10.48-5.37,9.76-7.79,8.18-13.11a45.39,45.39,0,0,1-1.29-5.2c-.27-1.61-.46-3-.62-4.33-.77-6-1.09-8.53-8.48-12.8-3.23-1.86-11.18,1.23-18.87,4.21-9.8,3.8-19.93,7.73-25.94,4.29-2.46-1.4-4-3.91-4.58-7.44-1.36-8.32-2-17.1-2.72-26.39-1-13.22-2-26.89-5.23-39.41-3.53-13.78-22.13-25.33-33.95-24.21-6.68.62-10.48,5.09-11,12.91-1.74,27,20.41,90.12,33.06,114Z"/><path class="cls-1" d="M192.08,280.62c-24.34,10.05-37.74,28.31-39.1,53.66s22.43,54.36,41.69,62.51,44.4,7.15,56.93-1.83,16.26-18,17.27-31.27,3.07-25.66-10.52-34.47S211.2,331.38,210,343.44s16.51,12.64,15.27,15.6-.17,14.75-15.19,3-17.74-39.66,7.13-44.34,27.85-12.45,30-21.46,3.14-15.83-7.33-19.62S216.42,270.57,192.08,280.62Z"/><path class="cls-2" d="M223.14,403.86a76,76,0,0,1-29.06-5.69c-20.81-8.8-44-38.67-42.59-64,1.38-25.72,15.22-44.73,40-55h0c24.55-10.13,38-7.9,48.84-4,12.27,4.44,10.15,13.44,8.28,21.37-2.34,9.92-6.12,17.88-31.16,22.59-9,1.69-14.9,6.8-16.75,14.4-2.28,9.4,2,20.87,10.26,27.29,6.31,4.92,9,5,10,4.61,1.45-.54,1.91-2.88,2.28-4.75a18.11,18.11,0,0,1,.41-1.8,24.87,24.87,0,0,0-2.92-1.32c-4.93-2-13.2-5.34-12.28-14.36.48-4.77,5.08-9.47,12.94-13.25,11.41-5.47,28.51-8.06,37.74-2.08,13.41,8.7,12.44,20.58,11.41,33.16-.08.89-.15,1.79-.22,2.69-1,12.78-4.3,22.65-17.88,32.37C245.37,401.27,234.62,403.86,223.14,403.86ZM192.65,282h0c-24,9.9-36.84,27.52-38.17,52.35-1.27,23.73,21.26,52.8,40.77,61.05,18.42,7.79,43.31,7,55.48-1.67,12.69-9.08,15.71-17.94,16.64-30.16.07-.91.14-1.81.22-2.71,1-12.17,1.86-22.67-10-30.39-8-5.19-24-2.93-34.81,2.27C216,336,211.84,340,211.47,343.59c-.63,6.27,4.57,8.91,10.43,11.28,2.52,1,4.19,1.7,4.74,3a2.23,2.23,0,0,1,0,1.72,10.26,10.26,0,0,0-.42,1.72c-.46,2.34-1.15,5.87-4.17,7s-7.06-.5-12.91-5.06c-9.11-7.1-13.88-19.87-11.33-30.36,2.14-8.81,8.92-14.72,19.1-16.63,25.12-4.73,27-12.66,28.8-20.34,2.09-8.88,2.9-14.5-6.38-17.86C229,274.36,216.26,272.26,192.65,282Z"/><path class="cls-1" d="M430.32,300.44c10.12,19.31,17.05,12.31,29.19,4.46s-4.14-34.37-7.71-42.59,20.05,10.1,23.06,7.69,11.18-34,8.7-12.42,42.39,51.56,38.78,18.81.3-48.06-21.91-72.25-32.38,13.73-42,22.34-35.88-34.55-49.62-9.08S420.2,281.13,430.32,300.44Z"/><path class="cls-2" d="M443.57,314.38a9.74,9.74,0,0,1-2.43-.3c-4.23-1.09-8.09-5.2-12.15-12.94h0c-1.25-2.4-2.77-5.13-4.37-8-11.77-21.27-29.56-53.41-17.14-76.42,2.62-4.86,5.95-7.77,9.9-8.65,7.84-1.75,16.59,4.73,24.3,10.45,6.58,4.88,12.8,9.49,15.74,6.87,2.31-2.07,4.81-6.2,7.46-10.57,5.43-9,11.59-19.15,20.49-20,5.24-.52,10.52,2.22,16.17,8.38,18.19,19.81,19.22,34.07,20.79,55.64.37,5.17.8,11,1.51,17.45.81,7.45-.69,12.42-4.46,14.78-4.18,2.61-10.73,1.48-18-3.11-10.31-6.51-20.59-19.41-19.32-30.49,0-.23.06-.46.08-.68-.35.94-.7,1.88-1,2.74-2.62,7.15-4,10.64-5.34,11.71-1.94,1.55-5.52-.19-13.83-4.86a72.78,72.78,0,0,0-8.73-4.46c.54,1.24,1.39,2.93,2.36,4.86,5.62,11.22,16.1,32.09,4.73,39.44-1,.66-2,1.32-2.95,2C452.19,311.55,447.92,314.38,443.57,314.38ZM420.08,210.75A9.33,9.33,0,0,0,418,211c-3.1.69-5.69,3-7.91,7.14-11.64,21.57,5.67,52.85,17.13,73.55,1.61,2.91,3.13,5.66,4.4,8.08h0c3.64,6.94,6.89,10.57,10.23,11.43,3.94,1,8.31-1.89,13.83-5.57,1-.64,2-1.3,3-2,9.11-5.9-.58-25.21-5.78-35.58-1-2.05-1.92-3.83-2.5-5.15-.71-1.65-.64-2.88.22-3.66,1.73-1.55,4.71-.1,12.8,4.45,3.38,1.9,8.95,5,10.54,5h0c.94-1.12,3-6.84,4.3-10.3,3.1-8.47,3.82-10.26,5.72-9.8,1.65.39,1.83,2,1,9.12-1.13,9.85,8.4,21.58,17.94,27.61,6.15,3.88,11.68,5,14.8,3.1,2.68-1.68,3.74-5.8,3.06-11.91-.71-6.47-1.14-12.36-1.51-17.56-1.58-21.69-2.53-34.79-20-53.84-4.9-5.33-9.49-7.84-13.66-7.41-7.41.73-13.16,10.22-18.22,18.6-2.77,4.57-5.38,8.89-8,11.25-4.76,4.26-11.93-1.06-19.53-6.69C433.44,216.11,426.2,210.75,420.08,210.75Zm54.06,58Z"/><path class="cls-1" d="M554.64,251.32c10.12,19.32,17.05,12.31,29.2,4.46s-4.15-34.36-7.72-42.59,20.06,10.1,23.06,7.69,11.19-34,8.71-12.42,42.38,51.56,38.78,18.81S647,179.21,624.76,155s-32.38,13.73-42,22.34-35.88-34.54-49.62-9.07S544.52,232,554.64,251.32Z"/><path class="cls-2" d="M567.9,265.27a9.64,9.64,0,0,1-2.43-.31c-4.24-1.08-8.1-5.19-12.16-12.94h0c-1.25-2.4-2.76-5.13-4.37-8-11.77-21.27-29.55-53.41-17.14-76.42,2.62-4.85,6-7.76,9.9-8.64,7.86-1.76,16.59,4.73,24.3,10.44,6.59,4.88,12.8,9.49,15.74,6.87,2.32-2.06,4.82-6.2,7.46-10.57,5.43-9,11.59-19.15,20.49-20,5.25-.54,10.52,2.21,16.17,8.37,18.19,19.81,19.22,34.07,20.79,55.64.38,5.18.8,11,1.51,17.46.82,7.44-.68,12.41-4.46,14.77-4.17,2.61-10.73,1.48-18-3.1-10.32-6.52-20.6-19.42-19.32-30.49,0-.24.05-.46.07-.68-.35.93-.69,1.88-1,2.74-2.62,7.15-4,10.63-5.34,11.71-1.94,1.55-5.52-.2-13.83-4.86a71.31,71.31,0,0,0-8.73-4.46c.55,1.24,1.39,2.92,2.36,4.86,5.63,11.21,16.1,32.09,4.73,39.44-1,.66-2,1.31-2.95,1.94C576.51,262.43,572.24,265.27,567.9,265.27ZM556,250.63c3.64,6.94,6.89,10.57,10.24,11.43,3.92,1,8.3-1.9,13.83-5.58l3-2c9.11-5.89-.57-25.2-5.78-35.58-1-2.05-1.92-3.82-2.49-5.15-.72-1.65-.64-2.87.22-3.65,1.72-1.56,4.71-.11,12.79,4.44,3.38,1.9,9,5,10.55,5h0c.94-1.12,3-6.84,4.3-10.3,3.11-8.46,3.82-10.24,5.73-9.79,1.64.39,1.82,2,1,9.11-1.14,9.86,8.39,21.58,17.94,27.61,6.15,3.89,11.68,5,14.79,3.1,2.68-1.67,3.74-5.79,3.07-11.91-.71-6.47-1.14-12.36-1.52-17.56-1.58-21.69-2.53-34.79-20-53.83-4.9-5.34-9.48-7.85-13.66-7.42-7.41.74-13.15,10.23-18.22,18.6-2.77,4.58-5.38,8.89-8,11.26-4.76,4.25-11.93-1.07-19.52-6.7-7.2-5.33-15.35-11.37-21.87-9.92-3.1.69-5.69,3-7.91,7.14-11.63,21.56,5.67,52.84,17.13,73.54,1.61,2.91,3.13,5.66,4.4,8.09Z"/><path class="cls-1" d="M665.09,109.09c1.56,25.57,6.53,65.88,16.52,86.55s25.94,13.07,39.11,11.28,19.16-7.12,28.29-13,8.68-23-1-27.83-20.29,7.13-32,7.68,0-9,5.08-10.8c7.42-3.81,13.14-4.94,17.91-12.39s-4-15.66-10.91-17.8-19.52,7-24.34,2.53-5.93-6-.41-12.72,18.78-2,27.49-8.32,2.65-20.07-1.06-25.89-6.37-8.68-25.59-3.62S664.7,81.1,665.09,109.09Z"/><path class="cls-2" d="M701.7,211.27c-8,0-15.66-3-21.44-15-9.58-19.81-14.89-58-16.67-87.11v-.07c-.3-22,12.12-22.84,25.28-23.78a80.44,80.44,0,0,0,14.87-2c20-5.27,23.25-2,27.24,4.27,4.59,7.19,9.89,21.17.67,27.9-4.57,3.33-10.25,3.83-15.27,4.27s-9.5.83-11.94,3.8c-4.69,5.7-4.28,6.46.27,10.66,2,1.8,6.56.34,11-1.08s9.11-2.9,12.75-1.78c4.8,1.48,10.69,5.78,12.65,11.14a9.77,9.77,0,0,1-.93,8.9c-4,6.18-8.55,8.28-13.87,10.72-1.48.67-3,1.37-4.61,2.2l-.19.08c-3.79,1.34-9.3,6.12-9.13,7.49,0,0,.48.42,2.62.42l.86,0c4.65-.22,9.24-2.42,13.68-4.54,6.29-3,12.8-6.11,19.07-3,4.9,2.43,8,7.79,8.41,14.33.38,6.83-2.38,13-7.22,16.11-1.43.92-2.78,1.83-4.1,2.71-7.17,4.81-13.37,9-24.8,10.52-2.1.28-4.24.71-6.51,1.17A66.18,66.18,0,0,1,701.7,211.27ZM666.59,109c1.76,28.84,7,66.55,16.37,85.95,7.86,16.26,19,14,30.86,11.66,2.22-.45,4.51-.91,6.69-1.2,10.75-1.46,16.39-5.25,23.54-10,1.33-.89,2.7-1.81,4.15-2.75,3.93-2.52,6.16-7.66,5.84-13.41-.3-5.45-2.82-9.87-6.74-11.81-5-2.46-10.29.08-16.45,3-4.71,2.25-9.58,4.57-14.83,4.82-1.47.07-5.95.28-6.56-2.81-.82-4.16,7.81-9.69,11-10.86,1.64-.84,3.17-1.54,4.65-2.22,5.09-2.33,9.12-4.17,12.59-9.61a6.75,6.75,0,0,0,.64-6.25c-1.61-4.39-6.72-8.07-10.72-9.3-2.74-.85-6.91.48-11,1.77-5.27,1.68-10.72,3.41-14,.42-5.34-4.93-6.67-7.32-.55-14.77,3.24-3.93,8.46-4.39,14-4.88,4.85-.42,9.87-.86,13.76-3.7,9.3-6.79-1-23.18-1.43-23.87-3.27-5.13-5.07-8-23.94-3a83,83,0,0,1-15.43,2.11C675.88,89.26,666.34,90,666.59,109Z"/><path class="cls-1" d="M802.29,167.12c9,12.31,28.66,4.28,33.74-7.17s-16.13-30.66-9.43-36.47,14.93,19.91,19.86,24.61,8.8,14.78,19.07,11.26,25.69-6.78,27.63-21.23-7.85-28.5-14.8-40.78-9.64-28.59-19.43-38.9C852.29,49.86,842.71,22.17,829.6,41s9,42.42,9.3,61.87c-7.69-13.19-27.44-33.43-38.67-40s-24.36-10.79-30.79.42S793.3,154.82,802.29,167.12Z"/><path class="cls-2" d="M814.77,174.8A16.42,16.42,0,0,1,801.08,168c-4.58-6.27-14.43-29.44-22.42-52.75-13.27-38.73-12.29-49.68-10.52-52.76a14.43,14.43,0,0,1,9-7.19c6.1-1.61,14.13.48,23.87,6.22,10.21,6,26.52,22.32,35.65,35.14-1.13-5.26-3.37-10.79-5.71-16.55-5.5-13.56-11.18-27.59-2.56-40,3.42-4.91,6.84-7.21,10.56-7.06,6.93.29,12.13,9.32,16.72,17.28a72.21,72.21,0,0,0,4.42,7.1C866.29,64,869.71,72.93,873,81.52a115,115,0,0,0,6.64,15.08c.91,1.6,1.86,3.22,2.82,4.87,6.53,11.14,13.92,23.76,12.16,36.85-1.85,13.79-15.28,18.12-25.08,21.28-1.23.39-2.42.78-3.55,1.16-8.84,3-13.53-2.95-17.3-7.76a37.91,37.91,0,0,0-3.28-3.83c-1.85-1.76-3.89-5.74-6.25-10.35-3-5.94-7.21-14.07-10.24-14.66a1.47,1.47,0,0,0-1.35.45c-2.32,2,.76,7.61,4,13.53,4.08,7.41,8.71,15.81,5.78,22.41-3.22,7.26-11.78,13.2-20.35,14.12A19.86,19.86,0,0,1,814.77,174.8Zm-33.35-117a13.85,13.85,0,0,0-3.54.43A11.39,11.39,0,0,0,770.74,64c-2.5,4.35,1.62,23.63,10.76,50.29,7.77,22.68,17.65,46,22,52h0c3.85,5.26,9.32,5.87,13.21,5.45,7.46-.8,15.17-6.11,17.94-12.35,2.33-5.25-1.92-13-5.67-19.75-3.87-7-7.52-13.65-3.37-17.24a4.51,4.51,0,0,1,3.89-1.14c4.46.87,8.47,8.68,12.34,16.24,2,4,4.16,8.14,5.65,9.55a39.48,39.48,0,0,1,3.57,4.15c3.67,4.69,7.15,9.12,14,6.78,1.14-.4,2.35-.79,3.6-1.19,10-3.23,21.43-6.9,23-18.82s-5.5-24.21-11.78-34.93c-1-1.66-1.93-3.3-2.84-4.91a117.11,117.11,0,0,1-6.83-15.48c-3.21-8.35-6.53-17-12.38-23.13l-.1-.12a71.67,71.67,0,0,1-4.69-7.49c-4-6.93-9-15.56-14.25-15.79-2.56-.12-5.22,1.84-8,5.78-7.69,11.06-2.32,24.32,2.88,37.15,3.24,8,6.59,16.23,6.69,23.85l.08,5.71-2.88-4.93c-7.35-12.61-27-32.92-38.13-39.51C792.31,59.9,786.26,57.78,781.42,57.78Z"/><path class="cls-1" d="M562.25,57.63c4.27-29.77-20.42-55.82-49.9-55S495.2,4.33,476.1,9s17.24,95.73,25.66,114,8.44,11,23.92,9.39S532,93,527,83.33C537.72,65.8,558,87.39,562.25,57.63Zm-47.61,1.75C508.5,60.91,508.5,48.63,508.5,44s10.74-6.14,10.74-6.14,7.68,0,9.21,3.07,3.07,7.67,3.07,10.74S520.78,57.84,514.64,59.38Z"/><path class="cls-2" d="M511.52,136.68c-4.16,0-6.51-3-11.12-13-6.35-13.77-38.75-92.89-29.63-111.81a7.39,7.39,0,0,1,5-4.29A73.24,73.24,0,0,0,487.07,4c4.2-1.7,5.61-2.28,25.23-2.85a50.63,50.63,0,0,1,39.29,17.08,49,49,0,0,1,12.14,39.6h0c-2.61,18.15-11.19,18.52-19.5,18.88-5.82.25-11.33.49-15.48,6.71,3.84,8.26,10.68,34,4.63,45.22a9.39,9.39,0,0,1-7.54,5.27,54.87,54.87,0,0,0-9.12,1.83A20.83,20.83,0,0,1,511.52,136.68ZM513.76,4.14l-1.37,0c-19.08.56-20.37,1.08-24.2,2.63a75.33,75.33,0,0,1-11.73,3.69,4.48,4.48,0,0,0-3,2.67c-7.93,16.45,21.13,90.77,29.65,109.26,5.7,12.38,6.65,12.12,12.81,10.45a57,57,0,0,1,9.59-1.92,6.48,6.48,0,0,0,5.22-3.71c5.28-9.8-1.06-35.45-5-43.21l-.39-.75.44-.72c5-8.25,12.1-8.56,18.35-8.83,8-.35,14.41-.63,16.66-16.31h0a46,46,0,0,0-11.4-37.17A47.69,47.69,0,0,0,513.76,4.14ZM513.63,61a4.63,4.63,0,0,1-2.88-1c-3.31-2.58-3.75-9.53-3.75-16,0-5.62,10-7.34,12-7.63h.21c1.44,0,8.7.19,10.55,3.9,1.56,3.11,3.23,8,3.23,11.41,0,2.16-2,5.14-18,9.13h0A5.49,5.49,0,0,1,513.63,61Zm5.72-21.62C515.54,40,510,41.8,510,44c0,2.87,0,11.6,2.59,13.62a1.77,1.77,0,0,0,1.68.27c15-3.75,15.75-6.22,15.75-6.24,0-2.77-1.46-7.16-2.91-10C526.36,40.13,522.08,39.41,519.35,39.39Z"/><path class="cls-1" d="M379.32,168.84c-7.27-6.07-26.92-.49-31.45-6.41s-3.13-8.3.85-11,15.39-.2,16.48-6.83,0-21.43-7.53-25.17-22.35,2.15-28.57-1.88-13.44-11.86-12.37-18.26,20.7-3.76,25.42-6.31,8.06-6.15,6-12.47-.91-15.11-10.82-17.92S311.82,61,300.14,63.79s-32.7,2.36-42.87,4.8S246.8,70.53,238.85,77s-9.23,12.64-6.09,30S247,190.8,253.62,204.33s5.52,11.08,12.59,12.53,23.63-9.25,25.5-15.5-8.31-26.15.44-32.5,13.91,6.21,17,15.17,4.74,16.86,17.12,13.54,36.7-.9,47.75-6.25S386.59,174.91,379.32,168.84Zm-87.47-22c-4.58,1.76-9.38-5.48-10.82-9.1s-2.59-11.66,1.92-13.36,9.24,5,10.71,8.61S296.43,145.06,291.85,146.82Z"/><path class="cls-2" d="M267.61,218.49a9.17,9.17,0,0,1-1.7-.16c-1.05-.22-1.9-.34-2.66-.45-5-.74-5.37-1.42-11-12.9-5.9-12.08-15.1-64.37-19.52-89.5-.6-3.35-1.09-6.17-1.47-8.26-3.23-17.88-1.81-24.64,6.63-31.44,7.33-5.92,8.64-6.22,16-7.93l3.06-.72c5-1.2,12.4-1.7,20.21-2.23,8.22-.55,16.72-1.13,22.66-2.57,11.33-2.75,27.46-4.19,38-1.2,8.52,2.42,9.79,9.07,10.8,14.42a39.51,39.51,0,0,0,1,4.48c2,6.09-.23,10.75-6.73,14.25-2.06,1.11-5.94,1.34-10.43,1.61-5.47.32-13.74.81-14.22,3.63-.9,5.36,5.36,12.63,11.71,16.75,2.7,1.75,7.93,1.27,13,.8,5.56-.51,11.31-1,15.43,1,8.33,4.13,9.54,19.46,8.34,26.75-.87,5.29-6.59,6-11.19,6.48-2.33.26-4.75.54-5.92,1.34-2,1.35-2.83,2.32-3,3.35-.21,1.28.6,3.09,2.48,5.53s7.72,2.46,13.44,2.56c6.74.11,13.72.22,17.78,3.61h0a13.28,13.28,0,0,1,4.91,11.94c-.66,5.38-4.48,10.14-10.49,13-6.58,3.19-17.37,3.72-27.8,4.23-7.75.38-15.06.74-20.21,2.12-12.84,3.44-15.6-4.7-18.27-12.57-.21-.63-.43-1.28-.66-1.93-1.48-4.24-4.94-14.18-9.77-15.69-1.53-.48-3.15-.07-5,1.24-4.79,3.48-2.74,12.7-1.09,20.11,1.07,4.81,2,9,1.2,11.61C291.24,208.15,276.14,218.49,267.61,218.49Zm55.85-156a102,102,0,0,0-23,2.8c-6.19,1.5-14.82,2.08-23.17,2.64-7.68.52-14.94,1-19.71,2.16l-3.08.72c-7.2,1.68-7.95,1.86-14.75,7.34-7.43,6-8.57,11.88-5.56,28.57.38,2.1.88,4.92,1.47,8.29,4.06,23,13.55,77,19.27,88.7,5.24,10.73,5.24,10.73,8.71,11.24.76.11,1.7.25,2.83.48,6.5,1.33,22.13-9,23.76-14.46.56-1.89-.32-5.88-1.26-10.1-1.84-8.27-4.12-18.55,2.25-23.19,2.6-1.88,5.16-2.44,7.62-1.67,5.53,1.73,9,9.85,11.71,17.57.23.65.45,1.31.67,2,2.73,8,4.53,13.35,14.65,10.63,5.46-1.46,12.93-1.83,20.84-2.21,10.13-.5,20.61-1,26.65-3.94,5.06-2.45,8.28-6.35,8.81-10.71a10.32,10.32,0,0,0-3.85-9.27h0c-3.25-2.7-9.69-2.81-15.91-2.91-6.73-.11-13.08-.22-15.77-3.73-2.47-3.22-3.42-5.64-3.06-7.83.38-2.4,2.27-4,4.25-5.35,1.79-1.22,4.46-1.53,7.28-1.85,4.87-.57,8.1-1.15,8.57-4,1.11-6.72-.19-20.35-6.72-23.58-3.35-1.67-8.67-1.18-13.82-.7-5.82.54-11.32,1-14.89-1.27-5.93-3.85-14.29-12.28-13-19.77.88-5.18,9.07-5.66,17-6.13,3.79-.22,7.71-.45,9.19-1.25,5.22-2.82,6.81-6,5.3-10.69a39.1,39.1,0,0,1-1.12-4.84c-1-5.24-1.94-10.18-8.68-12.1A51,51,0,0,0,323.46,62.45Zm-33.1,86.15c-5,0-9.26-6.62-10.72-10.33-1.12-2.81-2.19-8.35-.55-12.05a5.88,5.88,0,0,1,3.33-3.26c5.72-2.15,11.07,5.59,12.63,9.45,1.14,2.8,2.31,8.68.65,12.51a5.92,5.92,0,0,1-3.31,3.3h0A5.69,5.69,0,0,1,290.36,148.6Zm-5.95-23a2.47,2.47,0,0,0-.93.17,2.85,2.85,0,0,0-1.64,1.66c-1.19,2.69-.38,7.31.59,9.74,1.4,3.53,5.69,9.48,8.88,8.25h0a2.89,2.89,0,0,0,1.63-1.69c1.22-2.81.33-7.74-.67-10.19C291,130.5,287.47,125.6,284.41,125.6Z"/><path class="cls-1" d="M390.27,253.64c-6.73-25-17.93-27.72-42.28-20.23s-44.61,33.82-52,57.18,7,66.29,29.94,68.79,29.06-.75,47.75-16.4S397,278.63,390.27,253.64ZM357.2,318.77c-5.29,9.17-14.35,13.87-20.22,10.47s-6.34-13.57-1-22.75,14.35-13.87,20.22-10.48S362.5,309.59,357.2,318.77Z"/><path class="cls-2" d="M337.8,361.65a110.7,110.7,0,0,1-12.06-.78c-8-.87-15.43-6.29-21.54-15.67-10.41-16-14.56-39.64-9.66-55.06,7.32-23.05,27.88-50.43,53-58.17,14.87-4.57,23.68-4.92,30.42-1.2,6.25,3.45,10.49,10.38,13.75,22.48,6.62,24.57,2.26,74.66-17.1,90.88C359.21,357,352.09,361.65,337.8,361.65Zm29.32-130.42c-4.81,0-10.82,1.19-18.68,3.61-24.15,7.43-44,33.9-51,56.21-4.58,14.4-.49,37.47,9.31,52.51,3.91,6,10.44,13.36,19.36,14.33,22.34,2.44,27.95-.42,46.62-16.06,8.23-6.9,14.38-21.19,17.32-40.25,2.61-16.93,2.15-35.15-1.19-47.55-3-11.09-6.9-17.65-12.3-20.63A18.91,18.91,0,0,0,367.12,231.23ZM341.18,331.82a9.75,9.75,0,0,1-4.95-1.28c-6.58-3.8-7.3-14.92-1.59-24.8s15.69-14.83,22.27-11,7.3,14.92,1.59,24.8h0C354.1,327.14,347.15,331.82,341.18,331.82Zm10.65-35.43c-4.85,0-10.74,4.18-14.59,10.85-4.88,8.44-4.66,17.73.49,20.71s13.3-1.48,18.18-9.93h0c4.87-8.45,4.65-17.74-.5-20.71A7.1,7.1,0,0,0,351.83,296.39Z"/></svg>