<svg id="Layer_1" data-name="Layer 1" xmlns="http://www.w3.org/2000/svg" width="1920" height="1080" viewBox="0 0 1920 1080"><defs><style>.cls-1,.cls-11{fill:#fff;}.cls-2{fill:#bfebff;}.cls-3{fill:#579157;}.cls-4{fill:#4c6b4c;}.cls-5{fill:#c1b272;}.cls-6{fill:#0a0a0a;}.cls-7{fill:#940000;}.cls-8{fill:#6a2300;}.cls-9{fill:#d40b00;}.cls-10{fill:#4e5360;}.cls-11{opacity:0.9;}.cls-12{fill:#76b72a;}.cls-13{fill:#ee796c;}.cls-14{fill:#f7b884;}.cls-15{fill:#7cb829;}.cls-16{fill:#f8b133;}.cls-17{fill:#fcea0d;}.cls-18{fill:#b17f49;}.cls-19{fill:#e63738;}.cls-20{fill:#1d1d1b;}.cls-21{fill:#7c3104;}.cls-22{fill:#7f5713;}.cls-23{fill:#925f36;}.cls-24{fill:#03ff27;}.cls-25{fill:#ff0624;}.cls-26{font-size:59px;font-family:MyriadPro-Regular, Myriad Pro;}.cls-27,.cls-29{font-size:44.72px;}.cls-27,.cls-30{font-family:ArialNarrow, Arial Narrow;}.cls-28{font-size:48.06px;}.cls-30{font-size:82.4px;}.cls-31{fill:#8bc53f;}.cls-32{fill:#f6921e;}.cls-33{fill:#ec1c24;}</style></defs><rect class="cls-1" x="1673" y="19" width="248" height="257"/><rect class="cls-1" x="1766" y="24" width="152" height="257"/><path class="cls-2" d="M1860.62,561h-3c.13.51.27,1,.39,1.54C1858.91,562,1859.77,561.49,1860.62,561Z"/><path class="cls-3" d="M1920,1075.11q-4.7,2.51-9.6,4.89h8.44l1.16-1.29Z"/><path class="cls-2" d="M5.28,421.34c112-21.9,291.78-77.09,375,1.55,70.53-4.32,142.11-6.87,210.8-7.6,86.42-85.59,275.36-74.59,350.35-37.77.73-9.95,9.38-18.78,22.59-24.61a34.34,34.34,0,0,1-.28-4.21c0-19.33,16.88-35,37.7-35,.74,0,1.49,0,2.23.07,3.47-15.6,10.64-26.31,18.93-26.31,9,0,16.64,12.57,19.71,30.3,17.1-14.33,33.2-16.21,38.67-3,2.9,7,2.34,17-.92,28a73.23,73.23,0,0,1,18.75,4.87c62.19-1.95,68.31,11,51.52,29.79-.71.79-1.51,1.67-2.39,2.61,25.95,3.71,45.1,16.71,45.1,32.17,0,18.36-27,33.25-60.31,33.25a107,107,0,0,1-14.88-1,78.12,78.12,0,0,1-26.35-.44,126.4,126.4,0,0,1,17.4,9.21,92.32,92.32,0,0,1,15.33,12.47c28,8.83,49.79,18.69,65.84,29.57,60.73-3.91,117.26,3.44,155.33,36.54q41.45-11.58,77.4-20.08H1421l34.26-141.21-15-29.35h.27l17.67-25.81v-.14h44.4l15.33-29.82v-.46h41.24V246h.52l-.08-.27,15.37-5V160.37l-10.2-10.94h.19l44.93-69.85h-.21V63.46H1602V61.29h7.69V55h2.06v6.29h7.91v2.17h-7.91v16l45,70-7.56,8.11v84.93l13.06,4.27v38.59h41v.46l15.26,29.69h44.87v.14l17.38,25.8h-1.14l-14.84,29,23.49,96.83c29.94,8.42,57,28.15,79.26,63.64,25.19,40.19,35.18,82,34.17,123.46a127.93,127.93,0,0,1,18.24,4.32v-506c-2.4.18-4.86.28-7.38.28a87.21,87.21,0,0,1-23.34-3,118.47,118.47,0,0,1-27.32,3,132.18,132.18,0,0,1-14.23-.76c-2.92,5.06-8.16,8.76-17.4,8.76-8.17,0-15-3.36-20.44-8.18-2.24.12-4.53.18-6.85.18-27.4,0-49.62-8.11-49.62-18.11,0-6.62,9.74-12.41,24.27-15.57a7,7,0,0,1-.49-2.54c0-5.73,7.28-10.83,18.64-14.15a12.52,12.52,0,0,1-.23-2.29c0-10.53,13.89-19.07,31-19.07.62,0,1.23,0,1.84,0,2.86-8.5,8.76-14.34,15.58-14.34,7.38,0,13.69,6.85,16.22,16.51,14.06-7.8,27.31-8.83,31.82-1.63,2.37,3.8,1.92,9.26-.76,15.27,12,1,22.22,4.06,28.68,8.27V0H1310.22c2.44,5.09,1.82,12.18-1.23,20,24.37,2.32,42.76,12.73,42.76,25.24a12.55,12.55,0,0,1-.3,2.73c19.4,3.4,33.27,12.41,33.27,23,0,13.5-22.57,24.44-50.4,24.44a92.12,92.12,0,0,1-27.75-4,117.87,117.87,0,0,1-23.32,3.75c-7.18,7.93-15.49,13.18-25.86,11.69A72,72,0,0,1,1226,93.6c-19.15,4.57-32.35,10.85-32.36,1.36-27.62-2-48.59-12-48.59-24,0-8.93,11.58-16.75,28.86-21a10.61,10.61,0,0,1-.59-3.43c0-7.72,8.67-14.61,22.18-19.09a18.71,18.71,0,0,1-.27-3.1c0-11.23,10.32-20.77,24.7-24.28H1V422.21C2.42,421.91,3.85,421.62,5.28,421.34Zm1394-349.5a8,8,0,0,1-.42-2.5c0-5.64,6.19-10.66,15.85-13.92a13.21,13.21,0,0,1-.2-2.27c0-10.36,11.8-18.77,26.36-18.77.52,0,1,0,1.56,0,2.42-8.36,7.44-14.11,13.23-14.11,6.28,0,11.64,6.74,13.79,16.25,12-7.68,23.21-8.69,27-1.6,2,3.74,1.64,9.11-.64,15,17.42,1.69,30.56,9.29,30.56,18.41a9,9,0,0,1-.22,2c13.87,2.48,23.78,9,23.78,16.77,0,9.85-16.13,17.83-36,17.83a64.61,64.61,0,0,1-19.83-3,87.64,87.64,0,0,1-23.22,3,85.82,85.82,0,0,1-25-3.48,85.82,85.82,0,0,1-25,3.48c-23.29,0-42.17-8-42.17-17.83C1378.68,80.65,1387,75,1399.31,71.84ZM458.17,96.42a5,5,0,0,1-.58-2.25c0-5.06,8.46-9.56,21.64-12.5a8.12,8.12,0,0,1-.27-2c0-9.31,16.12-16.85,36-16.85.72,0,1.43,0,2.13,0,3.32-7.5,10.17-12.66,18.08-12.66,8.57,0,15.89,6,18.82,14.59,16.33-6.9,31.7-7.81,36.93-1.45,2.76,3.36,2.23,8.19-.89,13.5,23.79,1.52,41.74,8.34,41.74,16.52a5.56,5.56,0,0,1-.3,1.79c1.84.22,3.63.47,5.35.75,7.68-2.51,14-1.54,16.72,3.44a11,11,0,0,1,.56,1.26c6.17,2.68,9.84,6,9.84,9.6,0,1.91-1,3.75-2.93,5.45,13.23,2.93,22.45,9.5,22.45,17.13a9.57,9.57,0,0,1-.21,2C697.1,137.23,707,143.8,707,151.52c0,9.85-16.13,17.83-36,17.83a64.61,64.61,0,0,1-19.83-2.95,87.64,87.64,0,0,1-23.22,2.95,85.48,85.48,0,0,1-25-3.48,85.48,85.48,0,0,1-25,3.48c-23.29,0-42.17-8-42.17-17.83,0-6.52,8.28-12.22,20.63-15.33a7.9,7.9,0,0,1-.42-2.5c0-2.7,1.44-5.26,4-7.56-1.3,0-2.61,0-3.93,0A173.73,173.73,0,0,1,521.77,123a173.66,173.66,0,0,1-34.19,3.13c-31.8,0-57.58-7.16-57.58-16C430,104.32,441.3,99.21,458.17,96.42ZM146.48,243.34a12.81,12.81,0,0,1-.92-4.66c0-10.48,13.42-19.82,34.35-25.89a21.1,21.1,0,0,1-.43-4.21c0-19.27,25.57-34.9,57.11-34.9,1.14,0,2.26,0,3.38.06,5.26-15.55,16.13-26.24,28.68-26.24,13.6,0,25.22,12.54,29.88,30.23,25.9-14.29,50.3-16.17,58.59-3,4.38,7,3.54,17-1.4,28C393.47,205.85,422,220,422,236.94a15,15,0,0,1-.47,3.71c30,4.62,51.52,16.84,51.52,31.19C473,290.15,438.05,305,395,305a161.37,161.37,0,0,1-43-5.48A219.57,219.57,0,0,1,301.67,305c-20.32,0-39.08-2.41-54.26-6.48-15.17,4.07-33.94,6.48-54.25,6.48-50.47,0-91.38-14.85-91.38-33.16C101.78,259.72,119.72,249.12,146.48,243.34Z"/><path class="cls-1" d="M986,420.53c41.69,3.3,79.33,11.94,105.47,23.49a78.12,78.12,0,0,0,26.35.44,107,107,0,0,0,14.88,1c33.31,0,60.31-14.89,60.31-33.25,0-15.46-19.15-28.46-45.1-32.17.88-.94,1.68-1.82,2.39-2.61,16.79-18.76,10.67-31.74-51.52-29.79A73.23,73.23,0,0,0,1080,342.8c3.26-11,3.82-21.06.92-28-5.47-13.22-21.57-11.34-38.67,3-3.07-17.73-10.74-30.3-19.71-30.3-8.29,0-15.46,10.71-18.93,26.31-.74,0-1.49-.07-2.23-.07-20.82,0-37.7,15.67-37.7,35a34.34,34.34,0,0,0,.28,4.21c-13.21,5.83-21.86,14.66-22.59,24.61a117.72,117.72,0,0,1,11.79,6.59C967.06,393.09,978,405.5,986,420.53Z"/><path class="cls-4" d="M1190,495.27c-16-10.88-37.82-20.74-65.84-29.57a92.32,92.32,0,0,0-15.33-12.47,126.4,126.4,0,0,0-17.4-9.21c-26.14-11.55-63.78-20.19-105.47-23.49-8-15-18.93-27.44-32.81-36.42a117.72,117.72,0,0,0-11.79-6.59C866.4,340.7,677.46,329.7,591,415.29c-68.69.73-140.27,3.28-210.8,7.6-83.18-78.64-262.95-23.45-375-1.55-1.43.28-2.86.57-4.28.87V1080H358.66c-14.44-70.74,44.87-167.59,147.91-232.2,96.7-60.63,244.69-176.64,350.55-133.08,140.15-64,288-121.94,405.48-158.43q43.92-13.63,82.76-24.48C1307.29,498.71,1250.76,491.36,1190,495.27Z"/><path class="cls-3" d="M1456.07,512v-.27h-33.31q-36,8.5-77.4,20.08-38.89,10.86-82.76,24.48c-117.5,36.49-265.33,94.47-405.48,158.43C751.26,671.16,603.27,787.17,506.57,847.8c-103,64.61-162.35,161.46-147.91,232.2h59.18q71.43-43.26,158.07-92.79c353.53-201.76,622.47-333.5,802.71-409l5.9-2.46c72.9-30.34,131-51.3,173.9-63.8Z"/><path class="cls-3" d="M1901.76,654.4c1-41.45-9-83.27-34.17-123.46-22.26-35.49-49.32-55.22-79.26-63.64l10.85,44.7H1648c-9.86,25.66-84.29,84.74-188.26,151.2-54,34.53-116,71.06-181.07,105.92-127.79,68.49-267.38,130.57-381.49,158.55-63.3,15.52-184,80.52-312.27,152.33H1910.4q4.9-2.38,9.6-4.89V658.72A127.93,127.93,0,0,0,1901.76,654.4Z"/><path class="cls-1" d="M193.16,305c20.31,0,39.08-2.41,54.25-6.48,15.18,4.07,33.94,6.48,54.26,6.48A219.57,219.57,0,0,0,352,299.52,161.37,161.37,0,0,0,395,305c43.1,0,78.05-14.85,78.05-33.16,0-14.35-21.47-26.57-51.52-31.19a15,15,0,0,0,.47-3.71c0-17-28.48-31.09-66.23-34.24,4.94-11,5.78-21,1.4-28-8.29-13.18-32.69-11.3-58.59,3-4.66-17.69-16.28-30.23-29.88-30.23-12.55,0-23.42,10.69-28.68,26.24-1.12,0-2.24-.06-3.38-.06-31.54,0-57.11,15.63-57.11,34.9a21.1,21.1,0,0,0,.43,4.21c-20.93,6.07-34.35,15.41-34.35,25.89a12.81,12.81,0,0,0,.92,4.66c-26.76,5.78-44.7,16.38-44.7,28.5C101.78,290.15,142.69,305,193.16,305Z"/><path class="cls-1" d="M1420.85,105a85.82,85.82,0,0,0,25-3.48,85.82,85.82,0,0,0,25,3.48,87.64,87.64,0,0,0,23.22-3,64.61,64.61,0,0,0,19.83,3c19.89,0,36-8,36-17.83,0-7.72-9.91-14.29-23.78-16.77a9,9,0,0,0,.22-2c0-9.12-13.14-16.72-30.56-18.41,2.28-5.92,2.66-11.29.64-15-3.83-7.09-15.09-6.08-27,1.6-2.15-9.51-7.51-16.25-13.79-16.25-5.79,0-10.81,5.75-13.23,14.11-.52,0-1,0-1.56,0-14.56,0-26.36,8.41-26.36,18.77a13.21,13.21,0,0,0,.2,2.27c-9.66,3.26-15.85,8.28-15.85,13.92a8,8,0,0,0,.42,2.5c-12.35,3.11-20.63,8.81-20.63,15.33C1378.68,97,1397.56,105,1420.85,105Z"/><path class="cls-1" d="M683.24,134.75a9.57,9.57,0,0,0,.21-2c0-7.63-9.22-14.2-22.45-17.13a22.8,22.8,0,0,1-5,3.26,22.8,22.8,0,0,0,5-3.26c1.89-1.7,2.93-3.54,2.93-5.45,0-3.6-3.67-6.92-9.84-9.6a11,11,0,0,0-.56-1.26c-2.68-5-9-6-16.72-3.44h0c-1.72-.28-3.51-.53-5.35-.75a5.56,5.56,0,0,0,.3-1.79c0-8.18-18-15-41.74-16.52,3.12-5.31,3.65-10.14.89-13.5-5.23-6.36-20.6-5.45-36.93,1.45-2.93-8.54-10.25-14.59-18.82-14.59-7.91,0-14.76,5.16-18.08,12.66-.7,0-1.41,0-2.13,0-19.87,0-36,7.54-36,16.85a8.26,8.26,0,0,0,.27,2c-13.18,2.93-21.64,7.43-21.64,12.49a5,5,0,0,0,.58,2.25C441.3,99.21,430,104.32,430,110.17c0,8.84,25.78,16,57.58,16A173.66,173.66,0,0,0,521.77,123,173.73,173.73,0,0,0,556,126.17c1.32,0,2.63,0,3.93,0a34.18,34.18,0,0,1,11.86-6.36h0a34.18,34.18,0,0,0-11.86,6.36h0c-2.55,2.3-4,4.86-4,7.56a7.9,7.9,0,0,0,.42,2.5C544,139.3,535.69,145,535.69,151.52c0,9.85,18.88,17.83,42.17,17.83a85.48,85.48,0,0,0,25-3.48,85.48,85.48,0,0,0,25,3.48,87.64,87.64,0,0,0,23.22-2.95A64.61,64.61,0,0,0,671,169.35c19.89,0,36-8,36-17.83C707,143.8,697.1,137.23,683.24,134.75Zm-48.91-38a48.36,48.36,0,0,0-7.84,4.12A48,48,0,0,1,634.33,96.79Zm-8.28,2.37c-2.38-8.57-7.46-14.5-13.35-14.5C618.59,84.66,623.67,90.59,626.05,99.16Zm-54.5,18.34a13.33,13.33,0,0,0,.19,2.2A13.33,13.33,0,0,1,571.55,117.5Zm16.11,6-1.48.25,1.48-.25A123.81,123.81,0,0,0,607.38,126,123.81,123.81,0,0,1,587.66,123.53Zm51.22.58c-1.18.22-2.4.42-3.64.61C636.48,124.53,637.7,124.33,638.88,124.11Zm11-2.73c1.36-.46,2.64-.93,3.83-1.43C652.48,120.45,651.2,120.92,649.84,121.38Zm-6.55,1.82c1.66-.38,3.24-.8,4.74-1.25C646.53,122.4,645,122.82,643.29,123.2Z"/><path class="cls-1" d="M1195.18,24.28a18.71,18.71,0,0,0,.27,3.1c-13.51,4.48-22.18,11.37-22.18,19.09a10.61,10.61,0,0,0,.59,3.43C1156.58,54.16,1145,62,1145,70.91c0,12,21,22,48.59,24,0,9.49,13.21,3.21,32.36-1.36a72,72,0,0,0,31.44,13.15c10.37,1.49,18.68-3.76,25.86-11.69a117.87,117.87,0,0,0,23.32-3.75,92.12,92.12,0,0,0,27.75,4c27.83,0,50.4-10.94,50.4-24.44,0-10.58-13.87-19.59-33.27-23a12.55,12.55,0,0,0,.3-2.73c0-12.51-18.39-22.92-42.76-25.24,3-7.77,3.67-14.86,1.23-19.95h-35.6c-.85.49-1.71,1-2.57,1.54-.12-.52-.26-1-.39-1.54h-51.78C1205.5,3.51,1195.18,13.05,1195.18,24.28Z"/><path class="cls-5" d="M1384.52,575.8l-5.9,2.46c.34.8.67,1.61,1,2.41C1381.25,579,1382.89,577.35,1384.52,575.8Z"/><path class="cls-5" d="M1645.09,512h-86.67c-42.94,12.5-101,33.46-173.9,63.8-1.63,1.55-3.27,3.18-4.9,4.87-.33-.8-.66-1.61-1-2.41-180.24,75.45-449.18,207.19-802.71,409q-86.53,49.39-158.07,92.79h167c128.23-71.81,249-136.81,312.27-152.33,114.11-28,253.7-90.06,381.49-158.55,65.06-34.86,127.05-71.39,181.07-105.92,104-66.46,178.4-125.54,188.26-151.2Z"/><polygon class="cls-6" points="1788.33 467.3 1764.84 370.47 1779.68 341.43 1780.82 341.43 1763.44 315.62 1763.44 315.48 1718.57 315.48 1703.31 285.8 1703.31 285.33 1703.07 285.33 1703.07 285.33 1703.07 285.33 1662.28 285.33 1662.28 246.74 1649.22 242.47 1649.22 157.54 1656.78 149.43 1611.75 79.43 1611.75 63.46 1619.66 63.46 1619.66 61.29 1611.75 61.29 1611.75 55 1609.69 55 1609.69 61.29 1602 61.29 1602 63.46 1609.69 63.46 1609.69 79.58 1609.9 79.58 1564.97 149.43 1564.79 149.43 1574.98 160.37 1574.98 240.72 1559.61 245.75 1559.69 246.02 1559.17 246.02 1559.17 284.94 1518.17 284.94 1517.93 284.94 1517.93 285.4 1502.6 315.22 1458.2 315.22 1458.2 315.36 1440.53 341.17 1440.26 341.17 1455.26 370.52 1421 511.73 1422.76 511.73 1432.45 511.73 1456.07 511.73 1456.07 512 1558.42 512 1578.42 512 1645.09 512 1647.95 512 1729.36 512 1764 512 1790.51 512 1799.18 512 1788.33 467.3"/><polygon class="cls-1" points="1436.43 521.41 1506.25 521.41 1471.34 377.51 1436.43 521.41"/><polygon class="cls-1" points="1814.61 521.68 1780.27 380.15 1795.24 350.85 1764.31 350.85 1779.17 379.94 1744.78 521.68 1814.61 521.68"/><polygon class="cls-1" points="1672.2 159.11 1580.21 159.11 1590.41 170.05 1590.41 259.3 1580.1 259.3 1580.1 357.33 1672.2 357.33 1672.2 259.3 1664.64 259.3 1664.64 167.22 1672.2 159.11"/><rect class="cls-1" x="1471.5" y="350.84" width="307.93" height="170.83"/><polygon class="cls-1" points="1455.69 350.85 1471.15 381.12 1486.62 350.85 1455.69 350.85"/><rect class="cls-7" x="1668.77" y="335.25" width="111.52" height="15.86" transform="translate(3449.05 686.35) rotate(-180)"/><polygon class="cls-7" points="1769.16 351.12 1778.87 325.3 1796.24 351.1 1769.16 351.12"/><rect class="cls-7" x="1668.77" y="325.15" width="110.1" height="15.86" transform="translate(3447.64 666.17) rotate(-180)"/><rect x="1593.85" y="450.81" width="66.67" height="70.87"/><ellipse cx="1627.18" cy="454.03" rx="33.34" ry="35.43"/><rect class="cls-8" x="1602.15" y="475.09" width="49.43" height="46.57"/><ellipse class="cls-8" cx="1626.87" cy="477.21" rx="24.72" ry="23.29"/><rect x="1494.24" y="391.25" width="24" height="22.29"/><ellipse cx="1506.24" cy="392.26" rx="12" ry="11.14"/><rect x="1551.31" y="391.24" width="24" height="22.29"/><ellipse cx="1563.31" cy="392.25" rx="12" ry="11.14"/><rect x="1673.66" y="391.24" width="24" height="22.29"/><ellipse cx="1685.66" cy="392.25" rx="12" ry="11.14"/><rect x="1729.33" y="391.24" width="24" height="22.29"/><ellipse cx="1741.34" cy="392.25" rx="12" ry="11.14"/><rect class="cls-7" x="1472.19" y="334.99" width="113.41" height="15.86"/><polygon class="cls-7" points="1483.5 350.86 1473.62 325.04 1455.95 350.85 1483.5 350.86"/><rect class="cls-7" x="1473.62" y="324.9" width="111.97" height="15.86"/><rect class="cls-7" x="1574.6" y="255.7" width="11" height="71.36"/><rect class="cls-7" x="1668.77" y="256.42" width="8.94" height="72.08"/><polygon class="cls-1" points="1625.83 244.13 1579.46 259.3 1672.2 259.3 1625.83 244.13"/><polygon class="cls-7" points="1623.38 245.25 1625.17 239.24 1677.7 256.42 1675.91 262.44 1623.38 245.25"/><polygon class="cls-7" points="1576.98 261.97 1575.04 255.43 1625.37 238.97 1627.32 245.51 1576.98 261.97"/><polygon class="cls-9" points="1549.17 324.89 1518.02 324.89 1533.6 294.62 1549.17 324.89"/><rect class="cls-9" x="1533.36" y="294.62" width="41.24" height="30.27"/><polygon class="cls-9" points="1702.92 325.29 1734.07 325.29 1718.49 295.01 1702.92 325.29"/><rect class="cls-9" x="1677.49" y="295.01" width="41.24" height="30.27" transform="translate(3396.22 620.3) rotate(-180)"/><rect x="1598.76" y="204.5" width="15.02" height="17.41"/><ellipse cx="1606.27" cy="205.3" rx="7.51" ry="8.71"/><rect x="1625.12" y="64.68" width="2.06" height="24.58"/><rect x="1625.17" y="63.22" width="2.17" height="17.66" transform="translate(1698.31 -1554.2) rotate(90)"/><rect x="1634.19" y="204.56" width="15.02" height="17.41"/><ellipse cx="1641.7" cy="205.36" rx="7.51" ry="8.71"/><rect class="cls-10" x="1623.4" y="274.44" width="4.12" height="49.02"/><rect class="cls-10" x="1623.52" y="271.48" width="4.32" height="35.31" transform="translate(1914.82 -1336.54) rotate(90)"/><polygon class="cls-9" points="1672.2 159.11 1580.4 159.11 1626.3 87.75 1672.2 159.11"/><rect class="cls-11" x="159" y="113" width="1641" height="837"/><path class="cls-12" d="M557.32,745.75c5.75-6,10.55-5.79,18.21-5.5s15.53,8.4,16.47,14a8.69,8.69,0,0,0,1.28,3.44c-2.78-13.13-4.25-30.55-4.94-40.12-.86-11.94.7-19.53,3.79-26.64s6.42-10,9-14.1,2.86-2.39,5.17-5.25a21.48,21.48,0,0,0,4.63,2.67c-5.85,5.3-7.28,7-10,17.61s-4.57,38.42-3.53,50.33a108,108,0,0,0,3.13,19.43c.07-.71.22-1.58.37-2.66.67-5,7.94-11.18,11.24-14.63s7.18-6.66,11.64-7.1a110.8,110.8,0,0,1-.84,17.16c-1.64,9.76-12,12.69-17.68,11.37a12.44,12.44,0,0,1-3.91-1.32c.66,2.06,1.41,4.09,2.28,6.17,3.61,8.64,7.92,15.42,11.12,23s6.52,17,3.78,23.47-10.83,9-11.35,7.6,4.67-6.05,3.65-16.09-10.9-29.32-15.22-42.11a71.09,71.09,0,0,1-2.08-7.71l-2.23-.89c-1.77-.71-5.93,5.28-11.69,4.93s-7.42-3.4-13.58-7-17.64-3.6-17.64-3.6S551.57,751.76,557.32,745.75Z"/><path class="cls-13" d="M612,713.28c-5.17,1.16-16.07,2.18-21.36,0S573.44,697,574.22,691.65s7-7.81,3.26-12.17-6.07-6.14-4.49-9-2.91-3.21,2.81-3.71c4.38-.39,3.26,1.92,4.27-1.79s6.63-5.76,6.63-5.76c9.78-1.16,10.9-1.16,10.9-1.16,9.89-3.84,7.76-2.94,10.57-3.84s10.23,1.79,12.92,8.07,1.8,7.17,3.83,7.94,6.52,2.56,8.54,4.09,4.16,1,5.39,3.46,3.83,5.12,1.91,10-1.79,5.76-2.47,6.4-.67.64-4.61,1-7.19.77-8.76,4.35-2.56,8.58-5.38,10.5A30.76,30.76,0,0,1,612,713.28Z"/><path class="cls-14" d="M628.58,689.84a.66.66,0,0,0,.59-.43.79.79,0,0,0-.32-1l-11.72-6.17a.61.61,0,0,0-.85.36.77.77,0,0,0,.31,1l11.72,6.17A.54.54,0,0,0,628.58,689.84Z"/><path class="cls-14" d="M612.19,712.59h.12a.73.73,0,0,0,.51-.86c-.07-.43-1.89-10.54-11.22-15.78s-14.13-7.89-17.17-9.24l-1.19-.53a31.94,31.94,0,0,1,9.29-1.08c3.58.19,7.81,1.63,10.6,2.59,2.42.82,3.13,1.05,3.6.83a22.64,22.64,0,0,0,6-4.07c1.54-1.4,2-1.81,3.85-.84a.62.62,0,0,0,.86-.36.78.78,0,0,0-.32-1c-2.57-1.35-3.61-.41-5.19,1a21.4,21.4,0,0,1-5.7,3.87c-.2,0-1.55-.48-2.74-.89-2.86-1-7.18-2.45-10.92-2.64A33.67,33.67,0,0,0,581,685.32a.73.73,0,0,0-.46.67.74.74,0,0,0,.41.71l3.05,1.36c3,1.34,7.72,4,17.07,9.19,8.74,4.91,10.51,14.65,10.53,14.75A.67.67,0,0,0,612.19,712.59Z"/><path class="cls-14" d="M608.84,683a.68.68,0,0,0,.64-.67.71.71,0,0,0-.59-.79l-3.5-.32a7.9,7.9,0,0,1-4.91-2.18.53.53,0,0,0-.23-.16,87.76,87.76,0,0,1-8.41-3.86c-.28-.29-.22-1.62-.16-2.68l0-.87c0-.78,2-2,3.78-2.73a44.16,44.16,0,0,0,4.93,0c1.17-.1,6.31,1.09,10.07,2,1.46.34,2.82.66,3.89.89a20.72,20.72,0,0,1,6.78,2.92,41.55,41.55,0,0,1,2.65,5.8c-.1.37-1.52.84-3.11.9a.7.7,0,0,0-.62.76.69.69,0,0,0,.66.71c.77,0,3.32-.23,4.11-1.46a1.7,1.7,0,0,0,.2-1.31,46.58,46.58,0,0,0-2.87-6.32.74.74,0,0,0-.2-.23,21.38,21.38,0,0,0-7.36-3.21c-1.06-.23-2.42-.55-3.87-.88-5.33-1.25-9.19-2.12-10.44-2a48.78,48.78,0,0,1-4.88,0,.45.45,0,0,0-.23,0c-1.1.41-4.7,1.92-4.78,4.09l0,.85c-.08,1.67-.16,3.11.61,3.88s6.19,3,8.68,4.07a9.17,9.17,0,0,0,5.61,2.48l3.5.32Z"/><path class="cls-14" d="M618.07,680.48s-2.62-3.63-5.16-4.2a22.36,22.36,0,0,1-3.73-1.43c-2.06-.93-4.39-2-6.07-1.75a19.4,19.4,0,0,1-3.25,0,18.83,18.83,0,0,0-2.37,0,5.47,5.47,0,0,0,.43.44,23,23,0,0,0,6.29,4.42,4.19,4.19,0,0,1-1.4-2.37,1.18,1.18,0,0,1,.31-.91c.5-.5,1.34-.32,2.32-.1a4.64,4.64,0,0,0,1.33.18c1.62-.59,3.66,3.24,3.88,3.67a1.23,1.23,0,0,1,0,1.22c-.45.77-1.58.62-3.7.28a17.06,17.06,0,0,0-1.73-.23c-2.12-.1-5.6-2.66-8.15-5-.66-.61-1.3-1.35-1-2.16.34-1,1.74-1,3.85-.87a18.07,18.07,0,0,0,3.05,0c2-.28,4.38.81,6.69,1.84a21.92,21.92,0,0,0,3.51,1.36c3,.68,5.79,4.55,5.9,4.72a.79.79,0,0,1-.09,1,.59.59,0,0,1-.9-.11ZM605.2,676c-.28-.06-.69-.15-1-.19a6.4,6.4,0,0,0,1.55,1.65.79.79,0,0,1,.26.82l1.13.18a19,19,0,0,0,2.15.26c-.81-1.42-1.82-2.57-2.14-2.58A3.94,3.94,0,0,1,605.2,676Z"/><path class="cls-14" d="M581.9,668.52a.65.65,0,0,0,.61-.5s.54-1.55,3.09-1.43c1.83.09,4.55-1.27,7.4-2.69a29.62,29.62,0,0,1,6.18-2.56c3.5-.7,7.05,3.54,7.09,3.58a.58.58,0,0,0,.91,0,.8.8,0,0,0,0-1c-.16-.2-4.06-4.88-8.26-4a30.39,30.39,0,0,0-6.47,2.66c-2.55,1.26-5.18,2.57-6.76,2.57h-.31c-3.38,0-4.09,2.34-4.12,2.44a.75.75,0,0,0,.41.92A.48.48,0,0,0,581.9,668.52Z"/><path class="cls-14" d="M623.16,670.83h.27A.7.7,0,0,0,624,670a.64.64,0,0,0-.68-.68,5.81,5.81,0,0,1-5.85-3.86c-.2-.56-.37-1.09-.53-1.59-1.23-3.75-2-6.22-5.75-6a36.33,36.33,0,0,0-8.68,2.18.76.76,0,0,0-.41.93.65.65,0,0,0,.82.46,35.79,35.79,0,0,1,8.35-2.1c2.77-.2,3.26,1.32,4.46,5,.17.5.34,1,.54,1.61A7.08,7.08,0,0,0,623.16,670.83Z"/><path class="cls-15" d="M476.91,728.83c-2.57,1.92-3.63,4.13-6.78,5.45s-8.57,3.58-10.38,6.86l-.18.33a69.17,69.17,0,0,0,.46-21.53c-1-7.31-1.09-8-3.36-11.83s-4-4.44-6.57-6.57-3.75,1.54-6,2.15c1.55,2.34,2.4,4.31,4.21,6.47,3.81,4.51,5.88,3.36,6.48,11.23.41,5.32,1,10.93,0,16.59-.2-2.18-.22-4.73-1.17-6.39-1.18-2.06-3.25-3-4.92-4.84s-5.22-2.73-7.58-3.48-4.77-2.11-7.07-3.1c1.86,3.27,2.81,7.77,4,11.21a14.16,14.16,0,0,0,5.78,7.66,33,33,0,0,0,7.86,3.65,3.26,3.26,0,0,0,1.89,0,27,27,0,0,1-1.46,3.45c-4.24,8.35-12.49,17.26-14.44,27.3s2.21,26.53,3.7,34.17,2.82,8.38,6.62,9.3,3.22,1.34,2.29-3.07-3.82-8-5.32-14.57-2.8-17.2-1.21-25.9c1.53-8.43,9.41-16.27,13.36-24.32.82.67.95,1,3.11.7,2.68-.42,9.61-2.92,11.75-5.69a31.54,31.54,0,0,0,4.7-9.29C477.42,732.12,476.67,731.15,476.91,728.83Z"/><path class="cls-16" d="M448.85,703.77c.31-4.36,1.36-13.77,5.87-12.13s4.3,8.77,7.45,15-4.06,14.56-9.69,9S448.54,708.13,448.85,703.77Z"/><path class="cls-16" d="M451.05,654.76c.64,4.24,2.9,13.87-2,13.73s-7.88-7.58-10.95-14.06.93-16.43,7.09-12.87S450.42,650.52,451.05,654.76Z"/><path class="cls-16" d="M468,662.38c-2,2.94-7.31,11.65-10.33,7.12s-.05-11.35,2.62-18.35,9.77-7.49,12.23-.93S470,659.44,468,662.38Z"/><path class="cls-16" d="M468.53,698.61c-2.49-3.34-10.47-7.74-6.9-11.63s9.79-.27,15.39,1.76,8.48,8.38,3,13.51S471,702,468.53,698.61Z"/><path class="cls-16" d="M474.9,681c-4.28-.15-12.26.49-11.37-5s8.08-7.56,14.2-9.28,15.2,5.74,8.44,10.07S479.18,681.19,474.9,681Z"/><path class="cls-16" d="M434.73,662.92c2.94,2.35,10.68,7,7.34,11.08s-10.71.2-15.54-2.5-9.71-12.12-3.78-14S431.79,660.58,434.73,662.92Z"/><path class="cls-16" d="M428.52,677.37c3.47.17,12.26-.3,11.93,3.9s-6.42,7.64-12.24,9.2S414,688,418.9,682.33,425.05,677.2,428.52,677.37Z"/><path class="cls-16" d="M432.78,693.65c3.4-2.49,10-7.38,12.09-2.68s-1.9,9.71-5.22,15.48-14.36,5.45-13.15-2.57S429.38,696.13,432.78,693.65Z"/><path class="cls-17" d="M461.34,704.67c-2-3-8-12.14-4.29-14.49s8.81,5.33,12.65,9,6.65,13.67.35,14.74S463.31,707.71,461.34,704.67Z"/><path class="cls-17" d="M440.81,702.84c1.05-3.77,3.65-14.39,7.57-12.57S450,701.85,449.54,707s-6.61,14.44-9.8,8.4S439.76,706.61,440.81,702.84Z"/><path class="cls-17" d="M429.24,686.05c3.15-.95,12.67-4.19,13.42.55s-7.91,7.82-11.74,10.11-13.82,1.52-12.16-4.7S426.09,687,429.24,686.05Z"/><path class="cls-17" d="M429.16,669.63c3.58,1.64,12.8,5.09,11.7,8.16s-8.05,3.06-14.38,1.72-14.29-8.07-8.22-10.26S425.58,668,429.16,669.63Z"/><path class="cls-17" d="M439.47,657.23c2.11,2.69,9.37,10.51,6.12,13.6s-9.85-4.28-12.89-7.17S425,650.85,430,649.56,437.36,654.54,439.47,657.23Z"/><path class="cls-17" d="M460.13,656c-1.55,4-4.87,14.41-7.52,13.07s-2.44-9.26-1.07-16.43,7.53-16,9.26-9S461.67,652,460.13,656Z"/><path class="cls-17" d="M474.22,668.23c-2.45,1.74-11.32,8.84-12.86,4.15s5.51-10.26,9.45-14.59,10.89-5.23,12.6.76S476.67,666.5,474.22,668.23Z"/><path class="cls-17" d="M476.44,689.16c-3.73-1.14-13.24-3.33-12.47-6.52s7.68-4.12,14.11-3.65,15,6.1,9.22,9.08S480.16,690.3,476.44,689.16Z"/><path class="cls-18" d="M467.16,678.27c1.21,9.13-4.06,17.3-12.9,16.56s-14.63-5-16.33-13.11,3.42-14.78,12.81-16.22S466,669.15,467.16,678.27Z"/><path class="cls-15" d="M279.52,740.72c.61-1,3.57-1.14,5.59-.43.24.09.47.19.7.3a.37.37,0,0,1,0-.14c.61-1,3.57-1.14,5.59-.42a6.67,6.67,0,0,1,2.49,1.59,8.73,8.73,0,0,1,3.06.44c2.17.77,3.95,2.77,3.29,3.78l0,0a6.86,6.86,0,0,1,.9.09.94.94,0,0,1,.19-.55c.71-.89,3.33-.78,5.2,0a8.14,8.14,0,0,1,2.13-2.64,4.8,4.8,0,0,1,.52-.36c1.42-11.48,1-22.43-1.79-29.61-5.32-13.92-2-3-5.82-12.21,2.09,1,3-.55,4.94-.7,4.06,15.53,9.66,26.71,8.52,41.45a1.1,1.1,0,0,1,.14.09,1.43,1.43,0,0,1,.31.72,9.54,9.54,0,0,1,1-.31l0,0c-.95-1.24.81-4.32,3.23-5.8a9.3,9.3,0,0,1,3.52-1.22,8.69,8.69,0,0,1,2.67-2.66c2.25-1.38,5.75-1.8,6.64-.55,0,0,0,.12.07.18.25-.19.5-.38.77-.55,2.26-1.38,5.76-1.79,6.64-.55s-.9,4-3,5.38a9.57,9.57,0,0,1-2.77,1.27c0,1.38-1.46,3.46-3.17,4.63a9.82,9.82,0,0,1-4.46,1.59q-.23.32-.48.63a1.22,1.22,0,0,1,.17.15c.88,1.23-.9,4-3,5.38a9.91,9.91,0,0,1-4.25,1.57,7.68,7.68,0,0,1-3.16,4.21,9.82,9.82,0,0,1-4.43,1.59c-6.46,19.68-15.37,34.8-5.49,53.51,10.47,19.84,10.7,33.33.7,14.2s-15.12-32.69-6.22-51.35a92.6,92.6,0,0,0,6.07-17.29,8.74,8.74,0,0,1-4.54-.51A5.7,5.7,0,0,1,299,753a9.1,9.1,0,0,1-3.71-.6c-1.85-.77-3.62-2.52-3-3.51a.8.8,0,0,1,.13-.13c-.17-.13-.32-.26-.47-.4a8.82,8.82,0,0,1-3.88-.59c-1.54-.63-3-1.94-3.11-2.94a8.79,8.79,0,0,1-2.44-.57C280.68,743.46,278.91,741.71,279.52,740.72Z"/><path class="cls-19" d="M274.31,667.28c1.5-9.19,10.81-10,17.91-6.43,1.92.95,4.66,2.1,7.59,3.57a47.63,47.63,0,0,1,10.49-4.92c7.69-2.17,15.15,1.67,16.65,8.58s-3.52,14.27-11.22,16.44l-.19.05c0,.34-.07.67-.13,1-2.43,14.91-22.12,2.75-29.87-1S272.81,676.47,274.31,667.28Z"/><ellipse class="cls-20" cx="302.27" cy="686.56" rx="3.81" ry="4.41"/><ellipse class="cls-20" cx="305.83" cy="679.98" rx="0.57" ry="0.6"/><ellipse class="cls-20" cx="304.37" cy="679.48" rx="0.57" ry="0.6"/><ellipse class="cls-20" cx="302.73" cy="679.4" rx="0.57" ry="0.6"/><ellipse class="cls-20" cx="301.17" cy="679.54" rx="0.57" ry="0.6"/><ellipse class="cls-20" cx="299.79" cy="679.89" rx="0.57" ry="0.6"/><ellipse class="cls-20" cx="298.46" cy="680.58" rx="0.57" ry="0.6"/><ellipse class="cls-20" cx="297.4" cy="681.67" rx="0.57" ry="0.6"/><ellipse class="cls-20" cx="296.51" cy="683.14" rx="0.57" ry="0.6"/><ellipse class="cls-20" cx="307.18" cy="680.8" rx="0.57" ry="0.6"/><ellipse class="cls-20" cx="308.37" cy="681.78" rx="0.57" ry="0.6"/><path class="cls-19" d="M337.2,676.68c-3.67-6.6-12.34-7.86-19.36-2.79s-21.49,23-17.82,29.6,24.09-.61,31.11-5.68S340.87,683.29,337.2,676.68Z"/><path class="cls-19" d="M269,680.27c-4,7.59,1.84,18,6.74,21.43s27.82,9.38,30.62,1.94-13-22.21-19.18-26S272.93,672.68,269,680.27Z"/><path class="cls-13" d="M275.68,673.62a9.44,9.44,0,0,1,6.51.89c2.89,1.65,12,7.52,12.42,7.77l7.66,7.71c2.66-2.75,8.51-9.15,9.41-12,1.29-4.13,13.43-7.31,14.81-7.66a.64.64,0,0,1,.76.55.74.74,0,0,1-.48.88c-4.95,1.25-13.08,4.18-13.88,6.73-1.21,3.86-9.21,12.06-10.12,13-.34.64-2.47,5-.63,8.78l2.2,4.49a.8.8,0,0,1-.25,1,.62.62,0,0,1-.32.09.63.63,0,0,1-.56-.37L301,700.94c-1.95-4-.28-8.32.43-9.82l-7.53-7.6c-.81-.52-9.56-6.13-12.31-7.7a8.34,8.34,0,0,0-5.65-.77.65.65,0,0,1-.77-.55A.74.74,0,0,1,275.68,673.62Z"/><path class="cls-21" d="M1137.81,694.26a23.84,23.84,0,0,0,.42-4.34c-.15-4.62-1.09-11-6.13-12.09-1.26-.26-1.52.54-2.45.9a5.87,5.87,0,0,1-3.73-.14s0-.06,0-.09c-.43-3.46-2.4-6.43-6.18-6.41s-5.7,3-6.07,6.47a6.26,6.26,0,0,0,.09,1l-1.9,2.87c-3,1.31-6,2.62-9,4-.63.95-1.2,1.92-1.87,2.85-1.76,1.47-4,2.8-2.68,5.69s7.67,6.83,8,9.93-3.08,3.17-2.55,5.75,1.6,3.64,2.78,6,2.25,3.25,5.33,3.12a66.21,66.21,0,0,1,11.09.79c2.87.49,4.4,1.92,7,1.19s5.51-2.68,6.61-5.25,3.11-5.21,3.62-7.94,0-7.75.76-9.76a14.3,14.3,0,0,0,.9-2.62C1140.48,695.55,1139.16,694.88,1137.81,694.26Z"/><path class="cls-22" d="M1087.48,682.18c3.86-2.87,8.26-6.19,12.75-7.6s8-2.21,12.28-4.33,9.25-4.25,13.17-7.25,7-9.21,10-12.2,4.61-3.36,7.5-5.65c2.39.07,4.89,0,7.32,0l5.1,3,3.26,3.92c.48,1.31,1,2.66,1.44,3.93,0,1.74.07,2.61.07,4.52s.14,3.16,0,5.65-1.2,2.88-1.13,6.88,1.21,11,1.41,16.71.11,14.69.16,20.64c.93,3.31,1.87-.15,1.41,5s-2.12,9.37-3.22,18.76-2.89,39.76-2.57,49,1.67,11-.66,16.07-5.95,7.41-7,.27-.95-20.15-.72-28.47-.19-20.1.86-27.36,3.27-13.44,1-19-3-7.47-.87-12.1A46.07,46.07,0,0,0,1153,699c.68-4.68-1.26-7.19-1.66-11.82a66.39,66.39,0,0,1,.49-15.69c.86-4.58,2.79-7.35.23-11.47s-5.59-7.41-10.54-6-9.64,2.67-6.88,7.66,3.83,8.27,9,10.51,16.16,5.08,19.92,7.67,8.55,6,3.77,5.65-15.14-1.82-18.37-3.63-2.64-4.16-4.89-4.82.07,3.92,1.18,5.24,6,7.6,5.62,10.05,2,5.8-1.21,5.33-3.88-9.88-5.47-11.78-3.19-3.45-3.76-4.63,1.24,3.2,1.65,4.92,1.72,8.15.74,10.35-4.62-.25-4.94-2.38.26-8.72-1.13-10.6-1.29-3.66-3.41-4-6.93,3.88-7.08,5.39-.07-3.9-2.73-5.74-4-3.82-6.34-2.38-2,4.61-4.28,6.15a43.19,43.19,0,0,1-8.72,3.89c-2.27.76-2.65,1.79-4.27,2.59a11.94,11.94,0,0,1-4.42,1.46c.76-1.8.91-2.84,2.41-4.49a34.7,34.7,0,0,1,7.27-5.18c1.87-1,2.23-1.45,2.72-3.09-1.13-.06-2.18-.13-3.24-.22a17.75,17.75,0,0,0-4.23,2.4,14,14,0,0,1-7,2C1091.32,682.37,1089.55,682.28,1087.48,682.18Z"/><path class="cls-23" d="M1115.35,718.3l-.15,0a.68.68,0,0,1-.52-.82c.08-.35.16-.72.25-1.08.58-2.37,1.17-4.83,0-6.5a9,9,0,0,0-2.07-1.9c-1.19-.88-2.42-1.79-2.61-3.6,0-.42-.1-.83-.16-1.22-.27-1.95-.54-3.8,1.35-5.68a7.31,7.31,0,0,1,1.89-1.36c.65-.35.77-.42.71-1.86a18.22,18.22,0,0,1,.11-2.7,6.48,6.48,0,0,0-.24-3,.69.69,0,0,1,1.32-.4,8,8,0,0,1,.28,3.55,16.59,16.59,0,0,0-.09,2.51c.08,2.09-.38,2.56-1.45,3.13a6.14,6.14,0,0,0-1.56,1.13c-1.4,1.39-1.22,2.63-1,4.51.06.4.12.83.17,1.27.12,1.21,1,1.84,2.06,2.64a10.85,10.85,0,0,1,2.36,2.19c1.59,2.19.89,5.08.28,7.63-.09.36-.17.71-.25,1.06A.69.69,0,0,1,1115.35,718.3Z"/><path class="cls-23" d="M1122.67,719a.69.69,0,0,1-.69-.67,8,8,0,0,0-.25-1.8,5.42,5.42,0,0,1,.6-4.32,27,27,0,0,1,2.58-3.73c1.67-2.19,3.56-4.67,4-6.82a46.7,46.7,0,0,0,1-12,18.93,18.93,0,0,0-.49-3.13.69.69,0,0,1,.9-1c.36.25.56.52.95,4A49,49,0,0,1,1130.3,702c-.55,2.45-2.55,5-4.3,7.35a26.74,26.74,0,0,0-2.45,3.52,4.09,4.09,0,0,0-.47,3.41,10.33,10.33,0,0,1,.27,2.06.68.68,0,0,1-.67.7Zm7-32.34Zm-.14-.14Z"/><path class="cls-23" d="M1132,719a.69.69,0,0,1-.66-.48c-1-3.4-.48-5.79,1-9.27l.28-.65c1.36-3.18,3.42-8,2.72-11.51a.68.68,0,1,1,1.34-.27c.78,4-1.37,9-2.8,12.32l-.27.65c-1.38,3.24-1.87,5.31-1,8.33a.68.68,0,0,1-.45.85Z"/><path class="cls-23" d="M1124.88,694.59a8,8,0,0,1-4.14-1.52c-1.5-1-.67-3.59,0-5.69.16-.52.31-1,.37-1.28.47-2.53,0-3.54-.48-4a.68.68,0,0,1-.09-1,.69.69,0,0,1,1-.09c1.13.95,1.43,2.66,1,5.25-.07.35-.23.86-.42,1.45-.35,1.11-1.18,3.71-.55,4.12,1.57,1,3.7,1.85,4.49.85a5.48,5.48,0,0,0,.82-5.26.7.7,0,0,1,.36-.91.69.69,0,0,1,.9.35,6.83,6.83,0,0,1-1,6.66A2.64,2.64,0,0,1,1124.88,694.59Z"/><path class="cls-22" d="M1158.47,741.53c2-3.26,7.33-9.06,10.69-9.71s7,.1,6.82,3-4.45,7.23-3.5,9.86,3.78,3.28,3,6-2.22,7-.17,9.32,3.8,3.74,3.9,6.74,3.22.73,3.56-1.47-.87-5.44.43-8,3.36-3.13,2.72-6.79-1-9.11-2.21-12.83-2.16-9-6.14-9.82-5.31-.27-9.14,1.11-5.83,2.52-9.37,3.89"/><path class="cls-22" d="M1149.91,738.79c-3-1.32-4.81-3.82-8.67-2.5s-8.84,4.31-10.37,8.76.39,10.14-.17,14.6-1.84,9.54-.31,13.17,3,6.91,3.11,9.47-.06,1.3,0,3.24a18.37,18.37,0,0,0,4.37-5.44c1.51-2.73,3.85-8.25,3.39-11.64a32.91,32.91,0,0,1-.22-8.07c.19-3.48-1.28-8.54-1.69-12s-1.49-6.33,1.77-7.45,5.22.75,7.72,2.14"/><path class="cls-22" d="M1269.47,697.67a15.74,15.74,0,0,1,1.87,13.1c-1.37,4.85-1.89,14.11-3.8,17.9s-2.22,7.07-5.16,8.32-2.32-2-2.36-4.84-2.68-7.23-2-11.19-.16-13.05,1.83-16.31,4.91-5.88,7.42-6.8,2.91-2.49,4.85-3.13,2.84-.31,4.64-.61c.32.39.91.54,1.19,1a3.74,3.74,0,0,1-1.42.19,14.21,14.21,0,0,0-2.42,0"/><path class="cls-21" d="M1357.12,723.31c-2-4.19-4.76-11.62-9.32-15-7.64-5.6-16.3-9.63-24.78-13.77-2.52.24-4.13.39-6,2.47-7.61,8.52-11,27.81-11,36.63s.33,6.35,4.08,9.38,2.05-3.18,4.88-3.1,4.93,1.47,7.87,1.16,4.1-3.48,4.75-6.13a4.35,4.35,0,0,0,4.51-.35c1.47-1,1.62-3,3.11-3.87s2.5,2.71,3.53,3.43a3.08,3.08,0,0,0,3,.38c1.36-.33,2.88,1.38,4.14,1.71s1.55-1.18,2.9-.59,3.7,2.07,5.16,1.16.23-2.44,1.85-3.19,4,3,4.52-.7S1359.15,727.49,1357.12,723.31Z"/><path class="cls-22" d="M1332.75,693.09c-2.88-1.07-4.44-.85-7-1.7a11.85,11.85,0,0,0-2.51-.48c-1.37-6.55-2.88-15.17-4.34-21.35-2-8.46-8.05-16.72-13.16-21.53s-9.85-4-14.92-2.48-6.87,5.91-9.53,11.41-3.53,15.29-4,23.27c-.2,3.27-.56,10.18-1,15-.57,7-.67,16.85-2.9,24.4-3.77,12.77-6.16,37.13-7.23,48.05s-3.14,20.25-3.48,25.87,2.76,6.06,5.83,2.44,3.39-18.29,3.43-27.08,2.6-19.54,4.31-31.38,4.43-31.81,6.08-45c.15.62.5,3.16.65,3.78.9,3.67,4,6.74,4.41,10a21.33,21.33,0,0,0,3,8.6c1.47,2.27,2,2.83,2.71,5.2.79-2.06.34-.34,1.45-3.23s.93-11.59-1.5-14.81-1.44-6.18-3.8-9.1a18.81,18.81,0,0,0-6.55-4.61c1.64-11.06,1.07-21.31,4.36-32.52,3.48-11.85,13.5-4.81,20.48,4.07,5.7,7.26,9.26,22.42,9.56,32.7-1.8,2.74-3.2,2.36-5.13,5.65s-4.75,9.29-6.58,13.26c1-.63,2.24-.85,3.17-1.76,1.85-1.79,3.2-5.73,5.37-6.94s3.17-2.93,4.31-4.46a31.13,31.13,0,0,1,2.7-3.33c0,.7,0,1.51-.1,2.14a5.39,5.39,0,0,0,.19,2.89c.44,1-.24,2.79.06,4.07a8.76,8.76,0,0,0,.51,1.34c.4-1.91.92-4.93,1.12-6.64s-.24-2.07,0-3.5c0-.17-.13-.76.08-.7a9.59,9.59,0,0,1,1.47,1.19,5.31,5.31,0,0,0,2.39,1.53c1,.22,2.07,1.86,3.25,2.35a8.2,8.2,0,0,0,1.38.37c-1.33-1.5-3.31-3.6-4.61-4.84-1-.94-1-.64-1.93-1.28a17.71,17.71,0,0,1,3.94,1.19,22.66,22.66,0,0,0,4.9,1.74c2.12.46,1.35,3.35,4.91,2.58.81-.18,2.19-.2,3-.46C1338.81,697.05,1335.63,694.17,1332.75,693.09Z"/><path class="cls-23" d="M1317.2,734.61h0a.72.72,0,0,1-.68-.77,8.78,8.78,0,0,1,1.47-4.15,7.36,7.36,0,0,0,1.35-4.35,23.67,23.67,0,0,0-1.5-5.75c-1.24-3.67-2.53-7.47-1.59-10.31a.71.71,0,0,1,.91-.46.73.73,0,0,1,.46.92c-.78,2.38.48,6.1,1.6,9.38a24.26,24.26,0,0,1,1.57,6.17,8.81,8.81,0,0,1-1.54,5.14,7.27,7.27,0,0,0-1.28,3.49A.74.74,0,0,1,1317.2,734.61Z"/><path class="cls-23" d="M1329.21,731.65h0a.74.74,0,0,1-.68-.78,8.34,8.34,0,0,1,1.07-3.58,5.86,5.86,0,0,0,.68-4.28c-.31-2.09-1.66-4.81-3.08-7.69a37.84,37.84,0,0,1-3.38-8.31.72.72,0,0,1,.56-.86.72.72,0,0,1,.86.57,37.24,37.24,0,0,0,3.26,7.95c1.47,3,2.87,5.81,3.22,8.12a7.29,7.29,0,0,1-.83,5.17,6.87,6.87,0,0,0-.91,3A.74.74,0,0,1,1329.21,731.65Z"/><path class="cls-23" d="M1343.27,728.51a.73.73,0,0,1-.72-.66.74.74,0,0,1,.66-.8c2.87-.27,4.45-.66,4.67-1.16s-.85-2.06-2-3.69c-.7-1-1.49-2.12-2.34-3.46a26.29,26.29,0,0,0-8-8.43c-1.23-.9-2.62-1.93-4.26-3.36a.74.74,0,0,1-.07-1,.73.73,0,0,1,1-.07c1.6,1.38,3,2.39,4.17,3.29a27.66,27.66,0,0,1,8.33,8.82c.82,1.31,1.61,2.42,2.3,3.4,1.69,2.4,2.72,3.86,2.13,5.14-.51,1.12-2,1.65-5.86,2Z"/><polygon class="cls-24" points="728 724.85 767.28 807 884 625 769.52 767.82 728 724.85"/><polygon class="cls-25" points="1615 780 1551.6 712.52 1610.27 650.22 1605 647.05 1545.9 706.44 1487.05 643.8 1483.56 648.87 1540.01 712.37 1474.01 778.69 1482.16 786.26 1545.71 718.78 1606.94 787.67 1615 780"/><text class="cls-26" transform="translate(1415.84 735.09)">=</text><text class="cls-26" transform="translate(658.84 751.09)">=</text><text class="cls-27" transform="translate(235.52 366.7)"> <tspan class="cls-28"><tspan x="0" y="57.67">Brudgommen skal giftes med sit livs kærlighed lige om lidt, men han har glemt </tspan><tspan x="0" y="115.34">at sørge for brudebuketten. Hjælp gommen med at samle blomster til en brudebuket, </tspan><tspan x="0" y="173.01">inden bruden når hen til kirken!</tspan><tspan class="cls-29" x="541.16" y="173.01" xml:space="preserve">   OBS. Lad ikke de pæne blomster falde på jorden!</tspan></tspan></text><text/><text/><text/><text class="cls-30" transform="translate(682.49 296.26)">Hvor er blomsterne?!</text><ellipse class="cls-31" cx="1695.13" cy="927.75" rx="146.36" ry="90.43" transform="translate(-212.3 618.08) rotate(-19.47)"/><path class="cls-32" d="M1772.39,871.21l-5.13-14.6-47.28,14,4,12.54,13.21-2,11.95,38.72-1.73,4.39L1722.8,911s6.33-12.2,4.94-17.44-6.22-15.6-12.35-15.17-22.19,5.82-22.19,5.82l12.25,59.83-29.56-55.48-14.32,3.92,0-.08-43.15,13.71c-3.57,0-2.67,1.17-6.39,2.59s-6.33,10.53-7.77,15.11a17.63,17.63,0,0,0,2.1,14.46c2.76,4.07,7.86,4.13,12.14,4.43s9.52,3.9,10.77,7.77-4.39,7.18-7,9-6,.63-8.75-.21c.93,5.26,2.18,10.59,3,15.87,3.31.87,1.29,1.61,5.83,2.55s13.68-2.7,18.48-7.42,2.84-14.88,1.21-21.62-12.32-13.62-15.77-19.24c-3.33-5.45-3.26-9.86,1.19-13.76l7.86-.55L1651,965.17s13.37,1.91,13.88-1S1652.23,913,1652.23,913l13.89-4.41a37,37,0,0,1,1.13,5.64c.35,5-1.13,49-1.13,49l15.74-3.95-1.3-18.7,5.1-1.58,7.41,16.5,14.1-3,0,.26,14.49-1-6-25.23,28.49,11.9,23.06-8L1753.46,880Zm-93.51,60.19-3.23-18.47L1684,930Zm36-30.52c-.65,5.38-3.64,6.74-3.64,6.74l-4.11-14.75s2.92-2.35,5-2.49S1715.55,895.49,1714.9,900.88Z"/><path class="cls-33" d="M1624.75,978.43a9.69,9.69,0,0,1-2.63-.13c-2.66-.55-3.24-1.06-3.8-1.56a4,4,0,0,0-2.06-1l-.4-.1-.06-.41c-.46-3.17-1.11-6.41-1.73-9.54-.42-2.07-.85-4.22-1.22-6.32l-.17-1,1.37.43c2.6.81,5.56,1.73,7.81.17l.83-.57c2.6-1.74,6.94-4.66,6-7.71-1.14-3.55-6-7-10.21-7.34l-.85-.06c-4.23-.27-9-.59-11.77-4.65a18.31,18.31,0,0,1-2.18-15l.31-1c1.62-5.2,4.07-13.06,7.83-14.5a10.81,10.81,0,0,0,2.75-1.48,5.39,5.39,0,0,1,3.77-1.16l43.63-13.86,0,.11,14.25-3.91L1704,939.92l-11.49-56.12.53-.18c.66-.22,16.2-5.42,22.34-5.85,3-.21,5.58,1.79,7.66,4.5l-3.82-12.1,48.48-14.34,5.51,15.71-19,8.82L1768,930.75l-23.84,8.3-27.57-11.53,5.86,24.76-15.77,1.1,0-.18-14,2.95-7.39-16.45-4.09,1.26,1.31,18.73-17,4.28a3.23,3.23,0,0,1,0,.34c-.57,3.22-11.31,2-14.59,1.48l-.39-.06-.12-.37-15.63-49.6-7.14.5c-3.9,3.52-4.18,7.48-.91,12.82,1.34,2.18,3.83,4.59,6.47,7.14,4.1,4,8.35,8.06,9.37,12.28,1.9,7.85,3.46,17.48-1.37,22.22C1637,974.82,1629.8,978.08,1624.75,978.43Zm-7.77-3.78a4.74,4.74,0,0,1,2.17,1.15c.46.4.9.79,3.23,1.27,4.39.91,13.27-2.68,17.91-7.25,4.38-4.3,2.86-13.49,1-21-.93-3.86-5-7.83-9-11.67-2.7-2.61-5.25-5.08-6.67-7.39-3.65-6-3.23-10.59,1.31-14.57l.16-.14,8.56-.59.15.47,15.65,49.69c6.06.83,12.54.82,12.78-.51.34-2.05-7.37-31.6-12.63-51l-.16-.58,15.1-4.8.16.64a34.94,34.94,0,0,1,1.16,5.76c.32,4.63-.9,41.93-1.11,48.2l14.43-3.62-1.3-18.67,6.11-1.89,7.42,16.54,14.23-3,.07.35,13.19-.92-6.08-25.72,29.4,12.29,22.27-7.75-13.8-50.28,18.9-8.79-4.74-13.5L1720.77,871l3.6,11.42,13.21-2,12.17,39.44-2.07,5.26L1722,911.27l.29-.55c.06-.12,6.21-12,4.89-17-1.26-4.78-6-15.11-11.7-14.71-5.36.38-18.68,4.69-21.5,5.62l13,63.54-31.37-58.87-14.39,3.94,0-.06-42.66,13.56h-.1a4.34,4.34,0,0,0-3.15.92,11.76,11.76,0,0,1-3,1.63c-3.19,1.22-5.72,9.34-7.07,13.7l-.32,1a17,17,0,0,0,2,13.92c2.41,3.55,6.87,3.85,10.82,4.11l.85.06c4.64.32,10,4.23,11.32,8.2s-3.56,7.21-6.44,9.15l-.82.55c-2.56,1.77-5.68,1-8.3.18.32,1.77.67,3.55,1,5.29C1615.9,968.47,1616.52,971.58,1617,974.65Zm36-61.27c1.83,6.73,11.89,44,12.48,50.2l0-.44c0-.44,1.48-44,1.14-48.9a33.06,33.06,0,0,0-1-4.89Zm70.64-2.63,23.4,12.62,1.39-3.53-11.72-38-12.65,1.9a37.11,37.11,0,0,1,4.3,9.65C1729.63,898.23,1724.87,908.26,1723.63,910.75Zm-45.25,21.43-4.12-23.53,10.64,21.8Zm-1.34-15,2.34,13.4,3.72-1Zm33.82-8.71-4.42-15.86.32-.26c.13-.11,3.1-2.47,5.31-2.63a2.07,2.07,0,0,1,1.64.72c1.59,1.67,2.35,6.07,1.82,10.48h0c-.69,5.68-3.87,7.18-4,7.25Zm-3-15.39,3.77,13.51c.83-.7,2.22-2.36,2.64-5.82.53-4.39-.34-8.26-1.48-9.46a.87.87,0,0,0-.64-.33C1710.82,891.1,1708.85,892.38,1707.87,893.11Z"/></svg>