<svg id="Layer_1" data-name="Layer 1" xmlns="http://www.w3.org/2000/svg" width="895" height="515" viewBox="0 0 895 515"><defs><style>.cls-1{fill:#754c24;}.cls-2{fill:#e8c6a7;}.cls-3{fill:none;}.cls-4{fill:#001300;}.cls-5{fill:#e73635;}.cls-6{fill:#fff;}.cls-7{fill:#1d1d1b;}.cls-8{fill:#b29983;}.cls-9{fill:#0071bb;}.cls-10{fill:#75a9dc;}.cls-11{fill:#212121;}.cls-12{fill:#92278e;}.cls-13{fill:#ff0;}</style></defs><path class="cls-1" d="M726.48,39.49a43.92,43.92,0,0,0-9.22-21.19c-6.71-8.63-15-11.91-25.55-14.92-5.17-1.48-13.83-2.77-18.33-.54-16,8-28.09,20.58-31.16,37.74-1.61,9-2.08,14.86.26,23.43.84,3.09,1.56,5.39,4.41,7.75,8.57,7.09,14.26,15.92,25.74,19.36,12.1,3.63,23.41,1.69,34.47-3.93,4.74-2.4,8.21-4,10.85-8.42a64.17,64.17,0,0,0,8-24.34C726.63,49.22,727.3,44.45,726.48,39.49Z"/><path class="cls-2" d="M692.15,107.88c-8.35,5.74-19.91-2.41-29.2-4.48-5.76-1.29-12.18-6.71-12.5-12.17-.92-15.55,9.26-40.64,13-56.66,1.3-5.62,5-8.24,10.86-7.32,9.5,1.47,22.36,4.05,31.64,6.34,5.74,1.42,8.33,4.77,7.11,10.8-3.47,17.17-6.79,37-11.65,53.72C699.66,104,697.32,104.33,692.15,107.88Z"/><ellipse class="cls-1" cx="662.08" cy="36.27" rx="19.26" ry="5.98" transform="translate(523.69 684.73) rotate(-81.09)"/><ellipse class="cls-1" cx="682.03" cy="26.96" rx="8.97" ry="14.95" transform="matrix(0.15, -0.99, 0.99, 0.15, 549.75, 696.57)"/><ellipse class="cls-1" cx="708.73" cy="32.49" rx="10.3" ry="12.29" transform="translate(566.85 727.63) rotate(-81.09)"/><path class="cls-2" d="M665.24,102.79c-1.37,10.95-.1,10.59-2.71,22.46,4.63,1.23,9.36,2.18,14.06,3,1.84-9.74,2.48-13,4.81-22.62A63.52,63.52,0,0,0,665.24,102.79Z"/><path class="cls-3" d="M691.37,83.71h0s0,0,0,0l-.13-.16Z"/><path class="cls-3" d="M676.38,78.69a14.09,14.09,0,0,1,3,.11A14.09,14.09,0,0,0,676.38,78.69Z"/><path class="cls-3" d="M690.13,82.19c.24.29.47.57.69.81l0,0,0,0C690.6,82.73,690.36,82.46,690.13,82.19Z"/><path class="cls-3" d="M688.45,83.05a63.39,63.39,0,0,1-5.94-3A63.39,63.39,0,0,0,688.45,83.05Z"/><path class="cls-3" d="M673.57,78.9c-.38,0-.74,0-1.1,0C672.83,78.94,673.19,78.93,673.57,78.9Z"/><path class="cls-3" d="M671.87,78.93l-.42,0Z"/><path class="cls-3" d="M676.34,78.7l-.79,0Z"/><path class="cls-3" d="M691.29,83.74h0Z"/><path class="cls-3" d="M668.3,75.6s0,.05,0,.08a4.81,4.81,0,0,0,.32,1.27,4.81,4.81,0,0,1-.32-1.27S668.3,75.63,668.3,75.6Z"/><path class="cls-3" d="M675.28,78.77l-1.65.13Z"/><path class="cls-3" d="M681.24,88.32a11.07,11.07,0,0,0-6.75-1.43A11.07,11.07,0,0,1,681.24,88.32Z"/><path class="cls-3" d="M684.29,92.82a.45.45,0,0,1,0,.11A.45.45,0,0,0,684.29,92.82Z"/><path class="cls-3" d="M684.3,92.59a.27.27,0,0,1,0,.09A.27.27,0,0,0,684.3,92.59Z"/><path class="cls-4" d="M691.39,83.71h0s0,0,0,0,0,0-.08,0h-.18a8.29,8.29,0,0,1-2.66-.67,63.39,63.39,0,0,1-5.94-3A14.9,14.9,0,0,0,680.15,79c-.26-.07-.53-.12-.79-.17a14.09,14.09,0,0,0-3-.11h0l-.79,0-.27,0-1.65.13h-.06c-.38,0-.74,0-1.1,0h-.6l-.42,0a3.11,3.11,0,0,1-2.84-2,4.81,4.81,0,0,1-.32-1.27s0-.05,0-.08a1.19,1.19,0,0,1,.09-.15.27.27,0,0,0,0-.13,24.46,24.46,0,0,0-6.13,4.78c-3.77,4.17-8.58,11.27-1,13.64,3.16,1,6-1.3,8.76-2.35-.8-1.72.14-3,1.53-3.68a7.35,7.35,0,0,1,1.64-.61,11.29,11.29,0,0,1,8,1.22,6.76,6.76,0,0,1,2.73,3,3.4,3.4,0,0,1,.33,1.27.27.27,0,0,1,0,.09.66.66,0,0,1,0,.14.45.45,0,0,1,0,.11,1.84,1.84,0,0,1-.72,1.06,13.44,13.44,0,0,0-1,.92C696.58,101.19,699.92,96.59,691.39,83.71Z"/><path class="cls-5" d="M684.29,92.82a.66.66,0,0,0,0-.14.27.27,0,0,0,0-.09,3.4,3.4,0,0,0-.33-1.27,6.76,6.76,0,0,0-2.73-3,11.29,11.29,0,0,0-8-1.22,7.35,7.35,0,0,0-1.64.61c-1.39.74-2.33,2-1.53,3.65,2.71-1.23,4.86-1.89,7.42,0a44.91,44.91,0,0,0,5.11,3.54,11.71,11.71,0,0,1,1-.92,1.84,1.84,0,0,0,.72-1.06A.45.45,0,0,0,684.29,92.82Z"/><path class="cls-5" d="M684.28,92.93a1.84,1.84,0,0,1-.72,1.06A1.84,1.84,0,0,0,684.28,92.93Z"/><path class="cls-5" d="M674.49,86.89a11,11,0,0,0-1.3.21,7.35,7.35,0,0,0-1.64.61,7.35,7.35,0,0,1,1.64-.61A11,11,0,0,1,674.49,86.89Z"/><path class="cls-5" d="M684,91.32a3.4,3.4,0,0,1,.33,1.27,3.4,3.4,0,0,0-.33-1.27,6.76,6.76,0,0,0-2.73-3A6.76,6.76,0,0,1,684,91.32Z"/><path class="cls-5" d="M684.3,92.68a.66.66,0,0,1,0,.14A.66.66,0,0,0,684.3,92.68Z"/><polygon class="cls-6" points="691.39 83.71 691.39 83.71 691.39 83.71 691.39 83.71"/><path class="cls-6" d="M668.29,75.68a4.81,4.81,0,0,0,.32,1.27,3.11,3.11,0,0,0,2.84,2l.42,0h.6c.36,0,.72,0,1.1,0h.06l1.65-.13.27,0,.79,0h0a14.09,14.09,0,0,1,3,.11c.26,0,.53.1.79.17a14.13,14.13,0,0,1,2.36,1.08,63.39,63.39,0,0,0,5.94,3,8.35,8.35,0,0,0,2.66.67h.18l.08,0h0l-.11-.16-.4-.5,0,0c-.22-.24-.45-.52-.69-.81-.43-.5-.87-1-1.32-1.48l-.16-.15c-1.46-1.18-2.9-2.18-4.2-3.41-2.32-2.2-5.62-2.85-8.62-3.5a16.84,16.84,0,0,0-7.41,1.67.28.28,0,0,1,0,.13,1.19,1.19,0,0,0-.09.15S668.29,75.65,668.29,75.68Z"/><path class="cls-6" d="M675.55,78.75l-.27,0Z"/><path class="cls-6" d="M676.38,78.69h0Z"/><path class="cls-6" d="M691.37,83.72l-.08,0C691.34,83.74,691.37,83.74,691.37,83.72Z"/><path class="cls-6" d="M679.36,78.8c.26,0,.53.1.79.17a14.9,14.9,0,0,1,2.36,1.08A14.13,14.13,0,0,0,680.15,79C679.89,78.9,679.62,78.85,679.36,78.8Z"/><path class="cls-6" d="M688.45,83.05a8.29,8.29,0,0,0,2.66.67h0A8.35,8.35,0,0,1,688.45,83.05Z"/><path class="cls-6" d="M668.3,75.6a1.19,1.19,0,0,1,.09-.15A1.19,1.19,0,0,0,668.3,75.6Z"/><path class="cls-6" d="M668.61,77a3.11,3.11,0,0,0,2.84,2A3.11,3.11,0,0,1,668.61,77Z"/><path class="cls-6" d="M672.47,78.94h0Z"/><path class="cls-6" d="M673.63,78.9h0Z"/><path class="cls-6" d="M690.86,83.05l.4.5C691.14,83.38,691,83.2,690.86,83.05Z"/><path class="cls-6" d="M688.81,80.71c.45.48.89,1,1.32,1.48A13,13,0,0,0,688.81,80.71Z"/><path class="cls-6" d="M680.09,50.13c.14,3.63-1.9,8.36-6,8.2s-5.82-4.84-6-8.39,1.3-8.17,5.42-8.13S680,46.51,680.09,50.13Z"/><path class="cls-6" d="M699.77,55.11c-1,3-5.51,6.81-9.08,4.93s-3.46-5.88-2.53-8.75,4.17-5.95,8.18-4.63S700.81,52.14,699.77,55.11Z"/><path class="cls-7" d="M678.1,53.66c.07,1.65-.9,3.81-2.87,3.74s-2.78-2.2-2.85-3.81.61-3.73,2.57-3.71S678,52,678.1,53.66Z"/><path class="cls-7" d="M694.55,57.1c-.65,1.49-2.4,3.12-4,2.45s-1.42-2.83-.78-4.29,2.13-3.13,3.79-2.51S695.2,55.6,694.55,57.1Z"/><path class="cls-2" d="M636.45,33.55c1.78,1.92,2.52,6,6.49,4.33s6.7-7.48,8.19-12.25a107.05,107.05,0,0,1,8.08-17.47c2.24-3.64,6.13-5.43,8.51-5.19s4.07,1.07,4.66,2.6,1.36,1.81,2.47,3.16,2.85,2.71,1.3,5-3.95,7.5-6.64,9.15-5.24,4.4-5.63,7.7-1.13,8.51-2.28,11.51S661,49.37,658.31,51s-8,1.79-10.73,1.65-4.46-1.54-6.59-.92a10.39,10.39,0,0,1-4.9.49C636.33,45.94,636.84,39.72,636.45,33.55Z"/><path class="cls-2" d="M736.45,71.46c-3.47-1.34-9.73.31-10.87-4.74s3-11.34,2.8-16.61-.89-11.26-3.13-15.66-6.73-7.89-10.13-9.8-4.85-2.73-7.79-2.19A14.22,14.22,0,0,0,700.09,26c-1.7,1.67-5,5.43-1.84,6.94s7.35.34,9.94,4,5.37,2.77,5.61,8.15S710.1,60.81,709,65.56s-1.56,7.55,1.21,9.87,5.58.79,8.26,1.47,4.81.16,7.09,1.35,4.06,2.5,6.19,3.82l5.57.73c1-3.18,2-6.38,3-9.55C739,72.58,738,72.07,736.45,71.46Z"/><path d="M701.74,43.45a.38.38,0,0,1-.17-.08S698.8,41,692.5,40.73a.33.33,0,0,1-.31-.35.32.32,0,0,1,.34-.32c6.56.33,9.36,2.71,9.48,2.81a.33.33,0,0,1,0,.47A.32.32,0,0,1,701.74,43.45Z"/><path d="M682,38.93a.3.3,0,0,1-.21-.12c-3.31-4.12-9.91-1.55-10-1.52a.33.33,0,0,1-.24-.62c.07,0,7.12-2.78,10.74,1.73a.33.33,0,0,1-.05.46A.32.32,0,0,1,682,38.93Z"/><path d="M681.83,71.44a14.86,14.86,0,0,1-3.43-1.08c-2.2-.92-2.63-2.51-3.13-4.34a.33.33,0,0,1,.23-.41.34.34,0,0,1,.41.23c.49,1.81.85,3.11,2.74,3.9,2.09.88,4.48,1.72,6.36.55a4.93,4.93,0,0,0,2.08-3.12,3.77,3.77,0,0,0-.38-2.89,13.71,13.71,0,0,0-1.09-1.47A7.46,7.46,0,0,1,684,59.88a7.2,7.2,0,0,1,1.19-6.82.33.33,0,1,1,.55.37,6.65,6.65,0,0,0-1.11,6.25,6.9,6.9,0,0,0,1.5,2.71,18.23,18.23,0,0,1,1.13,1.52,4.44,4.44,0,0,1,.47,3.41,5.58,5.58,0,0,1-2.38,3.53A4.92,4.92,0,0,1,681.83,71.44Z"/><path class="cls-8" d="M658.34,17.19l-.06,0a.33.33,0,0,1-.2-.42c.8-2.2.81-2.25,1.26-2.7s1.15-1.16,3.5-4.9,2.33-3.72,2.7-3.64.32.33.35.52.07.41.21.47.67.13,2.2-.84a.33.33,0,1,1,.36.56c-1.37.86-2.27,1.15-2.84.89a1,1,0,0,1-.51-.61c-.34.5-1,1.48-1.91,3-2.38,3.8-3.17,4.6-3.59,5s-.34.35-1.1,2.45A.34.34,0,0,1,658.34,17.19Z"/><path class="cls-8" d="M662.07,19.12a.35.35,0,0,1-.14-.06.34.34,0,0,1-.07-.47c0-.05,3.82-5.08,5-8a4.52,4.52,0,0,1,4-3.17.33.33,0,0,1,.32.34.32.32,0,0,1-.34.32c-.1,0-2.27,0-3.4,2.76-1.25,3-5,8-5.12,8.17A.34.34,0,0,1,662.07,19.12Z"/><path class="cls-8" d="M664.39,21.5l-.12,0a.33.33,0,0,1-.11-.46,26.61,26.61,0,0,1,2.6-3.1A19.5,19.5,0,0,0,669,14.72c1.14-1.88,2.32-3.83,4.09-4.89a.33.33,0,0,1,.46.11.34.34,0,0,1-.11.46c-1.64,1-2.77,2.85-3.87,4.66a20.82,20.82,0,0,1-2.29,3.29,27.24,27.24,0,0,0-2.52,3A.35.35,0,0,1,664.39,21.5Z"/><path class="cls-9" d="M618,295.82a39.15,39.15,0,0,0,1.71-10.66c.83-13.66,3.52-29.85,6.76-44.82-5.2-11.88-6.31-37.8-5.27-48.27h0c0-.51.3-2.73.36-3,.29-1.21.89-5,1.36-6.46,1.66-5.16,4.19-12.84,4.07-17.35-.15-5.78,4.83-2.53,5.89-7.07.7-3-.91-4.53-2.57-6.88a12.3,12.3,0,0,1-2.32-3.87,22.29,22.29,0,0,1,.29-14.57A39.74,39.74,0,0,1,636,120.11c-3.43-.1-5.39.64-6.72,3.9,1.33-3.26,3.29-4,6.72-3.9.44-.5,1-1,1.43-1.43a.5.5,0,0,0,.1-.21c-.67-10.39-6.37-5-13.57-9.88-8.41-5.64-17.48-5.17-26.25-9.06s-14.65-17-17.37-23.7-7.94-9.6-1.42-12.79,11.24-.38,19.91-1.82,22.65-.17,33,.19,8.22-4.07,7.07-12.69-1.14-16.54-7.17-23.78c-19.31-.16-77.54-11.42-90.34,1.86S539.38,42,540,57.53a118.2,118.2,0,0,0,13.24,48.14c7.6,14.07,19.42,28.05,31.09,38,9.61,8.2,31.71,40.46,31.71,40.46h0c-1.78,14.64-5.29,21.63-9.42,35.49-3,9.92-5.76,24.59-8.44,36.25-2.36,10.24-7.21,24.32-10.11,34s0,13.08,5.76,18.82c4.78,4.77,7.09,5.16,12.85,8.16,3.26,1.7,8.81,3.33,12.7,4.49C615.75,313.65,615.91,304.28,618,295.82Z"/><path class="cls-6" d="M681.25,240.43c.56-22.44,7.09-52.32,11.36-71.89,2.34-10.75,3.57-16.82,4.78-22.85,0-.52,0-1,0-1.49-6.44-.12-15.77-5.78-17.73-12.39-1.93,2-4.92,2.76-8.14,2.24a10.2,10.2,0,0,1-6.78-3.8c-4.17,4.67-13.06,6.62-19.4,6.15.12,1.29.22,2.59.29,3.88,1.3,8.07.78,16.38-1.82,28.45-5.09,23.6-13.75,47.8-18.43,71.09l-.12-.33a277.37,277.37,0,0,0-6.11,45.38c-.27,6.87-.55,7.19-1.58,10.33-2,6.21-1.12,22.63,1.73,25.8.66.16,1.33.32,2,.46h0c14.56,3.22,31.4,3.6,47,3.83a7.89,7.89,0,0,0,.58-1.7C675,296.17,677.93,268.28,681.25,240.43Z"/><path class="cls-10" d="M712.46,152.84a11.62,11.62,0,0,0,.77-6c-3.75-3.13-6.06-6.5-6.51-11.42h0c-1.41,5.64-2.53,9.33-8.62,10.83a1.49,1.49,0,0,1-1.17,0c-.4,2.57.17-1.52-.35,2.09-1.26,8.74-2.21,11.52-4.81,23.15-4.72,21.15-10.86,47.35-11.45,70.21,1.57-13.08,3.46-26.87,5.64-40.13-2.2,13.36-4,26.82-5.67,40.28,0,.37,0,.74,0,1.11,6-7.72,11.46-15.66,15.24-24.72s6.37-20.33,9.3-29.13-.72-4.91-2.82-10.64-1.67-9.81.34-14.9S710.2,157.66,712.46,152.84Z"/><path class="cls-10" d="M646.84,143.43a35.19,35.19,0,0,0-1-4.08,17.07,17.07,0,0,1-3.47-.74c-3.77-1.63-5.68-3.87-6.23-7.78-.4-2.89.19-5.43.32-8.26a13.81,13.81,0,0,1,.9-3.66,6.79,6.79,0,0,0-.92-.13,40.41,40.41,0,0,0-8.79,12.66c-2.15,5.37-2,10-.7,15.31.43,1.81,1.61,2.9,2.43,4.18,1.58,2.48,3.45,4.36,2.57,7.27-1.32,4.41-5.65,2.05-6.06,7.68a69.46,69.46,0,0,1-3.55,15.75c-.87,3.28-1.51,6.42-2.39,9.61A114,114,0,0,0,624.74,242c6.41-28.14,15.9-55.15,21.43-83.63A50.35,50.35,0,0,0,646.84,143.43Z"/><path class="cls-9" d="M814,91.84c-2.21-4.8-8.85-8.47-15.37-11a37.7,37.7,0,0,0-13.66-4.18l-1.49-.32L739.33,65.41l-9.86,20.35A5.76,5.76,0,0,0,728,88.71a5.3,5.3,0,0,0,0,1.82c-.12,1,.43,2.18,1.84,3.58A13.64,13.64,0,0,0,736,97.84c10.29,4,26.35,2.65,34,6.06l.6.3.23.12.22.11a7.22,7.22,0,0,1,2.13,1.77c1,1.27,1.92,2.47,2.81,3.59.21,1.93-.71,4.09-1.73,6.89-.58,1.61-2.44,3.37-4.87,5.09-6.57,3.61-13.54,6.55-17.51,9.11l-.72.3c-7.66-4.32-17.51-7.83-23.14-8.71-8.72-1.37-16.77,2.08-19.91,8a10.81,10.81,0,0,0-.51,1.09,11.16,11.16,0,0,0-.74,2.63,10.88,10.88,0,0,0-.14,1.79v0h0c0,4.31,2.4,8.42,6.29,11.41a10.92,10.92,0,0,1-.86,5.81c-2.17,4.82-8.4,5.29-10.37,10.38s-2.42,9.15-.34,14.83,6,1.65,3.1,10.47-5.45,20.23-9.09,29.29-9.36,17.52-15.12,24.62l0-1.1c-3.26,27.52-6.19,55.07-12.18,82.17a7.52,7.52,0,0,1-.58,1.68c7.21.12,14.16.21,20.49.54,7.83.39,11.82-.65,11.35-8.3-.45-7.28-1.66-12.86-2.43-20.38-1.64-16.07,3.64-31.36,4.82-46.65.87-11.14,4.79-31.56,5.5-38.8.91-9.36,4.22-23.41,6.6-36.27,1.88-.77,3.43-2.56,6.53-2.67,13.92-.5,32-5.73,42.42-10.67,8.8-4.17,17.49-6.78,22.19-10.1a11.67,11.67,0,0,0,2.1-1.35c3.45-1.32,11.87-10.23,16.41-16.4a109.46,109.46,0,0,0,6.88-10.82c2-2.52,4-4.94,5.53-7C823.66,106.38,818.77,102.26,814,91.84Z"/><path class="cls-4" d="M701.64,121.4c-6.81-2.38-16,1.39-21.62,6.34-2.21-2.81-4.55-4.51-8-5a11.58,11.58,0,0,0-7.57,1.5c-3.44-6.76-10.17-9.39-16.44-12.57-6-3-10.33,4.77-11.85,7.55h0a9.22,9.22,0,0,0-1.15,6c.22,3.46-.23,4.13.54,8.2.49,2.55,1.84,6.73,7.84,6.65,1.39,0,17.61-1.25,19.4-5.86,2.63,1.82,4.22,3.31,7.12,3.71a11.16,11.16,0,0,0,8.38-2.18c4.58,7.07,18.52,12.48,18.67,12.12a4,4,0,0,0,1.19-.12c4.89-1.09,9.48-8.12,9.55-12.31C707.76,129,707.92,123.6,701.64,121.4Zm-3.34,10.09h0l.31.48Z"/><path class="cls-11" d="M671.37,137a.33.33,0,0,0-.27-.38h0a.33.33,0,0,0-.38.27c-8.81,52.66-21.8,115-21.94,115.62l-7.58,71.38a.32.32,0,0,0,.28.36h0a.33.33,0,0,0,.37-.29l7.58-71.35C649.57,252,662.56,189.7,671.37,137Z"/><path class="cls-8" d="M719.78,34.89a.3.3,0,0,1-.21-.12l-3.91-5.09c-2.11-2.75-6-2.77-6-2.77a.34.34,0,0,1,0-.67c.17,0,4.23,0,6.53,3l3.91,5.09a.33.33,0,0,1-.06.47A.32.32,0,0,1,719.78,34.89Z"/><path class="cls-8" d="M716.24,36a.34.34,0,0,1-.28-.38c-.2-.73-5.72-6-10-7.29a.33.33,0,1,1,.2-.63c4.25,1.3,10.62,7,10.46,8A.34.34,0,0,1,716.24,36Z"/><path class="cls-8" d="M712.37,37.09a.33.33,0,0,1-.2-.11c-4.19-5-8.53-6.3-8.58-6.31a.33.33,0,1,1,.18-.64c.18,0,4.58,1.3,8.91,6.52a.33.33,0,0,1,0,.47A.34.34,0,0,1,712.37,37.09Z"/><path class="cls-12" d="M3.24,250.59c-3.35,13-1.21,16.84,3,33.09s21.54,57.9,26.49,72.9S36.28,376.25,45,382.12s12.56,1.52,21.31-.53,5.41-24.49,1.59-31.71S57.27,326.11,56.61,319s-3.23-8.51,3.77-7.59S70.82,319.46,72,329.14s4.22,34,14.83,40.15,42.72.56,39-13.51-14.1-39.64-16.24-57.08S100.26,256.17,92.56,243,76.32,232,67.09,229.46s-12.75-3-19.11,1.11-3.92,9.23-2,16.12S56.76,270.79,58.52,276s4,10.59-.44,9.13-3.54-6.23-7.46-12.44-5.8-23.2-14-30S6.59,237.59,3.24,250.59Z"/><path class="cls-13" d="M53.18,386.56c-2.65,0-5.53-.82-9-3.2-6.81-4.6-7.9-8.75-9.9-16.27-.75-2.83-1.6-6-2.92-10-1.91-5.79-5.76-15.79-9.84-26.38-6.6-17.15-14.08-36.58-16.68-46.61-.58-2.24-1.12-4.25-1.62-6.08C.08,266.54-1.2,261.8,1.79,250.22c1.37-5.32,5.67-9.4,12.13-11.48,8.32-2.69,18.51-1.47,23.69,2.84,5.54,4.6,8.22,13.13,10.58,20.66,1.23,3.9,2.38,7.58,3.7,9.68a32.21,32.21,0,0,1,3.17,6.91c1,2.95,1.58,4.28,3.48,4.9a3.65,3.65,0,0,0,.65.16c.08-1.08-.95-4.07-1.58-5.91l-.51-1.48c-.71-2.1-2.72-6.44-4.85-11-3.1-6.68-6.61-14.24-7.74-18.38-.21-.75-.43-1.49-.63-2.2-1.7-5.82-3.31-11.32,3.29-15.58,6.78-4.38,10.74-3.87,20.31-1.29a58.92,58.92,0,0,0,6,1.17c6.92,1.12,14.08,2.27,20.42,13.08,8.2,14,15.22,39.58,17.28,56.24,1.39,11.37,6.31,26.17,10.66,39.23,2.19,6.59,4.26,12.82,5.54,17.66,1.12,4.25-.47,8.17-4.6,11.32-8.71,6.66-28.21,8.72-36.61,3.86-11.22-6.48-14.26-30.77-15.56-41.15v-.1c-1.28-10.18-4.77-15.72-10.37-16.45a17.77,17.77,0,0,0-3.07-.23c0,.41.18,1.1.29,1.68a38.58,38.58,0,0,1,.7,4.51c.61,6.58,7.05,22.69,11.09,30.34,3.35,6.33,5.93,21.77,2.5,29.32a7.44,7.44,0,0,1-5.07,4.55A54.07,54.07,0,0,0,61,384.79,23.42,23.42,0,0,1,53.18,386.56ZM23.25,240.32a27.65,27.65,0,0,0-8.41,1.27c-3.15,1-8.66,3.59-10.15,9.38C1.91,261.78,3,266,6.07,277.2c.5,1.84,1,3.85,1.63,6.11,2.55,9.87,10,29.21,16.57,46.28,4.09,10.63,8,20.66,9.89,26.52,1.35,4.1,2.25,7.49,3,10.21,2,7.49,2.81,10.58,8.68,14.55s9,2.89,14.15,1.09a57.55,57.55,0,0,1,6-1.83,4.55,4.55,0,0,0,3-2.88c2.93-6.44.6-21-2.42-26.67C63,344,55.83,326.85,55.12,319.12a38.73,38.73,0,0,0-.66-4.2c-.39-1.93-.67-3.32.33-4.38s2.58-1.06,5.78-.64c8.88,1.17,11.95,11,12.95,19.06l0,.1c1.13,9.08,4.15,33.19,14.08,38.93,6.8,3.92,24.83,2.81,33.29-3.65,3.13-2.39,4.32-5.14,3.52-8.18-1.25-4.74-3.31-10.93-5.49-17.48-4.39-13.19-9.36-28.14-10.79-39.8-2-16.37-8.88-41.45-16.89-55.09-5.62-9.59-11.5-10.54-18.31-11.64a61,61,0,0,1-6.25-1.24c-9.43-2.54-12.21-2.75-17.91.92-4.51,2.91-3.84,6-2,12.22.21.73.43,1.47.64,2.24,1.07,3.9,4.53,11.35,7.57,17.92,2.26,4.87,4.21,9.07,5,11.34.17.48.34,1,.5,1.45,1.44,4.16,2.57,7.45.92,9.12-.84.85-2.1,1-3.75.46-3.39-1.11-4.31-3.72-5.38-6.75a29.29,29.29,0,0,0-2.88-6.31c-1.52-2.43-2.68-6.11-4-10.39-2.24-7.12-4.78-15.2-9.63-19.24C32.91,241.57,28.19,240.32,23.25,240.32ZM59.41,283.9Z"/><path class="cls-12" d="M190.67,207.22c-10.06-5.87-29.32-7-39.78-5.16s-13.79-.41-8.44,12.21,20.5,38.95,24.93,53.16,16.1,35.6,13.74,46.13-12,6.21-14.1.75,1.42-18.5-6-22.87-25.05-10.26-31.91-3.23-3.43,12.23-.66,22.13,4.18,33.74,19.45,36.57,41,7.77,54.88.3,18.86-8.64,18.66-27.12-9.82-58.8-15.22-75.75S201,217.14,190.67,207.22Z"/><path class="cls-13" d="M182.42,352.63c-11.92,0-24.85-2.4-34-4.11l-.71-.13c-13.41-2.49-16.86-19.63-19.14-31-.53-2.62-1-4.88-1.49-6.68-.45-1.61-.91-3.08-1.36-4.5-2.3-7.29-4-12.56,2.4-19.07,3.37-3.46,9.29-4.53,17.1-3.09a54.76,54.76,0,0,1,16.65,6.07c5.57,3.29,5.73,10.61,5.86,16.49.06,2.83.12,5.5.74,7.13,1,2.71,4.23,4.93,6.82,4.72s3.9-3,4.42-5.26c1.52-6.8-3.58-19.38-8.09-30.48-2.18-5.35-4.23-10.41-5.62-14.88-2.7-8.64-9.52-22-15.54-33.84-3.74-7.35-7.28-14.29-9.35-19.17-2.36-5.57-3.33-8.79-2.1-10.93,1.13-2,3.52-2.26,7.14-2.71,1.33-.16,2.84-.35,4.53-.64,10.22-1.78,30.08-.91,40.79,5.34l.29.22c7.87,7.58,9.94,15.55,12.56,25.63.93,3.59,2,7.66,3.41,12.12,5.22,16.37,15.07,57,15.29,76.18.2,18.06-4.71,20.66-16.57,26.93l-2.88,1.53C197.86,351.57,190.36,352.63,182.42,352.63Zm-43.58-66.15c-3.57,0-6.68.79-8.63,2.78-5.1,5.23-3.88,9.08-1.68,16.07.46,1.45.93,2.94,1.39,4.6.54,1.91,1,4.22,1.54,6.9,2.25,11.18,5.33,26.49,16.75,28.61l.71.13c14.94,2.78,39.94,7.42,53.18.31l2.9-1.54c11.64-6.15,15.15-8,15-24.24-.21-18.65-10.12-59.53-15.15-75.3-1.45-4.54-2.52-8.65-3.46-12.27-2.58-9.95-4.45-17.15-11.6-24.11-10-5.73-29.15-6.53-38.61-4.89-1.77.31-3.32.5-4.68.67-2.43.3-4.52.56-4.91,1.23-.71,1.23,1.45,6.34,2.27,8.26,2,4.78,5.54,11.68,9.26,19,6.07,11.91,12.95,25.42,15.72,34.31,1.36,4.35,3.39,9.35,5.54,14.64,4.9,12.07,10,24.55,8.24,32.27-1.41,6.25-5.07,7.44-7.13,7.59-3.89.29-8.32-2.69-9.84-6.63-.81-2.12-.87-5-.94-8.14-.12-5.41-.25-11.53-4.39-14C155.19,289.72,146.08,286.48,138.84,286.48Z"/><path class="cls-12" d="M399.67,269.31c12.31,23.26,58.79,5.59,73.42-1.9s9.25-10.76,7.69-19.9-.12-12.57-9.83-18.17-45.33,22.46-48.66,2.11-2.51-44.64-8-65.93-46.09-38.93-47.89-11S387.35,246.05,399.67,269.31Z"/><path class="cls-13" d="M424.05,282.46c-11.1,0-20.83-3.23-25.71-12.45h0c-6.57-12.41-15.42-34.89-22-55.91-4.72-15.06-12.48-42.83-11.39-59.7.6-9.36,5.46-14.94,13.69-15.71,13.06-1.22,33.17,11,37.14,26.46,3.28,12.78,4.31,26.58,5.32,39.92.69,9.23,1.34,17.94,2.68,26.14.43,2.63,1.45,4.37,3.1,5.32,4.78,2.73,14.66-1.1,23.37-4.49,9.11-3.53,17-6.59,21.46-4,8.68,5,9.16,8.77,10,15,.16,1.24.34,2.65.6,4.19a42,42,0,0,0,1.21,4.86c1.92,6.47,2.42,10.43-9.69,16.63C463.49,274,442,282.46,424.05,282.46ZM401,268.61c11.57,21.85,56.57,5.06,71.42-2.54,10.48-5.37,9.76-7.79,8.18-13.11a44.87,44.87,0,0,1-1.29-5.2c-.27-1.61-.46-3-.62-4.32-.77-6-1.09-8.54-8.48-12.8-3.23-1.87-11.18,1.22-18.87,4.2-9.8,3.8-19.93,7.73-25.94,4.3-2.46-1.41-4-3.91-4.58-7.45-1.36-8.32-2-17.1-2.72-26.39-1-13.22-2-26.89-5.23-39.41-3.53-13.78-22.13-25.33-33.95-24.21-6.68.62-10.48,5.09-11,12.91-1.74,27,20.41,90.12,33.06,114Z"/><path class="cls-12" d="M192.08,390.12c-24.34,10.05-37.74,28.32-39.1,53.67s22.43,54.36,41.69,62.5,44.4,7.15,56.93-1.83,16.26-18,17.27-31.27,3.07-25.66-10.52-34.47S211.2,440.88,210,452.94s16.51,12.65,15.27,15.6-.17,14.76-15.19,3-17.74-39.66,7.13-44.34,27.85-12.45,30-21.46,3.14-15.83-7.33-19.62S216.42,380.07,192.08,390.12Z"/><path class="cls-13" d="M223.14,513.36a75.81,75.81,0,0,1-29.06-5.69c-20.81-8.8-44-38.66-42.59-64,1.38-25.73,15.22-44.73,40-55h0c24.55-10.13,38-7.9,48.84-4,12.27,4.44,10.15,13.44,8.28,21.37-2.34,9.92-6.12,17.88-31.16,22.6-9,1.68-14.9,6.79-16.75,14.39-2.28,9.4,2,20.87,10.26,27.29,6.31,4.92,9,5,10,4.61,1.45-.54,1.91-2.87,2.28-4.75a18.11,18.11,0,0,1,.41-1.8,23.44,23.44,0,0,0-2.92-1.31c-4.93-2-13.2-5.35-12.28-14.37.48-4.77,5.08-9.47,12.94-13.25,11.41-5.47,28.51-8.06,37.74-2.08,13.41,8.7,12.44,20.58,11.41,33.16-.08.89-.15,1.79-.22,2.69-1,12.78-4.3,22.65-17.88,32.37C245.37,510.77,234.62,513.36,223.14,513.36ZM192.65,391.51h0c-24,9.9-36.84,27.52-38.17,52.36-1.27,23.72,21.26,52.79,40.77,61,18.42,7.79,43.31,7,55.48-1.67,12.69-9.08,15.71-17.93,16.64-30.16.07-.91.14-1.81.22-2.71,1-12.16,1.86-22.67-10-30.39-8-5.19-24-2.93-34.81,2.27-6.69,3.21-10.89,7.26-11.26,10.84-.63,6.27,4.57,8.91,10.43,11.29,2.52,1,4.19,1.69,4.74,3a2.23,2.23,0,0,1,0,1.72,10.52,10.52,0,0,0-.42,1.72c-.46,2.34-1.15,5.87-4.17,7s-7.06-.5-12.91-5.06c-9.11-7.1-13.88-19.87-11.33-30.36,2.14-8.81,8.92-14.71,19.1-16.63,25.12-4.73,27-12.66,28.8-20.33,2.09-8.89,2.9-14.5-6.38-17.87C229,383.86,216.26,381.76,192.65,391.51Z"/><path class="cls-12" d="M430.32,409.94c10.12,19.31,17.05,12.31,29.19,4.46s-4.14-34.36-7.71-42.59,20.05,10.1,23.06,7.69,11.18-34,8.7-12.42,42.39,51.56,38.78,18.81.3-48.06-21.91-72.25-32.38,13.73-42,22.34-35.88-34.54-49.62-9.08S420.2,390.63,430.32,409.94Z"/><path class="cls-13" d="M443.57,423.89a9.76,9.76,0,0,1-2.43-.31c-4.23-1.09-8.09-5.2-12.15-12.94h0c-1.25-2.4-2.77-5.13-4.37-8-11.77-21.27-29.56-53.41-17.14-76.42,2.62-4.86,5.95-7.77,9.9-8.64,7.84-1.76,16.59,4.73,24.3,10.44,6.58,4.88,12.8,9.49,15.74,6.87,2.31-2.07,4.81-6.2,7.46-10.57,5.43-9,11.59-19.15,20.49-20,5.24-.52,10.52,2.22,16.17,8.38,18.19,19.81,19.22,34.07,20.79,55.64.37,5.18.8,11,1.51,17.45.81,7.45-.69,12.42-4.46,14.78-4.18,2.61-10.73,1.48-18-3.1-10.31-6.52-20.59-19.42-19.32-30.49,0-.24.06-.47.08-.69l-1,2.74c-2.62,7.16-4,10.64-5.34,11.71-1.94,1.56-5.52-.19-13.83-4.86a72.54,72.54,0,0,0-8.73-4.45c.54,1.24,1.39,2.92,2.36,4.85,5.62,11.22,16.1,32.09,4.73,39.45-1,.66-2,1.31-2.95,1.94C452.19,421.05,447.92,423.89,443.57,423.89ZM420.08,320.25a9.33,9.33,0,0,0-2.05.22c-3.1.69-5.69,3-7.91,7.14-11.64,21.57,5.67,52.85,17.13,73.55,1.61,2.91,3.13,5.66,4.4,8.08h0c3.64,6.94,6.89,10.58,10.23,11.43,3.94,1,8.31-1.89,13.83-5.57,1-.64,2-1.3,3-2,9.11-5.89-.58-25.21-5.78-35.58-1-2.05-1.92-3.82-2.5-5.15-.71-1.65-.64-2.88.22-3.66,1.73-1.55,4.71-.1,12.8,4.45,3.38,1.9,8.95,5,10.54,5h0c.94-1.12,3-6.84,4.3-10.3,3.1-8.46,3.82-10.26,5.72-9.8,1.65.4,1.83,2,1,9.12-1.13,9.85,8.4,21.58,17.94,27.61,6.15,3.88,11.68,5,14.8,3.1,2.68-1.68,3.74-5.79,3.06-11.91-.71-6.47-1.14-12.36-1.51-17.56-1.58-21.69-2.53-34.79-20-53.83-4.9-5.34-9.49-7.85-13.66-7.42-7.41.73-13.16,10.23-18.22,18.6-2.77,4.57-5.38,8.89-8,11.25-4.76,4.26-11.93-1.06-19.53-6.69C433.44,325.61,426.2,320.25,420.08,320.25Zm54.06,58Z"/><path class="cls-12" d="M554.64,360.83c10.12,19.31,17.05,12.3,29.2,4.45s-4.15-34.36-7.72-42.59,20.06,10.1,23.06,7.7,11.19-34,8.71-12.43,42.38,51.56,38.78,18.81.29-48-21.91-72.24-32.38,13.72-42,22.33-35.88-34.54-49.62-9.07S544.52,341.51,554.64,360.83Z"/><path class="cls-13" d="M567.9,374.77a9.64,9.64,0,0,1-2.43-.31c-4.24-1.08-8.1-5.19-12.16-12.94h0c-1.25-2.4-2.76-5.13-4.37-8-11.77-21.27-29.55-53.41-17.14-76.41,2.62-4.86,6-7.77,9.9-8.65,7.86-1.75,16.59,4.73,24.3,10.45,6.59,4.87,12.8,9.48,15.74,6.86,2.32-2.06,4.82-6.19,7.46-10.57,5.43-9,11.59-19.15,20.49-20,5.25-.53,10.52,2.22,16.17,8.37,18.19,19.82,19.22,34.07,20.79,55.65.38,5.17.8,11,1.51,17.45.82,7.44-.68,12.41-4.46,14.78-4.17,2.6-10.73,1.47-18-3.11-10.32-6.52-20.6-19.42-19.32-30.49,0-.24.05-.46.07-.68-.35.93-.69,1.88-1,2.74-2.62,7.15-4,10.64-5.34,11.71-1.94,1.55-5.52-.2-13.83-4.86a71.31,71.31,0,0,0-8.73-4.46c.55,1.24,1.39,2.92,2.36,4.86,5.63,11.21,16.1,32.09,4.73,39.44-1,.66-2,1.31-2.95,1.95C576.51,371.93,572.24,374.77,567.9,374.77ZM556,360.13c3.64,6.94,6.89,10.57,10.24,11.43,3.92,1,8.3-1.9,13.83-5.57,1-.64,2-1.3,3-2,9.11-5.89-.57-25.2-5.78-35.58-1-2.05-1.92-3.82-2.49-5.15-.72-1.64-.64-2.87.22-3.65,1.72-1.56,4.71-.1,12.79,4.44,3.38,1.9,9,5,10.55,5h0c.94-1.12,3-6.83,4.3-10.29,3.11-8.47,3.82-10.25,5.73-9.8,1.64.39,1.82,2,1,9.11-1.14,9.86,8.39,21.58,17.94,27.61,6.15,3.89,11.68,5.05,14.79,3.1,2.68-1.67,3.74-5.79,3.07-11.9-.71-6.48-1.14-12.37-1.52-17.57-1.58-21.69-2.53-34.78-20-53.83-4.9-5.34-9.48-7.84-13.66-7.42-7.41.74-13.15,10.23-18.22,18.61-2.77,4.57-5.38,8.88-8,11.25-4.76,4.25-11.93-1.07-19.52-6.69-7.2-5.34-15.35-11.38-21.87-9.93-3.1.69-5.69,3-7.91,7.14-11.63,21.57,5.67,52.84,17.13,73.54,1.61,2.91,3.13,5.66,4.4,8.09Z"/><path class="cls-12" d="M665.09,218.59c1.56,25.57,6.53,65.88,16.52,86.55s25.94,13.07,39.11,11.28,19.16-7.12,28.29-13,8.68-23-1-27.83-20.29,7.13-32,7.69,0-9,5.08-10.81c7.42-3.81,13.14-4.94,17.91-12.39s-4-15.66-10.91-17.8-19.52,7-24.34,2.53-5.93-6-.41-12.71,18.78-2,27.49-8.33,2.65-20.06-1.06-25.89-6.37-8.68-25.59-3.62S664.7,190.6,665.09,218.59Z"/><path class="cls-13" d="M701.7,320.77c-8,0-15.66-3-21.44-15-9.58-19.8-14.89-58-16.67-87.11v-.07c-.3-22,12.12-22.84,25.28-23.78a80.44,80.44,0,0,0,14.87-2c20-5.27,23.25-2,27.24,4.27,4.59,7.2,9.89,21.17.67,27.9-4.57,3.33-10.25,3.83-15.27,4.27s-9.5.83-11.94,3.8c-4.69,5.7-4.28,6.46.27,10.66,2,1.81,6.56.34,11-1.08s9.11-2.9,12.75-1.78c4.8,1.48,10.69,5.79,12.65,11.14a9.77,9.77,0,0,1-.93,8.9c-4,6.18-8.55,8.28-13.87,10.72-1.48.67-3,1.37-4.61,2.2l-.19.08c-3.79,1.34-9.3,6.13-9.13,7.5,0,0,.48.41,2.62.41l.86,0c4.65-.22,9.24-2.42,13.68-4.54,6.29-3,12.8-6.11,19.07-3,4.9,2.43,8,7.79,8.41,14.34.38,6.82-2.38,13-7.22,16.1-1.43.92-2.78,1.83-4.1,2.71-7.17,4.81-13.37,9-24.8,10.52-2.1.28-4.24.71-6.51,1.17A65.4,65.4,0,0,1,701.7,320.77ZM666.59,218.54c1.76,28.83,7,66.54,16.37,85.94,7.86,16.27,19,14,30.86,11.66,2.22-.45,4.51-.91,6.69-1.2,10.75-1.46,16.39-5.25,23.54-10,1.33-.89,2.7-1.81,4.15-2.74,3.93-2.53,6.16-7.67,5.84-13.42-.3-5.45-2.82-9.86-6.74-11.81-5-2.46-10.29.08-16.45,3-4.71,2.25-9.58,4.58-14.83,4.82-1.47.07-5.95.29-6.56-2.81-.82-4.16,7.81-9.69,11-10.86,1.64-.84,3.17-1.54,4.65-2.22,5.09-2.33,9.12-4.17,12.59-9.61a6.75,6.75,0,0,0,.64-6.25c-1.61-4.39-6.72-8.07-10.72-9.3-2.74-.85-6.91.48-11,1.77-5.27,1.68-10.72,3.41-14,.42-5.34-4.93-6.67-7.32-.55-14.77,3.24-3.93,8.46-4.39,14-4.88,4.85-.42,9.87-.86,13.76-3.7,9.3-6.79-1-23.18-1.43-23.87-3.27-5.13-5.07-7.95-23.94-3a83,83,0,0,1-15.43,2.11C675.88,198.76,666.34,199.45,666.59,218.54Z"/><path class="cls-12" d="M802.29,276.62c9,12.31,28.66,4.28,33.74-7.17S819.9,238.79,826.6,233s14.93,19.91,19.86,24.61,8.8,14.78,19.07,11.26,25.69-6.77,27.63-21.23-7.85-28.5-14.8-40.77-9.64-28.6-19.43-38.91c-6.64-8.58-16.22-36.27-29.33-17.44s9,42.42,9.3,61.88c-7.69-13.2-27.44-33.44-38.67-40s-24.36-10.79-30.79.42S793.3,264.32,802.29,276.62Z"/><path class="cls-13" d="M814.77,284.3a16.39,16.39,0,0,1-13.69-6.79c-4.58-6.27-14.43-29.44-22.42-52.75C765.39,186,766.37,175.08,768.14,172a14.43,14.43,0,0,1,9-7.19c6.1-1.61,14.13.48,23.87,6.22,10.21,6,26.52,22.32,35.65,35.14-1.13-5.26-3.37-10.79-5.71-16.55-5.5-13.56-11.18-27.59-2.56-40,3.42-4.91,6.84-7.21,10.56-7.06,6.93.29,12.13,9.32,16.72,17.28a71,71,0,0,0,4.42,7.1c6.22,6.58,9.64,15.47,12.95,24.06a115.71,115.71,0,0,0,6.64,15.09c.91,1.59,1.86,3.21,2.82,4.86,6.53,11.14,13.92,23.76,12.16,36.85-1.85,13.79-15.28,18.12-25.08,21.28-1.23.39-2.42.78-3.55,1.17-8.84,3-13.53-3-17.3-7.77a37.91,37.91,0,0,0-3.28-3.83c-1.85-1.76-3.89-5.74-6.25-10.35-3-5.94-7.21-14.07-10.24-14.66a1.46,1.46,0,0,0-1.35.46c-2.32,2,.76,7.6,4,13.53,4.08,7.4,8.71,15.8,5.78,22.4-3.22,7.26-11.78,13.2-20.35,14.12A19.86,19.86,0,0,1,814.77,284.3Zm-33.35-117a13.85,13.85,0,0,0-3.54.43,11.42,11.42,0,0,0-7.14,5.79c-2.5,4.36,1.62,23.63,10.76,50.29,7.77,22.68,17.65,46,22,52h0c3.85,5.26,9.32,5.87,13.21,5.45,7.46-.8,15.17-6.11,17.94-12.35,2.33-5.25-1.92-12.95-5.67-19.75-3.87-7-7.52-13.64-3.37-17.24a4.48,4.48,0,0,1,3.89-1.13c4.46.86,8.47,8.68,12.34,16.23,2,4,4.16,8.14,5.65,9.55a39.48,39.48,0,0,1,3.57,4.15c3.67,4.69,7.15,9.12,14,6.78,1.14-.4,2.35-.78,3.6-1.19,10-3.23,21.43-6.9,23-18.82s-5.5-24.21-11.78-34.93c-1-1.66-1.93-3.3-2.84-4.91a117.11,117.11,0,0,1-6.83-15.48c-3.21-8.35-6.53-17-12.38-23.13l-.1-.11a71.92,71.92,0,0,1-4.69-7.5c-4-6.93-9-15.56-14.25-15.78-2.56-.13-5.22,1.83-8,5.78-7.69,11-2.32,24.31,2.88,37.14,3.24,8,6.59,16.23,6.69,23.86l.08,5.7-2.88-4.93c-7.35-12.61-27-32.92-38.13-39.51C792.31,169.4,786.26,167.28,781.42,167.28Z"/><path class="cls-12" d="M562.25,167.13c4.27-29.77-20.42-55.82-49.9-55s-17.15,1.67-36.25,6.36,17.24,95.74,25.66,114,8.44,11.05,23.92,9.39,6.29-39.48,1.35-49.1C537.72,175.3,558,196.89,562.25,167.13Zm-47.61,1.75c-6.14,1.53-6.14-10.75-6.14-15.35s10.74-6.14,10.74-6.14,7.68,0,9.21,3.07,3.07,7.67,3.07,10.74S520.78,167.34,514.64,168.88Z"/><path class="cls-13" d="M511.52,246.18c-4.16,0-6.51-3-11.12-13-6.35-13.78-38.75-92.9-29.63-111.82a7.39,7.39,0,0,1,5-4.29,72.09,72.09,0,0,0,11.32-3.55c4.2-1.7,5.61-2.28,25.23-2.84a50.59,50.59,0,0,1,39.29,17.07,49,49,0,0,1,12.14,39.6h0c-2.61,18.15-11.19,18.52-19.5,18.88-5.82.25-11.33.49-15.48,6.71,3.84,8.27,10.68,34,4.63,45.23a9.4,9.4,0,0,1-7.54,5.26,53.72,53.72,0,0,0-9.12,1.84A20.76,20.76,0,0,1,511.52,246.18Zm2.24-132.54-1.37,0c-19.08.56-20.37,1.08-24.2,2.63A75.33,75.33,0,0,1,476.46,120a4.48,4.48,0,0,0-3,2.67c-7.93,16.45,21.13,90.77,29.65,109.26,5.7,12.38,6.65,12.12,12.81,10.45a57,57,0,0,1,9.59-1.92,6.46,6.46,0,0,0,5.22-3.71c5.28-9.8-1.06-35.45-5-43.21l-.39-.75.44-.72c5-8.25,12.1-8.56,18.35-8.83,8-.35,14.41-.62,16.66-16.31h0a46,46,0,0,0-11.4-37.17A47.69,47.69,0,0,0,513.76,113.64Zm-.13,56.87a4.57,4.57,0,0,1-2.88-1c-3.31-2.58-3.75-9.53-3.75-16,0-5.62,10-7.34,12-7.62l.21,0c1.44,0,8.7.19,10.55,3.9,1.56,3.11,3.23,8,3.23,11.41,0,2.16-2,5.14-18,9.13h0A5.49,5.49,0,0,1,513.63,170.51Zm5.72-21.62c-3.81.57-9.35,2.41-9.35,4.64,0,2.87,0,11.6,2.59,13.62a1.74,1.74,0,0,0,1.68.27c15-3.75,15.75-6.22,15.75-6.24,0-2.77-1.46-7.15-2.91-10.05C526.36,149.63,522.08,148.91,519.35,148.89Z"/><path class="cls-12" d="M379.32,278.34c-7.27-6.06-26.92-.49-31.45-6.41s-3.13-8.29.85-11,15.39-.2,16.48-6.83,0-21.43-7.53-25.17-22.35,2.15-28.57-1.88-13.44-11.86-12.37-18.26,20.7-3.76,25.42-6.31,8.06-6.14,6-12.47-.91-15.1-10.82-17.92-25.53-1.62-37.21,1.22-32.7,2.36-42.87,4.8-10.47,1.94-18.42,8.36-9.23,12.64-6.09,30S247,300.3,253.62,313.83s5.52,11.08,12.59,12.53,23.63-9.25,25.5-15.5-8.31-26.15.44-32.5,13.91,6.22,17,15.17,4.74,16.86,17.12,13.54,36.7-.9,47.75-6.25S386.59,284.41,379.32,278.34Zm-87.47-22c-4.58,1.76-9.38-5.48-10.82-9.1s-2.59-11.66,1.92-13.36,9.24,5,10.71,8.61S296.43,254.57,291.85,256.32Z"/><path class="cls-13" d="M267.61,328a8.39,8.39,0,0,1-1.7-.16c-1.05-.22-1.9-.34-2.66-.45-5-.73-5.37-1.42-11-12.89-5.9-12.09-15.1-64.38-19.52-89.5-.6-3.36-1.09-6.17-1.47-8.27-3.23-17.88-1.81-24.64,6.63-31.44,7.33-5.92,8.64-6.22,16-7.93.91-.21,1.93-.44,3.06-.72,5-1.2,12.4-1.7,20.21-2.23,8.22-.55,16.72-1.13,22.66-2.57,11.33-2.75,27.46-4.19,38-1.2,8.52,2.42,9.79,9.07,10.8,14.42a39.51,39.51,0,0,0,1,4.48c2,6.09-.23,10.75-6.73,14.25-2.06,1.11-5.94,1.34-10.43,1.61-5.47.32-13.74.81-14.22,3.63-.9,5.37,5.36,12.64,11.71,16.75,2.7,1.76,7.93,1.27,13,.8,5.56-.51,11.31-1,15.43,1,8.33,4.13,9.54,19.46,8.34,26.76-.87,5.28-6.59,5.94-11.19,6.47-2.33.27-4.75.54-5.92,1.35-2,1.34-2.83,2.31-3,3.34-.21,1.28.6,3.09,2.48,5.53s7.72,2.47,13.44,2.56c6.74.11,13.72.23,17.78,3.61h0a13.28,13.28,0,0,1,4.91,11.94c-.66,5.38-4.48,10.14-10.49,13-6.58,3.19-17.37,3.72-27.8,4.23-7.75.38-15.06.74-20.21,2.12-12.84,3.44-15.6-4.7-18.27-12.57q-.32-.94-.66-1.92c-1.48-4.25-4.94-14.19-9.77-15.7-1.53-.48-3.15-.07-5,1.24-4.79,3.48-2.74,12.7-1.09,20.11,1.07,4.81,2,9,1.2,11.61C291.24,317.65,276.14,328,267.61,328Zm55.85-156a102,102,0,0,0-23,2.79c-6.19,1.5-14.82,2.08-23.17,2.64-7.68.52-14.94,1-19.71,2.16l-3.08.73c-7.2,1.67-7.95,1.85-14.75,7.33-7.43,6-8.57,11.88-5.56,28.57.38,2.1.88,4.93,1.47,8.29,4.06,23,13.55,77,19.27,88.7,5.24,10.74,5.24,10.74,8.71,11.24.76.11,1.7.25,2.83.48,6.5,1.33,22.13-9,23.76-14.46.56-1.89-.32-5.88-1.26-10.1-1.84-8.26-4.12-18.55,2.25-23.18,2.6-1.89,5.16-2.45,7.62-1.68,5.53,1.73,9,9.85,11.71,17.57l.67,1.95c2.73,8,4.53,13.35,14.65,10.64,5.46-1.47,12.93-1.83,20.84-2.22,10.13-.5,20.61-1,26.65-3.94,5.06-2.45,8.28-6.35,8.81-10.71a10.31,10.31,0,0,0-3.85-9.26h0c-3.25-2.71-9.69-2.82-15.91-2.92-6.73-.11-13.08-.22-15.77-3.73-2.47-3.22-3.42-5.64-3.06-7.83.38-2.4,2.27-4,4.25-5.35,1.79-1.22,4.46-1.53,7.28-1.85,4.87-.56,8.1-1.14,8.57-4,1.11-6.72-.19-20.35-6.72-23.58-3.35-1.67-8.67-1.18-13.82-.7-5.82.54-11.32,1.05-14.89-1.27-5.93-3.85-14.29-12.28-13-19.77.88-5.18,9.07-5.66,17-6.13,3.79-.22,7.71-.45,9.19-1.25,5.22-2.82,6.81-6,5.3-10.69a39.1,39.1,0,0,1-1.12-4.84c-1-5.24-1.94-10.18-8.68-12.1A51,51,0,0,0,323.46,172Zm-33.1,86.14c-5,0-9.26-6.62-10.72-10.33-1.12-2.81-2.19-8.35-.55-12.05a5.92,5.92,0,0,1,3.33-3.26c5.72-2.15,11.07,5.59,12.63,9.45,1.14,2.8,2.31,8.68.65,12.51a5.92,5.92,0,0,1-3.31,3.3h0A5.69,5.69,0,0,1,290.36,258.1Zm-5.95-23a2.47,2.47,0,0,0-.93.17,2.88,2.88,0,0,0-1.64,1.66c-1.19,2.69-.38,7.32.59,9.74,1.4,3.53,5.69,9.48,8.88,8.25h0a2.89,2.89,0,0,0,1.63-1.69c1.22-2.81.33-7.74-.67-10.19C291,240,287.47,235.1,284.41,235.1Z"/><path class="cls-12" d="M390.27,363.14c-6.73-25-17.93-27.72-42.28-20.23s-44.61,33.83-52,57.18,7,66.29,29.94,68.79,29.06-.75,47.75-16.4S397,388.13,390.27,363.14ZM357.2,428.27c-5.29,9.18-14.35,13.87-20.22,10.48s-6.34-13.58-1-22.76,14.35-13.87,20.22-10.47S362.5,419.09,357.2,428.27Z"/><path class="cls-13" d="M337.8,471.15a108.24,108.24,0,0,1-12.06-.78c-8-.87-15.43-6.29-21.54-15.67-10.41-16-14.56-39.64-9.66-55.06,7.32-23.05,27.88-50.43,53-58.17,14.87-4.57,23.68-4.92,30.42-1.2,6.25,3.45,10.49,10.39,13.75,22.48,6.62,24.57,2.26,74.66-17.1,90.88C359.21,466.54,352.09,471.15,337.8,471.15Zm29.32-130.42c-4.81,0-10.82,1.19-18.68,3.61-24.15,7.43-44,33.9-51,56.21-4.58,14.4-.49,37.47,9.31,52.51,3.91,6,10.44,13.36,19.36,14.33,22.34,2.44,27.95-.42,46.62-16.06,8.23-6.9,14.38-21.19,17.32-40.25,2.61-16.92,2.15-35.14-1.19-47.55-3-11.09-6.9-17.65-12.3-20.63A18.91,18.91,0,0,0,367.12,340.73ZM341.18,441.32a9.75,9.75,0,0,1-4.95-1.28c-6.58-3.79-7.3-14.92-1.59-24.8s15.69-14.83,22.27-11,7.3,14.92,1.59,24.8h0C354.1,436.64,347.15,441.32,341.18,441.32Zm10.65-35.43c-4.85,0-10.74,4.18-14.59,10.85-4.88,8.45-4.66,17.74.49,20.71s13.3-1.48,18.18-9.93h0c4.87-8.45,4.65-17.73-.5-20.71A7.1,7.1,0,0,0,351.83,405.89Z"/></svg>