<svg id="Layer_1" data-name="Layer 1" xmlns="http://www.w3.org/2000/svg" width="135" height="195" viewBox="0 0 135 195"><defs><style>.cls-1{fill:#f7931e;}</style></defs><path class="cls-1" d="M110.79,92l-35-25.53L67.51,41.66a14,14,0,0,0-17.72-8.84l-4.64,1.55L37.27,10.78A14,14,0,0,0,19.56,1.94l-1.44.48A14,14,0,0,0,9.28,20.14l7.88,23.58-5.35,1.79A14,14,0,0,0,3,63.22l9.16,27.42a13.66,13.66,0,0,0,1.38,2.91l-10,35.57,42.13-14.6,1.94,6.2A12.25,12.25,0,1,0,71,113.42l-2.16-6.93Z"/><path class="cls-1" d="M42.06,193.78a3,3,0,0,1-3-2.92l-1.14-40.14a3,3,0,0,1,2.91-3.09h.09a3,3,0,0,1,3,2.92l1.14,40.14a3,3,0,0,1-2.92,3.09Z"/><path class="cls-1" d="M85.73,186.79a3,3,0,0,1-2.85-2.07L70.4,146.55a3,3,0,1,1,5.7-1.86l12.48,38.17a3,3,0,0,1-2.85,3.93Z"/><path class="cls-1" d="M129.75,160.84a3,3,0,0,1-2.11-.87L99.11,131.7a3,3,0,1,1,4.23-4.26l28.52,28.27a3,3,0,0,1-2.11,5.13Z"/></svg>