<svg id="Layer_1" data-name="Layer 1" xmlns="http://www.w3.org/2000/svg" width="125" height="130" viewBox="0 0 125 130"><defs><style>.cls-1{fill:#f7931e;}.cls-2{fill:#ff0624;}</style></defs><path class="cls-1" d="M124,86.63,87.73,63l-9.57-24.3A14.05,14.05,0,0,0,60,30.8l-4.55,1.79L46.34,9.45A14.05,14.05,0,0,0,28.18,1.56l-1.41.55a14.05,14.05,0,0,0-7.89,18.16L28,43.41l-5.25,2.07a14,14,0,0,0-7.89,18.15l10.59,26.9A14.23,14.23,0,0,0,27,93.36l-8.09,36.05,41.3-16.81,2.27,6.1a12.24,12.24,0,1,0,23-8.52l-2.52-6.81Z"/><polygon class="cls-2" points="55.53 66.31 96.78 19.82 93.08 17.46 51.52 61.77 47.37 66.19 0.97 115.67 6.7 121.33 51.38 70.98 55.53 66.31"/></svg>