<svg id="Layer_1" data-name="Layer 1" xmlns="http://www.w3.org/2000/svg" width="180" height="195" viewBox="0 0 180 195"><defs><style>.cls-1{fill:#76b72a;}.cls-2{fill:#ee796c;}.cls-3{fill:#f7b884;}.cls-4{fill:#7cb829;}.cls-5{fill:#f8b133;}.cls-6{fill:#fcea0d;}.cls-7{fill:#b17f49;}.cls-8{fill:#e63738;}.cls-9{fill:#1d1d1b;}</style></defs><path class="cls-1" d="M120,80.92c-9-1.82-13.75,1.28-21.33,6.2S87.46,104,89.5,109.56a8.37,8.37,0,0,1,.55,3.83C85.84,100.05,78,83.72,73.6,74.82,68.09,63.7,62.46,57.92,55.54,53.49s-11.83-5-16.57-7.05-4.16-.38-8-1.51a26.58,26.58,0,0,1-3.25,5.19c8.74,1.14,11.08,1.76,19.45,9.55S72.3,91,77.61,102.15a99.68,99.68,0,0,1,7.22,19.14c-.46-.59-1.06-1.27-1.79-2.14-3.34-4-14-5.08-19.17-6.14s-10.82-1.53-15.56.8a101.51,101.51,0,0,0,10,14.7c6.87,7.66,18.91,4,23.94-.68a16,16,0,0,0,3.23-3.54c.44,2.22.77,4.48,1,6.85,1,9.86.24,18.49,1.07,27.19s2.5,19,8.72,23.11,15.74,1.39,15.53-.17-8-2.52-12.29-12-4.66-32.63-7.12-46.61a69.46,69.46,0,0,0-2-8.09l1.77-2.15c1.41-1.71,8.81,1.07,14.43-2.75s5.69-7.52,10-14.47,15.9-13.94,15.9-13.94S129,82.75,120,80.92Z"/><path class="cls-2" d="M47.43,85.4c5.84-2.12,17.4-7.85,21.57-13s8.68-24.89,5-29.18-11.21-2.68-9.79-8.8,2.85-9.14-.25-10.68,1.22-4.61-4.82-1.58c-4.63,2.33-2.26,3.69-5.27,1s-9.77-1.07-9.77-1.07C33.61,27,32.48,27.72,32.48,27.72c-12,2.61-9.41,2.11-12.72,3s-9.38,7.82-8.75,15,2,7.45.38,9.37S6.18,61.36,5,64,1.3,67.4,1.35,70.31s-1.12,6.86,3.41,10,4.89,4,5.91,4.17,1,.16,5.21-1.89,7.67-3.7,11.18-1.48,7.16,6,11,6A39.21,39.21,0,0,0,47.43,85.4Z"/><path class="cls-3" d="M18.15,74.71a.76.76,0,0,1-1-1.08L25.67,61a.76.76,0,1,1,1.25.86l-8.54,12.6A.69.69,0,0,1,18.15,74.71Z"/><path class="cls-3" d="M46.86,84.91l-.13.06a.78.78,0,0,1-1-.45A24.89,24.89,0,0,1,48.66,63.7c6.66-10.37,10.05-15.59,12.4-18.64l.92-1.2a42.84,42.84,0,0,0-10,4.7c-3.51,2.34-7,6.2-9.33,8.75-2,2.2-2.6,2.84-3.18,2.93a27.11,27.11,0,0,1-8.25,0c-2.3-.3-3-.38-4.34,1.61A.76.76,0,1,1,25.67,61c1.87-2.76,3.43-2.56,5.78-2.25a25.72,25.72,0,0,0,7.83,0c.19-.14,1.3-1.36,2.29-2.45,2.36-2.61,5.94-6.55,9.61-9a45,45,0,0,1,12.65-5.58.79.79,0,0,1,.82.32.77.77,0,0,1,0,.88L62.26,46C60,49,56.57,54.18,49.94,64.52A23.75,23.75,0,0,0,47.18,84,.76.76,0,0,1,46.86,84.91Z"/><path class="cls-3" d="M34.42,56.62a.76.76,0,0,1-1-.21.77.77,0,0,1,.18-1.06L37,52.94A9.86,9.86,0,0,0,40.75,48a.71.71,0,0,1,.14-.29c3-3.7,6.18-7.9,6.43-8.53.14-.43-.64-1.57-1.26-2.48L45.55,36c-.44-.67-3.06-.6-5.28-.11-.61.4-3.34,2.19-5,3-1.24.62-5.79,4.8-9.12,7.87-1.3,1.19-2.5,2.3-3.45,3.15a26.48,26.48,0,0,0-5.3,6.72,41.4,41.4,0,0,0,.43,6.76c.3.26,2-.19,3.62-1.1a.76.76,0,0,1,.74,1.33c-.79.44-3.46,1.82-4.92,1.2a1.54,1.54,0,0,1-.9-1c-.5-1.81-.48-7.11-.48-7.34a.62.62,0,0,1,.08-.33,27,27,0,0,1,5.72-7.33l3.43-3.13c4.72-4.35,8.15-7.47,9.47-8.12,1.72-.85,4.9-3,4.93-3a.69.69,0,0,1,.25-.1c1.33-.31,5.77-1.15,7,.72l.49.73c1,1.42,1.82,2.66,1.46,3.8-.3,1-4.64,6.45-6.6,8.9a11.44,11.44,0,0,1-4.34,5.62l-3.36,2.41Z"/><path class="cls-3" d="M23.41,60.56a.71.71,0,0,1-.5.1.76.76,0,0,1-.64-.86c0-.21.78-5.35,3.43-7.77a26.58,26.58,0,0,0,2.83-3.34C30.3,46.37,32.13,44,34.3,43a24.73,24.73,0,0,0,3.09-1.84c2.09-1.37,3.46-2.28,4.35-1.58.7.56.45,1.61.11,2.56-1.32,3.64-3.46,8-5.54,9.41-.44.29-1,.75-1.63,1.25-2,1.6-3,2.42-3.89,2a1.12,1.12,0,0,1-.62-1.09c0-.53,0-5.16,2-5.62a6.07,6.07,0,0,0,1.24-1c.88-.79,1.63-1.47,2.4-1.32a1.11,1.11,0,0,1,.8.62,4.26,4.26,0,0,1-.14,2.95,28,28,0,0,0,4-7.76,6,6,0,0,0,.2-.64,24.34,24.34,0,0,0-2.4,1.45,25.94,25.94,0,0,1-3.29,1.95c-1.81.83-3.61,3.17-5.2,5.24a27.74,27.74,0,0,1-3,3.54c-2.25,2.06-2.95,6.82-3,6.87A.74.74,0,0,1,23.41,60.56Zm9.06-11c-.32.21-.72,1.84-.78,3.59a22.64,22.64,0,0,0,2-1.54c.37-.3.72-.59,1.05-.84a.78.78,0,0,1-.18-.89,7,7,0,0,0,.69-2.4c-.28.21-.64.53-.89.75A5.3,5.3,0,0,1,32.47,49.57Z"/><path class="cls-3" d="M53.9,27.4a.74.74,0,0,1-.88-.07s-1.38-1-3.89.62c-1.8,1.19-5.27,1.63-8.9,2.11a37.67,37.67,0,0,0-7.61,1.49C28.7,33.06,27.38,39,27.37,39a.76.76,0,0,1-.9.58.77.77,0,0,1-.59-.9c.06-.28,1.5-6.79,6.19-8.59a38.77,38.77,0,0,1,8-1.57c3.25-.43,6.61-.88,8.2-1.84l.32-.2c3.4-2.05,5.37-.42,5.46-.34a.77.77,0,0,1,.08,1.07A.9.9,0,0,1,53.9,27.4Z"/><path class="cls-3" d="M13.46,54.56a1.77,1.77,0,0,1-.27.15.76.76,0,0,1-1-.33.72.72,0,0,1,.33-1c.19-.1,4.63-2.45,3.85-7-.11-.61-.22-1.18-.32-1.72-.76-4.07-1.28-6.75,2.63-8.78a47.62,47.62,0,0,1,9.93-3.36.76.76,0,0,1,.9.58.77.77,0,0,1-.58.91,47.12,47.12,0,0,0-9.55,3.21c-2.9,1.51-2.59,3.16-1.84,7.16.11.54.22,1.13.32,1.75C18.69,51,14.58,53.88,13.46,54.56Z"/><path class="cls-4" d="M131.48,90.77c-2.92,2.12-4.06,4.46-7.69,6s-9.89,4.19-11.86,7.67l-.19.34a62.86,62.86,0,0,0-.53-22.23c-1.55-7.48-1.69-8.14-4.55-12s-4.88-4.36-8.06-6.4-4.32,1.79-7,2.56c1.94,2.32,3,4.3,5.28,6.43,4.69,4.44,7.06,3.13,8.17,11.21.75,5.47,1.68,11.23.81,17.12-.34-2.24-.49-4.87-1.69-6.52-1.49-2.06-4-2.87-6-4.71s-6.27-2.53-9.09-3.16-5.7-1.91-8.47-2.79c2.36,3.26,3.7,7.85,5.28,11.32a15,15,0,0,0,7.17,7.58,42.48,42.48,0,0,0,9.42,3.32,4.46,4.46,0,0,0,2.22-.11,27.59,27.59,0,0,1-1.55,3.64c-4.56,8.85-13.8,18.51-15.58,29s3.93,27.24,6.06,35,3.74,8.49,8.24,9.21,3.86,1.21,2.54-3.29-4.89-8-7-14.72-4.15-17.58-2.72-26.65c1.38-8.78,10.25-17.32,14.48-25.84,1,.63,1.17,1,3.68.53,3.14-.58,11.14-3.56,13.53-6.54a31.47,31.47,0,0,0,5-9.84C132.25,94.13,131.32,93.17,131.48,90.77Z"/><path class="cls-5" d="M97.25,66.53c.15-4.52.91-14.29,6.29-12.86s5.5,8.81,9.51,15.09S109,84,102.12,78.64,97.11,71.05,97.25,66.53Z"/><path class="cls-5" d="M97.38,15.85c1,4.33,4.1,14.14-1.69,14.28s-9.64-7.37-13.57-13.88.27-17,7.68-13.68S96.42,11.51,97.38,15.85Z"/><path class="cls-5" d="M117.69,22.74c-2.23,3.14-8,12.43-11.78,7.94S105.27,19,108.05,11.6s11.11-8.29,14.34-1.66S119.91,19.59,117.69,22.74Z"/><path class="cls-5" d="M120.12,60.08c-3.1-3.3-12.69-7.39-8.69-11.6s11.48-.85,18.17.93,10.38,8.15,4.22,13.76S123.22,63.38,120.12,60.08Z"/><path class="cls-5" d="M126.71,41.58c-5,.09-14.37,1.21-13.6-4.52s9.11-8.26,16.21-10.38,18.14,5,10.42,9.9S131.75,41.5,126.71,41.58Z"/><path class="cls-5" d="M78.61,25.2c3.57,2.25,12.9,6.62,9.19,11S75.22,37,69.41,34.53s-12-12-5.16-14.28S75,23,78.61,25.2Z"/><path class="cls-5" d="M72,40.46c4.09,0,14.39-1,14.21,3.34S79.09,52.05,72.33,54,55.54,52.21,61,46.13,68,40.48,72,40.46Z"/><path class="cls-5" d="M77.86,57c3.87-2.76,11.4-8.19,14.08-3.45s-1.75,10.12-5.36,16.26S70,76.27,71,67.93,74,59.77,77.86,57Z"/><path class="cls-6" d="M112,66.74c-2.46-3-10-12.06-5.77-14.7s10.62,5,15.32,8.51,8.5,13.72,1.15,15.18S114.44,69.76,112,66.74Z"/><path class="cls-6" d="M87.76,66c1-4,3.56-15.05,8.26-13.4s2.51,11.86,2.21,17.14-7,15.28-11.1,9.23S86.71,70,87.76,66Z"/><path class="cls-6" d="M73.32,49.37c3.65-1.15,14.68-5,15.79-.2s-8.89,8.52-13.28,11.1-16.16,2.36-14.52-4.15S69.67,50.53,73.32,49.37Z"/><path class="cls-6" d="M72.4,32.45c4.29,1.48,15.29,4.51,14.15,7.73s-9.29,3.62-16.8,2.61-17.2-7.51-10.17-10.11S68.11,31,72.4,32.45Z"/><path class="cls-6" d="M83.89,19.06c2.62,2.65,11.54,10.31,7.87,13.68S80,28.89,76.26,26.08s-9.7-12.77-3.83-14.39S81.28,16.41,83.89,19.06Z"/><path class="cls-6" d="M108.1,16.6c-1.62,4.24-5,15.14-8.18,13.91S96.6,21.1,97.84,13.62s8-16.95,10.43-9.85S109.71,12.36,108.1,16.6Z"/><path class="cls-6" d="M125.27,28.42c-2.79,1.93-12.86,9.76-14.89,5s6-10.91,10.36-15.6,12.54-6,14.85.06S128.07,26.49,125.27,28.42Z"/><path class="cls-6" d="M128.93,49.88c-4.43-1-15.72-2.68-15-6s8.81-4.69,16.38-4.57,18,5.43,11.29,8.85S133.36,50.84,128.93,49.88Z"/><path class="cls-7" d="M117.48,39.18c1.89,9.34-3.9,18.07-14.32,17.81S85.72,52.68,83.31,44.41,86.59,29,97.55,26.94,115.6,29.84,117.48,39.18Z"/><path class="cls-4" d="M150.59,121c-.34-1.1-3.33-2.18-5.6-2.19a7,7,0,0,0-.79,0s0-.1,0-.15c-.34-1.09-3.33-2.17-5.59-2.18a7.56,7.56,0,0,0-3,.62,10.53,10.53,0,0,0-3.25-.6c-2.43,0-4.82,1.21-4.43,2.33,0,0,0,0,0,0a7.93,7.93,0,0,0-.94-.21.9.9,0,0,0,0-.56c-.48-1-3.19-1.77-5.32-1.67a8,8,0,0,0-1.42-3.06c-.13-.17-.28-.33-.43-.49,1.81-10.75,5.38-20.42,10.22-26,9.39-10.76,2.92-2,9.41-9.06-2.42.2-2.9-1.47-4.84-2.23C126,88.29,117.15,96.5,114.14,110.09l-.17,0a1.18,1.18,0,0,0-.52.54,10,10,0,0,0-1-.61h0c1.32-.81.4-4.13-1.65-6.25a11,11,0,0,0-3.26-2.22,8.64,8.64,0,0,0-2-3.25c-1.91-2-5.37-3.47-6.63-2.64-.05,0-.08.09-.13.14a6.32,6.32,0,0,0-.63-.74c-1.91-2-5.36-3.47-6.62-2.65s-.2,3.85,1.49,5.79a11.39,11.39,0,0,0,2.47,2c-.42,1.23.52,3.57,1.93,5.17a11.31,11.31,0,0,0,4.1,2.87,7.55,7.55,0,0,0,.32.72,1.43,1.43,0,0,0-.22.08c-1.25.82-.2,3.85,1.49,5.78a11.68,11.68,0,0,0,3.9,2.78c-.15,1.29.76,3.35,2,4.8a11.48,11.48,0,0,0,4.07,2.85c1,19.74,5.83,36.17-9.57,49.75-16.32,14.4-20.38,26.42-4.74,12.51s24.72-24.43,20.91-44a80.93,80.93,0,0,1-1.29-17.47,10.64,10.64,0,0,0,4.78,1,5.93,5.93,0,0,0,3.88-1.39,10.88,10.88,0,0,0,4,.66c2.11-.09,4.41-1.09,4.08-2.18a1.3,1.3,0,0,0-.1-.15,5.12,5.12,0,0,0,.59-.21,10.87,10.87,0,0,0,4.13.73c1.75-.07,3.61-.78,4-1.63a11.13,11.13,0,0,0,2.66.27C148.62,123.1,150.92,122.11,150.59,121Z"/><path class="cls-8" d="M176.74,56.86c1.07-8.72-8.21-12.43-16.47-11.55-2.23.23-5.35.38-8.77.75a54.9,54.9,0,0,0-9.31-7.8c-7.24-4.43-16-3.4-19.44,2.31s-.45,13.94,6.79,18.37l.19.11c-.06.3-.12.61-.16.93-1.75,14.15,21.81,9.61,30.79,8.75S175.66,65.59,176.74,56.86Z"/><ellipse class="cls-9" cx="142.72" cy="65.11" rx="4.15" ry="4.08" transform="translate(37.59 181.54) rotate(-72.44)"/><ellipse class="cls-9" cx="140.94" cy="58.06" rx="0.56" ry="0.61" transform="translate(43.07 174.92) rotate(-72.44)"/><ellipse class="cls-9" cx="142.58" cy="58.09" rx="0.56" ry="0.61" transform="translate(44.18 176.51) rotate(-72.44)"/><ellipse class="cls-9" cx="144.28" cy="58.54" rx="0.56" ry="0.61" transform="translate(44.94 178.44) rotate(-72.44)"/><ellipse class="cls-9" cx="145.82" cy="59.17" rx="0.56" ry="0.61" transform="translate(45.42 180.35) rotate(-72.44)"/><ellipse class="cls-9" cx="147.14" cy="59.94" rx="0.56" ry="0.61" transform="translate(45.61 182.14) rotate(-72.44)"/><ellipse class="cls-9" cx="148.31" cy="60.98" rx="0.56" ry="0.61" transform="matrix(0.3, -0.95, 0.95, 0.3, 45.43, 183.98)"/><ellipse class="cls-9" cx="149.07" cy="62.3" rx="0.56" ry="0.61" transform="translate(44.7 185.64) rotate(-72.44)"/><ellipse class="cls-9" cx="149.57" cy="63.9" rx="0.56" ry="0.61" transform="translate(43.52 187.23) rotate(-72.44)"/><ellipse class="cls-9" cx="139.33" cy="58.36" rx="0.56" ry="0.61" transform="translate(41.65 173.59) rotate(-72.44)"/><ellipse class="cls-9" cx="137.84" cy="58.86" rx="0.56" ry="0.61" transform="translate(40.14 172.52) rotate(-72.44)"/><path class="cls-8" d="M109.84,45c5.62-4.74,14.83-3.06,20.57,3.75s15.42,27.56,9.8,32.3-24.43-8.34-30.16-15.14S104.22,49.71,109.84,45Z"/><path class="cls-8" d="M178.49,70.23c1.88,8.08-7,15.53-13,17s-31.07-.58-31.81-8.15S153.26,63.39,160.67,62,176.62,62.15,178.49,70.23Z"/><path class="cls-2" d="M173.54,62.11a11.32,11.32,0,0,0-6.9-1.31c-3.43.54-14.42,2.85-14.89,3l-10,4.44c-1.95-3.32-6.1-11-6.21-13.82-.15-4.13-11.63-10.9-12.94-11.66a.7.7,0,0,0-.95.25.69.69,0,0,0,.26.94c4.69,2.72,12.16,8,12.26,10.52.14,3.85,6,13.79,6.65,14.91.16.68,1.1,5.29-1.85,8.08l-3.52,3.31a.69.69,0,0,0,0,1,.78.78,0,0,0,.3.18.69.69,0,0,0,.68-.16l3.51-3.31c3.13-3,2.64-7.37,2.35-8.94l9.84-4.39c1-.2,11.51-2.4,14.76-2.92a10.07,10.07,0,0,1,6,1.13.69.69,0,1,0,.7-1.18Z"/></svg>