<svg id="Layer_1" data-name="Layer 1" xmlns="http://www.w3.org/2000/svg" width="150" height="140" viewBox="0 0 150 140"><defs><style>.cls-1{opacity:0.7;}.cls-2,.cls-3{fill:#53c2eb;}.cls-3{opacity:0.8;}.cls-4{fill:#fff;}.cls-5{fill:#eaf5f7;}.cls-6{fill:#ffd12d;}</style></defs><g class="cls-1"><path class="cls-2" d="M23.92,18.07a.11.11,0,0,1-.09-.05L16.7,10.11a.13.13,0,0,1,0-.18.12.12,0,0,1,.17,0L24,17.86A.12.12,0,0,1,24,18,.12.12,0,0,1,23.92,18.07Z"/></g><g class="cls-1"><path class="cls-2" d="M13.83,30.19h0L2.5,28.09A.12.12,0,0,1,2.4,28a.12.12,0,0,1,.15-.1l11.31,2.09a.14.14,0,0,1,.1.15A.14.14,0,0,1,13.83,30.19Z"/></g><g class="cls-1"><path class="cls-2" d="M39.71,11h0a.12.12,0,0,1-.12-.13l.27-9.61A.12.12,0,0,1,40,1.18h0a.12.12,0,0,1,.12.13l-.27,9.61A.13.13,0,0,1,39.71,11Z"/></g><g class="cls-1"><path class="cls-2" d="M55.41,10.55h0a.12.12,0,0,1-.07-.16l3.94-8.64a.13.13,0,0,1,.17-.07.13.13,0,0,1,.06.17l-3.94,8.64A.12.12,0,0,1,55.41,10.55Z"/></g><polyline class="cls-3" points="46.14 49.69 28.09 40.83 31.96 30.58 39.82 22.19 48.07 18.64 55.13 17.68 63.69 17.81 66.52 18.7 69.5 36.21"/><g class="cls-1"><line class="cls-4" x1="54.7" y1="23.73" x2="58.09" y2="36.97"/><path class="cls-5" d="M58.09,37.09A.11.11,0,0,1,58,37L54.58,23.76a.12.12,0,0,1,.09-.15.12.12,0,0,1,.15.09l3.39,13.24a.13.13,0,0,1-.09.15Z"/></g><g class="cls-1"><line class="cls-4" x1="43.68" y1="25.57" x2="54.2" y2="39.88"/><path class="cls-5" d="M54.2,40a.16.16,0,0,1-.11,0L43.58,25.64a.12.12,0,0,1,.2-.14L54.3,39.81a.13.13,0,0,1,0,.18Z"/></g><g class="cls-1"><line class="cls-4" x1="37.49" y1="35.77" x2="49.27" y2="43.73"/><path class="cls-5" d="M49.27,43.85a.1.1,0,0,1-.07,0l-11.78-8a.13.13,0,0,1,.14-.21l11.78,8a.12.12,0,0,1,0,.17A.1.1,0,0,1,49.27,43.85Z"/></g><path class="cls-6" d="M97.17,29.55C62,29.55,30.94,53,30.94,80.91s23.14,57.91,58.34,57.91,58.32-30,58.32-57.91S132.35,29.55,97.17,29.55ZM89.28,131c-29.48,0-48.87-25.73-48.87-49.64s26-44.06,55.47-44.06,42.27,20.16,42.27,44.06S118.73,131,89.28,131Z"/></svg>