<svg id="Layer_1" data-name="Layer 1" xmlns="http://www.w3.org/2000/svg" width="160" height="260" viewBox="0 0 160 260"><defs><style>.cls-1{fill:#76b72a;}.cls-2{fill:#ee796c;}.cls-3{fill:#f7b884;}</style></defs><path class="cls-1" d="M143.71,139.17c-9.75-8.93-17.87-8.63-30.86-8.19s-26.32,12.49-27.91,20.83a12,12,0,0,1-2.17,5.11c4.71-19.53,7.2-45.44,8.37-59.67C92.6,79.48,90,68.19,84.73,57.61s-10.88-14.9-15.18-21-4.83-3.56-8.75-7.81a37.78,37.78,0,0,1-7.84,4C62.87,40.69,65.28,43.19,69.81,59s7.75,57.17,6,74.88c-1.14,11.52-2.68,20.5-5.29,28.91-.14-1.07-.38-2.35-.63-4-1.15-7.38-13.45-16.63-19.05-21.76s-12.17-9.91-19.73-10.56c-.2,7.53.17,18.91,1.43,25.53,2.77,14.52,20.35,18.87,30,16.91,3.37-.69,5.41-1.23,6.61-2-1.11,3.07-2.38,6.1-3.85,9.19C59.12,189,51.82,199.08,46.39,210.4s-11,25.27-6.4,34.92,18.34,13.38,19.24,11.31-7.93-9-6.2-23.94,18.47-43.62,25.81-62.64a101.48,101.48,0,0,0,3.52-11.47l3.78-1.33c3-1.05,10,7.86,19.79,7.33s12.59-5.05,23-10.42,29.9-5.36,29.9-5.36S153.45,148.1,143.71,139.17Z"/><path class="cls-2" d="M51.07,90.87c8.76,1.71,27.24,3.24,36.19,0s29.14-24.19,27.81-32.19-11.81-11.62-5.53-18.09,10.29-9.14,7.62-13.33,4.93-4.78-4.76-5.53c-7.43-.57-5.52,2.86-7.24-2.66S93.92,10.5,93.92,10.5C77.36,8.78,75.45,8.78,75.45,8.78,58.69,3.07,62.31,4.4,57.55,3.07s-17.33,2.66-21.9,12-3,10.66-6.48,11.81-11,3.8-14.47,6.09-7,1.52-9.15,5.14S-.92,45.73,2.32,53s3,8.57,4.19,9.52,1.14.95,7.8,1.52,12.19,1.15,14.86,6.48,4.33,12.76,9.12,15.62S51.07,90.87,51.07,90.87Z"/><path class="cls-3" d="M23,56a1.08,1.08,0,0,1-1-.63,1.1,1.1,0,0,1,.53-1.45l19.86-9.18a1.09,1.09,0,0,1,.91,2L23.42,55.89A1.09,1.09,0,0,1,23,56Z"/><path class="cls-3" d="M50.74,89.84l-.21,0a1.09,1.09,0,0,1-.86-1.28,35.64,35.64,0,0,1,19-23.47c15.88-7.83,23.93-11.74,29.08-13.75l2-.79a61.62,61.62,0,0,0-15.74-1.6c-6.06.28-13.23,2.42-18,3.85C62,54,60.77,54.34,60,54A38.68,38.68,0,0,1,49.8,48c-2.6-2.07-3.39-2.68-6.53-1.23a1.09,1.09,0,0,1-.91-2c4.35-2,6.12-.6,8.8,1.51A36.11,36.11,0,0,0,60.82,52c.33,0,2.61-.71,4.63-1.31C70.3,49.23,77.62,47,84,46.75a64.39,64.39,0,0,1,19.7,2.52,1.09,1.09,0,0,1,.08,2.06l-5.17,2c-5.07,2-13.08,5.87-28.91,13.67A34.12,34.12,0,0,0,51.81,89,1.09,1.09,0,0,1,50.74,89.84Z"/><path class="cls-3" d="M56.41,45.8a1.1,1.1,0,0,1-1.09-1,1.09,1.09,0,0,1,1-1.17l5.93-.47a14.1,14.1,0,0,0,8.32-3.25,1.18,1.18,0,0,1,.4-.25c6.39-2.35,13.46-5.14,14.24-5.73.49-.43.37-2.41.28-4l-.07-1.3c0-1.15-3.32-3-6.41-4.05-1.05,0-5.75.21-8.35,0-2-.15-10.69,1.62-17.07,2.93-2.47.51-4.78,1-6.58,1.32a37.83,37.83,0,0,0-11.5,4.34c-1.19,2-3.95,6.79-4.48,8.64.17.55,2.57,1.24,5.27,1.33a1.09,1.09,0,1,1-.08,2.18c-1.29,0-5.61-.33-6.95-2.16a2.22,2.22,0,0,1-.34-1.95c.74-2.61,4.69-9.12,4.86-9.4a1,1,0,0,1,.34-.35,38.85,38.85,0,0,1,12.48-4.77c1.79-.34,4.08-.81,6.55-1.32,9-1.84,15.57-3.14,17.68-3,2.74.23,8.22,0,8.28,0a1,1,0,0,1,.39.05c1.86.62,7.95,2.87,8.09,6.1l.07,1.26c.14,2.48.27,4.62-1,5.77-1.08,1-10.49,4.49-14.72,6a16.35,16.35,0,0,1-9.5,3.7l-5.93.47Z"/><path class="cls-3" d="M39.93,42.48a1.09,1.09,0,0,1-.84-1.78c.2-.25,4.93-6,10-7a38.42,38.42,0,0,0,6-2c3.91-1.54,7.95-3.16,11.34-2.73a35.38,35.38,0,0,0,5.17,0c3.58-.14,5.95-.23,6.52,1.29.45,1.21-.64,2.31-1.76,3.22C72,37,66.09,40.79,62.5,40.94c-.75,0-1.81.18-2.93.34-3.59.51-5.51.73-6.28-.42a1.61,1.61,0,0,1,.05-1.8c.38-.66,3.83-6.34,6.58-5.47a8.84,8.84,0,0,0,2.25-.27c1.66-.32,3.08-.6,3.92.15a1.62,1.62,0,0,1,.53,1.36c-.09,1.3-1.31,2.62-2.36,3.53C67,37.43,71,35,74.92,31.77c.33-.27.56-.48.72-.64a33.57,33.57,0,0,0-4,0,35.74,35.74,0,0,1-5.5,0c-2.85-.32-6.8,1.23-10.29,2.6a40.89,40.89,0,0,1-6.32,2.13c-4.29.86-8.69,6.2-8.73,6.25A1.09,1.09,0,0,1,39.93,42.48Zm19.31-6.81c-.55,0-2.26,1.73-3.63,3.85,1,0,2.58-.25,3.65-.4.67-.1,1.32-.19,1.91-.26a1.09,1.09,0,0,1,.44-1.22,10.26,10.26,0,0,0,2.62-2.45c-.49.05-1.17.18-1.64.27A7.64,7.64,0,0,1,59.24,35.67Z"/><path class="cls-3" d="M102.06,24.28a1.09,1.09,0,0,1-1-.75c0-.07-.92-2.3-5.24-2.12-3.1.13-7.7-1.9-12.52-4-3.74-1.62-7.61-3.31-10.48-3.81-5.94-1-12,5.26-12,5.32a1.1,1.1,0,0,1-1.55,0,1.09,1.09,0,0,1,0-1.54c.27-.3,6.88-7.25,14-6,3.13.55,7.11,2.29,11,4,4.31,1.88,8.78,3.82,11.45,3.82h.53c5.72,0,6.93,3.47,7,3.62a1.08,1.08,0,0,1-.69,1.37A1.06,1.06,0,0,1,102.06,24.28Z"/><path class="cls-3" d="M32.14,27.71h-.45a1.09,1.09,0,0,1-1-1.17,1,1,0,0,1,1.16-1c.31,0,7.52.42,9.92-5.74.32-.83.62-1.62.89-2.36,2.08-5.57,3.43-9.26,9.75-8.86s14.37,3.12,14.71,3.23a1.09,1.09,0,0,1-.7,2.07c-.09,0-8.13-2.75-14.15-3.12-4.69-.3-5.53,2-7.56,7.44-.28.75-.58,1.55-.91,2.39C41.19,27.26,34,27.71,32.14,27.71Z"/></svg>