<svg id="Layer_1" data-name="Layer 1" xmlns="http://www.w3.org/2000/svg" width="130" height="110" viewBox="0 0 130 110"><defs><style>.cls-1{fill:#f6921e;}.cls-2{fill:#ef7700;}</style></defs><path class="cls-1" d="M98.43,44.16c-4.85-.15-13.87-1.34-20.93-.3C84.08,40.21,90.89,34,93.82,31.79c5.75-4.39,24-20.88,17.73-28.63S84.89,11,79.64,16C76.27,19.2,67.32,28.4,64.25,36.09c-3.34-5.08-7.8-9.86-10.1-12.67C48.51,16.56,37-1.84,27.16,5.24S31.42,31.81,37.57,37.5c1.51,1.4,3.62,3.64,6.06,6-4.85.55-9.51,1.63-12.29,2.22C23.12,47.51.46,49.45,2.24,62.6s25.11,8.09,33.52,4.92c1.87-.71,4.48-1.52,7.32-2.49-2.23,4.1-4,8-5.06,10-3.44,6.37-13.24,28.89-4.37,33.39s21.08-18.1,23.8-24.83A99.81,99.81,0,0,0,62,69.3c3.18,6.93,9.14,14.39,11.23,17.52,4,6,19.32,25.23,27.45,19.5s-6.11-27.1-10.78-32.66A98,98,0,0,0,78.46,62.2,101.12,101.12,0,0,0,94.21,66c8.26,1.51,29.94,8.37,33.32-4.46S107.41,44.44,98.43,44.16Z"/><path class="cls-2" d="M72.3,53.37c-.5,4.82-5.08,8-9.77,7.74S54.35,57.54,54.7,53s4.57-7.16,9.2-7.19S72.8,48.55,72.3,53.37Z"/></svg>