<svg id="Layer_1" data-name="Layer 1" xmlns="http://www.w3.org/2000/svg" width="130" height="275" viewBox="0 0 130 275"><defs><style>.cls-1{fill:#7cb829;}.cls-2{fill:#f8b133;}.cls-3{fill:#fcea0d;}.cls-4{fill:#b17f49;}</style></defs><path class="cls-1" d="M107.65,137c-4.51,2.95-6.38,6.37-11.92,8.42S80.66,150.94,77.47,156l-.31.5c2.68-11.5,2.15-24.73.82-33.24C76.22,112,76.05,111,72.07,105s-7-6.85-11.57-10.13-6.58,2.36-10.62,3.31c2.74,3.61,4.22,6.65,7.42,10,6.68,7,10.32,5.19,11.39,17.35.72,8.21,1.69,16.88,0,25.61-.35-3.36-.39-7.3-2.05-9.86-2.08-3.18-5.72-4.56-8.65-7.47s-9.18-4.22-13.34-5.38-8.38-3.26-12.44-4.78c3.27,5,4.95,12,7,17.3a22.38,22.38,0,0,0,10.15,11.83,62.36,62.36,0,0,0,13.84,5.64,6.58,6.58,0,0,0,3.31,0A39.93,39.93,0,0,1,64,163.73c-7.45,12.88-22,26.64-25.38,42.14s3.88,41,6.5,52.75S50,271.57,56.71,273s5.66,2.08,4-4.74-6.73-12.3-9.37-22.49-4.91-26.55-2.12-40c2.7-13,16.56-25.12,23.5-37.54,1.44,1,1.67,1.59,5.46,1.07,4.72-.64,16.9-4.51,20.68-8.79a46.73,46.73,0,0,0,8.26-14.33C108.55,142.07,107.23,140.57,107.65,137Z"/><path class="cls-2" d="M58.31,98.31C58.86,91.58,60.7,77,68.63,79.57s7.57,13.54,13.11,23.22-7.15,22.48-17,14S57.77,105,58.31,98.31Z"/><path class="cls-2" d="M62.18,22.64c1.12,6.54,5.1,21.42-3.55,21.19s-13.86-11.7-19.26-21.7S41-3.24,51.83,2.26,61.07,16.09,62.18,22.64Z"/><path class="cls-2" d="M92,34.4c-3.55,4.54-12.87,18-18.17,11s-.09-17.53,4.6-28.33S95.63,5.5,100,15.63,95.56,29.87,92,34.4Z"/><path class="cls-2" d="M92.93,90.34c-4.39-5.15-18.42-12-12.14-18S98,72,107.85,75.1,122.77,88,113.15,96,97.32,95.5,92.93,90.34Z"/><path class="cls-2" d="M104.12,63.2c-7.52-.24-21.56.75-20-7.75s14.21-11.67,25-14.32S135.82,50,123.94,56.68,111.64,63.44,104.12,63.2Z"/><path class="cls-2" d="M33.47,35.24c5.18,3.62,18.79,10.82,12.92,17.1s-18.84.3-27.33-3.85S2,29.76,12.4,26.79,28.3,31.61,33.47,35.24Z"/><path class="cls-2" d="M22.56,57.54c6.11.26,21.56-.46,21,6S32.25,75.37,22,77.78-2.93,73.89,5.63,65.21,16.46,57.28,22.56,57.54Z"/><path class="cls-2" d="M30.05,82.68c6-3.84,17.61-11.4,21.27-4.13s-3.35,15-9.19,23.9-25.25,8.41-23.13-4S24.07,86.51,30.05,82.68Z"/><path class="cls-3" d="M80.27,99.7C76.82,95,66.14,81,72.73,77.32S88.22,85.55,95,91.14s11.69,21.11.61,22.76S83.73,104.39,80.27,99.7Z"/><path class="cls-3" d="M44.17,96.87C46,91.05,50.58,74.65,57.48,77.46s2.88,17.89,2.05,25.75-11.64,22.31-17.24,13S42.32,102.7,44.17,96.87Z"/><path class="cls-3" d="M23.82,71c5.54-1.46,22.29-6.47,23.6.84S33.52,83.87,26.78,87.4,2.48,89.75,5.39,80.14,18.28,72.41,23.82,71Z"/><path class="cls-3" d="M23.68,45.6c6.29,2.52,22.5,7.85,20.57,12.59S30.1,62.91,19,60.85-6.16,48.39,4.51,45,17.38,43.07,23.68,45.6Z"/><path class="cls-3" d="M41.82,26.45c3.71,4.15,16.47,16.23,10.75,21S35.26,40.84,29.9,36.38,16.35,16.6,25.23,14.6,38.1,22.3,41.82,26.45Z"/><path class="cls-3" d="M78.14,24.54c-2.72,6.21-8.55,22.25-13.22,20.17S60.64,30.42,63,19.35,76.29-5.38,79.33,5.4,80.86,18.32,78.14,24.54Z"/><path class="cls-3" d="M102.93,43.44C98.61,46.12,83,57.08,80.32,49.85S90,34,96.92,27.31s19.17-8.07,22.17,1.17S107.24,40.76,102.93,43.44Z"/><path class="cls-3" d="M106.82,75.75C100.27,74,83.55,70.6,84.91,65.68s13.49-6.36,24.8-5.63,26.42,9.41,16.21,14S113.37,77.52,106.82,75.75Z"/><path class="cls-4" d="M90.51,58.94C92.64,73,83.37,85.64,67.82,84.49S42.09,76.78,39.11,64.27s6-22.82,22.52-25S88.38,44.85,90.51,58.94Z"/></svg>