<svg id="Layer_1" data-name="Layer 1" xmlns="http://www.w3.org/2000/svg" width="274.92" height="314.81" viewBox="0 0 274.92 314.81"><defs><style>.cls-1{opacity:0.7;}.cls-2,.cls-3{fill:#53c2eb;}.cls-3{opacity:0.8;}.cls-4{fill:#fff;}.cls-5{fill:#eaf5f7;}.cls-6{fill:#ffd12d;}</style></defs><g class="cls-1"><path class="cls-2" d="M25,42l-.06,0L11.39,34.37a.14.14,0,0,1-.05-.18.12.12,0,0,1,.17,0L25,41.72a.12.12,0,0,1,0,.17A.12.12,0,0,1,25,42Z"/></g><g class="cls-1"><path class="cls-2" d="M2.59,66.68a.14.14,0,0,1-.13-.11.12.12,0,0,1,.11-.14l15.81-2.68a.13.13,0,0,1,.15.11.13.13,0,0,1-.1.14L2.61,66.68Z"/></g><g class="cls-1"><path class="cls-2" d="M41.69,24.24a.13.13,0,0,1-.12-.09L36.74,10.52a.14.14,0,0,1,.08-.16.12.12,0,0,1,.16.08l4.83,13.63a.12.12,0,0,1-.08.16Z"/></g><g class="cls-1"><path class="cls-2" d="M61.83,15.76h0a.14.14,0,0,1-.12-.14l.46-14.09a.12.12,0,0,1,.13-.12h0a.13.13,0,0,1,.13.13L62,15.63A.12.12,0,0,1,61.83,15.76Z"/></g><polyline class="cls-3" points="69.07 80.71 42.95 77.54 42.47 62.48 47.73 48.01 55.87 39.61 63.87 35.13 74.22 31.35 78.07 31.2 90.41 52.51"/><g class="cls-1"><line class="cls-4" x1="68.58" y1="45.28" x2="79.27" y2="60.87"/><path class="cls-5" d="M79.27,61a.11.11,0,0,1-.1-.06L68.48,45.36a.13.13,0,1,1,.21-.15L79.38,60.8a.12.12,0,0,1,0,.17A.09.09,0,0,1,79.27,61Z"/></g><g class="cls-1"><line class="cls-4" x1="56.26" y1="52.74" x2="76.05" y2="66.44"/><path class="cls-5" d="M76.05,66.56a.1.1,0,0,1-.07,0l-19.8-13.7a.13.13,0,0,1,0-.17.13.13,0,0,1,.18,0l19.79,13.7a.13.13,0,0,1,0,.18A.16.16,0,0,1,76.05,66.56Z"/></g><g class="cls-1"><line class="cls-4" x1="53.92" y1="68.79" x2="72.06" y2="73.68"/><path class="cls-5" d="M72.06,73.81h0L53.88,68.91a.13.13,0,0,1-.09-.16.15.15,0,0,1,.16-.09l18.14,4.9a.12.12,0,0,1,.09.15A.14.14,0,0,1,72.06,73.81Z"/></g><path class="cls-6" d="M235.89,81.3c-12.56-29.91-9.25-21.78-17.12-25.87s-15.1,6.87-15.1,6.87l10.44,22c5.22,11,9.95,24.4,8,34s-16.92,46.28-24.12,51-26.38,19.48-35.23,20.17-28,9.2-38,3.43c-3.39-2-6.53-3.71-9.2-5.18l6-10.56-28.74,5.43L102.92,210l5.2-9.2c9.58,2.62,78.11,19.51,102.29-25.23C236.42,127.4,248.44,111.21,235.89,81.3Z"/><path class="cls-6" d="M54.72,151.1c12.19,30.06,9,21.88,16.8,26.07s15.18-6.69,15.18-6.69-5.09-11.07-10.17-22.14-9.66-24.52-7.59-34S86.42,68.22,93.67,63.56s26.62-19.16,35.48-19.74,28.13-8.87,38.08-3c3.36,2,6.48,3.78,9.14,5.29l-6.1,10.49,28.8-5.09L189.23,24l-5.31,9.12c-9.54-2.73-77.87-20.45-102.58,24C54.74,105,42.52,121,54.72,151.1Z"/><path class="cls-6" d="M50.9,264.24H46.21c-.41-3.16-1.9-4.73-4.47-4.73A5.28,5.28,0,0,0,38,260.7a4.68,4.68,0,0,0-1.26,3.56,4.88,4.88,0,0,0,1.39,3.32l10,11.22a9.85,9.85,0,0,1,2.76,6.66v2.38a9.49,9.49,0,0,1-9.42,9.42H36.74q-4.69,0-7.06-2.37t-2.37-7.05h4.74c0,.33,0,.59,0,.78a3.28,3.28,0,0,0,1.49,2.91,5.67,5.67,0,0,0,3.25,1,4.72,4.72,0,0,0,3.63-1.22,5.07,5.07,0,0,0,1.11-3.53,4.84,4.84,0,0,0-1.4-3.32l-10-11.18a9.76,9.76,0,0,1-2.77-6.65v-2.39a9.49,9.49,0,0,1,9.43-9.42h4.74Q50.32,254.82,50.9,264.24Z"/><path class="cls-6" d="M60.37,264.24H69.8V269A4.81,4.81,0,0,1,71,265.41a4.88,4.88,0,0,1,3.54-1.17h4.74a9.49,9.49,0,0,1,9.42,9.46v14.14a9.46,9.46,0,0,1-9.42,9.42H69.8v9.41H60.37Zm9.43,28.29h4.73a4.59,4.59,0,0,0,3.33-1.38,4.46,4.46,0,0,0,1.41-3.31V273.7a4.49,4.49,0,0,0-1.41-3.33A4.59,4.59,0,0,0,74.53,269a4.49,4.49,0,0,0-3.34,1.37,4.55,4.55,0,0,0-1.39,3.34Z"/><path class="cls-6" d="M98.12,259.55v-4.73h9.43v4.73Zm0,37.71v-33h9.43v33Z"/><path class="cls-6" d="M117,297.26V254.82h9.42v42.44Z"/><path class="cls-6" d="M149.74,259.55v-4.73h9.43v4.73Zm0,37.71v-33h9.43v33Z"/><path class="cls-6" d="M197,264.24V302a9.55,9.55,0,0,1-9.42,9.42h-9.48q-8.34,0-9.42-9.42h4.73q.34,4.68,4.69,4.68h4.74a4.56,4.56,0,0,0,3.33-1.38,4.46,4.46,0,0,0,1.41-3.3v-9.46q-.56,4.73-4.74,4.73h-4.74a9.47,9.47,0,0,1-9.42-9.42V273.7a9.49,9.49,0,0,1,9.42-9.46ZM187.54,269H182.8a4.76,4.76,0,0,0-4.74,4.73v14.14a4.74,4.74,0,0,0,9.48,0Z"/><path class="cls-6" d="M234.71,283.11h-18.9v4.73a4.75,4.75,0,0,0,4.74,4.69h4.73q4.69,0,4.7-4.69h4.73q-1.11,9.42-9.43,9.42h-9.47a9.47,9.47,0,0,1-9.42-9.42V273.7a9.49,9.49,0,0,1,9.42-9.46h9.47a9,9,0,0,1,6.65,2.79,9.16,9.16,0,0,1,2.78,6.67Zm-18.9-4.73h9.47V273.7a4.52,4.52,0,0,0-1.4-3.34,4.74,4.74,0,0,0-8.07,3.34Z"/><path class="cls-6" d="M244.14,297.26v-33h9.42V269a5.89,5.89,0,0,1,1.47-3.56,4.45,4.45,0,0,1,3.27-1.17H263a9.05,9.05,0,0,1,6.65,2.79,9.16,9.16,0,0,1,2.78,6.67v23.56H263V273.7a4.52,4.52,0,0,0-1.4-3.34,4.74,4.74,0,0,0-8.07,3.34v23.56Z"/></svg>