<svg id="Layer_1" data-name="Layer 1" xmlns="http://www.w3.org/2000/svg" width="516.26" height="321.39" viewBox="0 0 516.26 321.39"><defs><style>.cls-1{fill:#8bc53f;}.cls-2{fill:#f6921e;}.cls-3{fill:#ec1c24;}</style></defs><ellipse class="cls-1" cx="262.42" cy="164.91" rx="232.64" ry="143.74" transform="translate(-34.49 76.01) rotate(-15.48)"/><path class="cls-2" d="M391.2,83.81l-6.52-23.73L308.15,77,313,97.37l21.17-1.7,14.65,62.71-3.23,6.78-37.48-23.73s11.4-18.64,9.77-27.11S309.78,88.89,300,88.89s-35.82,6.78-35.82,6.78L277,191.89l-40.73-91.24-23.14,4.64,0-.13-69.93,17c-5.67-.31-4.38,1.56-10.43,3.41s-11.19,16-14,23.08a28,28,0,0,0,1.72,23.16c3.92,6.76,12,7.43,18.77,8.38s14.65,7.23,16.2,13.52-7.76,10.88-12.12,13.48-9.62.33-13.85-1.3c.89,8.44,2.29,17,2.92,25.5,5.16,1.74,1.87,2.69,9,4.67s22-2.75,30.12-9.71,6.14-23.29,4.3-34.15-18-23-22.86-32.25c-4.69-9-4.08-16,3.4-21.69h12.52l19.47,81.13s21,4.51,22.11,0S196,136.71,196,136.71l22.51-5.46a58.1,58.1,0,0,1,1.18,9.08c0,7.93-7.22,77.52-7.22,77.52l25.4-4.52v-29.8l8.27-1.94,9.92,27,22.69-3.16,0,.42h23.08l-6.68-40.67,43.85,22L376.54,177,360.2,95.67ZM236.26,168.89l-3.08-29.64,11.34,28.06Zm60.5-44.41c-1.63,8.48-6.52,10.3-6.52,10.3l-4.88-23.85s4.88-3.39,8.14-3.39S298.38,116,296.76,124.48Z"/><path class="cls-3" d="M145.22,237.48a15.78,15.78,0,0,1-4.14-.49c-4.17-1.17-5-2.05-5.87-2.91a6.26,6.26,0,0,0-3.15-1.78l-.63-.21,0-.67c-.39-5.06-1-10.27-1.7-15.3-.42-3.34-.87-6.79-1.22-10.17l-.17-1.63,2.13.83c4,1.57,8.62,3.36,12.37,1.14l1.38-.81c4.3-2.47,11.51-6.62,10.28-11.57-1.42-5.75-8.75-11.83-15.37-12.77l-1.34-.18c-6.68-.91-14.24-1.94-18.16-8.69a29,29,0,0,1-1.78-24l.6-1.55c3.14-8.07,7.89-20.27,14-22.13a17,17,0,0,0,4.51-2c1.65-1,2.76-1.58,6.12-1.42L213.77,104l0,.17,23-4.62,38.24,85.67-12-90.25.86-.22c1.07-.28,26.29-6.82,36.07-6.82,4.78,0,8.65,3.47,11.64,8l-4.71-19.59L385.39,58.9l7,25.52-31,11.88,16.36,81.44L339,188.25l-42.43-21.32,6.55,39.9H278l0-.29-22.49,3.13-9.89-26.9-6.64,1.55v29.85l-27.47,4.89a2.88,2.88,0,0,1-.06.53c-1.26,5.06-18.15,1.85-23.29.74l-.62-.13-.15-.61L168,139.22H156.65c-6.57,5.14-7.45,11.39-2.86,20.23,1.88,3.6,5.57,7.7,9.47,12,6.07,6.74,12.34,13.71,13.5,20.51,2.14,12.66,3.55,28.09-4.64,35.07C165,233.12,153.27,237.48,145.22,237.48Zm-11.89-6.85a7.6,7.6,0,0,1,3.31,2.05c.69.7,1.33,1.36,5,2.38,6.87,1.92,21.34-2.79,29.21-9.51,7.43-6.33,6-21.08,4-33.22-1.05-6.23-7.13-13-13-19.5-4-4.44-7.77-8.63-9.76-12.46-5.12-9.85-4-17.14,3.69-23l.27-.2h13.64l.18.76,19.32,80.53c9.51,2,19.8,2.69,20.32.6.77-3.2-8.18-50.91-14.38-82.2l-.19-.94L219.34,130l.19,1a56.6,56.6,0,0,1,1.2,9.26c0,7.38-6.07,66.38-7.09,76.3l23.27-4.14V182.74l9.9-2.33,9.95,27.06,22.88-3.19.08.55h21l-6.8-41.45,45.26,22.74,36.18-9.82L359.06,95,390,83.2l-6-21.93L309.36,77.79l4.45,18.51L335,94.61l14.93,63.88-3.86,8.12-39.26-24.86.51-.84c.11-.18,11.18-18.41,9.64-26.41-1.48-7.7-7.8-24.61-16.93-24.61-8.54,0-30.14,5.37-34.71,6.53L278.89,198.6l-43.22-96.81-23.25,4.66,0-.09-69.15,16.77h-.15c-3-.16-3.75.29-5.1,1.11a18.81,18.81,0,0,1-5,2.25c-5.2,1.58-10.1,14.18-12.74,21l-.6,1.55a26.94,26.94,0,0,0,1.65,22.29c3.43,5.9,10.48,6.86,16.7,7.71l1.35.18c7.32,1,15.44,7.83,17,14.27s-6.43,11-11.22,13.78l-1.36.8c-4.26,2.52-9.12.93-13.18-.64.31,2.83.68,5.7,1,8.49C132.3,220.71,132.94,225.71,133.33,230.63Zm63.88-93.17c2.15,10.87,14,71.07,14.23,81l.07-.7c.08-.7,7.22-69.63,7.22-77.42a50.68,50.68,0,0,0-1-7.85Zm112.3,3.65,35.7,22.6,2.6-5.45L333.43,96.74l-20.28,1.62a58.45,58.45,0,0,1,5.75,15.77C320.4,121.92,311.75,137.3,309.51,141.11Zm-74.13,29-3.92-37.76,14.45,35.74Zm-.47-23.89,2.23,21.52,6-1.16Zm54.59-10.06-5.26-25.65.55-.38c.21-.14,5.18-3.56,8.71-3.56a3.23,3.23,0,0,1,2.52,1.32c2.33,2.81,3.05,9.88,1.72,16.81h0c-1.72,8.92-6.93,11-7.15,11Zm-3-24.74,4.47,21.83c1.4-1,3.79-3.49,4.83-8.92,1.33-6.91.39-13.14-1.29-15.17a1.35,1.35,0,0,0-1-.59C291.37,108.54,288.09,110.35,286.47,111.39Z"/></svg>