<svg id="Layer_1" data-name="Layer 1" xmlns="http://www.w3.org/2000/svg" width="1926" height="1081" viewBox="0 0 1926 1081"><defs><style>.cls-1{fill:#bfebff;}.cls-2{fill:#fff;}.cls-3{fill:#7eba28;}.cls-4{fill:none;}.cls-5{fill:#438031;}.cls-6{fill:#b1e055;}.cls-7{fill:#a6cc4a;}.cls-8{fill:#f28945;}.cls-9{fill:#ed6f33;}.cls-10{fill:#f4a8ba;}.cls-11{fill:#da3e8f;}.cls-12{fill:#ffd629;}.cls-13{fill:#f7f9d7;}.cls-14{fill:#e2e1cf;}.cls-15{fill:#ff0;}.cls-16{fill:#e97804;}.cls-17{fill:#e52320;}.cls-18{fill:#e84b94;}.cls-19{fill:#92278e;}.cls-20{fill:#754c24;}.cls-21{fill:#e8c6a7;}.cls-22{fill:#001300;}.cls-23{fill:#e73635;}.cls-24{fill:#1d1d1b;}.cls-25{fill:#b29983;}.cls-26{fill:#0071bb;}.cls-27{fill:#75a9dc;}.cls-28{fill:#212121;}</style></defs><rect class="cls-1" x="1" y="1" width="1924" height="1079"/><ellipse class="cls-2" cx="963.97" cy="381.97" rx="11.81" ry="12.06"/><ellipse class="cls-2" cx="1036.41" cy="337.53" rx="19.72" ry="16.32"/><ellipse class="cls-2" cx="1113.12" cy="314.39" rx="19.72" ry="19.98"/><path class="cls-2" d="M1611.33,232.7c0-38.11-27.75-70.15-65.39-79.45-16.12-17.33-39.85-28.3-66.34-28.3a92.27,92.27,0,0,0-42.46,10.22,91.13,91.13,0,0,0-57.38-20,92.64,92.64,0,0,0-37.74,8,92.73,92.73,0,0,0-37.75-8c-45.13,0-82.3,31.81-87.31,72.75a79.1,79.1,0,0,0-18.06,39.92c-17.69,15-28.8,36.72-28.8,60.83a78.66,78.66,0,0,0,20,52.16,76.19,76.19,0,0,0-.5,8.72c0,45.39,39.36,82.18,87.91,82.18a92.21,92.21,0,0,0,43.91-11,92.37,92.37,0,0,0,120.27-3.11,92.73,92.73,0,0,0,37.93,8c31.07,0,58.36-15.08,74-37.84,33.69-11.5,57.74-41.73,57.74-77.21a77.62,77.62,0,0,0-10.49-39A77.68,77.68,0,0,0,1611.33,232.7Z"/><path class="cls-3" d="M1385,235c3.68-6.16,45-7.47,58.31.43s34.47,44.79,30,52.22c-4.32,7.26-47,6.33-60.22-1.57S1381.1,241.45,1385,235Z"/><path class="cls-3" d="M1281.73,147.65c6.48-3.09,38.42,12.06,43.65,23s-1,46.27-8.8,50c-7.63,3.64-39.18-13.65-44.41-24.6S1274.91,150.9,1281.73,147.65Z"/><path class="cls-4" d="M1353.74,111.29l-74.7,34,1.49,3.27a4.76,4.76,0,0,1,1.2-.88c6.48-3.09,38.42,12.06,43.65,23s-1,46.27-8.8,50a6.66,6.66,0,0,1-3,.48l.85,1.88,74.7-34Z"/><path class="cls-5" d="M1316.58,220.66c7.8-3.72,14-39,8.8-50s-37.17-26.11-43.65-23a4.76,4.76,0,0,0-1.2.88l33,72.61A6.66,6.66,0,0,0,1316.58,220.66Z"/><path class="cls-6" d="M1474.4,417c.22.42.17.34,0,0-2.37,1.51-4.68,1.95-6.54-1.5-24.27-45-62.88-64.57-95.81-100.37-2.53-2.75-2.12-4.93,0-6.93,0-.52-.08-.37,0,0,2.15-2,4.28-2.46,6.87.32,33.83,36.3,72.38,56,97.09,102C1477.93,414,1476.76,415.46,1474.4,417Z"/><path class="cls-7" d="M1481.85,412.28h0c-2.42,1.74-4.6,2-6.89-1.22-29.75-41.59-61.72-65.15-95.58-100.89-2.6-2.74-2.14-4.86,0-6.89-.07-.52-.1-.37,0,0,2.1-2,4.23-2.54,6.87.21,34.47,35.91,66.65,59.9,96.57,102C1485.07,408.69,1484.27,410.54,1481.85,412.28Z"/><path class="cls-6" d="M1489.33,406.35h0c-2.28,1.92-4.48,2.18-6.85-.73-31-37.94-61.44-67.31-95.76-101.64-2.63-2.63-2.21-4.78-.14-6.86-.07-.51-.1-.36,0,0,2.06-2.08,4.31-2.58,7,.06,34.53,34.39,65.3,64.06,96.27,102.26C1492.19,402.37,1491.61,404.43,1489.33,406.35Z"/><path class="cls-7" d="M1495.61,401.65h0c-2,1.83-4.5,2.23-6.91-.38-31.33-34-62.88-70.06-96-102.29-2.54-2.47-1.86-5.09-.13-6.88h0a4.61,4.61,0,0,1,7,0c33.11,32.46,65,68.44,96.25,102.66C1498.2,397.35,1497.59,399.82,1495.61,401.65Z"/><path class="cls-6" d="M1502.88,398c.27.26.25.23,0,0-1.85,2-4,2.69-6.34.5-30.59-28.57-73.08-70-93.38-105.6-1.56-2.73-1.35-5.07,1.06-6.79,0-.46,0-.41,0,0,2.41-1.72,4.87-1.22,6.44,1.46,20.49,34.94,62.31,75.35,92.41,104C1505.38,393.7,1504.74,396,1502.88,398Z"/><path class="cls-6" d="M1415.91,256.05c-9.57,27.39-41.51,42.29-83.28,31.24s-65.56-44.67-55.59-70.82,45-43.27,86.16-33.06S1425.49,228.67,1415.91,256.05Z"/><path class="cls-6" d="M1349.89,377.34c-2-3-15.54-10.45-20.13-6.16a13.07,13.07,0,0,0-1.29-1.07,17,17,0,0,0-2.23-1.45c-.85-.41-1.72-.73-2.53-1.22a28.1,28.1,0,0,0-10.53-2.82c-.06-.56-.13-1.12-.2-1.67-.3-2.55-.15-5.17-.37-7.73-.13-1.51-.38-3-.47-4.51a37.52,37.52,0,0,0-.06-4,6.7,6.7,0,0,1-.07-1.1,5.87,5.87,0,0,1,.94-.09c.79,0,1.51-.1,2.29-.17a29.76,29.76,0,0,1,5.17,0,20.24,20.24,0,0,1,4.73,1.46c.69.25,1.49.49,2.23.82-1.86,5.44,4.46,12.53,7.78,14.89s12.28,9.5,16.85,7.93-.36-15.83-2.29-18.72c-2.15-3.24-17.17-11.39-21.42-5.85l-.07.11a13.41,13.41,0,0,0-1.94-.74,42.67,42.67,0,0,0-5-1.61,30.11,30.11,0,0,0-5.37-.15c-.91,0-1.79.19-2.69.19a9.24,9.24,0,0,0-1.18.1c0-.3,0-.59,0-.88,0-1.5,0-3,0-4.48,0-2.65.19-5.27.17-7.93a32.2,32.2,0,0,1,.32-3.91,28.87,28.87,0,0,1,.31-3.2,68.14,68.14,0,0,1,2.16-7.23,26.5,26.5,0,0,0,1.36-8.93c0-2.35-3.64-2.35-3.65,0a24.84,24.84,0,0,1-1.58,8.91,42.6,42.6,0,0,0-1.9,6.82c-.21,1.17-.23,2.3-.35,3.47a.93.93,0,0,0-.24,0,27.57,27.57,0,0,0-5.75.15,17.09,17.09,0,0,0-2.41.92,7.66,7.66,0,0,0-2.19,1.06c-.66.51-1.38.92-2,1.43a10.07,10.07,0,0,0-1.67,1.84c-.54.74-1.05,1.5-1.54,2.27a15.8,15.8,0,0,0-.7,1.43c-5.13-1-11.86,7.11-14,10.91s-8.41,13.79-6.84,17.65,14.56-4.31,17.17-6.82c2.82-2.71,9.49-17.64,5.32-21l.2-.42a16.94,16.94,0,0,1,1.33-2.14,12.92,12.92,0,0,1,1.45-1.86,18.26,18.26,0,0,1,2-1.47,7.17,7.17,0,0,1,2-1.08c.73-.27,1.4-.65,2.15-.85a10.48,10.48,0,0,1,2.68-.16h2.9a19.83,19.83,0,0,0-.13,2.3c0,2.66-.18,5.28-.17,7.93,0,1.49,0,3,0,4.48a25.38,25.38,0,0,0-.13,3.89c.2,1.29.07,2.55.15,3.87.06,1.08.2,2.16.33,3.24a11.05,11.05,0,0,0-3.58.46,24.69,24.69,0,0,0-4.82,2.48,12.21,12.21,0,0,0-3.62,3.78c-.14.21-.31.4-.46.59-4.29-1.16-9.88,5.52-11.62,8.66s-6.72,11.17-5.37,14.35,12-3.29,14.08-5.31,7-13.17,4.46-16.67l.13-.17a11.84,11.84,0,0,1,3.32-3.65,23.18,23.18,0,0,1,4.26-2.26,9.87,9.87,0,0,1,3.38-.44c.17,2.39.11,4.79.35,7.18.28,2.76.68,5.46.7,8.25a2.06,2.06,0,0,0,0,.45c.1,1,.32,2,.48,3.05a.45.45,0,0,1,0,.12H1309c-1,0-2-.12-3-.07-1.91.09-3.3,1.47-4.71,2.61a17.74,17.74,0,0,1-2,1.77c-.28.17-.59.24-.85.43a3,3,0,0,0-.69.86,11.18,11.18,0,0,0-.7,1.21c-2.77,1.12-5.58,4.63-6.62,6.51-1.34,2.41-5.24,8.73-4.18,11.21s9.33-2.59,11-4.16c1.84-1.77,6.2-11.92,2.8-13.62a3.05,3.05,0,0,0-.7-.24l.06-.1c.32-.43.94-.57,1.37-.93.63-.53,1.21-1.12,1.85-1.65s1.25-1,1.91-1.49a3.42,3.42,0,0,1,2.33-.58c1.33.06,2.66.06,4,.06.09.58.21,1.16.28,1.74s0,1,.07,1.56a14.66,14.66,0,0,0-.9,1.7,23.09,23.09,0,0,0-1.54,3.75,12,12,0,0,0-.67,3.69c0,.06,0,.13,0,.2-2.41,1.89-3.75,6.78-4,9.09-.26,2.74-1.3,10.09.67,11.94s7.5-6.11,8.38-8.21c1-2.36.9-13.4-2.89-13.6l-.34,0a3.31,3.31,0,0,1,.08-.82c.13-.53.31-1.05.45-1.58a19.81,19.81,0,0,1,1.19-3.08c.1.79.2,1.58.32,2.42a1.85,1.85,0,0,0,2.25,1.28,1.88,1.88,0,0,0,1.27-2.25c-.08-.6-.11-1.21-.22-1.8s-.09-.93-.15-1.44a6.81,6.81,0,0,1,2.2,1.23,14.76,14.76,0,0,1,2.39,2.15,7.45,7.45,0,0,0,1,1.08c.33.27.7.49,1,.77a10,10,0,0,1,.93,1,10.83,10.83,0,0,0,1.07.95,26.09,26.09,0,0,1,2,2.43c.63.7,1.1,1.49,1.7,2.22a20.92,20.92,0,0,1,1.23,1.79c-3.31,3.67.27,11.51,2.42,14.37s7.44,10.8,11.33,10.76,3.19-12.68,2.34-15.5c-.92-3-9.88-12.57-14.65-10.67a11.51,11.51,0,0,1-.68-1.12c-.26-.43-.61-.77-.9-1.18a28.65,28.65,0,0,0-4.11-4.88c-.7-.62-1.21-1.39-2-1.95s-1.53-1.57-2.38-2.32c-1.44-1.29-3.26-2.94-5.29-3-.06-.56,0-1.11-.09-1.68s-.23-1.14-.29-1.72,0-1.17-.12-1.77a24,24,0,0,1-.49-3.37.88.88,0,0,0,0-.16c0-1.41-.14-2.8-.28-4.2a20.26,20.26,0,0,1,4.57.79c1,.28,1.91.62,2.86.92a12.81,12.81,0,0,1,2.49,1.16c.74.41,1.56.66,2.31,1.06a14.43,14.43,0,0,1,2.08,1.42c.34.28.67.57,1,.87-2.61,5.29,3.91,12.63,7.24,15s11.81,9.16,16.2,7.66S1351.74,380.12,1349.89,377.34Z"/><path class="cls-6" d="M1498.5,216.29c-2.5-1.54-8.71-12-5.15-15.6a8.38,8.38,0,0,1-.89-1,13.73,13.73,0,0,1-1.22-1.72,21.35,21.35,0,0,0-1-2,16.56,16.56,0,0,1-1.69-4.22,16,16,0,0,1-.68-3.94l-1.39-.15c-2.12-.23-4.3-.11-6.43-.27-1.25-.1-2.49-.29-3.75-.36a33,33,0,0,1-3.3,0,6.85,6.85,0,0,0-.91-.05,3.64,3.64,0,0,0-.07.74c0,.6-.09,1.16-.14,1.77a21.5,21.5,0,0,0,0,4,14.59,14.59,0,0,0,1.22,3.66c.21.54.42,1.15.69,1.73,4.52-1.45,10.42,3.44,12.39,6s7.92,9.51,6.63,13.05-13.16-.25-15.57-1.73c-2.7-1.66-9.51-13.29-4.9-16.61l.09,0a9.74,9.74,0,0,1-.62-1.5,30.67,30.67,0,0,1-1.35-3.84,22.22,22.22,0,0,1-.14-4.16c0-.7.16-1.39.16-2.09a4.6,4.6,0,0,1,.08-.91l-.74,0h-3.72c-2.2,0-4.38.15-6.59.14a29.45,29.45,0,0,0-3.25.26,26.57,26.57,0,0,0-2.66.25,58.62,58.62,0,0,0-6,1.69,23.85,23.85,0,0,1-7.42,1.08,1.42,1.42,0,1,1,0-2.84,21.82,21.82,0,0,0,7.4-1.24,37.82,37.82,0,0,1,5.67-1.49c1-.17,1.91-.18,2.88-.28a1.06,1.06,0,0,1,0-.19,20.14,20.14,0,0,1,.12-4.46,12.63,12.63,0,0,1,.76-1.87,6,6,0,0,1,.88-1.7c.42-.51.76-1.07,1.18-1.57a8.29,8.29,0,0,1,1.53-1.3c.61-.43,1.24-.82,1.89-1.2a12.82,12.82,0,0,1,1.18-.55c-.82-4,5.88-9.21,9-10.89s11.45-6.55,14.66-5.34-3.56,11.3-5.64,13.33c-2.25,2.19-14.65,7.4-17.48,4.17l-.34.16a14.22,14.22,0,0,0-1.78,1,10.9,10.9,0,0,0-1.54,1.13,13.85,13.85,0,0,0-1.22,1.55,5.52,5.52,0,0,0-.9,1.56,17.17,17.17,0,0,0-.7,1.66,7.64,7.64,0,0,0-.12,2.08v2.21s0,0,0,0c.64-.06,1.28-.11,1.91-.11,2.22,0,4.39-.15,6.6-.15h3.71a23.5,23.5,0,0,1,3.24-.11,31.3,31.3,0,0,0,3.22.11c.9,0,1.79.15,2.69.25a8.27,8.27,0,0,1,.37-2.77,19,19,0,0,1,2.06-3.75,9.91,9.91,0,0,1,3.14-2.82,5.6,5.6,0,0,0,.49-.36c-1-3.32,4.57-7.67,7.17-9s9.27-5.24,11.92-4.19-2.71,9.27-4.39,10.92-10.93,5.49-13.85,3.5l-.14.1a9.45,9.45,0,0,0-3,2.58,17,17,0,0,0-1.88,3.31,7.21,7.21,0,0,0-.35,2.62c2,.13,4,.08,6,.26,2.3.21,4.55.51,6.87.52a2.1,2.1,0,0,1,.37,0c.85.08,1.69.24,2.53.37h.1v-1.23c0-.79-.1-1.58-.06-2.36.06-1.49,1.21-2.57,2.16-3.66a15.55,15.55,0,0,0,1.47-1.58,5.19,5.19,0,0,1,.35-.66,2.52,2.52,0,0,1,.71-.54c.32-.2.66-.38,1-.55.93-2.14,3.85-4.33,5.41-5.14,2-1,7.24-4.08,9.31-3.26s-2.13,7.23-3.44,8.52c-1.46,1.43-9.89,4.83-11.31,2.2a1.92,1.92,0,0,1-.2-.55l-.09,0c-.36.25-.47.74-.77,1.07-.44.49-.93.94-1.36,1.44s-.86,1-1.24,1.48a2.5,2.5,0,0,0-.48,1.81c0,1,.06,2.06.06,3.09.48.07,1,.16,1.44.21s.87,0,1.3.05a15.38,15.38,0,0,1,1.41-.7,20.26,20.26,0,0,1,3.12-1.19,10.24,10.24,0,0,1,3.06-.53h.17c1.57-1.88,5.63-2.93,7.55-3.1,2.28-.21,8.38-1,9.93.49s-5.07,5.84-6.82,6.52c-2,.77-11.13.73-11.3-2.21a1.23,1.23,0,0,1,0-.27,3.23,3.23,0,0,0-.69.07c-.44.1-.88.24-1.31.35a17,17,0,0,0-2.56.93l2,.24a1.43,1.43,0,0,1,1.07,1.74,1.58,1.58,0,0,1-1.87,1c-.5-.07-1-.09-1.5-.17s-.76-.07-1.19-.12a5.07,5.07,0,0,0,1,1.7,12.59,12.59,0,0,0,1.79,1.86,5.68,5.68,0,0,1,.91.78c.22.26.4.55.64.8s.56.48.85.72a8.76,8.76,0,0,1,.79.82,22,22,0,0,0,2,1.55c.59.48,1.24.85,1.85,1.31s1,.64,1.49.95c3-2.57,9.57.18,12,1.84s9,5.75,9,8.77-10.54,2.5-12.88,1.85-10.47-7.64-8.9-11.34a10.63,10.63,0,0,0-.93-.53c-.36-.19-.64-.47-1-.69a24.38,24.38,0,0,1-4.07-3.17c-.51-.55-1.15-.94-1.62-1.54s-1.31-1.19-1.93-1.84c-1.08-1.11-2.45-2.53-2.55-4.1-.47,0-.92,0-1.4-.06s-1-.18-1.43-.22-1,0-1.47-.09a22.15,22.15,0,0,0-2.8-.38h-.13c-1.18,0-2.34-.1-3.5-.21a14.93,14.93,0,0,0,.67,3.55c.24.74.52,1.47.77,2.21a9.69,9.69,0,0,0,1,1.93c.34.57.55,1.21.88,1.78a11.06,11.06,0,0,0,1.19,1.62c.23.26.47.52.72.77,4.4-2,10.51,3,12.49,5.58s7.63,9.14,6.4,12.55S1500.82,217.72,1498.5,216.29Z"/><path class="cls-5" d="M1228.27,201.75c3.32-5.82,37.46-10.36,48-4.35s26.3,37.35,22.3,44.37c-3.9,6.86-39,9.49-49.54,3.49S1224.78,207.89,1228.27,201.75Z"/><path class="cls-5" d="M1283.07,147.89c6.47-3.09,38.42,12.06,43.65,23s-1,46.27-8.81,50c-7.62,3.64-39.17-13.65-44.4-24.61S1276.24,151.15,1283.07,147.89Z"/><path class="cls-5" d="M1395.43,241.34c3.68-6.16,45-7.47,58.31.43s34.47,44.79,30,52.22c-4.32,7.26-47,6.32-60.22-1.58S1391.56,247.84,1395.43,241.34Z"/><path class="cls-5" d="M1411.38,134.5c10.49,4.6,18.13,48.09,9.86,56s-39.5,20.45-49.67,15.88-18-37.21-13-47.4S1400.31,129.64,1411.38,134.5Z"/><path class="cls-8" d="M1315.69,295.49c-1.22-23,16.49-36.15,38.5-34.78s39.33,13.87,40.24,36.92-16.56,35.31-38.51,34.41S1316.91,318.49,1315.69,295.49Z"/><path class="cls-9" d="M1343.68,236.24c-1-19.2,13.61-30.18,31.76-29s32.44,11.58,33.2,30.82-13.66,29.48-31.77,28.72S1344.69,255.43,1343.68,236.24Z"/><path class="cls-10" d="M1396,214.29c-1-20,14.11-31.41,33-30.22s33.65,12.05,34.44,32.07-14.18,30.69-33,29.9S1397.08,234.27,1396,214.29Z"/><path class="cls-11" d="M1232.19,275.14c-1.32-31.2,17.83-49,41.62-47.19s42.51,18.81,43.5,50.08-17.9,47.91-41.63,46.69S1233.51,306.34,1232.19,275.14Z"/><path class="cls-10" d="M1314.79,195.45c-4.25-19.55,9.15-33.31,28.26-35.21s35.75,6.4,39.75,26-9.32,32.6-28.32,34.89S1319,215,1314.79,195.45Z"/><path class="cls-12" d="M1351.55,247.5c-4.61,14.81-17.21,23.84-32.57,19.52s-23.12-21.18-18.4-35.34,18.56-24.48,33.73-20.59S1356.17,232.7,1351.55,247.5Z"/><path class="cls-12" d="M1428,284.59c-3.49,11-13.42,17.52-25.72,14.11s-18.7-16.06-15.12-26.54,14.48-18,26.62-14.9S1431.45,273.63,1428,284.59Z"/><path class="cls-4" d="M1493.58,382.32l16.14-13.86-59-67.59L1433,316C1450.28,338.51,1472.47,361.64,1493.58,382.32Z"/><path class="cls-4" d="M1396.89,347l-6.49,5.57,59.06,67.59,13.29-11.41C1443.26,384.81,1419.82,367.3,1396.89,347Z"/><path class="cls-13" d="M1462.75,408.78l5.13-4.4c-20.48-23.37-41.8-42.28-63.87-63.45l-7.12,6.1C1419.82,367.3,1443.26,384.81,1462.75,408.78Z"/><path class="cls-14" d="M1467.88,404.38l7-6c-20.34-22.66-40.85-43.27-62.46-64.66l-8.43,7.24C1426.08,362.1,1447.4,381,1467.88,404.38Z"/><path class="cls-13" d="M1474.9,398.35l5.62-4.82c-20.19-22-40.57-44.23-61.42-65.55l-6.66,5.71C1434.05,355.08,1454.56,375.69,1474.9,398.35Z"/><path class="cls-14" d="M1485.13,389.57c-21.12-20.65-43.21-43.88-60.36-66.46L1419.1,328c20.85,21.32,41.23,43.56,61.42,65.55Z"/><path class="cls-13" d="M1485.13,389.57l8.45-7.25c-21.11-20.68-43.3-43.81-60.57-66.28l-8.24,7.07C1441.92,345.69,1464,368.92,1485.13,389.57Z"/><path class="cls-15" d="M1332.66,225.71a15.77,15.77,0,0,1,9.22,17.27,13.76,13.76,0,0,1-5.15,8.72,12.56,12.56,0,0,1-9.46,2.61,9.68,9.68,0,0,1-6.66-4.07,10.62,10.62,0,0,1-1.77-7.86,9,9,0,0,1,3.38-5.72,8.24,8.24,0,0,1,6.21-1.72,6.41,6.41,0,0,1,4.4,2.69,7.05,7.05,0,0,1,1.17,5.19,6,6,0,0,1-2.25,3.8,5.47,5.47,0,0,1-4.13,1.14,4.5,4.5,0,0,1-3.73-5.28,4.08,4.08,0,0,1,1.52-2.57,3.72,3.72,0,0,1,2.8-.78,3,3,0,0,1,2,1.24,3.21,3.21,0,0,1,.53,2.38.6.6,0,0,1-.66.52.58.58,0,0,1-.47-.67,2,2,0,0,0-.34-1.51,1.83,1.83,0,0,0-1.27-.78,2.58,2.58,0,0,0-1.94.54,2.82,2.82,0,0,0-1.06,1.79,3.36,3.36,0,0,0,2.79,3.94,4.6,4.6,0,0,0,5-3.92,5.79,5.79,0,0,0-1-4.31,5.32,5.32,0,0,0-3.65-2.23,7.11,7.11,0,0,0-5.35,1.48,7.8,7.8,0,0,0-2.92,4.93,9.46,9.46,0,0,0,1.57,7,8.64,8.64,0,0,0,5.92,3.61,11.45,11.45,0,0,0,8.61-2.37,12.53,12.53,0,0,0,4.68-7.93c1.33-8.26-4-15.86-12-16.94a18.18,18.18,0,0,0-13.69,3.78,19.87,19.87,0,0,0-7.45,12.61.59.59,0,0,1-.66.51.56.56,0,0,1-.47-.66,21.08,21.08,0,0,1,7.91-13.4,19.37,19.37,0,0,1,14.55-4A14.92,14.92,0,0,1,1332.66,225.71Z"/><path class="cls-15" d="M1401,267.89a12.21,12.21,0,0,1,14.86-2,9.81,9.81,0,0,1,3.45,13.45,8,8,0,0,1-10.89,2.83,6.44,6.44,0,0,1-2.26-8.83,5.24,5.24,0,0,1,7.18-1.86,4.27,4.27,0,0,1,1.51,5.86,3.53,3.53,0,0,1-4.82,1.26,2.92,2.92,0,0,1-1-4,2.42,2.42,0,0,1,3.3-.86.44.44,0,0,1,.16.61.45.45,0,0,1-.61.16,1.5,1.5,0,0,0-1.15-.16,1.47,1.47,0,0,0-.93.7,2,2,0,0,0-.22,1.53,2,2,0,0,0,.93,1.23,2.64,2.64,0,0,0,3.6-.94,3.4,3.4,0,0,0-1.2-4.65,4.33,4.33,0,0,0-3.3-.46,4.38,4.38,0,0,0-2.67,2,5.57,5.57,0,0,0-.6,4.22,5.51,5.51,0,0,0,2.56,3.39,7.06,7.06,0,0,0,9.67-2.51,8.92,8.92,0,0,0,1-6.77,8.82,8.82,0,0,0-4.11-5.46,11.31,11.31,0,0,0-15.45,4,14.2,14.2,0,0,0,5,19.46.44.44,0,1,1-.45.76,15.07,15.07,0,0,1-5.31-20.67A12.41,12.41,0,0,1,1401,267.89Z"/><path class="cls-16" d="M1355.34,279.11c9.94,1.42,18.1,9.09,19.25,19a16.17,16.17,0,0,1-3.85,12.54,17.87,17.87,0,0,1-12.11,6.15,15.21,15.21,0,0,1-10.75-3.11,13.85,13.85,0,0,1-5.4-9.37,10.64,10.64,0,0,1,2.53-8.23,11.77,11.77,0,0,1,8-4,10.14,10.14,0,0,1,7.1,2.05,9.19,9.19,0,0,1,3.56,6.19,7.14,7.14,0,0,1-1.68,5.48,7.82,7.82,0,0,1-5.29,2.68,6.51,6.51,0,0,1-7.14-5.53,4.74,4.74,0,0,1,1.14-3.7,5.27,5.27,0,0,1,3.57-1.82,4.66,4.66,0,0,1,3.27.94,4.23,4.23,0,0,1,1.63,2.85.77.77,0,0,1-.72.84.82.82,0,0,1-.9-.7,2.65,2.65,0,0,0-1-1.79,2.9,2.9,0,0,0-2.07-.6,3.69,3.69,0,0,0-2.48,1.26,3.34,3.34,0,0,0-.79,2.58,4.89,4.89,0,0,0,5.34,4.13,5.92,5.92,0,0,0,5.52-6.47,7.54,7.54,0,0,0-3-5.14,8.33,8.33,0,0,0-5.89-1.71,10.17,10.17,0,0,0-6.85,3.48,9.18,9.18,0,0,0-2.18,7.1,12.29,12.29,0,0,0,4.79,8.33,13.59,13.59,0,0,0,9.55,2.76,16.28,16.28,0,0,0,11-5.59,14.8,14.8,0,0,0,3.5-11.41c-1.27-10.81-11.54-18.75-22.92-17.72a25.9,25.9,0,0,0-17.52,8.9,23.47,23.47,0,0,0-5.57,18.14.77.77,0,0,1-.72.85.82.82,0,0,1-.9-.7,25,25,0,0,1,5.91-19.28,27.56,27.56,0,0,1,18.62-9.46A23.72,23.72,0,0,1,1355.34,279.11Z"/><path class="cls-17" d="M1366.46,228.77c3.81-5.09,11.74-6.4,19.36-2.7a18.44,18.44,0,0,1,8.19,7.74,12.14,12.14,0,0,1,1.17,9.68,7.48,7.48,0,0,1-5.28,4.81,12.71,12.71,0,0,1-13.8-6.12,8,8,0,0,1-.77-6.35,4.93,4.93,0,0,1,3.49-3.17,8.41,8.41,0,0,1,9.13,4.06,5.25,5.25,0,0,1,.51,4.22c-.74,2.18-3.47,2.93-6.06,1.67a5.37,5.37,0,0,1-2.42-2.29,3.59,3.59,0,0,1-.35-2.86,2.28,2.28,0,0,1,1.61-1.46,3.69,3.69,0,0,1,2.55.32.69.69,0,0,1,.42.79c-.09.27-.43.36-.76.21a2.29,2.29,0,0,0-1.62-.2,1.44,1.44,0,0,0-1,.92,2.48,2.48,0,0,0,.24,2,3.75,3.75,0,0,0,1.68,1.59c1.94.94,4,.38,4.54-1.25.72-2.1-.73-4.81-3.24-6a6.62,6.62,0,0,0-4.62-.57,4.09,4.09,0,0,0-2.9,2.64,6.89,6.89,0,0,0,.67,5.48,10.45,10.45,0,0,0,4.63,4.38,10.78,10.78,0,0,0,7.48.91,6.61,6.61,0,0,0,4.69-4.27,11.06,11.06,0,0,0-1.06-8.8,16.83,16.83,0,0,0-7.45-7c-8.33-4-17-1.64-19.45,5.36-1.47,4.27-.86,9.24,1.69,14a26.73,26.73,0,0,0,11.85,11.2.69.69,0,0,1,.42.79.53.53,0,0,1-.77.21,28.44,28.44,0,0,1-12.58-11.9c-2.72-5.06-3.36-10.34-1.8-14.88A11.16,11.16,0,0,1,1366.46,228.77Z"/><path class="cls-18" d="M1408.26,214.26c-1.16-8.43,5.24-17.14,16.07-20.8a25.11,25.11,0,0,1,15.21-.33c4.82,1.47,8.47,4.35,10.29,8.12a9.93,9.93,0,0,1-.53,9.55,17.23,17.23,0,0,1-19.06,7.16,10.71,10.71,0,0,1-6.76-5.32,6.58,6.58,0,0,1,.35-6.31,10.79,10.79,0,0,1,6-4.58,10.93,10.93,0,0,1,6.64-.15,7.09,7.09,0,0,1,4.48,3.54c1.36,2.78-.56,6.06-4.25,7.31a7.41,7.41,0,0,1-4.49.09,4.81,4.81,0,0,1-3-2.39,3,3,0,0,1,.17-2.9,4.94,4.94,0,0,1,2.75-2.11.94.94,0,0,1,1.15.35.7.7,0,0,1-.53.92,3.11,3.11,0,0,0-1.74,1.33,1.92,1.92,0,0,0-.11,1.84,3.37,3.37,0,0,0,2.12,1.66,5.09,5.09,0,0,0,3.11-.07c2.76-.93,4.19-3.37,3.18-5.46-1.29-2.68-5.25-3.89-8.82-2.69a9,9,0,0,0-5,3.81,5.45,5.45,0,0,0-.3,5.24,9.22,9.22,0,0,0,5.83,4.59,14.21,14.21,0,0,0,8.6-.19,14.52,14.52,0,0,0,8.07-6.17,8.8,8.8,0,0,0,.47-8.48c-1.65-3.43-5-6-9.36-7.38a22.79,22.79,0,0,0-13.83.3c-11.84,4-18,14.49-13.65,23.42,2.63,5.44,7.92,9.61,14.89,11.74a36.33,36.33,0,0,0,22-.49,1,1,0,0,1,1.15.36c.17.35-.07.76-.54.92a38.54,38.54,0,0,1-23.38.51c-7.4-2.26-13-6.69-15.82-12.47A14.83,14.83,0,0,1,1408.26,214.26Z"/><path class="cls-18" d="M1356.1,205.78c8.32-4.33,13.24-13.41,11.37-22.18a14.1,14.1,0,0,0-7.06-9.44,16.81,16.81,0,0,0-12.46-1.42,14.77,14.77,0,0,0-8.54,6,12.53,12.53,0,0,0-2,9.66,9.25,9.25,0,0,0,4.63,6.2,11,11,0,0,0,8.18.92,9.76,9.76,0,0,0,5.64-4,8.31,8.31,0,0,0,1.32-6.38,6.17,6.17,0,0,0-3.09-4.12,7.35,7.35,0,0,0-5.43-.62,6.12,6.12,0,0,0-4.66,6.95,4.15,4.15,0,0,0,2.08,2.79,5,5,0,0,0,3.68.41,4.44,4.44,0,0,0,2.59-1.82,3.79,3.79,0,0,0,.61-2.93.7.7,0,0,0-.88-.5.78.78,0,0,0-.59.88,2.41,2.41,0,0,1-.38,1.85,2.89,2.89,0,0,1-1.64,1.16,3.47,3.47,0,0,1-2.56-.29,2.87,2.87,0,0,1-1.44-1.94,4.58,4.58,0,0,1,3.48-5.19,5.3,5.3,0,0,1,6.75,3.76,6.83,6.83,0,0,1-1.09,5.29,8.14,8.14,0,0,1-4.69,3.31,9.48,9.48,0,0,1-7-.8,8,8,0,0,1-4-5.35,11.13,11.13,0,0,1,1.78-8.58,13.13,13.13,0,0,1,7.58-5.35,15.24,15.24,0,0,1,11.33,1.29A12.76,12.76,0,0,1,1366,184c2.06,9.57-4.65,19.56-15,22.26a24.19,24.19,0,0,1-18-2.05,20.39,20.39,0,0,1-10.22-13.66.68.68,0,0,0-.88-.49.76.76,0,0,0-.59.87,21.66,21.66,0,0,0,10.85,14.52,25.78,25.78,0,0,0,19.15,2.18A23.81,23.81,0,0,0,1356.1,205.78Z"/><path class="cls-18" d="M1303.27,289.62c6-12,1.91-27.65-10.75-37.73a32,32,0,0,0-20.29-7c-7.25.1-13.67,2.8-18.09,7.59a17.07,17.07,0,0,0-4.28,14.38,22.66,22.66,0,0,0,8.59,14.2,21,21,0,0,0,13.31,4.62,16.21,16.21,0,0,0,11.87-5,11.27,11.27,0,0,0,2.83-9.49,15,15,0,0,0-5.67-9.38,14,14,0,0,0-8.85-3.07,10.77,10.77,0,0,0-7.89,3.31c-3.28,3.54-2.41,9.22,1.9,12.65a9.44,9.44,0,0,0,6,2.08,7.25,7.25,0,0,0,5.34-2.24,5.14,5.14,0,0,0,1.3-4.36,6.89,6.89,0,0,0-2.6-4.31,1.31,1.31,0,0,0-1.74,0,1.09,1.09,0,0,0,.24,1.59,4.35,4.35,0,0,1,1.65,2.72,3.31,3.31,0,0,1-.82,2.76,5.08,5.08,0,0,1-3.71,1.55,6.56,6.56,0,0,1-4.16-1.44c-3.23-2.56-3.87-6.79-1.43-9.45,3.15-3.42,9.11-3.51,13.28-.19a12.41,12.41,0,0,1,4.7,7.78,9.35,9.35,0,0,1-2.35,7.89,13.94,13.94,0,0,1-10.23,4.29,18.13,18.13,0,0,1-11.48-4,20.14,20.14,0,0,1-7.62-12.61,15.18,15.18,0,0,1,3.8-12.78,22.44,22.44,0,0,1,16.45-6.9,29.1,29.1,0,0,1,18.45,6.41c13.83,11,16.57,29.2,6.11,40.56-6.39,6.93-15.68,10.82-26.16,11a46.3,46.3,0,0,1-29.36-10.18,1.28,1.28,0,0,0-1.73,0,1.09,1.09,0,0,0,.24,1.6,49.16,49.16,0,0,0,31.19,10.82c11.14-.16,21-4.3,27.8-11.66A26.21,26.21,0,0,0,1303.27,289.62Z"/><path class="cls-2" d="M838.76,961.21c.43,0,.79,0,1.12,0-1.26-.08-2.51-.17-3.76-.27a3.43,3.43,0,0,0,.41.29A21.75,21.75,0,0,1,838.76,961.21Z"/><path class="cls-2" d="M840,961.21h-.07c-.33,0-.69,0-1.12,0a21.75,21.75,0,0,0-2.23,0,2.27,2.27,0,0,0,1.32.41A7.15,7.15,0,0,0,840,961.21Z"/><path class="cls-2" d="M840,961.21h0Z"/><path class="cls-19" d="M118,232.45c-3.35,13-1.21,16.83,3,33.09s21.53,57.89,26.49,72.89,3.55,19.67,12.23,25.54,12.56,1.53,21.31-.52,5.41-24.49,1.59-31.72S172,308,171.38,300.84s-3.23-8.51,3.77-7.59,10.45,8.07,11.66,17.75,4.22,34,14.84,40.14,42.71.57,39-13.51-14.1-39.63-16.24-57.08S215,238,207.33,224.88s-16.24-11.08-25.47-13.56-12.75-3-19.11,1.1-3.92,9.24-2,16.13,10.81,24.1,12.57,29.33,4,10.59-.44,9.13-3.54-6.22-7.45-12.44-5.81-23.19-14-30S121.36,219.45,118,232.45Z"/><path class="cls-15" d="M168,368.42c-2.64,0-5.53-.82-9-3.21-6.8-4.59-7.9-8.74-9.9-16.26-.75-2.83-1.59-6-2.92-10-1.91-5.79-5.76-15.79-9.84-26.39-6.6-17.14-14.07-36.57-16.68-46.6-.58-2.25-1.12-4.25-1.61-6.08-3.1-11.45-4.37-16.18-1.39-27.77,1.37-5.31,5.68-9.39,12.13-11.48,8.32-2.69,18.51-1.46,23.7,2.85,5.53,4.6,8.21,13.13,10.57,20.65,1.23,3.9,2.39,7.59,3.71,9.68a33.07,33.07,0,0,1,3.16,6.91c1,2.95,1.58,4.28,3.49,4.91a3.53,3.53,0,0,0,.64.15c.08-1.07-1-4.06-1.58-5.91l-.51-1.47c-.7-2.11-2.72-6.44-4.85-11-3.09-6.68-6.6-14.25-7.74-18.39q-.32-1.12-.63-2.19c-1.7-5.83-3.31-11.33,3.29-15.59,6.79-4.37,10.74-3.87,20.31-1.29A57.28,57.28,0,0,0,188.2,211c6.92,1.12,14.08,2.28,20.42,13.08,8.2,14,15.23,39.58,17.28,56.25,1.39,11.37,6.32,26.16,10.66,39.22,2.19,6.6,4.27,12.83,5.54,17.66,1.12,4.26-.47,8.18-4.59,11.33-8.72,6.65-28.22,8.71-36.61,3.86-11.23-6.48-14.27-30.78-15.57-41.15v-.1C184,301,180.56,295.47,175,294.73a17.72,17.72,0,0,0-3.07-.23c0,.42.18,1.11.29,1.69a40.48,40.48,0,0,1,.71,4.51c.6,6.58,7,22.69,11.09,30.33,3.34,6.33,5.92,21.78,2.49,29.32a7.43,7.43,0,0,1-5.07,4.56,54.82,54.82,0,0,0-5.67,1.74A23.67,23.67,0,0,1,168,368.42ZM138,222.17a27.75,27.75,0,0,0-8.41,1.28c-3.15,1-8.66,3.59-10.15,9.37-2.78,10.82-1.65,15,1.38,26.24.5,1.83,1,3.85,1.63,6.1,2.56,9.87,10,29.22,16.57,46.29,4.09,10.62,8,20.66,9.89,26.51,1.35,4.1,2.25,7.49,3,10.22,2,7.48,2.81,10.58,8.68,14.55s9,2.88,14.15,1.08a57.93,57.93,0,0,1,6-1.82,4.52,4.52,0,0,0,3-2.88c2.93-6.44.6-21-2.42-26.67-3.5-6.63-10.71-23.74-11.42-31.47a35.83,35.83,0,0,0-.66-4.19c-.38-1.93-.66-3.32.33-4.38s2.59-1.06,5.78-.64c8.88,1.16,11.95,11,13,19.05v.11c1.14,9.07,4.16,33.19,14.09,38.92,6.79,3.93,24.83,2.82,33.29-3.64,3.13-2.4,4.31-5.15,3.51-8.18-1.25-4.74-3.31-10.93-5.49-17.48-4.38-13.19-9.36-28.14-10.79-39.8-2-16.37-8.88-41.45-16.89-55.1-5.62-9.58-11.5-10.53-18.31-11.63-2-.33-4.1-.67-6.25-1.24-9.43-2.54-12.21-2.76-17.9.92-4.52,2.91-3.85,6-2,12.22.21.72.43,1.47.64,2.24,1.07,3.89,4.53,11.34,7.58,17.92,2.25,4.87,4.21,9.07,5,11.33.16.49.33,1,.49,1.46,1.44,4.16,2.57,7.44.92,9.12-.83.84-2.1,1-3.75.46-3.39-1.11-4.31-3.73-5.38-6.76a29.42,29.42,0,0,0-2.87-6.31c-1.53-2.42-2.69-6.11-4-10.38-2.24-7.13-4.78-15.21-9.63-19.24C147.68,223.43,143,222.17,138,222.17Zm36.17,43.58Z"/><path class="cls-19" d="M305.44,189.07c-10.06-5.86-29.32-7-39.78-5.16s-13.79-.4-8.44,12.22,20.5,39,24.93,53.15,16.11,35.61,13.74,46.13-12,6.22-14.09.76,1.41-18.51-6-22.87-25-10.26-31.92-3.23-3.43,12.22-.66,22.12,4.18,33.74,19.45,36.58,41,7.76,54.88.29,18.87-8.63,18.66-27.12-9.82-58.8-15.22-75.74S315.74,199,305.44,189.07Z"/><path class="cls-15" d="M297.19,334.49c-11.92,0-24.85-2.4-34.05-4.11l-.71-.14c-13.41-2.49-16.86-19.62-19.14-31-.53-2.61-1-4.88-1.48-6.67-.45-1.62-.92-3.09-1.37-4.51-2.3-7.29-4-12.55,2.4-19.07,3.37-3.46,9.29-4.53,17.1-3.09A55,55,0,0,1,276.59,272c5.57,3.29,5.73,10.61,5.86,16.49.06,2.83.12,5.5.75,7.13,1,2.7,4.22,4.92,6.81,4.72s3.91-3,4.42-5.27c1.53-6.8-3.58-19.38-8.09-30.47-2.17-5.36-4.23-10.41-5.62-14.88-2.69-8.65-9.52-22-15.53-33.84-3.75-7.35-7.28-14.29-9.35-19.18-2.36-5.57-3.34-8.79-2.11-10.92,1.14-2,3.53-2.26,7.14-2.71,1.33-.16,2.84-.35,4.53-.65,10.22-1.77,30.08-.9,40.79,5.35l.29.21c7.87,7.58,9.94,15.55,12.56,25.64.93,3.59,2,7.66,3.41,12.11,5.22,16.37,15.07,57,15.29,76.19.2,18.06-4.71,20.65-16.57,26.92l-2.88,1.53C312.63,333.42,305.13,334.49,297.19,334.49Zm-43.58-66.16c-3.57,0-6.68.79-8.63,2.79-5.1,5.23-3.88,9.08-1.68,16.07.46,1.44.93,2.94,1.4,4.6.53,1.9,1,4.21,1.53,6.89,2.25,11.18,5.33,26.49,16.75,28.61l.71.14c14.94,2.77,39.95,7.41,53.18.31l2.9-1.54c11.64-6.15,15.15-8,15-24.24-.21-18.65-10.12-59.53-15.15-75.3-1.45-4.54-2.51-8.65-3.46-12.28-2.58-9.94-4.45-17.15-11.6-24.1-10-5.74-29.15-6.54-38.61-4.89-1.77.31-3.31.5-4.68.67-2.42.3-4.52.56-4.91,1.23-.71,1.23,1.45,6.33,2.27,8.25,2,4.79,5.54,11.68,9.26,19,6.07,11.92,12.95,25.43,15.72,34.32,1.36,4.34,3.39,9.34,5.54,14.64,4.9,12.06,10,24.54,8.24,32.26-1.41,6.26-5.07,7.45-7.13,7.6-3.89.28-8.32-2.69-9.83-6.64-.82-2.11-.88-5-.95-8.14-.12-5.4-.25-11.53-4.39-14C270,271.58,260.85,268.33,253.61,268.33Z"/><path class="cls-19" d="M514.44,251.17c12.31,23.26,58.79,5.58,73.43-1.91s9.24-10.75,7.68-19.9-.12-12.56-9.83-18.17-45.33,22.46-48.66,2.11-2.5-44.63-8-65.92-46.09-38.94-47.88-11S502.12,227.91,514.44,251.17Z"/><path class="cls-15" d="M538.82,264.31c-11.1,0-20.83-3.23-25.71-12.44h0c-6.57-12.42-15.42-34.89-22-55.92-4.72-15-12.48-42.83-11.39-59.7.6-9.35,5.46-14.93,13.69-15.7,13.06-1.23,33.17,11,37.14,26.45,3.28,12.78,4.32,26.58,5.32,39.93.69,9.23,1.34,17.94,2.68,26.13.43,2.64,1.45,4.38,3.11,5.33,4.77,2.73,14.65-1.11,23.36-4.49,9.12-3.54,17-6.59,21.46-4,8.68,5,9.16,8.78,10,15,.16,1.25.34,2.65.6,4.2a41.33,41.33,0,0,0,1.21,4.85c1.92,6.47,2.42,10.44-9.69,16.64C578.26,255.87,556.76,264.31,538.82,264.31Zm-23.06-13.84c11.57,21.85,56.57,5.06,71.42-2.54,10.49-5.37,9.77-7.8,8.19-13.11a43,43,0,0,1-1.3-5.21c-.27-1.6-.45-3.05-.62-4.32-.77-6-1.08-8.53-8.48-12.8-3.22-1.86-11.18,1.22-18.87,4.21-9.8,3.8-19.93,7.73-25.94,4.29-2.46-1.4-4-3.91-4.58-7.44-1.36-8.33-2-17.1-2.71-26.39-1-13.22-2-26.89-5.23-39.41-3.54-13.78-22.14-25.33-34-24.22-6.68.63-10.47,5.09-11,12.92-1.74,27,20.41,90.12,33.06,114Z"/><path class="cls-19" d="M306.85,372c-24.34,10-37.73,28.31-39.09,53.66s22.42,54.36,41.68,62.51,44.4,7.14,56.94-1.83,16.25-18,17.26-31.27,3.07-25.67-10.51-34.47-47.16,2.16-48.38,14.21S341.26,447.44,340,450.4s-.17,14.75-15.19,3.05-17.74-39.66,7.13-44.34,27.86-12.45,30-21.46,3.14-15.83-7.33-19.62S331.19,361.93,306.85,372Z"/><path class="cls-15" d="M337.91,495.22a75.91,75.91,0,0,1-29.05-5.69c-20.82-8.81-44-38.67-42.6-64,1.38-25.72,15.22-44.73,40-55h0c24.55-10.14,38-7.9,48.84-4,12.27,4.44,10.15,13.43,8.28,21.37-2.34,9.92-6.11,17.88-31.16,22.59-8.95,1.69-14.9,6.8-16.74,14.4-2.28,9.39,2,20.87,10.26,27.28,6.31,4.92,9,5,10,4.62,1.44-.54,1.9-2.88,2.27-4.76a17.87,17.87,0,0,1,.41-1.79,24.87,24.87,0,0,0-2.92-1.32c-4.93-2-13.19-5.34-12.28-14.37.48-4.76,5.08-9.47,12.94-13.24,11.41-5.48,28.51-8.06,37.74-2.08,13.41,8.69,12.44,20.57,11.41,33.15-.07.9-.15,1.79-.22,2.7-1,12.77-4.3,22.65-17.88,32.37C360.15,492.62,349.39,495.22,337.91,495.22ZM307.43,373.36h0c-24,9.91-36.84,27.53-38.18,52.36-1.27,23.72,21.27,52.79,40.77,61,18.42,7.79,43.31,7,55.48-1.67,12.69-9.09,15.71-17.94,16.64-30.16.07-.91.15-1.81.22-2.71,1-12.17,1.86-22.68-10.05-30.39-8-5.2-24-2.93-34.81,2.27-6.68,3.2-10.89,7.26-11.25,10.84-.64,6.26,4.56,8.91,10.42,11.28,2.52,1,4.19,1.7,4.74,3a2.23,2.23,0,0,1,0,1.72,11.36,11.36,0,0,0-.42,1.72c-.45,2.34-1.15,5.86-4.16,7s-7.07-.5-12.92-5.06c-9.11-7.1-13.87-19.87-11.33-30.36,2.14-8.81,8.92-14.72,19.11-16.64,25.11-4.72,27-12.66,28.79-20.33,2.09-8.88,2.9-14.5-6.38-17.86C343.81,365.72,331,363.62,307.43,373.36Z"/><path class="cls-19" d="M545.09,391.8c10.12,19.31,17,12.3,29.2,4.45s-4.15-34.36-7.72-42.59,20.06,10.1,23.06,7.7,11.18-34,8.7-12.43,42.39,51.57,38.79,18.81.29-48.05-21.91-72.24-32.38,13.72-42,22.33-35.88-34.54-49.62-9.07S535,372.48,545.09,391.8Z"/><path class="cls-15" d="M558.35,405.74a9.78,9.78,0,0,1-2.44-.31c-4.23-1.08-8.09-5.19-12.15-12.94h0c-1.25-2.39-2.76-5.13-4.37-8-11.77-21.27-29.55-53.41-17.14-76.42,2.62-4.86,6-7.77,9.9-8.65,7.84-1.75,16.59,4.73,24.3,10.45,6.59,4.88,12.8,9.49,15.74,6.86,2.31-2.06,4.81-6.19,7.46-10.57,5.43-9,11.59-19.15,20.49-20,5.24-.52,10.52,2.22,16.17,8.37,18.19,19.82,19.22,34.07,20.79,55.65.38,5.17.8,11,1.51,17.45.82,7.44-.68,12.42-4.46,14.78-4.18,2.61-10.73,1.47-18-3.11-10.31-6.52-20.59-19.42-19.32-30.49,0-.23.06-.46.08-.68-.35.93-.7,1.88-1,2.74-2.62,7.15-4,10.64-5.34,11.71-1.94,1.55-5.52-.19-13.82-4.86a72.82,72.82,0,0,0-8.74-4.46c.55,1.24,1.39,2.92,2.36,4.86,5.63,11.21,16.1,32.09,4.73,39.44-1,.66-2,1.31-3,1.95C567,402.9,562.69,405.74,558.35,405.74Zm-23.5-103.63a9.33,9.33,0,0,0-2.05.22c-3.1.69-5.69,3-7.91,7.14C513.25,331,530.56,362.32,542,383c1.61,2.91,3.13,5.66,4.4,8.09h0c3.64,6.94,6.89,10.57,10.24,11.43,3.93,1,8.3-1.9,13.83-5.57,1-.64,2-1.3,3-2,9.11-5.89-.58-25.2-5.78-35.58-1-2.05-1.92-3.82-2.49-5.15-.72-1.64-.64-2.87.22-3.65,1.72-1.55,4.71-.1,12.79,4.44,3.38,1.9,9,5,10.55,5h0c.94-1.12,3-6.83,4.3-10.29,3.11-8.47,3.82-10.26,5.72-9.8,1.65.39,1.83,2,1,9.12-1.14,9.85,8.39,21.58,17.94,27.6,6.15,3.89,11.67,5.05,14.79,3.1,2.68-1.67,3.74-5.79,3.06-11.9-.71-6.47-1.13-12.37-1.51-17.56-1.58-21.7-2.53-34.79-20-53.84-4.9-5.34-9.49-7.84-13.66-7.42-7.41.74-13.15,10.23-18.22,18.61-2.77,4.57-5.38,8.88-8,11.25-4.76,4.25-11.93-1.07-19.52-6.69C548.21,307.47,541,302.11,534.85,302.11Zm54.06,58Z"/><path class="cls-19" d="M669.42,342.68c10.12,19.31,17,12.31,29.19,4.46s-4.14-34.36-7.71-42.59S711,314.65,714,312.24s11.18-34,8.7-12.42,42.39,51.56,38.78,18.81.29-48.06-21.91-72.25-32.38,13.73-42,22.34-35.89-34.54-49.63-9.08S659.3,323.37,669.42,342.68Z"/><path class="cls-15" d="M682.67,356.63a9.7,9.7,0,0,1-2.43-.31c-4.23-1.08-8.09-5.2-12.15-12.94h0c-1.26-2.4-2.77-5.14-4.38-8-11.76-21.27-29.55-53.41-17.14-76.42,2.62-4.86,6-7.76,9.9-8.64,7.86-1.76,16.6,4.73,24.31,10.44,6.58,4.88,12.8,9.49,15.74,6.87,2.31-2.07,4.81-6.2,7.45-10.57,5.44-9,11.59-19.15,20.5-20,5.24-.53,10.51,2.22,16.16,8.38,18.19,19.81,19.23,34.07,20.79,55.64.38,5.17.8,11,1.51,17.45.82,7.45-.68,12.42-4.46,14.78-4.17,2.61-10.73,1.48-18-3.1-10.32-6.52-20.6-19.42-19.32-30.49,0-.24.05-.47.08-.69l-1,2.74c-2.62,7.15-4,10.64-5.34,11.71-1.94,1.56-5.52-.19-13.82-4.86a71.85,71.85,0,0,0-8.74-4.45c.55,1.24,1.4,2.92,2.37,4.85,5.62,11.22,16.09,32.09,4.72,39.45-1,.66-2,1.31-2.95,1.94C691.28,353.79,687,356.63,682.67,356.63ZM670.75,342c3.63,6.93,6.88,10.56,10.23,11.42,3.93,1,8.3-1.89,13.83-5.57,1-.64,2-1.3,3-2,9.12-5.89-.57-25.21-5.78-35.58-1-2.05-1.91-3.83-2.49-5.15-.71-1.65-.64-2.88.22-3.65,1.73-1.56,4.71-.11,12.8,4.44,3.37,1.9,9,5,10.54,5h0c.94-1.12,3-6.84,4.31-10.3,3.1-8.46,3.81-10.25,5.72-9.8,1.65.4,1.83,2,1,9.12-1.14,9.85,8.4,21.58,17.94,27.61,6.15,3.88,11.68,5,14.79,3.1,2.68-1.68,3.74-5.79,3.07-11.91-.71-6.47-1.14-12.36-1.52-17.56-1.57-21.69-2.52-34.79-20-53.83-4.89-5.34-9.48-7.85-13.66-7.42-7.41.73-13.15,10.23-18.22,18.6-2.77,4.57-5.38,8.89-8,11.25-4.75,4.26-11.93-1.06-19.52-6.69-7.2-5.33-15.35-11.37-21.86-9.93-3.11.7-5.7,3-7.92,7.15-11.63,21.56,5.68,52.84,17.13,73.53,1.61,2.92,3.13,5.67,4.4,8.1Z"/><path class="cls-19" d="M779.86,200.45c1.56,25.57,6.53,65.88,16.52,86.54s25.94,13.07,39.11,11.29,19.16-7.13,28.29-13,8.68-23-1-27.83-20.29,7.14-32,7.69,0-9,5.08-10.8c7.42-3.82,13.14-4.94,17.91-12.39s-4-15.66-10.9-17.8-19.53,7-24.35,2.53-5.92-6-.41-12.72,18.79-2,27.49-8.33,2.66-20.06-1.06-25.88-6.36-8.69-25.58-3.62S779.48,172.46,779.86,200.45Z"/><path class="cls-15" d="M816.48,302.63c-8,0-15.67-3-21.45-15-9.58-19.81-14.89-58-16.66-87.11v-.07c-.3-22,12.12-22.85,25.28-23.79a79.57,79.57,0,0,0,14.87-2c20-5.28,23.25-2,27.24,4.26,4.59,7.2,9.89,21.18.67,27.91-4.57,3.33-10.25,3.83-15.27,4.27s-9.5.83-11.94,3.79c-4.68,5.71-4.28,6.47.27,10.66,2,1.81,6.57.34,11-1.07s9.11-2.91,12.75-1.78c4.8,1.48,10.69,5.78,12.65,11.14a9.74,9.74,0,0,1-.93,8.9c-4,6.17-8.55,8.28-13.87,10.71-1.48.68-3,1.38-4.61,2.2l-.19.08c-3.79,1.35-9.3,6.13-9.12,7.5,0,0,.47.42,2.61.41.26,0,.55,0,.86,0,4.65-.22,9.24-2.41,13.68-4.53,6.29-3,12.8-6.11,19.08-3,4.89,2.43,8,7.79,8.4,14.33.38,6.82-2.38,13-7.21,16.1-1.44.93-2.79,1.83-4.11,2.72-7.17,4.81-13.36,9-24.8,10.52-2.09.28-4.24.71-6.51,1.16A65.42,65.42,0,0,1,816.48,302.63ZM781.36,200.39c1.76,28.84,7,66.55,16.37,85.95,7.86,16.26,19,14,30.86,11.65,2.22-.44,4.51-.9,6.7-1.2,10.74-1.45,16.39-5.24,23.53-10,1.33-.9,2.7-1.82,4.15-2.75,3.93-2.53,6.17-7.67,5.85-13.41-.31-5.45-2.83-9.87-6.75-11.81-5-2.47-10.29.08-16.45,3-4.71,2.25-9.57,4.57-14.83,4.82-1.47.07-5.95.28-6.56-2.81-.82-4.16,7.81-9.7,11-10.87,1.64-.84,3.17-1.54,4.65-2.22,5.1-2.33,9.12-4.17,12.59-9.6a6.72,6.72,0,0,0,.64-6.25c-1.61-4.39-6.72-8.07-10.72-9.31-2.74-.84-6.91.49-11,1.78-5.27,1.67-10.72,3.41-14,.42-5.35-4.93-6.67-7.32-.55-14.77,3.23-3.94,8.46-4.4,14-4.88,4.85-.43,9.87-.87,13.77-3.71,9.29-6.78-1-23.17-1.44-23.86-3.27-5.13-5.06-8-23.94-3a82.93,82.93,0,0,1-15.43,2.11C790.65,180.62,781.11,181.3,781.36,200.39Z"/><path class="cls-19" d="M917.07,258.48c9,12.3,28.66,4.28,33.73-7.18s-16.13-30.65-9.43-36.46,14.93,19.91,19.87,24.6,8.8,14.78,19.06,11.26,25.69-6.77,27.63-21.23-7.85-28.49-14.8-40.77-9.64-28.6-19.43-38.91c-6.64-8.57-16.22-36.26-29.33-17.44s9,42.43,9.3,61.88C946,181,926.23,160.8,915,154.18s-24.35-10.78-30.79.43S908.07,246.17,917.07,258.48Z"/><path class="cls-15" d="M929.54,266.15a16.38,16.38,0,0,1-13.68-6.78c-4.59-6.27-14.44-29.44-22.43-52.75-13.27-38.73-12.29-49.68-10.52-52.76a14.48,14.48,0,0,1,9-7.19c6.1-1.62,14.13.48,23.87,6.22,10.21,6,26.53,22.32,35.65,35.14-1.13-5.26-3.37-10.79-5.7-16.55-5.5-13.56-11.19-27.59-2.57-40,3.42-4.91,6.84-7.22,10.56-7.07,6.93.3,12.13,9.32,16.72,17.29a73.43,73.43,0,0,0,4.42,7.1c6.22,6.58,9.64,15.46,12.95,24.06A115,115,0,0,0,994.43,188c.91,1.6,1.86,3.22,2.83,4.87,6.52,11.14,13.91,23.76,12.15,36.84-1.85,13.8-15.27,18.13-25.08,21.29-1.23.39-2.42.77-3.54,1.16-8.85,3-13.54-3-17.31-7.76a36.84,36.84,0,0,0-3.28-3.83c-1.85-1.77-3.89-5.75-6.25-10.35-3-5.94-7.21-14.08-10.24-14.66a1.45,1.45,0,0,0-1.35.45c-2.32,2,.77,7.61,4,13.53,4.09,7.41,8.72,15.8,5.79,22.41-3.22,7.26-11.79,13.2-20.36,14.12A22.35,22.35,0,0,1,929.54,266.15Zm-33.34-117a13.73,13.73,0,0,0-3.54.44,11.42,11.42,0,0,0-7.15,5.78c-2.5,4.36,1.62,23.63,10.76,50.29,7.78,22.69,17.65,46,22,51.95h0c3.85,5.27,9.32,5.88,13.22,5.46,7.46-.8,15.17-6.12,17.93-12.36,2.33-5.24-1.92-12.94-5.66-19.74-3.87-7-7.53-13.65-3.38-17.25a4.52,4.52,0,0,1,3.89-1.13c4.47.87,8.47,8.68,12.34,16.24,2,4,4.17,8.13,5.65,9.55a36.51,36.51,0,0,1,3.57,4.15c3.68,4.69,7.15,9.12,14,6.77,1.15-.39,2.35-.78,3.6-1.18,10.05-3.24,21.43-6.91,23-18.83s-5.49-24.21-11.77-34.92c-1-1.67-1.93-3.3-2.84-4.91A116.42,116.42,0,0,1,985,174c-3.21-8.35-6.53-17-12.38-23.13l-.1-.12a72.54,72.54,0,0,1-4.69-7.5c-4-6.93-9-15.55-14.24-15.78-2.57-.12-5.23,1.84-8,5.78-7.7,11.06-2.32,24.32,2.88,37.14,3.23,8,6.58,16.24,6.68,23.86l.08,5.71L952.38,195c-7.36-12.62-27-32.93-38.14-39.52C907.08,151.26,901,149.13,896.2,149.13Z"/><path class="cls-19" d="M677,149c4.27-29.76-20.42-55.81-49.9-55s-17.15,1.66-36.24,6.36,17.23,95.73,25.65,114,8.44,11.06,23.92,9.39,6.3-39.47,1.35-49.09C652.49,157.16,672.74,178.75,677,149Zm-47.61,1.75c-6.14,1.54-6.14-10.74-6.14-15.34S634,129.25,634,129.25s7.67,0,9.2,3.07,3.07,7.67,3.07,10.74S635.55,149.2,629.41,150.73Z"/><path class="cls-15" d="M626.29,228c-4.16,0-6.51-3-11.12-13-6.34-13.77-38.75-92.89-29.63-111.81a7.41,7.41,0,0,1,5-4.29,72.46,72.46,0,0,0,11.32-3.56c4.2-1.7,5.62-2.27,25.24-2.84a50.61,50.61,0,0,1,39.29,17.08,49,49,0,0,1,12.13,39.6h0c-2.6,18.14-11.19,18.52-19.5,18.88-5.82.25-11.33.49-15.48,6.71,3.84,8.26,10.68,34,4.63,45.22a9.39,9.39,0,0,1-7.54,5.27,54.87,54.87,0,0,0-9.12,1.83A20.83,20.83,0,0,1,626.29,228ZM628.53,95.5l-1.37,0c-19.08.55-20.37,1.07-24.2,2.62a74.33,74.33,0,0,1-11.72,3.69,4.51,4.51,0,0,0-3,2.68c-7.92,16.44,21.14,90.76,29.65,109.26,5.7,12.37,6.65,12.12,12.81,10.45a57.9,57.9,0,0,1,9.59-1.93,6.47,6.47,0,0,0,5.22-3.7c5.29-9.81-1-35.45-5-43.22l-.39-.75.44-.71c5-8.25,12.11-8.56,18.35-8.83,8-.35,14.41-.63,16.66-16.31h0a46,46,0,0,0-11.4-37.18A47.72,47.72,0,0,0,628.53,95.5Zm-.13,56.87a4.58,4.58,0,0,1-2.88-1c-3.3-2.58-3.75-9.53-3.75-16,0-5.63,10-7.34,12-7.63H634c1.44,0,8.7.18,10.56,3.89,1.55,3.12,3.22,8,3.22,11.42,0,2.15-2,5.14-18,9.13h0A5.43,5.43,0,0,1,628.4,152.37Zm5.72-21.62c-3.81.56-9.35,2.41-9.35,4.64,0,2.86,0,11.59,2.6,13.62a1.79,1.79,0,0,0,1.68.27c15-3.75,15.74-6.22,15.75-6.25,0-2.76-1.47-7.15-2.92-10C641.13,131.48,636.85,130.77,634.12,130.75Z"/><path class="cls-19" d="M494.09,260.2c-7.27-6.07-26.92-.5-31.45-6.41s-3.13-8.3.85-11,15.39-.19,16.48-6.82,0-21.43-7.53-25.17-22.34,2.15-28.57-1.88S430.43,197,431.51,190.63s20.69-3.77,25.41-6.31,8.06-6.15,6-12.48-.91-15.1-10.82-17.91-25.52-1.62-37.21,1.21S382.22,157.5,372,160s-10.47,1.93-18.42,8.35-9.23,12.65-6.09,30,14.26,83.84,20.86,97.37,5.52,11.09,12.59,12.53,23.63-9.24,25.5-15.5-8.31-26.15.44-32.49,13.91,6.21,17,15.17,4.74,16.86,17.12,13.54,36.71-.9,47.75-6.25S501.36,266.27,494.09,260.2Zm-87.47-22c-4.57,1.75-9.38-5.48-10.82-9.1s-2.59-11.66,1.92-13.36,9.24,5,10.72,8.61S411.2,236.42,406.62,238.18Z"/><path class="cls-15" d="M382.38,309.84a8.39,8.39,0,0,1-1.7-.16c-1.05-.21-1.9-.34-2.66-.44-5-.74-5.37-1.43-11-12.9-5.91-12.08-15.11-64.37-19.53-89.5-.59-3.35-1.09-6.17-1.47-8.27-3.23-17.87-1.8-24.63,6.63-31.43,7.33-5.92,8.65-6.23,15.95-7.93l3.06-.72c5-1.21,12.4-1.71,20.21-2.23,8.22-.56,16.72-1.13,22.66-2.57,11.33-2.75,27.46-4.19,38-1.21,8.52,2.42,9.79,9.08,10.8,14.43a38.78,38.78,0,0,0,1,4.47c2,6.09-.24,10.76-6.74,14.26-2.06,1.11-5.94,1.34-10.43,1.6-5.47.33-13.74.81-14.21,3.64-.91,5.36,5.35,12.63,11.7,16.75,2.7,1.75,7.93,1.27,13,.8,5.56-.51,11.31-1.05,15.43,1,8.33,4.14,9.55,19.47,8.34,26.76-.87,5.28-6.59,5.94-11.19,6.47-2.33.27-4.75.55-5.92,1.35-2,1.34-2.82,2.31-3,3.35-.2,1.28.61,3.08,2.48,5.53s7.72,2.46,13.44,2.56c6.75.11,13.72.22,17.78,3.61h0A13.26,13.26,0,0,1,500,271c-.66,5.38-4.48,10.13-10.48,13-6.59,3.19-17.38,3.72-27.81,4.23-7.74.38-15.06.74-20.21,2.12-12.84,3.44-15.6-4.7-18.27-12.57-.21-.64-.43-1.28-.66-1.93-1.48-4.24-4.94-14.18-9.77-15.7-1.53-.47-3.15-.07-5,1.25-4.79,3.47-2.74,12.7-1.09,20.11,1.07,4.81,2,9,1.21,11.6C406,299.5,390.92,309.84,382.38,309.84Zm55.86-156a102.11,102.11,0,0,0-23,2.79c-6.19,1.5-14.82,2.09-23.17,2.65-7.68.52-14.94,1-19.7,2.15l-3.08.73c-7.21,1.68-8,1.86-14.76,7.34-7.43,6-8.57,11.87-5.56,28.57.38,2.1.88,4.92,1.47,8.28,4.06,23,13.56,77,19.27,88.7,5.25,10.74,5.25,10.74,8.72,11.25.75.11,1.69.24,2.82.47,6.5,1.34,22.14-9,23.76-14.45.56-1.89-.32-5.88-1.26-10.1-1.84-8.27-4.12-18.56,2.26-23.19,2.59-1.88,5.16-2.45,7.62-1.68,5.52,1.73,9,9.86,11.71,17.57.22.66.45,1.31.66,2,2.73,8,4.53,13.35,14.65,10.63,5.47-1.46,12.94-1.83,20.84-2.22,10.14-.49,20.61-1,26.65-3.93,5.07-2.45,8.28-6.36,8.81-10.71a10.31,10.31,0,0,0-3.85-9.27h0c-3.25-2.71-9.68-2.81-15.91-2.92-6.72-.11-13.08-.21-15.77-3.73-2.47-3.22-3.41-5.63-3.06-7.82.38-2.41,2.27-4,4.26-5.35,1.78-1.23,4.45-1.53,7.27-1.86,4.87-.56,8.11-1.14,8.57-4,1.11-6.71-.18-20.34-6.71-23.58-3.36-1.66-8.68-1.17-13.82-.69-5.83.54-11.32,1-14.9-1.28-5.93-3.84-14.29-12.28-13-19.76.87-5.18,9.07-5.66,17-6.13,3.79-.23,7.71-.46,9.19-1.25,5.22-2.82,6.81-6,5.3-10.7a40.37,40.37,0,0,1-1.12-4.83c-1-5.24-1.94-10.19-8.68-12.1A50.51,50.51,0,0,0,438.24,153.81ZM405.13,240c-5,0-9.25-6.63-10.72-10.33-1.12-2.82-2.18-8.35-.54-12a5.89,5.89,0,0,1,3.32-3.27c5.73-2.14,11.07,5.6,12.64,9.46,1.13,2.8,2.31,8.67.64,12.51a6,6,0,0,1-3.31,3.3h0A5.65,5.65,0,0,1,405.13,240Zm-5.95-23a2.72,2.72,0,0,0-.93.16,2.9,2.9,0,0,0-1.64,1.67c-1.19,2.69-.37,7.31.59,9.73,1.4,3.54,5.69,9.49,8.89,8.26h0a2.94,2.94,0,0,0,1.63-1.7c1.22-2.8.32-7.74-.67-10.19C405.82,221.85,402.24,217,399.18,217Z"/><path class="cls-19" d="M505,345c-6.73-25-17.93-27.72-42.27-20.24s-44.62,33.83-52,57.19,7,66.29,29.94,68.79,29.07-.76,47.75-16.41S511.78,370,505,345ZM472,410.13c-5.3,9.17-14.36,13.86-20.23,10.47s-6.34-13.58-1-22.75,14.35-13.87,20.23-10.48S477.28,401,472,410.13Z"/><path class="cls-15" d="M452.57,453a113,113,0,0,1-12.05-.78c-8-.87-15.44-6.29-21.55-15.67-10.4-16-14.56-39.65-9.66-55.07,7.32-23.05,27.88-50.43,53-58.16,14.86-4.57,23.68-4.92,30.41-1.2,6.25,3.45,10.49,10.38,13.75,22.48,6.62,24.56,2.26,74.65-17.1,90.87C474,448.39,466.86,453,452.57,453ZM481.9,322.59c-4.82,0-10.83,1.19-18.69,3.61-24.15,7.43-44,33.9-51,56.2-4.58,14.41-.49,37.48,9.31,52.52,3.91,6,10.44,13.36,19.36,14.33,22.34,2.43,28-.42,46.63-16.07,8.23-6.89,14.38-21.18,17.31-40.24,2.61-16.93,2.16-35.15-1.19-47.55-3-11.1-6.89-17.65-12.3-20.64A18.84,18.84,0,0,0,481.9,322.59ZM456,423.18a9.78,9.78,0,0,1-5-1.28c-6.58-3.8-7.29-14.93-1.59-24.8s15.69-14.83,22.28-11S479,401,473.28,410.88h0C468.88,418.5,461.92,423.18,456,423.18Zm10.64-35.43c-4.85,0-10.74,4.18-14.59,10.85-4.88,8.44-4.66,17.73.49,20.7s13.3-1.48,18.18-9.92h0c4.87-8.45,4.65-17.74-.49-20.71A7.06,7.06,0,0,0,466.6,387.75Z"/><path class="cls-20" d="M986.71,481.28c-2.61-16-7.91-28.34-18-41.27-13.06-16.8-29.2-23.19-49.76-29.06-10.06-2.87-26.93-5.4-35.69-1.05C852,425.42,828.58,450,822.6,483.4c-3.13,17.5-4.06,28.94.5,45.63,1.65,6,3,10.51,8.6,15.11,16.68,13.8,27.77,31,50.13,37.7,23.55,7.06,45.59,3.28,67.13-7.65,9.23-4.68,16-7.82,21.13-16.42,8.56-14.33,13.48-31.16,15.59-47.39C987,500.24,988.3,490.94,986.71,481.28Z"/><path class="cls-21" d="M919.85,614.48c-16.27,11.17-38.79-4.69-56.88-8.74-11.21-2.5-23.72-13-24.35-23.68-1.79-30.29,18-79.16,25.26-110.35,2.53-11,9.7-16,21.15-14.27,18.49,2.87,43.55,7.89,61.61,12.36,11.19,2.76,16.23,9.28,13.86,21-6.76,33.44-13.22,72-22.71,104.63C934.46,606.92,929.92,607.56,919.85,614.48Z"/><ellipse class="cls-20" cx="861.27" cy="475" rx="37.52" ry="11.64" transform="translate(258.59 1252.3) rotate(-81.09)"/><ellipse class="cls-20" cx="900.13" cy="456.87" rx="17.47" ry="29.11" transform="translate(309.34 1275.36) rotate(-81.09)"/><ellipse class="cls-20" cx="952.13" cy="467.64" rx="20.05" ry="23.93" transform="translate(342.64 1335.84) rotate(-81.09)"/><path class="cls-21" d="M867.44,604.49c-2.34,19.31.11,18.7-4.61,39.59,9,2.29,18.23,4.11,27.4,5.7,3.29-17.15,4.45-23,8.69-39.81C888.46,606.62,878.32,605.38,867.44,604.49Z"/><path class="cls-4" d="M918.32,567.41s0,0,0,0h0l-.25-.32Z"/><path class="cls-4" d="M889.13,557.63a26.67,26.67,0,0,1,5.8.22A26.67,26.67,0,0,0,889.13,557.63Z"/><path class="cls-4" d="M915.91,564.44c.46.56.91,1.11,1.34,1.59a.34.34,0,0,1,.08.09l-.07-.09C916.82,565.49,916.36,565,915.91,564.44Z"/><path class="cls-4" d="M912.65,566.12a126.49,126.49,0,0,1-11.58-5.84A125.22,125.22,0,0,0,912.65,566.12Z"/><path class="cls-4" d="M883.66,558c-.74.05-1.45.08-2.14.08C882.21,558.12,882.92,558.09,883.66,558Z"/><path class="cls-4" d="M880.34,558.09c-.28,0-.54,0-.81-.06C879.8,558.06,880.06,558.08,880.34,558.09Z"/><path class="cls-4" d="M889.05,557.64l-1.54.1Z"/><path class="cls-4" d="M918.17,567.46l-.26,0Z"/><path class="cls-4" d="M873.4,551.62a.32.32,0,0,0,0,.14,9.89,9.89,0,0,0,.61,2.48,9.89,9.89,0,0,1-.61-2.48A.32.32,0,0,1,873.4,551.62Z"/><path class="cls-4" d="M887,557.78c-1.1.09-2.18.19-3.22.25C884.81,558,885.89,557.87,887,557.78Z"/><path class="cls-4" d="M898.6,576.38a21.47,21.47,0,0,0-13.15-2.78A21.54,21.54,0,0,1,898.6,576.38Z"/><path class="cls-4" d="M904.54,585.14c0,.07,0,.15,0,.22S904.53,585.21,904.54,585.14Z"/><path class="cls-4" d="M904.56,584.7s0,.11,0,.17S904.56,584.75,904.56,584.7Z"/><path class="cls-22" d="M918.37,567.41h0s-.05,0-.15,0l-.26,0h-.1a16.56,16.56,0,0,1-5.16-1.31,125.22,125.22,0,0,1-11.58-5.84,27.51,27.51,0,0,0-4.6-2.1,13.17,13.17,0,0,0-1.54-.33,26.67,26.67,0,0,0-5.8-.22h-.08l-1.54.1-.52,0c-1.1.09-2.18.19-3.22.25h-.11c-.74.05-1.45.08-2.14.08-.4,0-.8,0-1.18,0s-.54,0-.81-.06c-2.53-.28-4.52-1.25-5.54-3.79a9.89,9.89,0,0,1-.61-2.48.32.32,0,0,1,0-.14,3,3,0,0,1,.16-.31.39.39,0,0,0,.05-.24,48,48,0,0,0-11.94,9.29c-7.34,8.13-16.7,22-2,26.58,6.16,1.94,11.62-2.53,17.05-4.57-1.54-3.36.29-5.75,3-7.18a13.73,13.73,0,0,1,3.19-1.18,20.85,20.85,0,0,1,2.53-.41,21.47,21.47,0,0,1,13.15,2.78,13,13,0,0,1,5.32,5.85,7,7,0,0,1,.64,2.47s0,.11,0,.17l0,.27c0,.07,0,.15,0,.22a3.67,3.67,0,0,1-1.4,2.07,20.84,20.84,0,0,0-2,1.79C928.48,601.45,935,592.49,918.37,567.41Z"/><path class="cls-23" d="M904.54,585.14l0-.27c0-.06,0-.12,0-.17a7,7,0,0,0-.64-2.47,13.12,13.12,0,0,0-5.32-5.85,21.54,21.54,0,0,0-13.15-2.78,19.07,19.07,0,0,0-2.53.42,13.7,13.7,0,0,0-3.19,1.17c-2.71,1.44-4.55,3.84-3,7.11,5.28-2.38,9.47-3.67,14.44,0a86.45,86.45,0,0,0,9.95,6.89,20.61,20.61,0,0,1,2-1.78,3.67,3.67,0,0,0,1.4-2.07C904.53,585.29,904.53,585.21,904.54,585.14Z"/><path class="cls-23" d="M904.52,585.36a3.67,3.67,0,0,1-1.4,2.07A3.67,3.67,0,0,0,904.52,585.36Z"/><path class="cls-23" d="M885.45,573.6a20.85,20.85,0,0,0-2.53.41,13.73,13.73,0,0,0-3.19,1.18,13.7,13.7,0,0,1,3.19-1.17A19.07,19.07,0,0,1,885.45,573.6Z"/><path class="cls-23" d="M903.92,582.23a7,7,0,0,1,.64,2.47,7,7,0,0,0-.64-2.47,13,13,0,0,0-5.32-5.85A13.12,13.12,0,0,1,903.92,582.23Z"/><path class="cls-23" d="M904.57,584.87l0,.27Z"/><polygon class="cls-2" points="918.36 567.41 918.37 567.41 918.36 567.41 918.36 567.41"/><path class="cls-2" d="M873.38,551.76a9.89,9.89,0,0,0,.61,2.48c1,2.54,3,3.51,5.54,3.79.27,0,.53.05.81.06s.78,0,1.18,0c.69,0,1.4,0,2.14-.08h.11c1-.06,2.12-.16,3.22-.25l.52,0,1.54-.1h.08a26.67,26.67,0,0,1,5.8.22,13.17,13.17,0,0,1,1.54.33,27.15,27.15,0,0,1,4.6,2.1,126.49,126.49,0,0,0,11.58,5.84,16.6,16.6,0,0,0,5.18,1.31h.08l.26,0a.33.33,0,0,0,.15,0s0,0,0,0l-.21-.32c-.26-.33-.52-.66-.78-1a.34.34,0,0,0-.08-.09c-.43-.48-.88-1-1.34-1.59-.83-1-1.69-1.94-2.57-2.88a2.79,2.79,0,0,0-.32-.28c-2.84-2.3-5.64-4.26-8.16-6.66-4.52-4.28-11-5.54-16.8-6.8a32.71,32.71,0,0,0-14.44,3.24.42.42,0,0,1-.06.25,3,3,0,0,0-.16.31A.32.32,0,0,0,873.38,551.76Z"/><path class="cls-2" d="M887.51,557.74l-.52,0Z"/><path class="cls-2" d="M889.13,557.63h0Z"/><path class="cls-2" d="M918.32,567.42a.33.33,0,0,1-.15,0C918.27,567.46,918.33,567.45,918.32,567.42Z"/><path class="cls-2" d="M894.93,557.85a13.17,13.17,0,0,1,1.54.33,27.51,27.51,0,0,1,4.6,2.1,27.15,27.15,0,0,0-4.6-2.1A13.17,13.17,0,0,0,894.93,557.85Z"/><path class="cls-2" d="M912.65,566.12a16.56,16.56,0,0,0,5.16,1.31h0A16.6,16.6,0,0,1,912.65,566.12Z"/><path class="cls-2" d="M873.4,551.62a3,3,0,0,1,.16-.31A3,3,0,0,0,873.4,551.62Z"/><path class="cls-2" d="M874,554.24c1,2.54,3,3.51,5.54,3.79C877,557.75,875,556.78,874,554.24Z"/><path class="cls-2" d="M881.52,558.12c-.4,0-.8,0-1.18,0C880.72,558.12,881.12,558.12,881.52,558.12Z"/><path class="cls-2" d="M883.77,558h0Z"/><path class="cls-2" d="M917.33,566.12c.26.31.52.64.78,1A10.67,10.67,0,0,0,917.33,566.12Z"/><path class="cls-2" d="M913.34,561.56c.88.94,1.74,1.9,2.57,2.88A26.52,26.52,0,0,0,913.34,561.56Z"/><path class="cls-2" d="M896.35,502c.27,7.06-3.69,16.28-11.76,16s-11.34-9.44-11.61-16.34,2.54-15.92,10.56-15.83S896.08,495,896.35,502Z"/><path class="cls-2" d="M934.69,511.71c-2,5.79-10.75,13.26-17.69,9.59s-6.74-11.45-4.92-17,8.12-11.58,15.93-9S936.71,505.92,934.69,511.71Z"/><path class="cls-24" d="M892.47,508.87c.14,3.22-1.74,7.43-5.58,7.3s-5.41-4.29-5.55-7.43,1.2-7.26,5-7.23S892.33,505.66,892.47,508.87Z"/><path class="cls-24" d="M924.52,515.57c-1.27,2.91-4.68,6.08-7.89,4.77s-2.76-5.5-1.52-8.34,4.14-6.1,7.38-4.89S925.79,512.66,924.52,515.57Z"/><path class="cls-21" d="M811.36,469.72c3.47,3.73,4.91,11.62,12.65,8.42s13-14.56,15.94-23.86,11.38-26.91,15.75-34,11.93-10.58,16.56-10.11,7.92,2.08,9.07,5.06,2.66,3.52,4.82,6.16,5.55,5.26,2.54,9.79-7.7,14.6-13,17.82-10.19,8.57-11,15-2.2,16.56-4.45,22.42-1.1,14.11-6.41,17.23-15.51,3.48-20.9,3.2-8.67-3-12.83-1.78a20.34,20.34,0,0,1-9.55.95C811.13,493.84,812.12,481.74,811.36,469.72Z"/><path class="cls-21" d="M1006.13,543.54c-6.77-2.6-19,.62-21.17-9.23s5.78-22.08,5.45-32.35-1.74-21.92-6.1-30.51-13.11-15.35-19.73-19.07-9.45-5.31-15.17-4.26a27.56,27.56,0,0,0-14.1,6.91c-3.32,3.25-9.76,10.58-3.59,13.51s14.33.66,19.37,7.75,10.46,5.39,10.93,15.88-7.22,30.63-9.31,39.89-3.05,14.71,2.34,19.22,10.88,1.53,16.09,2.87,9.38.3,13.82,2.61,7.89,4.87,12.06,7.45l10.84,1.42c2-6.2,3.9-12.42,5.91-18.6C1011,545.73,1009.22,544.73,1006.13,543.54Z"/><path d="M938.52,489a.63.63,0,0,1-.32-.15c-.05,0-5.41-4.55-17.67-5.15a.66.66,0,0,1-.62-.68.64.64,0,0,1,.68-.61c12.77.63,18.23,5.27,18.46,5.46a.65.65,0,0,1-.53,1.13Z"/><path d="M900.09,480.19a.61.61,0,0,1-.4-.23c-6.45-8-19.31-3-19.44-3a.65.65,0,1,1-.48-1.2c.14-.06,13.88-5.42,20.93,3.36a.65.65,0,0,1-.1.91A.64.64,0,0,1,900.09,480.19Z"/><path d="M899.74,543.52a30,30,0,0,1-6.68-2.12c-4.27-1.79-5.12-4.88-6.1-8.45a.66.66,0,0,1,.46-.8.65.65,0,0,1,.79.46c1,3.51,1.66,6,5.35,7.59,4.07,1.71,8.72,3.34,12.38,1.06A9.6,9.6,0,0,0,910,535.2a7.53,7.53,0,0,0-.74-5.65,31.81,31.81,0,0,0-2.13-2.85A14.72,14.72,0,0,1,904,521c-1.5-4.68-.81-8.66,2.32-13.28a.65.65,0,0,1,.9-.18.65.65,0,0,1,.17.9c-2.88,4.26-3.52,7.9-2.16,12.17a13.48,13.48,0,0,0,2.92,5.28,29.34,29.34,0,0,1,2.21,3,8.62,8.62,0,0,1,.92,6.63,10.93,10.93,0,0,1-4.63,6.88A9.81,9.81,0,0,1,899.74,543.52Z"/><path class="cls-25" d="M854,437.85l-.12,0a.65.65,0,0,1-.39-.83c1.55-4.29,1.58-4.37,2.45-5.25s2.25-2.27,6.82-9.55S867.3,415,868,415.1c.54.11.62.65.68,1s.14.81.41.93,1.3.24,4.29-1.65a.65.65,0,1,1,.69,1.09c-2.66,1.69-4.42,2.24-5.52,1.73a1.8,1.8,0,0,1-1-1.18c-.67,1-1.87,2.89-3.73,5.85-4.64,7.4-6.17,8.94-7,9.77s-.67.68-2.15,4.78A.64.64,0,0,1,854,437.85Z"/><path class="cls-25" d="M861.27,441.61a.69.69,0,0,1-.29-.13.64.64,0,0,1-.13-.9c.08-.1,7.44-9.89,9.8-15.63,2.56-6.24,7.65-6.17,7.86-6.17a.65.65,0,0,1,0,1.29c-.19,0-4.43,0-6.63,5.37-2.42,5.9-9.66,15.51-10,15.92A.66.66,0,0,1,861.27,441.61Z"/><path class="cls-25" d="M865.78,446.24a.75.75,0,0,1-.24-.08.65.65,0,0,1-.21-.89,48.09,48.09,0,0,1,5.07-6,40.43,40.43,0,0,0,4.3-6.21c2.22-3.66,4.52-7.44,8-9.52a.65.65,0,0,1,.89.22.64.64,0,0,1-.22.89c-3.18,1.91-5.39,5.56-7.53,9.08a41.65,41.65,0,0,1-4.46,6.42,52.51,52.51,0,0,0-4.92,5.82A.64.64,0,0,1,865.78,446.24Z"/><path class="cls-26" d="M775.43,980.51c2.06-8.34,2.6-8.73,3.33-20.77,1.62-26.59,6.86-58.12,13.17-87.27-10.13-23.15-12.29-73.62-10.26-94h0c.1-1,.58-5.33.7-5.83.55-2.36,1.72-9.75,2.63-12.57,3.25-10,8.18-25,7.94-33.8-.29-11.26,9.4-4.93,11.47-13.76,1.36-5.82-1.77-8.83-5-13.42-1.67-2.37-3.55-4.22-4.52-7.52-2.84-9.69-3-18.24.58-28.37a77.23,77.23,0,0,1,15-24.88c-6.69-.19-10.5,1.24-13.09,7.6,2.6-6.36,6.4-7.79,13.09-7.6.86-1,1.89-1.87,2.78-2.78a1.07,1.07,0,0,0,.19-.43c-1.3-20.22-12.41-9.82-26.43-19.24-16.37-11-34-10.05-51.13-17.63s-28.53-33.11-33.81-46.17-15.48-18.69-2.78-24.91,21.89-.73,38.79-3.53,44.11-.34,64.2.37,16-7.94,13.77-24.73-2.22-32.2-14-46.31c-37.59-.31-151-22.24-175.94,3.62s-3.84,29.66-2.63,59.85,11,66.35,25.79,93.76,37.81,54.63,60.55,74c18.71,16,56.27,63.29,61.76,78.82h0c-3.46,28.51-10.29,42.12-18.34,69.11-5.77,19.32-11.23,47.89-16.45,70.6-4.59,20-14,47.37-19.68,66.28s0,25.47,11.22,36.66c9.3,9.29,13.81,10.05,25,15.89,6.35,3.31,17.16,6.49,24.73,8.74C771,1015.23,771.36,997,775.43,980.51Z"/><path class="cls-2" d="M898.61,872.64c1.1-43.71,13.82-101.91,22.12-140,4.57-20.93,7-32.75,9.32-44.5,0-1,0-2,0-2.9-12.53-.24-30.71-11.26-34.52-24.14-3.76,3.92-9.59,5.38-15.84,4.36-5.61-.92-10.4-3.45-13.22-7.4-8.12,9.1-25.43,12.9-37.78,12,.24,2.51.43,5,.56,7.56,2.54,15.72,1.53,31.89-3.55,55.39-9.91,46-26.77,93.1-35.9,138.48-.07-.21-.14-.44-.22-.65-6.13,29.42-10.71,58.86-11.9,88.38-.54,13.37-1.07,14-3.08,20.12-4,12.1-2.18,44.08,3.37,50.24,1.29.32,2.59.62,3.91.91h.07c28.36,6.27,61.16,7,91.55,7.46a16.05,16.05,0,0,0,1.14-3.31C886.34,981.19,892.15,926.87,898.61,872.64Z"/><path class="cls-27" d="M959,701.75a21.41,21.41,0,0,0,1.68-11.35c-7.57-5.84-12.21-13.89-12.22-22.32h0c-2.71,10.17-3.88,18.86-17.32,20.7a19.86,19.86,0,0,1-2.35.16l-.57,2.86c0,2.35,0,5,0,8a20.68,20.68,0,0,1-.31,3.65,20.57,20.57,0,0,0,.25-3.23c-.05-3,0-5.63,0-8-2.32,11.63-4.71,23.34-9.24,44C910.61,774,898,831.6,897,874.87c3.11-26.22,6.38-52.43,10.56-78.51-4.18,26.07-7.44,52.27-10.56,78.48,0,.72,0,1.44-.05,2.15,11.23-13.9,22.36-30.45,29.46-48.17s12.11-40,17.74-57.28-2-9.36-6-20.47-3.15-19.05.69-29S954.74,711.18,959,701.75Z"/><path class="cls-27" d="M830.85,683.16a71.85,71.85,0,0,0-2-7.84,35.56,35.56,0,0,1-6.81-1.36c-7.6-2.84-11.33-7.35-12.5-14.92-.88-5.59-.23-10.45-.25-15.94a25.34,25.34,0,0,1,1.32-7.19c-.58-.07-1.13-.16-1.75-.18a76.3,76.3,0,0,0-15.61,25.2c-3.76,10.44-3.55,19.4-.44,29.45,1,3.43,3,5.47,4.8,7.93,3.47,4.75,6.56,8.1,5.13,14-2.16,8.89-12.1,3.18-11.82,14.24.22,8.33-7,31.27-7,31-1.52,5.25-4.55,18.62-4.62,18.53-4.49,32.19-1.78,67.37,9,98.25,12.7-56.86,31.66-109.26,41.44-162C831.24,704.48,832.44,691.86,830.85,683.16Z"/><path class="cls-27" d="M827,712.74c-10.24,53.71-26.65,107-37.8,160.24.08.21.15.43.22.64,9-44.62,25.74-91,35.54-136.16,5-23.11,6-39,3.4-54.49C829,694,828.51,704.74,827,712.74Z"/><path class="cls-26" d="M1157.08,583.23c-4.31-9.34-17.23-16.49-29.92-21.49-7.63-3.87-17.64-7.55-26.62-8.14-1.83-.42-2.89-.63-2.89-.63l-85.92-21.21-19.2,39.64a11.2,11.2,0,0,0-2.78,5.75,10.72,10.72,0,0,0,0,3.53c-.24,1.94.84,4.24,3.58,7a26.78,26.78,0,0,0,11.79,7.25c20,7.7,51.31,5.16,66.17,11.81.4.18.78.38,1.16.58l.45.23c.14.07.29.14.42.22a14.11,14.11,0,0,1,4.15,3.45c1.93,2.46,3.74,4.8,5.47,7,.42,3.75-1.38,8-3.35,13.41-1.14,3.13-4.76,6.55-9.49,9.91-12.79,7-26.38,12.76-34.1,17.74l-1.41.59c-14.92-8.41-34.1-15.25-45.07-17-17-2.66-32.66,4.05-38.78,15.55-.37.69-.7,1.4-1,2.12a23.12,23.12,0,0,0-1.44,5.12,22.87,22.87,0,0,0-.26,3.49l0,.07,0,0c0,8.39,4.67,16.41,12.24,22.23a21.25,21.25,0,0,1-1.67,11.31c-4.22,9.39-16.36,10.31-20.2,20.22s-4.7,17.82-.66,28.89,11.65,3.21,6,20.39-10.62,39.4-17.71,57-18.22,34.12-29.44,47.95c0-.7,0-1.42,0-2.13-6.35,53.58-12.06,107.25-23.71,160a15.47,15.47,0,0,1-1.13,3.27c14,.23,27.57.41,39.91,1,15.24.78,23-1.27,22.09-16.17-.86-14.16-3.22-25-4.72-39.68-3.2-31.31,7.08-61.09,9.39-90.85,1.69-21.7,9.32-61.47,10.7-75.57,1.78-18.23,8.22-45.61,12.86-70.64,3.66-1.51,6.68-5,12.72-5.21,27.1-1,62.24-11.15,82.62-20.79,17.14-8.1,34.06-13.2,43.21-19.66a22.33,22.33,0,0,0,4.09-2.63c6.72-2.57,23.11-19.92,32-31.93a215.65,215.65,0,0,0,13.4-21.07c4-4.92,7.69-9.64,10.76-13.72C1176,611.56,1166.45,603.54,1157.08,583.23Z"/><path class="cls-22" d="M938.33,640.81c-13.27-4.64-31.18,2.7-42.11,12.36-4.31-5.49-8.86-8.79-15.68-9.83-5.48-.84-9.85.36-14.75,2.93-6.7-13.17-19.79-18.29-32-24.49-11.6-5.89-20.12,9.3-23.08,14.7h0c-3,5.41.35-1.24-.84,2a24.87,24.87,0,0,0-1.41,9.78c.42,6.74-.45,8,1.06,16,.94,5,3.57,13.09,15.26,12.95,2.7,0,34.3-2.45,37.78-11.42,5.13,3.55,8.22,6.44,13.88,7.22,6.3.88,11-.69,16.31-4.24,8.93,13.77,36.07,24.31,36.36,23.61a8.17,8.17,0,0,0,2.32-.24c9.52-2.12,18.46-15.81,18.6-24C950.25,655.7,950.56,645.09,938.33,640.81ZM884.12,663.7c1.86.42,3.78.79,5.78,1.11C887.9,664.49,886,664.12,884.12,663.7Zm6.59-.09a60.11,60.11,0,0,1,8.71,2.26A60.11,60.11,0,0,0,890.71,663.61Zm41.12-3.15h0c.19.32.39.63.6.94C932.22,661.09,932,660.78,931.83,660.46Z"/><path class="cls-28" d="M879.38,671.25a.64.64,0,0,0-.53-.74h0a.66.66,0,0,0-.74.54C861,773.6,835.65,894.94,835.38,896.22l-14.77,139a.66.66,0,0,0,.54.71h0a.65.65,0,0,0,.71-.57l14.76-139C836.91,895.21,862.22,773.84,879.38,671.25Z"/><path class="cls-25" d="M973.66,472.33a.69.69,0,0,1-.42-.25l-7.61-9.91c-4.11-5.34-11.62-5.39-11.7-5.39a.65.65,0,0,1,0-1.3c.33,0,8.23.06,12.73,5.9l7.61,9.91a.65.65,0,0,1-.12.91A.68.68,0,0,1,973.66,472.33Z"/><path class="cls-25" d="M966.76,474.52a.64.64,0,0,1-.53-.74c-.41-1.41-11.15-11.64-19.48-14.19a.65.65,0,0,1,.38-1.24c8.28,2.54,20.69,13.59,20.37,15.63A.65.65,0,0,1,966.76,474.52Z"/><path class="cls-25" d="M959.23,476.61a.62.62,0,0,1-.39-.22c-8.17-9.84-16.62-12.26-16.71-12.29a.64.64,0,1,1,.35-1.24c.36.1,8.91,2.53,17.35,12.7a.65.65,0,0,1-.08.91A.66.66,0,0,1,959.23,476.61Z"/></svg>