<svg id="Layer_1" data-name="Layer 1" xmlns="http://www.w3.org/2000/svg" width="130" height="270" viewBox="0 0 130 270"><defs><style>.cls-1{fill:#7cb829;}.cls-2{fill:#e63738;}.cls-3{fill:#1d1d1b;}.cls-4{fill:#ee796c;}</style></defs><path class="cls-1" d="M22.66,126.29c1.06-1.53,6.19-1.73,9.68-.64.41.13.81.29,1.21.46,0-.08,0-.16.07-.22,1.06-1.53,6.18-1.73,9.68-.64a11.81,11.81,0,0,1,4.31,2.41,17,17,0,0,1,5.3.67c3.76,1.17,6.84,4.21,5.69,5.74l0,0c.52,0,1,.07,1.56.14a1.36,1.36,0,0,1,.31-.84c1.24-1.34,5.77-1.18,9,0a13.18,13.18,0,0,1,3.68-4c.28-.19.6-.37.91-.55,2.45-17.44,1.66-34.09-3.1-45-9.22-21.15-3.5-4.57-10.07-18.55,3.62,1.49,5.19-.84,8.55-1.07,7,23.61,16.72,40.59,14.75,63,.07.06.18.08.24.15a1.91,1.91,0,0,1,.53,1.08c.6-.18,1.2-.34,1.81-.46,0,0,0,0,0,0-1.65-1.88,1.39-6.56,5.59-8.82a17.78,17.78,0,0,1,6.1-1.84,14.15,14.15,0,0,1,4.61-4.05c3.9-2.1,10-2.73,11.5-.84a1.43,1.43,0,0,1,.13.28,12.75,12.75,0,0,1,1.32-.83c3.91-2.1,10-2.73,11.51-.84s-1.57,6-5.13,8.18a18.14,18.14,0,0,1-4.8,1.93c.06,2.1-2.53,5.25-5.48,7a18.46,18.46,0,0,1-7.73,2.41c-.26.33-.53.64-.83,1a3.4,3.4,0,0,1,.3.23c1.52,1.87-1.57,6-5.13,8.18a18.65,18.65,0,0,1-7.36,2.39c-.4,2.06-2.8,4.79-5.47,6.4a18.46,18.46,0,0,1-7.66,2.41C67,181,51.54,204,68.65,232.46c18.13,30.15,18.53,50.65,1.2,21.58S43.68,204.35,59.1,176a130,130,0,0,0,10.5-26.29,17.09,17.09,0,0,1-7.86-.77c-2.4-.87-4.72-2.58-5.3-4A17.71,17.71,0,0,1,50,144c-3.22-1.16-6.28-3.82-5.23-5.34a1.37,1.37,0,0,1,.22-.19c-.28-.2-.55-.4-.8-.6a17.8,17.8,0,0,1-6.72-.9c-2.67-1-5.19-2.95-5.39-4.47a16.82,16.82,0,0,1-4.22-.87C24.67,130.46,21.61,127.8,22.66,126.29Z"/><path class="cls-2" d="M13.65,14.68c2.6-14,18.7-15.16,31-9.78C48,6.35,52.72,8.1,57.8,10.33A89.15,89.15,0,0,1,76,2.85C89.27-.45,102.18,5.4,104.78,15.9s-6.1,21.69-19.42,25L85,41c-.06.51-.12,1-.21,1.52C80.6,65.13,46.51,46.65,33.09,41S11,28.64,13.65,14.68Z"/><ellipse class="cls-3" cx="62.05" cy="43.98" rx="6.59" ry="6.7"/><ellipse class="cls-3" cx="68.22" cy="33.97" rx="0.98" ry="0.91"/><ellipse class="cls-3" cx="65.68" cy="33.22" rx="0.98" ry="0.91"/><ellipse class="cls-3" cx="62.85" cy="33.09" rx="0.98" ry="0.91"/><ellipse class="cls-3" cx="60.15" cy="33.31" rx="0.98" ry="0.91"/><ellipse class="cls-3" cx="57.75" cy="33.84" rx="0.98" ry="0.91"/><ellipse class="cls-3" cx="55.45" cy="34.89" rx="0.98" ry="0.91"/><ellipse class="cls-3" cx="53.62" cy="36.55" rx="0.98" ry="0.91"/><ellipse class="cls-3" cx="52.08" cy="38.78" rx="0.98" ry="0.91"/><ellipse class="cls-3" cx="70.56" cy="35.23" rx="0.98" ry="0.91"/><ellipse class="cls-3" cx="72.61" cy="36.72" rx="0.98" ry="0.91"/><path class="cls-2" d="M122.53,29C116.17,18.93,101.16,17,89,24.72s-37.2,35-30.85,45,41.71-.93,53.87-8.63S128.88,39,122.53,29Z"/><path class="cls-2" d="M4.42,34.42C-2.41,46,7.61,61.76,16.09,67s48.16,14.25,53,2.94S46.64,36.19,35.89,30.42,11.25,22.88,4.42,34.42Z"/><path class="cls-4" d="M16,24.31a18.37,18.37,0,0,1,11.27,1.36c5,2.51,20.84,11.43,21.51,11.81L62,49.19C66.66,45,76.78,35.28,78.34,30.92c2.24-6.29,23.25-11.13,25.63-11.66a1.13,1.13,0,0,1,1.33.85,1.11,1.11,0,0,1-.84,1.33c-8.56,1.9-22.64,6.36-24,10.23C78.34,37.53,64.49,50,62.91,51.4c-.58,1-4.27,7.62-1.08,13.35l3.8,6.82a1.12,1.12,0,0,1-.43,1.52,1.17,1.17,0,0,1-.54.14,1.14,1.14,0,0,1-1-.57l-3.8-6.83c-3.37-6.06-.47-12.64.75-14.92l-13-11.55C46.19,38.57,31,30,26.28,27.66a16.21,16.21,0,0,0-9.77-1.17,1.12,1.12,0,0,1-.5-2.18Z"/></svg>