<svg id="Layer_1" data-name="Layer 1" xmlns="http://www.w3.org/2000/svg" width="165" height="270" viewBox="0 0 165 270"><defs><style>.cls-1{fill:#7c3104;}.cls-2{fill:#7f5713;}.cls-3{fill:#925f36;}</style></defs><path class="cls-1" d="M82.77,85a40.39,40.39,0,0,0,.71-7.24C83.22,70,81.65,59.35,73.21,57.56c-2.11-.45-2.54.9-4.1,1.5-2,.37-4.42.76-6.25-.23,0,0,0-.11,0-.16C62.15,52.89,58.84,48,52.52,48S43,53,42.35,58.77a8.85,8.85,0,0,0,.15,1.64c-1,1.6-2.12,3.19-3.17,4.78-5,2.2-10,4.39-15,6.61-1.06,1.57-2,3.19-3.14,4.74C18.24,79,14.54,81.21,16.69,86s12.85,11.39,13.39,16.57-5.16,5.28-4.27,9.59,2.68,6.07,4.65,10,3.76,5.41,8.92,5.21A111,111,0,0,1,58,128.68c4.8.81,7.36,3.2,11.68,2s9.23-4.46,11.07-8.75,5.21-8.7,6.07-13.25.07-12.94,1.27-16.28.88-1.84,1.49-4.39C87.24,87.12,85,86,82.77,85Z"/><path class="cls-2" d="M-1.5,64.81C5,60,12.32,54.49,19.85,52.13s13.46-3.68,20.55-7.22,15.49-7.1,22.07-12.09S74.2,17.44,79.24,12.46,87,6.85,91.8,3c4,.12,8.19,0,12.26,0l8.52,5,5.47,6.56c.81,2.17,1.61,4.42,2.42,6.55,0,2.91.11,4.35.11,7.54s.23,5.28.09,9.43-2,4.81-1.9,11.48,2,18.38,2.37,27.89.18,24.51.26,34.43c1.56,5.53,3.13-.24,2.35,8.33s-3.54,15.64-5.38,31.3-4.84,66.34-4.31,81.75,2.8,18.34-1.1,26.82-10,12.35-11.72.45S99.66,226.87,100,213s-.32-33.54,1.45-45.65,5.46-22.43,1.76-31.64-5.09-12.47-1.46-20.19a76.92,76.92,0,0,0,6.39-22.66c1.15-7.81-2.11-12-2.77-19.73s-.62-18.55.82-26.18,4.66-12.25.37-19.14S97.23,15.44,89,17.77,72.81,22.24,77.42,30.55s6.42,13.8,15.14,17.54,27.07,8.49,33.36,12.8,14.32,10,6.31,9.44-25.35-3-30.76-6.07-4.42-6.93-8.19-8,.13,6.55,2,8.74,10,12.69,9.4,16.78,3.34,9.67-2,8.89S96.15,74.15,93.48,71s-5.33-5.75-6.29-7.72,2.07,5.34,2.77,8.21,2.88,13.6,1.23,17.27-7.73-.41-8.27-4S83.35,70.2,81,67.07s-2.17-6.1-5.72-6.66-11.6,6.47-11.85,9-.11-6.51-4.57-9.57-6.63-6.38-10.61-4S45,63.54,41.12,66.11s-10.82,5.24-14.61,6.5-4.43,3-7.15,4.32A20.16,20.16,0,0,1,12,79.37c1.28-3,1.53-4.74,4.05-7.49s9-7,12.16-8.65,3.74-2.42,4.55-5.16c-1.88-.09-3.64-.22-5.42-.36a29.56,29.56,0,0,0-7.08,4A23.6,23.6,0,0,1,8.57,65.14C4.93,65.12,2,65-1.5,64.81Z"/><path class="cls-3" d="M45.16,125.08a1.07,1.07,0,0,1-.25,0,1.15,1.15,0,0,1-.87-1.37c.13-.59.28-1.19.43-1.8,1-4,2-8-.09-10.84a15.45,15.45,0,0,0-3.47-3.17c-2-1.47-4-3-4.37-6-.07-.71-.17-1.38-.26-2-.47-3.26-.91-6.34,2.26-9.47a11.94,11.94,0,0,1,3.15-2.27c1.1-.6,1.3-.7,1.2-3.11a31.32,31.32,0,0,1,.17-4.51,10.68,10.68,0,0,0-.39-5,1.15,1.15,0,0,1,2.2-.67,13.14,13.14,0,0,1,.48,5.93,27.78,27.78,0,0,0-.16,4.19c.14,3.48-.63,4.26-2.41,5.21A9.78,9.78,0,0,0,40.16,92c-2.35,2.32-2,4.39-1.6,7.52.09.68.19,1.39.27,2.12.21,2,1.64,3.08,3.45,4.41a17.38,17.38,0,0,1,3.95,3.66c2.67,3.64,1.5,8.47.47,12.72-.15.6-.29,1.2-.42,1.78A1.14,1.14,0,0,1,45.16,125.08Z"/><path class="cls-3" d="M57.42,126.25a1.14,1.14,0,0,1-1.15-1.12,14.72,14.72,0,0,0-.42-3c-.41-1.91-.8-3.71,1-7.21a47,47,0,0,1,4.31-6.23c2.8-3.64,6-7.78,6.78-11.38,1.43-6.35,2.24-15.68,1.75-20a31.25,31.25,0,0,0-.81-5.22,1.13,1.13,0,0,1-.09-1.41,1.15,1.15,0,0,1,1.6-.29c.6.41.92.87,1.58,6.66.57,5-.48,14.93-1.78,20.74-.92,4.1-4.26,8.44-7.2,12.27a46.73,46.73,0,0,0-4.1,5.88c-1.42,2.77-1.17,3.93-.79,5.68a17,17,0,0,1,.46,3.44,1.14,1.14,0,0,1-1.12,1.17Zm11.66-54h0Zm-.23-.24Z"/><path class="cls-3" d="M73,126.17a1.14,1.14,0,0,1-1.1-.81c-1.74-5.67-.81-9.65,1.66-15.46l.47-1.09c2.27-5.3,5.71-13.31,4.54-19.2a1.15,1.15,0,0,1,2.26-.45c1.3,6.59-2.3,15-4.69,20.55l-.47,1.09c-2.3,5.41-3.12,8.87-1.57,13.89a1.15,1.15,0,0,1-.77,1.43A1,1,0,0,1,73,126.17Z"/><path class="cls-3" d="M61.11,85.52A13.45,13.45,0,0,1,54.19,83c-2.51-1.63-1.12-6,0-9.48.28-.88.53-1.64.63-2.15.79-4.21,0-5.9-.81-6.58A1.15,1.15,0,1,1,55.48,63c1.88,1.57,2.4,4.44,1.58,8.75a22.5,22.5,0,0,1-.69,2.42c-.59,1.85-2,6.19-.92,6.87,2.63,1.71,6.19,3.1,7.51,1.42a9.11,9.11,0,0,0,1.38-8.78,1.15,1.15,0,0,1,2.1-.92,11.33,11.33,0,0,1-1.67,11.11A4.44,4.44,0,0,1,61.11,85.52Z"/><path class="cls-2" d="M117.36,163.84c3.41-5.43,12.28-15.1,17.9-16.19s11.71.16,11.42,5-7.44,12.06-5.86,16.47,6.33,5.46,5,10.07-3.71,11.63-.29,15.54,6.37,6.25,6.54,11.26,5.39,1.21,6-2.45-1.46-9.09.7-13.39,5.64-5.23,4.57-11.33-1.73-15.2-3.7-21.41S156,142.47,149.31,141s-8.88-.45-15.3,1.84-9.76,4.21-15.69,6.51"/><path class="cls-2" d="M103,159.27c-5-2.2-8-6.36-14.51-4.17s-14.81,7.19-17.37,14.62.65,16.92-.28,24.36-3.09,15.92-.52,22,5,11.54,5.21,15.82-.1,2.16,0,5.39c3.36-3.2,4.8-4.54,7.33-9.08s6.44-13.76,5.66-19.42a55.44,55.44,0,0,1-.36-13.46c.32-5.81-2.14-14.25-2.83-20s-2.5-10.57,3-12.44,8.75,1.26,12.94,3.57"/></svg>