<svg id="Layer_1" data-name="Layer 1" xmlns="http://www.w3.org/2000/svg" width="170" height="255" viewBox="0 0 170 255"><defs><style>.cls-1{fill:#7f5713;}.cls-2{fill:#7c3104;}.cls-3{fill:#925f36;}</style></defs><path class="cls-1" d="M19.75,88.8c4,6.78,5.31,13.49,3.06,21.4s-3.09,23-6.24,29.23S12.93,151,8.1,153s-3.82-3.32-3.88-7.9S-.18,133.3.87,126.83s-.27-21.3,3-26.63S12,90.6,16.07,89.09,20.85,85,24,84s4.66-.52,7.61-1c.53.63,1.51.87,2,1.58a5.88,5.88,0,0,1-2.33.31,23.43,23.43,0,0,0-4,.07"/><path class="cls-2" d="M163.77,130.67c-3.34-6.84-7.82-19-15.31-24.44-12.57-9.16-26.79-15.74-40.72-22.49-4.14.4-6.8.64-9.86,4-12.51,13.91-18,45.4-18,59.8s.54,10.38,6.7,15.33,3.38-5.19,8-5.07,8.09,2.41,12.93,1.91,6.73-5.68,7.8-10c2.73,1.11,5,1.06,7.42-.57s2.66-4.87,5.1-6.32,4.12,4.42,5.81,5.6,2.78,1.17,5,.63,4.73,2.24,6.81,2.79,2.53-1.93,4.75-1,6.08,3.38,8.49,1.9.37-4,3-5.22,6.58,4.92,7.43-1.14S167.11,137.5,163.77,130.67Z"/><path class="cls-1" d="M123.72,81.32c-4.73-1.75-7.3-1.39-11.48-2.78a21.37,21.37,0,0,0-4.13-.79C105.87,67.07,103.38,53,101,42.89,97.72,29.08,87.75,15.6,79.36,7.73s-16.19-6.55-24.52-4S43.56,13.33,39.18,22.32s-5.8,25-6.6,38c-.33,5.34-.92,16.62-1.57,24.58-.93,11.48-1.1,27.52-4.76,39.84-6.2,20.86-10.12,60.65-11.88,78.47S9.2,236.28,8.65,245.46s4.54,9.9,9.59,4,5.56-29.87,5.63-44.22S28.14,173.31,31,154s7.28-51.95,10-73.56c.24,1,.82,5.16,1.07,6.18,1.47,6,6.56,11,7.25,16.35a34.42,34.42,0,0,0,4.89,14c2.42,3.72,3.29,4.62,4.46,8.49,1.29-3.36.56-.55,2.37-5.27S62.51,101.29,58.52,96s-2.37-10.1-6.25-14.87c-2.74-3.37-6.71-5.54-10.75-7.52,2.7-18.06,1.76-34.81,7.16-53.11,5.72-19.35,22.18-7.85,33.64,6.65,9.38,11.86,15.23,36.6,15.73,53.39-3,4.48-5.27,3.86-8.43,9.23S81.8,105,78.8,111.47c1.59-1,3.68-1.39,5.21-2.87,3-2.93,5.26-9.36,8.83-11.34S98,92.48,99.92,90a49.18,49.18,0,0,1,4.44-5.43c0,1.15-.07,2.46-.17,3.49-.16,1.65-.41,3.06.31,4.72s-.4,4.56.1,6.64a12.89,12.89,0,0,0,.84,2.2c.66-3.13,1.5-8,1.83-10.84s-.4-3.39-.08-5.71c0-.29-.21-1.25.13-1.15a15,15,0,0,1,2.42,1.93c1.14,1,2.21,2.15,3.93,2.51s3.4,3,5.34,3.83a13.83,13.83,0,0,0,2.26.62c-2.18-2.45-5.43-5.89-7.57-7.91-1.62-1.54-1.66-1.05-3.17-2.09A28.24,28.24,0,0,1,117,84.72a36.4,36.4,0,0,0,8,2.83c3.49.77,2.22,5.48,8.08,4.22,1.33-.29,3.58-.32,4.92-.74C133.68,87.79,128.46,83.08,123.72,81.32Z"/><path class="cls-3" d="M98.17,149.13h-.06A1.19,1.19,0,0,1,97,147.87a14.28,14.28,0,0,1,2.43-6.78c1.19-2,2.32-4,2.21-7.11-.08-2.4-1.23-5.79-2.46-9.38-2-6-4.16-12.2-2.62-16.83A1.18,1.18,0,0,1,98,107a1.19,1.19,0,0,1,.76,1.51c-1.28,3.87.79,10,2.62,15.31,1.28,3.77,2.5,7.32,2.59,10.07a14.3,14.3,0,0,1-2.54,8.4,12,12,0,0,0-2.11,5.7A1.19,1.19,0,0,1,98.17,149.13Z"/><path class="cls-3" d="M117.91,144.29h-.08a1.2,1.2,0,0,1-1.11-1.27,13.54,13.54,0,0,1,1.76-5.84,9.56,9.56,0,0,0,1.13-7c-.53-3.41-2.74-7.86-5.08-12.56s-4.71-9.46-5.55-13.58a1.19,1.19,0,0,1,2.34-.48c.78,3.82,3.1,8.48,5.35,13,2.42,4.88,4.72,9.49,5.29,13.27a11.73,11.73,0,0,1-1.36,8.44,11.17,11.17,0,0,0-1.5,4.91A1.18,1.18,0,0,1,117.91,144.29Z"/><path class="cls-3" d="M141,139.17a1.2,1.2,0,0,1-.11-2.39c4.72-.44,7.31-1.08,7.68-1.89s-1.4-3.36-3.29-6c-1.15-1.62-2.45-3.45-3.85-5.64-5-7.8-8.37-10.3-13.08-13.77-2-1.48-4.3-3.17-7-5.49a1.19,1.19,0,0,1,1.56-1.8c2.62,2.26,4.86,3.91,6.84,5.37,4.74,3.48,8.48,6.23,13.69,14.4,1.36,2.14,2.64,3.95,3.78,5.55,2.79,3.93,4.47,6.31,3.51,8.4-.84,1.83-3.36,2.69-9.63,3.28Z"/></svg>