<svg id="Layer_1" data-name="Layer 1" xmlns="http://www.w3.org/2000/svg" width="115" height="45.04" viewBox="0 0 115 45.04"><defs><style>.cls-1{fill:#1b1291;}</style></defs><path class="cls-1" d="M1.9,15.47l-.08.2Z"/><path class="cls-1" d="M1.6,16.39c-.15.05-.71,2.11,0,0Z"/><path class="cls-1" d="M1.59,16.25l.17-.43C1.69,16,1.63,16.17,1.59,16.25Z"/><path class="cls-1" d="M113.6,19.51c-1.64-9.6-2.95-17.79-13-19.3C89.75-1.43,77.05,6.83,70.06,15.84,66,12.25,62,10.37,56.57,10.57c-4.33.15-7.51,1.71-10.9,4.4C38.59,5.82,27.78,3.8,17.49.81,7.72-2,3.38,10.89,1.9,15.47c-.13.38-.22.67-.3.92,0,0,0,.15-.05.74a19.39,19.39,0,0,0,.33,7.72C3.19,30,2.71,31.09,5,37c1.45,3.68,4.66,9.55,13.62,7.73,2.08-.42,26-6.87,27.38-14.27,4.46,2,7.26,3.74,11.72,3.52,5-.24,8.38-2.14,11.92-5.63,8.87,9.28,31.27,13.42,31.39,12.85a6.22,6.22,0,0,0,1.75-.53C109.81,37.63,114.68,25.8,113.6,19.51ZM67.34,24.67a47.05,47.05,0,0,1,7,.46A47.05,47.05,0,0,0,67.34,24.67Z"/></svg>