<svg id="Layer_1" data-name="Layer 1" xmlns="http://www.w3.org/2000/svg" width="1920" height="1080" viewBox="0 0 1920 1080"><defs><style>.cls-1{fill:#fff;}.cls-2{fill:#bfebff;}.cls-3{fill:#4c6b4c;}.cls-4{fill:#579157;}.cls-5{fill:#c1b272;}.cls-6{fill:#0a0a0a;}.cls-7{fill:#d40b00;}.cls-8{fill:#6a2300;}.cls-9{fill:#940000;}.cls-10{fill:#4e5360;}.cls-11{fill:#a1d4f7;opacity:0.9;}.cls-12{font-size:106px;}.cls-12,.cls-18{fill:#f93eec;font-family:Noteworthy-Bold, Noteworthy;font-weight:700;}.cls-13{letter-spacing:0.04em;}.cls-14{letter-spacing:0.03em;}.cls-15{fill:#76b72a;}.cls-16{fill:#ee796c;}.cls-17{fill:#f7b884;}.cls-18{font-size:83.96px;}.cls-19{letter-spacing:-0.04em;}.cls-20{letter-spacing:0.01em;}.cls-21{letter-spacing:-0.02em;}.cls-22{letter-spacing:0.02em;}.cls-23{letter-spacing:-0.07em;}.cls-24{letter-spacing:-0.01em;}.cls-25{letter-spacing:0.02em;}.cls-26{letter-spacing:-0.04em;}.cls-27{letter-spacing:0em;}.cls-28{opacity:0.7;}.cls-29{fill:#754c24;}.cls-30{fill:#e8c6a7;}.cls-31{fill:#bf0a00;}.cls-32{fill:#ffbdee;}.cls-33,.cls-35{fill:none;}.cls-33{stroke:#000;stroke-linecap:round;stroke-miterlimit:10;}.cls-34{fill:#7eba28;}.cls-36{fill:#438031;}.cls-37{fill:#b1e055;}.cls-38{fill:#a6cc4a;}.cls-39{fill:#f28945;}.cls-40{fill:#ed6f33;}.cls-41{fill:#f4a8ba;}.cls-42{fill:#da3e8f;}.cls-43{fill:#ffd629;}.cls-44{fill:#f7f9d7;}.cls-45{fill:#e2e1cf;}.cls-46{fill:#ff0;}.cls-47{fill:#e97804;}.cls-48{fill:#e52320;}.cls-49{fill:#e84b94;}.cls-50{fill:#f777f4;opacity:0.3;}.cls-51{fill:#aae2ff;}</style></defs><rect class="cls-1" x="1672.5" y="30" width="248" height="257"/><path class="cls-2" d="M4.78,421.34c112-21.9,291.78-77.09,375,1.55,70.53-4.32,142.11-6.87,210.8-7.6C677,329.7,865.9,340.7,940.89,377.52c.73-9.95,9.38-18.78,22.59-24.61a34.34,34.34,0,0,1-.28-4.21c0-19.33,16.88-35,37.7-35,.75,0,1.49,0,2.23.07,3.47-15.6,10.64-26.31,18.93-26.31,9,0,16.64,12.57,19.71,30.3,17.1-14.33,33.2-16.21,38.67-3,2.9,7,2.34,17-.92,28a73.23,73.23,0,0,1,18.75,4.87c62.19-1.95,68.31,11,51.52,29.79-.71.79-1.51,1.67-2.39,2.61,25.95,3.71,45.1,16.71,45.1,32.17,0,18.36-27,33.25-60.31,33.25a107,107,0,0,1-14.88-1A78.12,78.12,0,0,1,1091,444a126.4,126.4,0,0,1,17.4,9.21,92.32,92.32,0,0,1,15.33,12.47c28,8.83,49.79,18.69,65.84,29.57,60.73-3.91,117.26,3.44,155.33,36.54q41.45-11.58,77.4-20.08h-1.76l34.26-141.21-15-29.35h.27l17.67-25.81v-.14h44.4l15.33-29.82v-.46h41.24V246h.52l-.08-.27,15.37-5V160.37l-10.2-10.94h.19l44.93-69.85h-.21V63.46h-7.69V61.29h7.69V55h2.06v6.29h7.91v2.17h-7.91v16l45,70-7.56,8.11v84.93l13.06,4.27v38.59h41v.46l15.26,29.69h44.87v.14l17.38,25.8h-1.14l-14.84,29,23.49,96.83c29.94,8.42,57,28.15,79.26,63.64,25.19,40.19,35.18,82,34.17,123.46a127.93,127.93,0,0,1,18.24,4.32v-506c-2.4.18-4.86.28-7.38.28a87.21,87.21,0,0,1-23.34-3,118.47,118.47,0,0,1-27.32,3,132.18,132.18,0,0,1-14.23-.76c-2.92,5.06-8.16,8.76-17.4,8.76-8.17,0-15-3.36-20.44-8.18-2.24.12-4.53.18-6.85.18-27.4,0-49.62-8.11-49.62-18.11,0-6.62,9.74-12.41,24.27-15.57a7,7,0,0,1-.49-2.54c0-5.73,7.28-10.83,18.64-14.15a12.52,12.52,0,0,1-.23-2.29c0-10.53,13.89-19.07,31-19.07.62,0,1.23,0,1.84,0,2.86-8.5,8.76-14.34,15.58-14.34,7.38,0,13.69,6.85,16.22,16.51,14.06-7.8,27.31-8.83,31.82-1.63,2.37,3.8,1.92,9.26-.76,15.27,12,1,22.22,4.06,28.68,8.27V0H1309.72c2.44,5.09,1.82,12.18-1.23,20,24.37,2.32,42.76,12.73,42.76,25.24a12.55,12.55,0,0,1-.3,2.73c19.4,3.4,33.27,12.41,33.27,23,0,13.5-22.57,24.44-50.4,24.44a92.12,92.12,0,0,1-27.75-4,117.87,117.87,0,0,1-23.32,3.75c-7.18,7.93-15.49,13.18-25.86,11.69a72,72,0,0,1-31.44-13.15c-19.15,4.57-32.35,10.85-32.36,1.36-27.62-2-48.59-12-48.59-24,0-8.93,11.58-16.75,28.86-21a10.61,10.61,0,0,1-.59-3.43c0-7.72,8.67-14.61,22.18-19.09a18.71,18.71,0,0,1-.27-3.1c0-11.23,10.32-20.77,24.7-24.28H.5V422.21C1.92,421.91,3.35,421.62,4.78,421.34Zm1394-349.5a8,8,0,0,1-.42-2.5c0-5.64,6.19-10.66,15.85-13.92a13.21,13.21,0,0,1-.2-2.27c0-10.36,11.8-18.77,26.36-18.77.52,0,1,0,1.56,0,2.42-8.36,7.44-14.11,13.23-14.11,6.28,0,11.64,6.74,13.79,16.25,12-7.68,23.21-8.69,27-1.6,2,3.74,1.64,9.11-.64,15,17.42,1.69,30.56,9.29,30.56,18.41a9,9,0,0,1-.22,2c13.87,2.48,23.78,9,23.78,16.77,0,9.85-16.13,17.83-36,17.83a64.61,64.61,0,0,1-19.83-3,87.64,87.64,0,0,1-23.22,3,85.82,85.82,0,0,1-25-3.48,85.82,85.82,0,0,1-25,3.48c-23.29,0-42.17-8-42.17-17.83C1378.18,80.65,1386.46,75,1398.81,71.84ZM457.67,96.42a5,5,0,0,1-.58-2.25c0-5.06,8.46-9.56,21.64-12.5a8.12,8.12,0,0,1-.27-2c0-9.31,16.12-16.85,36-16.85.72,0,1.43,0,2.13,0,3.32-7.5,10.17-12.66,18.08-12.66,8.57,0,15.89,6,18.82,14.59,16.33-6.9,31.7-7.81,36.93-1.45,2.76,3.36,2.23,8.19-.89,13.5,23.79,1.52,41.74,8.34,41.74,16.52a5.56,5.56,0,0,1-.3,1.79c1.84.22,3.63.47,5.35.75,7.68-2.51,14-1.54,16.72,3.44a11,11,0,0,1,.56,1.26c6.17,2.68,9.84,6,9.84,9.6,0,1.91-1,3.75-2.93,5.45,13.23,2.93,22.45,9.5,22.45,17.13a9.57,9.57,0,0,1-.21,2c13.86,2.48,23.77,9.05,23.77,16.77,0,9.85-16.13,17.83-36,17.83a64.61,64.61,0,0,1-19.83-2.95,87.64,87.64,0,0,1-23.22,2.95,85.48,85.48,0,0,1-25-3.48,85.48,85.48,0,0,1-25,3.48c-23.29,0-42.17-8-42.17-17.83,0-6.52,8.28-12.22,20.63-15.33a7.9,7.9,0,0,1-.42-2.5c0-2.7,1.44-5.26,4-7.56-1.3,0-2.61,0-3.93,0A173.73,173.73,0,0,1,521.27,123a173.66,173.66,0,0,1-34.19,3.13c-31.8,0-57.58-7.16-57.58-16C429.5,104.32,440.8,99.21,457.67,96.42ZM146,243.34a12.81,12.81,0,0,1-.92-4.66c0-10.48,13.42-19.82,34.35-25.89a21.1,21.1,0,0,1-.43-4.21c0-19.27,25.57-34.9,57.11-34.9,1.14,0,2.26,0,3.38.06,5.26-15.55,16.13-26.24,28.68-26.24,13.6,0,25.22,12.54,29.88,30.23,25.9-14.29,50.3-16.17,58.59-3,4.38,7,3.54,17-1.4,28,37.75,3.15,66.23,17.28,66.23,34.24a15,15,0,0,1-.47,3.71c30,4.62,51.52,16.84,51.52,31.19,0,18.31-34.95,33.16-78.05,33.16a161.37,161.37,0,0,1-43-5.48A219.57,219.57,0,0,1,301.17,305c-20.32,0-39.08-2.41-54.26-6.48C231.74,302.59,213,305,192.66,305c-50.47,0-91.38-14.85-91.38-33.16C101.28,259.72,119.22,249.12,146,243.34Z"/><path class="cls-1" d="M985.49,420.53c41.69,3.3,79.33,11.94,105.47,23.49a78.12,78.12,0,0,0,26.35.44,107,107,0,0,0,14.88,1c33.31,0,60.31-14.89,60.31-33.25,0-15.46-19.15-28.46-45.1-32.17.88-.94,1.68-1.82,2.39-2.61,16.79-18.76,10.67-31.74-51.52-29.79a73.23,73.23,0,0,0-18.75-4.87c3.26-11,3.82-21.06.92-28-5.47-13.22-21.57-11.34-38.67,3-3.07-17.73-10.74-30.3-19.71-30.3-8.29,0-15.46,10.71-18.93,26.31-.74,0-1.48-.07-2.23-.07-20.82,0-37.7,15.67-37.7,35a34.34,34.34,0,0,0,.28,4.21c-13.21,5.83-21.86,14.66-22.59,24.61a117.72,117.72,0,0,1,11.79,6.59C966.56,393.09,977.48,405.5,985.49,420.53Z"/><path class="cls-3" d="M1189.53,495.27c-16-10.88-37.82-20.74-65.84-29.57a92.32,92.32,0,0,0-15.33-12.47A126.4,126.4,0,0,0,1091,444c-26.14-11.55-63.78-20.19-105.47-23.49-8-15-18.93-27.44-32.81-36.42a117.72,117.72,0,0,0-11.79-6.59C865.9,340.7,677,329.7,590.54,415.29c-68.69.73-140.27,3.28-210.8,7.6-83.18-78.64-262.95-23.45-375-1.55-1.43.28-2.86.57-4.28.87V1080H358.16C343.72,1009.26,403,912.41,506.07,847.8c96.7-60.63,244.69-176.64,350.55-133.08,140.15-64,288-121.94,405.48-158.43q43.92-13.63,82.76-24.48C1306.79,498.71,1250.26,491.36,1189.53,495.27Z"/><path class="cls-4" d="M1919.5,1075.11q-4.7,2.51-9.6,4.89h8.44l1.16-1.29Z"/><path class="cls-4" d="M1455.57,512v-.27h-33.31q-36,8.5-77.4,20.08-38.89,10.86-82.76,24.48c-117.5,36.49-265.33,94.47-405.48,158.43C750.76,671.16,602.77,787.17,506.07,847.8,403,912.41,343.72,1009.26,358.16,1080h59.18q71.43-43.26,158.07-92.79c353.53-201.76,622.47-333.5,802.71-409l5.9-2.46c72.9-30.34,131-51.3,173.9-63.8Z"/><path class="cls-4" d="M1901.26,654.4c1-41.45-9-83.27-34.17-123.46-22.26-35.49-49.32-55.22-79.26-63.64l10.85,44.7H1647.45c-9.86,25.66-84.29,84.74-188.26,151.2-54,34.53-116,71.06-181.07,105.92-127.79,68.49-267.38,130.57-381.49,158.55-63.3,15.52-184,80.52-312.27,152.33H1909.9q4.9-2.38,9.6-4.89V658.72A127.93,127.93,0,0,0,1901.26,654.4Z"/><path class="cls-1" d="M192.66,305c20.31,0,39.08-2.41,54.25-6.48,15.18,4.07,33.94,6.48,54.26,6.48a219.57,219.57,0,0,0,50.31-5.48,161.37,161.37,0,0,0,43,5.48c43.1,0,78.05-14.85,78.05-33.16,0-14.35-21.47-26.57-51.52-31.19a15,15,0,0,0,.47-3.71c0-17-28.48-31.09-66.23-34.24,4.94-11,5.78-21,1.4-28-8.29-13.18-32.69-11.3-58.59,3-4.66-17.69-16.28-30.23-29.88-30.23-12.55,0-23.42,10.69-28.68,26.24-1.12,0-2.24-.06-3.38-.06-31.54,0-57.11,15.63-57.11,34.9a21.1,21.1,0,0,0,.43,4.21c-20.93,6.07-34.35,15.41-34.35,25.89a12.81,12.81,0,0,0,.92,4.66c-26.76,5.78-44.7,16.38-44.7,28.5C101.28,290.15,142.19,305,192.66,305Z"/><path class="cls-1" d="M1420.35,105a85.82,85.82,0,0,0,25-3.48,85.82,85.82,0,0,0,25,3.48,87.64,87.64,0,0,0,23.22-3,64.61,64.61,0,0,0,19.83,3c19.89,0,36-8,36-17.83,0-7.72-9.91-14.29-23.78-16.77a9,9,0,0,0,.22-2c0-9.12-13.14-16.72-30.56-18.41,2.28-5.92,2.66-11.29.64-15-3.83-7.09-15.09-6.08-27,1.6-2.15-9.51-7.51-16.25-13.79-16.25-5.79,0-10.81,5.75-13.23,14.11-.52,0-1,0-1.56,0-14.56,0-26.36,8.41-26.36,18.77a13.21,13.21,0,0,0,.2,2.27c-9.66,3.26-15.85,8.28-15.85,13.92a8,8,0,0,0,.42,2.5c-12.35,3.11-20.63,8.81-20.63,15.33C1378.18,97,1397.06,105,1420.35,105Z"/><path class="cls-1" d="M682.74,134.75a9.57,9.57,0,0,0,.21-2c0-7.63-9.22-14.2-22.45-17.13a22.8,22.8,0,0,1-5,3.26,22.8,22.8,0,0,0,5-3.26c1.89-1.7,2.93-3.54,2.93-5.45,0-3.6-3.67-6.92-9.84-9.6a11,11,0,0,0-.56-1.26c-2.68-5-9-6-16.72-3.44h0c-1.72-.28-3.51-.53-5.35-.75a5.56,5.56,0,0,0,.3-1.79c0-8.18-18-15-41.74-16.52,3.12-5.31,3.65-10.14.89-13.5-5.23-6.36-20.6-5.45-36.93,1.45-2.93-8.54-10.25-14.59-18.82-14.59-7.91,0-14.76,5.16-18.08,12.66-.7,0-1.41,0-2.13,0-19.87,0-36,7.54-36,16.85a8.26,8.26,0,0,0,.27,2c-13.18,2.93-21.64,7.43-21.64,12.49a5,5,0,0,0,.58,2.25c-16.87,2.79-28.17,7.9-28.17,13.75,0,8.84,25.78,16,57.58,16A173.66,173.66,0,0,0,521.27,123a173.73,173.73,0,0,0,34.19,3.13c1.32,0,2.63,0,3.93,0a34.18,34.18,0,0,1,11.86-6.36h0a34.18,34.18,0,0,0-11.86,6.36h0c-2.55,2.3-4,4.86-4,7.56a7.9,7.9,0,0,0,.42,2.5c-12.35,3.11-20.63,8.81-20.63,15.33,0,9.85,18.88,17.83,42.17,17.83a85.48,85.48,0,0,0,25-3.48,85.48,85.48,0,0,0,25,3.48,87.64,87.64,0,0,0,23.22-2.95,64.61,64.61,0,0,0,19.83,2.95c19.89,0,36-8,36-17.83C706.51,143.8,696.6,137.23,682.74,134.75Zm-48.91-38a48.36,48.36,0,0,0-7.84,4.12A48,48,0,0,1,633.83,96.79Zm-8.28,2.37c-2.38-8.57-7.46-14.5-13.35-14.5C618.09,84.66,623.17,90.59,625.55,99.16Zm-54.5,18.34a13.33,13.33,0,0,0,.19,2.2A13.33,13.33,0,0,1,571.05,117.5Zm16.11,6-1.48.25,1.48-.25A123.81,123.81,0,0,0,606.88,126,123.81,123.81,0,0,1,587.16,123.53Zm51.22.58c-1.18.22-2.4.42-3.64.61C636,124.53,637.2,124.33,638.38,124.11Zm11-2.73c1.36-.46,2.64-.93,3.83-1.43C652,120.45,650.7,120.92,649.34,121.38Zm-6.55,1.82c1.66-.38,3.24-.8,4.74-1.25C646,122.4,644.45,122.82,642.79,123.2Z"/><path class="cls-1" d="M1194.68,24.28a18.71,18.71,0,0,0,.27,3.1c-13.51,4.48-22.18,11.37-22.18,19.09a10.61,10.61,0,0,0,.59,3.43c-17.28,4.26-28.86,12.08-28.86,21,0,12,21,22,48.59,24,0,9.49,13.21,3.21,32.36-1.36a72,72,0,0,0,31.44,13.15c10.37,1.49,18.68-3.76,25.86-11.69a117.87,117.87,0,0,0,23.32-3.75,92.12,92.12,0,0,0,27.75,4c27.83,0,50.4-10.94,50.4-24.44,0-10.58-13.87-19.59-33.27-23a12.55,12.55,0,0,0,.3-2.73c0-12.51-18.39-22.92-42.76-25.24,3-7.77,3.67-14.86,1.23-19.95h-35.6c-.85.49-1.71,1-2.57,1.54-.12-.52-.26-1-.39-1.54h-51.78C1205,3.51,1194.68,13.05,1194.68,24.28Z"/><path class="cls-5" d="M1644.59,512h-86.67c-42.94,12.5-101,33.46-173.9,63.8-1.63,1.55-3.27,3.18-4.9,4.87-.33-.8-.66-1.61-1-2.41-180.24,75.45-449.18,207.19-802.71,409q-86.53,49.39-158.07,92.79h167c128.23-71.81,249-136.81,312.27-152.33,114.11-28,253.7-90.06,381.49-158.55,65.06-34.86,127.05-71.39,181.07-105.92,104-66.46,178.4-125.54,188.26-151.2Z"/><polygon class="cls-6" points="1787.83 467.3 1764.34 370.47 1779.18 341.43 1780.32 341.43 1762.94 315.62 1762.94 315.48 1718.07 315.48 1702.81 285.8 1702.81 285.33 1702.57 285.33 1702.57 285.33 1702.57 285.33 1661.78 285.33 1661.78 246.74 1648.72 242.47 1648.72 157.54 1656.28 149.43 1611.25 79.43 1611.25 63.46 1619.16 63.46 1619.16 61.29 1611.25 61.29 1611.25 55 1609.19 55 1609.19 61.29 1601.5 61.29 1601.5 63.46 1609.19 63.46 1609.19 79.58 1609.4 79.58 1564.47 149.43 1564.29 149.43 1574.48 160.37 1574.48 240.72 1559.11 245.75 1559.19 246.02 1558.67 246.02 1558.67 284.94 1517.67 284.94 1517.43 284.94 1517.43 285.4 1502.1 315.22 1457.7 315.22 1457.7 315.36 1440.03 341.17 1439.76 341.17 1454.76 370.52 1420.5 511.73 1422.26 511.73 1431.95 511.73 1455.57 511.73 1455.57 512 1557.92 512 1577.92 512 1644.59 512 1647.45 512 1728.86 512 1763.5 512 1790.01 512 1798.68 512 1787.83 467.3"/><polygon class="cls-1" points="1435.93 521.41 1505.75 521.41 1470.84 377.51 1435.93 521.41"/><polygon class="cls-1" points="1814.11 521.68 1779.77 380.15 1794.74 350.85 1763.81 350.85 1778.67 379.94 1744.28 521.68 1814.11 521.68"/><polygon class="cls-1" points="1671.7 159.11 1579.71 159.11 1589.91 170.05 1589.91 259.3 1579.6 259.3 1579.6 357.33 1671.7 357.33 1671.7 259.3 1664.14 259.3 1664.14 167.22 1671.7 159.11"/><rect class="cls-1" x="1471" y="350.84" width="307.93" height="170.83"/><polygon class="cls-1" points="1455.19 350.85 1470.65 381.12 1486.12 350.85 1455.19 350.85"/><rect class="cls-7" x="1668.27" y="335.25" width="111.52" height="15.86" transform="translate(3448.05 686.35) rotate(-180)"/><polygon class="cls-7" points="1768.66 351.12 1778.37 325.3 1795.74 351.1 1768.66 351.12"/><rect class="cls-7" x="1668.27" y="325.15" width="110.1" height="15.86" transform="translate(3446.64 666.17) rotate(-180)"/><rect x="1593.35" y="450.81" width="66.67" height="70.87"/><ellipse cx="1626.68" cy="454.03" rx="33.34" ry="35.43"/><rect class="cls-8" x="1601.65" y="475.09" width="49.43" height="46.57"/><ellipse class="cls-8" cx="1626.37" cy="477.21" rx="24.72" ry="23.29"/><rect x="1493.74" y="391.25" width="24" height="22.29"/><ellipse cx="1505.74" cy="392.26" rx="12" ry="11.14"/><rect x="1550.81" y="391.24" width="24" height="22.29"/><ellipse cx="1562.81" cy="392.25" rx="12" ry="11.14"/><rect x="1673.16" y="391.24" width="24" height="22.29"/><ellipse cx="1685.16" cy="392.25" rx="12" ry="11.14"/><rect x="1728.83" y="391.24" width="24" height="22.29"/><ellipse cx="1740.84" cy="392.25" rx="12" ry="11.14"/><rect class="cls-9" x="1471.69" y="334.99" width="113.41" height="15.86"/><polygon class="cls-9" points="1483 350.86 1473.12 325.04 1455.45 350.85 1483 350.86"/><rect class="cls-9" x="1473.12" y="324.9" width="111.97" height="15.86"/><rect class="cls-9" x="1574.1" y="255.7" width="11" height="71.36"/><rect class="cls-9" x="1668.27" y="256.42" width="8.94" height="72.08"/><polygon class="cls-1" points="1625.33 244.13 1578.96 259.3 1671.7 259.3 1625.33 244.13"/><polygon class="cls-9" points="1622.88 245.25 1624.67 239.24 1677.2 256.42 1675.41 262.44 1622.88 245.25"/><polygon class="cls-9" points="1576.48 261.97 1574.54 255.43 1624.87 238.97 1626.82 245.51 1576.48 261.97"/><polygon class="cls-7" points="1548.67 324.89 1517.52 324.89 1533.1 294.62 1548.67 324.89"/><rect class="cls-7" x="1532.86" y="294.62" width="41.24" height="30.27"/><polygon class="cls-7" points="1702.42 325.29 1733.57 325.29 1718 295.01 1702.42 325.29"/><rect class="cls-7" x="1676.99" y="295.01" width="41.24" height="30.27" transform="translate(3395.22 620.3) rotate(-180)"/><rect x="1598.26" y="204.5" width="15.02" height="17.41"/><ellipse cx="1605.77" cy="205.3" rx="7.51" ry="8.71"/><rect x="1624.62" y="64.68" width="2.06" height="24.58"/><rect x="1624.67" y="63.22" width="2.17" height="17.66" transform="translate(1697.81 -1553.7) rotate(90)"/><rect x="1633.69" y="204.56" width="15.02" height="17.41"/><ellipse cx="1641.2" cy="205.36" rx="7.51" ry="8.71"/><rect class="cls-10" x="1622.9" y="274.44" width="4.12" height="49.02"/><rect class="cls-10" x="1623.02" y="271.48" width="4.32" height="35.31" transform="translate(1914.32 -1336.04) rotate(90)"/><polygon class="cls-7" points="1671.7 159.11 1579.9 159.11 1625.8 87.75 1671.7 159.11"/><rect class="cls-11" x="210.5" y="113" width="1551" height="833" rx="94.32"/><text class="cls-12" transform="translate(472.52 263.04)">LE<tspan class="cls-13" x="132.1" y="0">V</tspan><tspan x="209.35" y="0">EL COM</tspan><tspan class="cls-14" x="614" y="0">P</tspan><tspan x="690.85" y="0">LETE</tspan></text><path class="cls-15" d="M274.83,283.23c7.93-2.8,12.17-.43,19,3.34s10.2,14.67,8.49,20.16a8.73,8.73,0,0,0-.41,3.69c3.48-13.13,10.1-29.54,13.84-38.49,4.67-11.18,9.55-17.33,15.58-22.34s10.37-6.12,14.53-8.65,3.66-.86,7.06-2.38a21.65,21.65,0,0,0,3,4.52c-7.7,2.12-9.76,3-17,11.36s-21.67,32.63-26.16,43.86a110.26,110.26,0,0,0-6.05,19c.4-.61.92-1.33,1.55-2.24,2.88-4.17,12.28-6.47,16.83-8.08s9.53-2.74,13.77-1.1a112.58,112.58,0,0,1-8.6,15.11c-5.93,8.08-16.64,6-21.16,2.21a12.34,12.34,0,0,1-2.92-3c-.35,2.16-.6,4.34-.77,6.62-.67,9.45.12,17.54-.46,25.87S303,371,297.55,375.62s-13.88,3.19-13.72,1.69,7-3.34,10.64-12.87,3.54-31.46,5.47-45a77.7,77.7,0,0,1,1.63-7.91l-1.6-1.83c-1.27-1.44-7.77,2.07-12.8-.88s-5.16-6.45-9.07-12.53S263.8,285,263.8,285,266.89,286,274.83,283.23Z"/><path class="cls-16" d="M339,278.85c-5.2-1.32-15.51-5.37-19.29-9.75s-8.12-22.54-4.95-27,9.86-3.88,8.49-9.5-2.67-8.33,0-10.15-1.16-4.23,4.24-2.07c4.13,1.65,2.06,3.22,4.67.33s8.62-2.18,8.62-2.18c9.36,3.42,10.38,3.93,10.38,3.93,10.69,1,8.35.88,11.29,1.36s8.43,6.28,8,13.18-1.65,7.3-.17,8.92,4.72,5.29,5.85,7.6,3.29,2.82,3.29,5.58,1.12,6.37-2.83,9.89-4.25,4.39-5.15,4.66-.91.27-4.64-1.18-6.84-2.59-9.9-.07-6.22,6.58-9.65,7A30.9,30.9,0,0,1,339,278.85Z"/><path class="cls-17" d="M364.72,265.24a.65.65,0,0,0,.72-.12.79.79,0,0,0,.16-1l-7.77-10.92a.63.63,0,0,0-.94-.07.81.81,0,0,0-.16,1l7.77,10.92A.63.63,0,0,0,364.72,265.24Z"/><path class="cls-17" d="M339.52,278.31l.12.05a.75.75,0,0,0,.85-.55c.13-.42,3.1-10.38-2.94-19.37s-9.15-13.58-11.28-16.19l-.84-1a32.48,32.48,0,0,1,8.89,3.27c3.14,1.8,6.3,5,8.4,7.17,1.8,1.85,2.34,2.38,2.86,2.4a22.69,22.69,0,0,0,7.29-.94c2-.56,2.64-.72,3.86,1a.64.64,0,0,0,.94.06.79.79,0,0,0,.16-1c-1.71-2.39-3.08-2-5.15-1.45a21.74,21.74,0,0,1-6.92.89c-.17-.1-1.18-1.13-2.07-2.05-2.14-2.18-5.37-5.49-8.65-7.37a34.56,34.56,0,0,0-11.28-3.78.75.75,0,0,0-.72.41.74.74,0,0,0,0,.82l2.13,2.62c2.1,2.57,5.17,7.09,11.22,16.09,5.66,8.42,2.81,18,2.78,18.13A.69.69,0,0,0,339.52,278.31Z"/><path class="cls-17" d="M350,250a.69.69,0,0,0,.89-.32.72.72,0,0,0-.17-1l-3-1.88a8,8,0,0,1-3.44-4.22.75.75,0,0,0-.13-.25,85.64,85.64,0,0,1-5.84-7.32c-.13-.39.54-1.56,1.08-2.5l.43-.77c.38-.68,2.69-.93,4.66-.73a49.25,49.25,0,0,0,4.45,2.25c1.11.44,5.2,3.86,8.21,6.37,1.16,1,2.24,1.89,3.1,2.58A21,21,0,0,1,365,248a44.79,44.79,0,0,1-.26,6.45c-.26.29-1.75.06-3.22-.61a.73.73,0,0,0-.91.41.7.7,0,0,0,.28.94c.7.32,3.09,1.31,4.37.56a1.71,1.71,0,0,0,.78-1.1,46.29,46.29,0,0,0,.29-7,.82.82,0,0,0-.07-.31,22,22,0,0,0-5.19-6.25c-.85-.69-1.93-1.6-3.09-2.57-4.24-3.55-7.33-6.1-8.52-6.56-1.52-.6-4.37-2.23-4.4-2.24a.62.62,0,0,0-.23-.07c-1.18-.13-5.12-.4-6.18,1.52l-.43.75c-.83,1.46-1.55,2.73-1.22,3.77.28.88,4.22,5.56,6,7.65a9.31,9.31,0,0,0,3.93,4.8l3,1.88Z"/><path class="cls-17" d="M359.49,252s-.71-4.47-2.74-6.15a22.37,22.37,0,0,1-2.72-3c-1.43-1.77-3.07-3.77-4.68-4.35a18.62,18.62,0,0,1-3-1.45,16.7,16.7,0,0,0-2.14-1.09,4.75,4.75,0,0,0,.19.59,23.33,23.33,0,0,0,3.66,6.87,4.24,4.24,0,0,1-.18-2.78,1.2,1.2,0,0,1,.7-.68c.68-.23,1.35.32,2.14,1a4.32,4.32,0,0,0,1.12.77c1.73.21,1.82,4.6,1.83,5.09a1.23,1.23,0,0,1-.53,1.11c-.76.49-1.72-.16-3.48-1.44-.54-.39-1.06-.77-1.45-1-1.87-1.06-3.84-5-5.07-8.26-.31-.86-.56-1.82.05-2.43.77-.77,2-.08,3.88,1a19,19,0,0,0,2.76,1.37c1.93.66,3.59,2.73,5.2,4.72a21.93,21.93,0,0,0,2.56,2.83c2.39,2,3.14,6.75,3.17,7a.82.82,0,0,1-.55.89.63.63,0,0,1-.45,0A.61.61,0,0,1,359.49,252Zm-9.6-9.89c-.22-.18-.55-.45-.79-.61a6.6,6.6,0,0,0,.64,2.19.8.8,0,0,1-.14.87c.3.2.61.43.94.67a18.66,18.66,0,0,0,1.82,1.22c-.08-1.65-.46-3.15-.75-3.31A4,4,0,0,1,349.89,242.1Z"/><path class="cls-17" d="M332.28,224.68a.67.67,0,0,0,.78-.18s1.19-1.15,3.44.13c1.62.91,4.69.92,7.91.94a29.84,29.84,0,0,1,6.75.51c3.49,1,4.76,6.41,4.77,6.47a.6.6,0,0,0,.81.44.81.81,0,0,0,.5-.92c-.06-.26-1.44-6.26-5.62-7.4a30.6,30.6,0,0,0-7.06-.55c-2.88,0-5.86,0-7.28-.76l-.28-.15c-3.05-1.54-4.76.24-4.83.32a.77.77,0,0,0-.06,1A.52.52,0,0,0,332.28,224.68Z"/><path class="cls-17" d="M368.5,245.59c.15.08.24.11.24.12a.72.72,0,0,0,.9-.44.66.66,0,0,0-.31-.93,5.85,5.85,0,0,1-3.53-6.15l.25-1.68c.61-3.94,1-6.54-2.47-8a36.87,36.87,0,0,0-8.84-2,.78.78,0,0,0-.79.66.64.64,0,0,0,.53.78,36.38,36.38,0,0,1,8.5,1.92c2.59,1.08,2.34,2.68,1.75,6.55-.08.53-.17,1.1-.25,1.7A7.14,7.14,0,0,0,368.5,245.59Z"/><text class="cls-18" transform="translate(477.56 394.2)"><tspan class="cls-19">T</tspan><tspan x="51.43" y="0">i</tspan><tspan class="cls-20" x="68.53" y="0">l</tspan><tspan class="cls-21" x="86.27" y="0">l</tspan><tspan class="cls-22" x="101.49" y="0">y</tspan><tspan x="146.1" y="0">k</tspan><tspan class="cls-23" x="190.07" y="0">k</tspan><tspan x="228.06" y="0">e! Du k</tspan><tspan class="cls-24" x="472.08" y="0">l</tspan><tspan class="cls-25" x="488.14" y="0">a</tspan><tspan class="cls-26" x="534.63" y="0">r</tspan><tspan class="cls-27" x="564.86" y="0">ede den! </tspan></text><path class="cls-5" d="M1649.94,571.09l-5.9,2.46c.34.8.67,1.6,1,2.41C1646.68,574.27,1648.31,572.64,1649.94,571.09Z"/><g class="cls-28"><path class="cls-1" d="M1607.36,230.9c-36.45,10.49-45.51.53-84.89,24.86s-77.21,77.68-89,135.66-43.93,117.27-82.26,159.87c-31.85,18.21-44.76,64.14-44.36,103s-12.91,79.73-33.5,96-37.09,17.73-19.82,30.67,45.9,8.67,72.6,8.14,45.24,20.31,66.17,17.88,47.94-5.56,70.51,8,49,32.44,79.07,26.37,71-10.93,103-7.15,61.8,4.39,44.45-31.56-.91-212.29-.81-260.52,6.6-70.34,2.46-109.81-9.94-93.4-9.63-124.81-6.93-38.3-21.6-51.55S1622.16,243.48,1607.36,230.9Z"/></g><path class="cls-29" d="M1679.39,409.3c1.87-15.21-.08-37.32-8.15-52.14-7.15-33-10.9-102.9-56.84-109.47-52.13-7.46-107.69,30.37-125.86,81.23-12.4,10.19-21.78,30.07-25.76,42.79-6,19.08-13.06,50.19,2.34,63,5.26,4.39,9.48-4.16,13.09-5.16,2.14,6.19,3.81,19.09,12.4,20.17s13.75-11.42,17.14-17.28c-.12,5.83-3.23,22.14,4.45,24.79s14.32-12.44,17.41-17c.43,5.22-2.06,20.94,5.58,22.71,8.87,2.05,15.62-15.91,18.65-21.82,6.88.95,13.64,2.09,20.47,3.26,0,6.22-1.3,20.33,5.6,23.35,4.85,2.12,8.4-5.48,10.86-7.93.92,2.91,1,8.55,5,9.48,5.11,1.21,9.27-6,11.63-9.5,1.1,3.14.59,9.2,5.21,10,6.86,1.24,12.29-8.83,14.6-14,1.82,4.81,3.87,12.24,10,12.8,4.36.39,5.66-3.35,6.94-6.6,2.34,1.53,2.95,6.87,7.6,4.53C1669.82,457.51,1676.88,429.79,1679.39,409.3Z"/><path class="cls-1" d="M1570.11,681.8c-4.29-37.53-6-18.73,14.43-46.13,10.75-14.4,24.87-22.95,37.87-35.73,8.32,6.83,18.8,15.5,27.18,21.26s25.11,26.62,33.48,14.53-5.2-24.24-.2-39.89S1696.94,556,1693.73,538s-15.14-25.39-26.47-37.73c-.23.21,0,.31-.34.43-7.21-6.38-18.76-12.1-26.18-17.22-26.57-18.29-33.33-7.05-54,3.55s-23.24,8.94-42.92,7.55c-8.53-9.9-17.66-21.41-26.59-30.55s-11.9-12.53-25.4-10.7c-5.53.75-14.67,5.07-20.77,6.52-15.78-3.41-29.55-13-45.77-6.14s-27,28.19-32.54,42.26-9,30.81-14.81,40.34-14.65,8.72-9.83,17.65,16.72,6.16,25.24,7.1,17.32-1.18,25.83-1.32c2,3.8,4.15,3.52,5.92,7.91,11.29,28.05,9.31,52.29-3.67,81.55s-34.29,38.84-49.81,74.35-29.88,46.6-26.07,103.21S1579.14,960,1623.47,926,1574.41,719.34,1570.11,681.8Z"/><path class="cls-30" d="M1386.75,558.88c-4.62,30.67-4.41,89.73,5.93,113.29s15.82,33.92,32.19,40,16.51-5,27.91-17.08,27.46-45.51,33.56-63.1,17.3-42.4,20.59-55.51.08-8.33,2.19-18.13c-8.45,1.25-16.51,0-24.83.65-2.58,21-3.29,46.72-12.7,65s-21.36,28.4-30.69,46c-7.67-12.43-11.34-6.8-13-25.45s-3.15-57.89-6.32-77.79S1398.13,554.11,1386.75,558.88Z"/><path class="cls-30" d="M1649.65,596.33c-8.69,9.44-4.93,3-17.61,15.39s-44.18,69.45-68,69.59-34.78-40.67-40.88-53.32-5.14-9.38-2.16-20,18.94-22.87,19.69-34.23-12.65-6.12-17.39-1.31-10.64,11.78-16.61,15.82c-3.21,10.15-5.92,20.33-9.24,30.29a139.53,139.53,0,0,1,4.1,17.1,35.32,35.32,0,0,0,2.46,11.69,1,1,0,0,1,0-.16,73,73,0,0,0,6.83,17.18c9.28,16.84,27.28,79.94,54,76.62s52.8-38.6,67.67-59.88,27.28-42.27,43.2-62.14C1671.93,603.76,1663.19,600.35,1649.65,596.33Z"/><path class="cls-30" d="M1583.2,504.78c-10-14.26-9.66-36.66,1.76-51.74,7.4.64,14.33-.54,20-5.75,8.79-8.06,13.18-9.56,15.46-20.49.11-.52.22-1.05.32-1.62,5.78-33,8.51-70.93,11.66-105,.23-2.56.47-5.11.72-7.63,1.21-12.61-4.34-18.86-15.56-20.45-18.12-2.57-43.15-4.88-61.54-5.72-11.38-.52-17.93,5.68-19.37,17.49-.64,5.18-1.52,10.83-2.56,16.8-4.61,26.7-12.09,59.82-12.62,85.65a101.22,101.22,0,0,0,.84,16.48c1.48,10.1,12.6,18.95,23,21.45,2.76,8.59,2,17-4,22.87-14.69,14.43-17,8.17-30.72,16.44-4.83,11.76-9.65,24.18-12.4,37.11,38.36,15.06,59.58,23.31,101.85,17.6C1595.91,524.16,1592.51,518,1583.2,504.78Z"/><path d="M1595.65,406.59c-5.87,1.31-22.71-2.62-27.84-2.65s-5-.06-7.3-.41c-4.9-.72-8.4-1.78-11.49-3.8a32.29,32.29,0,0,1-5.42-4.23c2.05,7,4.11,14.38,5.77,19.1,2.68,7.64,3,10.75,10.37,13.94s14.11,4.65,21.82,2.94,14.56-8,17.26-13.18a92.07,92.07,0,0,0,6.39-16.07c.14-.49.26-.94.38-1.38C1604,403.56,1601.28,405.32,1595.65,406.59Z"/><path class="cls-1" d="M1596.12,401.8c-6.52,1.05-20.61-5.12-25.94-4.35s-5.35.79-7.81.77a25.11,25.11,0,0,1-12.08-2.9c-3.9-2.08-7-4.34-8.83-7,.7,2.27,1.42,4.7,2.14,7.18a32.29,32.29,0,0,0,5.42,4.23c3.09,2,6.59,3.08,11.49,3.8,2.35.35,2.17.38,7.3.41s22,4,27.84,2.65c5.63-1.27,8.39-3,9.94-5.74.44-1.66.74-3,1.09-4.18C1604.77,399.18,1601.9,400.87,1596.12,401.8Z"/><path class="cls-31" d="M1539.92,383.54c2.37.74,1.23.74,4.55,1.68s5.94,4.7,10.91,5.91,12.53-1.07,18.07-1.73,7.43,1.82,11,4.81,9.78,2.18,14.06,1.3a28.6,28.6,0,0,0,10-3.66,29.61,29.61,0,0,0-1.76,4.52l.17-.06a26,26,0,0,0,2.58-5.12c-5.66,1.84-10.38,4.29-16.79,4.49s-7.13-3.31-12.43-5.87-10.55-.25-17.09.69-18.26-4.7-23.43-8.36l-.34-.23a10.22,10.22,0,0,0,1.72,6c0-.11,0-.22.07-.33C1540.78,386.16,1540.34,384.79,1539.92,383.54Z"/><path class="cls-31" d="M1541.9,386.44c4,3.88,15,9.46,21.06,9.1s10.23-2.13,15.19,0,8.06,4.69,13.66,4.67c5.44,0,10.32-2,15-3.83a29.61,29.61,0,0,1,1.76-4.52,28.6,28.6,0,0,1-10,3.66c-4.28.88-10.51,1.69-14.06-1.3s-5.44-5.47-11-4.81-13.09,2.93-18.07,1.73-7.59-5-10.91-5.91-2.18-.94-4.55-1.68c.42,1.25.86,2.62,1.31,4a12.05,12.05,0,0,1,.42-1.39Z"/><path class="cls-31" d="M1606.68,396.67l.26-.36-.17.06Z"/><path class="cls-31" d="M1541.23,387.59c0,.11,0,.22-.07.33s.2.26.3.4C1541.38,388.07,1541.31,387.83,1541.23,387.59Z"/><path class="cls-31" d="M1591.81,400.2c-5.6,0-8.7-2.56-13.66-4.67s-9.15-.36-15.19,0-17-5.22-21.06-9.1l-.25-.24a12.05,12.05,0,0,0-.42,1.39c.08.24.15.48.23.73,1.87,2.66,4.93,4.92,8.83,7a25.11,25.11,0,0,0,12.08,2.9c2.46,0,2.48,0,7.81-.77s19.42,5.4,25.94,4.35c5.78-.93,8.65-2.62,10.56-5.13l.09-.3C1602.13,398.21,1597.25,400.18,1591.81,400.2Z"/><path class="cls-32" d="M1570.27,426.39c8.22,1.5,12.72.41,17-1.72-2-4.84-7.42-8.35-16.76-9.31-8.33-.86-12.27,1.35-13.75,5C1559.44,423,1563,425.08,1570.27,426.39Z"/><path class="cls-31" d="M1598.81,418.27c-4.91,2.28-8.16,4.68-11.58,6.4a13.54,13.54,0,0,1,.45,8.43C1594.31,430.48,1598.05,425.32,1598.81,418.27Z"/><path class="cls-31" d="M1573,428c-8.52-3.22-11.45-2.81-15,3.82a46.43,46.43,0,0,0,13.08,3,39.71,39.71,0,0,0,14.11-.89C1583.17,429.75,1580.53,430.84,1573,428Z"/><path class="cls-31" d="M1556.72,420.33c-2.85-2.8-4.75-6.24-8.91-10.13-4.44,9.92.23,17.15,9.23,21.18C1556,427.35,1555.48,423.35,1556.72,420.33Z"/><path class="cls-31" d="M1587.23,424.67c-4.24,2.13-8.74,3.22-17,1.72-7.25-1.31-10.83-3.4-13.55-6.06-1.24,3-.77,7,.32,11.05l1,.43c3.54-6.63,6.47-7,15-3.82,7.52,2.85,10.16,1.76,12.2,5.94a24.66,24.66,0,0,0,2.47-.83A13.54,13.54,0,0,0,1587.23,424.67Z"/><path class="cls-33" d="M1579.45,331c4.52,8.7,5.3,16.34.41,23.61s-6.76,5.53-10.89,13.4c-3.87,7.39,8.65,10.51,15.65,8.79a11.48,11.48,0,0,0,1.29-.39"/><path d="M1605.4,319.9c.17,0,.53.08.64,0,6.88-6.18,17.19,1.62,20.06,4.39s4.23,2.33,1.13-.84-14.75-11.26-22.19-4.59c-.24.21-.49.52-.21.79S1605.23,319.9,1605.4,319.9Z"/><path d="M1558.09,317.37c-.16,0-.49.06-.6-.05-6.46-6.37-16.13,1.07-18.83,3.73s-4,2.19-1.05-.87,13.82-10.74,20.82-3.86c.22.22.46.53.2.79S1558.25,317.38,1558.09,317.37Z"/><path class="cls-34" d="M1561.19,474.58c3.73,2.63,5.3,25.08.85,31.39s-26,13.89-30.48,10.72-4.65-26-.2-32.3S1557.25,471.81,1561.19,474.58Z"/><path class="cls-35" d="M1603.82,503.18l-42.15-30.83-1.35,1.84a3,3,0,0,1,.87.39c3.73,2.63,5.3,25.08.85,31.4s-26,13.88-30.48,10.71a4.27,4.27,0,0,1-1.21-1.53l-.77,1.06,42.15,30.83Z"/><path class="cls-36" d="M1531.56,516.69c4.5,3.17,26-4.4,30.48-10.71s2.88-28.77-.85-31.4a3,3,0,0,0-.87-.39l-30,41A4.27,4.27,0,0,0,1531.56,516.69Z"/><path class="cls-37" d="M1471.93,665.48c-.17.26-.14.2,0,0-1.58-.84-2.54-2-1.21-4.09,17.4-27.51,16.19-55,25.77-84.46.74-2.26,2.08-2.71,3.86-2.15.27-.19.17-.17,0,0,1.78.56,2.69,1.6,2,3.91-9.58,30.09-8.48,57.62-26.27,85.68C1474.67,666.52,1473.5,666.32,1471.93,665.48Z"/><path class="cls-38" d="M1476.86,668.15c-.13.28-.11.22,0,0-1.73-.79-2.54-1.94-1.48-4.2,13.78-29.48,16.88-54.56,26.14-84.5.71-2.29,2-2.7,3.8-2.17.27-.2.18-.17,0,0,1.79.53,2.73,1.56,2,3.88-9.16,30.32-12.42,55.66-26.42,85.38C1479.85,668.82,1478.58,669,1476.86,668.15Z"/><path class="cls-37" d="M1482.48,670.45c-.11.26-.08.2,0,0-1.78-.66-2.61-1.8-1.73-4,11.37-29,18.16-55.08,26.49-84.82.64-2.28,2-2.72,3.76-2.23.26-.19.17-.16,0,0,1.8.5,2.78,1.59,2.14,3.89-8.3,29.88-15.15,56.2-26.68,85.3C1485.57,670.79,1484.26,671.11,1482.48,670.45Z"/><path class="cls-38" d="M1487.05,672.47h0a2.82,2.82,0,0,1-2-4c9.07-28,19.23-56.74,26.77-85.18a2.84,2.84,0,0,1,3.77-2.22h0a2.92,2.92,0,0,1,2.21,3.87c-7.67,28.5-17.69,57.39-26.91,85.42A2.83,2.83,0,0,1,1487.05,672.47Z"/><path class="cls-37" d="M1491.36,675.35c0,.22,0,.21,0,0-1.68-.41-2.73-1.38-2.25-3.36,6.3-25.89,16-62.4,29.43-84.75,1-1.72,2.39-2.33,4.1-1.53.26-.14.22-.15,0,0a2.61,2.61,0,0,1,1.2,4c-13,22.26-22.35,58.07-28.84,83.7C1494.5,675.41,1493.05,675.75,1491.36,675.35Z"/><path class="cls-37" d="M1542.93,582.83c-18.18,3.24-36.41-9.82-43.31-36.45s4.32-50.3,21.93-52.92,38,11.44,45.22,37.47S1561.11,579.6,1542.93,582.83Z"/><path class="cls-37" d="M1455.06,584.06c1-2,.94-11.88-2.87-13.09a6.44,6.44,0,0,0,.19-1.05,10.66,10.66,0,0,0,.11-1.69c0-.6-.13-1.18-.11-1.78a13.78,13.78,0,0,0-.59-3.65,13.48,13.48,0,0,0-1.13-3.07l.87-.63c1.32-1,2.81-1.7,4.17-2.62.79-.55,1.54-1.15,2.35-1.67a24.79,24.79,0,0,0,2.18-1.27,4,4,0,0,1,.59-.39,4.46,4.46,0,0,1,.35.5,14.23,14.23,0,0,0,.8,1.22,18.34,18.34,0,0,1,1.61,2.87,12.92,12.92,0,0,1,.66,3.08c.08.46.19,1,.24,1.49-3.6.67-5.56,6.39-5.83,9s-1.44,9.78.86,11.83,8.66-5.15,9.67-7.12c1.13-2.2,1-13.08-3.44-13.71h-.08a10,10,0,0,0-.2-1.31,25.45,25.45,0,0,0-.65-3.24,19.44,19.44,0,0,0-1.59-3c-.29-.5-.67-.93-1-1.43a6.27,6.27,0,0,0-.42-.63c.17-.08.34-.16.5-.25.83-.46,1.65-.94,2.48-1.41,1.47-.83,3-1.53,4.45-2.37a20.33,20.33,0,0,1,2.27-1.05,15.57,15.57,0,0,1,1.87-.82,41.34,41.34,0,0,1,4.69-1.06,16.74,16.74,0,0,0,5.37-2,1.16,1.16,0,0,0-1.14-2,15.71,15.71,0,0,1-5.43,1.9,27.47,27.47,0,0,0-4.38,1.08c-.71.24-1.34.59-2,.89a.42.42,0,0,0,0-.15,17.4,17.4,0,0,0-1.88-3.14,11.31,11.31,0,0,0-1.26-1.05,5.15,5.15,0,0,0-1.28-.89c-.48-.2-.93-.47-1.42-.67a5.92,5.92,0,0,0-1.54-.35c-.58-.08-1.16-.12-1.74-.15-.33,0-.68,0-1,.06-1.06-3.16-7.65-4.37-10.43-4.37s-10.27-.36-11.92,1.71,6.93,6.73,9.14,7.4c2.38.72,12.75-.24,13.33-3.62l.29,0a12.16,12.16,0,0,1,1.6.07,9.42,9.42,0,0,1,1.49.23,12.22,12.22,0,0,1,1.43.64,4.66,4.66,0,0,1,1.23.78,12.73,12.73,0,0,1,1.14.92,6.41,6.41,0,0,1,.92,1.44c.3.53.6,1,.89,1.58l0,0a14.69,14.69,0,0,0-1.32.65c-1.47.84-3,1.54-4.45,2.38l-2.48,1.4a16.94,16.94,0,0,0-2.2,1.14,23.61,23.61,0,0,1-2.1,1.29c-.58.38-1.13.79-1.69,1.2a7.17,7.17,0,0,0-1.37-1.84,15,15,0,0,0-2.89-1.9,7.65,7.65,0,0,0-3.22-.83c-.16,0-.32,0-.48-.07-.69-2.74-6.14-3.76-8.42-3.75s-8.29-.24-9.64,1.51,5.56,5.6,7.34,6.15,9.5-.21,10.64-2.73l.14,0a7.6,7.6,0,0,1,3,.7,14.83,14.83,0,0,1,2.59,1.66,6.38,6.38,0,0,1,1.3,1.74c-1.28.84-2.63,1.56-3.87,2.43-1.45,1-2.83,2.08-4.37,3a1.37,1.37,0,0,0-.23.17c-.54.38-1,.81-1.54,1.22l-.06,0-.5-.88c-.31-.56-.57-1.17-.91-1.71-.65-1-1.85-1.37-2.92-1.8a13,13,0,0,1-1.62-.57,4,4,0,0,0-.5-.34,2,2,0,0,0-.69-.12,8.77,8.77,0,0,0-.89,0,10.65,10.65,0,0,0-5.68-1.64c-1.75,0-6.47-.18-7.52,1.18s4.35,4.37,5.74,4.79c1.55.48,8.54-.28,8.42-2.69a2.43,2.43,0,0,0-.08-.47h.07c.34,0,.61.34,1,.47.49.18,1,.32,1.49.51s1,.37,1.42.59a2.23,2.23,0,0,1,1,1.11c.38.76.79,1.5,1.21,2.23-.3.23-.58.48-.88.7s-.58.32-.84.53a9.84,9.84,0,0,0-1.22,0,14.57,14.57,0,0,0-2.56.32,7.22,7.22,0,0,0-2.26.78l-.11,0c-1.8-.74-4.94,0-6.29.64-1.6.71-6,2.43-6.41,4.1s5.73,2.25,7.17,2.08c1.62-.19,7.72-3.68,6.64-5.85a1.88,1.88,0,0,0-.12-.18,2.58,2.58,0,0,1,.48-.21l1-.24a12.27,12.27,0,0,1,2.08-.3l-1.24.93a1.16,1.16,0,0,0,0,1.64,1.2,1.2,0,0,0,1.65,0c.3-.23.63-.44.93-.68s.48-.34.74-.54a4.1,4.1,0,0,1,0,1.6,10.34,10.34,0,0,1-.44,2,5,5,0,0,0-.29.9c0,.27,0,.55-.11.81a6.32,6.32,0,0,1-.27.84,8.63,8.63,0,0,0-.2.88,15.68,15.68,0,0,1-.72,1.87c-.19.57-.48,1.08-.7,1.64a10.94,10.94,0,0,1-.61,1.24c-3.07-.69-6.3,3.74-7.22,5.82s-3.66,7.5-2.43,9.65,8-2.19,9.33-3.54,3.89-9.41,1.35-11.46c.12-.26.26-.48.4-.72s.24-.58.38-.87a18.15,18.15,0,0,0,1.42-3.8,17.34,17.34,0,0,0,.47-1.71c.09-.72.39-1.34.54-2,.27-1.2.61-2.73,0-3.89.3-.2.62-.34.91-.57s.56-.49.86-.7.65-.38,1-.62a14.44,14.44,0,0,1,1.71-1.32l.08-.06c.78-.46,1.52-1,2.24-1.47a12.62,12.62,0,0,1,1,2.78c.15.62.25,1.25.39,1.88a8.4,8.4,0,0,1,.13,1.74c0,.54.12,1.07.13,1.61a8.65,8.65,0,0,1-.14,1.6,8,8,0,0,1-.17.82c-3.75.21-5.78,6.11-6.06,8.7s-1.39,9.4.81,11.37S1454.09,586,1455.06,584.06Z"/><path class="cls-37" d="M1590.75,616.24c.08-1.88,4-8.59,7-7.73a7,7,0,0,1,.27-.81,10.35,10.35,0,0,1,.58-1.21,13.27,13.27,0,0,0,.77-1.18,11,11,0,0,1,1.82-2.25,10.15,10.15,0,0,1,2-1.6c-.12-.28-.24-.55-.35-.82-.54-1.25-1.28-2.42-1.85-3.65-.34-.73-.62-1.48-1-2.19s-.76-1.19-1-1.84a3.65,3.65,0,0,0-.25-.53,3.3,3.3,0,0,0-.43.19c-.34.19-.68.32-1,.48a14.64,14.64,0,0,0-2.21,1.26,9,9,0,0,0-1.65,1.83c-.24.28-.51.59-.75.92,2.22,2,1.35,6.85.54,8.74s-2.8,7.36-5.17,7.75-4-7.37-3.9-9.17c.08-2,4.41-9.42,7.68-7.91l.06,0a6.93,6.93,0,0,1,.64-.81,19.88,19.88,0,0,1,1.71-2,14,14,0,0,1,2.26-1.37c.4-.22.82-.35,1.21-.57a3.59,3.59,0,0,1,.53-.24c-.08-.13-.17-.26-.24-.4-.39-.68-.78-1.37-1.16-2.06-.69-1.23-1.46-2.38-2.14-3.61a18.48,18.48,0,0,0-1.16-1.72,13.43,13.43,0,0,0-1-1.4,37.25,37.25,0,0,0-2.81-2.81,15.09,15.09,0,0,1-2.91-3.77.9.9,0,1,1,1.57-.89,13.83,13.83,0,0,0,3,3.71,24.31,24.31,0,0,1,2.59,2.68c.4.49.7,1,1.06,1.51l.09-.08a12.8,12.8,0,0,1,2.51-1.32,9,9,0,0,1,1.27-.17,3.85,3.85,0,0,1,1.22,0c.41.07.83.09,1.24.17a4.81,4.81,0,0,1,1.2.44c.43.21.84.43,1.25.67a7.76,7.76,0,0,1,.68.49c2-1.7,6.94.38,8.86,1.61s7.2,4.31,7.54,6.47-7.38,1.55-9.16,1-8.67-5.81-7.76-8.39l-.2-.15a9.8,9.8,0,0,0-1.13-.66,6.77,6.77,0,0,0-1.1-.5,8.86,8.86,0,0,0-1.24-.19,3.42,3.42,0,0,0-1.15,0,10.74,10.74,0,0,0-1.14.13,5,5,0,0,0-1.19.58c-.41.24-.82.46-1.22.7h0c.23.34.46.68.66,1,.68,1.23,1.45,2.38,2.14,3.61.38.69.76,1.38,1.16,2.06a15.88,15.88,0,0,1,1.07,1.76c.25.65.63,1.2.94,1.82s.48,1,.7,1.57a5.49,5.49,0,0,1,1.66-.66,11.78,11.78,0,0,1,2.72,0,6.24,6.24,0,0,1,2.54.86l.35.16c1.54-1.58,5.68.14,7.25,1.16s5.79,3.51,6,5.3-6,1.39-7.43,1-6.45-4.35-6.26-6.59l-.1,0a6.18,6.18,0,0,0-2.38-.87,10.79,10.79,0,0,0-2.41,0,4.53,4.53,0,0,0-1.57.62c.55,1.14,1.2,2.24,1.72,3.39.6,1.34,1.13,2.68,1.85,4a1.28,1.28,0,0,1,.09.22c.23.5.4,1,.59,1.52l0,.06.68-.39c.44-.25.85-.55,1.29-.77a4.07,4.07,0,0,1,2.71.06,10.7,10.7,0,0,0,1.33.32,3.85,3.85,0,0,1,.48,0,1.7,1.7,0,0,1,.52.22c.21.12.41.25.61.39a8.59,8.59,0,0,1,4.55,1.39c1.19.78,4.52,2.74,4.71,4.15s-4.68,1.07-5.8.75-5.77-4-4.75-5.59a1.31,1.31,0,0,1,.24-.28l-.06,0c-.25-.12-.55,0-.83-.1s-.81-.22-1.22-.31-.81-.17-1.21-.22a1.57,1.57,0,0,0-1.15.3c-.56.35-1.13.67-1.7,1,.11.29.21.58.33.86s.28.48.38.74c.29.17.57.37.83.56a13.3,13.3,0,0,1,1.64,1.36,6.31,6.31,0,0,1,1.24,1.53l.06.09c1.53.29,3.38,2.21,4.08,3.22.82,1.2,3.18,4.33,2.82,5.66s-4.81-1-5.74-1.74-3.88-5.95-2.3-7l.15-.08a2,2,0,0,0-.25-.35c-.19-.22-.4-.42-.6-.62a10.1,10.1,0,0,0-1.32-1.13c.17.39.33.77.5,1.19a.9.9,0,0,1-.64,1.13,1,1,0,0,1-1.13-.72c-.12-.3-.27-.58-.37-.88s-.2-.45-.31-.7a3.1,3.1,0,0,0-.63,1.1,8.37,8.37,0,0,0-.47,1.57,3.83,3.83,0,0,1-.15.75c-.07.2-.17.39-.24.6a4,4,0,0,0-.13.69c-.05.25-.14.46-.21.7a12.33,12.33,0,0,0-.23,1.6c-.09.48-.08,1-.15,1.44a10.37,10.37,0,0,0-.06,1.12c2.37.89,2.88,5.37,2.7,7.21s-.38,6.78-2.06,7.71-4.68-5.07-5-6.57,1-8.19,3.51-8.48c0-.23,0-.44,0-.67s.06-.51.08-.77a15.19,15.19,0,0,1,.49-3.24c.14-.46.16-.94.34-1.38s.25-1.1.42-1.65a4.76,4.76,0,0,1,1.48-2.69c-.12-.27-.29-.51-.4-.79s-.2-.59-.32-.87-.3-.54-.42-.84a12.6,12.6,0,0,0-.66-1.67.26.26,0,0,1,0-.08c-.36-.66-.68-1.32-1-2a9.88,9.88,0,0,0-1.76,1.47c-.34.37-.65.75-1,1.12a6.29,6.29,0,0,0-.76,1.14c-.22.37-.5.68-.72,1a7.59,7.59,0,0,0-.52,1.16c-.08.21-.14.43-.2.64,2.49,1.81,1.61,6.77.8,8.67s-2.69,7.08-5,7.46S1590.69,618,1590.75,616.24Z"/><path class="cls-36" d="M1514.5,461.81c4.26,0,17.43,17.55,17.39,25.28s-12.51,26.24-17.65,26.21-17.43-18.66-17.39-26.39S1510,461.79,1514.5,461.81Z"/><path class="cls-36" d="M1561.47,475.4c3.74,2.63,5.3,25.07.85,31.39s-26,13.89-30.47,10.72-4.66-26-.21-32.31S1557.53,472.63,1561.47,475.4Z"/><path class="cls-36" d="M1544.7,566.88c4.57.12,18.2,22.65,18,32.47s-14.09,33.1-19.59,33-18.17-24.07-17.92-33.89S1539.89,566.76,1544.7,566.88Z"/><path class="cls-36" d="M1608.94,542.39c.72,7.26-21,25.06-28,22.93s-23.66-15.53-24.3-22.6,15-21.6,22.22-22S1608.18,534.73,1608.94,542.39Z"/><path class="cls-39" d="M1489.78,539.55c12.38-7.85,25.2-2.13,31.31,10.5s4.58,26.14-7.92,33.84-24.76,1.83-31.1-10.62S1477.41,547.4,1489.78,539.55Z"/><path class="cls-40" d="M1531.38,536.59c10.34-6.55,21-1.87,26,8.55s3.7,21.61-6.73,28-20.62,1.62-25.85-8.66S1521.05,543.14,1531.38,536.59Z"/><path class="cls-41" d="M1559.89,558.78c10.76-6.81,21.83-2,27,8.84s3.83,22.43-7,29.11-21.44,1.72-26.86-9S1549.14,565.59,1559.89,558.78Z"/><path class="cls-42" d="M1475,486.88c16.89-10.46,32.77-5.41,39.16,8.37S1517,524.7,1500,535s-32.17,5-38.89-8.52S1458.13,497.35,1475,486.88Z"/><path class="cls-41" d="M1545,507.83c9.52-8.46,21.33-5.32,28.35,4.69s7.61,21.83-2,30.18-21,5-28.19-4.83S1535.47,516.29,1545,507.83Z"/><path class="cls-43" d="M1527.59,544.47c-9.65,2.06-18.59-2.11-21-12s4.53-19.43,13.86-21.23,19.37,2.65,22,12.28S1537.24,542.41,1527.59,544.47Z"/><path class="cls-43" d="M1530.86,598.42c-7.16,1.49-13.9-2-15.85-9.86s3.08-15.38,10-16.67A14.24,14.24,0,0,1,1541.59,582C1543.66,589.71,1538,596.94,1530.86,598.42Z"/><path class="cls-35" d="M1497.13,665.31l12.73,4.63,19.06-53.84L1515,611C1507.92,627.62,1502,647.15,1497.13,665.31Z"/><path class="cls-35" d="M1486.53,600.67l-5.11-1.86-19.06,53.84,10.48,3.82C1480.05,638.18,1482.45,619.71,1486.53,600.67Z"/><path class="cls-44" d="M1472.84,656.47l4,1.47c6.57-18.65,10.41-36.38,15.26-55.23l-5.61-2C1482.45,619.71,1480.05,638.18,1472.84,656.47Z"/><path class="cls-45" d="M1476.88,657.94l5.53,2c6.22-18.35,11.26-36.16,16.38-54.82l-6.65-2.42C1487.29,621.56,1483.45,639.29,1476.88,657.94Z"/><path class="cls-44" d="M1482.41,660l4.43,1.61c5.9-18.06,11.87-36.3,17.19-54.52l-5.24-1.91C1493.67,623.79,1488.63,641.6,1482.41,660Z"/><path class="cls-45" d="M1490.47,662.89c4.87-18.16,10.86-37.66,18-54.22L1504,607c-5.32,18.22-11.29,36.46-17.19,54.52Z"/><path class="cls-44" d="M1490.47,662.89l6.66,2.42c4.89-18.16,10.79-37.69,17.87-54.28l-6.5-2.36C1501.33,625.23,1495.34,644.73,1490.47,662.89Z"/><path class="cls-46" d="M1533.79,527.19a10.05,10.05,0,0,1-6.71,10.5,8.74,8.74,0,0,1-6.44-.13,8,8,0,0,1-4.4-4.44,6.17,6.17,0,0,1,.17-5,6.73,6.73,0,0,1,3.82-3.43,5.75,5.75,0,0,1,4.22.08,5.26,5.26,0,0,1,2.89,2.91,4.12,4.12,0,0,1-.11,3.28,4.48,4.48,0,0,1-2.52,2.27,3.84,3.84,0,0,1-2.81-.06,3.51,3.51,0,0,1-1.92-1.94,2.86,2.86,0,0,1,1.76-3.71,2.57,2.57,0,0,1,1.91,0,2.39,2.39,0,0,1,1.3,1.31,1.87,1.87,0,0,1-.06,1.5,2,2,0,0,1-1.15,1,.38.38,0,0,1-.49-.2.35.35,0,0,1,.22-.47,1.25,1.25,0,0,0,.73-.66,1.17,1.17,0,0,0,0-1,1.69,1.69,0,0,0-.91-.91,1.77,1.77,0,0,0-1.32,0,2.15,2.15,0,0,0-1.32,2.78,2.93,2.93,0,0,0,3.75,1.58,3.66,3.66,0,0,0,2.09-1.88,3.35,3.35,0,0,0,.1-2.72,4.54,4.54,0,0,0-2.49-2.51,5,5,0,0,0-3.65-.08,6,6,0,0,0-3.38,3.05,5.47,5.47,0,0,0-.16,4.41,7.26,7.26,0,0,0,4,4,8,8,0,0,0,5.86.13,9.18,9.18,0,0,0,5.66-11.92,11.58,11.58,0,0,0-6.36-6.42,12.71,12.71,0,0,0-9.32-.19.38.38,0,0,1-.49-.21.35.35,0,0,1,.22-.47,13.43,13.43,0,0,1,9.9.21,12.35,12.35,0,0,1,6.77,6.82A9.9,9.9,0,0,1,1533.79,527.19Z"/><path class="cls-46" d="M1531.71,578.25a7.78,7.78,0,0,1,5.73,7.63,6.23,6.23,0,0,1-6.38,6.11,5.07,5.07,0,0,1-5-5.15,4.1,4.1,0,0,1,4.19-4,3.35,3.35,0,0,1,3.28,3.4,2.72,2.72,0,0,1-.84,1.91,2.75,2.75,0,0,1-2,.76,2.24,2.24,0,0,1-2.19-2.29,1.83,1.83,0,0,1,1.88-1.8,1.54,1.54,0,0,1,1.51,1.56.28.28,0,0,1-.29.28.29.29,0,0,1-.28-.29.94.94,0,0,0-.27-.69,1,1,0,0,0-.68-.3,1.3,1.3,0,0,0-1.31,1.26,1.68,1.68,0,0,0,1.65,1.7,2.15,2.15,0,0,0,2.2-2.11,2.77,2.77,0,0,0-2.72-2.83,3.52,3.52,0,0,0-3.61,3.46,4.49,4.49,0,0,0,1.25,3.2,4.55,4.55,0,0,0,3.16,1.38,5.67,5.67,0,0,0,5.8-5.56,7.2,7.2,0,0,0-7-7.32,9,9,0,0,0-9.22,8.84.29.29,0,0,1-.29.28.28.28,0,0,1-.28-.29,9.6,9.6,0,0,1,9.81-9.39A7.74,7.74,0,0,1,1531.71,578.25Z"/><path class="cls-47" d="M1511.24,556.43a14.15,14.15,0,0,1-4.52,16.6,10.32,10.32,0,0,1-8.16,1.78,11.38,11.38,0,0,1-7.19-4.8,9.76,9.76,0,0,1-1.63-6.93,8.83,8.83,0,0,1,3.52-5.92,6.78,6.78,0,0,1,5.35-1.17,7.51,7.51,0,0,1,4.72,3.15,6.44,6.44,0,0,1,1.08,4.58,5.86,5.86,0,0,1-2.32,3.91,4.54,4.54,0,0,1-3.56.77,5,5,0,0,1-3.14-2.09,4.14,4.14,0,0,1,.84-5.69,3,3,0,0,1,2.41-.53,3.4,3.4,0,0,1,2.12,1.42,3,3,0,0,1,.5,2.11,2.68,2.68,0,0,1-1.07,1.79.5.5,0,0,1-.7-.14.52.52,0,0,1,.11-.71,1.65,1.65,0,0,0,.67-1.14,1.87,1.87,0,0,0-.31-1.33,2.36,2.36,0,0,0-1.47-1,2.13,2.13,0,0,0-1.68.36,3.11,3.11,0,0,0-.62,4.26,3.76,3.76,0,0,0,5.31,1,4.85,4.85,0,0,0,1.93-3.25,5.31,5.31,0,0,0-.9-3.8,6.42,6.42,0,0,0-4.07-2.71,5.8,5.8,0,0,0-4.61,1,7.82,7.82,0,0,0-3.12,5.26,8.61,8.61,0,0,0,1.44,6.16,10.33,10.33,0,0,0,6.54,4.36,9.39,9.39,0,0,0,7.42-1.61c5.6-4.08,6.8-12.26,2.68-18.24a16.48,16.48,0,0,0-10.4-7,14.93,14.93,0,0,0-11.8,2.58.5.5,0,0,1-.7-.14.53.53,0,0,1,.11-.72,15.86,15.86,0,0,1,12.54-2.73,17.55,17.55,0,0,1,11,7.38A14.4,14.4,0,0,1,1511.24,556.43Z"/><path class="cls-48" d="M1542.63,546.89c4,.53,7.21,4.52,7.54,9.9a11.68,11.68,0,0,1-1.74,7,7.71,7.71,0,0,1-5,3.67,4.72,4.72,0,0,1-4.31-1.43,7.63,7.63,0,0,1-2.06-5,7.75,7.75,0,0,1,1.14-4.57,5.07,5.07,0,0,1,3.28-2.4,3.1,3.1,0,0,1,2.85.94,5.35,5.35,0,0,1,.6,6.33,3.32,3.32,0,0,1-2.18,1.6c-1.44.27-2.71-1-2.82-2.84a3.5,3.5,0,0,1,.51-2.06,2.27,2.27,0,0,1,1.48-1.08,1.42,1.42,0,0,1,1.31.43,2.29,2.29,0,0,1,.62,1.52.44.44,0,0,1-.3.48c-.18,0-.34-.13-.36-.36a1.45,1.45,0,0,0-.39-1,.9.9,0,0,0-.83-.27,1.56,1.56,0,0,0-1,.75,2.43,2.43,0,0,0-.36,1.43c.08,1.37,1,2.32,2.11,2.12,1.39-.25,2.44-1.9,2.33-3.67a4.23,4.23,0,0,0-1.13-2.74,2.61,2.61,0,0,0-2.36-.79,4.4,4.4,0,0,0-2.83,2.08,6.64,6.64,0,0,0-1,3.94,6.84,6.84,0,0,0,1.83,4.43,4.2,4.2,0,0,0,3.83,1.27,7,7,0,0,0,4.55-3.33,10.66,10.66,0,0,0,1.58-6.33c-.36-5.88-4.41-10-9-9.12a11.2,11.2,0,0,0-7.24,5.31,17,17,0,0,0-2.51,10.07.46.46,0,0,1-.31.48c-.18,0-.34-.13-.35-.36a18,18,0,0,1,2.67-10.7,11.89,11.89,0,0,1,7.69-5.64A7.16,7.16,0,0,1,1542.63,546.89Z"/><path class="cls-49" d="M1563.72,565.54c4.32-3.27,11.15-2.44,16.55,2.43a15.91,15.91,0,0,1,4.93,8.33,10.36,10.36,0,0,1-1.29,8.24,6.32,6.32,0,0,1-5.46,2.69,11,11,0,0,1-9.92-8.34,6.86,6.86,0,0,1,.84-5.41,4.19,4.19,0,0,1,3.61-1.77,6.87,6.87,0,0,1,4.41,1.89,7,7,0,0,1,2.16,3.64,4.51,4.51,0,0,1-.57,3.6c-1.12,1.61-3.53,1.57-5.38-.08a4.75,4.75,0,0,1-1.45-2.47,3,3,0,0,1,.38-2.43,1.91,1.91,0,0,1,1.66-.82,3.19,3.19,0,0,1,2,.87.61.61,0,0,1,.16.75.44.44,0,0,1-.68,0,2,2,0,0,0-1.28-.55,1.24,1.24,0,0,0-1.05.52,2.13,2.13,0,0,0-.26,1.69,3.28,3.28,0,0,0,1,1.71c1.37,1.23,3.17,1.26,4,.06,1.08-1.56.52-4.13-1.26-5.74a5.75,5.75,0,0,0-3.67-1.57,3.44,3.44,0,0,0-3,1.47,5.88,5.88,0,0,0-.73,4.67,9,9,0,0,0,2.79,4.71,9.25,9.25,0,0,0,5.93,2.55,5.62,5.62,0,0,0,4.86-2.39,9.41,9.41,0,0,0,1.17-7.49,14.51,14.51,0,0,0-4.48-7.58c-5.91-5.32-13.64-5.43-17.25-.26-2.2,3.16-2.86,7.39-1.86,11.92a23.05,23.05,0,0,0,7.13,12.06.58.58,0,0,1,.16.74c-.14.21-.44.2-.68,0a24.43,24.43,0,0,1-7.57-12.8c-1.06-4.82-.36-9.31,2-12.67A9.55,9.55,0,0,1,1563.72,565.54Z"/><path class="cls-49" d="M1552.15,534c5,3.26,11.57,3.16,15.85-.62a8.92,8.92,0,0,0,3-6.86,10.65,10.65,0,0,0-3.1-7.35,9.42,9.42,0,0,0-6-2.86,8,8,0,0,0-6,1.91,5.88,5.88,0,0,0-2,4.5,7,7,0,0,0,2,4.83,6.24,6.24,0,0,0,4,1.88,5.24,5.24,0,0,0,4-1.25,3.9,3.9,0,0,0,1.32-3,4.63,4.63,0,0,0-1.35-3.21,3.9,3.9,0,0,0-5.3-.42,2.65,2.65,0,0,0-.9,2,3.11,3.11,0,0,0,.92,2.17,2.78,2.78,0,0,0,1.82.87,2.42,2.42,0,0,0,1.81-.58.44.44,0,0,0,0-.64.49.49,0,0,0-.67,0,1.51,1.51,0,0,1-1.15.36,1.79,1.79,0,0,1-1.15-.55,2.18,2.18,0,0,1-.63-1.5,1.84,1.84,0,0,1,.62-1.41,2.93,2.93,0,0,1,4,.31,3.4,3.4,0,0,1,0,4.92,4.38,4.38,0,0,1-3.28,1,5.13,5.13,0,0,1-3.3-1.56,6.07,6.07,0,0,1-1.75-4.16,5,5,0,0,1,1.72-3.88,7,7,0,0,1,5.31-1.7,8.31,8.31,0,0,1,5.33,2.54,9.73,9.73,0,0,1,2.83,6.69,8.15,8.15,0,0,1-2.77,6.24c-4.67,4.12-12.3,3.52-17-1.35a15.47,15.47,0,0,1-4.49-10.64,13,13,0,0,1,4.4-9.92.45.45,0,0,0,0-.65.5.5,0,0,0-.67-.05,13.77,13.77,0,0,0-4.66,10.55,16.4,16.4,0,0,0,4.76,11.3A15.77,15.77,0,0,0,1552.15,534Z"/><path class="cls-49" d="M1489.16,530.83c8.52-.44,15.94-7.57,17.58-17.74a20.4,20.4,0,0,0-2.43-13.45,15.68,15.68,0,0,0-9.85-7.66,10.89,10.89,0,0,0-9.32,2.11,14.46,14.46,0,0,0-5.19,9.19,13.35,13.35,0,0,0,1.59,8.83,10.3,10.3,0,0,0,6.47,5,7.15,7.15,0,0,0,6.14-1.4,9.49,9.49,0,0,0,3.43-6.06,8.89,8.89,0,0,0-1-5.87,6.84,6.84,0,0,0-4.3-3.34c-3-.72-5.87,1.53-6.42,5a6,6,0,0,0,.71,4,4.65,4.65,0,0,0,2.91,2.27,3.33,3.33,0,0,0,2.83-.64,4.41,4.41,0,0,0,1.58-2.79.83.83,0,0,0-.56-1,.7.7,0,0,0-.81.64,2.77,2.77,0,0,1-1,1.76,2.05,2.05,0,0,1-1.78.4,3.17,3.17,0,0,1-2-1.57,4.19,4.19,0,0,1-.5-2.76c.42-2.59,2.57-4.26,4.8-3.74,2.88.68,4.79,4,4.25,7.31a7.94,7.94,0,0,1-2.85,5,5.91,5.91,0,0,1-5.11,1.16,8.89,8.89,0,0,1-5.57-4.33,11.52,11.52,0,0,1-1.37-7.61,12.82,12.82,0,0,1,4.61-8.17,9.64,9.64,0,0,1,8.27-1.87,14.24,14.24,0,0,1,9,7,18.54,18.54,0,0,1,2.21,12.23c-1.79,11.11-11,18.3-20.59,16a22.71,22.71,0,0,1-14.26-11.08,29.44,29.44,0,0,1-3.5-19.46.83.83,0,0,0-.56-1,.7.7,0,0,0-.81.64,31.26,31.26,0,0,0,3.73,20.67,24.12,24.12,0,0,0,15.14,11.78A16.4,16.4,0,0,0,1489.16,530.83Z"/><ellipse class="cls-50" cx="1538.43" cy="365.46" rx="9.08" ry="10.89" transform="translate(1067.19 1874.86) rotate(-86.02)"/><ellipse class="cls-50" cx="1614.36" cy="372.56" rx="9.08" ry="10.89" transform="translate(1130.78 1957.2) rotate(-86.02)"/><path class="cls-29" d="M1551.62,268.07c7.79,4.86-5.35,41-23,67.86-19,28.84-49.3,56.14-56.87,50.65s7.77-43.95,27.23-71.88C1516.34,289.74,1543.89,263.24,1551.62,268.07Z"/><path class="cls-29" d="M1570.1,274.05c4.22,4.39-9.25,24.79-24.24,38.58-16.11,14.81-39.14,26.71-43.13,22s11.2-26.21,27.47-40.37C1544.74,281.57,1565.91,269.69,1570.1,274.05Z"/><path class="cls-29" d="M1608.82,277.91c5-3.39,18.7,6.51,26.17,17.77,8,12.09,11.47,29.63,6.17,32.85s-19.34-8-26.76-20.21C1607.77,297.38,1603.8,281.28,1608.82,277.91Z"/><path class="cls-1" d="M1615.36,323.73c8.32,2.1,12,12.62,10.45,20.63s-9.73,17.41-18.73,15.06-12-14.22-9.52-22.41C1599.8,329.68,1607,321.63,1615.36,323.73Z"/><path class="cls-1" d="M1551.45,319.38c8.76,0,15.19,10.57,15.78,18.81.64,8.86-7.51,19.57-16.83,18.92s-14.09-11.74-13.48-20.16C1537.46,329.43,1542.68,319.41,1551.45,319.38Z"/><path class="cls-51" d="M1612.51,331.65c5.76.33,9.48,7.45,9.51,13.48s-4.21,14-10.44,13.61-9.74-8.6-9.12-14.91C1603,338.2,1606.76,331.32,1612.51,331.65Z"/><path class="cls-51" d="M1551.12,328.83c5.76.26,9.57,7.33,9.67,13.36s-4,14.09-10.28,13.74-9.84-8.48-9.29-14.8C1541.7,335.49,1545.37,328.56,1551.12,328.83Z"/><path d="M1611.84,334.72c5,.29,8.18,6.43,8.2,11.63s-3.63,12.12-9,11.76-8.41-7.43-7.87-12.87C1603.64,340.37,1606.87,334.43,1611.84,334.72Z"/><circle class="cls-1" cx="1613.95" cy="341.29" r="2.32"/><path d="M1552.08,332.4c5,.29,8.18,6.43,8.2,11.63s-3.63,12.12-9,11.75-8.41-7.42-7.87-12.86C1543.88,338.05,1547.11,332.11,1552.08,332.4Z"/><circle class="cls-1" cx="1554.19" cy="338.96" r="2.32"/><path class="cls-30" d="M1627.72,359.38c0,2.93-7.41,5.57-14,6.25s-15.54-.59-15.53-3.76,8.64-5.83,15.53-6.2C1619.93,355.33,1627.67,356.46,1627.72,359.38Z"/><path class="cls-30" d="M1560.76,361.16c-1.17,4.24-9.3,5.46-15.75,4.15s-14.4-6.27-13.07-10.85,10.57-5.4,17.22-3.54C1555.11,352.59,1561.93,356.92,1560.76,361.16Z"/></svg>