<svg xmlns="http://www.w3.org/2000/svg" width="530" height="415" viewBox="0 0 530 415"><defs><style>.cls-1{opacity:0.7;}.cls-2{fill:#fff;}.cls-3{fill:#684121;}.cls-4{fill:#e8c6a7;}.cls-5{fill:#5f6060;}.cls-6{fill:#7b7c7c;}.cls-7{fill:#001300;}.cls-8{fill:#212121;}.cls-9{fill:#006837;}.cls-10{fill:#04542c;}.cls-11{fill:#39b54a;}.cls-12{fill:#bf0a00;}.cls-13{fill:#ffbdee;}.cls-14,.cls-16{fill:none;}.cls-14{stroke:#000;stroke-linecap:round;stroke-miterlimit:10;}.cls-15{fill:#7eba28;}.cls-17{fill:#438031;}.cls-18{fill:#b1e055;}.cls-19{fill:#a6cc4a;}.cls-20{fill:#f28945;}.cls-21{fill:#ed6f33;}.cls-22{fill:#f4a8ba;}.cls-23{fill:#f28caa;}.cls-24{fill:#da3e8f;}.cls-25{fill:#ffd629;}.cls-26{fill:#f7f9d7;}.cls-27{fill:#e2e1cf;}.cls-28{fill:#ff0;}.cls-29{fill:#e97804;}.cls-30{fill:#e52320;}.cls-31{fill:#e84b94;}.cls-32{fill:#754c24;}.cls-33{fill:#c40d08;}.cls-34{fill:#b55b5b;}.cls-35{fill:#aae2ff;}.cls-36{fill:#f777f4;opacity:0.3;}.cls-37{fill:#ddb38c;}.cls-38{fill:#e2dedc;}.cls-39{fill:#ccc6c2;}.cls-40{fill:#8e6854;}.cls-41{fill:#606060;}.cls-42{fill:#6d5e48;}.cls-43{fill:#7a7978;}.cls-44{fill:#2c2a2a;}.cls-45{fill:#665a48;}.cls-46{fill:#5b5b5b;}.cls-47{fill:#424242;}.cls-48{fill:#2d2d2d;}.cls-49{fill:#727171;}.cls-50{fill:#a04582;}.cls-51{fill:#c455a4;}</style></defs><g id="Layer_2" data-name="Layer 2"><g class="cls-1"><path class="cls-2" d="M103,46C90.27,63.92,85.4,89,89,112.85s-.38,52.05-9.73,75.09c-9.59,13.37-8.78,32.84-3.38,46.57s5.8,30.78,1.32,41.56S64,287,73.58,293s19.67-3.56,29.44-5.4,19.14.25,29.22-2.58,18.11-7,29.81-5.74,22.79,4.79,35-1.3,25.67-12.29,39.59-16.43,29.52-.89,11.55-20.88-26.87-74.78-33.61-98.37-9-32.9-16.7-50.69S177.59,28,157.78,23.57,115.66,28,103,46Z"/></g><path class="cls-3" d="M189.07,85.07c-1.49-6-5.44-14.17-10.65-18.64C170.92,54.94,159.36,28.9,141,33.06c-20.89,4.72-36.53,27.15-36.06,49.12-3.24,5.66-3.92,14.58-3.59,20,.49,8.12,2.31,21,10,23.62,2.64.9,3-3,4.23-3.86,1.71,2,4.22,6.7,7.64,5.87s3.57-6.33,4-9.06c.8,2.24,2,8.89,5.28,8.78s3.64-6.8,4.16-9c.92,1.92,2.25,8.26,5.41,7.82,3.67-.5,3.63-8.31,3.93-11,2.75-.64,5.48-1.19,8.25-1.73.91,2.36,2.45,7.91,5.51,8.06,2.15.11,2.4-3.3,3-4.59.77,1,1.63,3.1,3.26,2.89,2.12-.29,2.65-3.65,3.05-5.3.87,1,1.55,3.41,3.43,3.06,2.79-.53,3.39-5.14,3.52-7.45,1.39,1.57,3.24,4.1,5.66,3.42,1.71-.48,1.66-2.1,1.68-3.52,1.11.25,2.12,2.18,3.55.62C192.42,104.77,191.09,93.22,189.07,85.07Z"/><path class="cls-4" d="M475.16,94.68c3-4.69-4.12-19.56-7.85-14.18s-21.41,20.17-21,24.89,2.27,4.5,6.23,6S472.14,99.37,475.16,94.68Z"/><path class="cls-4" d="M297.15,128.4c-.41,10.43.82,10-.74,21.36,4.71.81,9.49,1.36,14.24,1.79,1-9.31,1.34-12.47,2.83-21.67A67.41,67.41,0,0,0,297.15,128.4Z"/><path class="cls-5" d="M265.53,324.28c.08-4.72.49-6.91.5-12.95a351.76,351.76,0,0,1,2.89-43.39c-6.32-14.6-8.52-31.12-8.35-46.63.1-8.95.6-2.22,0,0,0-.77.16-3.46.25-3.87.42-1.93.74-4.88,1.12-6.29,1.36-5.05,2-11.81,2.87-16,1.16-5.42,4.83-6.15,6.13-10.75.87-3-1.08-4.87-2.18-7.69-.57-1.45-2-2.63-2.09-4.53-.35-5.59-1.17-10.94.5-16.61,1.45-4.95,4.76-9.8,7.1-14.5a12.29,12.29,0,0,0-7.15,5.32,12.29,12.29,0,0,1,7.15-5.32c.31-.63,1-1.06,1.34-1.65,0-.07.34-.12.3-.17-9.33-8.15-8.12-6.45-21.45-8.87-15.55-2.83-35.07-4.47-52.12-2.89s-38.48-4.82-54.07,3.77,16.25,32.44,29.6,33.36,31.42,6.48,46.36,13.71c12.29,6,19.24,24.46,30.34,33.13.81,1.22.87,1.24,0,0-1.45,14-4.53,24.95-7.33,39.44-2,10.38-3.75,24.22-5.45,35.67-1.49,10.07-4.82,23.71-6,33.14s1.66,13,7,18.91c4.43,4.9,9.07,5.05,14.74,8,3.21,1.64,8.4,1.95,12.06,3C267,340.91,265.37,333.59,265.53,324.28Z"/><path class="cls-2" d="M324.37,264c-1.28-23.2,2.43-49.85,5.32-71.62,1.59-12,1.77-13.61,3-24.07a7.81,7.81,0,0,1-.17-1.28c-7.89-.39-14.75-3.91-18.66-10.89A9.53,9.53,0,0,1,306,159a10.77,10.77,0,0,1-7.07-3.18c-5.05,5.32-11.6,7.25-18.8,7.71.24,1.21.4,2.67.63,3.74,1.73,11,2,17.11.4,28.93C278,219.3,271.53,244.3,268.65,268c-.08.13-.1-.29-.16-.14a294.29,294.29,0,0,0-2.26,45.07,40,40,0,0,1-.64,10.88c-1.24,8.68-.58,18.21,3.81,25.66,1.17.11.53.1,2.68.35.05,0-5.45-.65,1.71.2s33.45,1.19,44.32-.45c1.14-.52.83-1,.92-1.69C322.72,320,323.31,292.22,324.37,264Z"/><path class="cls-6" d="M348.05,174.84a10.88,10.88,0,0,0,.38-5.87c-4.11-2.66-6.82-6.58-7.19-10.88h0c-1,5.31-1.18,9.8-8,11.31a7.4,7.4,0,0,1-1.19.18c-.05.5-.11,1-.17,1.49.1,1.2.19,2.54.35,4.08a11.84,11.84,0,0,1,0,1.88,10.17,10.17,0,0,0,0-1.66c-.15-1.54-.24-2.88-.34-4.08-.7,6.05-1.42,12.13-2.86,22.91-2.61,19.62-6.62,49.6-5.31,71.76.48-13.53,1-27.06,2.07-40.57-1,13.5-1.59,27-2.07,40.56,0,.36,0,.73.07,1.1,5.14-7.58,10.13-16.51,13-25.87s4.49-21,6.63-30-1.42-4.7-3.95-10.2-2.42-9.6-.87-14.85S346.3,179.84,348.05,174.84Z"/><path class="cls-6" d="M281.78,170.22a29.47,29.47,0,0,0-1.34-4,15.06,15.06,0,0,1-3.43-.41c-3.73-1.37-5.89-3.33-7-7.05-.83-2.75-.58-5.39-.88-8.18a14.62,14.62,0,0,1,.35-3.72,7.06,7.06,0,0,0-.92,0c-2.79,4.1-5.54,8.7-6.76,13.43-1.4,5.43-.63,10,.9,15.05.52,1.73,1.88,2.69,2.74,3.88,1.66,2.3,3.72,4,3.06,6.88-1,4.36-5,3-5.21,8.46a77.14,77.14,0,0,1-2.28,15.5c-.55,3.35-1,6.52-1.55,9.78-.42,17.69,2.71,34.14,8.75,50.75,5.09-28.5,11.15-56.74,14.28-85.66A51.37,51.37,0,0,0,281.78,170.22Z"/><path class="cls-5" d="M458.46,102.27c-2.91-6.26-3.93-9.57-13.08-10.35-6.34-.54-36.13,27.29-39.74,33.92a16.93,16.93,0,0,1-5.67,6.39c-6.21,4.89-11.76,7.86-17.58,12.55-.41.33-.52.28-1.08.43-6.63-1.85-16-4.16-22.37-3.82-9.88.53-13.36,4.39-20,10.26-.4.35-.11.79-.24,1.2a10.91,10.91,0,0,0-.35,2.72,13.53,13.53,0,0,0,.13,1.81.06.06,0,0,0,0,0h0a29.28,29.28,0,0,0,7.83,10.76c.05,2,.52,4-.34,5.91-2.12,4.74-6.79,7.1-8.23,12.36s-.54,9.49,1.62,14.77,4.62,4,2.81,11.61-3.57,19.79-6.35,28.46-7.6,17.31-12,25.33a3.88,3.88,0,0,1-.14-1c-.51,27.39-2.8,54.71-5.61,81.93a11.24,11.24,0,0,0-.14,1.82c5.94-.64,13.58-.58,19.18-1.33,6.91-.92,10.06-1.89,10.57-9.11.48-6.85-2.84-13.16-3.26-20.35-.89-15.36,1.15-31,1.76-46.61.44-11.37.64-25.36,1.26-36.27.81-14.11,2-25.81,3.49-39.39,2.49-.94,4.18-2.63,6.94-3.37,12.37-3.27,26.06-10.12,36.37-16.41,8.67-5.3,14.2-8.1,22.3-12.88a11.47,11.47,0,0,0,1.62-1,129.34,129.34,0,0,0,16.13-15.75c2.48-2.85,5.58-7,8.46-10.19,2-2.22,6.45-5.49,8.27-7.6C459.94,118.66,464.79,115.88,458.46,102.27Z"/><path class="cls-7" d="M334.93,143.94c-7-1.81-15.83,2.71-21,8.11-2.44-2.63-4.9-4.12-8.43-4.36a11.47,11.47,0,0,0-7.41,2.12c-4-6.45-10.9-8.5-17.4-11.16-6.18-2.52-9.89,5.61-11.17,8.5h0c-1.28,2.88.13-.65-.34,1a12.76,12.76,0,0,0-.31,5.06c.5,3.43.11,4.13,1.22,8.12.69,2.49,2.38,6.54,8.35,6,1.38-.13,17.42-2.71,18.82-7.44,2.77,1.59,4.48,2.94,7.4,3.1a11.1,11.1,0,0,0,8.15-2.86c5.15,6.66,19.47,10.89,19.59,10.53a4.33,4.33,0,0,0,1.18-.23c4.77-1.48,8.76-8.86,8.49-13C341.65,151,341.36,145.61,334.93,143.94Zm-26.74,14c1,.14,2,.25,3,.32C310.16,158.19,309.16,158.08,308.19,157.94Zm3.36-.32a31.31,31.31,0,0,1,4.56.78A31.31,31.31,0,0,0,311.55,157.62Zm20.89-3.36h0c.11.16.23.31.34.45C332.67,154.57,332.55,154.42,332.44,154.26Z"/><path class="cls-8" d="M306.09,162a.34.34,0,0,0-.3-.36h0a.33.33,0,0,0-.35.31c-4.41,53.14-12.2,116.23-12.28,116.9l-1.65,71.67a.33.33,0,0,0,.31.34h0a.33.33,0,0,0,.34-.32l1.64-71.65C293.89,278.26,301.68,215.16,306.09,162Z"/><path class="cls-4" d="M469.21,72.06c-.37,2.16-1.39,5.89-1.87,8.35,2.53,4.85,5.2,9.52,7.85,14.29,3.73-1.76,6.75-2.45,10.57-4.61s8.42-5.56,12.51-7.76c2.93-3.5,6.14-6.55,9.37-9.74a19.35,19.35,0,0,0,2.13-5.45c.24-1.78.35-4-1.06-5a8.7,8.7,0,0,1-2.95-3,47.24,47.24,0,0,1-5.34-3.85c-2.11-1.57-4.85-1.59-7.56-.87-2.77,3-6.31,6.78-8.84,9.64s-3.8,5-6.1,7.7c-.17-2-1-3.46-.9-5.58s1-4.54,1.22-6.77c-1.27-.32-2.07-3.39-3.41-.88a62.24,62.24,0,0,1-5.41,9C469.18,69.47,469.57,69.91,469.21,72.06Z"/><rect class="cls-9" x="475.36" y="29.17" width="12.13" height="32.07" rx="6.06" transform="translate(14.01 169.03) rotate(-20.2)"/><rect class="cls-9" x="481.02" y="51.47" width="24.26" height="52.4" rx="12.13" transform="translate(3.52 175.08) rotate(-20.2)"/><rect class="cls-10" x="469.58" y="30.01" width="14.47" height="5.77" transform="translate(17.97 166.68) rotate(-20.2)"/><path class="cls-11" d="M485.59,60.53c4.7-2.09,12.24,2.2,14.77,7.6,2.72,5.8.54,14.72-4.3,16.74S483.73,81.94,481.51,76C479.51,70.75,480.91,62.61,485.59,60.53Z"/><path class="cls-2" d="M199.28,220.25c-8.7-15.78-4.47-12-3.32-27.39.61-8.1,2.95-16.28,4.9-24.39,4.06.95,9.42,2.3,13.31,2.55s14.87,5,15.44-.81-6.54-8.13-7.5-15.16-1.82-18.57-6.39-25.14-10.28-6.88-17.13-9.43c0,.11,0,.1,0,.2-4.23-1.13-9.17-1.25-13.44-1.81-15.27-2-14.2,4.12-20.72,12s-6.61,7.78-14.78,9.06c-5.33-2.66-11.32-6.41-16.5-8.88s-6.65-4-11.84-.81c-2.13,1.3-5,4.05-7.24,5.64-6.72.61-14.18-1.87-19.41,3.64s-6,16.45-5.72,23S91,176.72,90,181.43s-4.67,5.92-1.2,8.51,8.13-.28,11.82-1.26,7.13-3.39,10.74-4.68c1.44.85,2.8,1.15,4.32,2.11,9.7,6.17,17.25,18.27,15.33,30.32s-9.64,17.33-15.77,29.18-12,23.13-11,39.16,16.28,78.14,35.5,83,88.87,6.11,104.94-2.83S208,236,199.28,220.25Z"/><path class="cls-4" d="M94.83,187.52c2.47,12.95,10.89,36.6,18.36,44.59s11.13,11.37,18.55,11.48,5.92-4.32,8.78-10.78,4.59-22.13,4.55-30,1-19.45.43-25.17-1.14-3.35-1.68-7.58c-3.21,1.69-6.62,2.34-9.86,3.76,1.93,8.79,5.27,19.21,4.08,27.88s-4.56,14.41-5.81,22.79c-4.83-3.9-5.51-1.13-8.82-8.37S114,193.31,109.9,185.77,98.72,184,94.83,187.52Z"/><path class="cls-4" d="M201.78,165.56c-3.94,9-5.3,34-16,38s-19.15-10.71-24-15.71-3.54-3.49-4.19-8.77,4.28-11.86,2.68-17-5.67-1-7.09,1.82-2.58,6.37-4.44,9c.21,4.73.52,9.4.69,14.12a63.16,63.16,0,0,1,4.11,6.63,20.73,20.73,0,0,0,2.77,4.65s0,0,0-.09a40.62,40.62,0,0,0,5.47,6.52c7.32,6.91,21.41,29.19,33.14,23.78s15.37-23.11,18.29-34.59,3.91-21.81,7-33C214.05,156.49,205.71,156.57,201.78,165.56Z"/><path class="cls-4" d="M166,138.1c-6-4.3-9-13.34-6.59-21,3.06-.78,5.67-2.24,7.21-5.12,2.39-4.48,3.94-5.7,3.31-10.4,0-.23-.06-.45-.1-.7-2.33-14-6.59-29.64-10.14-43.74-.26-1.07-.53-2.12-.79-3.16-1.29-5.23-4.4-7-9.12-6-7.63,1.53-18,4.13-25.48,6.39-4.64,1.39-6.39,4.8-5.31,9.74.48,2.17.92,4.56,1.35,7.1,1.92,11.36,3.59,25.7,7,36.13a42.7,42.7,0,0,0,2.67,6.49c2,3.84,7.72,5.82,12.26,5.35,2.32,3.06,3.2,6.55,1.63,9.73-3.85,7.86-5.64,5.67-10,10.93a92.65,92.65,0,0,0,.26,16.63c17.5.63,27.18.95,43.33-7.31C173.81,144.08,171.58,142.1,166,138.1Z"/><path d="M157.12,97c-2.17,1.35-9.48,2.15-11.54,2.86a14.89,14.89,0,0,1-3,.87,11.51,11.51,0,0,1-5.14.09,13.37,13.37,0,0,1-2.77-.92c1.81,2.53,3.68,5.18,5,6.84,2.15,2.68,2.73,3.88,6.12,4.13a14.46,14.46,0,0,0,9.17-1.9,11.9,11.9,0,0,0,5.06-7.72,39,39,0,0,0,.29-7.35c0-.22,0-.41,0-.61C160.05,94.57,159.2,95.67,157.12,97Z"/><path class="cls-2" d="M156.63,95c-2.47,1.34-9,.86-11,1.92a16.11,16.11,0,0,1-3,1.41,11.72,11.72,0,0,1-9.79-1c.61.81,1.24,1.68,1.88,2.58a13.37,13.37,0,0,0,2.77.92,11.51,11.51,0,0,0,5.14-.09,14.89,14.89,0,0,0,3-.87c2.06-.71,9.37-1.51,11.54-2.86s2.93-2.4,3.17-3.71c-.06-.72-.12-1.28-.15-1.83C159.73,92.71,158.81,93.79,156.63,95Z"/><path class="cls-12" d="M131.51,95.59c1.06,0,.6.12,2.07,0s3,1,5.21.83,4.87-2.2,7-3.24,3.23-.32,5.08.38,4.23-.51,5.82-1.47a12.08,12.08,0,0,0,3.51-2.88,12.62,12.62,0,0,0-.07,2.06l.06,0a10.29,10.29,0,0,0,.31-2.41c-2,1.53-3.55,3.18-6.09,4.17s-3.33-.33-5.82-.61-4.26,1.39-6.75,2.69-8,.7-10.58,0l-.17,0a4.37,4.37,0,0,0,1.54,2.17s0-.09,0-.14C132.23,96.52,131.86,96,131.51,95.59Z"/><path class="cls-12" d="M132.72,96.47c2.17,1,7.35,1.68,9.72.68s3.81-2.3,6.1-2.15,3.89.75,6.13,0a17.49,17.49,0,0,0,5.46-3.65,12.62,12.62,0,0,1,.07-2.06,12.08,12.08,0,0,1-3.51,2.88c-1.59,1-4,2.16-5.82,1.47s-3-1.43-5.08-.38-4.84,3-7,3.24-3.75-.92-5.21-.83-1-.07-2.07,0c.35.44.72.93,1.1,1.44a6.13,6.13,0,0,1,0-.62Z"/><path class="cls-12" d="M160.14,91.43c0-.06,0-.12.05-.18l-.06,0A.62.62,0,0,1,160.14,91.43Z"/><path class="cls-12" d="M132.61,97s0,.09,0,.14l.17.12A2.48,2.48,0,0,0,132.61,97Z"/><path class="cls-12" d="M154.67,95c-2.24.8-3.85.2-6.13,0s-3.72,1.15-6.1,2.15-7.55.31-9.72-.68l-.14-.06a6.13,6.13,0,0,0,0,.62,2.48,2.48,0,0,1,.19.26,11.72,11.72,0,0,0,9.79,1,16.11,16.11,0,0,0,3-1.41c2-1.06,8.55-.58,11-1.92,2.18-1.19,3.1-2.27,3.51-3.55a.62.62,0,0,0,0-.13A17.49,17.49,0,0,1,154.67,95Z"/><path class="cls-13" d="M149.73,108.49c3.51-.56,5.16-1.63,6.56-3.08-1.49-1.66-4.15-2.3-8-1.37-3.46.83-4.72,2.27-4.81,3.93C144.91,108.66,146.64,109,149.73,108.49Z"/><path class="cls-12" d="M160,101.21c-1.64,1.6-2.61,3-3.74,4.2a5.75,5.75,0,0,1,1.37,3.32A7.22,7.22,0,0,0,160,101.21Z"/><path class="cls-12" d="M151.06,108.75c-3.88-.1-5,.48-5.48,3.64a19.55,19.55,0,0,0,5.67-.64,17,17,0,0,0,5.54-2.34C155.38,108,154.47,108.83,151.06,108.75Z"/><path class="cls-12" d="M143.44,108c-1.54-.72-2.78-1.83-5-2.8-.38,4.6,2.51,6.84,6.69,7.19A7.65,7.65,0,0,1,143.44,108Z"/><path class="cls-12" d="M156.29,105.41c-1.4,1.45-3,2.52-6.56,3.08-3.09.5-4.82.17-6.29-.52a7.65,7.65,0,0,0,1.69,4.39l.45,0c.49-3.16,1.6-3.74,5.48-3.64,3.41.08,4.32-.73,5.73.66.31-.22.6-.45.87-.68A5.75,5.75,0,0,0,156.29,105.41Z"/><path class="cls-14" d="M140,68.94c3.05,2.85,4.43,5.8,3.5,9.41s-1.93,3.17-2.48,6.91c-.51,3.51,4.95,3,7.52,1.32.17-.11.32-.23.46-.34"/><path d="M148.79,61.46c.07,0,.23,0,.26-.1,1.88-3.45,7.12-1.78,8.66-1.07s2,.34.34-.5-7.51-2.43-9.55,1.29c-.07.12-.12.28,0,.35A.28.28,0,0,0,148.79,61.46Z"/><path d="M129.93,66.77c-.07,0-.19.09-.25.07-3.49-1.65-6.32,2.7-7,4.15s-1.28,1.43-.54-.2,4-6.26,7.8-4.49c.12.06.26.15.2.29S130,66.75,129.93,66.77Z"/><path class="cls-15" d="M152.89,129.1c1.87.52,5.66,9.3,4.77,12.47s-8.46,9.23-10.71,8.59-5.53-9.76-4.64-12.92S150.92,128.54,152.89,129.1Z"/><path class="cls-16" d="M174,134.55l-21.25-6.42-.28.93a1.64,1.64,0,0,1,.4,0c1.87.52,5.66,9.3,4.77,12.47s-8.46,9.23-10.71,8.59a1.72,1.72,0,0,1-.7-.44l-.16.54,21.25,6.41Z"/><path class="cls-17" d="M147,150.16c2.25.64,9.82-5.43,10.71-8.59s-2.9-11.95-4.77-12.47a1.64,1.64,0,0,0-.4,0l-6.24,20.66A1.72,1.72,0,0,0,147,150.16Z"/><path class="cls-18" d="M144,218.25c0,.12,0,.1,0,0-.75-.12-1.3-.44-1.07-1.48,3.1-13.48-1.27-24.34-1.58-37.5,0-1,.45-1.38,1.25-1.41.08-.11,0-.09,0,0,.79,0,1.3.27,1.33,1.29.41,13.42,4.74,24.31,1.56,38.07C145.27,218.28,144.78,218.36,144,218.25Z"/><path class="cls-19" d="M146.38,218.62c0,.13,0,.1,0,0-.8-.07-1.29-.42-1.18-1.47,1.36-13.77-.94-24.27-1.45-37.58,0-1,.44-1.37,1.23-1.41.07-.11,0-.09,0,0,.79,0,1.31.24,1.36,1.27.6,13.46,2.86,24.08,1.44,38C147.67,218.47,147.18,218.7,146.38,218.62Z"/><path class="cls-18" d="M149,218.75c0,.12,0,.09,0,0-.81,0-1.3-.36-1.27-1.37.47-13.25-.48-24.65-1.34-37.75-.06-1,.41-1.37,1.2-1.43.07-.11,0-.09,0,0,.79,0,1.33.25,1.4,1.26.89,13.15,1.85,24.68,1.34,38C150.25,218.45,149.76,218.77,149,218.75Z"/><path class="cls-19" d="M151.07,218.92h0a1.21,1.21,0,0,1-1.33-1.31c-.31-12.51-.29-25.47-1.29-37.94a1.21,1.21,0,0,1,1.21-1.42h0a1.24,1.24,0,0,1,1.43,1.24c.94,12.51,1,25.51,1.26,38A1.21,1.21,0,0,1,151.07,218.92Z"/><path class="cls-18" d="M153.21,219.46h0c-.73.08-1.29-.16-1.38-1-1.12-11.27-2.37-27.28-.15-38.14.17-.83.63-1.27,1.43-1.19.08-.09.07-.09,0,0a1.11,1.11,0,0,1,1,1.45c-2.07,10.76-.77,26.44.24,37.63C154.48,219,153.94,219.39,153.21,219.46Z"/><path class="cls-18" d="M160.84,175.08c-6.83,3.87-16,1.2-22.51-8.5s-5.37-20.78,1.33-24.32,16.86-.78,23.42,8.65S167.67,171.22,160.84,175.08Z"/><path class="cls-18" d="M126.46,187.19c.18-1-1.13-5.09-2.9-5a3.59,3.59,0,0,0,0-.46,5.8,5.8,0,0,0-.17-.72,6.3,6.3,0,0,1-.28-.72,5.58,5.58,0,0,0-.72-1.42,5.41,5.41,0,0,0-.87-1.09l.28-.4c.44-.62,1-1.18,1.43-1.78.26-.36.5-.74.78-1.09a10.8,10.8,0,0,0,.76-.89,2.43,2.43,0,0,1,.2-.25l.21.14a4.29,4.29,0,0,0,.5.37,7.67,7.67,0,0,1,1,.93,5.26,5.26,0,0,1,.68,1.17c.09.18.21.37.3.58-1.44.87-1.53,3.57-1.32,4.69s.65,4.29,1.89,4.76,3-3.57,3.17-4.56-1.27-5.59-3.22-5.12l0,0a3,3,0,0,0-.25-.51,9.41,9.41,0,0,0-.7-1.24,7.74,7.74,0,0,0-1.06-1c-.19-.15-.4-.27-.58-.43a2.48,2.48,0,0,0-.26-.19l.18-.19.86-1c.52-.59,1.07-1.13,1.58-1.72a10.45,10.45,0,0,1,.82-.81c.24-.22.43-.46.69-.66a20.26,20.26,0,0,1,1.85-1.21,8.77,8.77,0,0,0,2-1.74.49.49,0,1,0-.74-.65,8,8,0,0,1-2.06,1.69,15.2,15.2,0,0,0-1.71,1.17c-.27.22-.49.47-.75.71a.1.1,0,0,0,0-.05,6.32,6.32,0,0,0-1.2-1,4,4,0,0,0-.66-.23,2.45,2.45,0,0,0-.66-.16c-.23,0-.45,0-.69,0a2.76,2.76,0,0,0-.69.11c-.26.07-.51.14-.76.23s-.28.13-.42.19c-.85-1.13-3.79-.54-5-.08s-4.39,1.56-4.82,2.69,3.8,1.64,4.82,1.55,5.36-2.22,5.17-3.71l.12-.06a5.63,5.63,0,0,1,.69-.24,4.72,4.72,0,0,1,.65-.15,3.94,3.94,0,0,1,.69,0,1.63,1.63,0,0,1,.62.12,6,6,0,0,1,.6.19,2.86,2.86,0,0,1,.58.44l.58.51h0c-.16.16-.33.32-.47.49-.52.59-1.07,1.13-1.58,1.72l-.87,1a6.87,6.87,0,0,0-.78.84c-.21.32-.48.58-.72.88s-.38.52-.57.78a2.67,2.67,0,0,0-.81-.54,6.51,6.51,0,0,0-1.47-.31,3.73,3.73,0,0,0-1.47.19.8.8,0,0,1-.21,0c-.64-1-3.08-.53-4-.15s-3.54,1.28-3.89,2.23,3.08,1.4,3.9,1.33,4-1.67,4.15-2.9l.06,0a3.3,3.3,0,0,1,1.38-.21,5.63,5.63,0,0,1,1.31.26,2.38,2.38,0,0,1,.77.5c-.43.56-.91,1.08-1.32,1.66s-.93,1.33-1.47,1.95l-.07.11c-.18.24-.33.51-.5.76l0,0-.32-.29c-.21-.18-.39-.39-.61-.56a2.25,2.25,0,0,0-1.46-.26,3.93,3.93,0,0,1-.76,0,2.38,2.38,0,0,0-.26,0,.89.89,0,0,0-.31.06c-.12,0-.25.09-.37.15a4.73,4.73,0,0,0-2.62.26c-.74.3-2.76,1-3,1.74s2.39,1.09,3,1,3.57-1.54,3.21-2.52a.51.51,0,0,0-.09-.18h0c.15,0,.3,0,.46,0s.46,0,.7,0,.45,0,.68,0a.88.88,0,0,1,.58.29c.26.25.53.49.8.72-.09.15-.18.3-.28.44s-.2.23-.29.36a3.89,3.89,0,0,0-.51.21,7,7,0,0,0-1,.56,3.62,3.62,0,0,0-.86.7l0,0a4.76,4.76,0,0,0-2.58,1.31c-.58.56-2.22,2-2.18,2.76s2.71,0,3.3-.32,2.79-2.81,2.06-3.53l-.08-.06a1.37,1.37,0,0,1,.18-.16l.4-.28a5.73,5.73,0,0,1,.84-.46l-.4.59a.48.48,0,0,0,.2.68.56.56,0,0,0,.7-.27l.31-.44c.07-.12.16-.22.24-.34a1.7,1.7,0,0,1,.21.66,3.86,3.86,0,0,1,.07.9,2.06,2.06,0,0,0,0,.43c0,.11.05.23.06.35s0,.26,0,.39a2.6,2.6,0,0,0,0,.4,7,7,0,0,1-.07.9c0,.27-.06.52-.08.79s-.06.41-.1.62c-1.39.22-2.18,2.6-2.3,3.62s-.59,3.72.21,4.4,3.12-2.24,3.49-3,.43-4.56-.9-5a2.2,2.2,0,0,1,.07-.37,3,3,0,0,0,0-.43,7.87,7.87,0,0,0,.11-1.81,7,7,0,0,0,0-.79c0-.31,0-.62,0-.93a2.67,2.67,0,0,0-.49-1.63c.1-.13.22-.24.31-.38s.18-.3.28-.44.22-.26.32-.41a9.33,9.33,0,0,1,.55-.84l0,0c.27-.32.52-.65.76-1a4.73,4.73,0,0,1,.78,1c.14.23.26.47.4.71a3.53,3.53,0,0,1,.28.7c.07.22.19.42.26.65a3.93,3.93,0,0,1,.15.68,2.4,2.4,0,0,1,0,.37c-1.55.71-1.66,3.5-1.44,4.62s.62,4.14,1.8,4.59S126.29,188.14,126.46,187.19Z"/><path class="cls-18" d="M184.73,181.73c-.23-.76.37-4,1.74-4.09a2.17,2.17,0,0,1,0-.36,5.23,5.23,0,0,1,.06-.57,5.47,5.47,0,0,0,.15-.58,4,4,0,0,1,.41-1.16,4.12,4.12,0,0,1,.56-.92l-.26-.28c-.39-.42-.85-.79-1.25-1.2-.24-.25-.46-.51-.7-.74s-.47-.37-.67-.6a1.37,1.37,0,0,0-.17-.17.93.93,0,0,0-.15.13c-.11.13-.23.23-.34.34a5,5,0,0,0-.71.82,3.71,3.71,0,0,0-.41,1c0,.15-.12.31-.17.48,1.18.51,1.51,2.56,1.45,3.43s-.08,3.34-1,3.84-2.63-2.4-2.86-3.13.44-4.4,2-4.26h0a4.13,4.13,0,0,1,.14-.42,9,9,0,0,1,.41-1,5.94,5.94,0,0,1,.72-.87c.12-.14.27-.25.4-.4s.12-.11.18-.17l-.16-.12-.75-.67c-.45-.39-.92-.75-1.37-1.14a7.27,7.27,0,0,0-.71-.53,5.67,5.67,0,0,0-.58-.42,14.3,14.3,0,0,0-1.53-.73,6.47,6.47,0,0,1-1.7-1.11.38.38,0,1,1,.51-.57,5.93,5.93,0,0,0,1.73,1.06,10.94,10.94,0,0,1,1.41.71c.23.14.42.31.64.46a.13.13,0,0,1,0-.05,5.25,5.25,0,0,1,.82-.88,4.37,4.37,0,0,1,.48-.25,1.72,1.72,0,0,1,.49-.19c.17,0,.34-.08.52-.1a2,2,0,0,1,.54,0l.6.1a2.07,2.07,0,0,1,.33.1c.55-1,2.85-.83,3.79-.61s3.49.71,3.93,1.53-2.74,1.67-3.52,1.71-4.3-1.11-4.3-2.27l-.1,0a3.35,3.35,0,0,0-.55-.11,2.92,2.92,0,0,0-.51,0,3,3,0,0,0-.52.09,1.54,1.54,0,0,0-.47.16,4.39,4.39,0,0,0-.44.21,2.11,2.11,0,0,0-.39.4l-.39.45h0a4.31,4.31,0,0,1,.4.32c.45.4.92.75,1.37,1.15l.76.66a7.41,7.41,0,0,1,.68.55c.19.23.42.39.63.6s.34.35.5.53a2.5,2.5,0,0,1,.57-.5,5.89,5.89,0,0,1,1.09-.39,2.73,2.73,0,0,1,1.14,0l.17,0c.39-.85,2.29-.75,3.07-.56s2.81.59,3.17,1.28-2.21,1.4-2.84,1.44-3.21-.84-3.45-1.76h0a2.62,2.62,0,0,0-1.08,0,4.14,4.14,0,0,0-1,.34,2,2,0,0,0-.54.47c.38.38.8.72,1.17,1.11a18.15,18.15,0,0,0,1.3,1.33l.07.08c.16.17.3.35.45.53h0l.22-.25c.14-.16.26-.34.41-.49a1.78,1.78,0,0,1,1.09-.36A2.86,2.86,0,0,0,192,174a1.46,1.46,0,0,1,.19-.07,1,1,0,0,1,.24,0l.3.07a3.7,3.7,0,0,1,2-.09c.59.15,2.2.47,2.47,1S195.53,176,195,176s-2.87-.78-2.69-1.57a.47.47,0,0,1,.06-.15h0a1.59,1.59,0,0,0-.35.08c-.17,0-.35,0-.53.05a4.67,4.67,0,0,0-.52.08.63.63,0,0,0-.41.28l-.54.64.25.3c.08.09.18.15.26.24l.41.11a6,6,0,0,1,.84.31,2.78,2.78,0,0,1,.72.44l0,0a3.63,3.63,0,0,1,2.09.72c.5.36,1.88,1.29,1.93,1.87s-2.07.28-2.55.11-2.4-1.84-1.91-2.47l.06,0a.91.91,0,0,0-.16-.11c-.1-.06-.22-.1-.33-.16a5.66,5.66,0,0,0-.68-.27l.36.41a.39.39,0,0,1-.09.55.44.44,0,0,1-.56-.13c-.09-.11-.19-.2-.27-.31l-.22-.23a1.35,1.35,0,0,0-.1.53,3.24,3.24,0,0,0,0,.69c0,.11,0,.21,0,.32a2.72,2.72,0,0,0,0,.28,1.54,1.54,0,0,0,0,.3,3,3,0,0,1,0,.31,5.28,5.28,0,0,0,.13.67c0,.2.1.4.14.6a4.75,4.75,0,0,0,.14.46c1.07,0,1.91,1.74,2.1,2.5s.8,2.78.26,3.39-2.59-1.37-2.95-1.92-.77-3.43.21-3.9c0-.09-.06-.18-.09-.27s-.05-.21-.08-.32a6.49,6.49,0,0,1-.26-1.37c0-.2-.07-.4-.06-.6s-.05-.47-.06-.72a2,2,0,0,1,.21-1.29,3.31,3.31,0,0,1-.27-.26c-.09-.1-.16-.21-.25-.3s-.2-.18-.29-.28a5.47,5.47,0,0,0-.5-.58l0,0c-.24-.22-.46-.44-.68-.67a3.93,3.93,0,0,0-.49.84c-.09.19-.16.39-.24.59a2.73,2.73,0,0,0-.15.56c0,.18-.1.35-.14.52a3.27,3.27,0,0,0,0,.54,2.81,2.81,0,0,0,0,.29c1.25.37,1.6,2.49,1.54,3.36s-.08,3.22-.94,3.7S185,182.44,184.73,181.73Z"/><path class="cls-17" d="M132.36,130.56c1.72-.59,9.47,4.58,10.54,7.68s-1.31,12.29-3.38,13-9.62-5-10.69-8.13S130.56,131.19,132.36,130.56Z"/><path class="cls-17" d="M150.59,135.07c1.87.52,5.66,9.3,4.77,12.47s-8.46,9.23-10.71,8.59-5.53-9.76-4.64-12.92S148.62,134.51,150.59,135.07Z"/><path class="cls-15" d="M163.85,135.07c1.87.52,5.66,9.3,4.77,12.47s-8.46,9.23-10.71,8.59-5.53-9.76-4.64-12.92S161.88,134.51,163.85,135.07Z"/><path class="cls-17" d="M163.85,136.33c1.87.53,5.66,9.31,4.77,12.47s-8.46,9.23-10.71,8.6-5.53-9.77-4.64-12.93S161.88,135.77,163.85,136.33Z"/><path class="cls-15" d="M161.12,171.23c1.83-.63,9.95,4.43,11,7.54s-1.7,12.41-3.91,13.17-10.11-4.89-11.17-8S159.18,171.89,161.12,171.23Z"/><path class="cls-15" d="M132.71,134c1.84-.63,9.95,4.43,11,7.54s-1.71,12.4-3.92,13.16-10.11-4.88-11.17-8S130.77,134.65,132.71,134Z"/><path class="cls-17" d="M158,163.39c1.84-.6,10.49,6.51,11.78,10.49s-1,15.26-3.21,16-10.68-7.09-12-11.07S156.09,164,158,163.39Z"/><path class="cls-17" d="M181.6,149.55c1.32,2.81-4.89,13-8,13.14s-11.68-2.88-12.93-5.63,3-10.78,5.8-12S180.22,146.59,181.6,149.55Z"/><path class="cls-20" d="M133.42,165.23c3.85-4.9,9.8-4.42,14-.21s5.53,9.84,1.6,14.69-9.67,4.23-14,.13S129.56,170.12,133.42,165.23Z"/><path class="cls-15" d="M176.89,151c.86,1.59-4.24,10.71-7.67,12.55s-14.17,1.66-15.2-.26,4.74-11,8.17-12.82S176,149.29,176.89,151Z"/><path class="cls-21" d="M149.68,158.17c3.22-4.09,8.16-3.71,11.64-.24s4.54,8.14,1.26,12.19-8,3.56-11.59.17S146.46,162.25,149.68,158.17Z"/><path class="cls-22" d="M164.25,163.05c3.35-4.25,8.47-3.88,12.09-.27s4.7,8.45,1.28,12.66-8.35,3.72-12,.21S160.9,167.3,164.25,163.05Z"/><path class="cls-23" d="M138.15,141.28c2.87-3.61,7.06-3.45,9.92-.58s3.6,6.86.68,10.44-6.95,3.31-9.86.51A7.27,7.27,0,0,1,138.15,141.28Z"/><path class="cls-24" d="M120.07,146.19c5.29-6.58,12.37-6.8,16.88-2.17s5.29,11.41-.08,17.94-12.19,6.55-16.8,2.07S114.77,152.77,120.07,146.19Z"/><path class="cls-22" d="M151.08,144.72c2.63-4.74,7.81-5.15,12-2.12s6.13,7.68,3.44,12.39-7.71,5-12,2S148.46,149.45,151.08,144.72Z"/><path class="cls-25" d="M149.27,161.86c-3.57,2.19-7.75,1.78-10.1-1.84a7.53,7.53,0,0,1,2.56-10.47c3.49-2,8.14-1.67,10.53,1.83S152.85,159.68,149.27,161.86Z"/><path class="cls-25" d="M158.2,183a5.46,5.46,0,0,1-7.75-1.72,5.74,5.74,0,0,1,1.66-8.1,6,6,0,0,1,8.07,1.73A5.78,5.78,0,0,1,158.2,183Z"/><path class="cls-16" d="M154.11,214.62l5.76.06,0-24.28-6.29-.07A180.11,180.11,0,0,0,154.11,214.62Z"/><path class="cls-16" d="M140.74,190.2l-2.31,0-.05,24.28,4.74.05C143.43,206.15,141.79,198.41,140.74,190.2Z"/><path class="cls-26" d="M143.12,214.5l1.83,0c0-8.4-1-16.05-1.67-24.3l-2.54,0C141.79,198.41,143.43,206.15,143.12,214.5Z"/><path class="cls-27" d="M145,214.52l2.5,0c-.09-8.24-.59-16.09-1.17-24.29l-3,0C144,198.47,145,206.12,145,214.52Z"/><path class="cls-26" d="M147.45,214.55l2,0c-.18-8.07-.36-16.23-.79-24.29l-2.38,0C146.86,198.46,147.36,206.31,147.45,214.55Z"/><path class="cls-27" d="M151.1,214.59a172.09,172.09,0,0,1-.42-24.29l-2,0c.43,8.06.61,16.22.79,24.29Z"/><path class="cls-26" d="M151.1,214.59l3,0a180.11,180.11,0,0,1-.49-24.29l-2.94,0A172.09,172.09,0,0,0,151.1,214.59Z"/><path class="cls-28" d="M149.32,154.06a4.26,4.26,0,0,1-1.21,5.16,3.67,3.67,0,0,1-2.6.85,3.37,3.37,0,0,1-2.39-1.15,2.65,2.65,0,0,1-.63-2,2.86,2.86,0,0,1,1-1.91,2.47,2.47,0,0,1,1.7-.57,2.25,2.25,0,0,1,1.57.76,1.74,1.74,0,0,1,.42,1.33,1.93,1.93,0,0,1-.69,1.27,1.62,1.62,0,0,1-1.14.37,1.46,1.46,0,0,1-1-.5,1.22,1.22,0,0,1,.18-1.74,1.14,1.14,0,0,1,.77-.26,1,1,0,0,1,.71.35.79.79,0,0,1,.19.61.87.87,0,0,1-.32.58.15.15,0,0,1-.22,0,.14.14,0,0,1,0-.21.53.53,0,0,0,.2-.37.51.51,0,0,0-.12-.39.74.74,0,0,0-.49-.24.79.79,0,0,0-.53.18.91.91,0,0,0-.14,1.3,1.25,1.25,0,0,0,1.73.1,1.56,1.56,0,0,0,.57-1,1.45,1.45,0,0,0-.35-1.11,1.88,1.88,0,0,0-1.35-.65,2,2,0,0,0-1.47.48,2.55,2.55,0,0,0-.93,1.7,2.33,2.33,0,0,0,.56,1.79,3.07,3.07,0,0,0,2.17,1,3.37,3.37,0,0,0,2.37-.78,3.9,3.9,0,0,0,.59-5.57,5,5,0,0,0-3.46-1.68,5.38,5.38,0,0,0-3.76,1.24.17.17,0,0,1-.23,0,.16.16,0,0,1,0-.22,5.71,5.71,0,0,1,4-1.32,5.23,5.23,0,0,1,3.67,1.78A4.28,4.28,0,0,1,149.32,154.06Z"/><path class="cls-28" d="M155.69,174.83a3.31,3.31,0,0,1,3.38,2.25,2.64,2.64,0,0,1-1.7,3.35,2.16,2.16,0,0,1-2.72-1.36,1.75,1.75,0,0,1,.1-1.33,1.69,1.69,0,0,1,1-.87,1.42,1.42,0,0,1,1.79.9,1.12,1.12,0,0,1-.07.88,1.16,1.16,0,0,1-.67.58,1,1,0,0,1-1.2-.6.78.78,0,0,1,0-.6.77.77,0,0,1,.46-.39.62.62,0,0,1,.5,0,.67.67,0,0,1,.32.38.12.12,0,0,1-.07.15.13.13,0,0,1-.16-.07.37.37,0,0,0-.2-.24.44.44,0,0,0-.32,0,.54.54,0,0,0-.31.28.49.49,0,0,0,0,.41.7.7,0,0,0,.89.45.91.91,0,0,0,.59-1.16,1.2,1.2,0,0,0-.59-.68,1.22,1.22,0,0,0-.9-.07,1.51,1.51,0,0,0-1,1.9,1.88,1.88,0,0,0,1,1.11,1.94,1.94,0,0,0,1.46.11,2.42,2.42,0,0,0,1.54-3.05,3.06,3.06,0,0,0-3.86-1.94,3.8,3.8,0,0,0-2.23,1.91,3.76,3.76,0,0,0-.22,2.94.12.12,0,1,1-.23.07,4.08,4.08,0,0,1,2.6-5.15A3.26,3.26,0,0,1,155.69,174.83Z"/><path class="cls-29" d="M144.41,169a6,6,0,0,1,.53,7.29,4.42,4.42,0,0,1-3,1.87,4.9,4.9,0,0,1-3.57-.91,4.14,4.14,0,0,1-1.63-2.55,3.74,3.74,0,0,1,.58-2.87,2.88,2.88,0,0,1,2-1.23,3.24,3.24,0,0,1,2.34.6,2.73,2.73,0,0,1,1.07,1.68,2.44,2.44,0,0,1-.38,1.9,1.91,1.91,0,0,1-1.31.81,2.09,2.09,0,0,1-1.56-.4,1.74,1.74,0,0,1-.46-2.39,1.23,1.23,0,0,1,.89-.55,1.42,1.42,0,0,1,1,.26,1.32,1.32,0,0,1,.5.78,1.15,1.15,0,0,1-.18.87.22.22,0,0,1-.3,0,.22.22,0,0,1-.06-.3.71.71,0,0,0,.11-.55.73.73,0,0,0-.31-.49,1,1,0,0,0-.73-.19.94.94,0,0,0-.62.39,1.32,1.32,0,0,0,.35,1.79,1.6,1.6,0,0,0,2.28-.33,2.05,2.05,0,0,0,.31-1.57,2.23,2.23,0,0,0-.89-1.4,2.74,2.74,0,0,0-2-.52,2.49,2.49,0,0,0-1.71,1.06,3.39,3.39,0,0,0-.51,2.55,3.72,3.72,0,0,0,1.45,2.26,4.42,4.42,0,0,0,3.24.83,4,4,0,0,0,2.75-1.7,5.65,5.65,0,0,0-1.5-7.69,7,7,0,0,0-5.15-1.32,6.35,6.35,0,0,0-4.37,2.7.2.2,0,0,1-.3,0,.22.22,0,0,1-.06-.3,6.73,6.73,0,0,1,4.64-2.86,7.48,7.48,0,0,1,5.48,1.39A6.56,6.56,0,0,1,144.41,169Z"/><path class="cls-30" d="M155.65,160.71c1.68-.35,3.53.8,4.42,2.91a5,5,0,0,1,.28,3,3.23,3.23,0,0,1-1.49,2.18,2,2,0,0,1-1.93,0,3.34,3.34,0,0,1-1.53-1.72,3.25,3.25,0,0,1-.18-2,2.18,2.18,0,0,1,1-1.43,1.35,1.35,0,0,1,1.28,0,2.17,2.17,0,0,1,1,1.13,2.15,2.15,0,0,1,.12,1.32,1.43,1.43,0,0,1-.65,1c-.54.32-1.23,0-1.53-.74a1.47,1.47,0,0,1-.08-.9.92.92,0,0,1,.44-.64.6.6,0,0,1,.58,0,1,1,0,0,1,.47.52.19.19,0,0,1-.06.24.15.15,0,0,1-.19-.1.63.63,0,0,0-.29-.33.4.4,0,0,0-.37,0,.71.71,0,0,0-.31.45,1,1,0,0,0,.06.62c.23.54.74.79,1.14.55a1.44,1.44,0,0,0,.42-1.8,1.81,1.81,0,0,0-.84-.94,1.13,1.13,0,0,0-1.06,0,1.89,1.89,0,0,0-.84,1.23,2.83,2.83,0,0,0,.16,1.72,2.92,2.92,0,0,0,1.36,1.52,1.81,1.81,0,0,0,1.72,0,3,3,0,0,0,1.35-2,4.53,4.53,0,0,0-.26-2.76c-1-2.31-3.18-3.37-4.91-2.38a4.73,4.73,0,0,0-2.15,3.15,7.16,7.16,0,0,0,.41,4.39.21.21,0,0,1-.06.24c-.07,0-.15,0-.19-.1a7.65,7.65,0,0,1-.44-4.66,5,5,0,0,1,2.29-3.35A3.27,3.27,0,0,1,155.65,160.71Z"/><path class="cls-31" d="M166.66,165.31c1.24-1.94,4.08-2.63,7-1.5a6.81,6.81,0,0,1,3.2,2.58,4.41,4.41,0,0,1,.72,3.47,2.7,2.7,0,0,1-1.78,1.89,4.38,4.38,0,0,1-3.09-.15,4.45,4.45,0,0,1-2.1-1.69,2.89,2.89,0,0,1-.47-2.28,1.76,1.76,0,0,1,1.17-1.24,2.89,2.89,0,0,1,2,.09,3,3,0,0,1,1.4,1.13,1.94,1.94,0,0,1,.31,1.51,1.5,1.5,0,0,1-2.15.77,2,2,0,0,1-1-.76,1.31,1.31,0,0,1-.21-1,.83.83,0,0,1,.54-.57,1.34,1.34,0,0,1,.94.05.25.25,0,0,1,.17.27.19.19,0,0,1-.27.1.87.87,0,0,0-.59,0,.49.49,0,0,0-.34.36.85.85,0,0,0,.15.71,1.31,1.31,0,0,0,.65.53c.74.29,1.46,0,1.61-.57a2,2,0,0,0-1.35-2.1,2.45,2.45,0,0,0-1.7-.08,1.47,1.47,0,0,0-1,1,2.47,2.47,0,0,0,.4,2,3.81,3.81,0,0,0,1.82,1.46,3.9,3.9,0,0,0,2.74.13,2.38,2.38,0,0,0,1.58-1.67,4,4,0,0,0-.65-3.16,6.18,6.18,0,0,0-2.92-2.35c-3.14-1.23-6.24-.13-6.9,2.47a6.34,6.34,0,0,0,1,5,9.87,9.87,0,0,0,4.64,3.74.25.25,0,0,1,.18.27.19.19,0,0,1-.27.1,10.42,10.42,0,0,1-4.93-4,6.77,6.77,0,0,1-1.1-5.34A4.13,4.13,0,0,1,166.66,165.31Z"/><path class="cls-31" d="M140,141.64c.72-1.15,2.55-1.47,4.46-.66a5.13,5.13,0,0,1,2.19,1.71,2.77,2.77,0,0,1,.6,2.16,1.4,1.4,0,0,1-1.08,1.09,3,3,0,0,1-2-.21,3.33,3.33,0,0,1-1.43-1.12,1.82,1.82,0,0,1-.4-1.42,1,1,0,0,1,.72-.72,2,2,0,0,1,1.33.14,2.28,2.28,0,0,1,.95.75,1.22,1.22,0,0,1,.27.94c-.11.49-.72.67-1.38.39a1.53,1.53,0,0,1-.64-.5.83.83,0,0,1-.18-.64.42.42,0,0,1,.33-.33,1,1,0,0,1,.61.06.19.19,0,0,1,.13.17c0,.07-.09.09-.18.05a.64.64,0,0,0-.38,0,.28.28,0,0,0-.21.21.57.57,0,0,0,.12.45,1.12,1.12,0,0,0,.45.35c.49.2,1,.07,1-.29a1.39,1.39,0,0,0-1-1.34,1.67,1.67,0,0,0-1.1-.12.77.77,0,0,0-.6.6,1.56,1.56,0,0,0,.34,1.22,2.92,2.92,0,0,0,1.24,1,2.8,2.8,0,0,0,1.79.19,1.28,1.28,0,0,0,1-1,2.52,2.52,0,0,0-.54-2,4.73,4.73,0,0,0-2-1.55c-2.1-.89-4.07-.32-4.4,1.25a4,4,0,0,0,.87,3.12,7.5,7.5,0,0,0,3.16,2.48.19.19,0,0,1,.13.17c0,.07-.09.09-.18.05a8,8,0,0,1-3.36-2.63,4.25,4.25,0,0,1-.92-3.32A1.93,1.93,0,0,1,140,141.64Z"/><path class="cls-31" d="M157.64,154.19a5.62,5.62,0,0,0,6.27-2.48,3.81,3.81,0,0,0,.25-3.18,4.48,4.48,0,0,0-2.28-2.51,4,4,0,0,0-2.81-.3,3.37,3.37,0,0,0-2.13,1.6,2.51,2.51,0,0,0-.17,2.09,3,3,0,0,0,1.5,1.65,2.67,2.67,0,0,0,1.86.2,2.26,2.26,0,0,0,1.4-1.06,1.65,1.65,0,0,0,.11-1.39,2,2,0,0,0-1-1.1,1.66,1.66,0,0,0-2.19.58,1.1,1.1,0,0,0-.07.94,1.31,1.31,0,0,0,.67.74,1.15,1.15,0,0,0,.85.09,1,1,0,0,0,.65-.48.19.19,0,0,0-.09-.26.22.22,0,0,0-.28.07.65.65,0,0,1-.41.31.73.73,0,0,1-.54-.06.92.92,0,0,1-.46-.51.78.78,0,0,1,.05-.65,1.23,1.23,0,0,1,1.63-.44,1.44,1.44,0,0,1,.71,2,1.88,1.88,0,0,1-1.17.88,2.17,2.17,0,0,1-1.54-.16,2.58,2.58,0,0,1-1.3-1.42,2.18,2.18,0,0,1,.15-1.8,3,3,0,0,1,1.89-1.43,3.57,3.57,0,0,1,2.5.27,4.12,4.12,0,0,1,2.07,2.28,3.44,3.44,0,0,1-.23,2.89,5.3,5.3,0,0,1-7,1.86,6.61,6.61,0,0,1-3.3-3.63,5.52,5.52,0,0,1,.36-4.6.19.19,0,0,0-.09-.26.22.22,0,0,0-.28.07,5.89,5.89,0,0,0-.38,4.89,7,7,0,0,0,3.51,3.86A6.29,6.29,0,0,0,157.64,154.19Z"/><path class="cls-31" d="M131.94,161.82c3.35-1.38,5.32-5.29,4.54-9.6a8.58,8.58,0,0,0-2.87-5.05,6.66,6.66,0,0,0-5-1.68,4.59,4.59,0,0,0-3.43,2.16,6.11,6.11,0,0,0-.79,4.42,5.63,5.63,0,0,0,1.88,3.31,4.39,4.39,0,0,0,3.31,1.11,3,3,0,0,0,2.26-1.43,4,4,0,0,0,.52-2.91,3.77,3.77,0,0,0-1.25-2.21,2.93,2.93,0,0,0-2.2-.73,2.33,2.33,0,0,0-1.86,2.91,2.49,2.49,0,0,0,.84,1.49,2,2,0,0,0,1.49.5,1.4,1.4,0,0,0,1-.66,1.8,1.8,0,0,0,.24-1.34.35.35,0,0,0-.36-.3.3.3,0,0,0-.23.37,1.2,1.2,0,0,1-.15.84.89.89,0,0,1-.66.42,1.36,1.36,0,0,1-1-.35,1.87,1.87,0,0,1,.81-3.21,2.69,2.69,0,0,1,2.73,2.33,3.38,3.38,0,0,1-.43,2.42,2.57,2.57,0,0,1-1.89,1.19,3.78,3.78,0,0,1-2.84-1A4.91,4.91,0,0,1,125,152a5.44,5.44,0,0,1,.7-3.93,4.12,4.12,0,0,1,3-1.92,6.1,6.1,0,0,1,4.58,1.53,7.84,7.84,0,0,1,2.61,4.6c.85,4.7-1.84,8.89-6,9.34a9.65,9.65,0,0,1-7.28-2.44,12.45,12.45,0,0,1-4.15-7.31.36.36,0,0,0-.36-.3.29.29,0,0,0-.24.37,13.3,13.3,0,0,0,4.41,7.76A10.24,10.24,0,0,0,130,162.3,7.12,7.12,0,0,0,131.94,161.82Z"/><path class="cls-3" d="M124.15,46.54c2.88.72,2.43,13.14-.33,23.15-3,10.76-9.58,22.17-12.45,21.23s-2-14.28,1.22-24.81C115.46,56.71,121.29,45.82,124.15,46.54Z"/><path class="cls-3" d="M148.31,37c2.33-1.84,11.9,6.1,18.13,14.41,6.7,8.92,11.7,21.12,9.2,22.82s-12.52-7.16-18.89-16.12C151.05,50.12,146,38.85,148.31,37Z"/><path class="cls-3" d="M130.43,46.54c1.73.93-.38,8.54-3.62,14.27-3.48,6.16-9.38,12.11-11.08,11s.84-9.18,4.43-15.15C123.38,51.37,128.71,45.62,130.43,46.54Z"/><path class="cls-3" d="M142.71,43.88c1.22-1.55,6.4.14,9.82,2.86,3.67,2.92,6.47,8,5.16,9.49s-6.74-.53-10.24-3.56C144.33,50,141.51,45.41,142.71,43.88Z"/><path class="cls-32" d="M347.81,69.2c-.28-6.65-1.86-13.94-8.36-16.88-8.45-3.82-14.6-7.83-24.5-8-4.84-.07-11.15-1.9-16.17.3-17.89,7.84-19.56,15.42-20.44,31.92-.46,8.64-1.29,11,.91,18.26a8.43,8.43,0,0,0,4.08,5.59c7.46,4.85,13.46,11,22.92,12.82,10,1.93,19.44-.56,28.08-5.08,3.7-1.93,6.36-3.48,8.12-7.08,2.95-6,3-12.51,3.57-19.08C346.35,77.89,348,73.22,347.81,69.2Z"/><path class="cls-4" d="M323.6,131.37c-7.42,6-19-.73-27.89-2-5.53-.76-12-5.34-12.75-10.43-2.1-14.49,5.52-38.76,7.74-54,.78-5.37,4.05-8.1,9.66-7.7,9.06.65,21.4,2.08,30.32,3.51,5.53.89,8.24,3.83,7.57,9.56-1.92,16.34-3.48,35.12-6.74,51.2C330.36,127.15,328.19,127.64,323.6,131.37Z"/><ellipse class="cls-32" cx="316.27" cy="52.98" rx="8.96" ry="22.29" transform="translate(205.66 353.98) rotate(-79.33)"/><path d="M304.43,69.8a.33.33,0,0,1-.24,0c-4.89-2-9.41,3.45-9.45,3.51a.33.33,0,0,1-.52-.42c0-.06,4.87-5.89,10.22-3.71a.33.33,0,0,1,.18.43A.32.32,0,0,1,304.43,69.8Z"/><path d="M321.57,71.13a.33.33,0,0,0,.24,0c4.89-2,9.4,3.46,9.45,3.51a.33.33,0,0,0,.47.05.33.33,0,0,0,0-.47s-4.86-5.88-10.21-3.7a.33.33,0,0,0-.18.43A.32.32,0,0,0,321.57,71.13Z"/><path d="M311.54,97.15a25,25,0,0,1-3.85-.65,5.23,5.23,0,0,1-3.92-2.86c-.07-.12,0-.25.21-.29a.5.5,0,0,1,.47.15,4.56,4.56,0,0,0,3.45,2.58c2.37.54,5.06,1,7,.2a3.06,3.06,0,0,0,1.88-2.17,2,2,0,0,0-.76-2c-.53-.42-1-.71-1.36-1a6.29,6.29,0,0,1-2.1-2c-1.13-1.61-1-3,.47-4.66a.47.47,0,0,1,.48-.08c.18.07.25.21.16.32-1.34,1.52-1.48,2.8-.45,4.27a5.8,5.8,0,0,0,1.95,1.8c.4.27.85.56,1.41,1a2.33,2.33,0,0,1,.92,2.3,3.5,3.5,0,0,1-2.15,2.47A8,8,0,0,1,311.54,97.15Z"/><circle class="cls-32" cx="328.96" cy="98.94" r="1"/><path class="cls-16" d="M309.05,115.69a9.84,9.84,0,0,1-4.79.28A9.28,9.28,0,0,0,309.05,115.69Z"/><path class="cls-16" d="M300.52,117.37l0-.09s0-.08,0-.12a.41.41,0,0,1,0-.12c0-.07,0-.22,0-.31v0c0,.09,0,.23,0,.31a.37.37,0,0,0,0,.12s0,.09,0,.12l0,.09a3.78,3.78,0,0,0,.22.5h0A4.46,4.46,0,0,1,300.52,117.37Z"/><path class="cls-16" d="M314.17,115.62a.14.14,0,0,0,0-.07.16.16,0,0,0,0-.07h0a.21.21,0,0,0,0,.06Z"/><path class="cls-16" d="M292.54,100.14l-.05,0h0S292.54,100.15,292.54,100.14Z"/><path class="cls-16" d="M304.6,105.56l-.23-.12.17.12Z"/><path class="cls-33" d="M300.47,117a.41.41,0,0,0,0,.12s0,.08,0,.12l0,.09a4.46,4.46,0,0,0,.22.5c.16-.07.27,0,.36,0a.19.19,0,0,1,.16,0,25.65,25.65,0,0,0,8.55,1.8,17.13,17.13,0,0,0,2.58-.35l.72-.12a2.57,2.57,0,0,0,.45-.42,2.73,2.73,0,0,0,.61-3.2l0-.09a.21.21,0,0,1,0-.06l0,0-.06-.06-.06,0,0,0-.05,0s0,0,0,0c-.37-.09-.53-.27-.94-.27a11.63,11.63,0,0,0-3.31.54l-.55.15a9.28,9.28,0,0,1-4.79.28l-.2,0a10.59,10.59,0,0,1-1-.43c-.35-.14-.76-.49-1.18-.44-1,.12-1.34.63-1.41,1.63v0C300.48,116.82,300.46,117,300.47,117Z"/><path class="cls-7" d="M325.65,104.71c0,.2-.16.28-.32.53-.44.64-1,1.42-1.44,2-3.75.68-5.79.51-9.92,1.57s-11.37-1.49-14.56-3.92c-2.64-2-3.8-2.66-5.72-4l-1.15-.43-.19-.05c-2,5-.7,8.41,2.62,13.39.06.09,4.47,4.25,5.46,4.48h0c-.07-.17,0-.33.24-.49h0a3.78,3.78,0,0,1-.22-.5l0-.09s0-.07,0-.12a.37.37,0,0,1,0-.12c0-.08,0-.22,0-.31v0c0-1,.36-1.55,1.41-1.65.43,0,.84.31,1.2.45a8.34,8.34,0,0,0,1,.43l.19,0a9.84,9.84,0,0,0,4.79-.28l.55-.16a10.11,10.11,0,0,1,3.3-.55,3,3,0,0,1,.93.27s0,0,0,0l.06.05,0,0,.05,0,.06.07.06,0h0a.16.16,0,0,1,0,.07.14.14,0,0,1,0,.07c.65,1.26.31,2.15-.59,3.22a3,3,0,0,1-.41.39,13.22,13.22,0,0,1,4.13-.49c.15,0,.2.07.18.11.22,0,.25-.08.28-.1a22.13,22.13,0,0,0,3.59-2l.27-.2c.09,0,0,0,0,0a9,9,0,0,0,1.32-1.29c2.47-3.39,4.41-6.26,3.27-10.35C326.07,104.89,325.92,104.79,325.65,104.71Z"/><path class="cls-7" d="M313.56,118.82a2.57,2.57,0,0,1-.45.42h.06a3,3,0,0,0,.41-.39c.9-1.07,1.24-2,.59-3.22A2.73,2.73,0,0,1,313.56,118.82Z"/><path class="cls-7" d="M301.89,115.06c.42,0,.83.3,1.18.44a10.59,10.59,0,0,0,1,.43l.2,0-.19,0a8.34,8.34,0,0,1-1-.43c-.36-.14-.77-.49-1.2-.45-1.05.1-1.41.6-1.41,1.65C300.55,115.69,300.88,115.18,301.89,115.06Z"/><path class="cls-7" d="M312.91,115c.41,0,.57.18.94.27,0,0,0,0,0,0l.05,0,0,0,.06,0,.06.06,0,0h0l-.06,0-.06-.07-.05,0,0,0-.06-.05s0,0,0,0a3,3,0,0,0-.93-.27,10.11,10.11,0,0,0-3.3.55l-.55.16.55-.15A11.63,11.63,0,0,1,312.91,115Z"/><path class="cls-34" d="M301.11,118.48l0,0a5.7,5.7,0,0,1-.34-.57h0l.31.57S301.08,118.47,301.11,118.48Z"/><path class="cls-34" d="M312.58,119.7l-.05,0c-.9.13-1.43.36-2.41.43-3,.21-5.82-.71-8.75-1.57a1.49,1.49,0,0,1-.18,0l0,0a.1.1,0,0,1-.07,0c-.17,0-.32-.11-.64-.19.17.46,1.27.92,1.7,1.09l.46.18a2,2,0,0,1,.26.09,21.56,21.56,0,0,0,6.63.83l.24,0a35.38,35.38,0,0,0,6.11-1.11,5.37,5.37,0,0,0,1.62-.57,1.81,1.81,0,0,1-.38,0A26,26,0,0,0,312.58,119.7Z"/><path class="cls-34" d="M313.11,119.24l-.72.12a17.13,17.13,0,0,1-2.58.35,25.65,25.65,0,0,1-8.55-1.8.19.19,0,0,0-.16,0c-.09,0-.2-.08-.36,0a5.7,5.7,0,0,0,.34.57l0,0s.08,0,.06.06l0,0a1.49,1.49,0,0,0,.18,0c2.93.86,5.73,1.78,8.75,1.57,1-.07,1.51-.3,2.41-.43l.05,0h0A5.49,5.49,0,0,1,313.11,119.24Z"/><path class="cls-34" d="M301.17,118.54l-.06-.06s-.06,0-.06,0l-.31-.57h0c-.25.16-.31.32-.24.49.32.08.47.23.64.19A.1.1,0,0,0,301.17,118.54Z"/><path class="cls-34" d="M317.3,118.74a13.22,13.22,0,0,0-4.13.49c-.2.16-.41.31-.59.47a26,26,0,0,1,4.52-.82,1.81,1.81,0,0,0,.38,0S317.45,118.77,317.3,118.74Z"/><path class="cls-34" d="M301.11,118.48l.06.06S301.15,118.5,301.11,118.48Z"/><path class="cls-34" d="M312.54,119.71h0c.18-.16.39-.31.59-.47h-.06A5.49,5.49,0,0,0,312.54,119.71Z"/><path class="cls-2" d="M294.12,101.13l-.15,0c1.76,1.09,2.92,1.73,5.45,3.53,3.19,2.28,10.42,4.63,14.48,3.71s6.07-.7,9.74-1.25c.62-.76,1.29-1.56,1.91-2.39l-.23,0c-1.12-.11-1.53-.77-3.13-.63a24.92,24.92,0,0,0-5.7,1.79,18.92,18.92,0,0,1-5.67,1.52,14.5,14.5,0,0,1-5.82-1.57l-.4-.19h-.06l-.17-.12a55.33,55.33,0,0,0-5-2.59C297.5,102.14,296,101.81,294.12,101.13Z"/><path class="cls-2" d="M323.64,107.07c-3.67.55-5.69.33-9.74,1.25s-11.29-1.43-14.48-3.71c-2.53-1.8-3.69-2.44-5.45-3.53l-.28-.11c1.92,1.3,3.08,1.94,5.72,4,3.19,2.43,10.43,5,14.56,3.92s6.17-.89,9.92-1.57c.42-.62,1-1.4,1.44-2,.16-.25.27-.33.32-.53l-.1,0C324.93,105.51,324.26,106.31,323.64,107.07Z"/><polygon class="cls-2" points="292.49 100.13 292.48 100.13 292.49 100.13 292.49 100.13"/><path class="cls-34" d="M324.67,103.29a31.52,31.52,0,0,0-6.65.83,2.2,2.2,0,0,0-.21.07c-2.48.59-5,1.77-7.53,1.67-3.24-.13-5.44-1.51-8.36-2.87-.63-.3-1.74-1-2.48-1.37l-.41-.21c-.15-.06-.36-.18-.53-.26a9,9,0,0,0-2.68-.86c-.16,0-.4-.07-.52-.09a4.69,4.69,0,0,0-2.72-.08l-.05,0h0l-.06,0-.19.13c-.16.12-.06.15.08.17l.19.05,1.15.43.28.11.15,0c1.85.68,3.38,1,5.27,1.72a55.33,55.33,0,0,1,5,2.59l.23.12.4.19a14.5,14.5,0,0,0,5.82,1.57,18.92,18.92,0,0,0,5.67-1.52,24.92,24.92,0,0,1,5.7-1.79c1.6-.14,2,.52,3.13.63l.23,0,.1,0c.27.08.42.18.58.16a.65.65,0,0,0,.34-.23C327,104.16,324.85,103.3,324.67,103.29Z"/><path class="cls-4" d="M305.4,90.73c-.38,1.26-3.91,1.38-6.79.78s-6.54-2.34-6.11-3.69S297,86.5,300,87.27C302.63,88,305.77,89.48,305.4,90.73Z"/><path class="cls-2" d="M152.83,61.28c3.48-.28,6.26,3.3,6.73,6.59s-1.46,8-5.24,8.27-6.51-3.91-6.62-7.4C147.61,65.62,149.34,61.56,152.83,61.28Z"/><path class="cls-2" d="M127.6,68c3.38-1.16,7.25,2.08,8.56,5.18,1.41,3.34-.33,8.54-4,9.51s-7-2.68-7.85-6C123.53,73.7,124.23,69.15,127.6,68Z"/><path class="cls-35" d="M152.77,64.71c2.26-.62,4.63,1.63,5.43,4s.22,6-2.24,6.63-4.88-2-5.47-4.56C150,68.48,150.51,65.34,152.77,64.71Z"/><path class="cls-35" d="M128.72,71.68c2.25-.66,4.65,1.57,5.48,3.88s.29,6-2.16,6.65-4.91-2-5.53-4.49C126,75.48,126.46,72.33,128.72,71.68Z"/><path d="M152.91,66c2-.54,4,1.41,4.69,3.42s.19,5.15-1.93,5.71-4.22-1.76-4.73-3.93C150.49,69.24,151,66.53,152.91,66Z"/><circle class="cls-2" cx="154.59" cy="68.24" r="0.95"/><path d="M129.55,72.93c2-.54,4,1.41,4.69,3.41s.19,5.15-1.93,5.72-4.22-1.77-4.72-3.94C127.13,76.18,127.6,73.47,129.55,72.93Z"/><circle class="cls-2" cx="131.23" cy="75.18" r="0.95"/><path class="cls-2" d="M326.66,76.06c3.15,1.33,3.95,5.69,2.88,8.76s-4.89,6.27-8.29,4.81-3.89-6.33-2.4-9.41C320.17,77.47,323.5,74.73,326.66,76.06Z"/><path class="cls-35" d="M325.06,79c2.25.48,3.29,3.51,2.94,5.88s-2.51,5.28-4.94,4.74-3.32-4-2.69-6.42C320.92,81,322.81,78.53,325.06,79Z"/><path d="M324.61,80.18c1.94.41,2.84,3,2.53,5.08s-2.16,4.55-4.25,4.09-2.87-3.43-2.33-5.55C321,81.91,322.67,79.77,324.61,80.18Z"/><path class="cls-2" d="M303.15,72.9c3.52.69,5.23,5.46,4.81,8.81-.47,3.59-4.59,7.23-8.27,6.21s-4.7-5.84-3.77-9.16C296.74,75.79,299.64,72.2,303.15,72.9Z"/><path class="cls-35" d="M302.26,76.65c2.29.58,3.24,3.72,2.79,6.14s-2.75,5.31-5.22,4.67-3.26-4.19-2.53-6.68C298,78.56,300,76.08,302.26,76.65Z"/><path d="M302.35,78.16c2,.52,2.76,3.24,2.35,5.32s-2.43,4.56-4.56,4-2.76-3.65-2.11-5.79C298.62,79.76,300.39,77.65,302.35,78.16Z"/><path class="cls-4" d="M161.42,74.14c.44,1.17-2.18,3.28-4.71,4.48s-6.31,2-6.76.68,2.65-3.56,5.36-4.68C157.73,73.62,161,73,161.42,74.14Z"/><path class="cls-4" d="M139.11,82.94c.35,1.84-2.53,3.83-5.23,4.53s-6.67.31-7-1.68,3-4,5.9-4.58C135.34,80.73,138.76,81.1,139.11,82.94Z"/><ellipse class="cls-36" cx="128.37" cy="88.55" rx="4.63" ry="3.86" transform="translate(-18.91 37.29) rotate(-15.41)"/><ellipse class="cls-36" cx="159.82" cy="80.68" rx="4.63" ry="3.86" transform="translate(-15.69 45.36) rotate(-15.41)"/><path class="cls-4" d="M307.35,90c-.32,1.26-3.85,1.53-6.75,1.06S294,89,294.34,87.6s4.4-1.51,7.42-.87C304.46,87.3,307.66,88.69,307.35,90Z"/><path class="cls-4" d="M331.43,90.66c-.09,1.31-3.51,2.2-6.45,2.25s-6.89-.86-6.76-2.27,4.07-2.26,7.15-2.17C328.12,88.56,331.52,89.36,331.43,90.66Z"/><path class="cls-4" d="M337.34,99.59c-1.64,2.8-5.65,1.69-6.85-3.16-1.9-7.67,2.73-12.76,5.88-13.55,3.81-.94,7.72,3.93,1.8,8.46C335.55,93.34,338.69,97.28,337.34,99.59Z"/><path class="cls-4" d="M282.65,93.37c.62,3,4.52,3.19,7-.77,4-6.25,1.39-12.17-1.18-13.81-3.11-2-8,1.19-4.13,7C286.11,88.35,282.13,90.91,282.65,93.37Z"/><ellipse class="cls-32" cx="306.56" cy="46.83" rx="11.94" ry="2.89" transform="translate(239.51 349.61) rotate(-86.2)"/><ellipse class="cls-32" cx="311.31" cy="47.21" rx="11.94" ry="3.18" transform="translate(243.62 354.71) rotate(-86.21)"/><ellipse class="cls-32" cx="318.03" cy="48.42" rx="11.89" ry="3.19" transform="translate(197.87 346.84) rotate(-76.73)"/><ellipse class="cls-32" cx="322.53" cy="49.03" rx="11.94" ry="3.16" transform="translate(252.28 367.62) rotate(-86.21)"/><ellipse class="cls-32" cx="314.72" cy="47.05" rx="10.1" ry="1.46" transform="translate(246.77 357.93) rotate(-86.17)"/><ellipse class="cls-32" cx="303.52" cy="45.84" rx="10.1" ry="1.46" transform="translate(237.52 345.61) rotate(-86.17)"/><ellipse class="cls-32" cx="326.48" cy="51.86" rx="10.1" ry="2.04" transform="translate(253.01 374.17) rotate(-86.19)"/><ellipse class="cls-32" cx="313.24" cy="47.62" rx="2.89" ry="7.96"/><ellipse class="cls-32" cx="308.48" cy="47.66" rx="3.18" ry="7.96"/><ellipse class="cls-32" cx="301.69" cy="48.17" rx="3.13" ry="8.07" transform="translate(-1.95 81.91) rotate(-15.41)"/><ellipse class="cls-32" cx="297.16" cy="48.37" rx="3.16" ry="7.96"/><ellipse class="cls-32" cx="305.08" cy="47.4" rx="1.46" ry="6.73"/><ellipse class="cls-32" cx="316.35" cy="47.09" rx="1.46" ry="6.73"/><ellipse class="cls-32" cx="293.04" cy="50.08" rx="2.04" ry="6.73"/><ellipse class="cls-32" cx="331.2" cy="50.83" rx="8.76" ry="2.87" transform="matrix(0.18, -0.98, 0.98, 0.18, 221.21, 367.35)"/><ellipse class="cls-32" cx="326.47" cy="50.44" rx="8.76" ry="3.15" transform="translate(216.93 362.1) rotate(-79.42)"/><ellipse class="cls-32" cx="319.64" cy="50.37" rx="3.19" ry="8.66" transform="translate(-2.38 18.56) rotate(-3.31)"/><ellipse class="cls-32" cx="315.1" cy="50.18" rx="8.76" ry="3.13" transform="translate(207.96 350.73) rotate(-79.43)"/><ellipse class="cls-32" cx="323.15" cy="49.85" rx="7.4" ry="1.45" transform="translate(217.79 359.38) rotate(-79.97)"/><ellipse class="cls-32" cx="334.38" cy="50.54" rx="7.4" ry="1.45" transform="translate(226.38 371.02) rotate(-79.97)"/><ellipse class="cls-32" cx="310.69" cy="51.65" rx="7.4" ry="2.03" transform="translate(204.64 348.22) rotate(-79.76)"/><ellipse class="cls-32" cx="294.35" cy="52.96" rx="4.97" ry="1.2" transform="translate(178.4 328.64) rotate(-77.39)"/><ellipse class="cls-32" cx="292.41" cy="52.55" rx="4.97" ry="1.32" transform="translate(177.24 326.41) rotate(-77.38)"/><ellipse class="cls-32" cx="289.58" cy="52.24" rx="4.95" ry="1.33" transform="translate(221.57 338.53) rotate(-86.86)"/><ellipse class="cls-32" cx="287.71" cy="51.95" rx="4.97" ry="1.31" transform="translate(174.15 321.36) rotate(-77.38)"/><ellipse class="cls-32" cx="291.07" cy="52.08" rx="4.2" ry="0.61" transform="translate(176.82 324.81) rotate(-77.42)"/><ellipse class="cls-32" cx="295.68" cy="52.92" rx="4.2" ry="0.61" transform="translate(179.62 329.97) rotate(-77.42)"/><ellipse class="cls-32" cx="285.81" cy="52.62" rx="4.2" ry="0.85" transform="translate(172.11 320.07) rotate(-77.4)"/><ellipse class="cls-32" cx="338.76" cy="54.59" rx="4.97" ry="1.2" transform="translate(211.52 373.26) rotate(-77.39)"/><ellipse class="cls-32" cx="336.82" cy="54.19" rx="4.97" ry="1.32" transform="matrix(0.22, -0.98, 0.98, 0.22, 210.35, 371.03)"/><ellipse class="cls-32" cx="333.99" cy="53.88" rx="4.95" ry="1.33" transform="translate(261.91 384.42) rotate(-86.86)"/><ellipse class="cls-32" cx="332.12" cy="53.59" rx="4.97" ry="1.31" transform="translate(207.26 365.98) rotate(-77.38)"/><ellipse class="cls-32" cx="335.48" cy="53.72" rx="4.2" ry="0.61" transform="translate(209.95 369.43) rotate(-77.42)"/><ellipse class="cls-32" cx="340.09" cy="54.55" rx="4.2" ry="0.61" transform="translate(212.75 374.59) rotate(-77.42)"/><ellipse class="cls-32" cx="330.22" cy="54.26" rx="4.2" ry="0.85" transform="translate(205.23 364.69) rotate(-77.4)"/><ellipse class="cls-32" cx="318.78" cy="59.48" rx="4.97" ry="1.2" transform="translate(147.54 334.86) rotate(-68.69)"/><ellipse class="cls-32" cx="316.93" cy="58.78" rx="4.97" ry="1.32" transform="translate(146.96 332.66) rotate(-68.68)"/><ellipse class="cls-32" cx="314.18" cy="58.05" rx="4.95" ry="1.33" transform="translate(192.94 353.65) rotate(-78.17)"/><ellipse class="cls-32" cx="312.37" cy="57.48" rx="4.97" ry="1.31" transform="translate(145.27 327.59) rotate(-68.68)"/><ellipse class="cls-32" cx="315.67" cy="58.12" rx="4.2" ry="0.61" transform="translate(146.95 331.17) rotate(-68.72)"/><ellipse class="cls-32" cx="320.11" cy="59.64" rx="4.2" ry="0.61" transform="translate(148.36 336.28) rotate(-68.72)"/><ellipse class="cls-32" cx="310.39" cy="57.86" rx="4.2" ry="0.85" transform="translate(143.76 326.04) rotate(-68.71)"/><ellipse class="cls-32" cx="310.25" cy="56.42" rx="4.97" ry="1.2" transform="translate(175.95 341.73) rotate(-75.1)"/><ellipse class="cls-32" cx="308.32" cy="55.93" rx="4.97" ry="1.32" transform="translate(174.95 339.49) rotate(-75.09)"/><ellipse class="cls-32" cx="305.51" cy="55.51" rx="4.95" ry="1.33" transform="translate(221.36 354.41) rotate(-84.57)"/><ellipse class="cls-32" cx="303.65" cy="55.15" rx="4.97" ry="1.31" transform="translate(172.24 334.4) rotate(-75.09)"/><ellipse class="cls-32" cx="307" cy="55.41" rx="4.2" ry="0.61" transform="translate(174.65 337.9) rotate(-75.13)"/><ellipse class="cls-32" cx="311.58" cy="56.43" rx="4.2" ry="0.61" transform="translate(177.07 343.09) rotate(-75.13)"/><ellipse class="cls-32" cx="301.72" cy="55.74" rx="4.2" ry="0.85" transform="translate(170.34 333.02) rotate(-75.11)"/><ellipse class="cls-32" cx="326.89" cy="58.42" rx="4.97" ry="1.2" transform="translate(240.88 379.16) rotate(-85.12)"/><ellipse class="cls-32" cx="324.91" cy="58.28" rx="4.97" ry="1.32" transform="translate(239.17 377.05) rotate(-85.11)"/><ellipse class="cls-32" cx="322.07" cy="58.36" rx="1.33" ry="4.95" transform="translate(-3.64 26) rotate(-4.6)"/><ellipse class="cls-32" cx="320.17" cy="58.33" rx="4.97" ry="1.31" transform="translate(234.79 372.37) rotate(-85.11)"/><ellipse class="cls-32" cx="323.51" cy="58" rx="4.2" ry="0.61" transform="translate(238.37 375.45) rotate(-85.15)"/><ellipse class="cls-32" cx="328.2" cy="58.21" rx="4.2" ry="0.61" transform="translate(242.46 380.31) rotate(-85.15)"/><ellipse class="cls-32" cx="318.37" cy="59.24" rx="4.2" ry="0.85" transform="translate(232.35 371.45) rotate(-85.14)"/><ellipse class="cls-32" cx="334.85" cy="58.42" rx="4.97" ry="1.2" transform="translate(248.17 387.09) rotate(-85.12)"/><ellipse class="cls-32" cx="332.87" cy="58.28" rx="4.97" ry="1.32" transform="translate(246.45 384.98) rotate(-85.11)"/><ellipse class="cls-32" cx="330.03" cy="58.36" rx="1.33" ry="4.95" transform="translate(-3.62 26.64) rotate(-4.6)"/><ellipse class="cls-32" cx="328.14" cy="58.33" rx="4.97" ry="1.31" transform="translate(242.08 380.3) rotate(-85.11)"/><ellipse class="cls-32" cx="331.48" cy="58" rx="4.2" ry="0.61" transform="translate(245.66 383.39) rotate(-85.15)"/><ellipse class="cls-32" cx="336.16" cy="58.21" rx="4.2" ry="0.61" transform="translate(249.75 388.25) rotate(-85.15)"/><ellipse class="cls-32" cx="326.34" cy="59.24" rx="4.2" ry="0.85" transform="translate(239.64 379.38) rotate(-85.14)"/><ellipse class="cls-32" cx="301.68" cy="53.94" rx="4.97" ry="1.2" transform="matrix(0.09, -1, 1, 0.09, 222.29, 349.95)"/><ellipse class="cls-32" cx="299.71" cy="53.8" rx="4.97" ry="1.32" transform="translate(220.58 347.83) rotate(-85.11)"/><ellipse class="cls-32" cx="296.86" cy="53.88" rx="1.33" ry="4.95" transform="translate(-3.36 23.97) rotate(-4.6)"/><ellipse class="cls-32" cx="294.97" cy="53.84" rx="4.97" ry="1.31" transform="translate(216.2 343.16) rotate(-85.11)"/><ellipse class="cls-32" cx="298.31" cy="53.52" rx="4.2" ry="0.61" transform="matrix(0.08, -1, 1, 0.08, 219.76, 346.24)"/><ellipse class="cls-32" cx="303" cy="53.72" rx="4.2" ry="0.61" transform="translate(223.85 351.1) rotate(-85.15)"/><ellipse class="cls-32" cx="293.17" cy="54.76" rx="4.2" ry="0.85" transform="translate(213.75 342.23) rotate(-85.14)"/><ellipse class="cls-32" cx="300.45" cy="46.65" rx="1.66" ry="10.46" transform="translate(-3.32 33.53) rotate(-6.35)"/><circle class="cls-2" cx="302.75" cy="80.69" r="0.66"/><circle class="cls-2" cx="325.31" cy="82.68" r="0.66"/><path class="cls-2" d="M218.58,168.28l3.66-9.53-14-5.4C216,156.34,220.6,163,218.58,168.28Z"/><path class="cls-2" d="M216.67,159.51a1.5,1.5,0,0,0,0-3,1.5,1.5,0,0,0,0,3Z"/><path class="cls-2" d="M216.7,159.56h0l-.39-.05h0l-.36-.15,0,0a1.54,1.54,0,0,0,1.52,0,1.64,1.64,0,0,0,.54-.54,1.54,1.54,0,0,0,.2-.76,1.42,1.42,0,0,0-.45-1.07h0l-.31-.23h0s0,0-.06,0l.31.24a3.49,3.49,0,0,0-.32-.25l0,0,.3.24-.32-.26h0l-.36-.15-.06,0,.36.15c-.13-.05-.25-.12-.39-.16h0l.36.15-.37-.16h0a1.12,1.12,0,0,0-.6,0,1.16,1.16,0,0,0-.56.18,1.18,1.18,0,0,0-.42.38,1.13,1.13,0,0,0-.26.51l-.06.4a1.45,1.45,0,0,0,.21.76l.23.3a1.49,1.49,0,0,0,.66.39h0l-.36-.15c.13.05.25.12.39.16h0l-.36-.15a1.88,1.88,0,0,0,.39.16h0l-.35-.15s0,0,0,0l-.31-.23a3.59,3.59,0,0,0,.33.25l0,0-.3-.23a2.78,2.78,0,0,0,.34.26l0,0-.3-.23h0l-.24-.3h0l-.15-.36h0l-.05-.4h0l2.26-1.29a2.27,2.27,0,0,0-.4-.18h0l-.4-.06h0a1.15,1.15,0,0,0-.58.13,1.11,1.11,0,0,0-.48.31,1.14,1.14,0,0,0-.31.48,1.08,1.08,0,0,0-.13.58l.05.4a1.39,1.39,0,0,0,.39.66l.3.24a1.57,1.57,0,0,0,.76.2Z"/><path class="cls-2" d="M216.28,159.33h.08l-.39-.06h0l-.36-.15.1.05.1.06-.3-.23,0,0a2.69,2.69,0,0,0,.33.26l-.3-.23h0a1.24,1.24,0,0,0,.48.31,1.36,1.36,0,0,0,1.16,0,1.17,1.17,0,0,0,.48-.31l.24-.31a1.5,1.5,0,0,0,.2-.75l-.05-.4a1.39,1.39,0,0,0-.39-.66,1.82,1.82,0,0,0-.16-.13l-.16-.12.3.23,0,0,0,0-.31-.24h0l-.05,0,0,0,0,0h0l-.36-.15h0l-.42-.06h-.07a1.22,1.22,0,0,0-.57.13,1.32,1.32,0,0,0-.8.8,1.25,1.25,0,0,0-.13.57l.06.4a1.54,1.54,0,0,0,.38.67l.31.23a1.41,1.41,0,0,0,.75.2Z"/><path class="cls-2" d="M216.73,159.58a1.5,1.5,0,0,0,0-3,1.5,1.5,0,0,0,0,3Z"/><path class="cls-2" d="M216.79,159.63a1.5,1.5,0,0,0,0-3,1.5,1.5,0,0,0,0,3Z"/><path class="cls-2" d="M216.72,159.58a1.5,1.5,0,0,0,0-3,1.5,1.5,0,0,0,0,3Z"/><path class="cls-2" d="M216.59,159.5a1.5,1.5,0,0,0,0-3,1.5,1.5,0,0,0,0,3Z"/><path class="cls-2" d="M216.83,159.64a1.5,1.5,0,0,0,0-3,1.5,1.5,0,0,0,0,3Z"/><path class="cls-2" d="M216.85,159.68a1.5,1.5,0,0,0,0-3,1.5,1.5,0,0,0,0,3Z"/><path class="cls-2" d="M216.92,159.75a1.5,1.5,0,0,0,0-3,1.5,1.5,0,0,0,0,3Z"/><path class="cls-2" d="M220,167.09a1.5,1.5,0,0,0,0-3,1.5,1.5,0,0,0,0,3Z"/><path class="cls-2" d="M220,167.15a1.5,1.5,0,0,0,0-3,1.5,1.5,0,0,0,0,3Z"/><path class="cls-2" d="M220,167a1.5,1.5,0,0,0,0-3,1.5,1.5,0,0,0,0,3Z"/><path class="cls-2" d="M220,167a1.5,1.5,0,0,0,0-3,1.5,1.5,0,0,0,0,3Z"/><path class="cls-2" d="M220,167.09a1.5,1.5,0,0,0,0-3,1.5,1.5,0,0,0,0,3Z"/><path class="cls-37" d="M21.11,415.5h503.6c-.69-13.81-8.3-28.59-21.15-40.55-1.13-23.07-22.68-44-52-48.76-1.68-.27-3.35-.47-5-.63-20.23-11.76-46.92-19.71-81-19.71-16.31,0-29.12,2.11-39.17,5.75a180.25,180.25,0,0,0-50.59-6.77c-19.58,0-34.12,3-44.9,8.13a187.46,187.46,0,0,0-39.69-4,138.67,138.67,0,0,0-26.65,2.33c-17.35-6.84-38.27-11.06-63.11-11.06-34.73,0-53.6,9.55-63.73,23.22C16.36,330.66,1,350.56,1,374A53,53,0,0,0,21.11,415.5Z"/><path class="cls-38" d="M97.37,388.52c-.53-.84-.31-1.18-1.16-1.87s-.95-2-2.29-2.23c-.87-.53-1.13-2.09-1.9-2.52s-1.06-.11-1.78-.37a26.81,26.81,0,0,0-3.58-1.75c-1-.35-1.09,0-1.6.66-.74-.25-1.27-.87-2.14-.86a2.53,2.53,0,0,0-2,.86c-1.44,1.26-1.26-2.13-2.69,1s-.94,8.89-.09,12.26a1.18,1.18,0,0,0-1.35.23c-.75.89.56,2.42,1.31,3.13a4.82,4.82,0,0,0,2.38,1.1,4.81,4.81,0,0,0,1.59,1.69c.93.52,3,1.39,3.62.32a1.16,1.16,0,0,0-.23-1.36c2.41-.14,3.67-.73,6.25-1.32,2.83-.65,4.7-3.77,6.57-6A6,6,0,0,0,97.37,388.52Z"/><path class="cls-39" d="M79.53,381.13c.41,0,.63,2.05.49,4.53s-.8,8.62-1.21,8.6-.4-6.2-.27-8.68S79.12,381.1,79.53,381.13Z"/><path class="cls-39" d="M82.28,380.21c.4.06.37,2.35-.07,5.09s-1.86,9.53-2.26,9.47.36-6.95.8-9.7S81.87,380.14,82.28,380.21Z"/><path class="cls-39" d="M84.61,380.47c.39.11.13,2.42-.6,5.16s-2.84,9.48-3.24,9.38,1.09-7,1.81-9.76S84.21,380.37,84.61,380.47Z"/><path class="cls-39" d="M86.91,380.8c.38.14-.15,2.5-1.19,5.27s-3.92,9.54-4.31,9.39,1.89-7.14,2.92-9.91S86.52,380.66,86.91,380.8Z"/><path class="cls-39" d="M89.15,381.55c.37.18-.4,2.47-1.71,5.12s-4.85,9.07-5.22,8.89,2.59-6.9,3.9-9.55S88.78,381.36,89.15,381.55Z"/><path class="cls-39" d="M91.32,382.64c.34.22-.68,2.44-2.29,5s-5.89,8.61-6.23,8.39,3.37-6.67,5-9.19S91,382.42,91.32,382.64Z"/><path class="cls-39" d="M93.25,384c.32.26-.93,2.37-2.78,4.71s-6.74,8-7.06,7.72,4-6.29,5.89-8.64S92.93,383.75,93.25,384Z"/><path class="cls-39" d="M95,385.64c.29.28-1.14,2.24-3.2,4.37s-7.41,7.2-7.7,6.91,4.58-5.81,6.64-7.94S94.67,385.36,95,385.64Z"/><path class="cls-39" d="M96.27,388.19c.25.32-1.36,2-3.6,3.79s-8,5.92-8.27,5.6,5.11-5,7.35-6.76S96,387.87,96.27,388.19Z"/><path class="cls-39" d="M97.72,391.13c.2.36-1.6,1.72-4,3s-8.59,4.28-8.78,3.92,5.66-3.91,8.08-5.23S97.53,390.77,97.72,391.13Z"/><path class="cls-38" d="M353.19,377c.89-.9.72-1.42,2-2s1.73-2.18,3.44-2.05c1.23-.39,2-2.31,3.06-2.58s1.33.23,2.28.15a30.24,30.24,0,0,1,4.89-1c1.38-.07,1.33.39,1.77,1.43,1-.06,1.81-.67,2.86-.35a3.39,3.39,0,0,1,2.17,1.83c1.4,2.13,2.16-2.32,3,2.21s-1.39,11.84-3.39,15.89a1.53,1.53,0,0,1,1.59.78c.66,1.42-1.39,2.93-2.5,3.58a5.7,5.7,0,0,1-3.24.58,5.72,5.72,0,0,1-2.43,1.61c-1.29.34-4.07.71-4.53-.89a1.59,1.59,0,0,1,.67-1.68c-2.9-1-4.28-2.25-7.28-3.94-3.27-1.85-4.68-6.56-6.33-10.11A8,8,0,0,1,353.19,377Z"/><path class="cls-39" d="M377.17,373.83c-.51-.12-1.36,2.43-1.9,5.68s-1.48,11.45-1,11.56,2.26-7.87,2.8-11.13S377.67,374,377.17,373.83Z"/><path class="cls-39" d="M374.06,371.66c-.51-.06-1.13,2.9-1.37,6.61s-.45,13,.06,13.05,1.55-9.11,1.8-12.83S374.58,371.72,374.06,371.66Z"/><path class="cls-39" d="M371.14,371.16c-.52,0-.85,3.08-.75,6.89s.77,13.28,1.28,13.29.68-9.46.58-13.27S371.65,371.17,371.14,371.16Z"/><path class="cls-39" d="M368.22,370.76c-.51.05-.54,3.29-.06,7.25s2.09,13.74,2.6,13.69-.27-9.91-.75-13.87S368.73,370.71,368.22,370.76Z"/><path class="cls-39" d="M365.26,370.92c-.5.11-.22,3.35.62,7.24s3.36,13.48,3.86,13.38-1.19-9.86-2-13.75S365.76,370.82,365.26,370.92Z"/><path class="cls-39" d="M362.29,371.56c-.49.16.13,3.4,1.38,7.25s4.75,13.25,5.24,13.09-2.23-9.83-3.48-13.68S362.78,371.4,362.29,371.56Z"/><path class="cls-39" d="M359.54,372.63c-.47.21.45,3.39,2.06,7.09s6,12.73,6.43,12.52-3.14-9.59-4.74-13.29S360,372.42,359.54,372.63Z"/><path class="cls-39" d="M357,374.14c-.44.26.75,3.3,2.67,6.8s7,12,7.46,11.7-4-9.16-5.86-12.65S357.41,373.87,357,374.14Z"/><path class="cls-39" d="M354.64,377c-.4.33,1.09,3.1,3.32,6.19s8.13,10.52,8.53,10.2-4.83-8.28-7.07-11.37S355,376.65,354.64,377Z"/><path class="cls-39" d="M352,380.25c-.34.39,1.48,2.79,4.07,5.36s9.31,8.62,9.65,8.22-5.82-7.09-8.41-9.65S352.36,379.85,352,380.25Z"/><path class="cls-38" d="M139.94,322.26c-.74,0-.87-.28-1.65,0s-1.62-.18-2.32.56c-.7.33-1.78-.13-2.37.19s-.49.63-.95,1a18.71,18.71,0,0,0-2.54,1.56c-.65.52-.44.69-.23,1.28-.46.37-1.06.45-1.4,1a1.89,1.89,0,0,0-.24,1.6c.21,1.41-1.87-.06-.47,2.09s5.24,4.17,7.72,5a.92.92,0,0,0-.4.95c.26.83,1.76.62,2.51.43a3.74,3.74,0,0,0,1.66-1.06,3.66,3.66,0,0,0,1.71-.34c.7-.37,2.08-1.34,1.65-2.16a.87.87,0,0,0-1-.4,24.65,24.65,0,0,0,1.67-4.49c.73-2-.49-4.48-1.16-6.56A4.5,4.5,0,0,0,139.94,322.26Z"/><path class="cls-39" d="M128.09,330.58c.18-.25,1.56.43,3.07,1.51s5.14,4,5,4.23-4.09-2.24-5.6-3.32S127.92,330.83,128.09,330.58Z"/><path class="cls-39" d="M128.62,328.48c.2-.23,1.63.7,3.2,2.08s5.28,5,5.08,5.24-4.25-3-5.82-4.4S128.41,328.71,128.62,328.48Z"/><path class="cls-39" d="M129.72,327.11c.22-.21,1.58.89,3,2.45s4.86,5.6,4.63,5.81-4-3.5-5.45-5.06S129.49,327.32,129.72,327.11Z"/><path class="cls-39" d="M130.85,325.78c.25-.18,1.53,1.1,2.87,2.87s4.45,6.32,4.21,6.5-3.76-4.06-5.1-5.83S130.61,326,130.85,325.78Z"/><path class="cls-39" d="M132.23,324.66c.26-.16,1.4,1.25,2.55,3.14s3.8,6.72,3.54,6.88-3.33-4.41-4.49-6.3S132,324.82,132.23,324.66Z"/><path class="cls-39" d="M133.79,323.73c.28-.13,1.27,1.41,2.23,3.44s3.08,7.19,2.81,7.32-2.87-4.81-3.82-6.85S133.51,323.86,133.79,323.73Z"/><path class="cls-39" d="M135.43,323.05c.29-.1,1.12,1.54,1.86,3.66s2.35,7.46,2.06,7.57-2.37-5.09-3.11-7.21S135.14,323.15,135.43,323.05Z"/><path class="cls-39" d="M137.15,322.63c.3-.07,1,1.62,1.49,3.78s1.57,7.58,1.27,7.65-1.83-5.23-2.35-7.39S136.85,322.7,137.15,322.63Z"/><path class="cls-39" d="M139.29,322.83c.31,0,.74,1.67,1,3.8s.52,7.45.22,7.48-1.11-5.24-1.33-7.37S139,322.86,139.29,322.83Z"/><path class="cls-39" d="M141.74,323.08c.31,0,.44,1.71.3,3.77s-.74,7.16-1,7.14-.2-5.15-.06-7.21S141.43,323.06,141.74,323.08Z"/><path class="cls-40" d="M301.13,367.15a4.18,4.18,0,0,1-5.85-.87c-1.49-1.87-2.81-6.4-1.07-7.79s5.87.9,7.36,2.77A4.19,4.19,0,0,1,301.13,367.15Z"/><path class="cls-41" d="M287.05,359.86c-2.3-.81-3.84-2.39-3.44-3.53s3-2.54,5.29-1.73,3.44,3.54,3,4.67S289.35,360.67,287.05,359.86Z"/><path class="cls-42" d="M284.17,379.69c-2-1.42-3-3.37-2.31-4.35s3.59-1.6,5.57-.17,2.31,4.36,1.6,5.34S286.15,381.12,284.17,379.69Z"/><path class="cls-43" d="M300.77,346.07a3.55,3.55,0,0,1-3-4c.39-1.73,2.77-4.53,4.82-4.06s3,4,2.62,5.73A3.56,3.56,0,0,1,300.77,346.07Z"/><path class="cls-41" d="M293.39,383.52c-1.82-.41-3-1.9-2.7-3.33s2.38-3.72,4.19-3.31,2.7,3.35,2.38,4.78S295.2,383.93,293.39,383.52Z"/><path class="cls-44" d="M279.07,349.4c-.33-2.42.37-4.51,1.56-4.68s3.63,1.5,4,3.92-1.58,4.68-2.77,4.84S279.4,351.81,279.07,349.4Z"/><ellipse class="cls-41" cx="284.85" cy="341.19" rx="2.35" ry="2.88" transform="translate(-56.18 56.15) rotate(-10.25)"/><ellipse class="cls-41" cx="299.89" cy="379.25" rx="2.35" ry="2.88" transform="translate(-62.72 59.44) rotate(-10.25)"/><ellipse class="cls-41" cx="292.65" cy="339.2" rx="3.5" ry="4.6" transform="translate(-153.58 299.46) rotate(-44.12)"/><ellipse class="cls-41" cx="303.02" cy="372.25" rx="2.7" ry="4.6" transform="matrix(0.96, -0.27, 0.27, 0.96, -89.31, 95.72)"/><ellipse class="cls-41" cx="258.84" cy="362.96" rx="1.71" ry="2.1" transform="translate(-33.78 26.64) rotate(-5.53)"/><ellipse class="cls-41" cx="264.24" cy="362.43" rx="2.96" ry="2.1" transform="translate(-33.71 27.16) rotate(-5.53)"/><path class="cls-42" d="M254.83,364.16a2.59,2.59,0,0,0-3,2.07c-.12,1.29.89,3.76,2.42,3.91s3-2.09,3.11-3.38A2.6,2.6,0,0,0,254.83,364.16Z"/><path class="cls-41" d="M251.62,363.19c-.19-1.39-2-2.29-4-2s-5.57,1.91-5.38,3.3,4,2,6.07,1.74S251.81,364.59,251.62,363.19Z"/><ellipse class="cls-40" cx="253.06" cy="352.63" rx="2.55" ry="2.51" transform="translate(-137.11 162.47) rotate(-28.35)"/><ellipse class="cls-41" cx="254.49" cy="374.63" rx="2.55" ry="3.35" transform="translate(-66.55 55.18) rotate(-10.95)"/><ellipse class="cls-41" cx="253.95" cy="359.86" rx="2.43" ry="3.42" transform="translate(-154.18 194.28) rotate(-32.71)"/><path class="cls-41" d="M192.51,390c-.31-3,.78-5.62,2.43-5.79s4.93,2,5.24,5-2.45,5.79-4.11,6S192.82,393.05,192.51,390Z"/><path class="cls-40" d="M196.64,382.79a3.9,3.9,0,0,1-4.82-2.74c-.45-2,.51-6.18,2.72-6.71s4.82,2.78,5.27,4.82A4,4,0,0,1,196.64,382.79Z"/><path class="cls-41" d="M211.12,363.25a2.84,2.84,0,0,1-4.14-.06c-.94-1.2-1.59-4.34-.25-5.5s4.15.08,5.1,1.28A3.19,3.19,0,0,1,211.12,363.25Z"/><path class="cls-41" d="M226.58,364.11a2.89,2.89,0,0,1-4-1.26c-.6-1.43-.4-4.62,1.2-5.35s4,1.29,4.58,2.71A3.11,3.11,0,0,1,226.58,364.11Z"/><path class="cls-41" d="M226.36,381.28a2.9,2.9,0,0,1-3.94-1.36c-.57-1.44-.29-4.63,1.32-5.32s3.95,1.39,4.52,2.83A3.11,3.11,0,0,1,226.36,381.28Z"/><path class="cls-41" d="M223.4,388.66c-1.43.74-3.33-.25-4.25-2.2s-1.43-6.1,0-6.84,4.26,2.23,5.18,4.18S224.84,387.93,223.4,388.66Z"/><path class="cls-41" d="M198.41,358.71c-1.1,1.78-3,2.52-4.21,1.67s-2.54-3.84-1.44-5.61,4.23-1.66,5.45-.81S199.52,356.94,198.41,358.71Z"/><path class="cls-41" d="M195.31,351.82c-1.85-.87-3-2.36-2.64-3.32s2.63-2,4.48-1.13,2.64,3.33,2.24,4.29S197.17,352.69,195.31,351.82Z"/><path class="cls-45" d="M221,353c-.13-2.13.57-3.9,1.57-4s2.91,1.57,3.05,3.69-1.58,4-2.58,4S221.13,355.11,221,353Z"/><ellipse class="cls-41" cx="223.33" cy="345.54" rx="1.95" ry="2.52" transform="translate(-34.25 24.72) rotate(-5.89)"/><ellipse class="cls-44" cx="216.91" cy="375.91" rx="2.9" ry="3.02" transform="translate(-37.4 24.22) rotate(-5.89)"/><ellipse class="cls-42" cx="204.05" cy="353.07" rx="2.91" ry="4" transform="translate(-110.66 93.74) rotate(-20.49)"/><ellipse class="cls-41" cx="225.84" cy="369.96" rx="2.91" ry="4" transform="translate(-115.19 102.43) rotate(-20.49)"/><ellipse class="cls-41" cx="213.08" cy="368.12" rx="2.77" ry="4.1" transform="matrix(1, -0.04, 0.04, 1, -13.62, 8.22)"/><ellipse class="cls-41" cx="195.51" cy="367.54" rx="3.37" ry="4.52" transform="translate(-36.66 21.99) rotate(-5.89)"/><path class="cls-7" d="M355.11,329c2.21-3.95,7.58-5.14,12-2.67s13.58,11.8,11.37,15.75-15,1-19.38-1.45S352.9,333,355.11,329Z"/><path class="cls-46" d="M358.61,330.52c1.84-3.28,6.26-4.31,9.88-2.29s11.11,9.72,9.27,13-12.32.92-15.93-1.1S356.77,333.81,358.61,330.52Z"/><path class="cls-47" d="M361.69,332.6a5.25,5.25,0,0,1,7.17-1.89c2.57,1.43,7.83,7,6.44,9.5s-8.91.93-11.48-.51A5.25,5.25,0,0,1,361.69,332.6Z"/><path class="cls-48" d="M364.6,333.81a3.46,3.46,0,0,1,4.76-1c1.76,1,5.43,4.69,4.57,6.23s-5.94.35-7.7-.64A3.45,3.45,0,0,1,364.6,333.81Z"/><path class="cls-7" d="M367.38,335.29a2.46,2.46,0,0,1,3.4-.56c1.29.72,4,3.36,3.46,4.4s-4.27.07-5.56-.65A2.46,2.46,0,0,1,367.38,335.29Z"/><path class="cls-7" d="M410.55,362.69c3.84-3.8,9.47-.8,13.29,2.84s7.13,27.9,0,23.66-5.17-8-11.68-12.35S406.72,366.49,410.55,362.69Z"/><path class="cls-48" d="M412.2,364.7c3.13-3.11,7.74-.66,10.86,2.33s5.83,22.81,0,19.34-4.23-6.54-9.55-10.1S409.06,367.81,412.2,364.7Z"/><path class="cls-47" d="M413.81,367.14c2.69-2.66,6.64-.56,9.31,2s5,19.54,0,16.57-3.63-5.6-8.19-8.65S411.13,369.81,413.81,367.14Z"/><path class="cls-46" d="M415.61,369.27c2.24-2.22,5.53-.47,7.77,1.66s4.17,16.31,0,13.84-3-4.68-6.83-7.23S413.36,371.49,415.61,369.27Z"/><path class="cls-49" d="M417.49,371c1.67-1.66,4.17-.32,5.87,1.31s3.27,12.35.08,10.45-2.32-3.56-5.21-5.51S415.81,372.7,417.49,371Z"/><path class="cls-7" d="M81.41,332.7c-3.65,1-3.75,5.53-2.83,9.13s14.68,14,14.55,8.1S90,344,89.56,338.52,85.06,331.65,81.41,332.7Z"/><path class="cls-48" d="M82.08,334.4c-3,.85-3.07,4.52-2.31,7.47s12,11.41,11.89,6.62-2.56-4.85-2.92-9.33S85.06,333.54,82.08,334.4Z"/><path class="cls-47" d="M83,336.23c-2.56.73-2.63,3.88-2,6.4s10.28,9.78,10.19,5.67-2.2-4.15-2.5-8S85.58,335.49,83,336.23Z"/><path class="cls-46" d="M83.71,338.06c-2.14.61-2.2,3.24-1.65,5.34s8.58,8.17,8.5,4.74-1.83-3.47-2.09-6.68S85.84,337.45,83.71,338.06Z"/><path class="cls-49" d="M84.15,339.82c-1.6.46-1.63,2.46-1.22,4.06s6.46,6.25,6.39,3.64-1.39-2.64-1.59-5.09S85.74,339.36,84.15,339.82Z"/><path class="cls-50" d="M158.88,381.13c0-2.46-7.08-4.49-11-4.85-.12-4-1.34-10.2-3.58-10.45-2-.23-4.29,4.37-5.46,8.15-3.48-.94-12-1.2-12.77,1.34-.57,1.91,3.4,4.86,6.87,6.69-2.64,2.64-5.17,6.11-4.19,7.67,1.44,2.3,9.91-.41,12.85-2.25l.37-.25c2.47,3,8.48,7.8,10.52,6.34,1.43-1,.58-4.87-.75-8.22C155.25,384.43,158.88,382.89,158.88,381.13Z"/><circle class="cls-51" cx="144.26" cy="366.76" r="0.62"/><circle class="cls-51" cx="143.85" cy="368.41" r="0.62"/><circle class="cls-51" cx="143.43" cy="370.06" r="0.62"/><circle class="cls-51" cx="143.02" cy="371.71" r="0.62"/><circle class="cls-51" cx="142.61" cy="373.36" r="0.62"/><circle class="cls-51" cx="142.2" cy="375" r="0.62"/><circle class="cls-51" cx="141.78" cy="376.65" r="0.62"/><circle class="cls-51" cx="141.78" cy="378.3" r="0.62"/><circle class="cls-51" cx="127.84" cy="375.53" r="0.62"/><circle class="cls-51" cx="129.47" cy="376.03" r="0.62"/><circle class="cls-51" cx="131.09" cy="376.53" r="0.62"/><circle class="cls-51" cx="132.72" cy="377.02" r="0.62"/><circle class="cls-51" cx="134.34" cy="377.52" r="0.62"/><circle class="cls-51" cx="135.97" cy="378.02" r="0.62"/><circle class="cls-51" cx="137.59" cy="378.51" r="0.62"/><circle class="cls-51" cx="139.24" cy="378.6" r="0.62"/><circle class="cls-51" cx="130.96" cy="388.87" r="0.62"/><circle class="cls-51" cx="132.35" cy="387.89" r="0.62"/><circle class="cls-51" cx="133.74" cy="386.9" r="0.62"/><circle class="cls-51" cx="135.12" cy="385.92" r="0.62"/><circle class="cls-51" cx="136.51" cy="384.94" r="0.62"/><circle class="cls-51" cx="137.9" cy="383.96" r="0.62"/><circle class="cls-51" cx="139.28" cy="382.98" r="0.62"/><circle class="cls-51" cx="140.36" cy="381.73" r="0.62"/><circle class="cls-51" cx="151.29" cy="391.97" r="0.62"/><circle class="cls-51" cx="150.28" cy="390.61" r="0.62"/><circle class="cls-51" cx="149.26" cy="389.24" r="0.62"/><circle class="cls-51" cx="148.25" cy="387.88" r="0.62"/><circle class="cls-51" cx="147.23" cy="386.52" r="0.62"/><circle class="cls-51" cx="146.22" cy="385.16" r="0.62"/><circle class="cls-51" cx="145.2" cy="383.79" r="0.62"/><circle class="cls-51" cx="143.93" cy="382.75" r="0.62"/><circle class="cls-51" cx="157.22" cy="380.48" r="0.62"/><circle class="cls-51" cx="155.52" cy="380.39" r="0.62"/><circle class="cls-51" cx="153.83" cy="380.29" r="0.62"/><circle class="cls-51" cx="152.13" cy="380.2" r="0.62"/><circle class="cls-51" cx="150.43" cy="380.1" r="0.62"/><circle class="cls-51" cx="148.74" cy="380.01" r="0.62"/><circle class="cls-51" cx="147.04" cy="379.91" r="0.62"/><circle class="cls-51" cx="145.42" cy="380.22" r="0.62"/></g></svg>