<svg id="Layer_1" data-name="Layer 1" xmlns="http://www.w3.org/2000/svg" width="535" height="470" viewBox="0 0 535 470">
  <defs>
    <style>
      .cls-1 {
        fill: #e8c6a7;
      }

      .cls-2 {
        fill: #754c24;
      }

      .cls-3 {
        fill: #fff;
      }

      .cls-4 {
        fill: #bf0a00;
      }

      .cls-5 {
        fill: #ffbdee;
      }

      .cls-6 {
        fill: none;
        stroke: #000;
        stroke-linecap: round;
        stroke-miterlimit: 10;
      }

      .cls-7 {
        fill: #aae2ff;
      }

      .cls-8 {
        fill: #f777f4;
        opacity: 0.3;
      }

      .cls-9 {
        fill: #ffbffe;
      }

      .cls-10 {
        fill: #393a39;
      }

      .cls-11 {
        fill: #b5b5b5;
      }

      .cls-12 {
        fill: #297723;
      }
    </style>
  </defs>
  <g>
    <path class="cls-1" d="M488,83.87c2.39-7.35-12.42-24.75-15.52-16.22s-21.56,34.58-19.35,40.76,4.62,5.23,10.45,5.83S485.56,91.22,488,83.87Z"/>
    <path class="cls-1" d="M472,55.67c.27,3,.22,8.38.45,11.84,5.11,5.62,10.33,10.93,15.56,16.37,4.38-3.67,8.18-5.66,12.54-9.89s9.31-10.43,14-14.82c2.69-5.73,5.92-10.94,9.12-16.36.52-2.52,1.23-5.58.92-8.05s-.93-5.43-3.17-6.28a12,12,0,0,1-5-2.93c-3.27-.84-5.15-1.93-8.53-3.28s-7.06-.41-10.44,1.51c-2.64,5-6.05,11.31-8.43,16s-3.33,8-5.45,12.47c-.95-2.64-2.54-4.29-3.18-7.15s-.33-6.42-.76-9.5c-1.81,0-4-3.81-4.87,0s-2.29,10-4.08,14C471,52.21,471.73,52.66,472,55.67Z"/>
  </g>
  <g>
    <path class="cls-1" d="M59.49,189.07c-5.52-5.42-.39-27.69,6.29-21.55s35.08,20.74,36,27.24-1.69,6.77-6.58,10S65,194.49,59.49,189.07Z"/>
    <path class="cls-1" d="M60.64,156.69c1.15,2.8,3.68,7.53,5.07,10.71-1.94,7.34-4.13,14.46-6.26,21.71-5.58-1.24-9.87-1.26-15.69-3s-13.07-5-19.27-6.68c-5-3.84-10.3-7-15.64-10.31-1.62-2-3.66-4.39-4.53-6.72s-1.68-5.25-.08-7a12,12,0,0,0,3.08-4.9c2.51-2.25,3.67-4.08,6-6.84s6.07-3.62,10-3.47c4.65,3.21,10.58,7.24,14.88,10.33S44.85,156,48.79,159c-.38-2.78.27-5-.48-7.81s-2.67-5.85-3.71-8.78c1.62-.82,1.76-5.21,4.34-2.23s6.63,7.8,10,10.5C59.89,153.18,59.49,153.89,60.64,156.69Z"/>
  </g>
  <g>
    <path class="cls-2" d="M347.34,105c-2.37-9.58-8.62-22.44-16.87-29.52C318.59,57.26,300.28,16,271.11,22.6c-33.1,7.48-57.86,43-57.13,77.8-5.12,9-6.2,23.11-5.68,31.68.78,12.85,3.66,33.22,15.88,37.41,4.17,1.43,4.75-4.68,6.69-6.12,2.72,3.24,6.68,10.63,12.1,9.3s5.66-10,6.36-14.34c1.26,3.54,3.13,14.07,8.36,13.91s5.77-10.78,6.59-14.21c1.45,3,3.56,13.07,8.57,12.39,5.81-.81,5.76-13.17,6.22-17.42,4.36-1,8.7-1.88,13.07-2.74C293.58,154,296,162.8,300.88,163c3.4.17,3.79-5.22,4.72-7.26,1.22,1.54,2.58,4.91,5.17,4.56,3.35-.44,4.19-5.77,4.82-8.39,1.38,1.64,2.47,5.4,5.44,4.84,4.41-.83,5.37-8.14,5.57-11.79,2.2,2.48,5.14,6.49,9,5.41,2.72-.76,2.64-3.32,2.67-5.57,1.76.39,3.35,3.46,5.62,1C352.64,136.2,350.53,117.9,347.34,105Z"/>
    <path class="cls-1" d="M305.17,192.7c-2.15-11.12-7.84-25.62-4.78-37.94a18.3,18.3,0,0,0,11.15-8c3.54-6.12,5.67-9.59,5.31-16.5a6.77,6.77,0,0,0-.17-1.09c-4.13-23.07-10.29-45.82-16-68.51-.43-1.7-.74-3.51-1.24-5C297,48.24,293.18,44.56,285,46.19a377.22,377.22,0,0,0-40.2,10c-7.91,2.52-9.58,7.55-8.52,15.41.47,3.44,1.39,7.07,2,11.19,2.92,18.41,5.47,38.29,11,56.18a40.33,40.33,0,0,0,4.33,10.3c4.26,6.89,11.76,8.47,19.34,8.5,5.13,6.09,2.76,13.24,1.21,19.65-3.81,15.8-3.27,27.77,2.28,42.47,7.11-.19-1.42-16.11-15.44-8.82,10.93,9.32,31.58,5.28,47.09,7.83C307.25,209.33,307.17,203,305.17,192.7Z"/>
    <g>
      <g>
        <path d="M296.72,123.83c-3.43,2.15-15,3.42-18.28,4.54a23.8,23.8,0,0,1-4.73,1.38,18.35,18.35,0,0,1-8.15.15,21.69,21.69,0,0,1-4.38-1.47c2.87,4,5.82,8.21,7.93,10.84,3.41,4.25,4.34,6.15,9.7,6.54s10-.21,14.52-3a18.82,18.82,0,0,0,8-12.23,62.7,62.7,0,0,0,.47-11.64c0-.34-.05-.66-.07-1C301.37,120,300,121.77,296.72,123.83Z"/>
        <path class="cls-3" d="M296,120.69c-3.91,2.12-14.24,1.35-17.45,3a25.81,25.81,0,0,1-4.79,2.23,18.55,18.55,0,0,1-15.5-1.62c1,1.29,2,2.67,3,4.09a21.69,21.69,0,0,0,4.38,1.47,18.35,18.35,0,0,0,8.15-.15,23.8,23.8,0,0,0,4.73-1.38c3.26-1.12,14.85-2.39,18.28-4.54s4.65-3.79,5-5.86c-.09-1.15-.19-2-.24-2.9C300.86,117.09,299.41,118.81,296,120.69Z"/>
        <path class="cls-4" d="M256.16,121.65c1.68-.06.95.2,3.27,0s4.82,1.66,8.25,1.31,7.72-3.47,11.09-5.13,5.13-.51,8.05.6,6.7-.8,9.23-2.32a19.13,19.13,0,0,0,5.56-4.57,19,19,0,0,0-.11,3.27l.09-.08a18,18,0,0,0,.5-3.82c-3.18,2.43-5.63,5-9.66,6.6s-5.27-.51-9.21-1-6.76,2.2-10.7,4.25-12.66,1.1-16.76-.07l-.27-.07a6.89,6.89,0,0,0,2.44,3.43l0-.22C257.3,123.12,256.71,122.35,256.16,121.65Z"/>
        <path class="cls-4" d="M258.07,123.05c3.44,1.56,11.65,2.65,15.41,1.07s6-3.64,9.65-3.4,6.17,1.18,9.72-.08,6.11-3.58,8.65-5.78a19,19,0,0,1,.11-3.27,19.13,19.13,0,0,1-5.56,4.57c-2.53,1.52-6.3,3.42-9.23,2.32s-4.67-2.26-8.05-.6-7.66,4.79-11.09,5.13-5.93-1.46-8.25-1.31-1.59-.11-3.27,0c.55.7,1.14,1.47,1.74,2.28a7.71,7.71,0,0,1,0-1Z"/>
        <path class="cls-4" d="M301.51,115.07l.08-.29-.09.08A1.48,1.48,0,0,1,301.51,115.07Z"/>
        <path class="cls-4" d="M257.9,123.93l0,.22.28.19Z"/>
        <path class="cls-4" d="M292.85,120.64c-3.55,1.26-6.1.32-9.72.08s-5.89,1.82-9.65,3.4-12,.49-15.41-1.07l-.21-.1a7.71,7.71,0,0,0,0,1l.31.41a18.55,18.55,0,0,0,15.5,1.62,25.81,25.81,0,0,0,4.79-2.23c3.21-1.69,13.54-.92,17.45-3,3.46-1.88,4.91-3.6,5.56-5.62a1.48,1.48,0,0,0,0-.21C299,117.06,296.31,119.41,292.85,120.64Z"/>
      </g>
      <g>
        <path class="cls-5" d="M285,142.09c5.56-.89,8.17-2.59,10.39-4.88-2.36-2.63-6.58-3.65-12.73-2.17-5.48,1.31-7.49,3.6-7.62,6.23C277.38,142.35,280.12,142.87,285,142.09Z"/>
        <path class="cls-4" d="M301.33,130.55c-2.6,2.55-4.13,4.8-5.92,6.66a9.1,9.1,0,0,1,2.17,5.25A11.4,11.4,0,0,0,301.33,130.55Z"/>
        <path class="cls-4" d="M287.12,142.49c-6.13-.14-7.9.78-8.67,5.78a31.49,31.49,0,0,0,9-1,26.67,26.67,0,0,0,8.77-3.72C294,141.34,292.53,142.62,287.12,142.49Z"/>
        <path class="cls-4" d="M275.06,141.27c-2.44-1.14-4.41-2.91-7.92-4.44-.6,7.29,4,10.84,10.59,11.39C276.14,145.9,275,143.46,275.06,141.27Z"/>
        <path class="cls-4" d="M295.41,137.21c-2.22,2.29-4.83,4-10.39,4.88-4.9.78-7.64.26-10-.82-.11,2.19,1.08,4.63,2.67,6.95l.72.05c.77-5,2.54-5.92,8.67-5.78,5.41.13,6.85-1.15,9.08,1q.74-.53,1.38-1.08A9.1,9.1,0,0,0,295.41,137.21Z"/>
      </g>
    </g>
    <path class="cls-6" d="M269.53,79.43c4.82,4.52,7,9.2,5.54,14.91s-3.06,5-3.92,11c-.81,5.56,7.84,4.74,11.9,2.08a7.24,7.24,0,0,0,.73-.53"/>
    <path d="M283.54,67.58c.11,0,.35-.06.4-.15,3-5.47,11.28-2.82,13.72-1.7s3.21.54.53-.78-11.88-3.86-15.12,2c-.1.19-.2.43,0,.55S283.43,67.63,283.54,67.58Z"/>
    <path d="M253.65,76c-.11,0-.3.15-.39.1-5.54-2.6-10,4.28-11.13,6.58s-2,2.28-.87-.31,6.39-9.92,12.37-7.11c.19.09.41.23.3.46S253.75,76,253.65,76Z"/>
    <path class="cls-2" d="M244.5,44c4.56,1.14,3.85,20.82-.53,36.68-4.71,17-15.17,35.11-19.72,33.63s-3.14-22.63,1.94-39.3C230.73,60.06,240,42.82,244.5,44Z"/>
    <path class="cls-2" d="M282.77,28.89c3.69-2.92,18.84,9.67,28.72,22.82C322.11,65.85,330,85.17,326.07,87.87s-19.83-11.34-29.93-25.55C287.12,49.63,279.11,31.78,282.77,28.89Z"/>
    <path class="cls-2" d="M254.44,44c2.75,1.48-.6,13.54-5.73,22.61-5.52,9.75-14.85,19.18-17.55,17.5s1.33-14.53,7-24C243.27,51.61,251.71,42.49,254.44,44Z"/>
    <path class="cls-2" d="M273.91,39.74c1.92-2.45,10.13.22,15.54,4.53,5.81,4.62,10.26,12.62,8.18,15s-10.68-.84-16.21-5.64C276.46,49.38,272,42.17,273.91,39.74Z"/>
    <g>
      <path class="cls-3" d="M289.93,67.31c5.52-.45,9.92,5.22,10.67,10.43s-2.33,12.66-8.32,13.1S282,84.65,281.81,79.12C281.66,74.18,284.4,67.75,289.93,67.31Z"/>
      <path class="cls-3" d="M250,77.93c5.35-1.84,11.48,3.3,13.55,8.22,2.23,5.27-.52,13.52-6.35,15.06S246.12,97,244.74,91.69C243.51,87,244.62,79.77,250,77.93Z"/>
      <path class="cls-7" d="M289.83,72.74c3.59-1,7.35,2.58,8.61,6.26s.35,9.45-3.55,10.49-7.74-3.23-8.67-7.22C285.39,78.71,286.25,73.73,289.83,72.74Z"/>
      <path class="cls-7" d="M251.73,83.77c3.58-1,7.38,2.49,8.69,6.16s.46,9.45-3.43,10.53-7.77-3.14-8.75-7.11C247.36,89.8,248.16,84.8,251.73,83.77Z"/>
      <path d="M290.06,74.76c3.09-.86,6.34,2.22,7.43,5.4s.3,8.16-3.07,9-6.67-2.79-7.48-6.22C286.22,79.91,287,75.61,290.06,74.76Z"/>
      <circle class="cls-3" cx="292.72" cy="78.33" r="1.5"/>
      <path d="M253.06,85.76c3.09-.86,6.34,2.22,7.43,5.4s.3,8.16-3.07,9-6.67-2.79-7.48-6.22C249.22,90.91,250,86.61,253.06,85.76Z"/>
      <circle class="cls-3" cx="255.72" cy="89.33" r="1.5"/>
    </g>
    <g>
      <path class="cls-1" d="M303.54,87.68c.69,1.85-3.46,5.2-7.47,7.08s-10,3.11-10.7,1.09,4.19-5.63,8.48-7.41C297.69,86.84,302.86,85.83,303.54,87.68Z"/>
      <path class="cls-1" d="M268.19,101.61c.55,2.91-4,6.07-8.28,7.19s-10.57.49-11.12-2.67,4.78-6.41,9.35-7.26C262.23,98.11,267.64,98.7,268.19,101.61Z"/>
    </g>
    <ellipse class="cls-8" cx="251.18" cy="110.5" rx="7.33" ry="6.11" transform="translate(-20.33 70.7) rotate(-15.41)"/>
    <ellipse class="cls-8" cx="301" cy="98.04" rx="7.33" ry="6.11" transform="translate(-15.23 83.49) rotate(-15.41)"/>
  </g>
  <ellipse class="cls-9" cx="271.96" cy="275.4" rx="28.12" ry="38.03" transform="translate(-115.08 272.97) rotate(-45)"/>
  <path class="cls-9" d="M478.78,88.82c-6.15-8-7.84-13.29-22.11-9.09-9.89,2.91-38.37,42.47-41.49,53.72-1.79,6.47-4,8.08-6.24,11-7,9-13.79,14.32-20.58,22.5-.48.58-.79.48-1.43.88-9.94-.78-21.39-1.25-30.81.44-5.71,1-7.73,2.91-12.43,5.18-9.75,4.69-19.65,9.59-29.15,14.86-.79-2.19-.72-5.25-1.65-7.3-3.7-8.18-8.5-11.33-17.79-10.12a98.6,98.6,0,0,0-16.54,3.88c-9.17,3.13-12.11,8.92-10.95,18.26.16,1.36,1,3,1.19,4.42a297.8,297.8,0,0,1-32.44.42c-.41,0-.81-.08-.73.06-9.51-.77-10.78-.21-21.72-1-19.44-1.33-38.54-3.08-60.74-6.57s-58-33.2-80.34-13.91S101.57,231,122,237s61.87,22.35,82.55,21.83c17-.43,22.85,14.91,35.6,21.66,1,18.6.94,34.14,1.74,53.48.57,13.86,2.82,31.12,4.31,46.09,1.31,13.17,1.31,31.24,3.17,43.61s6.49,16.78,15.35,23c7.37,5.18,14.16,3.77,22.64,5.7,4.81,1.1,11.52-.22,16.71-.12.08,0,0-.11,0-.12,1.27-.19,1.54-.19,3.33-.43.08,0-2.53.46,6.82-.91,10-1.48,42.18-7.24,55.8-12.56.91-.35.83-.47,1.37-.66,7.38-2.61,17.44-4.53,24.22-7.45,8.73-3.77,12.49-6.48,11.39-16.07-1-9.12-7.73-16.43-10.33-25.48-5.56-19.36-8.53-41.15-13.25-60.54-3.44-14.13-8.07-29-11-42-3.84-16.83-6.27-30.44-9.58-46.7,3.08-1.4,4.69-3.46,8-5,14.74-6.93,30-17.35,42-27.67,10.07-8.68,17.66-15.27,27.22-23.64a11.32,11.32,0,0,0,1.83-1.79,233.24,233.24,0,0,0,17.59-26.06c2.61-4.52,5.56-10.8,8.58-15.89,2.09-3.52,6.85-8.65,8.74-12.15C486,109.93,492.14,106.22,478.78,88.82ZM340,280.88c2.28,11.68,4.93,23.65,7.84,35.95-.79-3.36,1,4.31-.4-1.66S341.59,289.56,340,280.88ZM272.4,258.17c.13,1.83.21,3.73.31,5.57-.23-3.65-.52-7.28-.93-10.92C272,254.62,272.27,256.35,272.4,258.17Zm35.09,193.48h0Z"/>
  <g>
    <rect class="cls-10" x="202.93" y="421.97" width="160.65" height="32.73" rx="14" transform="translate(-66.98 51.42) rotate(-9.28)"/>
    <g>
      <rect class="cls-11" x="197.73" y="359.77" width="160.65" height="91.18" rx="14" transform="translate(-61.73 50.15) rotate(-9.28)"/>
      <g>
        <path class="cls-10" d="M287.48,405.25a4.87,4.87,0,0,1,.13-5.51,4.64,4.64,0,0,0-3.49-2.22,4.23,4.23,0,0,0-3,1.65c-1.2.81-2.43,2-3.63,2.08a6.42,6.42,0,0,1-1.18-.22,6.55,6.55,0,0,0-.88-.25c-1.59-.51-3.24-1.17-4.43-.91a2.67,2.67,0,0,0-1,.4h0c-2.88,1.25-3.1,7.1-1.84,10,1.1,2.53,4.79,6.1,7.63,6.08h.11a2.22,2.22,0,0,0,.88-.19l.13,0,.28-.14c1.38-.73,2.87-2.21,4.17-1.6a4.57,4.57,0,0,0,2.82.43c2.68-.05,4.9-4.25,5.47-7.42A5.44,5.44,0,0,1,287.48,405.25Z"/>
        <path class="cls-10" d="M277.76,399.21a6.86,6.86,0,0,1,.62-3.7c.93-1.42,3.35-2.09,3.35-2.09a4.91,4.91,0,0,1-4,5.79Z"/>
      </g>
    </g>
  </g>
  <g>
    <path class="cls-4" d="M336.38,229.86c8.12,3.26,12.65,11,10.12,17.33s-15.39,19.35-23.51,16.1-8.42-21.57-5.89-27.89S328.26,226.61,336.38,229.86Z"/>
    <path class="cls-12" d="M334.23,218s.91.61,1.13,6.43-.66,6.51-.66,6.51c1.12,0,1.93-3,1.8-6.55S335.35,217.92,334.23,218Z"/>
    <path class="cls-12" d="M335.4,229.74s3.42,3.89,3.07,6.77c-.38,3.09-5,6-5,6s-3.29-4.22-2.73-7.24C331.27,232.57,335.4,229.74,335.4,229.74Z"/>
    <path class="cls-12" d="M342.93,234.3s-6,1.58-9.43-.22c-3.71-1.94-5.75-8.12-5.75-8.12s6.35-1.28,9.9.81C340.83,228.63,342.93,234.3,342.93,234.3Z"/>
    <path class="cls-12" d="M340.61,229.76s4,3.62,4.17,6.83c.15,3.46-3.88,7.47-3.88,7.47s-3.95-4-3.91-7.41C337,233.61,340.61,229.76,340.61,229.76Z"/>
    <path class="cls-12" d="M335.05,228.28s-.11,4.66-2.14,6.74c-2.18,2.23-7.08,2.29-7.08,2.29s.4-4.86,2.66-6.94C330.51,228.51,335.05,228.28,335.05,228.28Z"/>
    <path class="cls-12" d="M330.39,225.64s-.3,4.86-2.5,7.1c-2.36,2.4-7.46,2.67-7.46,2.67s.61-5.07,3-7.33C325.65,226.06,330.39,225.64,330.39,225.64Z"/>
    <ellipse class="cls-3" cx="321.24" cy="238.36" rx="0.68" ry="0.76" transform="translate(-78.76 235.81) rotate(-36.21)"/>
    <ellipse class="cls-3" cx="319.34" cy="243.76" rx="0.68" ry="0.76" transform="translate(-82.32 235.73) rotate(-36.21)"/>
    <ellipse class="cls-3" cx="324.34" cy="242.49" rx="0.68" ry="0.76" transform="translate(-80.6 238.44) rotate(-36.21)"/>
    <ellipse class="cls-3" cx="325.82" cy="249.08" rx="0.68" ry="0.76" transform="translate(-84.21 240.58) rotate(-36.21)"/>
    <ellipse class="cls-3" cx="331.58" cy="243.51" rx="0.68" ry="0.76" transform="translate(-79.81 242.91) rotate(-36.21)"/>
    <ellipse class="cls-3" cx="333.09" cy="247.84" rx="0.68" ry="0.76" transform="translate(-82.08 244.64) rotate(-36.21)"/>
    <ellipse class="cls-3" cx="338.81" cy="244.54" rx="0.68" ry="0.76" transform="translate(-79.02 247.38) rotate(-36.21)"/>
    <ellipse class="cls-3" cx="340.05" cy="251.81" rx="0.68" ry="0.76" transform="translate(-83.08 249.52) rotate(-36.21)"/>
    <ellipse class="cls-3" cx="344.66" cy="247.35" rx="0.68" ry="0.76" transform="matrix(0.81, -0.59, 0.59, 0.81, -79.55, 251.38)"/>
    <ellipse class="cls-3" cx="345.21" cy="241.47" rx="0.68" ry="0.76" transform="translate(-75.97 250.57) rotate(-36.21)"/>
    <ellipse class="cls-3" cx="332.74" cy="255.31" rx="0.68" ry="0.76" transform="translate(-86.56 245.88) rotate(-36.21)"/>
    <ellipse class="cls-3" cx="326.15" cy="256.79" rx="0.68" ry="0.76" transform="translate(-88.71 242.27) rotate(-36.21)"/>
    <ellipse class="cls-3" cx="321.45" cy="252.86" rx="0.68" ry="0.76" transform="translate(-87.29 238.73) rotate(-36.21)"/>
    <ellipse class="cls-3" cx="317.2" cy="249.85" rx="0.68" ry="0.76" transform="translate(-86.33 235.64) rotate(-36.21)"/>
    <ellipse class="cls-3" cx="320.9" cy="258.75" rx="0.68" ry="0.76" transform="translate(-90.87 239.55) rotate(-36.21)"/>
    <ellipse class="cls-3" cx="325.6" cy="262.68" rx="0.68" ry="0.76" transform="translate(-92.29 243.08) rotate(-36.21)"/>
    <ellipse class="cls-3" cx="333.58" cy="259.41" rx="0.68" ry="0.76" transform="translate(-88.81 247.16) rotate(-36.21)"/>
    <ellipse class="cls-3" cx="319.05" cy="233.79" rx="0.68" ry="0.76" transform="translate(-76.49 233.63) rotate(-36.21)"/>
  </g>
</svg>
