<svg xmlns="http://www.w3.org/2000/svg" width="120" height="95" viewBox="0 0 120 95"><defs><style>.cls-1{opacity:0.7;}.cls-2,.cls-3{fill:#53c2eb;}.cls-3{opacity:0.8;}.cls-4{fill:#fff;}.cls-5{fill:#eaf5f7;}.cls-6{fill:#ffd12d;}</style></defs><g id="Layer_2" data-name="Layer 2"><g class="cls-1"><path class="cls-2" d="M14.34,20.64a.08.08,0,0,1,0,0l-2.6-5.07a.07.07,0,0,1,0-.09.06.06,0,0,1,.09,0l2.61,5.07s0,.08,0,.09Z"/></g><g class="cls-1"><path class="cls-2" d="M7.46,25.53h0L1.88,22.89a.07.07,0,0,1,0-.09s0-.05.09,0L7.5,25.4a.07.07,0,0,1,0,.09A.06.06,0,0,1,7.46,25.53Z"/></g><g class="cls-1"><path class="cls-2" d="M23.47,19.17h0a.07.07,0,0,1,0-.08l1.46-4.94a.07.07,0,0,1,.08,0h0a.06.06,0,0,1,0,.08l-1.46,4.93A.06.06,0,0,1,23.47,19.17Z"/></g><g class="cls-1"><path class="cls-2" d="M31.66,21.08s0,0,0,0a.06.06,0,0,1,0-.09L34.85,17a.08.08,0,0,1,.1,0,.06.06,0,0,1,0,.09l-3.23,3.93A.09.09,0,0,1,31.66,21.08Z"/></g><polyline class="cls-3" points="21.5 40.05 13.37 32.99 16.78 28.22 22 24.96 26.75 24.25 30.54 24.73 34.95 25.97 36.29 26.82 35.43 36.28"/><g class="cls-1"><line class="cls-4" x1="29.49" y1="27.8" x2="29.42" y2="35.11"/><path class="cls-5" d="M29.41,35.17a.06.06,0,0,1-.05-.06l.06-7.32a.07.07,0,1,1,.13,0l-.06,7.31a.07.07,0,0,1-.07.07Z"/></g><g class="cls-1"><line class="cls-4" x1="23.53" y1="27.23" x2="27.01" y2="36.09"/><path class="cls-5" d="M27,36.15s0,0,0,0l-3.48-8.85a.07.07,0,0,1,0-.09.07.07,0,0,1,.08,0l3.48,8.85a.07.07,0,0,1,0,.09Z"/></g><g class="cls-1"><line class="cls-4" x1="18.93" y1="31.66" x2="23.93" y2="37.4"/><path class="cls-5" d="M23.91,37.46l0,0-5-5.74a.06.06,0,0,1,0-.09s.07,0,.09,0l5,5.73a.08.08,0,0,1,0,.1A.08.08,0,0,1,23.91,37.46Z"/></g><path class="cls-6" d="M50.66,36.64c-18.19-4.83-37.49,3-41.32,17.48s4,33.14,22.24,38,34.3-7.53,38.12-22S68.86,41.47,50.66,36.64Zm-18,51.42C17.4,84,10.9,68,14.18,55.66s19.5-19.22,34.75-15.18S68,56.71,64.75,69.08,47.89,92.1,32.65,88.06Z"/><g class="cls-1"><path class="cls-2" d="M102.18,11.56a0,0,0,0,1,0-.05L105,6.56s0,0,.09,0a.07.07,0,0,1,0,.09l-2.82,5a.07.07,0,0,1-.09,0S102.18,11.58,102.18,11.56Z"/></g><g class="cls-1"><path class="cls-2" d="M94.32,8.48h0l-.83-6.1a.07.07,0,0,1,0-.08s.08,0,.08.06l.84,6.1a.08.08,0,0,1-.06.08A.08.08,0,0,1,94.32,8.48Z"/></g><g class="cls-1"><path class="cls-2" d="M108.41,18.4h0a.05.05,0,0,1,0-.08l4.93-1.48a.07.07,0,0,1,.08,0h0a.08.08,0,0,1,0,.09l-4.93,1.48A.06.06,0,0,1,108.41,18.4Z"/></g><g class="cls-1"><path class="cls-2" d="M111.29,26.3v0s0-.06.07-.06l5.06.55a.08.08,0,0,1,.06.08.09.09,0,0,1-.08.06l-5.05-.55S111.3,26.33,111.29,26.3Z"/></g><polyline class="cls-3" points="89.85 28.18 91.31 17.52 97.17 17.76 102.76 20.34 105.95 23.93 107.62 27.36 109 31.73 109.02 33.32 100.63 37.78"/><g class="cls-1"><line class="cls-4" x1="104.48" y1="28.16" x2="98.32" y2="32.11"/><path class="cls-5" d="M98.26,32.13a.07.07,0,0,1,0-.08l6.15-3.95a.08.08,0,0,1,.1,0,.08.08,0,0,1,0,.1l-6.15,4a.07.07,0,0,1-.1,0Z"/></g><g class="cls-1"><line class="cls-4" x1="101.69" y1="22.87" x2="96.18" y2="30.62"/><path class="cls-5" d="M96.12,30.64a.07.07,0,0,1,0-.06l5.5-7.75a.08.08,0,0,1,.1,0,.08.08,0,0,1,0,.1l-5.5,7.75a.07.07,0,0,1-.09,0S96.12,30.66,96.12,30.64Z"/></g><g class="cls-1"><line class="cls-4" x1="95.47" y1="21.44" x2="93.4" y2="28.77"/><path class="cls-5" d="M93.34,28.79s0,0,0,0l2.06-7.33a.07.07,0,0,1,.08,0,.06.06,0,0,1,0,.08l-2.06,7.32a.07.07,0,0,1-.09,0S93.34,28.81,93.34,28.79Z"/></g><path class="cls-6" d="M108.67,50.72C102.75,32.85,85.6,21,71.42,25.71S45.89,47.21,51.81,65.1,76.89,89.68,91.05,85,114.59,68.6,108.67,50.72ZM55.78,63.79c-5-15,4.85-29.17,17-33.19s26.76,5.79,31.72,20.78-3.13,24.87-15.28,28.89S60.73,78.75,55.78,63.79Z"/></g></svg>