<svg id="Layer_1" data-name="Layer 1" xmlns="http://www.w3.org/2000/svg" width="115" height="84" viewBox="0 0 115 84"><defs><style>.cls-1{fill:#8c206f;}</style></defs><path class="cls-1" d="M28.42,18.62a13.23,13.23,0,0,0,.85,1.46A3.79,3.79,0,0,0,32,21.39a4.19,4.19,0,0,0,3-1,7.29,7.29,0,0,0,2.09-2.65,4.54,4.54,0,0,0,.31-1.19,6.83,6.83,0,0,0,1.75,2.07,8.22,8.22,0,0,0,2.55,1.13,1.09,1.09,0,0,0,.58-2.09,6.22,6.22,0,0,1-1.87-.8A5.62,5.62,0,0,1,39.09,15l-1.35-2.09c-.09-.14-.22-.31-.34-.48a3.87,3.87,0,0,0-.83-1.79.75.75,0,0,0-.17-.14,1,1,0,0,0-.73-1.28,6.47,6.47,0,0,0-6.33,1.63,6.67,6.67,0,0,0-1.14,2.93c-.31,1.15-.92,2.29-.49,3.5A7.56,7.56,0,0,0,28.42,18.62Zm1.75-3.83c.16-.49.25-1,.37-1.5.42-1.8,2.54-2.31,4.2-2a.8.8,0,0,0,0,.15,3.81,3.81,0,0,0,.67,1.87c0,.48,0,1,0,1.37a4.22,4.22,0,0,1-2.57,4.51,1.85,1.85,0,0,1-1.92-.55c-.27-.4-.46-.86-.72-1.27a1.87,1.87,0,0,1-.45-1.13A7.26,7.26,0,0,1,30.17,14.79Z"/><path class="cls-1" d="M15,15.56a20.26,20.26,0,0,0,2.34-.09,7.49,7.49,0,0,0,2.16-.28c1-.22,2.36-.58,3.28,0,1.21.74.85,2.51.59,3.64A4.06,4.06,0,0,1,23,20c-.18.29-.39.32-.71.41-.87.25-1.61.74-2.46,1.05a17.3,17.3,0,0,1-2.86.7,5.82,5.82,0,0,1-2.76-.53,1.08,1.08,0,0,0-.57,2.09,13,13,0,0,0,2.29.65A8,8,0,0,0,18.49,24a13,13,0,0,0,2.6-.77,20,20,0,0,1,2.09-.86c1.57-.51,2-1.84,2.32-3.32A5.9,5.9,0,0,0,25,14.46c-1.49-2.45-4.54-1.64-6.82-1.18a5.72,5.72,0,0,1-1.17,0c-.42,0-.82.11-1.24.15A4.82,4.82,0,0,1,13.64,13a3.74,3.74,0,0,1-1.39-1.17c-.32-.44-.18-.85-.05-1.36.27-1.08,1-3.53,2.49-3.17,2.1.51,4.19,1.2,6.28,1.78A1.09,1.09,0,0,0,21.55,7c-1.89-.52-3.81-1-5.67-1.59a3.37,3.37,0,0,0-4.1,1A8.54,8.54,0,0,0,10,10.25a3.57,3.57,0,0,0,1.16,3.65A6.32,6.32,0,0,0,15,15.56Z"/><path class="cls-1" d="M41.25,8.75c.1.21.16.43.26.63.2.4.45.77.64,1.17s.27.87.43,1.3.38.91.6,1.35a25.27,25.27,0,0,1,1.09,2.64c.35,1,.52,2,.78,3a1.09,1.09,0,0,0,2.09-.58c-.27-1.08-.47-2.16-.84-3.22A30.76,30.76,0,0,0,45,11.94c-.33-.68-.52-1.4-.8-2.1a1.22,1.22,0,0,0,.25-.43,1.42,1.42,0,0,1,.66-.94,2.81,2.81,0,0,1,1.31-.27A3.6,3.6,0,0,1,49,9.82a19.5,19.5,0,0,1,2,3.61,6.35,6.35,0,0,1,.72,1.82,4,4,0,0,0,.72,1.95,1.09,1.09,0,0,0,1.53,0,1.12,1.12,0,0,0,0-1.54c.13.17,0-.13,0-.19s-.07-.35-.1-.53a5.43,5.43,0,0,0-.29-1.12c-.31-.83-.77-1.58-1.15-2.38a16.07,16.07,0,0,0-1.11-2.19A10.06,10.06,0,0,0,49.8,7.46a5.11,5.11,0,0,0-4.36-1.35A3.7,3.7,0,0,0,43,7.51a2.21,2.21,0,0,0-.67-.73C41.2,6,40.11,7.88,41.27,8.66,41,8.47,41.17,8.57,41.25,8.75Z"/><path class="cls-1" d="M51.38,5.86c.1.2.16.42.26.63.2.39.45.76.64,1.17s.27.87.43,1.3.38.91.6,1.35a24.25,24.25,0,0,1,1.09,2.63c.35,1,.52,2,.78,3a1.08,1.08,0,0,0,2.09-.57c-.27-1.08-.47-2.17-.84-3.22A29.84,29.84,0,0,0,55.1,9.05c-.33-.68-.52-1.41-.8-2.11a1.06,1.06,0,0,0,.25-.43,1.42,1.42,0,0,1,.66-.93,2.59,2.59,0,0,1,1.31-.27,3.58,3.58,0,0,1,2.65,1.62,19.18,19.18,0,0,1,2,3.61,6.53,6.53,0,0,1,.72,1.82,4,4,0,0,0,.72,1.94,1.08,1.08,0,0,0,1.53,0,1.11,1.11,0,0,0,0-1.53c.13.16,0-.14,0-.19S64,12.22,64,12a5.6,5.6,0,0,0-.29-1.12c-.31-.83-.77-1.57-1.15-2.37a16.79,16.79,0,0,0-1.11-2.2,10,10,0,0,0-1.53-1.78,5.11,5.11,0,0,0-4.36-1.36,3.67,3.67,0,0,0-2.41,1.41,2.21,2.21,0,0,0-.67-.73C51.33,3.11,50.24,5,51.4,5.76,51.11,5.57,51.3,5.67,51.38,5.86Z"/><path class="cls-1" d="M65.6,9.63A5.36,5.36,0,0,0,67.25,11a7.37,7.37,0,0,0,4.51,1.46,18,18,0,0,0,2.53-.41,8.39,8.39,0,0,0,2.22-1,1.09,1.09,0,0,0-1.1-1.88,8,8,0,0,1-1.3.68,10.8,10.8,0,0,1-1.71.35,4.43,4.43,0,0,1-3-.42,5.55,5.55,0,0,1-2.07-1.5c.65-.32,1.33-.57,2-.93l1.9-1.09a5.63,5.63,0,0,0,2.47-2.38c.53-1.16.62-2.51-.53-3.32A3.64,3.64,0,0,0,70.34.09a3.18,3.18,0,0,0-1.47.8c-.47.41-1.17.46-1.7.82a6.16,6.16,0,0,0-2.32,3,4.67,4.67,0,0,0-.07,3.41A7.91,7.91,0,0,0,65.6,9.63ZM72,2.36h0s0,0,0,0ZM67.05,5a2.55,2.55,0,0,1,.65-.87,2.89,2.89,0,0,1,1.06-.81,5,5,0,0,0,1.64-.89c.07-.06.36-.23.15-.15.06,0,.49-.12.28-.09a2.57,2.57,0,0,1,.48,0h.14l.25.06.09,0,.11.06h0s0,.08,0,0-.1.4-.16.54a4,4,0,0,1-1.88,1.62c-.61.35-1.21.7-1.83,1-.44.24-.9.43-1.36.64a.2.2,0,0,0,0-.07A4.74,4.74,0,0,1,67.05,5Z"/><path class="cls-1" d="M75.46,44.54c-1.69,2.66-4.22,4.79-6.52,6.92a63.83,63.83,0,0,1-7.87,6.22A113.4,113.4,0,0,1,43.33,66.8,85.19,85.19,0,0,1,24.24,73a76,76,0,0,1-18.77.62c.24-.14.48-.28.73-.4,1-.51,2-1,2.91-1.62s1.9-1.13,2.82-1.73a14.93,14.93,0,0,1,2.78-1.57c.77-.29.44-1.55-.35-1.25a13.52,13.52,0,0,0-2.68,1.43c-.95.62-1.91,1.2-2.87,1.78S7,71.39,6,71.86s-1.73,1-2.68,1.42a.62.62,0,0,0-.21.13h0a.51.51,0,0,0-.53.28.53.53,0,0,0-.09.55c.37,1.1,1.64,1.68,2.48,2.39,1.08.9,2.14,1.8,3.28,2.63s2.29,1.63,3.41,2.47a21.45,21.45,0,0,0,3.45,2.2c.75.36,1.41-.76.66-1.13a45.06,45.06,0,0,1-6.29-4.25c-1.06-.76-2.07-1.55-3.06-2.4-.5-.42-1-.84-1.51-1.23l-.09-.06a78.15,78.15,0,0,0,19.81-.62A85.75,85.75,0,0,0,44,67.92c6.48-2.83,13-5.78,18.81-9.85A67.07,67.07,0,0,0,70.33,52c2.23-2.1,4.6-4.15,6.25-6.75C77,44.49,75.91,43.84,75.46,44.54Z"/><path class="cls-1" d="M25.7,41.21a5.38,5.38,0,0,0,1.87.85,2.11,2.11,0,0,0,1.14.08,3.14,3.14,0,0,0,1.09-.52A4.32,4.32,0,0,0,31.42,40a4.21,4.21,0,0,0,.42-2,3.83,3.83,0,0,0-2.77-3.26.4.4,0,0,0-.39.1A3.75,3.75,0,0,0,25.26,37C24.57,38.28,24.49,40.25,25.7,41.21ZM25.8,38c.37-1.18,1.66-2.54,3-2.23a.43.43,0,0,0,.28,0,3,3,0,0,1,1.81,1.91,3,3,0,0,1-1,2.87,3.37,3.37,0,0,1-1.54.86,2.68,2.68,0,0,1-.95-.22,4,4,0,0,1-.65-.25,1.81,1.81,0,0,1-1-.93A3.31,3.31,0,0,1,25.8,38Z"/><path class="cls-1" d="M37.61,34.29a3.73,3.73,0,0,0-3.65.94,3.91,3.91,0,0,0-.64,1.69,3.39,3.39,0,0,0-.3,2,4.56,4.56,0,0,0,.41.75,8.44,8.44,0,0,0,.51.86,2.06,2.06,0,0,0,1.51.71,2.29,2.29,0,0,0,1.68-.56,4.3,4.3,0,0,0,1.23-1.55,3.5,3.5,0,0,0,.23-1.32l.3.45A4.3,4.3,0,0,0,40,39.58a5,5,0,0,0,1.5.67.44.44,0,0,0,.23-.84,4,4,0,0,1-1.2-.51,3.66,3.66,0,0,1-.92-1.18l-.83-1.28-.22-.31a2.18,2.18,0,0,0-.46-1,.33.33,0,0,0-.23-.12A.43.43,0,0,0,37.61,34.29Zm-.2,4.79A2.89,2.89,0,0,1,36,40.36a1.37,1.37,0,0,1-1.44-.44c-.16-.25-.28-.52-.43-.78a1.33,1.33,0,0,1-.31-.8,4.42,4.42,0,0,1,.28-.94c.09-.3.15-.61.22-.92.31-1.3,1.91-1.64,3.07-1.35h0a.42.42,0,0,0-.12.28,2.1,2.1,0,0,0,.39,1.05,7.25,7.25,0,0,1,0,.92A2.83,2.83,0,0,1,37.41,39.08Z"/><path class="cls-1" d="M81.16,32.42a4,4,0,0,1-1.2-.51A3.66,3.66,0,0,1,79,30.73c-.28-.43-.56-.85-.83-1.28L78,29.14a2.18,2.18,0,0,0-.46-1,.35.35,0,0,0-.24-.12.43.43,0,0,0-.2-.69,3.73,3.73,0,0,0-3.65.94,3.91,3.91,0,0,0-.64,1.69,3.37,3.37,0,0,0-.3,2,3.87,3.87,0,0,0,.41.75,7.61,7.61,0,0,0,.51.87,2,2,0,0,0,1.51.71,2.26,2.26,0,0,0,1.68-.57,4.18,4.18,0,0,0,1.23-1.54,3.5,3.5,0,0,0,.23-1.32c.1.15.2.3.29.45a4.45,4.45,0,0,0,1.06,1.3,5.12,5.12,0,0,0,1.51.67A.44.44,0,0,0,81.16,32.42Zm-4.27-.33a2.87,2.87,0,0,1-1.43,1.28A1.35,1.35,0,0,1,74,32.93c-.16-.25-.28-.52-.44-.78a1.38,1.38,0,0,1-.3-.8,4.39,4.39,0,0,1,.27-.94c.1-.3.16-.61.23-.92.3-1.3,1.91-1.65,3.06-1.35h.06a.42.42,0,0,0-.12.28,2.14,2.14,0,0,0,.39,1,7.25,7.25,0,0,1,0,.92A2.83,2.83,0,0,1,76.89,32.09Z"/><path class="cls-1" d="M48.2,38.4c-.1.18-.27.18-.46.22-.42.09-.79.31-1.21.42a8.64,8.64,0,0,1-1.35.22A3.54,3.54,0,0,1,43.87,39a.43.43,0,0,0-.23.83,6.9,6.9,0,0,0,1.1.31A4.14,4.14,0,0,0,46,40a18.52,18.52,0,0,0,2.18-.6c.74-.19.9-.82,1-1.5A2.2,2.2,0,0,0,48.78,36a2.07,2.07,0,0,0-1.54-.61c-.58,0-1.13.18-1.7.19-.19,0-.37,0-.56,0s-.35,0-.53,0a3,3,0,0,1-1.09-.26,2.16,2.16,0,0,1-.67-.53c-.18-.21-.11-.41,0-.67a2.22,2.22,0,0,1,.41-.88.76.76,0,0,1,1-.28c1,.3,1.93.55,2.9.82a.44.44,0,0,0,.23-.84c-.89-.24-1.8-.46-2.69-.74a1.65,1.65,0,0,0-1.88.27,3.2,3.2,0,0,0-.85,1.7,1.46,1.46,0,0,0,.62,1.51,3.42,3.42,0,0,0,1.81.74c.39.05.77,0,1.16,0a3.63,3.63,0,0,0,.93-.09,2.81,2.81,0,0,1,1.6,0,1.07,1.07,0,0,1,.51.63,1.64,1.64,0,0,1,0,1A1.69,1.69,0,0,1,48.2,38.4Z"/><path class="cls-1" d="M86.78,28.11c-.58,0-1.13.18-1.7.19-.19,0-.38,0-.57,0a4.55,4.55,0,0,1-.52,0,2.73,2.73,0,0,1-1.09-.26,1.93,1.93,0,0,1-.68-.52c-.18-.21-.11-.42,0-.68A2.34,2.34,0,0,1,82.6,26a.73.73,0,0,1,1-.28c1,.29,1.94.55,2.91.81a.43.43,0,0,0,.23-.83c-.9-.25-1.8-.47-2.69-.75a1.65,1.65,0,0,0-1.89.28,3.19,3.19,0,0,0-.84,1.69,1.48,1.48,0,0,0,.62,1.52,3.5,3.5,0,0,0,1.81.74c.39.05.77,0,1.16,0a3.63,3.63,0,0,0,.93-.1,2.9,2.9,0,0,1,1.6,0,1.07,1.07,0,0,1,.51.63,1.76,1.76,0,0,1,0,1,1.94,1.94,0,0,1-.12.43c-.1.18-.28.18-.46.22-.42.1-.8.32-1.21.42a10.29,10.29,0,0,1-1.35.23,3.51,3.51,0,0,1-1.31-.29.44.44,0,0,0-.23.84,8,8,0,0,0,1.09.31,4.92,4.92,0,0,0,1.27-.11c.76-.12,1.44-.41,2.18-.6s.9-.83,1-1.5a2.17,2.17,0,0,0-.43-1.94A2.06,2.06,0,0,0,86.78,28.11Z"/><path class="cls-1" d="M49.67,33.91a2.43,2.43,0,0,0,1.21-.41,15.37,15.37,0,0,0,1,2.62,4.66,4.66,0,0,0,2.3,2.25,5.94,5.94,0,0,0,1.76.51,1.57,1.57,0,0,0,.63-.12c.31-.11.63-.17.94-.3.51-.23.07-1-.44-.75a2.26,2.26,0,0,1-1.39.22,5.47,5.47,0,0,1-1.53-.54,4.42,4.42,0,0,1-1.7-2.09,13.73,13.73,0,0,1-.76-2.15l.17,0a4.24,4.24,0,0,0,.5-.18,10.74,10.74,0,0,0,1-.49c.49-.27,0-1-.44-.75-.28.15-.56.3-.85.42s-.44.14-.65.2a1.42,1.42,0,0,1-.07-.22c-.16-.58-.35-1.15-.52-1.73a3.28,3.28,0,0,1-.27-1.82c.17-.53-.67-.76-.84-.23a3.2,3.2,0,0,0,.18,1.93c.2.7.42,1.39.61,2.09,0,.11.07.22.1.33l-.3.14L50,33a.89.89,0,0,1-.33.07.43.43,0,0,0-.43.43A.44.44,0,0,0,49.67,33.91Z"/><path class="cls-1" d="M24.65,44.41a1.51,1.51,0,0,0,.63-.12c.32-.11.64-.17.94-.3.52-.23.07-1-.43-.75a2.27,2.27,0,0,1-1.39.22,5.64,5.64,0,0,1-1.54-.54,4.48,4.48,0,0,1-1.7-2.09,14.83,14.83,0,0,1-.76-2.15l.18,0a5,5,0,0,0,.5-.18,10.74,10.74,0,0,0,1-.49c.48-.27.05-1-.44-.75-.28.15-.56.3-.85.42s-.44.14-.66.2l-.06-.21c-.17-.59-.36-1.16-.52-1.74a3.2,3.2,0,0,1-.27-1.82c.17-.53-.67-.76-.84-.23a3.2,3.2,0,0,0,.18,1.93c.2.7.41,1.39.61,2.09,0,.11.06.22.1.33l-.31.14-.34.17a.84.84,0,0,1-.32.07A.43.43,0,0,0,18,39a.44.44,0,0,0,.43.44A2.37,2.37,0,0,0,19.6,39a15.37,15.37,0,0,0,1,2.62,4.68,4.68,0,0,0,2.29,2.25A6.12,6.12,0,0,0,24.65,44.41Z"/><path class="cls-1" d="M96.47,29.29a2.25,2.25,0,0,1-1.39.22A5.58,5.58,0,0,1,93.55,29a4.42,4.42,0,0,1-1.7-2.09,13.73,13.73,0,0,1-.76-2.15l.17-.05a3,3,0,0,0,.5-.17,8.86,8.86,0,0,0,1-.49c.49-.27,0-1-.44-.75a7.46,7.46,0,0,1-.85.42c-.21.08-.43.14-.65.2,0-.07,0-.14-.07-.22-.16-.58-.35-1.15-.51-1.73A3.2,3.2,0,0,1,90,20.12c.17-.53-.66-.76-.83-.23a3.13,3.13,0,0,0,.17,1.93c.2.7.42,1.39.62,2.09l.09.33-.3.14-.34.17a.88.88,0,0,1-.32.07.44.44,0,0,0-.44.43.44.44,0,0,0,.44.44,2.5,2.5,0,0,0,1.21-.41,14.13,14.13,0,0,0,1,2.62A4.64,4.64,0,0,0,93.58,30a5.72,5.72,0,0,0,1.76.5,1.38,1.38,0,0,0,.63-.11c.31-.11.63-.17.94-.3C97.42,29.81,97,29.07,96.47,29.29Z"/><path class="cls-1" d="M70.93,35.22a2.7,2.7,0,0,0-.32-1.64c-.25-.61-.43-1.24-.69-1.85a3.91,3.91,0,0,0-2-2c-.81-.32-1.94-.84-2.8-.43a3.87,3.87,0,0,0-1.82,2.2,6.07,6.07,0,0,0-.59-.65,2.9,2.9,0,0,0-2.44-.77,2.06,2.06,0,0,0-1.56,1.09s0,0,0-.06a1.31,1.31,0,0,0-.47-.64c-.46-.31-.9.44-.44.75.11.07.17.4.23.53s.28.47.39.71.19.57.29.85.22.52.34.77a14.31,14.31,0,0,1,.69,1.67c.21.6.32,1.23.48,1.85a.44.44,0,0,0,.84-.23c-.17-.66-.29-1.32-.52-2a16.11,16.11,0,0,0-.79-1.87c-.23-.47-.37-1-.58-1.46a.39.39,0,0,0,.22-.26,1.31,1.31,0,0,1,1.43-.91A2.45,2.45,0,0,1,62.52,32a12.06,12.06,0,0,1,1.25,2.25,4.08,4.08,0,0,1,.46,1.17,2.38,2.38,0,0,0,.38,1.09.43.43,0,0,0,.61-.62,1.43,1.43,0,0,1-.13-.54,3.1,3.1,0,0,0-.18-.68c-.18-.49-.45-.93-.67-1.4s-.31-.65-.47-1A.41.41,0,0,0,64,32a3.35,3.35,0,0,1,.57-1.15,2.56,2.56,0,0,1,.91-.79,1.75,1.75,0,0,1,1.08.11c.35.11.73.23,1.07.37a3.14,3.14,0,0,1,1.57,1.64c.21.5.36,1,.55,1.52s.47.84.36,1.27S70.8,35.77,70.93,35.22Z"/><path class="cls-1" d="M102.45,26.64a4.9,4.9,0,0,1-.85.44,7.23,7.23,0,0,1-1,.21,3,3,0,0,1-2-.28,3.31,3.31,0,0,1-1.42-1.08l-.1-.19a.45.45,0,0,0,.25,0c.4-.2.82-.35,1.21-.57l1.16-.66a3.32,3.32,0,0,0,1.43-1.37,1.32,1.32,0,0,0-.24-1.72,2,2,0,0,0-1.54-.27,1.7,1.7,0,0,0-.8.44c-.32.26-.75.3-1.09.53a3.59,3.59,0,0,0-1.31,1.67,2.63,2.63,0,0,0,0,2,4.51,4.51,0,0,0,.48.89,3.22,3.22,0,0,0,.92.76,4.35,4.35,0,0,0,2.64.86,10.64,10.64,0,0,0,1.48-.25,4.55,4.55,0,0,0,1.31-.59A.44.44,0,0,0,102.45,26.64Zm-5.67-2.11a2.57,2.57,0,0,1,.68-1.33,2,2,0,0,1,.75-.55,2.82,2.82,0,0,0,.9-.49,1,1,0,0,1,1-.17c.39.12.32.4.16.74a2.69,2.69,0,0,1-1.23,1.08L98,24.44c-.36.2-.74.33-1.11.51,0,0,0,0-.07.05A1.87,1.87,0,0,1,96.78,24.53Z"/><path class="cls-1" d="M105.88,25.06a10.65,10.65,0,0,0-.82-1.94l-.15-.28a.47.47,0,0,0,.16-.32c0-.31,0-.62,0-.93a4.45,4.45,0,0,1,.15-.81,3.12,3.12,0,0,1,.22-.63,2.91,2.91,0,0,1,.17-.3s.11-.15,0-.08l0-.05s0,0,0,0a.43.43,0,1,0-.44-.75,1.46,1.46,0,0,0-.51.64,3.91,3.91,0,0,0-.33.82,7.21,7.21,0,0,0-.2,1v.09l-.19-.36a6.57,6.57,0,0,0-1-1.73c-.38-.41-1,.21-.62.62a6.47,6.47,0,0,1,.94,1.66c.32.65.69,1.28,1,1.93a8.82,8.82,0,0,1,.73,1.84,5.21,5.21,0,0,0,.58,1.76c.31.46,1.07,0,.75-.44A6,6,0,0,1,105.88,25.06Z"/><path class="cls-1" d="M14.62,33.29a4.15,4.15,0,0,0,.94-1.9c.07-.55-.79-.54-.87,0-.12.9-1,1.62-1.44,2.41a8.12,8.12,0,0,0-.81,2.77,12.92,12.92,0,0,0,.89,6.33,8.71,8.71,0,0,0,3,4.26,9,9,0,0,0,1.16.58c.49.23.89.59,1.36.84a6.75,6.75,0,0,0,2.8.94c.56,0,.56-.85,0-.87a6.1,6.1,0,0,1-2.84-1.1,24.85,24.85,0,0,1-2.35-1.37,9.81,9.81,0,0,1-2.59-4.42,10.65,10.65,0,0,1-.36-6A6.75,6.75,0,0,1,14.62,33.29Z"/><path class="cls-1" d="M111.89,20a12.17,12.17,0,0,0-3.2-5.24,7.78,7.78,0,0,0-2.26-1.55c-.79-.35-1.87-.38-2.49-1a.44.44,0,0,0-.62.62,3.75,3.75,0,0,0,1.68.83,7.41,7.41,0,0,1,2.28,1.06,10.48,10.48,0,0,1,3.61,5c.59,1.8,1.24,3.94.58,5.81-.16.45-.44.82-.63,1.25s-.27.86-.45,1.27a5.92,5.92,0,0,1-1.45,2.18c-.44.36.18,1,.61.62A6.13,6.13,0,0,0,111,28.71c.42-.83.75-1.72,1.13-2.57C113,24.17,112.49,22,111.89,20Z"/></svg>