<svg id="Layer_1" data-name="Layer 1" xmlns="http://www.w3.org/2000/svg" width="70" height="84" viewBox="0 0 70 84"><defs><style>.cls-1{fill:#ef3cef;}</style></defs><path class="cls-1" d="M12.48,6c3.47,5.64,7.41,9.4,9.73,16.13S27.8,41.37,32.64,46.17s6.55,4.15,12,5.54,11.59-.18,16.76,2.43,9.33,6.87,6,12.63S58.66,76.83,51.77,77.5s-12.26,2-17.36-5.42C30.34,66.18,27,53.75,20.75,48c-1.58-1.45-2.34-3.73-3.75-3.81s-1.19,1.5-2.09,3.31C11,55.38,14,64.91,13.7,73.6c-1.54.85-3,.39-4.64.43,1-17.94-.59-30.69-7.66-47.3A47.59,47.59,0,0,1,12.48,6Z"/></svg>