<svg xmlns="http://www.w3.org/2000/svg" width="1000" height="1000" viewBox="0 0 1000 1000"><defs><style>.cls-1{fill:#aae2ff;}.cls-2{opacity:0.7;}.cls-3{fill:#fff;}.cls-4{fill:#684121;}.cls-5{fill:#e8c6a7;}.cls-6{fill:#5f6060;}.cls-7{fill:#7b7c7c;}.cls-8{fill:#001300;}.cls-9{fill:#212121;}.cls-10{fill:#006837;}.cls-11{fill:#04542c;}.cls-12{fill:#39b54a;}.cls-13{fill:#bf0a00;}.cls-14{fill:#ffbdee;}.cls-15,.cls-17{fill:none;}.cls-15{stroke:#000;stroke-linecap:round;stroke-miterlimit:10;}.cls-16{fill:#7eba28;}.cls-18{fill:#438031;}.cls-19{fill:#b1e055;}.cls-20{fill:#a6cc4a;}.cls-21{fill:#f28945;}.cls-22{fill:#ed6f33;}.cls-23{fill:#f4a8ba;}.cls-24{fill:#f28caa;}.cls-25{fill:#da3e8f;}.cls-26{fill:#ffd629;}.cls-27{fill:#f7f9d7;}.cls-28{fill:#e2e1cf;}.cls-29{fill:#ff0;}.cls-30{fill:#e97804;}.cls-31{fill:#e52320;}.cls-32{fill:#e84b94;}.cls-33{fill:#ddb38c;}.cls-34{fill:#e2dedc;}.cls-35{fill:#ccc6c2;}.cls-36{fill:#8e6854;}.cls-37{fill:#606060;}.cls-38{fill:#6d5e48;}.cls-39{fill:#7a7978;}.cls-40{fill:#2c2a2a;}.cls-41{fill:#665a48;}.cls-42{fill:#5b5b5b;}.cls-43{fill:#424242;}.cls-44{fill:#2d2d2d;}.cls-45{fill:#727171;}.cls-46{fill:#a04582;}.cls-47{fill:#c455a4;}.cls-48{fill:#754c24;}.cls-49{fill:#c40d08;}.cls-50{fill:#b55b5b;}.cls-51{fill:#f777f4;opacity:0.3;}</style></defs><g id="Layer_2" data-name="Layer 2"><rect class="cls-1" y="-4.5" width="1000" height="1000"/><g class="cls-2"><path class="cls-3" d="M311.22,274.73c-20.11,28.43-27.82,68.21-22.06,105.93s-.59,82.46-15.41,119c-15.19,21.18-13.9,52-5.36,73.77s9.2,48.76,2.1,65.83-21,17.29-5.82,26.86,31.16-5.65,46.64-8.56,30.33.39,46.29-4.08,28.68-11.14,47.22-9.1,36.09,7.59,55.47-2.06,40.67-19.46,62.72-26,46.76-1.4,18.29-33.06-42.56-118.46-53.24-155.84-14.19-52.12-26.45-80.29-32.18-100.74-63.56-107.83S331.33,246.31,311.22,274.73Z"/></g><path class="cls-4" d="M447.63,336.66c-2.37-9.59-8.62-22.45-16.88-29.52-11.87-18.21-30.19-59.45-59.35-52.86-33.1,7.47-57.87,43-57.13,77.8-5.13,9-6.21,23.1-5.69,31.67.79,12.86,3.66,33.22,15.88,37.41,4.18,1.44,4.75-4.68,6.7-6.11,2.71,3.23,6.68,10.62,12.09,9.29s5.67-10,6.36-14.33c1.26,3.53,3.13,14.07,8.36,13.9s5.77-10.78,6.6-14.21c1.45,3,3.56,13.08,8.56,12.39,5.82-.8,5.76-13.17,6.23-17.42,4.35-1,8.69-1.87,13.06-2.73,1.45,3.73,3.89,12.53,8.74,12.77,3.41.16,3.8-5.23,4.72-7.27,1.22,1.54,2.59,4.91,5.17,4.56,3.35-.44,4.2-5.77,4.82-8.38,1.39,1.63,2.47,5.4,5.44,4.84,4.42-.83,5.38-8.14,5.57-11.8,2.2,2.48,5.14,6.49,9,5.41,2.71-.76,2.63-3.31,2.66-5.56,1.76.38,3.36,3.45,5.62,1C452.93,367.88,450.82,349.57,447.63,336.66Z"/><path class="cls-5" d="M900.82,351.88c4.78-7.43-6.53-31-12.44-22.46s-33.91,31.95-33.27,39.43,3.59,7.13,9.85,9.49S896,359.31,900.82,351.88Z"/><path class="cls-5" d="M618.84,405.31c-.65,16.51,1.29,15.81-1.18,33.83,7.46,1.29,15,2.15,22.56,2.83,1.56-14.75,2.12-19.75,4.47-34.32C636,405.58,627.71,405.26,618.84,405.31Z"/><path class="cls-6" d="M568.74,715.59c.13-7.47.78-10.94.79-20.51a558.09,558.09,0,0,1,4.59-68.73c-10-23.14-13.51-49.3-13.23-73.87.16-14.18,1-3.52,0,0,0-1.21.25-5.48.39-6.13.67-3.05,1.18-7.72,1.78-10,2.15-8,3.1-18.7,4.54-25.39,1.84-8.58,7.65-9.74,9.72-17,1.37-4.81-1.71-7.71-3.46-12.17-.91-2.31-3.13-4.17-3.32-7.18-.54-8.85-1.85-17.34.8-26.32,2.3-7.83,7.54-15.53,11.25-23a19.44,19.44,0,0,0-11.33,8.43,19.41,19.41,0,0,1,11.33-8.43c.49-1,1.64-1.68,2.13-2.62.06-.12.53-.2.46-.26-14.77-12.92-12.86-10.22-34-14.06-24.64-4.48-55.56-7.09-82.57-4.57s-60.95-7.64-85.65,6,25.75,51.39,46.89,52.85,49.77,10.26,73.43,21.72c19.47,9.44,30.49,38.74,48.07,52.48,1.29,1.94,1.38,2,0,0-2.29,22.24-7.17,39.52-11.61,62.47-3.18,16.45-5.95,38.37-8.63,56.51-2.36,16-7.64,37.56-9.48,52.51s2.63,20.59,11.07,29.94c7,7.77,14.38,8,23.36,12.62,5.08,2.61,13.3,3.1,19.1,4.81C571.1,741.94,568.49,730.35,568.74,715.59Z"/><path class="cls-3" d="M662,620.1c-2-36.76,3.84-79,8.43-113.47,2.51-18.94,2.79-21.55,4.78-38.13a14.41,14.41,0,0,1-.27-2c-12.49-.61-23.35-6.2-29.55-17.25a15,15,0,0,1-12.53,4.52,17,17,0,0,1-11.19-5c-8,8.43-18.39,11.49-29.79,12.22.38,1.92.63,4.23,1,5.92,2.74,17.34,3.17,27.1.64,45.82-5,36.62-15.22,76.22-19.79,113.78-.13.2-.15-.46-.25-.23-2.84,22.69-4.46,49.91-3.57,71.4.4,9.73,0,10.28-1,17.24-2,13.75-.92,28.84,6,40.65,1.86.17.85.15,4.25.55l2.71.32c11.35,1.34,53,1.88,70.21-.72,1.8-.81,1.31-1.63,1.45-2.67C659.33,708.85,660.28,664.8,662,620.1Z"/><path class="cls-7" d="M699.47,478.87a17.4,17.4,0,0,0,.6-9.3c-6.52-4.22-10.82-10.42-11.39-17.24h0c-1.51,8.41-1.87,15.53-12.63,17.92a16.21,16.21,0,0,1-1.89.28l-.27,2.36c.16,1.9.3,4,.54,6.47a15.63,15.63,0,0,1,0,3,15.45,15.45,0,0,0,0-2.64c-.24-2.44-.39-4.56-.55-6.46-1.1,9.57-2.24,19.21-4.52,36.29-4.14,31.09-10.48,78.58-8.41,113.68.75-21.44,1.63-42.88,3.27-64.27-1.63,21.38-2.51,42.81-3.27,64.25,0,.58.06,1.16.1,1.74,8.15-12,16.06-26.16,20.61-41s7.12-33.22,10.51-47.57-2.24-7.44-6.25-16.16-3.83-15.21-1.39-23.53S696.69,486.79,699.47,478.87Z"/><path class="cls-7" d="M594.48,471.55a45.48,45.48,0,0,0-2.12-6.35,23.62,23.62,0,0,1-5.43-.65c-5.91-2.17-9.32-5.28-11.12-11.17-1.32-4.35-.92-8.54-1.4-13a24.4,24.4,0,0,1,.55-5.89,10,10,0,0,0-1.45,0c-4.41,6.5-8.77,13.78-10.71,21.27-2.22,8.61-1,15.84,1.43,23.85.82,2.73,3,4.26,4.33,6.14,2.64,3.65,5.9,6.35,4.85,10.9-1.6,6.9-7.85,4.82-8.25,13.39-.31,6.46-1.51,17.51-3.61,24.57-.87,5.31-1.56,10.32-2.46,15.49-.67,28,4.29,54.08,13.86,80.39,8.07-45.14,17.67-89.88,22.63-135.69A81,81,0,0,0,594.48,471.55Z"/><path class="cls-6" d="M874.37,363.9c-4.62-9.91-6.24-15.16-20.73-16.39-10-.85-57.23,43.24-62.95,53.74-3.28,6-5.79,7.6-9,10.12-9.82,7.74-18.62,12.46-27.84,19.88-.65.53-.82.44-1.71.68-10.5-2.94-25.32-6.59-35.43-6.05-15.65.84-21.18,6.95-31.75,16.25-.64.56-.18,1.25-.38,1.9a16.67,16.67,0,0,0-.55,4.32,21,21,0,0,0,.21,2.86v.06h0a46.36,46.36,0,0,0,12.39,17.05c.09,3.2.83,6.33-.52,9.36-3.37,7.52-10.76,11.26-13,19.58s-.86,15,2.56,23.4,7.33,6.35,4.46,18.4-5.65,31.34-10.06,45.08-12,27.41-19,40.12a6.23,6.23,0,0,1-.23-1.63c-.81,43.4-4.43,86.66-8.89,129.79a20.06,20.06,0,0,0-.22,2.88c9.42-1,21.52-.92,30.38-2.1,11-1.46,16-3,16.75-14.43.76-10.87-4.5-20.86-5.16-32.24-1.41-24.34,1.82-49.12,2.78-73.83.71-18,1-40.18,2-57.47,1.28-22.35,3.17-40.89,5.52-62.39,3.94-1.49,6.62-4.18,11-5.34,19.6-5.18,41.29-16,57.62-26,13.73-8.39,22.49-12.82,35.33-20.4a18.25,18.25,0,0,0,2.57-1.65A203.4,203.4,0,0,0,836,434.51c3.94-4.52,8.85-11.05,13.42-16.14,3.15-3.51,10.2-8.7,13.1-12.05C876.71,389.87,884.4,385.46,874.37,363.9Z"/><path class="cls-8" d="M678.67,429.93c-11-2.87-25.06,4.28-33.26,12.83-3.86-4.16-7.76-6.52-13.36-6.91-4.48-.3-7.94,1-11.73,3.37C614,429,603.06,425.74,592.75,421.54c-9.78-4-15.66,8.89-17.69,13.46h0c-2,4.57.2-1-.54,1.67a20.25,20.25,0,0,0-.49,8c.8,5.43.18,6.54,1.93,12.86,1.1,4,3.78,10.36,13.23,9.46,2.18-.21,27.6-4.29,29.82-11.78,4.39,2.52,7.09,4.66,11.72,4.91,5.16.28,8.89-1.31,12.92-4.53,8.15,10.55,30.84,17.25,31,16.67a6.26,6.26,0,0,0,1.87-.36c7.56-2.34,13.88-14,13.44-20.65C689.33,441.17,688.86,432.57,678.67,429.93ZM636.32,452.1c1.54.22,3.12.39,4.76.51C639.44,452.49,637.86,452.32,636.32,452.1Zm5.33-.52a50.87,50.87,0,0,1,7.21,1.24A50.87,50.87,0,0,0,641.65,451.58Zm33.08-5.32h0c.18.25.36.49.55.73C675.09,446.75,674.91,446.51,674.73,446.26Z"/><path class="cls-9" d="M633,458.53a.53.53,0,0,0-.48-.57h0a.53.53,0,0,0-.56.48c-7,84.19-19.32,184.13-19.45,185.18l-2.61,113.55a.52.52,0,0,0,.48.53h0a.53.53,0,0,0,.54-.51l2.61-113.49C613.67,642.7,626,542.74,633,458.53Z"/><path class="cls-5" d="M891.39,316.06c-.58,3.41-2.2,9.32-3,13.21,4,7.7,8.24,15.1,12.44,22.64,5.91-2.78,10.69-3.88,16.75-7.29s13.33-8.81,19.81-12.29c4.64-5.55,9.73-10.38,14.85-15.43,1.31-2.64,3-5.82,3.37-8.64s.55-6.27-1.68-7.87-3.34-2.45-4.67-4.69c-3.37-1.88-5.13-3.63-8.47-6.11s-7.68-2.51-12-1.37c-4.38,4.76-10,10.74-14,15.27s-6,7.86-9.65,12.19c-.28-3.19-1.56-5.48-1.44-8.83s1.51-7.19,1.93-10.73c-2-.5-3.26-5.36-5.39-1.39s-5.44,10.37-8.57,14.23C891.35,312,892,312.64,891.39,316.06Z"/><rect class="cls-10" x="901.13" y="248.11" width="19.21" height="50.8" rx="9.14" transform="translate(-38.43 331.34) rotate(-20.2)"/><rect class="cls-10" x="910.1" y="283.44" width="38.43" height="83.01" rx="14" transform="translate(-55.04 340.92) rotate(-20.2)"/><rect class="cls-11" x="891.97" y="249.44" width="22.92" height="9.14" transform="translate(-32.14 327.61) rotate(-20.2)"/><path class="cls-12" d="M917.33,297.79c7.46-3.31,19.4,3.49,23.41,12,4.31,9.18.86,23.32-6.82,26.52s-19.52-4.64-23-14C907.72,314,909.93,301.08,917.33,297.79Z"/><path class="cls-3" d="M463.79,550.8c-13.77-25-7.08-19-5.25-43.38,1-12.83,4.68-25.79,7.76-38.65,6.43,1.5,14.92,3.66,21.09,4s23.55,8,24.46-1.28-10.37-12.88-11.89-24-2.88-29.41-10.12-39.82-16.28-10.91-27.14-14.94c0,.17,0,.15,0,.3-6.72-1.78-14.53-2-21.3-2.86-24.19-3.19-22.49,6.52-32.82,19s-10.48,12.33-23.41,14.36c-8.45-4.22-17.94-10.17-26.15-14.08s-10.52-6.27-18.75-1.27c-3.37,2.05-7.95,6.4-11.47,8.92-10.64,1-22.46-2.95-30.74,5.77s-9.52,26.06-9.07,36.45,3.32,22.52,1.75,30-7.39,9.37-1.9,13.48,12.88-.45,18.74-2,11.28-5.38,17-7.42c2.29,1.35,4.44,1.82,6.85,3.35,15.37,9.77,27.33,28.93,24.29,48s-15.27,27.45-25,46.23-19,36.64-17.41,62,25.8,123.78,56.25,131.5,140.78,9.68,166.23-4.49S477.57,575.8,463.79,550.8Z"/><path class="cls-5" d="M298.33,499c3.92,20.51,17.26,58,29.09,70.64s17.63,18,29.38,18.19,9.38-6.84,13.91-17.09,7.27-35.05,7.22-47.58,1.51-30.81.67-39.87-1.81-5.31-2.66-12c-5.09,2.68-10.49,3.7-15.63,6,3.06,13.92,8.36,30.41,6.47,44.16s-7.22,22.81-9.21,36.09c-7.64-6.18-8.72-1.78-13.95-13.25s-14.95-36.07-21.41-48S304.49,493.37,298.33,499Z"/><path class="cls-5" d="M467.75,464.17c-6.24,14.25-8.39,53.81-25.33,60.19s-30.34-17-38-24.89-5.6-5.52-6.63-13.89,6.78-18.79,4.25-26.89-9-1.54-11.23,2.88-4.09,10.09-7,14.26c.34,7.51.84,14.9,1.1,22.38a102.45,102.45,0,0,1,6.52,10.5c1.45,2.83,2.35,5.06,4.38,7.37-.06-.07,0,0-.07-.15,3.12,4.15,4.43,6.32,8.68,10.33,11.58,11,33.91,46.25,52.48,37.67s24.35-36.6,29-54.79S492,474.59,497,456.8C487.19,449.8,474,449.92,467.75,464.17Z"/><path class="cls-5" d="M411,420.67c-9.56-6.82-14.33-21.13-10.45-33.26,4.85-1.25,9-3.55,11.42-8.12,3.78-7.09,6.24-9,5.25-16.48-.05-.35-.1-.71-.16-1.1-3.7-22.23-10.45-47-16.06-69.3q-.63-2.52-1.25-5c-2.05-8.28-7-11-14.46-9.51-12.08,2.42-28.5,6.54-40.36,10.12-7.35,2.21-10.12,7.61-8.4,15.44.75,3.43,1.45,7.22,2.13,11.24,3,18,5.69,40.71,11.12,57.24A68.3,68.3,0,0,0,354,382.2c3.2,6.09,12.23,9.23,19.43,8.48,3.67,4.84,5.06,10.37,2.59,15.42-6.11,12.45-8.94,9-15.84,17.31-.44,8.55-.73,17.51.41,26.35,27.74,1,43.06,1.49,68.64-11.59C423.44,430.14,419.91,427,411,420.67Z"/><path d="M397,355.51c-3.43,2.14-15,3.41-18.28,4.54a23.33,23.33,0,0,1-4.73,1.37,18.31,18.31,0,0,1-8.14.15,21.19,21.19,0,0,1-4.39-1.47c2.88,4,5.83,8.22,7.93,10.84,3.41,4.25,4.34,6.15,9.71,6.54s10-.2,14.52-3a18.8,18.8,0,0,0,8-12.23,61.81,61.81,0,0,0,.47-11.64c0-.34,0-.65-.07-1C401.66,351.71,400.3,353.45,397,355.51Z"/><path class="cls-3" d="M396.23,352.36c-3.9,2.13-14.24,1.36-17.45,3a25.21,25.21,0,0,1-4.79,2.23,17,17,0,0,1-8.32.86,16.69,16.69,0,0,1-7.18-2.48c1,1.29,2,2.67,3,4.09a21.19,21.19,0,0,0,4.39,1.47,18.31,18.31,0,0,0,8.14-.15,23.33,23.33,0,0,0,4.73-1.37c3.27-1.13,14.85-2.4,18.28-4.54s4.66-3.8,5-5.87c-.09-1.15-.18-2-.24-2.9C401.14,348.77,399.69,350.48,396.23,352.36Z"/><path class="cls-13" d="M356.45,353.32c1.67-.06.95.2,3.26.05s4.83,1.66,8.26,1.32,7.72-3.48,11.09-5.14,5.12-.5,8.05.6,6.7-.79,9.22-2.31a19.29,19.29,0,0,0,5.56-4.57,19.77,19.77,0,0,0-.1,3.26l.08-.07a16.85,16.85,0,0,0,.5-3.83c-3.18,2.43-5.63,5-9.66,6.6s-5.27-.51-9.21-1-6.76,2.2-10.7,4.26-12.65,1.1-16.75-.07l-.27-.07a7,7,0,0,0,2.43,3.43,1.79,1.79,0,0,1,0-.23C357.58,354.79,357,354,356.45,353.32Z"/><path class="cls-13" d="M358.35,354.72c3.44,1.56,11.66,2.66,15.41,1.07s6-3.63,9.65-3.4,6.17,1.18,9.72-.08,6.12-3.57,8.66-5.78a19.77,19.77,0,0,1,.1-3.26,19.29,19.29,0,0,1-5.56,4.57c-2.52,1.52-6.3,3.42-9.22,2.31s-4.68-2.26-8.05-.6-7.67,4.79-11.09,5.14-5.94-1.46-8.26-1.32-1.59-.11-3.26-.05c.55.7,1.13,1.47,1.74,2.28a7.58,7.58,0,0,1-.05-1A1.2,1.2,0,0,1,358.35,354.72Z"/><path class="cls-13" d="M401.79,346.74c0-.09.06-.19.08-.28l-.08.07Z"/><path class="cls-13" d="M358.19,355.6a1.79,1.79,0,0,0,0,.23l.28.18Z"/><path class="cls-13" d="M393.13,352.31c-3.55,1.26-6.1.32-9.72.08s-5.89,1.82-9.65,3.4-12,.49-15.41-1.07a1.2,1.2,0,0,0-.21-.09,7.58,7.58,0,0,0,.05,1l.3.41a16.69,16.69,0,0,0,7.18,2.48,17,17,0,0,0,8.32-.86,25.21,25.21,0,0,0,4.79-2.23c3.21-1.68,13.55-.91,17.45-3,3.46-1.88,4.91-3.59,5.56-5.62v-.21C399.25,348.74,396.59,351.08,393.13,352.31Z"/><path class="cls-14" d="M385.3,373.76c5.56-.89,8.18-2.58,10.39-4.88-2.36-2.63-6.58-3.65-12.72-2.17-5.49,1.32-7.49,3.6-7.63,6.23C377.66,374,380.4,374.55,385.3,373.76Z"/><path class="cls-13" d="M401.62,362.22c-2.61,2.55-4.14,4.8-5.93,6.66a9.1,9.1,0,0,1,2.17,5.25A11.43,11.43,0,0,0,401.62,362.22Z"/><path class="cls-13" d="M387.4,374.17c-6.13-.15-7.9.77-8.67,5.77a31.24,31.24,0,0,0,9-1,26.7,26.7,0,0,0,8.76-3.72C394.25,373,392.82,374.29,387.4,374.17Z"/><path class="cls-13" d="M375.34,372.94c-2.44-1.14-4.41-2.9-7.92-4.44-.6,7.29,4,10.84,10.6,11.39C376.42,377.57,375.23,375.14,375.34,372.94Z"/><path class="cls-13" d="M395.69,368.88c-2.21,2.3-4.83,4-10.39,4.88-4.9.79-7.64.26-10-.82-.11,2.2,1.08,4.63,2.68,6.95l.71.05c.77-5,2.54-5.92,8.67-5.77,5.42.12,6.85-1.16,9.08,1a13.73,13.73,0,0,0,1.38-1.08A9.1,9.1,0,0,0,395.69,368.88Z"/><path class="cls-15" d="M369.81,311.1c4.82,4.52,7,9.2,5.54,14.91s-3.05,5-3.92,10.95c-.81,5.56,7.84,4.74,11.91,2.09.26-.18.51-.36.73-.54"/><path d="M383.82,299.26c.11,0,.35-.07.4-.16,3-5.47,11.28-2.81,13.73-1.7s3.2.54.52-.78-11.88-3.86-15.12,2c-.1.19-.19.44,0,.55S383.71,299.3,383.82,299.26Z"/><path d="M353.93,307.67c-.1,0-.3.15-.39.11-5.53-2.61-10,4.28-11.13,6.57s-2,2.28-.86-.31,6.38-9.92,12.36-7.11c.19.09.41.23.31.46S354,307.64,353.93,307.67Z"/><path class="cls-16" d="M390.31,406.41c3,.83,9,14.74,7.55,19.75s-13.4,14.62-17,13.62-8.77-15.47-7.35-20.48S387.19,405.53,390.31,406.41Z"/><path class="cls-17" d="M423.78,415l-33.67-10.16-.44,1.47a1.84,1.84,0,0,1,.64.06c3,.83,9,14.74,7.55,19.75s-13.4,14.62-17,13.62a2.88,2.88,0,0,1-1.11-.7l-.26.84,33.67,10.17Z"/><path class="cls-18" d="M380.9,439.78c3.56,1,15.55-8.61,17-13.62s-4.59-18.92-7.55-19.75a1.84,1.84,0,0,0-.64-.06l-9.88,32.73A2.88,2.88,0,0,0,380.9,439.78Z"/><path class="cls-19" d="M376.27,547.63h0c-1.19-.18-2.06-.7-1.68-2.33,4.9-21.37-2-38.57-2.51-59.42,0-1.6.71-2.18,2-2.22.13-.19.07-.15,0,0,1.26-.05,2.07.41,2.12,2,.64,21.26,7.49,38.5,2.46,60.3C378.24,547.67,377.46,547.81,376.27,547.63Z"/><path class="cls-20" d="M380,548.22c0,.21,0,.16,0,0-1.27-.12-2-.66-1.87-2.34,2.17-21.8-1.48-38.43-2.28-59.52-.07-1.61.68-2.17,1.93-2.23.13-.18.07-.14,0,0,1.25-.06,2.08.38,2.16,2,.95,21.31,4.54,38.14,2.29,60.15C382.05,548,381.27,548.35,380,548.22Z"/><path class="cls-19" d="M384.08,548.43c0,.19,0,.14,0,0-1.28,0-2.06-.57-2-2.18.74-21-.77-39.05-2.13-59.8-.1-1.59.64-2.17,1.89-2.26.13-.18.07-.14,0,0a1.85,1.85,0,0,1,2.23,2c1.41,20.84,2.94,39.09,2.12,60.16C386.12,548,385.36,548.45,384.08,548.43Z"/><path class="cls-20" d="M387.43,548.69h0a1.91,1.91,0,0,1-2.12-2.08c-.49-19.8-.46-40.34-2-60.09a1.93,1.93,0,0,1,1.9-2.26h0a2,2,0,0,1,2.27,2c1.5,19.82,1.59,40.41,2,60.28A1.91,1.91,0,0,1,387.43,548.69Z"/><path class="cls-19" d="M390.82,549.55h0c-1.16.12-2.05-.26-2.18-1.63-1.79-17.85-3.76-43.22-.25-60.42.27-1.31,1-2,2.26-1.88.13-.15.11-.15,0,0a1.75,1.75,0,0,1,1.67,2.29c-3.28,17-1.22,41.89.38,59.62C392.83,548.89,392,549.43,390.82,549.55Z"/><path class="cls-19" d="M402.9,479.25c-10.82,6.12-25.32,1.9-35.66-13.47s-8.5-32.92,2.11-38.53,26.72-1.22,37.1,13.7S413.73,473.14,402.9,479.25Z"/><path class="cls-19" d="M348.44,498.43c.28-1.62-1.79-8.06-4.59-7.85a6,6,0,0,0-.09-.74,7.27,7.27,0,0,0-.27-1.14c-.14-.38-.33-.74-.44-1.14a11.06,11.06,0,0,0-2.52-4L341,483c.69-1,1.54-1.86,2.26-2.82.42-.57.8-1.16,1.24-1.72a17.87,17.87,0,0,0,1.2-1.41,4.12,4.12,0,0,1,.32-.41,4,4,0,0,1,.33.24c.25.22.52.39.79.59a11,11,0,0,1,1.66,1.46,8.11,8.11,0,0,1,1.07,1.85c.15.29.33.6.47.92-2.27,1.39-2.42,5.67-2.08,7.43s1,6.81,3,7.55,4.76-5.66,5-7.22c.3-1.75-2-8.86-5.11-8.11l0,0a6.11,6.11,0,0,0-.4-.81,16.5,16.5,0,0,0-1.1-2,13.17,13.17,0,0,0-1.68-1.57c-.3-.25-.64-.43-.93-.69a3.08,3.08,0,0,0-.41-.3l.29-.3,1.37-1.57c.81-.94,1.68-1.8,2.5-2.74a15.7,15.7,0,0,1,1.3-1.28c.38-.35.68-.73,1.09-1a33.65,33.65,0,0,1,2.93-1.93,13.24,13.24,0,0,0,3.18-2.75.78.78,0,1,0-1.17-1,12.52,12.52,0,0,1-3.26,2.68,21.35,21.35,0,0,0-2.71,1.86c-.43.35-.78.74-1.18,1.12l-.07-.09a11,11,0,0,0-1.9-1.57,7.65,7.65,0,0,0-1.05-.36,3.35,3.35,0,0,0-1-.24c-.36,0-.72-.07-1.09-.07a4.74,4.74,0,0,0-1.11.17c-.4.11-.8.23-1.19.37a6.56,6.56,0,0,0-.67.3c-1.35-1.79-6-.86-7.87-.13s-7,2.47-7.64,4.26,6,2.61,7.63,2.46,8.49-3.51,8.19-5.88l.2-.09a6.92,6.92,0,0,1,1.08-.38,6.38,6.38,0,0,1,1.05-.24,8,8,0,0,1,1.09,0,3,3,0,0,1,1,.19,9.59,9.59,0,0,1,.95.31,3.94,3.94,0,0,1,.91.7l.92.8,0,0a9.09,9.09,0,0,0-.75.77c-.81.94-1.68,1.8-2.5,2.73-.45.53-.91,1.06-1.37,1.58a11.92,11.92,0,0,0-1.24,1.33c-.34.51-.76.92-1.15,1.4s-.6.82-.89,1.23a4.26,4.26,0,0,0-1.29-.85,10.09,10.09,0,0,0-2.32-.49,5.66,5.66,0,0,0-2.33.3,2,2,0,0,1-.33.08c-1-1.62-4.89-.85-6.41-.24s-5.61,2-6.15,3.52,4.86,2.23,6.17,2.12,6.32-2.64,6.57-4.6l.1,0a5.35,5.35,0,0,1,2.19-.34,8.94,8.94,0,0,1,2.07.41,3.64,3.64,0,0,1,1.22.8c-.68.89-1.44,1.71-2.09,2.62s-1.47,2.11-2.32,3.09l-.13.18c-.28.38-.52.8-.78,1.2l0,.05L336,486c-.32-.28-.62-.61-1-.88a3.52,3.52,0,0,0-2.32-.41,8.07,8.07,0,0,1-1.2,0c-.14,0-.26-.08-.4-.09a1.66,1.66,0,0,0-.49.11c-.2.07-.4.14-.6.23a7.55,7.55,0,0,0-4.14.41c-1.17.47-4.37,1.59-4.8,2.76s3.8,1.73,4.82,1.64,5.67-2.43,5.1-4a1.25,1.25,0,0,0-.15-.28l.05,0c.23-.06.48.07.73.06s.73-.05,1.1-.05.72,0,1.08,0a1.32,1.32,0,0,1,.92.46c.41.39.84.77,1.27,1.14-.15.23-.29.47-.45.69s-.32.36-.45.57a6.71,6.71,0,0,0-.82.34,12.55,12.55,0,0,0-1.65.89,5.71,5.71,0,0,0-1.35,1.1.23.23,0,0,1-.07.07c-1.35,0-3.29,1.32-4.08,2.07s-3.52,3.18-3.46,4.38,4.3,0,5.23-.51,4.42-4.45,3.26-5.59a.94.94,0,0,0-.12-.09,2.37,2.37,0,0,1,.28-.27l.64-.43a9.59,9.59,0,0,1,1.33-.74c-.22.3-.42.61-.64.94a.77.77,0,0,0,.33,1.08.88.88,0,0,0,1.1-.43c.16-.23.34-.45.48-.69s.26-.35.39-.55a2.58,2.58,0,0,1,.33,1.05,6.19,6.19,0,0,1,.12,1.43,3,3,0,0,0,0,.67c0,.19.08.37.09.56a4.28,4.28,0,0,1,0,.62,4.6,4.6,0,0,0,.05.64,13.36,13.36,0,0,1-.1,1.41c0,.43-.11.84-.14,1.26a8,8,0,0,1-.16,1c-2.19.36-3.46,4.12-3.65,5.73s-.92,5.9.34,7,4.94-3.55,5.53-4.78.69-7.21-1.43-7.89c0-.2.08-.38.12-.58s0-.45.07-.67a13.24,13.24,0,0,0,.19-2.87c0-.42,0-.83,0-1.25a14.64,14.64,0,0,1-.05-1.49,4.14,4.14,0,0,0-.77-2.57,7.26,7.26,0,0,0,.49-.61c.15-.22.28-.47.44-.69s.35-.41.5-.65a12.11,12.11,0,0,1,.88-1.32l.05-.06q.63-.77,1.2-1.56a8.52,8.52,0,0,1,1.23,1.57c.22.37.42.76.64,1.13a5.58,5.58,0,0,1,.44,1.11c.12.36.3.67.42,1a6.48,6.48,0,0,1,.23,1.08c0,.2,0,.39.06.59-2.47,1.12-2.64,5.54-2.29,7.32s1,6.55,2.86,7.26S348.18,499.93,348.44,498.43Z"/><path class="cls-19" d="M440.75,489.79c-.37-1.21.59-6.34,2.75-6.49a3.62,3.62,0,0,1,0-.57,6.7,6.7,0,0,1,.1-.9c.07-.31.18-.6.22-.92a7.21,7.21,0,0,1,.65-1.84,7.09,7.09,0,0,1,.9-1.46c-.14-.14-.27-.29-.41-.44-.62-.67-1.35-1.25-2-1.9-.38-.39-.72-.8-1.11-1.18a11.73,11.73,0,0,1-1.05-.94,3.7,3.7,0,0,0-.28-.28,2.39,2.39,0,0,0-.23.22,6.88,6.88,0,0,1-.55.53,9.25,9.25,0,0,0-1.12,1.3,6,6,0,0,0-.64,1.53,7.31,7.31,0,0,0-.27.75c1.87.81,2.39,4.05,2.29,5.43s-.13,5.31-1.55,6.08-4.17-3.8-4.52-5,.69-7,3.11-6.73h0a4.61,4.61,0,0,1,.23-.66,13.35,13.35,0,0,1,.65-1.62,9.32,9.32,0,0,1,1.13-1.38c.2-.22.44-.4.64-.63a3.71,3.71,0,0,1,.29-.27,2.43,2.43,0,0,1-.25-.2l-1.2-1c-.71-.62-1.45-1.19-2.16-1.81a11.28,11.28,0,0,0-1.12-.84c-.32-.22-.59-.48-.93-.67a23.06,23.06,0,0,0-2.41-1.15,10.18,10.18,0,0,1-2.7-1.75.61.61,0,1,1,.8-.92,9.35,9.35,0,0,0,2.74,1.69,16.72,16.72,0,0,1,2.24,1.12c.36.22.67.48,1,.73,0,0,0-.05,0-.07a8.7,8.7,0,0,1,1.3-1.41,5.56,5.56,0,0,1,.77-.39,2.87,2.87,0,0,1,.77-.3c.28,0,.54-.12.82-.17a3.09,3.09,0,0,1,.86,0c.32,0,.64.08.95.14s.36.11.53.16c.87-1.51,4.51-1.31,6-1s5.54,1.12,6.23,2.42-4.34,2.64-5.59,2.7-6.8-1.76-6.8-3.59l-.16-.05a5.23,5.23,0,0,0-.86-.17,3.17,3.17,0,0,0-1.65.08,2.26,2.26,0,0,0-.73.25c-.23.12-.48.2-.7.34a3.09,3.09,0,0,0-.62.63l-.63.71h0c.22.17.44.33.65.51.71.63,1.45,1.19,2.16,1.82l1.2,1.05a9.1,9.1,0,0,1,1.07.88c.31.35.67.61,1,.94s.53.56.8.84a3.44,3.44,0,0,1,.9-.79,8,8,0,0,1,1.72-.62,4.24,4.24,0,0,1,1.81,0l.26,0c.62-1.35,3.64-1.18,4.86-.88s4.47.93,5,2-3.5,2.22-4.51,2.28-5.07-1.33-5.45-2.79H448a4.11,4.11,0,0,0-1.71,0,7.9,7.9,0,0,0-1.53.53,3.12,3.12,0,0,0-.86.75c.61.6,1.26,1.15,1.85,1.77s1.32,1.45,2.06,2.11a.32.32,0,0,1,.11.12c.26.26.48.55.72.83,0,0,0,0,0,0l.35-.4c.22-.25.42-.54.65-.78a2.81,2.81,0,0,1,1.73-.57,7,7,0,0,0,.92-.09c.11,0,.19-.09.3-.11a1,1,0,0,1,.38,0l.48.11a5.78,5.78,0,0,1,3.2-.13c.93.23,3.48.73,3.92,1.58s-2.74,1.73-3.52,1.77-4.55-1.23-4.27-2.48a1,1,0,0,1,.09-.24h0c-.18,0-.36.1-.55.12s-.56,0-.84.08-.55.07-.82.13a1.07,1.07,0,0,0-.67.44c-.27.35-.56.68-.85,1,.13.16.26.32.4.47s.28.25.41.39.44.11.65.17a8,8,0,0,1,1.34.5,4.29,4.29,0,0,1,1.14.69l.06,0a5.66,5.66,0,0,1,3.3,1.14c.79.58,3,2,3.06,3s-3.28.44-4,.17-3.79-2.91-3-3.91l.08-.08a1.46,1.46,0,0,0-.24-.17l-.52-.26a7.64,7.64,0,0,0-1.09-.42l.58.64a.62.62,0,0,1-.15.87.68.68,0,0,1-.88-.21c-.14-.16-.3-.31-.44-.48a4,4,0,0,0-.35-.37,2.14,2.14,0,0,0-.15.83,5.86,5.86,0,0,0,.05,1.11,2.16,2.16,0,0,1,.07.51c0,.14,0,.29,0,.43a2.42,2.42,0,0,0,.07.47c0,.17,0,.33,0,.49a7.78,7.78,0,0,0,.21,1.07c.06.33.16.63.23.95a6.68,6.68,0,0,0,.21.73c1.71,0,3,2.76,3.33,4s1.27,4.39.41,5.36-4.1-2.17-4.67-3.05-1.22-5.42.33-6.17a3.59,3.59,0,0,0-.14-.43,2.8,2.8,0,0,1-.12-.5,10.15,10.15,0,0,1-.42-2.17c0-.32-.11-.63-.09-.95a10.73,10.73,0,0,0-.1-1.14,3.14,3.14,0,0,1,.34-2c-.14-.15-.3-.26-.44-.42s-.25-.33-.39-.48a6.2,6.2,0,0,1-.45-.44,8.68,8.68,0,0,0-.8-.91l0,0c-.37-.34-.72-.69-1.06-1.06a6.39,6.39,0,0,0-.79,1.33c-.14.31-.25.63-.38.93a4,4,0,0,0-.23.9c-.06.28-.17.54-.22.82a4.91,4.91,0,0,0-.07.86,3.38,3.38,0,0,0,0,.45c2,.59,2.54,3.94,2.44,5.33s-.12,5.1-1.48,5.85S441.09,490.9,440.75,489.79Z"/><path class="cls-18" d="M357.79,408.73c2.72-.94,15,7.25,16.7,12.17s-2.08,19.46-5.36,20.59-15.24-8-16.94-12.87S354.93,409.72,357.79,408.73Z"/><path class="cls-18" d="M386.67,415.86c3,.84,9,14.75,7.56,19.75s-13.4,14.63-17,13.62-8.76-15.46-7.35-20.47S383.55,415,386.67,415.86Z"/><path class="cls-16" d="M407.67,415.86c3,.84,9,14.75,7.56,19.75s-13.4,14.63-17,13.62-8.76-15.46-7.35-20.47S404.55,415,407.67,415.86Z"/><path class="cls-18" d="M407.67,417.86c3,.84,9,14.75,7.56,19.75s-13.4,14.63-17,13.62-8.76-15.46-7.35-20.47S404.55,417,407.67,417.86Z"/><path class="cls-16" d="M403.34,473.15c2.91-1,15.77,7,17.45,12s-2.7,19.65-6.2,20.85-16-7.74-17.7-12.66S400.28,474.2,403.34,473.15Z"/><path class="cls-16" d="M358.34,414.15c2.91-1,15.77,7,17.45,12s-2.7,19.65-6.2,20.85-16-7.74-17.7-12.66S355.28,415.2,358.34,414.15Z"/><path class="cls-18" d="M398.46,460.73c2.93-1,16.63,10.32,18.67,16.61s-1.56,24.17-5.08,25.32-16.92-11.24-19-17.53S395.38,461.73,398.46,460.73Z"/><path class="cls-18" d="M435.79,438.81c2.08,4.45-7.75,20.62-12.64,20.82s-18.5-4.58-20.49-8.92,4.71-17.09,9.2-19S433.6,434.11,435.79,438.81Z"/><path class="cls-21" d="M359.46,463.64c6.11-7.76,15.54-7,22.24-.33s8.75,15.58,2.53,23.27-15.32,6.7-22.13.2S353.36,471.39,359.46,463.64Z"/><path class="cls-16" d="M428.33,441.05c1.36,2.52-6.71,17-12.15,19.89s-22.44,2.62-24.08-.42,7.51-17.39,12.94-20.31S426.9,438.39,428.33,441.05Z"/><path class="cls-22" d="M385.23,452.46c5.1-6.47,12.91-5.88,18.44-.38s7.18,12.89,2,19.31-12.74,5.63-18.36.27S380.13,458.93,385.23,452.46Z"/><path class="cls-23" d="M408.3,460.18c5.31-6.73,13.43-6.13,19.16-.42s7.44,13.39,2,20.06-13.24,5.88-19.07.32S403,466.92,408.3,460.18Z"/><path class="cls-24" d="M367,425.7c4.54-5.72,11.17-5.46,15.7-.91s5.7,10.86,1.08,16.53-11,5.24-15.62.81S362.42,431.41,367,425.7Z"/><path class="cls-25" d="M338.31,433.48c8.4-10.42,19.61-10.76,26.75-3.44s8.38,18.08-.14,28.43-19.31,10.38-26.6,3.28S329.92,443.9,338.31,433.48Z"/><path class="cls-23" d="M387.45,431.15c4.15-7.5,12.36-8.15,19.05-3.36S416.22,440,412,447.42s-12.21,7.86-19,3.23S383.29,438.65,387.45,431.15Z"/><path class="cls-26" d="M384.58,458.31c-5.67,3.47-12.28,2.82-16-2.92a11.93,11.93,0,0,1,4.06-16.58c5.53-3.23,12.9-2.64,16.69,2.89S390.25,454.85,384.58,458.31Z"/><path class="cls-26" d="M398.72,491.85c-4.22,2.55-9.27,1.86-12.27-2.72s-1.49-10.46,2.63-12.82A9.58,9.58,0,0,1,401.86,479C404.9,483.46,402.94,489.31,398.72,491.85Z"/><path class="cls-17" d="M392.24,541.89l9.12.09.07-38.46-10-.11C390.67,515.53,391.28,529.26,392.24,541.89Z"/><path class="cls-17" d="M371.06,503.19l-3.66,0-.08,38.47,7.51.08C375.32,528.47,372.72,516.2,371.06,503.19Z"/><path class="cls-27" d="M374.83,541.7l2.9,0c0-13.32-1.52-25.43-2.65-38.49l-4-.05C372.72,516.2,375.32,528.47,374.83,541.7Z"/><path class="cls-28" d="M377.73,541.73l4,0c-.15-13-.93-25.48-1.85-38.48l-4.76-.05C376.21,516.3,377.73,528.41,377.73,541.73Z"/><path class="cls-27" d="M381.69,541.77l3.17,0c-.29-12.8-.57-25.72-1.26-38.48l-3.76,0C380.76,516.29,381.54,528.72,381.69,541.77Z"/><path class="cls-28" d="M387.47,541.83c-1-12.62-1.52-26.35-.67-38.47l-3.2,0c.69,12.76,1,25.68,1.26,38.48Z"/><path class="cls-27" d="M387.47,541.83l4.77.06c-1-12.63-1.57-26.36-.78-38.48l-4.66-.05C386,515.48,386.5,529.21,387.47,541.83Z"/><path class="cls-29" d="M384.66,446a6.77,6.77,0,0,1-1.92,8.17,5.88,5.88,0,0,1-4.12,1.35,5.41,5.41,0,0,1-3.79-1.83,4.15,4.15,0,0,1-1-3.19,4.55,4.55,0,0,1,1.65-3,3.89,3.89,0,0,1,2.71-.88,3.51,3.51,0,0,1,2.48,1.2,2.73,2.73,0,0,1,.66,2.11,3,3,0,0,1-1.09,2,2.58,2.58,0,0,1-1.8.59,2.33,2.33,0,0,1-1.65-.8,1.94,1.94,0,0,1,.29-2.76,1.8,1.8,0,0,1,1.22-.4,1.59,1.59,0,0,1,1.12.55,1.24,1.24,0,0,1,.3,1,1.39,1.39,0,0,1-.5.92.25.25,0,0,1-.36,0,.25.25,0,0,1,0-.35.82.82,0,0,0,.31-.58.76.76,0,0,0-.19-.61,1.08,1.08,0,0,0-.78-.37,1.23,1.23,0,0,0-.84.27,1.45,1.45,0,0,0-.22,2.06,2,2,0,0,0,2.74.17,2.49,2.49,0,0,0,.9-1.66,2.25,2.25,0,0,0-.54-1.75,3.05,3.05,0,0,0-2.14-1,3.37,3.37,0,0,0-2.34.76,4.09,4.09,0,0,0-1.47,2.7,3.68,3.68,0,0,0,.89,2.83,4.86,4.86,0,0,0,3.44,1.67,5.35,5.35,0,0,0,3.75-1.23,6.2,6.2,0,0,0,.94-8.84,7.82,7.82,0,0,0-5.48-2.65,8.57,8.57,0,0,0-6,2,.25.25,0,0,1-.35,0,.24.24,0,0,1,0-.35,9.06,9.06,0,0,1,6.34-2.08,8.28,8.28,0,0,1,5.82,2.82A6.34,6.34,0,0,1,384.66,446Z"/><path class="cls-29" d="M394.75,478.85a5.23,5.23,0,0,1,5.34,3.57,4.21,4.21,0,0,1-2.68,5.31,3.43,3.43,0,0,1-2.61-.2,3.38,3.38,0,0,1-1.7-2,2.76,2.76,0,0,1,1.76-3.48,2.25,2.25,0,0,1,2.85,1.43,1.84,1.84,0,0,1-.11,1.4,1.82,1.82,0,0,1-1.07.91,1.5,1.5,0,0,1-1.9-1,1.18,1.18,0,0,1,.07-.94,1.22,1.22,0,0,1,.72-.62,1,1,0,0,1,.79.05,1.06,1.06,0,0,1,.52.6.19.19,0,0,1-.12.24.18.18,0,0,1-.24-.12.68.68,0,0,0-.33-.38.67.67,0,0,0-.5,0,.82.82,0,0,0-.5.43.89.89,0,0,0-.05.66,1.13,1.13,0,0,0,1.43.71,1.44,1.44,0,0,0,.92-1.83,1.83,1.83,0,0,0-.93-1.09,1.87,1.87,0,0,0-1.43-.1,2.38,2.38,0,0,0-1.38,1.19,2.33,2.33,0,0,0-.14,1.81,3.06,3.06,0,0,0,3.83,1.93,3.83,3.83,0,0,0,2.44-4.83,4.85,4.85,0,0,0-6.11-3.08,6.08,6.08,0,0,0-3.89,7.68.19.19,0,0,1-.36.12,6.46,6.46,0,0,1,4.13-8.16A5.43,5.43,0,0,1,394.75,478.85Z"/><path class="cls-30" d="M376.87,469.56a9.55,9.55,0,0,1,.84,11.56,7,7,0,0,1-4.79,2.95,7.63,7.63,0,0,1-5.64-1.44,6.52,6.52,0,0,1-2.58-4,5.92,5.92,0,0,1,.91-4.54,4.55,4.55,0,0,1,3.14-1.94,5,5,0,0,1,3.7.94,4.34,4.34,0,0,1,1.71,2.67,3.93,3.93,0,0,1-.6,3,3,3,0,0,1-2.09,1.29,3.31,3.31,0,0,1-2.46-.63,2.78,2.78,0,0,1-.74-3.8,2,2,0,0,1,1.41-.87,2.3,2.3,0,0,1,1.67.42,2,2,0,0,1,.78,1.23,1.8,1.8,0,0,1-.27,1.38.35.35,0,0,1-.48.07.36.36,0,0,1-.09-.48,1.11,1.11,0,0,0,.17-.87,1.26,1.26,0,0,0-.49-.78,1.56,1.56,0,0,0-1.16-.29,1.44,1.44,0,0,0-1,.6,2.08,2.08,0,0,0,.55,2.84,2.53,2.53,0,0,0,3.61-.52,3.24,3.24,0,0,0,.5-2.49,3.59,3.59,0,0,0-1.42-2.22,4.32,4.32,0,0,0-3.19-.81,4,4,0,0,0-2.71,1.67,5.24,5.24,0,0,0-.8,4,5.77,5.77,0,0,0,2.29,3.58,7,7,0,0,0,5.13,1.32,6.33,6.33,0,0,0,4.35-2.69,9,9,0,0,0-2.37-12.19,11.11,11.11,0,0,0-8.16-2.08,10,10,0,0,0-6.92,4.27.35.35,0,0,1-.48.07.36.36,0,0,1-.09-.48,10.7,10.7,0,0,1,7.36-4.54,11.8,11.8,0,0,1,8.67,2.22A10.38,10.38,0,0,1,376.87,469.56Z"/><path class="cls-31" d="M394.68,456.49c2.67-.57,5.59,1.25,7,4.6a7.91,7.91,0,0,1,.45,4.81,5.21,5.21,0,0,1-2.36,3.45,3.22,3.22,0,0,1-3.06,0,5.2,5.2,0,0,1-2.42-2.71,5.14,5.14,0,0,1-.29-3.16,3.4,3.4,0,0,1,1.54-2.26,2.13,2.13,0,0,1,2,0,3.45,3.45,0,0,1,1.6,1.79,3.39,3.39,0,0,1,.2,2.1,2.28,2.28,0,0,1-1,1.51,1.79,1.79,0,0,1-2.43-1.18,2.32,2.32,0,0,1-.13-1.42,1.54,1.54,0,0,1,.7-1,1,1,0,0,1,.93,0,1.62,1.62,0,0,1,.73.83.3.3,0,0,1-.09.37c-.11.06-.24,0-.3-.15a1,1,0,0,0-.47-.52.62.62,0,0,0-.58,0,1.1,1.1,0,0,0-.49.71,1.62,1.62,0,0,0,.1,1,1.33,1.33,0,0,0,1.81.88,2.31,2.31,0,0,0,.66-2.86,2.88,2.88,0,0,0-1.33-1.49,1.78,1.78,0,0,0-1.68,0,3,3,0,0,0-1.33,1.95,4.51,4.51,0,0,0,.25,2.73,4.6,4.6,0,0,0,2.15,2.4,2.82,2.82,0,0,0,2.72-.05,4.7,4.7,0,0,0,2.15-3.13,7.21,7.21,0,0,0-.41-4.38c-1.54-3.65-5-5.34-7.78-3.77a7.55,7.55,0,0,0-3.41,5,11.38,11.38,0,0,0,.65,7,.3.3,0,0,1-.09.37c-.11.07-.25,0-.31-.15a12.16,12.16,0,0,1-.69-7.39,8,8,0,0,1,3.63-5.3A4.63,4.63,0,0,1,394.68,456.49Z"/><path class="cls-32" d="M412.13,463.78c1.95-3.09,6.45-4.18,11-2.39a10.78,10.78,0,0,1,5.08,4.09,7,7,0,0,1,1.13,5.5,4.22,4.22,0,0,1-2.81,3,7,7,0,0,1-4.89-.23,7.09,7.09,0,0,1-3.34-2.68,4.58,4.58,0,0,1-.74-3.61,2.81,2.81,0,0,1,1.86-2,4.6,4.6,0,0,1,3.23.15,4.69,4.69,0,0,1,2.21,1.78,3,3,0,0,1,.5,2.4c-.33,1.28-1.86,1.83-3.41,1.22a3.1,3.1,0,0,1-1.5-1.21,2,2,0,0,1-.34-1.62,1.29,1.29,0,0,1,.85-.91,2.14,2.14,0,0,1,1.49.07.4.4,0,0,1,.28.43c0,.17-.23.24-.43.16a1.34,1.34,0,0,0-.94-.05.83.83,0,0,0-.54.58,1.39,1.39,0,0,0,.24,1.12,2.16,2.16,0,0,0,1,.84,1.78,1.78,0,0,0,2.55-.91,3.12,3.12,0,0,0-2.15-3.32,3.87,3.87,0,0,0-2.69-.12,2.33,2.33,0,0,0-1.54,1.64,4,4,0,0,0,.64,3.11,6.1,6.1,0,0,0,2.88,2.31,6.19,6.19,0,0,0,4.34.21,3.79,3.79,0,0,0,2.5-2.66,6.34,6.34,0,0,0-1-5A9.78,9.78,0,0,0,423,462c-5-2-9.89-.2-10.94,3.91a10.1,10.1,0,0,0,1.65,8,15.54,15.54,0,0,0,7.34,5.92.39.39,0,0,1,.28.43c0,.16-.23.23-.43.16a16.53,16.53,0,0,1-7.8-6.29,10.72,10.72,0,0,1-1.75-8.46A6.26,6.26,0,0,1,412.13,463.78Z"/><path class="cls-32" d="M369.88,426.27c1.15-1.82,4-2.32,7.08-1a8.29,8.29,0,0,1,3.47,2.71,4.43,4.43,0,0,1,.95,3.42,2.27,2.27,0,0,1-1.72,1.73,4.91,4.91,0,0,1-3.19-.33,5.47,5.47,0,0,1-2.28-1.78,2.91,2.91,0,0,1-.62-2.25,1.48,1.48,0,0,1,1.13-1.13,3.24,3.24,0,0,1,2.11.21,3.57,3.57,0,0,1,1.51,1.19,1.88,1.88,0,0,1,.42,1.49c-.16.78-1.14,1.05-2.18.62a2.54,2.54,0,0,1-1-.8,1.3,1.3,0,0,1-.28-1,.69.69,0,0,1,.52-.52,1.52,1.52,0,0,1,1,.1c.13.06.22.18.2.28s-.14.13-.28.08a.89.89,0,0,0-.61-.07.44.44,0,0,0-.33.33,1,1,0,0,0,.2.71,1.7,1.7,0,0,0,.71.55c.77.33,1.5.12,1.62-.46a2.19,2.19,0,0,0-1.52-2.12A2.7,2.7,0,0,0,375,428a1.24,1.24,0,0,0-.94.94,2.53,2.53,0,0,0,.54,1.94,4.59,4.59,0,0,0,2,1.53,4.37,4.37,0,0,0,2.84.3,2,2,0,0,0,1.53-1.54,4,4,0,0,0-.87-3.11,7.49,7.49,0,0,0-3.15-2.46c-3.32-1.4-6.45-.51-7,2a6.41,6.41,0,0,0,1.37,4.95,11.88,11.88,0,0,0,5,3.92c.13.06.22.18.2.28s-.15.13-.28.08a12.79,12.79,0,0,1-5.33-4.17,6.8,6.8,0,0,1-1.46-5.26A3.47,3.47,0,0,1,369.88,426.27Z"/><path class="cls-32" d="M397.84,446.15a8.88,8.88,0,0,0,9.93-3.93,6,6,0,0,0,.39-5,7.18,7.18,0,0,0-3.61-4,6.31,6.31,0,0,0-4.45-.48,5.38,5.38,0,0,0-3.38,2.55,4,4,0,0,0-.26,3.31,4.75,4.75,0,0,0,2.37,2.61,4.17,4.17,0,0,0,2.94.31,3.56,3.56,0,0,0,2.23-1.68,2.61,2.61,0,0,0,.17-2.2,3.14,3.14,0,0,0-1.57-1.74,2.63,2.63,0,0,0-3.47.92,1.8,1.8,0,0,0-.11,1.49,2.11,2.11,0,0,0,1.06,1.18,1.93,1.93,0,0,0,1.35.14,1.63,1.63,0,0,0,1-.77.3.3,0,0,0-.15-.41.34.34,0,0,0-.44.11,1,1,0,0,1-.64.49,1.17,1.17,0,0,1-.86-.09,1.47,1.47,0,0,1-.74-.81,1.26,1.26,0,0,1,.09-1,2,2,0,0,1,2.58-.68,2.27,2.27,0,0,1,1.12,3.11,2.91,2.91,0,0,1-1.85,1.4,3.45,3.45,0,0,1-2.44-.26,4.06,4.06,0,0,1-2.05-2.25,3.46,3.46,0,0,1,.22-2.85,4.79,4.79,0,0,1,3-2.26,5.62,5.62,0,0,1,4,.42,6.52,6.52,0,0,1,3.28,3.62,5.44,5.44,0,0,1-.36,4.58c-2,3.66-7,5-11.11,2.94a10.37,10.37,0,0,1-5.22-5.75,8.73,8.73,0,0,1,.57-7.29.3.3,0,0,0-.15-.41.34.34,0,0,0-.44.12,9.27,9.27,0,0,0-.6,7.74,11.06,11.06,0,0,0,5.55,6.12A10,10,0,0,0,397.84,446.15Z"/><path class="cls-32" d="M357.12,458.23c5.31-2.18,8.43-8.36,7.2-15.19a13.69,13.69,0,0,0-4.55-8,10.56,10.56,0,0,0-8-2.67,7.31,7.31,0,0,0-5.44,3.43,9.71,9.71,0,0,0-1.25,7,9,9,0,0,0,3,5.25,7,7,0,0,0,5.23,1.75,4.82,4.82,0,0,0,3.59-2.26,6.34,6.34,0,0,0,.82-4.62,6,6,0,0,0-2-3.5,4.61,4.61,0,0,0-3.48-1.16c-2,.21-3.38,2.29-3,4.61a4.13,4.13,0,0,0,1.34,2.37A3.15,3.15,0,0,0,353,446a2.2,2.2,0,0,0,1.65-1,2.9,2.9,0,0,0,.38-2.12.56.56,0,0,0-.57-.49.47.47,0,0,0-.37.59,1.87,1.87,0,0,1-.24,1.34,1.39,1.39,0,0,1-1,.65,2.19,2.19,0,0,1-1.64-.54,2.88,2.88,0,0,1-.93-1.65,2.77,2.77,0,0,1,2.21-3.44A4.25,4.25,0,0,1,356.8,443a5.27,5.27,0,0,1-.68,3.83,4,4,0,0,1-3,1.88,6,6,0,0,1-4.52-1.51,7.79,7.79,0,0,1-2.57-4.53,8.61,8.61,0,0,1,1.11-6.21,6.48,6.48,0,0,1,4.83-3,9.64,9.64,0,0,1,7.26,2.42,12.48,12.48,0,0,1,4.13,7.28c1.35,7.46-2.91,14.09-9.49,14.79a15.31,15.31,0,0,1-11.54-3.85,19.85,19.85,0,0,1-6.57-11.58.56.56,0,0,0-.57-.48.46.46,0,0,0-.37.58,21.07,21.07,0,0,0,7,12.3,16.27,16.27,0,0,0,12.26,4.1A11,11,0,0,0,357.12,458.23Z"/><path class="cls-33" d="M797,724.2c-39.57,0-70.65,5.11-95,14-35.54-10.37-76.32-16.45-122.76-16.45-47.51,0-82.79,7.37-108.94,19.73-29-6.24-61-9.76-96.3-9.76-24.72,0-46.13,2-64.67,5.65-42.11-16.59-92.85-26.83-153.13-26.83-86,0-132,24.13-156.16,58.41V999.5H1000V775.83C950.19,745.19,883.35,724.2,797,724.2Z"/><path class="cls-34" d="M146.23,924.79c-1.28-2-.74-2.86-2.81-4.54s-2.32-4.74-5.56-5.39c-2.12-1.31-2.74-5.08-4.62-6.12s-2.57-.28-4.32-.9a62,62,0,0,0-8.68-4.25c-2.55-.85-2.63,0-3.88,1.6-1.8-.61-3.09-2.12-5.19-2.09s-2.93.5-4.78,2.1c-3.49,3-3.07-5.19-6.52,2.35-3.38,7.35-2.3,21.56-.23,29.74-1.27-.4-2.48-.38-3.28.56-1.82,2.15,1.37,5.87,3.18,7.59a11.88,11.88,0,0,0,5.77,2.68,11.8,11.8,0,0,0,3.88,4.1c2.25,1.26,7.27,3.36,8.78.77.64-1.1.25-2.25-.56-3.31,5.83-.33,8.89-1.75,15.17-3.19,6.85-1.58,11.39-9.14,15.92-14.55A14.73,14.73,0,0,0,146.23,924.79Z"/><path class="cls-35" d="M102.94,906.85c1,.06,1.53,5,1.2,11s-2,20.92-3,20.87-1-15.05-.65-21.07S102,906.8,102.94,906.85Z"/><path class="cls-35" d="M109.6,904.63c1,.16.91,5.69-.15,12.36s-4.52,23.12-5.5,23,.88-16.85,2-23.52S108.62,904.47,109.6,904.63Z"/><path class="cls-35" d="M115.25,905.27c1,.25.32,5.85-1.43,12.52s-6.9,23-7.86,22.74,2.62-17,4.38-23.66S114.29,905,115.25,905.27Z"/><path class="cls-35" d="M120.84,906.06c.93.35-.36,6.08-2.87,12.8s-9.53,23.13-10.46,22.78,4.57-17.32,7.09-24S119.91,905.71,120.84,906.06Z"/><path class="cls-35" d="M126.28,907.87c.89.44-1,6-4.13,12.43s-11.78,22-12.67,21.59,6.27-16.76,9.44-23.18S125.39,907.43,126.28,907.87Z"/><path class="cls-35" d="M131.54,910.53c.84.53-1.65,5.93-5.55,12.05s-14.28,20.9-15.12,20.37,8.18-16.18,12.09-22.3S130.71,910,131.54,910.53Z"/><path class="cls-35" d="M136.23,913.83c.78.62-2.25,5.74-6.75,11.43S113.14,944.61,112.36,944s9.79-15.27,14.29-21S135.45,913.22,136.23,913.83Z"/><path class="cls-35" d="M140.38,917.81c.71.69-2.76,5.44-7.76,10.61s-18,17.45-18.7,16.76S125,931.09,130,925.92,139.67,917.12,140.38,917.81Z"/><path class="cls-35" d="M143.55,924c.62.78-3.29,4.9-8.73,9.2s-19.44,14.35-20.06,13.57,12.39-12.09,17.83-16.39S142.93,923.22,143.55,924Z"/><path class="cls-35" d="M147.09,931.13c.47.87-3.91,4.16-9.78,7.35S116.47,948.86,116,948s13.73-9.49,19.61-12.68S146.61,930.26,147.09,931.13Z"/><path class="cls-34" d="M767,896.84c2.15-2.19,1.73-3.45,4.74-4.88s4.2-5.29,8.36-5c3-.93,4.8-5.58,7.41-6.25s3.23.56,5.54.37c3.5-.9,8.49-2.2,11.86-2.38s3.23.94,4.29,3.46c2.39-.14,4.4-1.63,7-.84s3.45,1.7,5.25,4.43c3.41,5.19,5.25-5.61,7.33,5.38,2,10.72-3.36,28.71-8.23,38.55,1.67-.06,3.15.39,3.86,1.9,1.61,3.44-3.36,7.1-6.07,8.67a13.65,13.65,0,0,1-7.84,1.41,13.93,13.93,0,0,1-5.92,3.91c-3.11.83-9.87,1.74-11-2.16-.46-1.64.33-3,1.63-4.07-7-2.52-10.39-5.45-17.66-9.57-8-4.49-11.36-15.91-15.36-24.53A19,19,0,0,1,767,896.84Z"/><path class="cls-35" d="M825.15,889.15c-1.23-.29-3.29,5.89-4.61,13.79s-3.58,27.77-2.35,28,5.49-19.11,6.81-27S826.38,889.43,825.15,889.15Z"/><path class="cls-35" d="M817.62,883.88c-1.24-.15-2.74,7-3.34,16s-1.08,31.52.16,31.67,3.75-22.12,4.35-31.13S818.87,884,817.62,883.88Z"/><path class="cls-35" d="M810.52,882.68c-1.25,0-2.07,7.46-1.82,16.71s1.87,32.22,3.12,32.24,1.65-22.93,1.4-32.18S811.77,882.69,810.52,882.68Z"/><path class="cls-35" d="M803.44,881.7c-1.24.12-1.3,8-.13,17.59s5.06,33.34,6.3,33.22-.65-24-1.82-33.64S804.68,881.59,803.44,881.7Z"/><path class="cls-35" d="M796.26,882.1c-1.21.25-.54,8.11,1.51,17.56s8.13,32.71,9.35,32.46-2.89-23.92-4.94-33.37S797.48,881.85,796.26,882.1Z"/><path class="cls-35" d="M789.05,883.64c-1.18.39.33,8.26,3.36,17.59s11.52,32.16,12.7,31.76-5.4-23.86-8.43-33.18S790.23,883.25,789.05,883.64Z"/><path class="cls-35" d="M782.37,886.24c-1.13.52,1.11,8.22,5,17.21s14.48,30.88,15.62,30.36-7.63-23.25-11.52-32.24S783.5,885.72,782.37,886.24Z"/><path class="cls-35" d="M776.14,889.89c-1.07.64,1.83,8,6.47,16.51s17,29,18.12,28.39-9.59-22.22-14.23-30.7S777.22,889.26,776.14,889.89Z"/><path class="cls-35" d="M770.49,896.77c-1,.79,2.63,7.52,8.07,15s19.72,25.53,20.69,24.74S787.53,916.46,782.1,909,771.46,896,770.49,896.77Z"/><path class="cls-35" d="M764.12,904.72c-.83,1,3.59,6.78,9.87,13s22.58,20.91,23.41,19.95-14.11-17.2-20.4-23.43S765,903.76,764.12,904.72Z"/><path class="cls-34" d="M249.53,764c-1.81,0-2.11-.69-4,0s-3.93-.44-5.65,1.35c-1.68.82-4.31-.3-5.73.47s-1.21,1.52-2.31,2.37a45.76,45.76,0,0,0-6.17,3.79c-1.57,1.27-1.07,1.66-.55,3.1-1.11.9-2.58,1.11-3.41,2.44s-.86,2.06-.59,3.87c.53,3.44-4.51-.14-1.13,5.08s12.73,10.11,18.74,12.09a2.17,2.17,0,0,0-1,2.3c.64,2,4.27,1.49,6.08,1a8.85,8.85,0,0,0,4-2.58,8.79,8.79,0,0,0,4.14-.8c1.71-.92,5.05-3.26,4-5.26a2.16,2.16,0,0,0-2.32-1c2.14-3.82,2.46-6.33,4.07-10.88,1.76-5-1.21-10.89-2.81-15.93A11,11,0,0,0,249.53,764Z"/><path class="cls-35" d="M220.78,784.21c.43-.6,3.77,1,7.44,3.67s12.47,9.64,12,10.25-9.92-5.43-13.59-8.06S220.35,784.82,220.78,784.21Z"/><path class="cls-35" d="M222.05,779.1c.49-.56,4,1.71,7.77,5.07s12.82,12.14,12.33,12.7-10.32-7.32-14.12-10.68S221.56,779.66,222.05,779.1Z"/><path class="cls-35" d="M224.72,775.78c.55-.51,3.84,2.15,7.35,5.94s11.8,13.61,11.25,14.11-9.71-8.49-13.22-12.28S224.18,776.29,224.72,775.78Z"/><path class="cls-35" d="M227.47,772.56c.6-.45,3.71,2.67,6.95,7s10.82,15.32,10.22,15.77-9.13-9.85-12.37-14.15S226.88,773,227.47,772.56Z"/><path class="cls-35" d="M230.8,769.85c.64-.39,3.42,3,6.21,7.61s9.22,16.3,8.58,16.69-8.09-10.7-10.88-15.29S230.17,770.23,230.8,769.85Z"/><path class="cls-35" d="M234.6,767.58c.67-.32,3.09,3.43,5.4,8.36s7.5,17.44,6.82,17.76-6.95-11.68-9.26-16.62S233.93,767.89,234.6,767.58Z"/><path class="cls-35" d="M238.58,765.94c.7-.24,2.72,3.73,4.52,8.87s5.69,18.12,5,18.36-5.73-12.33-7.53-17.47S237.87,766.19,238.58,765.94Z"/><path class="cls-35" d="M242.76,764.91c.72-.17,2.34,3.93,3.6,9.17s3.82,18.41,3.1,18.58S245,780,243.74,774.72,242,765.09,242.76,764.91Z"/><path class="cls-35" d="M248,765.39c.74-.07,1.77,4.06,2.31,9.23s1.27,18.07.53,18.15-2.67-12.7-3.21-17.88S247.22,765.47,248,765.39Z"/><path class="cls-35" d="M253.89,766c.74.05,1.07,4.14.72,9.14s-1.8,17.37-2.54,17.32-.49-12.51-.15-17.51S253.15,766,253.89,766Z"/><path class="cls-36" d="M640.64,872.94c-4.22,3.37-10.57,2.42-14.19-2.11s-6.81-15.54-2.59-18.9,14.23,2.18,17.85,6.71S644.85,869.58,640.64,872.94Z"/><path class="cls-37" d="M606.48,855.25c-5.59-2-9.32-5.8-8.35-8.55s7.27-6.18,12.85-4.21,8.34,8.59,7.37,11.34S612.06,857.22,606.48,855.25Z"/><path class="cls-38" d="M599.51,903.37c-4.81-3.46-7.32-8.18-5.61-10.55s8.71-3.89,13.51-.43,5.59,10.59,3.88,13S604.31,906.83,599.51,903.37Z"/><path class="cls-39" d="M639.78,821.79c-5-1.12-8.26-5.44-7.31-9.65s6.71-11,11.7-9.87,7.3,9.72,6.35,13.93S644.77,822.91,639.78,821.79Z"/><path class="cls-37" d="M621.86,912.66c-4.4-1-7.34-4.61-6.56-8.09s5.78-9,10.18-8,6.55,8.13,5.77,11.61S626.26,913.65,621.86,912.66Z"/><path class="cls-40" d="M587.11,829.86c-.8-5.86.9-10.94,3.79-11.33s8.82,3.64,9.62,9.5-3.83,11.34-6.72,11.74S587.91,835.73,587.11,829.86Z"/><ellipse class="cls-37" cx="601.15" cy="809.95" rx="5.7" ry="6.99" transform="translate(-134.57 119.94) rotate(-10.25)"/><ellipse class="cls-37" cx="637.64" cy="902.3" rx="5.7" ry="6.99" transform="translate(-150.43 127.91) rotate(-10.25)"/><ellipse class="cls-37" cx="620.06" cy="805.11" rx="8.48" ry="11.16" transform="translate(-385.57 658.88) rotate(-44.12)"/><ellipse class="cls-37" cx="645.24" cy="885.31" rx="6.55" ry="11.16" transform="translate(-215.2 207.27) rotate(-15.68)"/><ellipse class="cls-37" cx="538.03" cy="862.76" rx="4.15" ry="5.09" transform="translate(-80.67 55.89) rotate(-5.53)"/><ellipse class="cls-37" cx="551.14" cy="861.49" rx="7.19" ry="5.09" transform="translate(-80.48 57.14) rotate(-5.53)"/><path class="cls-38" d="M528.29,865.69c-3.7-.35-6.95,1.9-7.25,5s2.17,9.12,5.87,9.48,7.25-5.08,7.55-8.21S532,866,528.29,865.69Z"/><path class="cls-37" d="M520.51,863.34c-.46-3.37-4.82-5.56-9.73-4.89s-13.51,4.64-13,8,9.81,4.89,14.72,4.21S521,866.72,520.51,863.34Z"/><ellipse class="cls-36" cx="524" cy="837.71" rx="6.18" ry="6.1" transform="translate(-334.96 349.33) rotate(-28.35)"/><ellipse class="cls-37" cx="527.47" cy="891.08" rx="6.18" ry="8.13" transform="translate(-159.72 116.47) rotate(-10.95)"/><ellipse class="cls-37" cx="526.17" cy="855.25" rx="5.9" ry="8.29" transform="translate(-378.7 419.92) rotate(-32.71)"/><path class="cls-37" d="M377.09,928.44c-.76-7.34,1.88-13.63,5.9-14.05s11.95,4.79,12.71,12.13-5.95,14.06-10,14.47S377.85,935.79,377.09,928.44Z"/><path class="cls-36" d="M387.11,910.89c-5.36,1.27-10.59-1.71-11.69-6.66s1.23-15,6.58-16.26,11.71,6.73,12.81,11.68S392.46,909.63,387.11,910.89Z"/><path class="cls-37" d="M422.24,863.49c-3.24,2.83-7.74,2.76-10-.15s-3.86-10.53-.62-13.36,10.08.19,12.38,3.11S425.49,860.66,422.24,863.49Z"/><path class="cls-37" d="M459.76,865.58c-3.87,1.76-8.19.39-9.64-3.07s-1-11.21,2.91-13,9.66,3.12,11.11,6.58S463.63,863.81,459.76,865.58Z"/><path class="cls-37" d="M459.23,907.24c-3.91,1.67-8.2.19-9.57-3.31s-.71-11.23,3.2-12.9,9.59,3.36,11,6.85S463.14,905.57,459.23,907.24Z"/><path class="cls-37" d="M452.05,925.14c-3.47,1.79-8.09-.6-10.32-5.34s-3.48-14.81,0-16.59,10.35,5.4,12.58,10.14S455.52,923.36,452.05,925.14Z"/><path class="cls-37" d="M391.41,852.47c-2.68,4.3-7.26,6.12-10.21,4s-6.19-9.32-3.51-13.62,10.25-4,13.21-1.95S394.09,848.17,391.41,852.47Z"/><path class="cls-37" d="M383.88,835.74c-4.5-2.11-7.37-5.71-6.4-8s6.37-4.86,10.87-2.75,6.39,8.07,5.43,10.4S388.38,837.85,383.88,835.74Z"/><path class="cls-41" d="M446.22,838.55c-.32-5.16,1.38-9.46,3.8-9.59s7.08,3.79,7.39,9-3.83,9.59-6.24,9.73S446.54,843.72,446.22,838.55Z"/><ellipse class="cls-37" cx="451.86" cy="820.51" rx="4.72" ry="6.11" transform="translate(-81.75 50.66) rotate(-5.89)"/><ellipse class="cls-40" cx="436.29" cy="894.21" rx="7.03" ry="7.32" transform="translate(-89.39 49.45) rotate(-5.89)"/><ellipse class="cls-38" cx="405.08" cy="838.77" rx="7.06" ry="9.71" transform="translate(-267.93 194.81) rotate(-20.49)"/><ellipse class="cls-37" cx="457.97" cy="879.75" rx="7.06" ry="9.71" transform="translate(-278.92 215.91) rotate(-20.49)"/><ellipse class="cls-37" cx="427" cy="875.3" rx="6.72" ry="9.94" transform="translate(-32.43 16.58) rotate(-2.14)"/><ellipse class="cls-37" cx="384.37" cy="873.9" rx="8.18" ry="10.97" transform="translate(-87.58 44.02) rotate(-5.89)"/><path class="cls-8" d="M771.64,780.38c5.36-9.58,18.39-12.49,29.1-6.5s33,28.65,27.6,38.23-36.31,2.47-47-3.53S766.28,790,771.64,780.38Z"/><path class="cls-42" d="M780.13,784.06c4.46-8,15.19-10.45,24-5.54s26.95,23.57,22.49,31.54-29.87,2.24-38.65-2.67S775.66,792,780.13,784.06Z"/><path class="cls-43" d="M787.59,789.11a12.73,12.73,0,0,1,17.4-4.6c6.24,3.49,19,17,15.62,23.07s-21.6,2.25-27.83-1.24A12.73,12.73,0,0,1,787.59,789.11Z"/><path class="cls-44" d="M794.66,792.05c2.09-3.75,7.26-4.85,11.54-2.46s13.19,11.38,11.1,15.13-14.42.84-18.7-1.56S792.56,795.79,794.66,792.05Z"/><path class="cls-8" d="M801.4,795.63c1.41-2.51,5.1-3.12,8.24-1.37s9.82,8.17,8.41,10.69-10.36.18-13.5-1.58S800,798.15,801.4,795.63Z"/><path class="cls-8" d="M906.17,862.12c9.3-9.22,23-2,32.24,6.9s17.3,67.7-.13,57.41-12.55-19.41-28.34-30S896.86,871.34,906.17,862.12Z"/><path class="cls-44" d="M910.15,867c7.61-7.54,18.79-1.6,26.37,5.64s14.14,55.35-.11,46.94-10.26-15.87-23.17-24.5S902.54,874.54,910.15,867Z"/><path class="cls-43" d="M914.07,872.93c6.52-6.46,16.1-1.37,22.59,4.83s12.12,47.43-.09,40.23-8.79-13.61-19.85-21S907.55,879.38,914.07,872.93Z"/><path class="cls-42" d="M918.42,878.08c5.45-5.39,13.44-1.14,18.86,4s10.11,39.59-.08,33.57-7.33-11.35-16.57-17.52S913,883.47,918.42,878.08Z"/><path class="cls-45" d="M923,882.38c4.07-4,10.13-.77,14.26,3.18s7.93,30,.19,25.35-5.62-8.63-12.63-13.35S918.92,886.41,923,882.38Z"/><path class="cls-8" d="M107.49,789.34c-8.86,2.55-9.09,13.43-6.85,22.17s35.61,33.89,35.29,19.66-7.61-14.38-8.65-27.7S116.35,786.8,107.49,789.34Z"/><path class="cls-44" d="M109.12,793.47c-7.24,2.08-7.44,11-5.6,18.12s29.11,27.71,28.85,16.07-6.22-11.75-7.08-22.64S116.36,791.39,109.12,793.47Z"/><path class="cls-43" d="M111.41,797.91c-6.21,1.78-6.38,9.41-4.8,15.53s25,23.75,24.72,13.77-5.33-10.07-6.06-19.4S117.61,796.13,111.41,797.91Z"/><path class="cls-42" d="M113.08,802.35c-5.18,1.49-5.32,7.86-4,13s20.82,19.81,20.63,11.49-4.44-8.41-5.06-16.2S118.25,800.87,113.08,802.35Z"/><path class="cls-45" d="M114.15,806.63c-3.88,1.11-4,6-3,9.85s15.67,15.16,15.49,8.83-3.36-6.42-3.85-12.35S118,805.52,114.15,806.63Z"/><path class="cls-46" d="M295.49,906.86c0-6-17.19-10.89-26.67-11.77-.3-9.8-3.26-24.74-8.7-25.35-4.89-.55-10.39,10.61-13.25,19.77-8.44-2.27-29.16-2.92-31,3.26-1.37,4.63,8.25,11.8,16.67,16.23-6.41,6.41-12.53,14.83-10.16,18.62,3.49,5.57,24-1,31.18-5.47.31-.19.61-.4.9-.6,6,7.18,20.56,18.92,25.53,15.37,3.47-2.48,1.39-11.82-1.83-19.94C286.67,914.88,295.49,911.13,295.49,906.86Z"/><circle class="cls-47" cx="260" cy="872" r="1.5"/><circle class="cls-47" cx="259" cy="876" r="1.5"/><circle class="cls-47" cx="258" cy="880" r="1.5"/><circle class="cls-47" cx="257" cy="884" r="1.5"/><circle class="cls-47" cx="256" cy="888" r="1.5"/><circle class="cls-47" cx="255" cy="892" r="1.5"/><circle class="cls-47" cx="254" cy="896" r="1.5"/><circle class="cls-47" cx="254" cy="900" r="1.5"/><circle class="cls-47" cx="220.17" cy="893.28" r="1.5"/><circle class="cls-47" cx="224.12" cy="894.48" r="1.5"/><circle class="cls-47" cx="228.06" cy="895.69" r="1.5"/><circle class="cls-47" cx="232" cy="896.9" r="1.5"/><circle class="cls-47" cx="235.95" cy="898.1" r="1.5"/><circle class="cls-47" cx="239.89" cy="899.31" r="1.5"/><circle class="cls-47" cx="243.83" cy="900.51" r="1.5"/><circle class="cls-47" cx="247.83" cy="900.72" r="1.5"/><circle class="cls-47" cx="227.74" cy="925.64" r="1.5"/><circle class="cls-47" cx="231.1" cy="923.26" r="1.5"/><circle class="cls-47" cx="234.47" cy="920.88" r="1.5"/><circle class="cls-47" cx="237.83" cy="918.49" r="1.5"/><circle class="cls-47" cx="241.2" cy="916.11" r="1.5"/><circle class="cls-47" cx="244.57" cy="913.73" r="1.5"/><circle class="cls-47" cx="247.93" cy="911.35" r="1.5"/><circle class="cls-47" cx="250.54" cy="908.32" r="1.5"/><circle class="cls-47" cx="277.07" cy="933.16" r="1.5"/><circle class="cls-47" cx="274.61" cy="929.86" r="1.5"/><circle class="cls-47" cx="272.15" cy="926.55" r="1.5"/><circle class="cls-47" cx="269.69" cy="923.24" r="1.5"/><circle class="cls-47" cx="267.22" cy="919.94" r="1.5"/><circle class="cls-47" cx="264.76" cy="916.63" r="1.5"/><circle class="cls-47" cx="262.3" cy="913.32" r="1.5"/><circle class="cls-47" cx="259.2" cy="910.79" r="1.5"/><circle class="cls-47" cx="291.45" cy="905.3" r="1.5"/><circle class="cls-47" cx="287.34" cy="905.07" r="1.5"/><circle class="cls-47" cx="283.22" cy="904.83" r="1.5"/><circle class="cls-47" cx="279.1" cy="904.6" r="1.5"/><circle class="cls-47" cx="274.99" cy="904.37" r="1.5"/><circle class="cls-47" cx="270.87" cy="904.14" r="1.5"/><circle class="cls-47" cx="266.75" cy="903.91" r="1.5"/><circle class="cls-47" cx="262.82" cy="904.66" r="1.5"/><path class="cls-4" d="M344.78,275.62c4.56,1.14,3.86,20.83-.53,36.68-4.71,17-15.16,35.11-19.72,33.63s-3.13-22.63,1.94-39.3C331,291.73,340.25,274.49,344.78,275.62Z"/><path class="cls-4" d="M383.06,260.56c3.69-2.92,18.84,9.67,28.72,22.83,10.61,14.13,18.53,33.45,14.57,36.15S406.52,308.2,396.42,294C387.4,281.3,379.39,263.45,383.06,260.56Z"/><path class="cls-4" d="M354.72,275.63c2.75,1.47-.6,13.53-5.73,22.6-5.51,9.76-14.85,19.18-17.54,17.5s1.32-14.53,7-24C343.56,283.28,352,274.16,354.72,275.63Z"/><path class="cls-4" d="M374.19,271.41c1.93-2.45,10.13.22,15.54,4.53,5.82,4.63,10.26,12.62,8.19,15s-10.68-.84-16.22-5.63C376.75,281.05,372.28,273.84,374.19,271.41Z"/><path class="cls-48" d="M699.09,311.52c-.45-10.54-3-22.08-13.26-26.74-13.37-6-23.12-12.4-38.79-12.64-7.67-.11-17.67-3-25.62.47C593.08,285,590.43,297,589,323.18c-.73,13.69-2,17.35,1.43,28.92,1.26,4.18,2.52,6.31,6.46,8.87,11.82,7.67,21.34,17.4,36.32,20.3,15.77,3.05,30.8-.89,44.48-8,5.86-3.06,10.07-5.51,12.87-11.22,4.66-9.51,4.81-19.82,5.65-30.22C696.77,325.28,699.36,317.88,699.09,311.52Z"/><path class="cls-5" d="M660.72,410c-11.75,9.52-30-1.15-44.17-3.1-8.75-1.2-19-8.46-20.19-16.51-3.33-23,8.74-61.41,12.26-85.62,1.23-8.5,6.41-12.83,15.3-12.19,14.36,1,33.9,3.28,48,5.56,8.75,1.41,13,6.06,12,15.14-3,25.89-5.5,55.64-10.67,81.1C671.44,403.33,668,404.1,660.72,410Z"/><ellipse class="cls-48" cx="649.11" cy="285.83" rx="14.19" ry="35.31" transform="translate(248.08 870.83) rotate(-79.33)"/><path d="M630.36,312.47a.5.5,0,0,1-.38,0c-7.74-3.17-14.9,5.47-15,5.56a.53.53,0,0,1-.81-.67c.07-.09,7.71-9.33,16.18-5.87a.53.53,0,0,1,.29.69A.52.52,0,0,1,630.36,312.47Z"/><path d="M657.52,314.57a.5.5,0,0,0,.38,0c7.74-3.17,14.89,5.47,15,5.56a.52.52,0,0,0,.74.07.53.53,0,0,0,.07-.74c-.07-.09-7.71-9.32-16.18-5.87a.53.53,0,0,0-.29.69A.49.49,0,0,0,657.52,314.57Z"/><path d="M641.63,355.8a41.77,41.77,0,0,1-6.1-1,8.25,8.25,0,0,1-6.2-4.54c-.12-.19,0-.39.32-.45a.74.74,0,0,1,.74.24c1.2,1.92,2.06,3.31,5.46,4.08,3.76.86,8,1.66,11,.32a4.85,4.85,0,0,0,3-3.44,3.17,3.17,0,0,0-1.21-3.1c-.84-.68-1.54-1.13-2.15-1.54a10.16,10.16,0,0,1-3.34-3.08c-1.78-2.56-1.56-4.77.75-7.4a.75.75,0,0,1,.77-.11c.28.1.39.32.24.49-2.12,2.42-2.33,4.44-.71,6.77a9.29,9.29,0,0,0,3.09,2.86,25.94,25.94,0,0,1,2.24,1.6,3.69,3.69,0,0,1,1.46,3.64A5.56,5.56,0,0,1,647.6,355,12.5,12.5,0,0,1,641.63,355.8Z"/><circle class="cls-48" cx="669.22" cy="358.63" r="1.58"/><path class="cls-17" d="M637.69,385.16a15.74,15.74,0,0,1-7.59.45A14.71,14.71,0,0,0,637.69,385.16Z"/><path class="cls-17" d="M624.18,387.82a.5.5,0,0,1,0-.13,1.2,1.2,0,0,1,0-.2,1.52,1.52,0,0,1,0-.19c0-.11,0-.34,0-.49v-.06s0,0,0,.07,0,.37,0,.48a.84.84,0,0,0,0,.19c0,.08,0,.14,0,.2a.57.57,0,0,0,0,.14,5.58,5.58,0,0,0,.35.79h0A5.65,5.65,0,0,1,624.18,387.82Z"/><path class="cls-17" d="M645.8,385.05a.3.3,0,0,0,0-.1.45.45,0,0,0-.06-.12h0l0,.09Z"/><path class="cls-17" d="M611.53,360.53l-.08,0h0C611.51,360.55,611.53,360.55,611.53,360.53Z"/><path class="cls-17" d="M630.63,369.11l-.36-.17.28.18Z"/><path class="cls-49" d="M624.08,387.3a1.52,1.52,0,0,0,0,.19,1.2,1.2,0,0,0,0,.2.5.5,0,0,0,0,.13,5.65,5.65,0,0,0,.34.8c.25-.11.42.06.57,0a.32.32,0,0,1,.26,0c4.51,1.53,8.87,2.92,13.54,2.85A29.43,29.43,0,0,0,643,391c.36-.06.74-.12,1.13-.2a3.79,3.79,0,0,0,.72-.66c1.37-1.69,1.83-3.05,1-5.08l-.06-.14,0-.09-.07-.07-.1-.1-.08-.06-.06,0s0-.06-.08-.07,0,0,0,0c-.58-.14-.83-.42-1.48-.43a18.24,18.24,0,0,0-5.25.86l-.86.23a14.71,14.71,0,0,1-7.59.45l-.32-.07a14.17,14.17,0,0,1-1.56-.68c-.57-.22-1.22-.77-1.87-.69-1.62.19-2.13,1-2.24,2.58v.06C624.11,387,624.08,387.19,624.08,387.3Z"/><path class="cls-8" d="M664,367.78a3.2,3.2,0,0,1-.51.83c-.69,1-1.61,2.25-2.29,3.23-5.93,1.08-9.16.82-15.71,2.49s-18-2.36-23.05-6.21c-4.19-3.2-6-4.22-9.06-6.26l-1.83-.69a1.47,1.47,0,0,0-.3-.08c-3.14,8-1.12,13.32,4.15,21.22.09.13,7.07,6.72,8.65,7.09h0c-.1-.26,0-.52.38-.77l.07,0a5.58,5.58,0,0,1-.35-.79.57.57,0,0,1,0-.14c0-.06,0-.12,0-.2a.84.84,0,0,1,0-.19c0-.11,0-.34,0-.48s0-.05,0-.07c0-1.66.57-2.45,2.24-2.61.67-.06,1.32.49,1.89.72a14.91,14.91,0,0,0,1.55.68l.31.07a15.74,15.74,0,0,0,7.59-.45l.87-.25a16.25,16.25,0,0,1,5.23-.87,4.67,4.67,0,0,1,1.46.43s0,0,0,0,.07.06.09.07l0,0a.21.21,0,0,1,.08.06l.1.1.09.08v0h0a.45.45,0,0,1,.06.12.3.3,0,0,1,0,.1c1,2,.48,3.42-.94,5.11a4.73,4.73,0,0,1-.65.61c2.24-.43,4.85-1.11,6.55-.77.24,0,.31.11.28.18a1.11,1.11,0,0,0,.45-.16,37.4,37.4,0,0,0,5.68-3.21l.43-.31c.14-.09,0,0,0,0a14.42,14.42,0,0,0,2.09-2c3.91-5.37,7-9.91,5.18-16.4C664.65,368.06,664.4,367.9,664,367.78Z"/><path class="cls-8" d="M644.83,390.13a3.79,3.79,0,0,1-.72.66l.1,0a4.73,4.73,0,0,0,.65-.61c1.42-1.69,2-3.11.94-5.11C646.66,387.08,646.2,388.44,644.83,390.13Z"/><path class="cls-8" d="M626.35,384.17c.65-.08,1.3.47,1.87.69a14.17,14.17,0,0,0,1.56.68l.32.07-.31-.07a14.91,14.91,0,0,1-1.55-.68c-.57-.23-1.22-.78-1.89-.72-1.67.16-2.24.95-2.24,2.61C624.22,385.17,624.73,384.36,626.35,384.17Z"/><path class="cls-8" d="M643.8,384.07c.65,0,.9.29,1.48.43,0,0,0,0,0,0s.06.06.08.07l.06,0,.08.06.1.1.07.07v0l-.09-.08-.1-.1a.21.21,0,0,0-.08-.06l0,0s-.06-.06-.09-.07,0,0,0,0a4.67,4.67,0,0,0-1.46-.43,16.25,16.25,0,0,0-5.23.87l-.87.25.86-.23A18.24,18.24,0,0,1,643.8,384.07Z"/><path class="cls-50" d="M625.11,389.58l-.05-.06q-.3-.45-.54-.9h0l.49.9A.21.21,0,0,0,625.11,389.58Z"/><path class="cls-50" d="M643.27,391.52l-.07.06c-1.43.21-2.26.57-3.82.68-4.78.34-9.22-1.13-13.87-2.49a1.09,1.09,0,0,1-.28-.06l0,0-.1,0c-.28.06-.52-.18-1-.31.27.73,2,1.45,2.7,1.73a6.45,6.45,0,0,0,.72.28l.43.14a34.11,34.11,0,0,0,10.49,1.32c.09,0,.32-.05.38-.05a55.55,55.55,0,0,0,9.68-1.76,9,9,0,0,0,2.57-.89,5.67,5.67,0,0,1-.6.05A40.32,40.32,0,0,0,643.27,391.52Z"/><path class="cls-50" d="M644.11,390.79c-.39.08-.77.14-1.13.2a29.43,29.43,0,0,1-4.09.54c-4.67.07-9-1.32-13.54-2.85a.32.32,0,0,0-.26,0c-.15,0-.32-.13-.57,0q.24.45.54.9l.05.06c.06,0,.12.07.09.1l0,0a1.09,1.09,0,0,0,.28.06c4.65,1.36,9.09,2.83,13.87,2.49,1.56-.11,2.39-.47,3.82-.68l.07-.06,0,0A7.48,7.48,0,0,1,644.11,390.79Z"/><path class="cls-50" d="M625.2,389.68a.43.43,0,0,1-.09-.1.21.21,0,0,1-.1-.06l-.49-.9-.07,0c-.39.25-.48.51-.38.77.51.13.75.37,1,.31Z"/><path class="cls-50" d="M650.76,390c-1.7-.34-4.31.34-6.55.77-.32.26-.65.5-.94.75a40.32,40.32,0,0,1,7.17-1.29,5.67,5.67,0,0,0,.6-.05C651.07,390.11,651,390,650.76,390Z"/><path class="cls-50" d="M625.11,389.58a.43.43,0,0,0,.09.1S625.17,389.62,625.11,389.58Z"/><path class="cls-50" d="M643.22,391.54l0,0c.29-.25.62-.49.94-.75l-.1,0A7.48,7.48,0,0,0,643.22,391.54Z"/><path class="cls-3" d="M614,362.11l-.25-.09c2.8,1.73,4.63,2.74,8.64,5.6,5.06,3.61,16.51,7.33,22.93,5.87s9.61-1.1,15.43-2c1-1.2,2.05-2.47,3-3.78a3.58,3.58,0,0,0-.37-.06c-1.78-.18-2.43-1.23-5-1s-6,1.62-9,2.83c-2.37.94-6,2.31-9,2.41s-6.65-1.3-9.22-2.48l-.64-.32h-.08l-.28-.18c-2.77-1.41-5.2-3.1-7.88-4.11C619.38,363.7,617,363.18,614,362.11Z"/><path class="cls-3" d="M660.79,371.51c-5.82.88-9,.52-15.43,2s-17.87-2.26-22.93-5.87c-4-2.86-5.84-3.87-8.64-5.6l-.43-.16c3,2,4.87,3.06,9.06,6.26,5,3.85,16.51,7.89,23.05,6.21s9.78-1.41,15.71-2.49c.68-1,1.6-2.21,2.29-3.23a3.2,3.2,0,0,0,.51-.83l-.15,0C662.84,369,661.77,370.31,660.79,371.51Z"/><polygon class="cls-3" points="611.45 360.52 611.44 360.52 611.45 360.52 611.45 360.52"/><path class="cls-50" d="M662.43,365.53a48.41,48.41,0,0,0-10.53,1.32,1.36,1.36,0,0,0-.34.11c-3.93.93-8,2.8-11.93,2.64-5.12-.21-8.62-2.4-13.25-4.56-1-.46-2.75-1.62-3.92-2.17l-.65-.32c-.23-.1-.57-.29-.84-.41a20.37,20.37,0,0,0-2-.85,19,19,0,0,0-2.2-.53l-.83-.13c-1.41-.24-3-.74-4.31-.12l-.08.05h0l-.08.05a2.59,2.59,0,0,0-.31.19c-.25.2-.09.24.13.28a1.47,1.47,0,0,1,.3.08l1.83.69.43.16.25.09c2.93,1.07,5.34,1.59,8.35,2.72,2.68,1,5.11,2.7,7.88,4.11l.36.17.64.32c2.57,1.18,6.25,2.58,9.22,2.48s6.61-1.47,9-2.41c3.08-1.21,6.51-2.6,9-2.83s3.17.82,5,1a3.58,3.58,0,0,1,.37.06l.15,0c.42.12.67.28.92.24a1,1,0,0,0,.54-.35C666.15,366.9,662.71,365.53,662.43,365.53Z"/><path class="cls-5" d="M631.9,345.63c-.6,2-6.2,2.18-10.75,1.23s-10.36-3.71-9.68-5.85,7.08-2.08,11.81-.87C627.51,341.23,632.49,343.65,631.9,345.63Z"/><path class="cls-3" d="M390.21,299c5.52-.45,9.93,5.23,10.67,10.43s-2.33,12.67-8.31,13.1-10.31-6.19-10.48-11.72C381.94,305.85,384.69,299.43,390.21,299Z"/><path class="cls-3" d="M350.25,309.6c5.35-1.84,11.48,3.3,13.56,8.22,2.23,5.28-.52,13.52-6.36,15.06s-11.05-4.25-12.42-9.52C343.79,318.65,344.9,311.44,350.25,309.6Z"/><path class="cls-1" d="M390.12,304.41c3.58-1,7.34,2.58,8.61,6.26s.34,9.45-3.55,10.49-7.74-3.23-8.67-7.21C385.67,310.39,386.53,305.4,390.12,304.41Z"/><path class="cls-1" d="M352,315.44c3.57-1,7.37,2.5,8.68,6.16s.46,9.45-3.42,10.53S349.5,329,348.52,325C347.64,321.47,348.44,316.48,352,315.44Z"/><path d="M390.34,306.43c3.1-.86,6.34,2.23,7.43,5.4s.3,8.16-3.06,9.06-6.68-2.79-7.49-6.23C386.51,311.59,387.25,307.28,390.34,306.43Z"/><circle class="cls-3" cx="393" cy="310" r="1.5"/><path d="M353.34,317.43c3.1-.86,6.34,2.23,7.43,5.4s.3,8.16-3.06,9.06-6.68-2.79-7.49-6.23C349.51,322.59,350.25,318.28,353.34,317.43Z"/><circle class="cls-3" cx="356" cy="321" r="1.5"/><path class="cls-3" d="M665.57,322.39c5,2.1,6.26,9,4.57,13.87s-7.74,9.94-13.13,7.62-6.16-10-3.81-14.9C655.3,324.63,660.58,320.29,665.57,322.39Z"/><path class="cls-1" d="M663.05,327.06c3.56.76,5.21,5.56,4.65,9.32s-4,8.36-7.82,7.51-5.26-6.3-4.27-10.18C656.49,330.25,659.49,326.31,663.05,327.06Z"/><path d="M662.33,328.92c3.07.65,4.5,4.79,4,8s-3.42,7.21-6.74,6.48-4.54-5.44-3.69-8.79C656.67,331.66,659.26,328.26,662.33,328.92Z"/><path class="cls-3" d="M628.34,317.38c5.57,1.1,8.29,8.65,7.61,13.95-.73,5.7-7.27,11.46-13.1,9.85s-7.43-9.25-6-14.51C618.19,322,622.78,316.28,628.34,317.38Z"/><path class="cls-1" d="M626.93,323.33c3.62.9,5.13,5.88,4.42,9.71s-4.36,8.42-8.27,7.4-5.16-6.64-4-10.57C620.1,326.35,623.31,322.43,626.93,323.33Z"/><path d="M627.08,325.72c3.11.82,4.36,5.12,3.71,8.43s-3.85,7.22-7.22,6.3-4.38-5.79-3.34-9.17C621.15,328.25,624,324.9,627.08,325.72Z"/><path class="cls-5" d="M403.83,319.35c.68,1.85-3.47,5.2-7.47,7.09s-10,3.1-10.71,1.08,4.19-5.63,8.49-7.41C398,318.52,403.14,317.51,403.83,319.35Z"/><path class="cls-5" d="M368.48,333.29c.55,2.91-4,6.06-8.29,7.18s-10.56.49-11.12-2.67,4.78-6.4,9.35-7.26C362.51,329.78,367.92,330.38,368.48,333.29Z"/><ellipse class="cls-51" cx="351.46" cy="342.17" rx="7.33" ry="6.11" transform="translate(-78.28 105.67) rotate(-15.41)"/><ellipse class="cls-51" cx="401.28" cy="329.71" rx="7.33" ry="6.11" transform="translate(-73.18 118.46) rotate(-15.41)"/><path class="cls-5" d="M635,344.4c-.5,2-6.09,2.43-10.68,1.68s-10.51-3.26-9.92-5.42,7-2.38,11.76-1.36C630.41,340.2,635.49,342.4,635,344.4Z"/><path class="cls-5" d="M673.14,345.52c-.14,2.07-5.56,3.48-10.22,3.56s-10.92-1.36-10.72-3.59,6.45-3.59,11.33-3.44C667.9,342.19,673.29,343.46,673.14,345.52Z"/><path class="cls-5" d="M682.5,359.66c-2.6,4.44-9,2.68-10.85-5-3-12.14,4.32-20.21,9.32-21.45,6-1.5,12.22,6.22,2.84,13.39C679.66,349.76,684.64,356,682.5,359.66Z"/><path class="cls-5" d="M595.86,349.81c1,4.73,7.16,5.05,11.15-1.22,6.31-9.9,2.2-19.27-1.87-21.87-4.92-3.14-12.74,1.87-6.54,11.07C601.34,341.85,595.05,345.91,595.86,349.81Z"/><ellipse class="cls-48" cx="633.74" cy="276.09" rx="18.92" ry="4.58" transform="translate(316.25 890.13) rotate(-86.2)"/><ellipse class="cls-48" cx="641.26" cy="276.68" rx="18.92" ry="5.04" transform="translate(322.78 898.24) rotate(-86.21)"/><ellipse class="cls-48" cx="651.91" cy="278.61" rx="18.84" ry="5.06" transform="translate(231.05 849.12) rotate(-76.73)"/><ellipse class="cls-48" cx="659.04" cy="279.57" rx="18.92" ry="5" transform="translate(336.5 918.68) rotate(-86.21)"/><ellipse class="cls-48" cx="646.67" cy="276.43" rx="16" ry="2.32" transform="translate(327.68 903.21) rotate(-86.17)"/><ellipse class="cls-48" cx="628.92" cy="274.51" rx="16" ry="2.32" transform="translate(313.03 883.69) rotate(-86.17)"/><ellipse class="cls-48" cx="665.29" cy="284.06" rx="16" ry="3.24" transform="translate(337.61 928.98) rotate(-86.19)"/><ellipse class="cls-48" cx="644.33" cy="277.33" rx="4.58" ry="12.61"/><ellipse class="cls-48" cx="636.79" cy="277.39" rx="5.04" ry="12.61"/><ellipse class="cls-48" cx="626.03" cy="278.2" rx="4.97" ry="12.78" transform="translate(-51.42 176.39) rotate(-15.41)"/><ellipse class="cls-48" cx="618.85" cy="278.53" rx="5" ry="12.61"/><ellipse class="cls-48" cx="631.4" cy="276.99" rx="2.32" ry="10.66"/><ellipse class="cls-48" cx="649.25" cy="276.5" rx="2.32" ry="10.66"/><ellipse class="cls-48" cx="612.32" cy="281.23" rx="3.24" ry="10.66"/><ellipse class="cls-48" cx="672.78" cy="282.42" rx="13.88" ry="4.55" transform="translate(273.15 892.91) rotate(-79.56)"/><ellipse class="cls-48" cx="665.29" cy="281.8" rx="13.88" ry="5" transform="translate(266.09 884.01) rotate(-79.42)"/><ellipse class="cls-48" cx="654.46" cy="281.69" rx="5.05" ry="13.73" transform="translate(-15.19 38.3) rotate(-3.31)"/><ellipse class="cls-48" cx="647.27" cy="281.39" rx="13.88" ry="4.97" transform="translate(251.9 866.05) rotate(-79.43)"/><ellipse class="cls-48" cx="660.02" cy="280.87" rx="11.73" ry="2.3" transform="translate(268.51 881.89) rotate(-79.97)"/><ellipse class="cls-48" cx="677.81" cy="281.97" rx="11.73" ry="2.3" transform="translate(282.12 900.32) rotate(-79.97)"/><ellipse class="cls-48" cx="640.29" cy="283.73" rx="11.73" ry="3.21" transform="translate(247.28 863.39) rotate(-79.76)"/><ellipse class="cls-48" cx="614.4" cy="285.79" rx="7.88" ry="1.91" transform="translate(201.35 822.96) rotate(-77.39)"/><ellipse class="cls-48" cx="611.33" cy="285.14" rx="7.88" ry="2.1" transform="translate(199.5 819.39) rotate(-77.38)"/><ellipse class="cls-48" cx="606.85" cy="284.66" rx="7.84" ry="2.11" transform="translate(289.4 875.01) rotate(-86.86)"/><ellipse class="cls-48" cx="603.88" cy="284.2" rx="7.88" ry="2.08" transform="translate(194.6 811.4) rotate(-77.38)"/><ellipse class="cls-48" cx="609.19" cy="284.41" rx="6.66" ry="0.97" transform="translate(198.89 817) rotate(-77.42)"/><ellipse class="cls-48" cx="616.51" cy="285.73" rx="6.66" ry="0.97" transform="translate(203.32 825.17) rotate(-77.42)"/><ellipse class="cls-48" cx="600.86" cy="285.26" rx="6.66" ry="1.35" transform="translate(191.41 809.43) rotate(-77.4)"/><ellipse class="cls-48" cx="684.75" cy="288.38" rx="7.88" ry="1.91" transform="translate(253.81 893.64) rotate(-77.39)"/><ellipse class="cls-48" cx="681.68" cy="287.74" rx="7.88" ry="2.1" transform="translate(251.94 890.07) rotate(-77.38)"/><ellipse class="cls-48" cx="677.2" cy="287.25" rx="7.84" ry="2.11" transform="translate(353.31 947.71) rotate(-86.86)"/><ellipse class="cls-48" cx="674.23" cy="286.8" rx="7.88" ry="2.08" transform="translate(247.05 882.08) rotate(-77.38)"/><ellipse class="cls-48" cx="679.54" cy="287" rx="6.66" ry="0.97" transform="translate(251.38 887.69) rotate(-77.42)"/><ellipse class="cls-48" cx="686.86" cy="288.32" rx="6.66" ry="0.97" transform="translate(255.81 895.86) rotate(-77.42)"/><ellipse class="cls-48" cx="671.21" cy="287.86" rx="6.66" ry="1.35" transform="translate(243.88 880.12) rotate(-77.4)"/><ellipse class="cls-48" cx="653.1" cy="296.12" rx="7.88" ry="1.91" transform="translate(139.91 796.98) rotate(-68.69)"/><ellipse class="cls-48" cx="650.16" cy="295.02" rx="7.88" ry="2.1" transform="translate(138.98 793.45) rotate(-68.68)"/><ellipse class="cls-48" cx="645.8" cy="293.86" rx="7.84" ry="2.11" transform="translate(225.76 865.68) rotate(-78.17)"/><ellipse class="cls-48" cx="642.94" cy="292.96" rx="7.88" ry="2.08" transform="matrix(0.36, -0.93, 0.93, 0.36, 136.31, 785.43)"/><ellipse class="cls-48" cx="648.16" cy="293.96" rx="6.66" ry="0.97" transform="translate(139.01 791.25) rotate(-68.72)"/><ellipse class="cls-48" cx="655.2" cy="296.38" rx="6.66" ry="0.97" transform="translate(141.24 799.34) rotate(-68.72)"/><ellipse class="cls-48" cx="639.8" cy="293.55" rx="6.66" ry="1.35" transform="translate(133.94 783.07) rotate(-68.71)"/><ellipse class="cls-48" cx="639.58" cy="291.27" rx="7.88" ry="1.91" transform="matrix(0.26, -0.97, 0.97, 0.26, 193.65, 834.45)"/><ellipse class="cls-48" cx="636.53" cy="290.5" rx="7.88" ry="2.1" transform="translate(192.04 830.87) rotate(-75.09)"/><ellipse class="cls-48" cx="632.08" cy="289.84" rx="7.84" ry="2.11" transform="translate(283.77 891.68) rotate(-84.57)"/><ellipse class="cls-48" cx="629.13" cy="289.27" rx="7.88" ry="2.08" transform="translate(187.75 822.81) rotate(-75.09)"/><ellipse class="cls-48" cx="634.43" cy="289.68" rx="6.66" ry="0.97" transform="translate(191.62 828.51) rotate(-75.13)"/><ellipse class="cls-48" cx="641.69" cy="291.29" rx="6.66" ry="0.97" transform="translate(195.46 836.72) rotate(-75.13)"/><ellipse class="cls-48" cx="626.07" cy="290.2" rx="6.66" ry="1.35" transform="translate(184.77 820.71) rotate(-75.11)"/><ellipse class="cls-48" cx="665.94" cy="294.45" rx="7.88" ry="1.91" transform="translate(315.94 932.95) rotate(-85.12)"/><ellipse class="cls-48" cx="662.81" cy="294.22" rx="7.88" ry="2.1" transform="translate(313.2 929.56) rotate(-85.11)"/><ellipse class="cls-48" cx="658.3" cy="294.35" rx="2.11" ry="7.84" transform="translate(-21.48 53.72) rotate(-4.6)"/><ellipse class="cls-48" cx="655.31" cy="294.3" rx="7.88" ry="2.08" transform="translate(306.27 922.16) rotate(-85.11)"/><ellipse class="cls-48" cx="660.59" cy="293.78" rx="6.66" ry="0.97" transform="matrix(0.08, -1, 1, 0.08, 312.02, 927.18)"/><ellipse class="cls-48" cx="668.02" cy="294.1" rx="6.66" ry="0.97" transform="matrix(0.08, -1, 1, 0.08, 318.5, 934.87)"/><ellipse class="cls-48" cx="652.45" cy="295.75" rx="6.66" ry="1.35" transform="translate(302.45 920.78) rotate(-85.14)"/><ellipse class="cls-48" cx="678.55" cy="294.45" rx="7.88" ry="1.91" transform="translate(327.48 945.52) rotate(-85.12)"/><ellipse class="cls-48" cx="675.42" cy="294.22" rx="7.88" ry="2.1" transform="translate(324.74 942.13) rotate(-85.11)"/><ellipse class="cls-48" cx="670.91" cy="294.35" rx="2.11" ry="7.84" transform="translate(-21.44 54.73) rotate(-4.6)"/><ellipse class="cls-48" cx="667.92" cy="294.3" rx="7.88" ry="2.08" transform="translate(317.81 934.73) rotate(-85.11)"/><ellipse class="cls-48" cx="673.21" cy="293.78" rx="6.66" ry="0.97" transform="matrix(0.08, -1, 1, 0.08, 323.57, 939.74)"/><ellipse class="cls-48" cx="680.63" cy="294.1" rx="6.66" ry="0.97" transform="translate(330.05 947.44) rotate(-85.15)"/><ellipse class="cls-48" cx="665.07" cy="295.75" rx="6.66" ry="1.35" transform="translate(314 933.35) rotate(-85.14)"/><ellipse class="cls-48" cx="626.01" cy="287.35" rx="7.88" ry="1.91" transform="translate(286.48 886.67) rotate(-85.12)"/><ellipse class="cls-48" cx="622.88" cy="287.12" rx="7.88" ry="2.1" transform="translate(283.75 883.29) rotate(-85.11)"/><ellipse class="cls-48" cx="618.37" cy="287.25" rx="2.11" ry="7.84" transform="translate(-21.04 50.49) rotate(-4.6)"/><ellipse class="cls-48" cx="615.38" cy="287.2" rx="7.88" ry="2.08" transform="translate(276.82 875.88) rotate(-85.11)"/><ellipse class="cls-48" cx="620.67" cy="286.68" rx="6.66" ry="0.97" transform="translate(282.54 880.89) rotate(-85.15)"/><ellipse class="cls-48" cx="628.1" cy="287.01" rx="6.66" ry="0.97" transform="matrix(0.08, -1, 1, 0.08, 289.02, 888.59)"/><ellipse class="cls-48" cx="612.53" cy="288.65" rx="6.66" ry="1.35" transform="translate(272.98 874.5) rotate(-85.14)"/><ellipse class="cls-48" cx="624.06" cy="275.8" rx="2.63" ry="16.57" transform="translate(-26.69 70.75) rotate(-6.35)"/><circle class="cls-3" cx="627.7" cy="329.73" r="1.05"/><circle class="cls-3" cx="663.43" cy="332.88" r="1.05"/><path class="cls-3" d="M494.36,468.47l5.81-15.08-22.23-8.56C490.22,449.56,497.57,460.14,494.36,468.47Z"/><path class="cls-3" d="M491.35,453.71a1.5,1.5,0,0,0,0-3,1.5,1.5,0,0,0,0,3Z"/><path class="cls-3" d="M491.39,453.79h0l-.39-.05h0l-.36-.15.06,0a1.48,1.48,0,0,0,1.52,0,1.45,1.45,0,0,0,.53-.54,1.42,1.42,0,0,0,.21-.75,1.59,1.59,0,0,0-.21-.77,1.18,1.18,0,0,0-.24-.31h0l-.3-.24h0l0,0-.09-.05.3.23-.33-.26,0,0,.3.23-.33-.26a3.2,3.2,0,0,0-.39-.17l-.1,0,.36.15-.41-.17h-.06l.36.15a2.54,2.54,0,0,0-.38-.16h0a1.12,1.12,0,0,0-.6,0,1.16,1.16,0,0,0-.56.18,1.18,1.18,0,0,0-.42.38,1.13,1.13,0,0,0-.26.51l-.06.4a1.45,1.45,0,0,0,.21.76l.23.3a1.49,1.49,0,0,0,.66.39h0l-.36-.15a3.56,3.56,0,0,0,.41.17l.06,0-.36-.15a3.56,3.56,0,0,0,.41.17h.06l-.36-.15,0,0-.3-.23c.11.09.22.18.34.26l.05,0-.3-.24a3.17,3.17,0,0,0,.36.28.2.2,0,0,1,.08,0l-.3-.23h0l-.23-.3h0l-.15-.36h0l-.05-.4h0l2.26-1.3a2.12,2.12,0,0,0-.42-.18h-.05l-.4,0h0a1.06,1.06,0,0,0-.58.13,1,1,0,0,0-.48.31,1.08,1.08,0,0,0-.31.48,1.06,1.06,0,0,0-.13.58l.05.4a1.49,1.49,0,0,0,.39.66l.3.23a1.48,1.48,0,0,0,.76.21Z"/><path class="cls-3" d="M490.73,453.43h.13l-.4-.05h.06l-.36-.15.15.08.16.1-.3-.24.06.06a3.07,3.07,0,0,0,.36.27l-.3-.23h0a1.14,1.14,0,0,0,.48.31,1.36,1.36,0,0,0,1.16,0,1.14,1.14,0,0,0,.48-.31l.24-.3a1.54,1.54,0,0,0,.2-.76l-.05-.4a1.59,1.59,0,0,0-.39-.66l-.16-.13-.17-.13.3.24-.06-.06,0,0-.32-.24h0l-.08,0-.08,0-.07,0h-.07l-.36-.15a1.55,1.55,0,0,0-.48-.07h-.1a1.06,1.06,0,0,0-.58.13,1.14,1.14,0,0,0-.48.31,1,1,0,0,0-.31.48,1.15,1.15,0,0,0-.13.58l0,.4a1.59,1.59,0,0,0,.39.66l.3.23a1.48,1.48,0,0,0,.76.21Z"/><path class="cls-3" d="M491.45,453.81a1.5,1.5,0,0,0,0-3,1.5,1.5,0,0,0,0,3Z"/><path class="cls-3" d="M491.54,453.9a1.5,1.5,0,0,0,0-3,1.5,1.5,0,0,0,0,3Z"/><path class="cls-3" d="M491.42,453.82a1.5,1.5,0,0,0,0-3,1.5,1.5,0,0,0,0,3Z"/><path class="cls-3" d="M491.21,453.69a1.5,1.5,0,0,0,0-3,1.5,1.5,0,0,0,0,3Z"/><path class="cls-3" d="M491.59,453.92a1.5,1.5,0,0,0,0-3,1.5,1.5,0,0,0,0,3Z"/><path class="cls-3" d="M491.63,454a1.5,1.5,0,0,0,0-3,1.5,1.5,0,0,0,0,3Z"/><path class="cls-3" d="M491.74,454.09a1.5,1.5,0,0,0,0-3,1.5,1.5,0,0,0,0,3Z"/><path class="cls-3" d="M496.54,465.72a1.5,1.5,0,0,0,0-3,1.5,1.5,0,0,0,0,3Z"/><path class="cls-3" d="M496.55,465.8a1.5,1.5,0,0,0,0-3,1.5,1.5,0,0,0,0,3Z"/><path class="cls-3" d="M496.58,465.59a1.5,1.5,0,0,0,0-3,1.5,1.5,0,0,0,0,3Z"/><path class="cls-3" d="M496.58,465.58a1.5,1.5,0,0,0,0-3,1.5,1.5,0,0,0,0,3Z"/><path class="cls-3" d="M496.57,465.71a1.5,1.5,0,0,0,0-3,1.5,1.5,0,0,0,0,3Z"/></g></svg>